999
dxfrw 0.5.11
0
SECTION
2
HEADER
9
$ACADVER
1
AC1021
9
$HANDSEED
5
20000
9
$DWGCODEPAGE
3
ANSI_1252
9
$INSBASE
10
0
20
0
30
0
9
$EXTMIN
10
-3.3515625
20
-4.25
30
0
9
$EXTMAX
10
2.29670138889
20
1.825
30
0
9
$LIMMIN
10
0
20
0
9
$LIMMAX
10
420
20
297
9
$ORTHOMODE
70
0
9
$LTSCALE
40
1
9
$TEXTSTYLE
7
STANDARD
9
$CLAYER
8
0
9
$DIMASZ
40
0.1
9
$DIMLFAC
40
1
9
$DIMSCALE
40
1
9
$DIMEXO
40
0.025
9
$DIMEXE
40
0.05
9
$DIMTXT
40
0.1
9
$DIMTSZ
40
0
9
$DIMAUNIT
70
0
9
$DIMADEC
70
0
9
$DIMLUNIT
70
2
9
$DIMSTYLE
2
STANDARD
9
$DIMGAP
40
0.025
9
$DIMTIH
70
0
9
$LUNITS
70
2
9
$LUPREC
70
4
9
$AUNITS
70
0
9
$AUPREC
70
2
9
$SPLINESEGS
70
8
9
$GRIDMODE
70
1
9
$SNAPSTYLE
70
0
9
$PINSBASE
10
4.76190872783
20
7.08771982699
30
0
9
$PLIMMIN
10
0
20
0
9
$PLIMMAX
10
8.26771653543
20
11.6929133858
9
$INSUNITS
70
1
9
$PSVPSCALE
40
1
0
ENDSEC
0
SECTION
2
CLASSES
0
ENDSEC
0
SECTION
2
TABLES
0
TABLE
2
VPORT
5
8
330
0
100
AcDbSymbolTable
70
1
0
VPORT
5
31
330
2
100
AcDbSymbolTableRecord
100
AcDbViewportTableRecord
2
*ACTIVE
70
0
10
0
20
0
11
1
21
1
12
2.23033216783
22
0.913374125874
13
0
23
0
14
10
24
10
15
10
25
10
16
0
26
0
36
1
17
0
27
0
37
0
40
6.21660839161
41
1.77904328018
42
50
43
0
44
0
50
0
51
0
71
0
72
100
73
1
74
3
75
0
76
1
77
0
78
0
281
0
65
1
110
0
120
0
130
0
111
1
121
0
131
0
112
0
122
1
132
0
79
0
146
0
348
10020
60
7
61
5
292
1
282
1
141
0
142
0
63
250
421
3358443
0
ENDTAB
0
TABLE
2
LTYPE
5
5
330
0
100
AcDbSymbolTable
70
4
0
LTYPE
5
14
330
5
100
AcDbSymbolTableRecord
100
AcDbLinetypeTableRecord
2
ByBlock
70
0
3

72
65
73
0
40
0
0
LTYPE
5
15
330
5
100
AcDbSymbolTableRecord
100
AcDbLinetypeTableRecord
2
ByLayer
70
0
3

72
65
73
0
40
0
0
LTYPE
5
16
330
5
100
AcDbSymbolTableRecord
100
AcDbLinetypeTableRecord
2
Continuous
70
0
3
Solid line
72
65
73
0
40
0
0
LTYPE
5
32
330
5
100
AcDbSymbolTableRecord
100
AcDbLinetypeTableRecord
2
DOT
70
0
3
Dot . . . . . . . . . . . . . . . . . . . . . .
72
65
73
2
40
6.35
49
0
74
0
49
-6.35
74
0
0
LTYPE
5
33
330
5
100
AcDbSymbolTableRecord
100
AcDbLinetypeTableRecord
2
DOT2
70
0
3
Dot (.5x) .....................................
72
65
73
2
40
3.175
49
0
74
0
49
-3.175
74
0
0
LTYPE
5
34
330
5
100
AcDbSymbolTableRecord
100
AcDbLinetypeTableRecord
2
DOTX2
70
0
3
Dot (2x) .  .  .  .  .  .  .  .  .  .  .  .  .
72
65
73
2
40
12.7
49
0
74
0
49
-12.7
74
0
0
LTYPE
5
35
330
5
100
AcDbSymbolTableRecord
100
AcDbLinetypeTableRecord
2
DASHED
70
0
3
Dot . . . . . . . . . . . . . . . . . . . . . .
72
65
73
2
40
19.05
49
12.7
74
0
49
-6.35
74
0
0
LTYPE
5
36
330
5
100
AcDbSymbolTableRecord
100
AcDbLinetypeTableRecord
2
DASHED2
70
0
3
Dashed (.5x) _ _ _ _ _ _ _ _ _ _ _ _ _ _ _ _ _
72
65
73
2
40
9.525
49
6.35
74
0
49
-3.175
74
0
0
LTYPE
5
37
330
5
100
AcDbSymbolTableRecord
100
AcDbLinetypeTableRecord
2
DASHEDX2
70
0
3
Dashed (2x) ____  ____  ____  ____  ____  ___
72
65
73
2
40
38.1
49
25.4
74
0
49
-12.7
74
0
0
LTYPE
5
38
330
5
100
AcDbSymbolTableRecord
100
AcDbLinetypeTableRecord
2
DASHDOT
70
0
3
Dash dot __ . __ . __ . __ . __ . __ . __ . __
72
65
73
4
40
25.4
49
12.7
74
0
49
-6.35
74
0
49
0
74
0
49
-6.35
74
0
0
LTYPE
5
39
330
5
100
AcDbSymbolTableRecord
100
AcDbLinetypeTableRecord
2
DASHDOT2
70
0
3
Dash dot (.5x) _._._._._._._._._._._._._._._.
72
65
73
4
40
12.7
49
6.35
74
0
49
-3.175
74
0
49
0
74
0
49
-3.175
74
0
0
LTYPE
5
3A
330
5
100
AcDbSymbolTableRecord
100
AcDbLinetypeTableRecord
2
DASHDOTX2
70
0
3
Dash dot (2x) ____  .  ____  .  ____  .  ___
72
65
73
4
40
50.8
49
25.4
74
0
49
-12.7
74
0
49
0
74
0
49
-12.7
74
0
0
LTYPE
5
3B
330
5
100
AcDbSymbolTableRecord
100
AcDbLinetypeTableRecord
2
DIVIDE
70
0
3
Divide ____ . . ____ . . ____ . . ____ . . ____
72
65
73
6
40
31.75
49
12.7
74
0
49
-6.35
74
0
49
0
74
0
49
-6.35
74
0
49
0
74
0
49
-6.35
74
0
0
LTYPE
5
3C
330
5
100
AcDbSymbolTableRecord
100
AcDbLinetypeTableRecord
2
DIVIDE2
70
0
3
Divide (.5x) __..__..__..__..__..__..__..__.._
72
65
73
6
40
15.875
49
6.35
74
0
49
-3.175
74
0
49
0
74
0
49
-3.175
74
0
49
0
74
0
49
-3.175
74
0
0
LTYPE
5
3D
330
5
100
AcDbSymbolTableRecord
100
AcDbLinetypeTableRecord
2
DIVIDEX2
70
0
3
Divide (2x) ________  .  .  ________  .  .  _
72
65
73
6
40
63.5
49
25.4
74
0
49
-12.7
74
0
49
0
74
0
49
-12.7
74
0
49
0
74
0
49
-12.7
74
0
0
LTYPE
5
3E
330
5
100
AcDbSymbolTableRecord
100
AcDbLinetypeTableRecord
2
BORDER
70
0
3
Border __ __ . __ __ . __ __ . __ __ . __ __ .
72
65
73
6
40
44.45
49
12.7
74
0
49
-6.35
74
0
49
12.7
74
0
49
-6.35
74
0
49
0
74
0
49
-6.35
74
0
0
LTYPE
5
3F
330
5
100
AcDbSymbolTableRecord
100
AcDbLinetypeTableRecord
2
BORDER2
70
0
3
Border (.5x) __.__.__.__.__.__.__.__.__.__.__.
72
65
73
6
40
22.225
49
6.35
74
0
49
-3.175
74
0
49
6.35
74
0
49
-3.175
74
0
49
0
74
0
49
-3.175
74
0
0
LTYPE
5
40
330
5
100
AcDbSymbolTableRecord
100
AcDbLinetypeTableRecord
2
BORDERX2
70
0
3
Border (2x) ____  ____  .  ____  ____  .  ___
72
65
73
6
40
88.9
49
25.4
74
0
49
-12.7
74
0
49
25.4
74
0
49
-12.7
74
0
49
0
74
0
49
-12.7
74
0
0
LTYPE
5
41
330
5
100
AcDbSymbolTableRecord
100
AcDbLinetypeTableRecord
2
CENTER
70
0
3
Center ____ _ ____ _ ____ _ ____ _ ____ _ ____
72
65
73
4
40
50.8
49
31.75
74
0
49
-6.35
74
0
49
6.35
74
0
49
-6.35
74
0
0
LTYPE
5
42
330
5
100
AcDbSymbolTableRecord
100
AcDbLinetypeTableRecord
2
CENTER2
70
0
3
Center (.5x) ___ _ ___ _ ___ _ ___ _ ___ _ ___
72
65
73
4
40
28.575
49
19.05
74
0
49
-3.175
74
0
49
3.175
74
0
49
-3.175
74
0
0
LTYPE
5
43
330
5
100
AcDbSymbolTableRecord
100
AcDbLinetypeTableRecord
2
CENTERX2
70
0
3
Center (2x) ________  __  ________  __  _____
72
65
73
4
40
101.6
49
63.5
74
0
49
-12.7
74
0
49
12.7
74
0
49
-12.7
74
0
0
ENDTAB
0
TABLE
2
LAYER
5
2
330
0
100
AcDbSymbolTable
70
1
0
LAYER
5
10
330
2
100
AcDbSymbolTableRecord
100
AcDbLayerTableRecord
2
0
70
0
62
7
6
CONTINUOUS
370
0
390
F
0
ENDTAB
0
TABLE
2
STYLE
5
3
330
0
100
AcDbSymbolTable
70
3
0
STYLE
5
44
330
2
100
AcDbSymbolTableRecord
100
AcDbTextStyleTableRecord
2
Standard
70
0
40
0
41
1
50
0
71
0
42
1
3
txt
4

0
ENDTAB
0
TABLE
2
VIEW
5
6
330
0
100
AcDbSymbolTable
70
0
0
ENDTAB
0
TABLE
2
UCS
5
7
330
0
100
AcDbSymbolTable
70
0
0
ENDTAB
0
TABLE
2
APPID
5
9
330
0
100
AcDbSymbolTable
70
1
0
APPID
5
12
330
9
100
AcDbSymbolTableRecord
100
AcDbRegAppTableRecord
2
ACAD
70
0
0
ENDTAB
0
TABLE
2
DIMSTYLE
5
A
330
0
100
AcDbSymbolTable
70
1
100
AcDbDimStyleTable
71
1
0
DIMSTYLE
105
45
330
A
100
AcDbSymbolTableRecord
100
AcDbDimStyleTableRecord
2
Standard
70
0
40
1
41
0.1
42
0.025
43
0.38
44
0.05
45
0
46
0
47
0
48
0
140
0.1
141
0.09
142
0
143
25.4
144
1
145
0
146
1
147
0.025
148
0
71
0
72
0
73
0
74
1
75
0
76
0
77
0
78
0
79
0
170
0
171
2
172
0
173
0
174
0
175
0
176
0
177
0
178
0
179
0
271
4
272
4
273
2
274
2
275
0
276
0
277
2
278
46
279
0
280
0
281
0
282
0
283
1
284
0
285
0
286
0
288
0
289
3
340
Standard
341

371
-2
372
-2
0
ENDTAB
0
TABLE
2
BLOCK_RECORD
5
1
330
0
100
AcDbSymbolTable
70
2
0
BLOCK_RECORD
5
1F
330
1
100
AcDbSymbolTableRecord
100
AcDbBlockTableRecord
2
*Model_Space
70
0
280
1
281
0
0
BLOCK_RECORD
5
1E
330
1
100
AcDbSymbolTableRecord
100
AcDbBlockTableRecord
2
*Paper_Space
70
0
280
1
281
0
0
BLOCK_RECORD
5
46
330
1
100
AcDbSymbolTableRecord
100
AcDbBlockTableRecord
2
*D7
70
0
280
1
281
0
0
BLOCK_RECORD
5
49
330
1
100
AcDbSymbolTableRecord
100
AcDbBlockTableRecord
2
*D8
70
0
280
1
281
0
0
BLOCK_RECORD
5
4C
330
1
100
AcDbSymbolTableRecord
100
AcDbBlockTableRecord
2
*D16
70
0
280
1
281
0
0
BLOCK_RECORD
5
4F
330
1
100
AcDbSymbolTableRecord
100
AcDbBlockTableRecord
2
*D17
70
0
280
1
281
0
0
BLOCK_RECORD
5
52
330
1
100
AcDbSymbolTableRecord
100
AcDbBlockTableRecord
2
*D12
70
0
280
1
281
0
0
BLOCK_RECORD
5
55
330
1
100
AcDbSymbolTableRecord
100
AcDbBlockTableRecord
2
*D2
70
0
280
1
281
0
0
BLOCK_RECORD
5
58
330
1
100
AcDbSymbolTableRecord
100
AcDbBlockTableRecord
2
*D5
70
0
280
1
281
0
0
BLOCK_RECORD
5
5B
330
1
100
AcDbSymbolTableRecord
100
AcDbBlockTableRecord
2
*D1
70
0
280
1
281
0
0
BLOCK_RECORD
5
5E
330
1
100
AcDbSymbolTableRecord
100
AcDbBlockTableRecord
2
*D3
70
0
280
1
281
0
0
BLOCK_RECORD
5
61
330
1
100
AcDbSymbolTableRecord
100
AcDbBlockTableRecord
2
*D19
70
0
280
1
281
0
0
BLOCK_RECORD
5
64
330
1
100
AcDbSymbolTableRecord
100
AcDbBlockTableRecord
2
*D9
70
0
280
1
281
0
0
BLOCK_RECORD
5
67
330
1
100
AcDbSymbolTableRecord
100
AcDbBlockTableRecord
2
*D13
70
0
280
1
281
0
0
BLOCK_RECORD
5
6A
330
1
100
AcDbSymbolTableRecord
100
AcDbBlockTableRecord
2
*D14
70
0
280
1
281
0
0
BLOCK_RECORD
5
6D
330
1
100
AcDbSymbolTableRecord
100
AcDbBlockTableRecord
2
*D10
70
0
280
1
281
0
0
BLOCK_RECORD
5
70
330
1
100
AcDbSymbolTableRecord
100
AcDbBlockTableRecord
2
*D11
70
0
280
1
281
0
0
BLOCK_RECORD
5
73
330
1
100
AcDbSymbolTableRecord
100
AcDbBlockTableRecord
2
*D4
70
0
280
1
281
0
0
BLOCK_RECORD
5
76
330
1
100
AcDbSymbolTableRecord
100
AcDbBlockTableRecord
2
*D15
70
0
280
1
281
0
0
BLOCK_RECORD
5
79
330
1
100
AcDbSymbolTableRecord
100
AcDbBlockTableRecord
2
*D6
70
0
280
1
281
0
0
BLOCK_RECORD
5
7C
330
1
100
AcDbSymbolTableRecord
100
AcDbBlockTableRecord
2
*D18
70
0
280
1
281
0
0
ENDTAB
0
ENDSEC
0
SECTION
2
BLOCKS
0
BLOCK
5
20
330
1F
100
AcDbEntity
8
0
100
AcDbBlockBegin
2
*Model_Space
70
0
10
0
20
0
30
0
3
*Model_Space
1

0
ENDBLK
5
21
330
1F
100
AcDbEntity
8
0
100
AcDbBlockEnd
0
BLOCK
5
1C
330
1B
100
AcDbEntity
8
0
100
AcDbBlockBegin
2
*Paper_Space
70
0
10
0
20
0
30
0
3
*Paper_Space
1

0
ENDBLK
5
1D
330
1F
100
AcDbEntity
8
0
100
AcDbBlockEnd
0
BLOCK
5
47
330
46
100
AcDbEntity
8
0
100
AcDbBlockBegin
2
*D7
70
1
10
0
20
0
3
*D7
1

0
LINE
5
7F
100
AcDbEntity
8
0
6
CONTINUOUS
62
7
370
0
100
AcDbLine
10
1.8828125
20
1.7
11
-3.3515625
21
1.7
0
SOLID
5
80
100
AcDbEntity
8
0
6
CONTINUOUS
62
7
370
0
100
AcDbTrace
10
1.8828125
20
1.7
30
0
11
1.7828125
21
1.68334861369
31
0
12
1.7828125
22
1.71665138631
32
0
13
1.7828125
23
1.71665138631
33
0
0
SOLID
5
81
100
AcDbEntity
8
0
6
CONTINUOUS
62
7
370
0
100
AcDbTrace
10
-3.3515625
20
1.7
30
0
11
-3.2515625
21
1.71665138631
31
0
12
-3.2515625
22
1.68334861369
32
0
13
-3.2515625
23
1.68334861369
33
0
0
MTEXT
5
82
100
AcDbEntity
8
0
6
CONTINUOUS
62
7
370
0
100
AcDbMText
10
-0.734375
20
1.775
30
0
40
0.1
41
0.411111111111
71
5
72
1
1
5.2344
7
standard
210
0
220
0
230
1
50
360
73
2
44
1
0
LINE
5
83
100
AcDbEntity
8
0
6
CONTINUOUS
62
7
370
0
100
AcDbLine
10
1.8828125
20
0.137659227793
11
1.8828125
21
1.75
0
LINE
5
84
100
AcDbEntity
8
0
6
CONTINUOUS
62
7
370
0
100
AcDbLine
10
-3.3515625
20
0.2203125
11
-3.3515625
21
1.75
0
ENDBLK
5
48
330
46
100
AcDbEntity
8
0
100
AcDbBlockEnd
0
BLOCK
5
4A
330
49
100
AcDbEntity
8
0
100
AcDbBlockBegin
2
*D8
70
1
10
0
20
0
3
*D8
1

0
LINE
5
85
100
AcDbEntity
8
0
6
CONTINUOUS
62
7
370
0
100
AcDbLine
10
1.8828125
20
-0.5
11
0.125
21
-0.5
0
SOLID
5
86
100
AcDbEntity
8
0
6
CONTINUOUS
62
7
370
0
100
AcDbTrace
10
1.8828125
20
-0.5
30
0
11
1.7828125
21
-0.516651386311
31
0
12
1.7828125
22
-0.483348613689
32
0
13
1.7828125
23
-0.483348613689
33
0
0
SOLID
5
87
100
AcDbEntity
8
0
6
CONTINUOUS
62
7
370
0
100
AcDbTrace
10
0.125
20
-0.5
30
0
11
0.225
21
-0.483348613689
31
0
12
0.225
22
-0.516651386311
32
0
13
0.225
23
-0.516651386311
33
0
0
MTEXT
5
88
100
AcDbEntity
8
0
6
CONTINUOUS
62
7
370
0
100
AcDbMText
10
1.00390625
20
-0.425
30
0
40
0.1
41
0.366666666667
71
5
72
1
1
1.7578
7
standard
210
0
220
0
230
1
50
360
73
2
44
1
0
LINE
5
89
100
AcDbEntity
8
0
6
CONTINUOUS
62
7
370
0
100
AcDbLine
10
1.8828125
20
-0.137659227793
11
1.8828125
21
-0.55
0
LINE
5
8A
100
AcDbEntity
8
0
6
CONTINUOUS
62
7
370
0
100
AcDbLine
10
0.125
20
-0.415625
11
0.125
21
-0.55
0
ENDBLK
5
4B
330
49
100
AcDbEntity
8
0
100
AcDbBlockEnd
0
BLOCK
5
4D
330
4C
100
AcDbEntity
8
0
100
AcDbBlockBegin
2
*D16
70
1
10
0
20
0
3
*D16
1

0
LINE
5
8B
100
AcDbEntity
8
0
6
CONTINUOUS
62
7
370
0
100
AcDbLine
10
-2.21875
20
-2.5
11
-1.59375
21
-2.5
0
SOLID
5
8C
100
AcDbEntity
8
0
6
CONTINUOUS
62
7
370
0
100
AcDbTrace
10
-2.21875
20
-2.5
30
0
11
-2.11875
21
-2.48334861369
31
0
12
-2.11875
22
-2.51665138631
32
0
13
-2.11875
23
-2.51665138631
33
0
0
SOLID
5
8D
100
AcDbEntity
8
0
6
CONTINUOUS
62
7
370
0
100
AcDbTrace
10
-1.59375
20
-2.5
30
0
11
-1.69375
21
-2.51665138631
31
0
12
-1.69375
22
-2.48334861369
32
0
13
-1.69375
23
-2.48334861369
33
0
0
MTEXT
5
8E
100
AcDbEntity
8
0
6
CONTINUOUS
62
7
370
0
100
AcDbMText
10
-1.90625
20
-2.425
30
0
40
0.1
41
0.311111111111
71
5
72
1
1
0.625
7
standard
210
0
220
0
230
1
50
0
73
2
44
1
0
LINE
5
8F
100
AcDbEntity
8
0
6
CONTINUOUS
62
7
370
0
100
AcDbLine
10
-2.21875
20
-2.584375
11
-2.21875
21
-2.45
0
LINE
5
90
100
AcDbEntity
8
0
6
CONTINUOUS
62
7
370
0
100
AcDbLine
10
-1.59375
20
-2.584375
11
-1.59375
21
-2.45
0
ENDBLK
5
4E
330
4C
100
AcDbEntity
8
0
100
AcDbBlockEnd
0
BLOCK
5
50
330
4F
100
AcDbEntity
8
0
100
AcDbBlockBegin
2
*D17
70
1
10
0
20
0
3
*D17
1

0
LINE
5
91
100
AcDbEntity
8
0
6
CONTINUOUS
62
7
370
0
100
AcDbLine
10
-2.21875
20
-2.2
11
-0.5
21
-2.2
0
SOLID
5
92
100
AcDbEntity
8
0
6
CONTINUOUS
62
7
370
0
100
AcDbTrace
10
-2.21875
20
-2.2
30
0
11
-2.11875
21
-2.18334861369
31
0
12
-2.11875
22
-2.21665138631
32
0
13
-2.11875
23
-2.21665138631
33
0
0
SOLID
5
93
100
AcDbEntity
8
0
6
CONTINUOUS
62
7
370
0
100
AcDbTrace
10
-0.5
20
-2.2
30
0
11
-0.6
21
-2.21665138631
31
0
12
-0.6
22
-2.18334861369
32
0
13
-0.6
23
-2.18334861369
33
0
0
MTEXT
5
94
100
AcDbEntity
8
0
6
CONTINUOUS
62
7
370
0
100
AcDbMText
10
-1.359375
20
-2.125
30
0
40
0.1
41
0.344444444444
71
5
72
1
1
1.7187
7
standard
210
0
220
0
230
1
50
0
73
2
44
1
0
LINE
5
95
100
AcDbEntity
8
0
6
CONTINUOUS
62
7
370
0
100
AcDbLine
10
-2.21875
20
-2.584375
11
-2.21875
21
-2.15
0
LINE
5
96
100
AcDbEntity
8
0
6
CONTINUOUS
62
7
370
0
100
AcDbLine
10
-0.5
20
-2.584375
11
-0.5
21
-2.15
0
ENDBLK
5
51
330
4F
100
AcDbEntity
8
0
100
AcDbBlockEnd
0
BLOCK
5
53
330
52
100
AcDbEntity
8
0
100
AcDbBlockBegin
2
*D12
70
1
10
0
20
0
3
*D12
1

0
LINE
5
97
100
AcDbEntity
8
0
6
CONTINUOUS
62
7
370
0
100
AcDbLine
10
-2.5359375
20
-3.6
11
-2.01875
21
-3.6
0
SOLID
5
98
100
AcDbEntity
8
0
6
CONTINUOUS
62
7
370
0
100
AcDbTrace
10
-2.3359375
20
-3.6
30
0
11
-2.4359375
21
-3.61665138631
31
0
12
-2.4359375
22
-3.58334861369
32
0
13
-2.4359375
23
-3.58334861369
33
0
0
SOLID
5
99
100
AcDbEntity
8
0
6
CONTINUOUS
62
7
370
0
100
AcDbTrace
10
-2.21875
20
-3.6
30
0
11
-2.11875
21
-3.58334861369
31
0
12
-2.11875
22
-3.61665138631
32
0
13
-2.11875
23
-3.61665138631
33
0
0
MTEXT
5
9A
100
AcDbEntity
8
0
6
CONTINUOUS
62
7
370
0
100
AcDbMText
10
-2.02152777778
20
-3.525
30
0
40
0.1
41
0.344444444444
71
5
72
1
1
0.1172
7
standard
210
0
220
0
230
1
50
0
73
2
44
1
0
LINE
5
9B
100
AcDbEntity
8
0
6
CONTINUOUS
62
7
370
0
100
AcDbLine
10
-2.3359375
20
-3.27890625
11
-2.3359375
21
-3.65
0
LINE
5
9C
100
AcDbEntity
8
0
6
CONTINUOUS
62
7
370
0
100
AcDbLine
10
-2.21875
20
-3.415625
11
-2.21875
21
-3.65
0
ENDBLK
5
54
330
52
100
AcDbEntity
8
0
100
AcDbBlockEnd
0
BLOCK
5
56
330
55
100
AcDbEntity
8
0
100
AcDbBlockBegin
2
*D2
70
1
10
0
20
0
3
*D2
1

0
LINE
5
9D
100
AcDbEntity
8
0
6
CONTINUOUS
62
7
370
0
100
AcDbLine
10
1.8828125
20
0.7
11
0.4765625
21
0.7
0
SOLID
5
9E
100
AcDbEntity
8
0
6
CONTINUOUS
62
7
370
0
100
AcDbTrace
10
1.8828125
20
0.7
30
0
11
1.7828125
21
0.683348613689
31
0
12
1.7828125
22
0.716651386311
32
0
13
1.7828125
23
0.716651386311
33
0
0
SOLID
5
9F
100
AcDbEntity
8
0
6
CONTINUOUS
62
7
370
0
100
AcDbTrace
10
0.4765625
20
0.7
30
0
11
0.5765625
21
0.716651386311
31
0
12
0.5765625
22
0.683348613689
32
0
13
0.5765625
23
0.683348613689
33
0
0
MTEXT
5
A0
100
AcDbEntity
8
0
6
CONTINUOUS
62
7
370
0
100
AcDbMText
10
1.1796875
20
0.775
30
0
40
0.1
41
0.377777777778
71
5
72
1
1
1.4063
7
standard
210
0
220
0
230
1
50
360
73
2
44
1
0
LINE
5
A1
100
AcDbEntity
8
0
6
CONTINUOUS
62
7
370
0
100
AcDbLine
10
1.8828125
20
0.137659227793
11
1.8828125
21
0.75
0
LINE
5
A2
100
AcDbEntity
8
0
6
CONTINUOUS
62
7
370
0
100
AcDbLine
10
0.4765625
20
0.27890625
11
0.4765625
21
0.75
0
ENDBLK
5
57
330
55
100
AcDbEntity
8
0
100
AcDbBlockEnd
0
BLOCK
5
59
330
58
100
AcDbEntity
8
0
100
AcDbBlockBegin
2
*D5
70
1
10
0
20
0
3
*D5
1

0
LINE
5
A3
100
AcDbEntity
8
0
6
CONTINUOUS
62
7
370
0
100
AcDbLine
10
1.8828125
20
1.3
11
-1.359375
21
1.3
0
SOLID
5
A4
100
AcDbEntity
8
0
6
CONTINUOUS
62
7
370
0
100
AcDbTrace
10
1.8828125
20
1.3
30
0
11
1.7828125
21
1.28334861369
31
0
12
1.7828125
22
1.31665138631
32
0
13
1.7828125
23
1.31665138631
33
0
0
SOLID
5
A5
100
AcDbEntity
8
0
6
CONTINUOUS
62
7
370
0
100
AcDbTrace
10
-1.359375
20
1.3
30
0
11
-1.259375
21
1.31665138631
31
0
12
-1.259375
22
1.28334861369
32
0
13
-1.259375
23
1.28334861369
33
0
0
MTEXT
5
A6
100
AcDbEntity
8
0
6
CONTINUOUS
62
7
370
0
100
AcDbMText
10
0.26171875
20
1.375
30
0
40
0.1
41
0.4
71
5
72
1
1
3.2422
7
standard
210
0
220
0
230
1
50
360
73
2
44
1
0
LINE
5
A7
100
AcDbEntity
8
0
6
CONTINUOUS
62
7
370
0
100
AcDbLine
10
1.8828125
20
0.137659227793
11
1.8828125
21
1.35
0
LINE
5
A8
100
AcDbEntity
8
0
6
CONTINUOUS
62
7
370
0
100
AcDbLine
10
-1.359375
20
0.415625
11
-1.359375
21
1.35
0
ENDBLK
5
5A
330
58
100
AcDbEntity
8
0
100
AcDbBlockEnd
0
BLOCK
5
5C
330
5B
100
AcDbEntity
8
0
100
AcDbBlockBegin
2
*D1
70
1
10
0
20
0
3
*D1
1

0
LINE
5
A9
100
AcDbEntity
8
0
6
CONTINUOUS
62
7
370
0
100
AcDbLine
10
1.8828125
20
0.5
11
1.1015625
21
0.5
0
SOLID
5
AA
100
AcDbEntity
8
0
6
CONTINUOUS
62
7
370
0
100
AcDbTrace
10
1.8828125
20
0.5
30
0
11
1.7828125
21
0.483348613689
31
0
12
1.7828125
22
0.516651386311
32
0
13
1.7828125
23
0.516651386311
33
0
0
SOLID
5
AB
100
AcDbEntity
8
0
6
CONTINUOUS
62
7
370
0
100
AcDbTrace
10
1.1015625
20
0.5
30
0
11
1.2015625
21
0.516651386311
31
0
12
1.2015625
22
0.483348613689
32
0
13
1.2015625
23
0.483348613689
33
0
0
MTEXT
5
AC
100
AcDbEntity
8
0
6
CONTINUOUS
62
7
370
0
100
AcDbMText
10
1.4921875
20
0.575
30
0
40
0.1
41
0.366666666667
71
5
72
1
1
0.7813
7
standard
210
0
220
0
230
1
50
360
73
2
44
1
0
LINE
5
AD
100
AcDbEntity
8
0
6
CONTINUOUS
62
7
370
0
100
AcDbLine
10
1.8828125
20
0.137659227793
11
1.8828125
21
0.55
0
LINE
5
AE
100
AcDbEntity
8
0
6
CONTINUOUS
62
7
370
0
100
AcDbLine
10
1.1015625
20
0.2203125
11
1.1015625
21
0.55
0
ENDBLK
5
5D
330
5B
100
AcDbEntity
8
0
100
AcDbBlockEnd
0
BLOCK
5
5F
330
5E
100
AcDbEntity
8
0
100
AcDbBlockBegin
2
*D3
70
1
10
0
20
0
3
*D3
1

0
LINE
5
AF
100
AcDbEntity
8
0
6
CONTINUOUS
62
7
370
0
100
AcDbLine
10
1.8828125
20
0.9
11
0.359375
21
0.9
0
SOLID
5
B0
100
AcDbEntity
8
0
6
CONTINUOUS
62
7
370
0
100
AcDbTrace
10
1.8828125
20
0.9
30
0
11
1.7828125
21
0.883348613689
31
0
12
1.7828125
22
0.916651386311
32
0
13
1.7828125
23
0.916651386311
33
0
0
SOLID
5
B1
100
AcDbEntity
8
0
6
CONTINUOUS
62
7
370
0
100
AcDbTrace
10
0.359375
20
0.9
30
0
11
0.459375
21
0.916651386311
31
0
12
0.459375
22
0.883348613689
32
0
13
0.459375
23
0.883348613689
33
0
0
MTEXT
5
B2
100
AcDbEntity
8
0
6
CONTINUOUS
62
7
370
0
100
AcDbMText
10
1.12109375
20
0.975
30
0
40
0.1
41
0.377777777778
71
5
72
1
1
1.5234
7
standard
210
0
220
0
230
1
50
360
73
2
44
1
0
LINE
5
B3
100
AcDbEntity
8
0
6
CONTINUOUS
62
7
370
0
100
AcDbLine
10
1.8828125
20
0.137659227793
11
1.8828125
21
0.95
0
LINE
5
B4
100
AcDbEntity
8
0
6
CONTINUOUS
62
7
370
0
100
AcDbLine
10
0.359375
20
0.415625
11
0.359375
21
0.95
0
ENDBLK
5
60
330
5E
100
AcDbEntity
8
0
100
AcDbBlockEnd
0
BLOCK
5
62
330
61
100
AcDbEntity
8
0
100
AcDbBlockBegin
2
*D19
70
1
10
0
20
0
3
*D19
1

0
LINE
5
B5
100
AcDbEntity
8
0
6
CONTINUOUS
62
7
370
0
100
AcDbLine
10
1.8828125
20
0.3
11
1.50032450294
21
0.3
0
SOLID
5
B6
100
AcDbEntity
8
0
6
CONTINUOUS
62
7
370
0
100
AcDbTrace
10
1.8828125
20
0.3
30
0
11
1.7828125
21
0.283348613689
31
0
12
1.7828125
22
0.316651386311
32
0
13
1.7828125
23
0.316651386311
33
0
0
SOLID
5
B7
100
AcDbEntity
8
0
6
CONTINUOUS
62
7
370
0
100
AcDbTrace
10
1.50032450294
20
0.3
30
0
11
1.60032450294
21
0.316651386311
31
0
12
1.60032450294
22
0.283348613689
32
0
13
1.60032450294
23
0.283348613689
33
0
0
MTEXT
5
B8
100
AcDbEntity
8
0
6
CONTINUOUS
62
7
370
0
100
AcDbMText
10
2.10225694444
20
0.375
30
0
40
0.1
41
0.388888888889
71
5
72
1
1
0.3825
7
standard
210
0
220
0
230
1
50
360
73
2
44
1
0
LINE
5
B9
100
AcDbEntity
8
0
6
CONTINUOUS
62
7
370
0
100
AcDbLine
10
1.8828125
20
0.15
11
1.8828125
21
0.35
0
LINE
5
BA
100
AcDbEntity
8
0
6
CONTINUOUS
62
7
370
0
100
AcDbLine
10
1.50032450294
20
0.15
11
1.50032450294
21
0.35
0
ENDBLK
5
63
330
61
100
AcDbEntity
8
0
100
AcDbBlockEnd
0
BLOCK
5
65
330
64
100
AcDbEntity
8
0
100
AcDbBlockBegin
2
*D9
70
1
10
0
20
0
3
*D9
1

0
LINE
5
BB
100
AcDbEntity
8
0
6
CONTINUOUS
62
7
370
0
100
AcDbLine
10
1.8828125
20
-0.7
11
-0.5
21
-0.7
0
SOLID
5
BC
100
AcDbEntity
8
0
6
CONTINUOUS
62
7
370
0
100
AcDbTrace
10
1.8828125
20
-0.7
30
0
11
1.7828125
21
-0.716651386311
31
0
12
1.7828125
22
-0.683348613689
32
0
13
1.7828125
23
-0.683348613689
33
0
0
SOLID
5
BD
100
AcDbEntity
8
0
6
CONTINUOUS
62
7
370
0
100
AcDbTrace
10
-0.5
20
-0.7
30
0
11
-0.4
21
-0.683348613689
31
0
12
-0.4
22
-0.716651386311
32
0
13
-0.4
23
-0.716651386311
33
0
0
MTEXT
5
BE
100
AcDbEntity
8
0
6
CONTINUOUS
62
7
370
0
100
AcDbMText
10
0.69140625
20
-0.625
30
0
40
0.1
41
0.388888888889
71
5
72
1
1
2.3828
7
standard
210
0
220
0
230
1
50
360
73
2
44
1
0
LINE
5
BF
100
AcDbEntity
8
0
6
CONTINUOUS
62
7
370
0
100
AcDbLine
10
1.8828125
20
-0.137659227793
11
1.8828125
21
-0.75
0
LINE
5
C0
100
AcDbEntity
8
0
6
CONTINUOUS
62
7
370
0
100
AcDbLine
10
-0.5
20
-0.415625
11
-0.5
21
-0.75
0
ENDBLK
5
66
330
64
100
AcDbEntity
8
0
100
AcDbBlockEnd
0
BLOCK
5
68
330
67
100
AcDbEntity
8
0
100
AcDbBlockBegin
2
*D13
70
1
10
0
20
0
3
*D13
1

0
LINE
5
C1
100
AcDbEntity
8
0
6
CONTINUOUS
62
7
370
0
100
AcDbLine
10
-2.3359375
20
-3.8
11
-1.59375
21
-3.8
0
SOLID
5
C2
100
AcDbEntity
8
0
6
CONTINUOUS
62
7
370
0
100
AcDbTrace
10
-2.3359375
20
-3.8
30
0
11
-2.2359375
21
-3.78334861369
31
0
12
-2.2359375
22
-3.81665138631
32
0
13
-2.2359375
23
-3.81665138631
33
0
0
SOLID
5
C3
100
AcDbEntity
8
0
6
CONTINUOUS
62
7
370
0
100
AcDbTrace
10
-1.59375
20
-3.8
30
0
11
-1.69375
21
-3.81665138631
31
0
12
-1.69375
22
-3.78334861369
32
0
13
-1.69375
23
-3.78334861369
33
0
0
MTEXT
5
C4
100
AcDbEntity
8
0
6
CONTINUOUS
62
7
370
0
100
AcDbMText
10
-1.96484375
20
-3.725
30
0
40
0.1
41
0.4
71
5
72
1
1
0.7422
7
standard
210
0
220
0
230
1
50
0
73
2
44
1
0
LINE
5
C5
100
AcDbEntity
8
0
6
CONTINUOUS
62
7
370
0
100
AcDbLine
10
-2.3359375
20
-3.27890625
11
-2.3359375
21
-3.85
0
LINE
5
C6
100
AcDbEntity
8
0
6
CONTINUOUS
62
7
370
0
100
AcDbLine
10
-1.59375
20
-3.415625
11
-1.59375
21
-3.85
0
ENDBLK
5
69
330
67
100
AcDbEntity
8
0
100
AcDbBlockEnd
0
BLOCK
5
6B
330
6A
100
AcDbEntity
8
0
100
AcDbBlockBegin
2
*D14
70
1
10
0
20
0
3
*D14
1

0
LINE
5
C7
100
AcDbEntity
8
0
6
CONTINUOUS
62
7
370
0
100
AcDbLine
10
-2.3359375
20
-4
11
-0.5
21
-4
0
SOLID
5
C8
100
AcDbEntity
8
0
6
CONTINUOUS
62
7
370
0
100
AcDbTrace
10
-2.3359375
20
-4
30
0
11
-2.2359375
21
-3.98334861369
31
0
12
-2.2359375
22
-4.01665138631
32
0
13
-2.2359375
23
-4.01665138631
33
0
0
SOLID
5
C9
100
AcDbEntity
8
0
6
CONTINUOUS
62
7
370
0
100
AcDbTrace
10
-0.5
20
-4
30
0
11
-0.6
21
-4.01665138631
31
0
12
-0.6
22
-3.98334861369
32
0
13
-0.6
23
-3.98334861369
33
0
0
MTEXT
5
CA
100
AcDbEntity
8
0
6
CONTINUOUS
62
7
370
0
100
AcDbMText
10
-1.41796875
20
-3.925
30
0
40
0.1
41
0.366666666667
71
5
72
1
1
1.8359
7
standard
210
0
220
0
230
1
50
0
73
2
44
1
0
LINE
5
CB
100
AcDbEntity
8
0
6
CONTINUOUS
62
7
370
0
100
AcDbLine
10
-2.3359375
20
-3.27890625
11
-2.3359375
21
-4.05
0
LINE
5
CC
100
AcDbEntity
8
0
6
CONTINUOUS
62
7
370
0
100
AcDbLine
10
-0.5
20
-3.415625
11
-0.5
21
-4.05
0
ENDBLK
5
6C
330
6A
100
AcDbEntity
8
0
100
AcDbBlockEnd
0
BLOCK
5
6E
330
6D
100
AcDbEntity
8
0
100
AcDbBlockBegin
2
*D10
70
1
10
0
20
0
3
*D10
1

0
LINE
5
CD
100
AcDbEntity
8
0
6
CONTINUOUS
62
7
370
0
100
AcDbLine
10
1.8828125
20
-0.9
11
-1.59375
21
-0.9
0
SOLID
5
CE
100
AcDbEntity
8
0
6
CONTINUOUS
62
7
370
0
100
AcDbTrace
10
1.8828125
20
-0.9
30
0
11
1.7828125
21
-0.916651386311
31
0
12
1.7828125
22
-0.883348613689
32
0
13
1.7828125
23
-0.883348613689
33
0
0
SOLID
5
CF
100
AcDbEntity
8
0
6
CONTINUOUS
62
7
370
0
100
AcDbTrace
10
-1.59375
20
-0.9
30
0
11
-1.49375
21
-0.883348613689
31
0
12
-1.49375
22
-0.916651386311
32
0
13
-1.49375
23
-0.916651386311
33
0
0
MTEXT
5
D0
100
AcDbEntity
8
0
6
CONTINUOUS
62
7
370
0
100
AcDbMText
10
0.14453125
20
-0.825
30
0
40
0.1
41
0.4
71
5
72
1
1
3.4766
7
standard
210
0
220
0
230
1
50
360
73
2
44
1
0
LINE
5
D1
100
AcDbEntity
8
0
6
CONTINUOUS
62
7
370
0
100
AcDbLine
10
1.8828125
20
-0.137659227793
11
1.8828125
21
-0.95
0
LINE
5
D2
100
AcDbEntity
8
0
6
CONTINUOUS
62
7
370
0
100
AcDbLine
10
-1.59375
20
-0.415625
11
-1.59375
21
-0.95
0
ENDBLK
5
6F
330
6D
100
AcDbEntity
8
0
100
AcDbBlockEnd
0
BLOCK
5
71
330
70
100
AcDbEntity
8
0
100
AcDbBlockBegin
2
*D11
70
1
10
0
20
0
3
*D11
1

0
LINE
5
D3
100
AcDbEntity
8
0
6
CONTINUOUS
62
7
370
0
100
AcDbLine
10
1.8828125
20
-1.1
11
-2.3359375
21
-1.1
0
SOLID
5
D4
100
AcDbEntity
8
0
6
CONTINUOUS
62
7
370
0
100
AcDbTrace
10
1.8828125
20
-1.1
30
0
11
1.7828125
21
-1.11665138631
31
0
12
1.7828125
22
-1.08334861369
32
0
13
1.7828125
23
-1.08334861369
33
0
0
SOLID
5
D5
100
AcDbEntity
8
0
6
CONTINUOUS
62
7
370
0
100
AcDbTrace
10
-2.3359375
20
-1.1
30
0
11
-2.2359375
21
-1.08334861369
31
0
12
-2.2359375
22
-1.11665138631
32
0
13
-2.2359375
23
-1.11665138631
33
0
0
MTEXT
5
D6
100
AcDbEntity
8
0
6
CONTINUOUS
62
7
370
0
100
AcDbMText
10
-0.2265625
20
-1.025
30
0
40
0.1
41
0.377777777778
71
5
72
1
1
4.2188
7
standard
210
0
220
0
230
1
50
360
73
2
44
1
0
LINE
5
D7
100
AcDbEntity
8
0
6
CONTINUOUS
62
7
370
0
100
AcDbLine
10
1.8828125
20
-0.137659227793
11
1.8828125
21
-1.15
0
LINE
5
D8
100
AcDbEntity
8
0
6
CONTINUOUS
62
7
370
0
100
AcDbLine
10
-2.3359375
20
-0.27890625
11
-2.3359375
21
-1.15
0
ENDBLK
5
72
330
70
100
AcDbEntity
8
0
100
AcDbBlockEnd
0
BLOCK
5
74
330
73
100
AcDbEntity
8
0
100
AcDbBlockBegin
2
*D4
70
1
10
0
20
0
3
*D4
1

0
LINE
5
D9
100
AcDbEntity
8
0
6
CONTINUOUS
62
7
370
0
100
AcDbLine
10
1.8828125
20
1.1
11
-0.265625
21
1.1
0
SOLID
5
DA
100
AcDbEntity
8
0
6
CONTINUOUS
62
7
370
0
100
AcDbTrace
10
1.8828125
20
1.1
30
0
11
1.7828125
21
1.08334861369
31
0
12
1.7828125
22
1.11665138631
32
0
13
1.7828125
23
1.11665138631
33
0
0
SOLID
5
DB
100
AcDbEntity
8
0
6
CONTINUOUS
62
7
370
0
100
AcDbTrace
10
-0.265625
20
1.1
30
0
11
-0.165625
21
1.11665138631
31
0
12
-0.165625
22
1.08334861369
32
0
13
-0.165625
23
1.08334861369
33
0
0
MTEXT
5
DC
100
AcDbEntity
8
0
6
CONTINUOUS
62
7
370
0
100
AcDbMText
10
0.80859375
20
1.175
30
0
40
0.1
41
0.388888888889
71
5
72
1
1
2.1484
7
standard
210
0
220
0
230
1
50
360
73
2
44
1
0
LINE
5
DD
100
AcDbEntity
8
0
6
CONTINUOUS
62
7
370
0
100
AcDbLine
10
1.8828125
20
0.137659227793
11
1.8828125
21
1.15
0
LINE
5
DE
100
AcDbEntity
8
0
6
CONTINUOUS
62
7
370
0
100
AcDbLine
10
-0.265625
20
0.415625
11
-0.265625
21
1.15
0
ENDBLK
5
75
330
73
100
AcDbEntity
8
0
100
AcDbBlockEnd
0
BLOCK
5
77
330
76
100
AcDbEntity
8
0
100
AcDbBlockBegin
2
*D15
70
1
10
0
20
0
3
*D15
1

0
LINE
5
DF
100
AcDbEntity
8
0
6
CONTINUOUS
62
7
370
0
100
AcDbLine
10
-2.3359375
20
-4.2
11
0.125
21
-4.2
0
SOLID
5
E0
100
AcDbEntity
8
0
6
CONTINUOUS
62
7
370
0
100
AcDbTrace
10
-2.3359375
20
-4.2
30
0
11
-2.2359375
21
-4.18334861369
31
0
12
-2.2359375
22
-4.21665138631
32
0
13
-2.2359375
23
-4.21665138631
33
0
0
SOLID
5
E1
100
AcDbEntity
8
0
6
CONTINUOUS
62
7
370
0
100
AcDbTrace
10
0.125
20
-4.2
30
0
11
0.025
21
-4.21665138631
31
0
12
0.025
22
-4.18334861369
32
0
13
0.025
23
-4.18334861369
33
0
0
MTEXT
5
E2
100
AcDbEntity
8
0
6
CONTINUOUS
62
7
370
0
100
AcDbMText
10
-1.10546875
20
-4.125
30
0
40
0.1
41
0.4
71
5
72
1
1
2.4609
7
standard
210
0
220
0
230
1
50
0
73
2
44
1
0
LINE
5
E3
100
AcDbEntity
8
0
6
CONTINUOUS
62
7
370
0
100
AcDbLine
10
-2.3359375
20
-3.27890625
11
-2.3359375
21
-4.25
0
LINE
5
E4
100
AcDbEntity
8
0
6
CONTINUOUS
62
7
370
0
100
AcDbLine
10
0.125
20
-3.415625
11
0.125
21
-4.25
0
ENDBLK
5
78
330
76
100
AcDbEntity
8
0
100
AcDbBlockEnd
0
BLOCK
5
7A
330
79
100
AcDbEntity
8
0
100
AcDbBlockBegin
2
*D6
70
1
10
0
20
0
3
*D6
1

0
LINE
5
E5
100
AcDbEntity
8
0
6
CONTINUOUS
62
7
370
0
100
AcDbLine
10
1.8828125
20
1.5
11
-1.984375
21
1.5
0
SOLID
5
E6
100
AcDbEntity
8
0
6
CONTINUOUS
62
7
370
0
100
AcDbTrace
10
1.8828125
20
1.5
30
0
11
1.7828125
21
1.48334861369
31
0
12
1.7828125
22
1.51665138631
32
0
13
1.7828125
23
1.51665138631
33
0
0
SOLID
5
E7
100
AcDbEntity
8
0
6
CONTINUOUS
62
7
370
0
100
AcDbTrace
10
-1.984375
20
1.5
30
0
11
-1.884375
21
1.51665138631
31
0
12
-1.884375
22
1.48334861369
32
0
13
-1.884375
23
1.48334861369
33
0
0
MTEXT
5
E8
100
AcDbEntity
8
0
6
CONTINUOUS
62
7
370
0
100
AcDbMText
10
-0.05078125
20
1.575
30
0
40
0.1
41
0.388888888889
71
5
72
1
1
3.8672
7
standard
210
0
220
0
230
1
50
360
73
2
44
1
0
LINE
5
E9
100
AcDbEntity
8
0
6
CONTINUOUS
62
7
370
0
100
AcDbLine
10
1.8828125
20
0.137659227793
11
1.8828125
21
1.55
0
LINE
5
EA
100
AcDbEntity
8
0
6
CONTINUOUS
62
7
370
0
100
AcDbLine
10
-1.984375
20
0.415625
11
-1.984375
21
1.55
0
ENDBLK
5
7B
330
79
100
AcDbEntity
8
0
100
AcDbBlockEnd
0
BLOCK
5
7D
330
7C
100
AcDbEntity
8
0
100
AcDbBlockBegin
2
*D18
70
1
10
0
20
0
3
*D18
1

0
LINE
5
EB
100
AcDbEntity
8
0
6
CONTINUOUS
62
7
370
0
100
AcDbLine
10
-2.21875
20
-2
11
0.125
21
-2
0
SOLID
5
EC
100
AcDbEntity
8
0
6
CONTINUOUS
62
7
370
0
100
AcDbTrace
10
-2.21875
20
-2
30
0
11
-2.11875
21
-1.98334861369
31
0
12
-2.11875
22
-2.01665138631
32
0
13
-2.11875
23
-2.01665138631
33
0
0
SOLID
5
ED
100
AcDbEntity
8
0
6
CONTINUOUS
62
7
370
0
100
AcDbTrace
10
0.125
20
-2
30
0
11
0.025
21
-2.01665138631
31
0
12
0.025
22
-1.98334861369
32
0
13
0.025
23
-1.98334861369
33
0
0
MTEXT
5
EE
100
AcDbEntity
8
0
6
CONTINUOUS
62
7
370
0
100
AcDbMText
10
-1.046875
20
-1.925
30
0
40
0.1
41
0.4
71
5
72
1
1
2.3438
7
standard
210
0
220
0
230
1
50
0
73
2
44
1
0
LINE
5
EF
100
AcDbEntity
8
0
6
CONTINUOUS
62
7
370
0
100
AcDbLine
10
-2.21875
20
-2.584375
11
-2.21875
21
-1.95
0
LINE
5
F0
100
AcDbEntity
8
0
6
CONTINUOUS
62
7
370
0
100
AcDbLine
10
0.125
20
-2.584375
11
0.125
21
-1.95
0
ENDBLK
5
7E
330
7C
100
AcDbEntity
8
0
100
AcDbBlockEnd
0
ENDSEC
0
SECTION
2
ENTITIES
0
LINE
5
F1
100
AcDbEntity
8
0
6
ByLayer
62
256
370
-1
100
AcDbLine
10
-2.3359375
20
0.25390625
11
0.4765625
21
0.25390625
0
LINE
5
F2
100
AcDbEntity
8
0
6
ByLayer
62
256
370
-1
100
AcDbLine
10
-2.3359375
20
-0.25390625
11
0.4765625
21
-0.25390625
0
LINE
5
F3
100
AcDbEntity
8
0
6
ByLayer
62
256
370
-1
100
AcDbLine
10
0.4765625
20
0.1953125
11
1.1015625
21
0.1953125
0
LINE
5
F4
100
AcDbEntity
8
0
6
ByLayer
62
256
370
-1
100
AcDbLine
10
0.4765625
20
-0.1953125
11
1.1015625
21
-0.1953125
0
LINE
5
F5
100
AcDbEntity
8
0
6
ByLayer
62
256
370
-1
100
AcDbLine
10
-2.3359375
20
-0.25390625
11
-2.3359375
21
0.25390625
0
LINE
5
F6
100
AcDbEntity
8
0
6
ByLayer
62
256
370
-1
100
AcDbLine
10
0.4765625
20
-0.25390625
11
0.4765625
21
0.25390625
0
LINE
5
F7
100
AcDbEntity
8
0
6
ByLayer
62
256
370
-1
100
AcDbLine
10
1.1015625
20
-0.1953125
11
1.1015625
21
0.1953125
0
LINE
5
F8
100
AcDbEntity
8
0
6
ByLayer
62
256
370
-1
100
AcDbLine
10
-3.3515625
20
0.1953125
11
-2.3359375
21
0.1953125
0
LINE
5
F9
100
AcDbEntity
8
0
6
ByLayer
62
256
370
-1
100
AcDbLine
10
-3.3515625
20
0
11
1.8828125
21
0
0
LINE
5
FA
100
AcDbEntity
8
0
6
ByLayer
62
256
370
-1
100
AcDbLine
10
-3.3515625
20
-0.1953125
11
-2.3359375
21
-0.1953125
0
LINE
5
FB
100
AcDbEntity
8
0
6
ByLayer
62
256
370
-1
100
AcDbLine
10
-3.3515625
20
-0.1953125
11
-3.3515625
21
0.1953125
0
LINE
5
FC
100
AcDbEntity
8
0
6
ByLayer
62
256
370
-1
100
AcDbLine
10
-2.21875
20
-0.390625
11
-1.984375
21
-0.390625
0
LINE
5
FD
100
AcDbEntity
8
0
6
ByLayer
62
256
370
-1
100
AcDbLine
10
-1.59375
20
-0.390625
11
-1.359375
21
-0.390625
0
LINE
5
FE
100
AcDbEntity
8
0
6
ByLayer
62
256
370
-1
100
AcDbLine
10
-0.5
20
-0.390625
11
-0.265625
21
-0.390625
0
LINE
5
FF
100
AcDbEntity
8
0
6
ByLayer
62
256
370
-1
100
AcDbLine
10
0.125
20
-0.390625
11
0.359375
21
-0.390625
0
LINE
5
100
100
AcDbEntity
8
0
6
ByLayer
62
256
370
-1
100
AcDbLine
10
0.125
20
0.390625
11
0.359375
21
0.390625
0
LINE
5
101
100
AcDbEntity
8
0
6
ByLayer
62
256
370
-1
100
AcDbLine
10
-0.5
20
0.390625
11
-0.265625
21
0.390625
0
LINE
5
102
100
AcDbEntity
8
0
6
ByLayer
62
256
370
-1
100
AcDbLine
10
-1.59375
20
0.390625
11
-1.359375
21
0.390625
0
LINE
5
103
100
AcDbEntity
8
0
6
ByLayer
62
256
370
-1
100
AcDbLine
10
-2.21875
20
0.390625
11
-1.984375
21
0.390625
0
LINE
5
104
100
AcDbEntity
8
0
6
ByLayer
62
256
370
-1
100
AcDbLine
10
0.125
20
-0.390625
11
0.125
21
0.390625
0
LINE
5
105
100
AcDbEntity
8
0
6
ByLayer
62
256
370
-1
100
AcDbLine
10
0.359375
20
-0.390625
11
0.359375
21
0.390625
0
LINE
5
106
100
AcDbEntity
8
0
6
ByLayer
62
256
370
-1
100
AcDbLine
10
-0.5
20
-0.390625
11
-0.5
21
0.390625
0
LINE
5
107
100
AcDbEntity
8
0
6
ByLayer
62
256
370
-1
100
AcDbLine
10
-0.265625
20
-0.390625
11
-0.265625
21
0.390625
0
LINE
5
108
100
AcDbEntity
8
0
6
ByLayer
62
256
370
-1
100
AcDbLine
10
-1.59375
20
-0.390625
11
-1.59375
21
0.390625
0
LINE
5
109
100
AcDbEntity
8
0
6
ByLayer
62
256
370
-1
100
AcDbLine
10
-1.359375
20
-0.390625
11
-1.359375
21
0.390625
0
LINE
5
10A
100
AcDbEntity
8
0
6
ByLayer
62
256
370
-1
100
AcDbLine
10
-2.21875
20
-0.390625
11
-2.21875
21
0.390625
0
LINE
5
10B
100
AcDbEntity
8
0
6
ByLayer
62
256
370
-1
100
AcDbLine
10
-1.984375
20
-0.390625
11
-1.984375
21
0.390625
0
DIMENSION
5
10C
100
AcDbEntity
8
0
6
ByLayer
62
256
370
-1
100
AcDbDimension
2
*D1
10
1.1015625
20
0.5
30
0
11
1.4921875
21
0.575
31
0
70
32
71
5
3
Standard
53
0
210
0
220
0
230
1
100
AcDbAlignedDimension
13
1.8828125
23
0.112659227793
33
0
14
1.1015625
24
0.1953125
34
0
100
AcDbRotatedDimension
0
DIMENSION
5
10D
100
AcDbEntity
8
0
6
ByLayer
62
256
370
-1
100
AcDbDimension
2
*D2
10
0.4765625
20
0.7
30
0
11
1.1796875
21
0.775
31
0
70
32
71
5
3
Standard
53
0
210
0
220
0
230
1
100
AcDbAlignedDimension
13
1.8828125
23
0.112659227793
33
0
14
0.4765625
24
0.25390625
34
0
100
AcDbRotatedDimension
0
DIMENSION
5
10E
100
AcDbEntity
8
0
6
ByLayer
62
256
370
-1
100
AcDbDimension
2
*D3
10
0.359375
20
0.9
30
0
11
1.12109375
21
0.975
31
0
70
32
71
5
3
Standard
53
0
210
0
220
0
230
1
100
AcDbAlignedDimension
13
1.8828125
23
0.112659227793
33
0
14
0.359375
24
0.390625
34
0
100
AcDbRotatedDimension
0
DIMENSION
5
10F
100
AcDbEntity
8
0
6
ByLayer
62
256
370
-1
100
AcDbDimension
2
*D4
10
-0.265625
20
1.1
30
0
11
0.80859375
21
1.175
31
0
70
32
71
5
3
Standard
53
0
210
0
220
0
230
1
100
AcDbAlignedDimension
13
1.8828125
23
0.112659227793
33
0
14
-0.265625
24
0.390625
34
0
100
AcDbRotatedDimension
0
DIMENSION
5
110
100
AcDbEntity
8
0
6
ByLayer
62
256
370
-1
100
AcDbDimension
2
*D5
10
-1.359375
20
1.3
30
0
11
0.26171875
21
1.375
31
0
70
32
71
5
3
Standard
53
0
210
0
220
0
230
1
100
AcDbAlignedDimension
13
1.8828125
23
0.112659227793
33
0
14
-1.359375
24
0.390625
34
0
100
AcDbRotatedDimension
0
DIMENSION
5
111
100
AcDbEntity
8
0
6
ByLayer
62
256
370
-1
100
AcDbDimension
2
*D6
10
-1.984375
20
1.5
30
0
11
-0.05078125
21
1.575
31
0
70
32
71
5
3
Standard
53
0
210
0
220
0
230
1
100
AcDbAlignedDimension
13
1.8828125
23
0.112659227793
33
0
14
-1.984375
24
0.390625
34
0
100
AcDbRotatedDimension
0
DIMENSION
5
112
100
AcDbEntity
8
0
6
ByLayer
62
256
370
-1
100
AcDbDimension
2
*D7
10
-3.3515625
20
1.7
30
0
11
-0.734375
21
1.775
31
0
70
32
71
5
3
Standard
53
0
210
0
220
0
230
1
100
AcDbAlignedDimension
13
1.8828125
23
0.112659227793
33
0
14
-3.3515625
24
0.1953125
34
0
100
AcDbRotatedDimension
0
DIMENSION
5
113
100
AcDbEntity
8
0
6
ByLayer
62
256
370
-1
100
AcDbDimension
2
*D8
10
0.125
20
-0.5
30
0
11
1.00390625
21
-0.425
31
0
70
32
71
5
3
Standard
53
0
210
0
220
0
230
1
100
AcDbAlignedDimension
13
1.8828125
23
-0.112659227793
33
0
14
0.125
24
-0.390625
34
0
100
AcDbRotatedDimension
0
DIMENSION
5
114
100
AcDbEntity
8
0
6
ByLayer
62
256
370
-1
100
AcDbDimension
2
*D9
10
-0.5
20
-0.7
30
0
11
0.69140625
21
-0.625
31
0
70
32
71
5
3
Standard
53
0
210
0
220
0
230
1
100
AcDbAlignedDimension
13
1.8828125
23
-0.112659227793
33
0
14
-0.5
24
-0.390625
34
0
100
AcDbRotatedDimension
0
DIMENSION
5
115
100
AcDbEntity
8
0
6
ByLayer
62
256
370
-1
100
AcDbDimension
2
*D10
10
-1.59375
20
-0.9
30
0
11
0.14453125
21
-0.825
31
0
70
32
71
5
3
Standard
53
0
210
0
220
0
230
1
100
AcDbAlignedDimension
13
1.8828125
23
-0.112659227793
33
0
14
-1.59375
24
-0.390625
34
0
100
AcDbRotatedDimension
0
DIMENSION
5
116
100
AcDbEntity
8
0
6
ByLayer
62
256
370
-1
100
AcDbDimension
2
*D11
10
-2.3359375
20
-1.1
30
0
11
-0.2265625
21
-1.025
31
0
70
32
71
5
3
Standard
53
0
210
0
220
0
230
1
100
AcDbAlignedDimension
13
1.8828125
23
-0.112659227793
33
0
14
-2.3359375
24
-0.25390625
34
0
100
AcDbRotatedDimension
0
LINE
5
117
100
AcDbEntity
8
0
6
ByLayer
62
256
370
-1
100
AcDbLine
10
-2.3359375
20
-2.74609375
11
0.4765625
21
-2.74609375
0
LINE
5
118
100
AcDbEntity
8
0
6
ByLayer
62
256
370
-1
100
AcDbLine
10
-2.3359375
20
-3.25390625
11
0.4765625
21
-3.25390625
0
LINE
5
119
100
AcDbEntity
8
0
6
ByLayer
62
256
370
-1
100
AcDbLine
10
-2.3359375
20
-3.25390625
11
-2.3359375
21
-2.74609375
0
LINE
5
11A
100
AcDbEntity
8
0
6
ByLayer
62
256
370
-1
100
AcDbLine
10
-3.3515625
20
-2.8046875
11
-2.3359375
21
-2.8046875
0
LINE
5
11B
100
AcDbEntity
8
0
6
ByLayer
62
256
370
-1
100
AcDbLine
10
-3.3515625
20
-3
11
1.8828125
21
-3
0
LINE
5
11C
100
AcDbEntity
8
0
6
ByLayer
62
256
370
-1
100
AcDbLine
10
-3.3515625
20
-3.1953125
11
-2.3359375
21
-3.1953125
0
LINE
5
11D
100
AcDbEntity
8
0
6
ByLayer
62
256
370
-1
100
AcDbLine
10
-3.3515625
20
-3.1953125
11
-3.3515625
21
-2.8046875
0
LINE
5
11E
100
AcDbEntity
8
0
6
ByLayer
62
256
370
-1
100
AcDbLine
10
-2.21875
20
-3.390625
11
-1.984375
21
-3.390625
0
LINE
5
11F
100
AcDbEntity
8
0
6
ByLayer
62
256
370
-1
100
AcDbLine
10
-1.59375
20
-3.390625
11
-1.359375
21
-3.390625
0
LINE
5
120
100
AcDbEntity
8
0
6
ByLayer
62
256
370
-1
100
AcDbLine
10
-0.5
20
-3.390625
11
-0.265625
21
-3.390625
0
LINE
5
121
100
AcDbEntity
8
0
6
ByLayer
62
256
370
-1
100
AcDbLine
10
0.125
20
-3.390625
11
0.359375
21
-3.390625
0
LINE
5
122
100
AcDbEntity
8
0
6
ByLayer
62
256
370
-1
100
AcDbLine
10
0.125
20
-2.609375
11
0.359375
21
-2.609375
0
LINE
5
123
100
AcDbEntity
8
0
6
ByLayer
62
256
370
-1
100
AcDbLine
10
-0.5
20
-2.609375
11
-0.265625
21
-2.609375
0
LINE
5
124
100
AcDbEntity
8
0
6
ByLayer
62
256
370
-1
100
AcDbLine
10
-1.59375
20
-2.609375
11
-1.359375
21
-2.609375
0
LINE
5
125
100
AcDbEntity
8
0
6
ByLayer
62
256
370
-1
100
AcDbLine
10
-2.21875
20
-2.609375
11
-1.984375
21
-2.609375
0
LINE
5
126
100
AcDbEntity
8
0
6
ByLayer
62
256
370
-1
100
AcDbLine
10
0.125
20
-3.390625
11
0.125
21
-2.609375
0
LINE
5
127
100
AcDbEntity
8
0
6
ByLayer
62
256
370
-1
100
AcDbLine
10
0.359375
20
-3.390625
11
0.359375
21
-2.609375
0
LINE
5
128
100
AcDbEntity
8
0
6
ByLayer
62
256
370
-1
100
AcDbLine
10
-0.5
20
-3.390625
11
-0.5
21
-2.609375
0
LINE
5
129
100
AcDbEntity
8
0
6
ByLayer
62
256
370
-1
100
AcDbLine
10
-0.265625
20
-3.390625
11
-0.265625
21
-2.609375
0
LINE
5
12A
100
AcDbEntity
8
0
6
ByLayer
62
256
370
-1
100
AcDbLine
10
-1.59375
20
-3.390625
11
-1.59375
21
-2.609375
0
LINE
5
12B
100
AcDbEntity
8
0
6
ByLayer
62
256
370
-1
100
AcDbLine
10
-1.359375
20
-3.390625
11
-1.359375
21
-2.609375
0
LINE
5
12C
100
AcDbEntity
8
0
6
ByLayer
62
256
370
-1
100
AcDbLine
10
-2.21875
20
-3.390625
11
-2.21875
21
-2.609375
0
LINE
5
12D
100
AcDbEntity
8
0
6
ByLayer
62
256
370
-1
100
AcDbLine
10
-1.984375
20
-3.390625
11
-1.984375
21
-2.609375
0
DIMENSION
5
12E
100
AcDbEntity
8
0
6
ByLayer
62
256
370
-1
100
AcDbDimension
2
*D12
10
-2.21875
20
-3.6
30
0
11
-2.27734375
21
-3.525
31
0
70
32
71
5
3
Standard
53
0
210
0
220
0
230
1
100
AcDbAlignedDimension
13
-2.3359375
23
-3.25390625
33
0
14
-2.21875
24
-3.390625
34
0
100
AcDbRotatedDimension
0
DIMENSION
5
12F
100
AcDbEntity
8
0
6
ByLayer
62
256
370
-1
100
AcDbDimension
2
*D13
10
-1.59375
20
-3.8
30
0
11
-1.96484375
21
-3.725
31
0
70
32
71
5
3
Standard
53
0
210
0
220
0
230
1
100
AcDbAlignedDimension
13
-2.3359375
23
-3.25390625
33
0
14
-1.59375
24
-3.390625
34
0
100
AcDbRotatedDimension
0
DIMENSION
5
130
100
AcDbEntity
8
0
6
ByLayer
62
256
370
-1
100
AcDbDimension
2
*D14
10
-0.5
20
-4
30
0
11
-1.41796875
21
-3.925
31
0
70
32
71
5
3
Standard
53
0
210
0
220
0
230
1
100
AcDbAlignedDimension
13
-2.3359375
23
-3.25390625
33
0
14
-0.5
24
-3.390625
34
0
100
AcDbRotatedDimension
0
DIMENSION
5
131
100
AcDbEntity
8
0
6
ByLayer
62
256
370
-1
100
AcDbDimension
2
*D15
10
0.125
20
-4.2
30
0
11
-1.10546875
21
-4.125
31
0
70
32
71
5
3
Standard
53
0
210
0
220
0
230
1
100
AcDbAlignedDimension
13
-2.3359375
23
-3.25390625
33
0
14
0.125
24
-3.390625
34
0
100
AcDbRotatedDimension
0
DIMENSION
5
132
100
AcDbEntity
8
0
6
ByLayer
62
256
370
-1
100
AcDbDimension
2
*D16
10
-1.59375
20
-2.5
30
0
11
-1.90625
21
-2.425
31
0
70
32
71
5
3
Standard
53
0
210
0
220
0
230
1
100
AcDbAlignedDimension
13
-2.21875
23
-2.609375
33
0
14
-1.59375
24
-2.609375
34
0
100
AcDbRotatedDimension
0
DIMENSION
5
133
100
AcDbEntity
8
0
6
ByLayer
62
256
370
-1
100
AcDbDimension
2
*D17
10
-0.5
20
-2.2
30
0
11
-1.359375
21
-2.125
31
0
70
32
71
5
3
Standard
53
0
210
0
220
0
230
1
100
AcDbAlignedDimension
13
-2.21875
23
-2.609375
33
0
14
-0.5
24
-2.609375
34
0
100
AcDbRotatedDimension
0
DIMENSION
5
134
100
AcDbEntity
8
0
6
ByLayer
62
256
370
-1
100
AcDbDimension
2
*D18
10
0.125
20
-2
30
0
11
-1.046875
21
-1.925
31
0
70
32
71
5
3
Standard
53
0
210
0
220
0
230
1
100
AcDbAlignedDimension
13
-2.21875
23
-2.609375
33
0
14
0.125
24
-2.609375
34
0
100
AcDbRotatedDimension
0
LINE
5
135
100
AcDbEntity
8
0
6
ByLayer
62
256
370
-1
100
AcDbLine
10
1.50032450294
20
-0.125
11
1.8828125
21
-0.125
0
LINE
5
136
100
AcDbEntity
8
0
6
ByLayer
62
256
370
-1
100
AcDbLine
10
1.50032450294
20
0.125
11
1.8828125
21
0.125
0
LINE
5
137
100
AcDbEntity
8
0
6
ByLayer
62
256
370
-1
100
AcDbLine
10
1.50032450294
20
0.125
11
1.50032450294
21
-0.125
0
LINE
5
138
100
AcDbEntity
8
0
6
ByLayer
62
256
370
-1
100
AcDbLine
10
1.1015625
20
-0.1953125
11
1.50032450294
21
-0.125
0
LINE
5
139
100
AcDbEntity
8
0
6
ByLayer
62
256
370
-1
100
AcDbLine
10
1.1015625
20
0.1953125
11
1.50032450294
21
0.125
0
LINE
5
13A
100
AcDbEntity
8
0
6
ByLayer
62
256
370
-1
100
AcDbLine
10
1.8828125
20
-0.125
11
1.8828125
21
0.125
0
DIMENSION
5
13B
100
AcDbEntity
8
0
6
ByLayer
62
256
370
-1
100
AcDbDimension
2
*D19
10
1.50032450294
20
0.3
30
0
11
1.69156850147
21
0.375
31
0
70
32
71
5
3
Standard
53
0
210
0
220
0
230
1
100
AcDbAlignedDimension
13
1.8828125
23
0.125
33
0
14
1.50032450294
24
0.125
34
0
100
AcDbRotatedDimension
0
LINE
5
13C
100
AcDbEntity
8
0
6
ByLayer
62
256
370
-1
100
AcDbLine
10
0.4765625
20
-2.8046875
11
1.1015625
21
-2.8046875
0
LINE
5
13D
100
AcDbEntity
8
0
6
ByLayer
62
256
370
-1
100
AcDbLine
10
0.4765625
20
-3.1953125
11
1.1015625
21
-3.1953125
0
LINE
5
13E
100
AcDbEntity
8
0
6
ByLayer
62
256
370
-1
100
AcDbLine
10
0.4765625
20
-3.25390625
11
0.4765625
21
-2.74609375
0
LINE
5
13F
100
AcDbEntity
8
0
6
ByLayer
62
256
370
-1
100
AcDbLine
10
1.1015625
20
-3.1953125
11
1.1015625
21
-2.8046875
0
LINE
5
140
100
AcDbEntity
8
0
6
ByLayer
62
256
370
-1
100
AcDbLine
10
1.50032450294
20
-3.125
11
1.8828125
21
-3.125
0
LINE
5
141
100
AcDbEntity
8
0
6
ByLayer
62
256
370
-1
100
AcDbLine
10
1.50032450294
20
-2.875
11
1.8828125
21
-2.875
0
LINE
5
142
100
AcDbEntity
8
0
6
ByLayer
62
256
370
-1
100
AcDbLine
10
1.50032450294
20
-2.875
11
1.50032450294
21
-3.125
0
LINE
5
143
100
AcDbEntity
8
0
6
ByLayer
62
256
370
-1
100
AcDbLine
10
1.1015625
20
-3.1953125
11
1.50032450294
21
-3.125
0
LINE
5
144
100
AcDbEntity
8
0
6
ByLayer
62
256
370
-1
100
AcDbLine
10
1.1015625
20
-2.8046875
11
1.50032450294
21
-2.875
0
LINE
5
145
100
AcDbEntity
8
0
6
ByLayer
62
256
370
-1
100
AcDbLine
10
1.8828125
20
-3.125
11
1.8828125
21
-2.875
0
ENDSEC
0
SECTION
2
OBJECTS
0
DICTIONARY
5
C
330
0
100
AcDbDictionary
281
1
3
ACAD_GROUP
350
D
0
DICTIONARY
5
D
330
C
100
AcDbDictionary
281
1
0
ENDSEC
0
EOF
