999
dxflib 2.2.0.0
  0
SECTION
  2
HEADER
  9
$ACADVER
  1
AC1015
  9
$HANDSEED
  5
FFFF
  9
$DIMASZ
 40
0.1
  9
$PLIMMIN
 10
0.0
 20
0.0
  9
$DIMEXE
 40
0.05
  9
$DIMGAP
 40
0.025
  9
$PLIMMAX
 10
8.2677165354330722
 20
11.6929133858267722
  9
$INSUNITS
 70
1
  9
$DIMSTYLE
  2
Standard
  9
$DIMEXO
 40
0.025
  9
$DIMTXT
 40
0.1
  0
ENDSEC
  0
SECTION
  2
TABLES
  0
TABLE
  2
VPORT
  5
8
100
AcDbSymbolTable
 70
1
  0
VPORT
  5
30
100
AcDbSymbolTableRecord
100
AcDbViewportTableRecord
  2
*Active
 70
0
 10
0.0
 20
0.0
 11
1.0
 21
1.0
 12
286.3055555555554861
 22
148.5
 13
0.0
 23
0.0
 14
10.0
 24
10.0
 15
10.0
 25
10.0
 16
0.0
 26
0.0
 36
1.0
 17
0.0
 27
0.0
 37
0.0
 40
297.0
 41
1.92798353909465
 42
50.0
 43
0.0
 44
0.0
 50
0.0
 51
0.0
 71
0
 72
100
 73
1
 74
3
 75
1
 76
1
 77
0
 78
0
281
0
 65
1
110
0.0
120
0.0
130
0.0
111
1.0
121
0.0
131
0.0
112
0.0
122
1.0
132
0.0
 79
0
146
0.0
  0
ENDTAB
  0
TABLE
  2
LTYPE
  5
5
100
AcDbSymbolTable
 70
21
  0
LTYPE
  5
14
100
AcDbSymbolTableRecord
100
AcDbLinetypeTableRecord
  2
ByBlock
 70
0
  3

 72
65
 73
0
 40
0.0
  0
LTYPE
  5
15
100
AcDbSymbolTableRecord
100
AcDbLinetypeTableRecord
  2
ByLayer
 70
0
  3

 72
65
 73
0
 40
0.0
  0
LTYPE
  5
16
100
AcDbSymbolTableRecord
100
AcDbLinetypeTableRecord
  2
CONTINUOUS
 70
0
  3
Solid line
 72
65
 73
0
 40
0.0
  0
LTYPE
  5
31
100
AcDbSymbolTableRecord
100
AcDbLinetypeTableRecord
  2
DOT
 70
0
  3
Dot . . . . . . . . . . . . . . . . . . . . . .
 72
65
 73
2
 40
6.3499999999999996
 49
0.0
 74
0
 49
-6.3499999999999996
 74
0
  0
LTYPE
  5
32
100
AcDbSymbolTableRecord
100
AcDbLinetypeTableRecord
  2
DOT2
 70
0
  3
Dot (.5x) .....................................
 72
65
 73
2
 40
3.1749999999999998
 49
0.0
 74
0
 49
-3.1749999999999998
 74
0
  0
LTYPE
  5
33
100
AcDbSymbolTableRecord
100
AcDbLinetypeTableRecord
  2
DOTX2
 70
0
  3
Dot (2x) .  .  .  .  .  .  .  .  .  .  .  .  .
 72
65
 73
2
 40
12.6999999999999993
 49
0.0
 74
0
 49
-12.6999999999999993
 74
0
  0
LTYPE
  5
34
100
AcDbSymbolTableRecord
100
AcDbLinetypeTableRecord
  2
DASHED
 70
0
  3
Dashed __ __ __ __ __ __ __ __ __ __ __ __ __ _
 72
65
 73
2
 40
19.0500000000000007
 49
12.6999999999999993
 74
0
 49
-6.3499999999999996
 74
0
  0
LTYPE
  5
35
100
AcDbSymbolTableRecord
100
AcDbLinetypeTableRecord
  2
DASHED2
 70
0
  3
Dashed (.5x) _ _ _ _ _ _ _ _ _ _ _ _ _ _ _ _ _
 72
65
 73
2
 40
9.5250000000000004
 49
6.3499999999999996
 74
0
 49
-3.1749999999999998
 74
0
  0
LTYPE
  5
36
100
AcDbSymbolTableRecord
100
AcDbLinetypeTableRecord
  2
DASHEDX2
 70
0
  3
Dashed (2x) ____  ____  ____  ____  ____  ___
 72
65
 73
2
 40
38.1000000000000014
 49
25.3999999999999986
 74
0
 49
-12.6999999999999993
 74
0
  0
LTYPE
  5
37
100
AcDbSymbolTableRecord
100
AcDbLinetypeTableRecord
  2
DASHDOT
 70
0
  3
Dash dot __ . __ . __ . __ . __ . __ . __ . __
 72
65
 73
4
 40
25.3999999999999986
 49
12.6999999999999993
 74
0
 49
-6.3499999999999996
 74
0
 49
0.0
 74
0
 49
-6.3499999999999996
 74
0
  0
LTYPE
  5
38
100
AcDbSymbolTableRecord
100
AcDbLinetypeTableRecord
  2
DASHDOT2
 70
0
  3
Dash dot (.5x) _._._._._._._._._._._._._._._.
 72
65
 73
4
 40
12.6999999999999993
 49
6.3499999999999996
 74
0
 49
-3.1749999999999998
 74
0
 49
0.0
 74
0
 49
-3.1749999999999998
 74
0
  0
LTYPE
  5
39
100
AcDbSymbolTableRecord
100
AcDbLinetypeTableRecord
  2
DASHDOTX2
 70
0
  3
Dash dot (2x) ____  .  ____  .  ____  .  ___
 72
65
 73
4
 40
50.7999999999999972
 49
25.3999999999999986
 74
0
 49
-12.6999999999999993
 74
0
 49
0.0
 74
0
 49
-12.6999999999999993
 74
0
  0
LTYPE
  5
3A
100
AcDbSymbolTableRecord
100
AcDbLinetypeTableRecord
  2
DIVIDE
 70
0
  3
Divide ____ . . ____ . . ____ . . ____ . . ____
 72
65
 73
6
 40
31.75
 49
12.6999999999999993
 74
0
 49
-6.3499999999999996
 74
0
 49
0.0
 74
0
 49
-6.3499999999999996
 74
0
 49
0.0
 74
0
 49
-6.3499999999999996
 74
0
  0
LTYPE
  5
3B
100
AcDbSymbolTableRecord
100
AcDbLinetypeTableRecord
  2
DIVIDE2
 70
0
  3
Divide (.5x) __..__..__..__..__..__..__..__.._
 72
65
 73
6
 40
15.875
 49
6.3499999999999996
 74
0
 49
-3.1749999999999998
 74
0
 49
0.0
 74
0
 49
-3.1749999999999998
 74
0
 49
0.0
 74
0
 49
-3.1749999999999998
 74
0
  0
LTYPE
  5
3C
100
AcDbSymbolTableRecord
100
AcDbLinetypeTableRecord
  2
DIVIDEX2
 70
0
  3
Divide (2x) ________  .  .  ________  .  .  _
 72
65
 73
6
 40
63.5
 49
25.3999999999999986
 74
0
 49
-12.6999999999999993
 74
0
 49
0.0
 74
0
 49
-12.6999999999999993
 74
0
 49
0.0
 74
0
 49
-12.6999999999999993
 74
0
  0
LTYPE
  5
3D
100
AcDbSymbolTableRecord
100
AcDbLinetypeTableRecord
  2
CENTER
 70
0
  3
Center ____ _ ____ _ ____ _ ____ _ ____ _ ____
 72
65
 73
4
 40
50.7999999999999972
 49
31.75
 74
0
 49
-6.3499999999999996
 74
0
 49
6.3499999999999996
 74
0
 49
-6.3499999999999996
 74
0
  0
LTYPE
  5
3E
100
AcDbSymbolTableRecord
100
AcDbLinetypeTableRecord
  2
CENTER2
 70
0
  3
Center (.5x) ___ _ ___ _ ___ _ ___ _ ___ _ ___
 72
65
 73
4
 40
28.5749999999999993
 49
19.0500000000000007
 74
0
 49
-3.1749999999999998
 74
0
 49
3.1749999999999998
 74
0
 49
-3.1749999999999998
 74
0
  0
LTYPE
  5
3F
100
AcDbSymbolTableRecord
100
AcDbLinetypeTableRecord
  2
CENTERX2
 70
0
  3
Center (2x) ________  __  ________  __  _____
 72
65
 73
4
 40
101.5999999999999943
 49
63.5
 74
0
 49
-12.6999999999999993
 74
0
 49
12.6999999999999993
 74
0
 49
-12.6999999999999993
 74
0
  0
LTYPE
  5
40
100
AcDbSymbolTableRecord
100
AcDbLinetypeTableRecord
  2
BORDER
 70
0
  3
Border __ __ . __ __ . __ __ . __ __ . __ __ .
 72
65
 73
6
 40
44.4500000000000028
 49
12.6999999999999993
 74
0
 49
-6.3499999999999996
 74
0
 49
12.6999999999999993
 74
0
 49
-6.3499999999999996
 74
0
 49
0.0
 74
0
 49
-6.3499999999999996
 74
0
  0
LTYPE
  5
41
100
AcDbSymbolTableRecord
100
AcDbLinetypeTableRecord
  2
BORDER2
 70
0
  3
Border (.5x) __.__.__.__.__.__.__.__.__.__.__.
 72
65
 73
6
 40
22.2250000000000014
 49
6.3499999999999996
 74
0
 49
-3.1749999999999998
 74
0
 49
6.3499999999999996
 74
0
 49
-3.1749999999999998
 74
0
 49
0.0
 74
0
 49
-3.1749999999999998
 74
0
  0
LTYPE
  5
42
100
AcDbSymbolTableRecord
100
AcDbLinetypeTableRecord
  2
BORDERX2
 70
0
  3
Border (2x) ____  ____  .  ____  ____  .  ___
 72
65
 73
6
 40
88.9000000000000057
 49
25.3999999999999986
 74
0
 49
-12.6999999999999993
 74
0
 49
25.3999999999999986
 74
0
 49
-12.6999999999999993
 74
0
 49
0.0
 74
0
 49
-12.6999999999999993
 74
0
  0
ENDTAB
  0
TABLE
  2
LAYER
  5
2
100
AcDbSymbolTable
 70
7
  0
LAYER
  5
10
100
AcDbSymbolTableRecord
100
AcDbLayerTableRecord
  2
0
 70
0
 62
7
  6
CONTINUOUS
370
0
390
F
  0
LAYER
  5
43
100
AcDbSymbolTableRecord
100
AcDbLayerTableRecord
  2
body
 70
0
 62
7
  6
CONTINUOUS
370
0
390
F
  0
LAYER
  5
44
100
AcDbSymbolTableRecord
100
AcDbLayerTableRecord
  2
sump
 70
0
 62
7
  6
CONTINUOUS
370
0
390
F
  0
LAYER
  5
45
100
AcDbSymbolTableRecord
100
AcDbLayerTableRecord
  2
timing_cover
 70
0
 62
7
  6
CONTINUOUS
370
0
390
F
  0
LAYER
  5
46
100
AcDbSymbolTableRecord
100
AcDbLayerTableRecord
  2
crank
 70
0
 62
3
  6
CONTINUOUS
370
0
390
F
  0
LAYER
  5
47
100
AcDbSymbolTableRecord
100
AcDbLayerTableRecord
  2
liner
 70
0
 62
9
  6
CONTINUOUS
370
0
390
F
  0
LAYER
  5
48
100
AcDbSymbolTableRecord
100
AcDbLayerTableRecord
  2
camplate
 70
0
 62
7
  6
CONTINUOUS
370
0
390
F
  0
ENDTAB
  0
TABLE
  2
STYLE
  5
3
100
AcDbSymbolTable
 70
1
  0
STYLE
  5
11
100
AcDbSymbolTableRecord
100
AcDbTextStyleTableRecord
  2
Standard
 70
0
 40
0.0
 41
0.75
 50
0.0
 71
0
 42
2.5
  3
txt
  4

  0
ENDTAB
  0
TABLE
  2
VIEW
  5
6
100
AcDbSymbolTable
 70
0
  0
ENDTAB
  0
TABLE
  2
UCS
  5
7
100
AcDbSymbolTable
 70
0
  0
ENDTAB
  0
TABLE
  2
APPID
  5
9
100
AcDbSymbolTable
 70
1
  0
APPID
  5
12
100
AcDbSymbolTableRecord
100
AcDbRegAppTableRecord
  2
ACAD
 70
0
  0
ENDTAB
  0
TABLE
  2
DIMSTYLE
  5
A
100
AcDbSymbolTable
 70
1
100
AcDbDimStyleTable
 71
0
  0
DIMSTYLE
105
27
100
AcDbSymbolTableRecord
100
AcDbDimStyleTableRecord
  2
Standard
 41
0.1
 42
0.025
 43
3.75
 44
0.05
 70
0
 73
0
 74
0
 77
1
 78
8
140
0.1
141
2.5
143
0.03937007874016
147
0.025
171
3
172
1
271
2
272
2
274
3
278
44
283
0
284
8
340
11
  0
ENDTAB
  0
TABLE
  2
BLOCK_RECORD
  5
1
100
AcDbSymbolTable
 70
1
  0
BLOCK_RECORD
  5
1F
100
AcDbSymbolTableRecord
100
AcDbBlockTableRecord
  2
*Model_Space
340
22
  0
BLOCK_RECORD
  5
1B
100
AcDbSymbolTableRecord
100
AcDbBlockTableRecord
  2
*Paper_Space
340
1E
  0
BLOCK_RECORD
  5
23
100
AcDbSymbolTableRecord
100
AcDbBlockTableRecord
  2
*Paper_Space0
340
26
  0
ENDTAB
  0
ENDSEC
  0
SECTION
  2
BLOCKS
  0
BLOCK
  5
20
100
AcDbEntity
  8
0
100
AcDbBlockBegin
  2
*Model_Space
 70
0
 10
0.0
 20
0.0
 30
0.0
  3
*Model_Space
  1

  0
ENDBLK
  5
21
100
AcDbEntity
  8
0
100
AcDbBlockEnd
  0
BLOCK
  5
1C
100
AcDbEntity
 67
1
  8
0
100
AcDbBlockBegin
  2
*Paper_Space
 70
0
 10
0.0
 20
0.0
 30
0.0
  3
*Paper_Space
  1

  0
ENDBLK
  5
1D
100
AcDbEntity
 67
1
  8
0
100
AcDbBlockEnd
  0
BLOCK
  5
24
100
AcDbEntity
  8
0
100
AcDbBlockBegin
  2
*Paper_Space0
 70
0
 10
0.0
 20
0.0
 30
0.0
  3
*Paper_Space0
  1

  0
ENDBLK
  5
25
100
AcDbEntity
  8
0
100
AcDbBlockEnd
  0
ENDSEC
  0
SECTION
  2
ENTITIES
  0
LINE
  5
49
100
AcDbEntity
100
AcDbLine
  8
sump
 62
2
370
-1
  6
ByLayer
 10
-1.3557500000000002
 20
-0.7975000000000002
 30
0.0
 11
-1.3557500000000002
 21
0.0
 31
0.0
  0
LINE
  5
4A
100
AcDbEntity
100
AcDbLine
  8
sump
 62
2
370
-1
  6
ByLayer
 10
1.3557500000000002
 20
-0.7975000000000002
 30
0.0
 11
1.3557500000000002
 21
0.0000000000000001
 31
0.0
  0
LINE
  5
4B
100
AcDbEntity
100
AcDbLine
  8
sump
 62
2
370
-1
  6
ByLayer
 10
-1.3557500000000002
 20
-0.7975000000000002
 30
0.0
 11
-1.6747500000000004
 21
-0.7975000000000002
 31
0.0
  0
LINE
  5
4C
100
AcDbEntity
100
AcDbLine
  8
sump
 62
2
370
-1
  6
ByLayer
 10
1.6747500000000004
 20
-0.7975000000000002
 30
0.0
 11
1.3557500000000002
 21
-0.7975000000000002
 31
0.0
  0
LINE
  5
4D
100
AcDbEntity
100
AcDbLine
  8
sump
 62
2
370
-1
  6
ByLayer
 10
-2.1133749999999996
 20
0.0
 30
0.0
 11
-2.0336249999999998
 21
0.0
 31
0.0
  0
LINE
  5
4E
100
AcDbEntity
100
AcDbLine
  8
sump
 62
2
370
-1
  6
ByLayer
 10
2.0336249999999998
 20
0.0
 30
0.0
 11
2.1133749999999996
 21
0.0
 31
0.0
  0
LINE
  5
4F
100
AcDbEntity
100
AcDbLine
  8
sump
 62
2
370
-1
  6
ByLayer
 10
-2.0734999999999997
 20
-0.039875
 30
0.0
 11
-2.0734999999999997
 21
0.039875
 31
0.0
  0
LINE
  5
50
100
AcDbEntity
100
AcDbLine
  8
sump
 62
2
370
-1
  6
ByLayer
 10
2.0734999999999997
 20
-0.039875
 30
0.0
 11
2.0734999999999997
 21
0.039875
 31
0.0
  0
LINE
  5
51
100
AcDbEntity
100
AcDbLine
  8
sump
 62
2
370
-1
  6
ByLayer
 10
1.6747500000000004
 20
0.0
 30
0.0
 11
-1.3557500000000002
 21
0.0
 31
0.0
  0
LINE
  5
52
100
AcDbEntity
100
AcDbLine
  8
sump
 62
2
370
-1
  6
ByLayer
 10
-1.3557500000000002
 20
0.0
 30
0.0
 11
-1.6747500000000004
 21
0.0
 31
0.0
  0
ARC
  5
53
100
AcDbEntity
  8
sump
 62
2
370
-1
  6
ByLayer
100
AcDbCircle
 10
2.0734999999999997
 20
0.0
 30
0.0
 40
3.5887500000000001
100
AcDbArc
 50
180.0
 51
218.4785951332979437
  0
LINE
  5
54
100
AcDbEntity
100
AcDbLine
  8
sump
 62
2
370
-1
  6
ByLayer
 10
0.7359194351324614
 20
-2.2330000000000001
 30
0.0
 11
-0.7359194351324617
 21
-2.2330000000000001
 31
0.0
  0
ARC
  5
55
100
AcDbEntity
  8
sump
 62
2
370
-1
  6
ByLayer
100
AcDbCircle
 10
-2.0734999999999997
 20
0.0
 30
0.0
 40
3.4292500000000001
100
AcDbArc
 50
322.7962560093251909
 51
0.0
  0
ARC
  5
56
100
AcDbEntity
  8
sump
 62
2
370
-1
  6
ByLayer
100
AcDbCircle
 10
2.0734999999999997
 20
0.0
 30
0.0
 40
3.4292500000000001
100
AcDbArc
 50
180.0
 51
217.2037439906748091
  0
LINE
  5
57
100
AcDbEntity
100
AcDbLine
  8
sump
 62
2
370
-1
  6
ByLayer
 10
-1.6747500000000004
 20
-0.7975000000000002
 30
0.0
 11
-1.6747500000000004
 21
0.0
 31
0.0
  0
LINE
  5
58
100
AcDbEntity
100
AcDbLine
  8
sump
 62
2
370
-1
  6
ByLayer
 10
1.6747500000000004
 20
-0.7975000000000002
 30
0.0
 11
1.6747500000000004
 21
0.0
 31
0.0
  0
LINE
  5
59
100
AcDbEntity
100
AcDbLine
  8
sump
 62
2
370
-1
  6
ByLayer
 10
-1.5152500000000002
 20
-0.7975000000000002
 30
0.0
 11
-1.5152500000000002
 21
0.0
 31
0.0
  0
ARC
  5
5A
100
AcDbEntity
  8
sump
 62
2
370
-1
  6
ByLayer
100
AcDbCircle
 10
-2.0734999999999997
 20
0.0
 30
0.0
 40
3.5887500000000001
100
AcDbArc
 50
321.5214048667020847
 51
0.0
  0
LINE
  5
5B
100
AcDbEntity
100
AcDbLine
  8
sump
 62
2
370
-1
  6
ByLayer
 10
1.5152500000000002
 20
-0.7975000000000002
 30
0.0
 11
1.5152500000000002
 21
0.0
 31
0.0
  0
LINE
  5
5C
100
AcDbEntity
100
AcDbLine
  8
sump
 62
2
370
-1
  6
ByLayer
 10
1.6747500000000004
 20
-0.1993750000000001
 30
0.0
 11
-1.6747500000000004
 21
-0.1993750000000001
 31
0.0
  0
ARC
  5
5D
100
AcDbEntity
  8
sump
 62
2
370
-1
  6
ByLayer
100
AcDbCircle
 10
0.0
 20
0.0
 30
0.0
 40
0.8772500000000002
100
AcDbArc
 50
180.0
 51
0.0
  0
ARC
  5
5E
100
AcDbEntity
  8
sump
 62
2
370
-1
  6
ByLayer
100
AcDbCircle
 10
0.0
 20
0.0
 30
0.0
 40
0.55825
100
AcDbArc
 50
180.0
 51
360.0
  0
LINE
  5
5F
100
AcDbEntity
100
AcDbLine
  8
sump
 62
2
370
-1
  6
ByLayer
 10
0.3189999999999998
 20
-2.3127499999999999
 30
0.0
 11
0.3189999999999998
 21
-2.2330000000000001
 31
0.0
  0
LINE
  5
60
100
AcDbEntity
100
AcDbLine
  8
sump
 62
2
370
-1
  6
ByLayer
 10
-0.319
 20
-2.3127499999999999
 30
0.0
 11
-0.319
 21
-2.2330000000000001
 31
0.0
  0
LINE
  5
61
100
AcDbEntity
100
AcDbLine
  8
sump
 62
2
370
-1
  6
ByLayer
 10
0.3189999999999998
 20
-2.3127499999999999
 30
0.0
 11
-0.319
 21
-2.3127499999999999
 31
0.0
  0
ARC
  5
62
100
AcDbEntity
  8
timing_cover
 62
4
370
-1
  6
ByLayer
100
AcDbCircle
 10
1.4355000000000016
 20
1.3836107879385731
 30
0.0
 40
0.87725
100
AcDbArc
 50
309.3569538265230108
 51
138.5340852980946238
  0
LINE
  5
63
100
AcDbEntity
100
AcDbLine
  8
timing_cover
 62
4
370
-1
  6
ByLayer
 10
0.0398750000000003
 20
-0.0000000000000005
 30
0.0
 11
-0.0398749999999986
 21
0.0000000000000005
 31
0.0
  0
LINE
  5
64
100
AcDbEntity
100
AcDbLine
  8
timing_cover
 62
4
370
-1
  6
ByLayer
 10
0.0000000000000003
 20
-0.0398750000000005
 30
0.0
 11
-0.0000000000000003
 21
0.0398749999999995
 31
0.0
  0
LINE
  5
65
100
AcDbEntity
100
AcDbLine
  8
timing_cover
 62
4
370
-1
  6
ByLayer
 10
1.4753750000000014
 20
1.383610787938572
 30
0.0
 11
1.3956250000000026
 21
1.3836107879385731
 31
0.0
  0
LINE
  5
66
100
AcDbEntity
100
AcDbLine
  8
timing_cover
 62
4
370
-1
  6
ByLayer
 10
1.4355000000000016
 20
1.3437357879385732
 30
0.0
 11
1.4355000000000002
 21
1.4234857879385721
 31
0.0
  0
LINE
  5
67
100
AcDbEntity
100
AcDbLine
  8
timing_cover
 62
4
370
-1
  6
ByLayer
 10
0.0398750000000025
 20
-1.1962499999999989
 30
0.0
 11
-0.0398750000000009
 21
-1.1962500000000011
 31
0.0
  0
LINE
  5
68
100
AcDbEntity
100
AcDbLine
  8
timing_cover
 62
4
370
-1
  6
ByLayer
 10
0.0000000000000026
 20
-1.2361249999999988
 30
0.0
 11
-0.0000000000000003
 21
-1.1563750000000006
 31
0.0
  0
LINE
  5
69
100
AcDbEntity
100
AcDbLine
  8
timing_cover
 62
4
370
-1
  6
ByLayer
 10
2.0929547858162829
 20
0.5819850853146695
 30
0.0
 11
0.966211821991606
 21
-0.342115216767218
 31
0.0
  0
ARC
  5
6A
100
AcDbEntity
  8
timing_cover
 62
4
370
-1
  6
ByLayer
100
AcDbCircle
 10
1.016785267054398
 20
-0.4037787323536722
 30
0.0
 40
0.07975
100
AcDbArc
 50
129.3569538265231813
 51
234.3226943139329421
  0
CIRCLE
  5
6B
100
AcDbEntity
100
AcDbCircle
  8
timing_cover
 62
4
370
-1
  6
ByLayer
 10
0.8772500000000003
 20
-0.5981250000000005
 30
0.0
 40
0.1595
  0
ARC
  5
6C
100
AcDbEntity
  8
timing_cover
 62
4
370
-1
  6
ByLayer
100
AcDbCircle
 10
1.0351480897910095
 20
-0.7778713650268088
 30
0.0
 40
0.07975
100
AcDbArc
 50
131.2976700628961453
 51
202.0072160273047359
  0
ARC
  5
6D
100
AcDbEntity
  8
timing_cover
 62
4
370
-1
  6
ByLayer
100
AcDbCircle
 10
-1.0351480897910068
 20
-0.7778713650268099
 30
0.0
 40
0.07975
100
AcDbArc
 50
337.9927839726950651
 51
48.7023299371037055
  0
ARC
  5
6E
100
AcDbEntity
  8
timing_cover
 62
4
370
-1
  6
ByLayer
100
AcDbCircle
 10
0.0000000000000003
 20
-1.19625
 30
0.0
 40
1.0367500000000001
100
AcDbArc
 50
318.9014256314271734
 51
22.0072160273049633
  0
ARC
  5
6F
100
AcDbEntity
  8
timing_cover
 62
4
370
-1
  6
ByLayer
100
AcDbCircle
 10
0.8413717895960107
 20
-1.9301885271751364
 30
0.0
 40
0.07975
100
AcDbArc
 50
138.9014256314267186
 51
203.5244921062747778
  0
CIRCLE
  5
70
100
AcDbEntity
100
AcDbCircle
  8
timing_cover
 62
4
370
-1
  6
ByLayer
 10
0.6220059675868148
 20
-2.0256830224836664
 30
0.0
 40
0.1595
  0
ARC
  5
71
100
AcDbEntity
  8
timing_cover
 62
4
370
-1
  6
ByLayer
100
AcDbCircle
 10
0.468889301888643
 20
-2.2095194965182663
 30
0.0
 40
0.07975
100
AcDbArc
 50
50.2092197004511789
 51
114.8322861752983641
  0
ARC
  5
72
100
AcDbEntity
  8
timing_cover
 62
4
370
-1
  6
ByLayer
100
AcDbCircle
 10
0.0000000000000003
 20
-1.19625
 30
0.0
 40
1.0367500000000001
100
AcDbArc
 50
245.1677138247009964
 51
294.832286175299032
  0
ARC
  5
73
100
AcDbEntity
  8
timing_cover
 62
4
370
-1
  6
ByLayer
100
AcDbCircle
 10
-0.4688893018886425
 20
-2.2095194965182667
 30
0.0
 40
0.07975
100
AcDbArc
 50
65.167713824700769
 51
129.790780299548544
  0
CIRCLE
  5
74
100
AcDbEntity
100
AcDbCircle
  8
timing_cover
 62
4
370
-1
  6
ByLayer
 10
-0.6220059675868154
 20
-2.0256830224836668
 30
0.0
 40
0.1595
  0
ARC
  5
75
100
AcDbEntity
  8
timing_cover
 62
4
370
-1
  6
ByLayer
100
AcDbCircle
 10
0.0000000000000003
 20
-1.19625
 30
0.0
 40
1.0367500000000001
100
AcDbArc
 50
157.9927839726950367
 51
221.0985743685728835
  0
ARC
  5
76
100
AcDbEntity
  8
timing_cover
 62
4
370
-1
  6
ByLayer
100
AcDbCircle
 10
-0.8413717895960067
 20
-1.9301885271751364
 30
0.0
 40
0.07975
100
AcDbArc
 50
336.4755078937252506
 51
41.0985743685728906
  0
ARC
  5
77
100
AcDbEntity
  8
timing_cover
 62
4
370
-1
  6
ByLayer
100
AcDbCircle
 10
1.4355000000000016
 20
1.3836107879385731
 30
0.0
 40
1.0367500000000001
100
AcDbArc
 50
309.3569538265230108
 51
31.910949834244736
  0
ARC
  5
78
100
AcDbEntity
  8
timing_cover
 62
4
370
-1
  6
ByLayer
100
AcDbCircle
 10
2.3832641163716732
 20
1.9737933272585899
 30
0.0
 40
0.07975
100
AcDbArc
 50
147.287883359397
 51
211.9109498342448319
  0
CIRCLE
  5
79
100
AcDbEntity
100
AcDbCircle
  8
timing_cover
 62
4
370
-1
  6
ByLayer
 10
2.1819600000000015
 20
2.1030883976666304
 30
0.0
 40
0.1595
  0
ARC
  5
7A
100
AcDbEntity
  8
timing_cover
 62
4
370
-1
  6
ByLayer
100
AcDbCircle
 10
1.4355000000000016
 20
1.3836107879385731
 30
0.0
 40
1.0367500000000001
100
AcDbArc
 50
55.9800892903728737
 51
138.5340852980946238
  0
ARC
  5
7B
100
AcDbEntity
  8
timing_cover
 62
4
370
-1
  6
ByLayer
100
AcDbCircle
 10
2.0601604990129441
 20
2.3090142194066536
 30
0.0
 40
0.07975
100
AcDbArc
 50
235.9800892903729448
 51
300.6031557652204924
  0
LINE
  5
7C
100
AcDbEntity
100
AcDbLine
  8
timing_cover
 62
4
370
-1
  6
ByLayer
 10
0.7781329043093014
 20
1.9645032599186947
 30
0.0
 11
0.6562492040594088
 21
1.8265735433014487
 31
0.0
  0
ARC
  5
7D
100
AcDbEntity
  8
timing_cover
 62
4
370
-1
  6
ByLayer
100
AcDbCircle
 10
0.7160098491221999
 20
1.7737651367578007
 30
0.0
 40
0.07975
100
AcDbArc
 50
138.5340852980946238
 51
209.0628646636038752
  0
CIRCLE
  5
7E
100
AcDbEntity
100
AcDbCircle
  8
timing_cover
 62
4
370
-1
  6
ByLayer
 10
0.5068844745767318
 20
1.6575449138135216
 30
0.0
 40
0.1595
  0
LINE
  5
7F
100
AcDbEntity
100
AcDbLine
  8
timing_cover
 62
4
370
-1
  6
ByLayer
 10
0.357519745094055
 20
1.4885162843255946
 30
0.0
 11
-0.5378458055651155
 21
0.4752756588928272
 31
0.0
  0
ARC
  5
80
100
AcDbEntity
  8
timing_cover
 62
4
370
-1
  6
ByLayer
100
AcDbCircle
 10
0.4172803901568471
 20
1.4357078777819465
 30
0.0
 40
0.07975
100
AcDbArc
 50
68.0053059325853155
 51
138.5340852980947091
  0
LINE
  5
81
100
AcDbEntity
100
AcDbLine
  8
timing_cover
 62
4
370
-1
  6
ByLayer
 10
1.9918078956907013
 20
0.705312116487577
 30
0.0
 11
1.849486285515207
 21
0.58858678766057
 31
0.0
  0
ARC
  5
82
100
AcDbEntity
  8
timing_cover
 62
4
370
-1
  6
ByLayer
100
AcDbCircle
 10
1.7989128404524148
 20
0.6502503032470204
 30
0.0
 40
0.07975
100
AcDbArc
 50
238.8281744610136172
 51
309.3569538265230108
  0
CIRCLE
  5
83
100
AcDbEntity
100
AcDbCircle
  8
timing_cover
 62
4
370
-1
  6
ByLayer
 10
1.6750755254232688
 20
0.4455434838531069
 30
0.0
 40
0.1595
  0
ARC
  5
84
100
AcDbEntity
  8
timing_cover
 62
4
370
-1
  6
ByLayer
100
AcDbCircle
 10
1.450091320268543
 20
0.3641636956321054
 30
0.0
 40
0.07975
100
AcDbArc
 50
309.3569538265230108
 51
19.8857331920322906
  0
LINE
  5
85
100
AcDbEntity
100
AcDbLine
  8
timing_cover
 62
4
370
-1
  6
ByLayer
 10
0.6586116141837205
 20
2.0701200730059899
 30
0.0
 11
-0.5080023662080227
 21
0.7499211014680458
 31
0.0
  0
ARC
  5
86
100
AcDbEntity
  8
timing_cover
 62
4
370
-1
  6
ByLayer
100
AcDbCircle
 10
-0.5677630112708139
 20
0.8027295080116927
 30
0.0
 40
0.07975
100
AcDbArc
 50
248.0053059325853724
 51
318.5340852980946238
  0
CIRCLE
  5
87
100
AcDbEntity
100
AcDbCircle
  8
timing_cover
 62
4
370
-1
  6
ByLayer
 10
-0.6573670956906992
 20
0.5808924719801187
 30
0.0
 40
0.1595
  0
ARC
  5
88
100
AcDbEntity
  8
timing_cover
 62
4
370
-1
  6
ByLayer
100
AcDbCircle
 10
-0.8502165915785912
 20
0.4392957402530577
 30
0.0
 40
0.07975
100
AcDbArc
 50
332.6751955320262937
 51
36.287395570783282
  0
CIRCLE
  5
89
100
AcDbEntity
100
AcDbCircle
  8
timing_cover
 62
4
370
-1
  6
ByLayer
 10
-0.8772499999999992
 20
-0.5981249999999995
 30
0.0
 40
0.1595
  0
ARC
  5
8A
100
AcDbEntity
  8
timing_cover
 62
4
370
-1
  6
ByLayer
100
AcDbCircle
 10
-0.887080977210197
 20
-0.3590770667583742
 30
0.0
 40
0.07975
100
AcDbArc
 50
272.3549932435404344
 51
22.0373635495751365
  0
ARC
  5
8B
100
AcDbEntity
  8
timing_cover
 62
4
370
-1
  6
ByLayer
100
AcDbCircle
 10
0.0000000000000003
 20
0.0
 30
0.0
 40
0.87725
100
AcDbArc
 50
152.6751955465792889
 51
202.0373635495752467
  0
LINE
  5
8C
100
AcDbEntity
100
AcDbLine
  8
timing_cover
 62
4
370
-1
  6
ByLayer
 10
1.5006647653313328
 20
0.3025001800456494
 30
0.0
 11
0.6019729913404499
 21
-0.4345635216920137
 31
0.0
  0
ARC
  5
8D
100
AcDbEntity
  8
timing_cover
 62
4
370
-1
  6
ByLayer
100
AcDbCircle
 10
0.6525464364032418
 20
-0.4962270372784657
 30
0.0
 40
0.07975
100
AcDbArc
 50
129.3569538265228687
 51
227.0103132906751568
  0
ARC
  5
8E
100
AcDbEntity
  8
timing_cover
 62
4
370
-1
  6
ByLayer
100
AcDbCircle
 10
0.0000000000000003
 20
0.0
 30
0.0
 40
0.71775
100
AcDbArc
 50
138.5340852980947091
 51
217.1090049458084934
  0
ARC
  5
8F
100
AcDbEntity
  8
timing_cover
 62
4
370
-1
  6
ByLayer
100
AcDbCircle
 10
0.0000000000000003
 20
-1.19625
 30
0.0
 40
0.87725
100
AcDbArc
 50
131.6496722738668552
 51
47.0103132906750645
  0
ARC
  5
90
100
AcDbEntity
  8
timing_cover
 62
4
370
-1
  6
ByLayer
100
AcDbCircle
 10
-0.6359975693852049
 20
-0.4811583333333332
 30
0.0
 40
0.07975
100
AcDbArc
 50
311.6496722738668836
 51
37.1090049458084152
  0
LINE
  5
91
100
AcDbEntity
100
AcDbLine
  8
timing_cover
 62
4
370
-1
  6
ByLayer
 10
2.2218350000000013
 20
2.1030883976666312
 30
0.0
 11
2.1420850000000002
 21
2.103088397666629
 31
0.0
  0
LINE
  5
92
100
AcDbEntity
100
AcDbLine
  8
timing_cover
 62
4
370
-1
  6
ByLayer
 10
2.1819600000000015
 20
2.0632133976666314
 30
0.0
 11
2.1819600000000015
 21
2.1429633976666302
 31
0.0
  0
LINE
  5
93
100
AcDbEntity
100
AcDbLine
  8
timing_cover
 62
4
370
-1
  6
ByLayer
 10
0.5467594745767318
 20
1.6575449138135216
 30
0.0
 11
0.467009474576733
 21
1.6575449138135228
 31
0.0
  0
LINE
  5
94
100
AcDbEntity
100
AcDbLine
  8
timing_cover
 62
4
370
-1
  6
ByLayer
 10
0.5068844745767318
 20
1.6176699138135218
 30
0.0
 11
0.5068844745767308
 21
1.6974199138135206
 31
0.0
  0
LINE
  5
95
100
AcDbEntity
100
AcDbLine
  8
timing_cover
 62
4
370
-1
  6
ByLayer
 10
1.7149505254232686
 20
0.445543483853108
 30
0.0
 11
1.6352005254232698
 21
0.4455434838531092
 31
0.0
  0
LINE
  5
96
100
AcDbEntity
100
AcDbLine
  8
timing_cover
 62
4
370
-1
  6
ByLayer
 10
1.6750755254232699
 20
0.4056684838531092
 30
0.0
 11
1.6750755254232688
 21
0.4854184838531057
 31
0.0
  0
LINE
  5
97
100
AcDbEntity
100
AcDbLine
  8
timing_cover
 62
4
370
-1
  6
ByLayer
 10
-0.6174920956906986
 20
0.5808924719801187
 30
0.0
 11
-0.6972420956906997
 21
0.5808924719801187
 31
0.0
  0
LINE
  5
98
100
AcDbEntity
100
AcDbLine
  8
timing_cover
 62
4
370
-1
  6
ByLayer
 10
-0.6573670956906986
 20
0.54101747198012
 30
0.0
 11
-0.6573670956906992
 21
0.6207674719801188
 31
0.0
  0
LINE
  5
99
100
AcDbEntity
100
AcDbLine
  8
timing_cover
 62
4
370
-1
  6
ByLayer
 10
-0.8373749999999998
 20
-0.598125
 30
0.0
 11
-0.9171249999999986
 21
-0.5981249999999995
 31
0.0
  0
LINE
  5
9A
100
AcDbEntity
100
AcDbLine
  8
timing_cover
 62
4
370
-1
  6
ByLayer
 10
-0.8772499999999974
 20
-0.6379999999999989
 30
0.0
 11
-0.8772499999999986
 21
-0.5582499999999995
 31
0.0
  0
LINE
  5
9B
100
AcDbEntity
100
AcDbLine
  8
timing_cover
 62
4
370
-1
  6
ByLayer
 10
0.9171250000000025
 20
-0.5981249999999995
 30
0.0
 11
0.8373750000000003
 21
-0.5981250000000005
 31
0.0
  0
LINE
  5
9C
100
AcDbEntity
100
AcDbLine
  8
timing_cover
 62
4
370
-1
  6
ByLayer
 10
0.8772500000000003
 20
-0.6380000000000011
 30
0.0
 11
0.8772500000000003
 21
-0.5582500000000011
 31
0.0
  0
LINE
  5
9D
100
AcDbEntity
100
AcDbLine
  8
timing_cover
 62
4
370
-1
  6
ByLayer
 10
-0.5821309675868154
 20
-2.0256830224836664
 30
0.0
 11
-0.6618809675868165
 21
-2.0256830224836668
 31
0.0
  0
LINE
  5
9E
100
AcDbEntity
100
AcDbLine
  8
timing_cover
 62
4
370
-1
  6
ByLayer
 10
-0.622005967586813
 20
-2.0655580224836654
 30
0.0
 11
-0.6220059675868119
 21
-1.9858080224836652
 31
0.0
  0
LINE
  5
9F
100
AcDbEntity
100
AcDbLine
  8
timing_cover
 62
4
370
-1
  6
ByLayer
 10
0.6618809675868136
 20
-2.0256830224836673
 30
0.0
 11
0.5821309675868159
 21
-2.0256830224836668
 31
0.0
  0
LINE
  5
A0
100
AcDbEntity
100
AcDbLine
  8
timing_cover
 62
4
370
-1
  6
ByLayer
 10
0.6220059675868181
 20
-2.0655580224836654
 30
0.0
 11
0.6220059675868148
 21
-1.9858080224836681
 31
0.0
  0
LINE
  5
A1
100
AcDbEntity
100
AcDbLine
  8
timing_cover
 62
4
370
-1
  6
ByLayer
 10
0.0398750000000003
 20
-1.3956250000000001
 30
0.0
 11
-0.0398749999999997
 21
-1.3956250000000006
 31
0.0
  0
LINE
  5
A2
100
AcDbEntity
100
AcDbLine
  8
timing_cover
 62
4
370
-1
  6
ByLayer
 10
-0.0000000000000003
 20
-1.4355000000000007
 30
0.0
 11
0.0000000000000026
 21
-1.3557499999999989
 31
0.0
  0
LINE
  5
A3
100
AcDbEntity
100
AcDbLine
  8
sump
 62
2
370
-1
  6
ByLayer
 10
0.6578647344322216
 20
-2.0735000000000001
 30
0.0
 11
-0.6578647344322218
 21
-2.0735000000000001
 31
0.0
  0
LINE
  5
A4
100
AcDbEntity
100
AcDbLine
  8
body
 62
256
370
-1
  6
ByLayer
 10
0.0
 20
0.0
 30
0.0
 11
0.0000000000000003
 21
4.22675
 31
0.0
  0
LINE
  5
A5
100
AcDbEntity
100
AcDbLine
  8
body
 62
256
370
-1
  6
ByLayer
 10
1.1165000000000003
 20
4.22675
 30
0.0
 11
-1.1164999999999998
 21
4.22675
 31
0.0
  0
LINE
  5
A6
100
AcDbEntity
100
AcDbLine
  8
body
 62
256
370
-1
  6
ByLayer
 10
-2.3127499999999999
 20
0.0000000000000003
 30
0.0
 11
-2.3127499999999999
 21
0.23925
 31
0.0
  0
LINE
  5
A7
100
AcDbEntity
100
AcDbLine
  8
body
 62
256
370
-1
  6
ByLayer
 10
2.3127499999999999
 20
-0.0000000000000005
 30
0.0
 11
2.3127499999999999
 21
0.23925
 31
0.0
  0
LINE
  5
A8
100
AcDbEntity
100
AcDbLine
  8
body
 62
256
370
-1
  6
ByLayer
 10
-2.3127499999999999
 20
0.23925
 30
0.0
 11
2.3127499999999999
 21
0.23925
 31
0.0
  0
LINE
  5
A9
100
AcDbEntity
100
AcDbLine
  8
body
 62
256
370
-1
  6
ByLayer
 10
-2.3127499999999999
 20
0.0
 30
0.0
 11
2.3127499999999999
 21
0.0
 31
0.0
  0
LINE
  5
AA
100
AcDbEntity
100
AcDbLine
  8
body
 62
256
370
-1
  6
ByLayer
 10
1.4355000000000009
 20
2.0216107879385725
 30
0.0
 11
1.4355
 21
2.0216107879385725
 31
0.0
  0
LINE
  5
AB
100
AcDbEntity
100
AcDbLine
  8
body
 62
256
370
-1
  6
ByLayer
 10
1.4355000000000009
 20
2.1013607879385727
 30
0.0
 11
1.4355
 21
2.1013607879385727
 31
0.0
  0
LINE
  5
AC
100
AcDbEntity
100
AcDbLine
  8
crank
 62
3
370
-1
  6
ByLayer
 10
-0.039875
 20
0.0
 30
0.0
 11
0.039875
 21
0.0
 31
0.0
  0
LINE
  5
AD
100
AcDbEntity
100
AcDbLine
  8
crank
 62
3
370
-1
  6
ByLayer
 10
0.0
 20
-0.039875
 30
0.0
 11
0.0
 21
0.039875
 31
0.0
  0
LINE
  5
AE
100
AcDbEntity
100
AcDbLine
  8
crank
 62
3
370
-1
  6
ByLayer
 10
-0.0398749999999999
 20
0.71775
 30
0.0
 11
0.0398750000000001
 21
0.71775
 31
0.0
  0
LINE
  5
AF
100
AcDbEntity
100
AcDbLine
  8
crank
 62
3
370
-1
  6
ByLayer
 10
0.0000000000000001
 20
0.677875
 30
0.0
 11
0.0000000000000001
 21
0.757625
 31
0.0
  0
CIRCLE
  5
B0
100
AcDbEntity
100
AcDbCircle
  8
crank
 62
3
370
-1
  6
ByLayer
 10
0.0
 20
0.0
 30
0.0
 40
0.279125
  0
CIRCLE
  5
B1
100
AcDbEntity
100
AcDbCircle
  8
crank
 62
3
370
-1
  6
ByLayer
 10
0.0000000000000001
 20
0.71775
 30
0.0
 40
0.279125
  0
ARC
  5
B2
100
AcDbEntity
  8
crank
 62
256
370
-1
  6
ByLayer
100
AcDbCircle
 10
0.0
 20
0.0
 30
0.0
 40
1.0766249999999999
100
AcDbArc
 50
70.5287793655093083
 51
109.4712206344906917
  0
LINE
  5
B3
100
AcDbEntity
100
AcDbLine
  8
crank
 62
256
370
-1
  6
ByLayer
 10
-0.358875
 20
-0.358875
 30
0.0
 11
-0.358875
 21
1.0150517843932889
 31
0.0
  0
LINE
  5
B4
100
AcDbEntity
100
AcDbLine
  8
crank
 62
256
370
-1
  6
ByLayer
 10
0.358875
 20
-0.358875
 30
0.0
 11
0.358875
 21
1.0150517843932889
 31
0.0
  0
LINE
  5
B5
100
AcDbEntity
100
AcDbLine
  8
crank
 62
256
370
-1
  6
ByLayer
 10
-0.358875
 20
-0.358875
 30
0.0
 11
0.358875
 21
-0.358875
 31
0.0
  0
CIRCLE
  5
B6
100
AcDbEntity
100
AcDbCircle
  8
crank
 62
256
370
-1
  6
ByLayer
 10
0.0000000000000003
 20
3.5887500000000001
 30
0.0
 40
0.1595
  0
CIRCLE
  5
B7
100
AcDbEntity
100
AcDbCircle
  8
crank
 62
256
370
-1
  6
ByLayer
 10
0.0000000000000003
 20
3.5887500000000001
 30
0.0
 40
0.199375
  0
CIRCLE
  5
B8
100
AcDbEntity
100
AcDbCircle
  8
crank
 62
256
370
-1
  6
ByLayer
 10
0.0000000000000001
 20
0.71775
 30
0.0
 40
0.3788125
  0
LINE
  5
B9
100
AcDbEntity
100
AcDbLine
  8
crank
 62
256
370
-1
  6
ByLayer
 10
0.0000000000000003
 20
3.3893750000000002
 30
0.0
 11
0.0000000000000001
 21
1.0965625000000001
 31
0.0
  0
LINE
  5
BA
100
AcDbEntity
100
AcDbLine
  8
crank
 62
3
370
-1
  6
ByLayer
 10
-0.0398749999999997
 20
3.5887500000000001
 30
0.0
 11
0.0398750000000003
 21
3.5887500000000001
 31
0.0
  0
LINE
  5
BB
100
AcDbEntity
100
AcDbLine
  8
crank
 62
3
370
-1
  6
ByLayer
 10
0.0000000000000003
 20
3.5488750000000002
 30
0.0
 11
0.0000000000000003
 21
3.628625
 31
0.0
  0
LINE
  5
BC
100
AcDbEntity
100
AcDbLine
  8
crank
 62
256
370
-1
  6
ByLayer
 10
-0.6379999999999997
 20
2.9507500000000002
 30
0.0
 11
-0.6379999999999997
 21
4.22675
 31
0.0
  0
LINE
  5
BD
100
AcDbEntity
100
AcDbLine
  8
crank
 62
256
370
-1
  6
ByLayer
 10
0.6380000000000003
 20
2.9507500000000002
 30
0.0
 11
0.6380000000000003
 21
4.22675
 31
0.0
  0
LINE
  5
BE
100
AcDbEntity
100
AcDbLine
  8
crank
 62
256
370
-1
  6
ByLayer
 10
-0.6379999999999997
 20
4.22675
 30
0.0
 11
0.6380000000000003
 21
4.22675
 31
0.0
  0
LINE
  5
BF
100
AcDbEntity
100
AcDbLine
  8
crank
 62
256
370
-1
  6
ByLayer
 10
-0.6379999999999997
 20
2.9507500000000002
 30
0.0
 11
0.6380000000000003
 21
2.9507500000000002
 31
0.0
  0
LINE
  5
C0
100
AcDbEntity
100
AcDbLine
  8
liner
 62
256
370
-1
  6
ByLayer
 10
0.7975000000000003
 20
4.22675
 30
0.0
 11
-0.7974999999999998
 21
4.22675
 31
0.0
  0
LINE
  5
C1
100
AcDbEntity
100
AcDbLine
  8
liner
 62
256
370
-1
  6
ByLayer
 10
0.7975000000000003
 20
4.1071249999999999
 30
0.0
 11
-0.7974999999999998
 21
4.1071249999999999
 31
0.0
  0
LINE
  5
C2
100
AcDbEntity
100
AcDbLine
  8
liner
 62
256
370
-1
  6
ByLayer
 10
-0.7974999999999998
 20
4.1071249999999999
 30
0.0
 11
-0.7974999999999998
 21
4.22675
 31
0.0
  0
LINE
  5
C3
100
AcDbEntity
100
AcDbLine
  8
liner
 62
256
370
-1
  6
ByLayer
 10
0.7975000000000003
 20
4.1071249999999999
 30
0.0
 11
0.7975000000000003
 21
4.22675
 31
0.0
  0
LINE
  5
C4
100
AcDbEntity
100
AcDbLine
  8
liner
 62
256
370
-1
  6
ByLayer
 10
0.7177500000000001
 20
1.67475
 30
0.0
 11
-0.7177499999999999
 21
1.67475
 31
0.0
  0
LINE
  5
C5
100
AcDbEntity
100
AcDbLine
  8
liner
 62
256
370
-1
  6
ByLayer
 10
-0.6379999999999997
 20
4.1071249999999999
 30
0.0
 11
-0.7177499999999998
 21
4.22675
 31
0.0
  0
LINE
  5
C6
100
AcDbEntity
100
AcDbLine
  8
liner
 62
256
370
-1
  6
ByLayer
 10
0.6380000000000003
 20
4.1071249999999999
 30
0.0
 11
0.7177500000000003
 21
4.22675
 31
0.0
  0
LINE
  5
C7
100
AcDbEntity
100
AcDbLine
  8
liner
 62
256
370
-1
  6
ByLayer
 10
-0.6379999999999999
 20
1.67475
 30
0.0
 11
-0.6379999999999997
 21
4.1071249999999999
 31
0.0
  0
LINE
  5
C8
100
AcDbEntity
100
AcDbLine
  8
liner
 62
256
370
-1
  6
ByLayer
 10
0.6380000000000001
 20
1.67475
 30
0.0
 11
0.6380000000000003
 21
4.1071249999999999
 31
0.0
  0
LINE
  5
C9
100
AcDbEntity
100
AcDbLine
  8
liner
 62
256
370
-1
  6
ByLayer
 10
-0.7177499999999999
 20
1.67475
 30
0.0
 11
-0.7177499999999998
 21
4.1071249999999999
 31
0.0
  0
LINE
  5
CA
100
AcDbEntity
100
AcDbLine
  8
liner
 62
256
370
-1
  6
ByLayer
 10
0.7177500000000001
 20
1.67475
 30
0.0
 11
0.7177500000000003
 21
4.1071249999999999
 31
0.0
  0
ARC
  5
CB
100
AcDbEntity
  8
body
 62
256
370
-1
  6
ByLayer
100
AcDbCircle
 10
2.0734999999999997
 20
0.0
 30
0.0
 40
3.5887500000000001
100
AcDbArc
 50
148.1092081981542776
 51
176.1774462707256816
  0
LINE
  5
CC
100
AcDbEntity
100
AcDbLine
  8
body
 62
256
370
-1
  6
ByLayer
 10
-1.1164999999999998
 20
2.552
 30
0.0
 11
-1.1164999999999998
 21
4.22675
 31
0.0
  0
LINE
  5
CD
100
AcDbEntity
100
AcDbLine
  8
body
 62
256
370
-1
  6
ByLayer
 10
1.1165000000000005
 20
2.552
 30
0.0
 11
1.1165000000000003
 21
4.22675
 31
0.0
  0
LINE
  5
CE
100
AcDbEntity
100
AcDbLine
  8
body
 62
256
370
-1
  6
ByLayer
 10
0.8772499999999998
 20
2.2330000000000001
 30
0.0
 11
-0.8772499999999999
 21
2.2330000000000005
 31
0.0
  0
ARC
  5
CF
100
AcDbEntity
  8
body
 62
256
370
-1
  6
ByLayer
100
AcDbCircle
 10
-1.51525
 20
2.2330000000000005
 30
0.0
 40
0.638
100
AcDbArc
 50
328.1092081981542492
 51
0.0
  0
ARC
  5
D0
100
AcDbEntity
  8
body
 62
256
370
-1
  6
ByLayer
100
AcDbCircle
 10
-0.7974999999999998
 20
2.5420312500000004
 30
0.0
 40
0.3191557237095435
100
AcDbArc
 50
178.2100893917539963
 51
255.5297058999341004
  0
ARC
  5
D1
100
AcDbEntity
  8
body
 62
256
370
-1
  6
ByLayer
100
AcDbCircle
 10
0.7975000000000002
 20
2.5420312500000004
 30
0.0
 40
0.3191557237095435
100
AcDbArc
 50
284.470294100065928
 51
1.7899106082459972
  0
CIRCLE
  5
D2
100
AcDbEntity
100
AcDbCircle
  8
body
 62
256
370
-1
  6
ByLayer
 10
1.4355000000000009
 20
1.3836107879385726
 30
0.0
 40
0.4785
  0
LINE
  5
D3
100
AcDbEntity
100
AcDbLine
  8
body
 62
256
370
-1
  6
ByLayer
 10
1.110835171702045
 20
2.0335516839216736
 30
0.0
 11
1.458159313191822
 21
2.0212082750146076
 31
0.0
  0
ARC
  5
D4
100
AcDbEntity
  8
body
 62
256
370
-1
  6
ByLayer
100
AcDbCircle
 10
1.1165000000000003
 20
2.1929510556906826
 30
0.0
 40
0.1595
100
AcDbArc
 50
180.0
 51
267.9646455963507492
  0
LINE
  5
D5
100
AcDbEntity
100
AcDbLine
  8
body
 62
256
370
-1
  6
ByLayer
 10
0.9570000000000002
 20
2.1929510556906826
 30
0.0
 11
0.9570000000000002
 21
2.2655893465617507
 31
0.0
  0
LINE
  5
D6
100
AcDbEntity
100
AcDbLine
  8
body
 62
256
370
-1
  6
ByLayer
 10
-1.67475
 20
5.1040000000000001
 30
0.0
 11
1.67475
 21
5.1040000000000001
 31
0.0
  0
LINE
  5
D7
100
AcDbEntity
100
AcDbLine
  8
body
 62
256
370
-1
  6
ByLayer
 10
2.3127500000000003
 20
5.6622500000000002
 30
0.0
 11
2.3127500000000003
 21
6.3799999999999999
 31
0.0
  0
LINE
  5
D8
100
AcDbEntity
100
AcDbLine
  8
body
 62
256
370
-1
  6
ByLayer
 10
-2.3127499999999999
 20
5.6622500000000002
 30
0.0
 11
-2.3127499999999999
 21
6.3799999999999999
 31
0.0
  0
LINE
  5
D9
100
AcDbEntity
100
AcDbLine
  8
body
 62
256
370
-1
  6
ByLayer
 10
-2.3127499999999994
 20
7.9750000000000005
 30
0.0
 11
-2.3127499999999994
 21
8.6927500000000002
 31
0.0
  0
LINE
  5
DA
100
AcDbEntity
100
AcDbLine
  8
body
 62
256
370
-1
  6
ByLayer
 10
2.3127500000000007
 20
7.9750000000000005
 30
0.0
 11
2.3127500000000007
 21
8.6927500000000002
 31
0.0
  0
LINE
  5
DB
100
AcDbEntity
100
AcDbLine
  8
body
 62
256
370
-1
  6
ByLayer
 10
-0.8772499999999998
 20
9.4902499999999996
 30
0.0
 11
0.8772500000000003
 21
9.4902499999999996
 31
0.0
  0
LINE
  5
DC
100
AcDbEntity
100
AcDbLine
  8
body
 62
256
370
-1
  6
ByLayer
 10
-2.3127499999999994
 20
7.9750000000000005
 30
0.0
 11
-1.8342499999999997
 21
7.9750000000000005
 31
0.0
  0
ARC
  5
DD
100
AcDbEntity
  8
body
 62
256
370
-1
  6
ByLayer
100
AcDbCircle
 10
-1.8342499999999997
 20
7.8155000000000001
 30
0.0
 40
0.1595
100
AcDbArc
 50
0.0
 51
90.0
  0
LINE
  5
DE
100
AcDbEntity
100
AcDbLine
  8
body
 62
256
370
-1
  6
ByLayer
 10
-2.3127499999999994
 20
8.6927500000000002
 30
0.0
 11
-1.8342499999999997
 21
8.6927500000000002
 31
0.0
  0
LINE
  5
DF
100
AcDbEntity
100
AcDbLine
  8
body
 62
256
370
-1
  6
ByLayer
 10
-1.6747499999999997
 20
8.8522499999999997
 30
0.0
 11
-1.6747499999999997
 21
9.1712500000000006
 31
0.0
  0
ARC
  5
E0
100
AcDbEntity
  8
body
 62
256
370
-1
  6
ByLayer
100
AcDbCircle
 10
-1.8342499999999997
 20
8.8522499999999997
 30
0.0
 40
0.1595
100
AcDbArc
 50
270.0
 51
0.0
  0
LINE
  5
E1
100
AcDbEntity
100
AcDbLine
  8
body
 62
256
370
-1
  6
ByLayer
 10
-2.3127499999999999
 20
6.3799999999999999
 30
0.0
 11
-1.8342499999999999
 21
6.3799999999999999
 31
0.0
  0
LINE
  5
E2
100
AcDbEntity
100
AcDbLine
  8
body
 62
256
370
-1
  6
ByLayer
 10
-1.67475
 20
6.5395000000000003
 30
0.0
 11
-1.6747499999999997
 21
7.8155000000000001
 31
0.0
  0
ARC
  5
E3
100
AcDbEntity
  8
body
 62
256
370
-1
  6
ByLayer
100
AcDbCircle
 10
-1.8342499999999999
 20
6.5395000000000003
 30
0.0
 40
0.1595
100
AcDbArc
 50
270.0
 51
0.0
  0
LINE
  5
E4
100
AcDbEntity
100
AcDbLine
  8
body
 62
256
370
-1
  6
ByLayer
 10
-2.3127499999999999
 20
5.6622500000000002
 30
0.0
 11
-1.8342499999999999
 21
5.6622500000000002
 31
0.0
  0
LINE
  5
E5
100
AcDbEntity
100
AcDbLine
  8
body
 62
256
370
-1
  6
ByLayer
 10
-1.67475
 20
5.1040000000000001
 30
0.0
 11
-1.67475
 21
5.5027499999999998
 31
0.0
  0
ARC
  5
E6
100
AcDbEntity
  8
body
 62
256
370
-1
  6
ByLayer
100
AcDbCircle
 10
-1.8342499999999999
 20
5.5027499999999998
 30
0.0
 40
0.1595
100
AcDbArc
 50
0.0
 51
90.0
  0
LINE
  5
E7
100
AcDbEntity
100
AcDbLine
  8
body
 62
256
370
-1
  6
ByLayer
 10
1.67475
 20
5.1040000000000001
 30
0.0
 11
1.67475
 21
5.5027499999999998
 31
0.0
  0
LINE
  5
E8
100
AcDbEntity
100
AcDbLine
  8
body
 62
256
370
-1
  6
ByLayer
 10
1.8342499999999999
 20
5.6622500000000002
 30
0.0
 11
2.3127500000000003
 21
5.6622500000000002
 31
0.0
  0
ARC
  5
E9
100
AcDbEntity
  8
body
 62
256
370
-1
  6
ByLayer
100
AcDbCircle
 10
1.8342499999999999
 20
5.5027499999999998
 30
0.0
 40
0.1595
100
AcDbArc
 50
90.0
 51
180.0
  0
LINE
  5
EA
100
AcDbEntity
100
AcDbLine
  8
body
 62
256
370
-1
  6
ByLayer
 10
1.8342499999999999
 20
6.3799999999999999
 30
0.0
 11
2.3127500000000003
 21
6.3799999999999999
 31
0.0
  0
ARC
  5
EB
100
AcDbEntity
  8
body
 62
256
370
-1
  6
ByLayer
100
AcDbCircle
 10
1.8342499999999999
 20
6.5395000000000003
 30
0.0
 40
0.1595
100
AcDbArc
 50
180.0
 51
270.0
  0
LINE
  5
EC
100
AcDbEntity
100
AcDbLine
  8
body
 62
256
370
-1
  6
ByLayer
 10
1.67475
 20
6.5395000000000003
 30
0.0
 11
1.6747500000000004
 21
7.8155000000000001
 31
0.0
  0
LINE
  5
ED
100
AcDbEntity
100
AcDbLine
  8
body
 62
256
370
-1
  6
ByLayer
 10
1.8342500000000004
 20
7.9750000000000005
 30
0.0
 11
2.3127500000000007
 21
7.9750000000000005
 31
0.0
  0
ARC
  5
EE
100
AcDbEntity
  8
body
 62
256
370
-1
  6
ByLayer
100
AcDbCircle
 10
1.8342500000000004
 20
7.8155000000000001
 30
0.0
 40
0.1595
100
AcDbArc
 50
90.0
 51
180.0
  0
LINE
  5
EF
100
AcDbEntity
100
AcDbLine
  8
body
 62
256
370
-1
  6
ByLayer
 10
1.8342500000000004
 20
8.6927500000000002
 30
0.0
 11
2.3127500000000007
 21
8.6927500000000002
 31
0.0
  0
LINE
  5
F0
100
AcDbEntity
100
AcDbLine
  8
body
 62
256
370
-1
  6
ByLayer
 10
1.6747500000000004
 20
8.8522499999999997
 30
0.0
 11
1.6747500000000004
 21
9.1712500000000006
 31
0.0
  0
ARC
  5
F1
100
AcDbEntity
  8
body
 62
256
370
-1
  6
ByLayer
100
AcDbCircle
 10
1.8342500000000004
 20
8.8522499999999997
 30
0.0
 40
0.1595
100
AcDbArc
 50
180.0
 51
270.0
  0
LINE
  5
F2
100
AcDbEntity
100
AcDbLine
  8
body
 62
256
370
-1
  6
ByLayer
 10
1.0367500000000003
 20
9.1712500000000006
 30
0.0
 11
1.6747500000000004
 21
9.1712500000000006
 31
0.0
  0
LINE
  5
F3
100
AcDbEntity
100
AcDbLine
  8
body
 62
256
370
-1
  6
ByLayer
 10
0.8772500000000003
 20
9.3307500000000001
 30
0.0
 11
0.8772500000000003
 21
9.4902499999999996
 31
0.0
  0
ARC
  5
F4
100
AcDbEntity
  8
body
 62
256
370
-1
  6
ByLayer
100
AcDbCircle
 10
1.0367500000000003
 20
9.3307500000000001
 30
0.0
 40
0.1595
100
AcDbArc
 50
180.0
 51
270.0
  0
LINE
  5
F5
100
AcDbEntity
100
AcDbLine
  8
body
 62
256
370
-1
  6
ByLayer
 10
-1.6747499999999997
 20
9.1712500000000006
 30
0.0
 11
-1.0367499999999998
 21
9.1712500000000006
 31
0.0
  0
LINE
  5
F6
100
AcDbEntity
100
AcDbLine
  8
body
 62
256
370
-1
  6
ByLayer
 10
-0.8772499999999998
 20
9.3307500000000001
 30
0.0
 11
-0.8772499999999998
 21
9.4902499999999996
 31
0.0
  0
ARC
  5
F7
100
AcDbEntity
  8
body
 62
256
370
-1
  6
ByLayer
100
AcDbCircle
 10
-1.0367499999999998
 20
9.3307500000000001
 30
0.0
 40
0.1595
100
AcDbArc
 50
270.0
 51
0.0
  0
ARC
  5
F8
100
AcDbEntity
  8
body
 62
256
370
-1
  6
ByLayer
100
AcDbCircle
 10
-1.1962499999999998
 20
8.5332500000000007
 30
0.0
 40
0.1595
100
AcDbArc
 50
90.0
 51
180.0
  0
LINE
  5
F9
100
AcDbEntity
100
AcDbLine
  8
body
 62
256
370
-1
  6
ByLayer
 10
-1.1962499999999998
 20
8.6927500000000002
 30
0.0
 11
1.1962500000000003
 21
8.6927500000000002
 31
0.0
  0
ARC
  5
FA
100
AcDbEntity
  8
body
 62
256
370
-1
  6
ByLayer
100
AcDbCircle
 10
1.1962500000000003
 20
8.5332500000000007
 30
0.0
 40
0.1595
100
AcDbArc
 50
0.0
 51
90.0
  0
LINE
  5
FB
100
AcDbEntity
100
AcDbLine
  8
body
 62
256
370
-1
  6
ByLayer
 10
1.35575
 20
7.5762499999999999
 30
0.0
 11
1.3557500000000002
 21
8.5332500000000007
 31
0.0
  0
ARC
  5
FC
100
AcDbEntity
  8
body
 62
256
370
-1
  6
ByLayer
100
AcDbCircle
 10
1.19625
 20
7.5762499999999999
 30
0.0
 40
0.1595
100
AcDbArc
 50
269.9999999999998863
 51
0.0
  0
LINE
  5
FD
100
AcDbEntity
100
AcDbLine
  8
body
 62
256
370
-1
  6
ByLayer
 10
-1.1962499999999998
 20
7.4167500000000004
 30
0.0
 11
1.1962499999999998
 21
7.4167500000000004
 31
0.0
  0
LINE
  5
FE
100
AcDbEntity
100
AcDbLine
  8
body
 62
256
370
-1
  6
ByLayer
 10
-1.3557499999999998
 20
7.5762499999999999
 30
0.0
 11
-1.3557499999999998
 21
8.5332500000000007
 31
0.0
  0
ARC
  5
FF
100
AcDbEntity
  8
body
 62
256
370
-1
  6
ByLayer
100
AcDbCircle
 10
-1.1962499999999998
 20
7.5762499999999999
 30
0.0
 40
0.1595
100
AcDbArc
 50
180.0
 51
270.0
  0
ARC
  5
100
100
AcDbEntity
  8
body
 62
256
370
-1
  6
ByLayer
100
AcDbCircle
 10
-1.1962499999999998
 20
6.7787500000000005
 30
0.0
 40
0.1595
100
AcDbArc
 50
90.0
 51
180.0
  0
LINE
  5
101
100
AcDbEntity
100
AcDbLine
  8
body
 62
256
370
-1
  6
ByLayer
 10
-1.35575
 20
5.8217499999999998
 30
0.0
 11
-1.3557499999999998
 21
6.7787500000000005
 31
0.0
  0
ARC
  5
102
100
AcDbEntity
  8
body
 62
256
370
-1
  6
ByLayer
100
AcDbCircle
 10
-1.19625
 20
5.8217499999999998
 30
0.0
 40
0.1595
100
AcDbArc
 50
180.0
 51
270.0
  0
LINE
  5
103
100
AcDbEntity
100
AcDbLine
  8
body
 62
256
370
-1
  6
ByLayer
 10
-1.1962499999999998
 20
6.93825
 30
0.0
 11
1.19625
 21
6.93825
 31
0.0
  0
ARC
  5
104
100
AcDbEntity
  8
body
 62
256
370
-1
  6
ByLayer
100
AcDbCircle
 10
1.19625
 20
6.7787500000000005
 30
0.0
 40
0.1595
100
AcDbArc
 50
0.0
 51
90.0
  0
LINE
  5
105
100
AcDbEntity
100
AcDbLine
  8
body
 62
256
370
-1
  6
ByLayer
 10
1.35575
 20
5.8217499999999998
 30
0.0
 11
1.35575
 21
6.7787500000000005
 31
0.0
  0
LINE
  5
106
100
AcDbEntity
100
AcDbLine
  8
body
 62
256
370
-1
  6
ByLayer
 10
-1.19625
 20
5.6622500000000002
 30
0.0
 11
1.19625
 21
5.6622500000000002
 31
0.0
  0
ARC
  5
107
100
AcDbEntity
  8
body
 62
256
370
-1
  6
ByLayer
100
AcDbCircle
 10
1.19625
 20
5.8217499999999998
 30
0.0
 40
0.1595
100
AcDbArc
 50
270.0
 51
0.0
  0
CIRCLE
  5
108
100
AcDbEntity
100
AcDbCircle
  8
body
 62
256
370
-1
  6
ByLayer
 10
-1.9937499999999997
 20
8.3737499999999994
 30
0.0
 40
0.07975
  0
CIRCLE
  5
109
100
AcDbEntity
100
AcDbCircle
  8
body
 62
256
370
-1
  6
ByLayer
 10
1.9937500000000004
 20
8.3737499999999994
 30
0.0
 40
0.07975
  0
CIRCLE
  5
10A
100
AcDbEntity
100
AcDbCircle
  8
body
 62
256
370
-1
  6
ByLayer
 10
1.9937500000000001
 20
5.9812500000000002
 30
0.0
 40
0.07975
  0
CIRCLE
  5
10B
100
AcDbEntity
100
AcDbCircle
  8
body
 62
256
370
-1
  6
ByLayer
 10
-1.9937500000000001
 20
5.9812500000000002
 30
0.0
 40
0.07975
  0
LINE
  5
10C
100
AcDbEntity
100
AcDbLine
  8
body
 62
7
370
-1
  6
ByLayer
 10
1.9538750000000009
 20
8.3737500000000011
 30
0.0
 11
2.0336250000000007
 21
8.3737500000000011
 31
0.0
  0
LINE
  5
10D
100
AcDbEntity
100
AcDbLine
  8
body
 62
7
370
-1
  6
ByLayer
 10
1.9937500000000008
 20
8.3338750000000008
 30
0.0
 11
1.9937500000000008
 21
8.4136250000000015
 31
0.0
  0
LINE
  5
10E
100
AcDbEntity
100
AcDbLine
  8
body
 62
7
370
-1
  6
ByLayer
 10
1.9538750000000007
 20
5.9812500000000011
 30
0.0
 11
2.0336250000000007
 21
5.9812500000000011
 31
0.0
  0
LINE
  5
10F
100
AcDbEntity
100
AcDbLine
  8
body
 62
7
370
-1
  6
ByLayer
 10
1.9937500000000006
 20
5.9413750000000016
 30
0.0
 11
1.9937500000000006
 21
6.0211250000000014
 31
0.0
  0
LINE
  5
110
100
AcDbEntity
100
AcDbLine
  8
body
 62
7
370
-1
  6
ByLayer
 10
-2.0336249999999993
 20
5.9812500000000011
 30
0.0
 11
-1.9538749999999994
 21
5.9812500000000011
 31
0.0
  0
LINE
  5
111
100
AcDbEntity
100
AcDbLine
  8
body
 62
7
370
-1
  6
ByLayer
 10
-1.9937499999999995
 20
5.9413750000000016
 30
0.0
 11
-1.9937499999999995
 21
6.0211250000000014
 31
0.0
  0
LINE
  5
112
100
AcDbEntity
100
AcDbLine
  8
body
 62
7
370
-1
  6
ByLayer
 10
-2.0336249999999993
 20
8.3737500000000011
 30
0.0
 11
-1.9538749999999991
 21
8.3737500000000011
 31
0.0
  0
LINE
  5
113
100
AcDbEntity
100
AcDbLine
  8
body
 62
7
370
-1
  6
ByLayer
 10
-1.9937499999999992
 20
8.3338750000000008
 30
0.0
 11
-1.9937499999999992
 21
8.4136250000000015
 31
0.0
  0
LINE
  5
114
100
AcDbEntity
100
AcDbLine
  8
body
 62
256
370
-1
  6
ByLayer
 10
2.0735000000000001
 20
0.23925
 30
0.0
 11
2.0735000000000001
 21
0.0
 31
0.0
  0
LINE
  5
115
100
AcDbEntity
100
AcDbLine
  8
body
 62
256
370
-1
  6
ByLayer
 10
1.9140000000000004
 20
0.23925
 30
0.0
 11
1.9140000000000004
 21
0.0
 31
0.0
  0
LINE
  5
116
100
AcDbEntity
100
AcDbLine
  8
body
 62
256
370
-1
  6
ByLayer
 10
-1.9139999999999997
 20
0.23925
 30
0.0
 11
-1.9139999999999997
 21
0.0
 31
0.0
  0
LINE
  5
117
100
AcDbEntity
100
AcDbLine
  8
body
 62
256
370
-1
  6
ByLayer
 10
-2.0734999999999997
 20
0.23925
 30
0.0
 11
-2.0734999999999997
 21
0.0
 31
0.0
  0
CIRCLE
  5
118
100
AcDbEntity
100
AcDbCircle
  8
body
 62
256
370
-1
  6
ByLayer
 10
0.0000000000000001
 20
8.0547500000000003
 30
0.0
 40
0.638
  0
CIRCLE
  5
119
100
AcDbEntity
100
AcDbCircle
  8
body
 62
256
370
-1
  6
ByLayer
 10
0.0000000000000001
 20
6.3002500000000001
 30
0.0
 40
0.638
  0
LINE
  5
11A
100
AcDbEntity
100
AcDbLine
  8
body
 62
7
370
-1
  6
ByLayer
 10
-0.0398749999999999
 20
8.0547500000000003
 30
0.0
 11
0.0398750000000001
 21
8.0547500000000003
 31
0.0
  0
LINE
  5
11B
100
AcDbEntity
100
AcDbLine
  8
body
 62
7
370
-1
  6
ByLayer
 10
0.0000000000000001
 20
8.014875
 30
0.0
 11
0.0000000000000001
 21
8.0946250000000006
 31
0.0
  0
LINE
  5
11C
100
AcDbEntity
100
AcDbLine
  8
body
 62
7
370
-1
  6
ByLayer
 10
-0.0398749999999999
 20
6.3002500000000001
 30
0.0
 11
0.0398750000000001
 21
6.3002500000000001
 31
0.0
  0
LINE
  5
11D
100
AcDbEntity
100
AcDbLine
  8
body
 62
7
370
-1
  6
ByLayer
 10
0.0000000000000001
 20
6.2603749999999998
 30
0.0
 11
0.0000000000000001
 21
6.3401250000000005
 31
0.0
  0
LINE
  5
11E
100
AcDbEntity
100
AcDbLine
  8
body
 62
256
370
-1
  6
DASHED
 10
0.0
 20
4.9444999999999997
 30
0.0
 11
0.0000000000000003
 21
9.6497500000000009
 31
0.0
  0
LINE
  5
11F
100
AcDbEntity
100
AcDbLine
  8
body
 62
256
370
-1
  6
DASHED
 10
-2.3127499999999994
 20
7.1775000000000002
 30
0.0
 11
2.3127500000000007
 21
7.1775000000000002
 31
0.0
  0
LINE
  5
120
100
AcDbEntity
100
AcDbLine
  8
body
 62
256
370
-1
  6
ByLayer
 10
1.7544999999999997
 20
0.438625
 30
0.0
 11
1.7544999999999999
 21
0.438625
 31
0.0
  0
ARC
  5
121
100
AcDbEntity
  8
body
 62
256
370
-1
  6
ByLayer
100
AcDbCircle
 10
1.4355000000000009
 20
1.3836107879385726
 30
0.0
 40
0.638
100
AcDbArc
 50
318.5903770857021868
 51
87.9646455963507492
  0
ARC
  5
122
100
AcDbEntity
  8
body
 62
256
370
-1
  6
ByLayer
100
AcDbCircle
 10
-0.7974999999999998
 20
8.8522499999999997
 30
0.0
 40
0.1595
100
AcDbArc
 50
90.0
 51
180.0
  0
LINE
  5
123
100
AcDbEntity
100
AcDbLine
  8
body
 62
256
370
-1
  6
ByLayer
 10
-0.7974999999999998
 20
9.011750000000001
 30
0.0
 11
0.7975000000000003
 21
9.011750000000001
 31
0.0
  0
ARC
  5
124
100
AcDbEntity
  8
body
 62
256
370
-1
  6
ByLayer
100
AcDbCircle
 10
0.7975000000000003
 20
8.8522499999999997
 30
0.0
 40
0.1595
100
AcDbArc
 50
0.0
 51
90.0
  0
LINE
  5
125
100
AcDbEntity
100
AcDbLine
  8
body
 62
256
370
-1
  6
ByLayer
 10
0.9570000000000001
 20
5.5027499999999998
 30
0.0
 11
0.9570000000000003
 21
8.8522499999999997
 31
0.0
  0
ARC
  5
126
100
AcDbEntity
  8
body
 62
256
370
-1
  6
ByLayer
100
AcDbCircle
 10
0.7975
 20
5.5027499999999998
 30
0.0
 40
0.1595
100
AcDbArc
 50
270.0
 51
0.0
  0
LINE
  5
127
100
AcDbEntity
100
AcDbLine
  8
body
 62
256
370
-1
  6
ByLayer
 10
-0.7975
 20
5.3432500000000003
 30
0.0
 11
0.7975
 21
5.3432500000000003
 31
0.0
  0
LINE
  5
128
100
AcDbEntity
100
AcDbLine
  8
body
 62
256
370
-1
  6
ByLayer
 10
-0.9570000000000001
 20
5.5027499999999998
 30
0.0
 11
-0.9569999999999997
 21
8.8522499999999997
 31
0.0
  0
ARC
  5
129
100
AcDbEntity
  8
body
 62
256
370
-1
  6
ByLayer
100
AcDbCircle
 10
-0.7975
 20
5.5027499999999998
 30
0.0
 40
0.1595
100
AcDbArc
 50
180.0
 51
270.0
  0
LINE
  5
12A
100
AcDbEntity
100
AcDbLine
  8
body
 62
256
370
-1
  6
DASHED
 10
-1.6747499999999997
 20
9.011750000000001
 30
0.0
 11
1.6747500000000004
 21
9.011750000000001
 31
0.0
  0
LINE
  5
12B
100
AcDbEntity
100
AcDbLine
  8
body
 62
256
370
-1
  6
DASHED
 10
-1.67475
 20
5.3432500000000003
 30
0.0
 11
1.67475
 21
5.3432500000000003
 31
0.0
  0
CIRCLE
  5
12C
100
AcDbEntity
100
AcDbCircle
  8
sump
 62
2
370
-1
  6
ByLayer
 10
3.0624000000000007
 20
5.3432500000000012
 30
0.0
 40
0.1595
  0
CIRCLE
  5
12D
100
AcDbEntity
100
AcDbCircle
  8
sump
 62
2
370
-1
  6
ByLayer
 10
3.0624000000000007
 20
6.5395000000000012
 30
0.0
 40
0.1595
  0
CIRCLE
  5
12E
100
AcDbEntity
100
AcDbCircle
  8
sump
 62
2
370
-1
  6
ByLayer
 10
3.0624000000000007
 20
7.8155000000000001
 30
0.0
 40
0.1595
  0
CIRCLE
  5
12F
100
AcDbEntity
100
AcDbCircle
  8
sump
 62
2
370
-1
  6
ByLayer
 10
3.0624000000000007
 20
9.011750000000001
 30
0.0
 40
0.1595
  0
CIRCLE
  5
130
100
AcDbEntity
100
AcDbCircle
  8
sump
 62
2
370
-1
  6
ByLayer
 10
6.0929000000000029
 20
9.0117499999999975
 30
0.0
 40
0.1595
  0
CIRCLE
  5
131
100
AcDbEntity
100
AcDbCircle
  8
sump
 62
2
370
-1
  6
ByLayer
 10
6.0929000000000002
 20
7.8155000000000001
 30
0.0
 40
0.1595
  0
CIRCLE
  5
132
100
AcDbEntity
100
AcDbCircle
  8
sump
 62
2
370
-1
  6
ByLayer
 10
6.0929000000000002
 20
6.5395000000000003
 30
0.0
 40
0.1595
  0
CIRCLE
  5
133
100
AcDbEntity
100
AcDbCircle
  8
sump
 62
2
370
-1
  6
ByLayer
 10
6.0929000000000002
 20
5.3432500000000003
 30
0.0
 40
0.1595
  0
LINE
  5
134
100
AcDbEntity
100
AcDbLine
  8
sump
 62
2
370
-1
  6
ByLayer
 10
3.2219000000000007
 20
9.011750000000001
 30
0.0
 11
5.9334000000000007
 21
9.011750000000001
 31
0.0
  0
CIRCLE
  5
135
100
AcDbEntity
100
AcDbCircle
  8
sump
 62
2
370
-1
  6
ByLayer
 10
4.577650000000002
 20
8.6129999999999995
 30
0.0
 40
0.319
  0
LINE
  5
136
100
AcDbEntity
100
AcDbLine
  8
sump
 62
2
370
-1
  6
ByLayer
 10
3.7004000000000006
 20
9.4902499999999996
 30
0.0
 11
3.7004000000000015
 21
9.1712500000000006
 31
0.0
  0
LINE
  5
137
100
AcDbEntity
100
AcDbLine
  8
sump
 62
2
370
-1
  6
ByLayer
 10
5.4549000000000021
 20
9.4902499999999996
 30
0.0
 11
5.454900000000003
 21
9.1712500000000006
 31
0.0
  0
LINE
  5
138
100
AcDbEntity
100
AcDbLine
  8
sump
 62
2
370
-1
  6
ByLayer
 10
5.9334000000000007
 20
9.1712500000000006
 30
0.0
 11
5.9334000000000007
 21
5.1039999999999974
 31
0.0
  0
LINE
  5
139
100
AcDbEntity
100
AcDbLine
  8
sump
 62
2
370
-1
  6
ByLayer
 10
3.2219000000000007
 20
9.1712500000000006
 30
0.0
 11
3.2219000000000007
 21
5.104000000000001
 31
0.0
  0
LINE
  5
13A
100
AcDbEntity
100
AcDbLine
  8
sump
 62
2
370
-1
  6
ByLayer
 10
3.7004000000000006
 20
9.4902499999999996
 30
0.0
 11
5.4549000000000021
 21
9.4902499999999996
 31
0.0
  0
LINE
  5
13B
100
AcDbEntity
100
AcDbLine
  8
sump
 62
2
370
-1
  6
ByLayer
 10
3.0624000000000007
 20
9.1712500000000006
 30
0.0
 11
3.0624000000000007
 21
5.104000000000001
 31
0.0
  0
LINE
  5
13C
100
AcDbEntity
100
AcDbLine
  8
sump
 62
2
370
-1
  6
ByLayer
 10
6.0929000000000002
 20
9.1712500000000006
 30
0.0
 11
6.0929000000000002
 21
5.1040000000000001
 31
0.0
  0
LINE
  5
13D
100
AcDbEntity
100
AcDbLine
  8
sump
 62
2
370
-1
  6
ByLayer
 10
3.0624000000000007
 20
5.104000000000001
 30
0.0
 11
6.0929000000000002
 21
5.1040000000000001
 31
0.0
  0
LINE
  5
13E
100
AcDbEntity
100
AcDbLine
  8
sump
 62
2
370
-1
  6
ByLayer
 10
6.2524000000000006
 20
5.3432500000000003
 30
0.0
 11
6.2524000000000024
 21
9.0117499999999975
 31
0.0
  0
LINE
  5
13F
100
AcDbEntity
100
AcDbLine
  8
sump
 62
2
370
-1
  6
ByLayer
 10
2.9029000000000007
 20
5.3432500000000012
 30
0.0
 11
2.9029000000000007
 21
9.011750000000001
 31
0.0
  0
LINE
  5
140
100
AcDbEntity
100
AcDbLine
  8
sump
 62
2
370
-1
  6
ByLayer
 10
3.0624000000000007
 20
9.1712500000000006
 30
0.0
 11
6.0929000000000002
 21
9.1712500000000006
 31
0.0
  0
LINE
  5
141
100
AcDbEntity
100
AcDbLine
  8
sump
 62
2
370
-1
  6
ByLayer
 10
5.2156500000000001
 20
5.9812500000000002
 30
0.0
 11
5.2156500000000001
 21
5.3432500000000012
 31
0.0
  0
LINE
  5
142
100
AcDbEntity
100
AcDbLine
  8
sump
 62
2
370
-1
  6
ByLayer
 10
5.7739000000000003
 20
5.9812500000000002
 30
0.0
 11
5.7739000000000003
 21
5.3432500000000003
 31
0.0
  0
LINE
  5
143
100
AcDbEntity
100
AcDbLine
  8
sump
 62
2
370
-1
  6
ByLayer
 10
5.2156500000000001
 20
5.3432500000000012
 30
0.0
 11
5.7739000000000003
 21
5.3432500000000003
 31
0.0
  0
LINE
  5
144
100
AcDbEntity
100
AcDbLine
  8
sump
 62
2
370
-1
  6
ByLayer
 10
5.2156500000000001
 20
5.9812500000000002
 30
0.0
 11
5.7739000000000003
 21
5.9812500000000002
 31
0.0
  0
LINE
  5
145
100
AcDbEntity
100
AcDbLine
  8
body
 62
256
370
-1
  6
ByLayer
 10
1.8466092797112565
 20
0.8385492433849236
 30
0.0
 11
1.6747499999999997
 21
0.23925
 31
0.0
  0
ARC
  5
146
100
AcDbEntity
  8
body
 62
256
370
-1
  6
ByLayer
100
AcDbCircle
 10
2.1532499999999999
 20
0.7506147867663685
 30
0.0
 40
0.319
100
AcDbArc
 50
138.5903778907290871
 51
163.9988527239748066
  0
LINE
  5
147
100
AcDbEntity
100
AcDbLine
  8
body
 62
256
370
-1
  6
ByLayer
 10
-2.0571955078793192
 20
1.9168345540510057
 30
0.0
 11
-1.6747500000000004
 21
0.23925
 31
0.0
  0
LINE
  5
148
100
AcDbEntity
100
AcDbLine
  8
body
 62
256
370
-1
  6
ByLayer
 10
-0.8772500000000003
 20
2.2330000000000005
 30
0.0
 11
-2.0571955078793192
 21
1.9168345540510057
 31
0.0
  0
CIRCLE
  5
149
100
AcDbEntity
100
AcDbCircle
  8
camplate
 62
256
370
-1
  6
ByLayer
 10
1.1165000000000014
 20
1.9361349955530442
 30
0.0
 40
0.07975
  0
CIRCLE
  5
14A
100
AcDbEntity
100
AcDbCircle
  8
camplate
 62
256
370
-1
  6
ByLayer
 10
1.7545000000000006
 20
0.8310865803241003
 30
0.0
 40
0.07975
  0
LINE
  5
14B
100
AcDbEntity
100
AcDbLine
  8
camplate
 62
256
370
-1
  6
ByLayer
 10
1.2034771517477687
 20
2.1590150924074871
 30
0.0
 11
1.667439071327381
 21
1.9779577128837533
 31
0.0
  0
LINE
  5
14C
100
AcDbEntity
100
AcDbLine
  8
camplate
 62
256
370
-1
  6
ByLayer
 10
2.0661890713273805
 20
1.2873024533656636
 30
0.0
 11
1.9910084017477683
 21
0.7949709548592601
 31
0.0
  0
LINE
  5
14D
100
AcDbEntity
100
AcDbLine
  8
camplate
 62
256
370
-1
  6
ByLayer
 10
1.6675228482522335
 20
0.608206483469658
 30
0.0
 11
1.2035609286726214
 21
0.7892638629933915
 31
0.0
  0
LINE
  5
14E
100
AcDbEntity
100
AcDbLine
  8
camplate
 62
256
370
-1
  6
ByLayer
 10
0.8048109286726213
 20
1.4799191225114818
 30
0.0
 11
0.8799915982522339
 21
1.9722506210178852
 31
0.0
  0
LINE
  5
14F
100
AcDbEntity
100
AcDbLine
  8
camplate
 62
7
370
-1
  6
ByLayer
 10
1.3956250000000008
 20
1.3836107879385726
 30
0.0
 11
1.4753750000000008
 21
1.3836107879385726
 31
0.0
  0
LINE
  5
150
100
AcDbEntity
100
AcDbLine
  8
camplate
 62
7
370
-1
  6
ByLayer
 10
1.4355000000000009
 20
1.3437357879385725
 30
0.0
 11
1.4355000000000009
 21
1.4234857879385725
 31
0.0
  0
ARC
  5
151
100
AcDbEntity
  8
camplate
 62
256
370
-1
  6
ByLayer
100
AcDbCircle
 10
1.1165000000000014
 20
1.9361349955530442
 30
0.0
 40
0.23925
100
AcDbArc
 50
68.6821874534894334
 51
171.3178125465104529
  0
ARC
  5
152
100
AcDbEntity
  8
camplate
 62
256
370
-1
  6
ByLayer
100
AcDbCircle
 10
1.7545000000000008
 20
0.8310865803241009
 30
0.0
 40
0.23925
100
AcDbArc
 50
248.682187453489405
 51
351.317812546510595
  0
ARC
  5
153
100
AcDbEntity
  8
camplate
 62
256
370
-1
  6
ByLayer
100
AcDbCircle
 10
1.4355000000000009
 20
1.3836107879385726
 30
0.0
 40
0.638
100
AcDbArc
 50
351.317812546510595
 51
68.6821874534894619
  0
ARC
  5
154
100
AcDbEntity
  8
camplate
 62
256
370
-1
  6
ByLayer
100
AcDbCircle
 10
1.4355000000000009
 20
1.3836107879385726
 30
0.0
 40
0.638
100
AcDbArc
 50
171.3178125465105097
 51
248.6821874534894619
  0
LINE
  5
155
100
AcDbEntity
100
AcDbLine
  8
body
 62
256
370
-1
  6
ByLayer
 10
-1.1962499999999998
 20
2.2330000000000001
 30
0.0
 11
-1.1962499999999998
 21
3.0305
 31
0.0
  0
LINE
  5
156
100
AcDbEntity
100
AcDbLine
  8
body
 62
256
370
-1
  6
ByLayer
 10
-1.1164999999999998
 20
3.0305
 30
0.0
 11
-1.1962499999999998
 21
3.0305
 31
0.0
  0
LINE
  5
157
100
AcDbEntity
100
AcDbLine
  8
body
 62
256
370
-1
  6
ByLayer
 10
-1.1165
 20
2.6317500000000003
 30
0.0
 11
-1.1962499999999998
 21
2.6317500000000003
 31
0.0
  0
LINE
  5
158
100
AcDbEntity
100
AcDbLine
  8
body
 62
256
370
-1
  6
ByLayer
 10
-0.8772500000000013
 20
2.2330000000000001
 30
0.0
 11
-1.1962499999999998
 21
2.2330000000000001
 31
0.0
  0
CIRCLE
  5
159
100
AcDbEntity
100
AcDbCircle
  8
body
 62
256
370
-1
  6
ByLayer
 10
-2.7115
 20
2.6317500000000003
 30
0.0
 40
0.07975
  0
CIRCLE
  5
15A
100
AcDbEntity
100
AcDbCircle
  8
body
 62
256
370
-1
  6
ByLayer
 10
-3.6684999999999999
 20
2.6317500000000003
 30
0.0
 40
0.07975
  0
LINE
  5
15B
100
AcDbEntity
100
AcDbLine
  8
body
 62
256
370
-1
  6
ByLayer
 10
-3.788125
 20
2.838946577855427
 30
0.0
 11
-3.4292500000000001
 21
3.0461431557108538
 31
0.0
  0
LINE
  5
15C
100
AcDbEntity
100
AcDbLine
  8
body
 62
256
370
-1
  6
ByLayer
 10
-2.9507500000000002
 20
3.0461431557108538
 30
0.0
 11
-2.5918749999999999
 21
2.838946577855427
 31
0.0
  0
LINE
  5
15D
100
AcDbEntity
100
AcDbLine
  8
body
 62
256
370
-1
  6
ByLayer
 10
-2.5918749999999999
 20
2.424553422144573
 30
0.0
 11
-2.9507500000000002
 21
2.2173568442891463
 31
0.0
  0
LINE
  5
15E
100
AcDbEntity
100
AcDbLine
  8
body
 62
256
370
-1
  6
ByLayer
 10
-3.4292500000000001
 20
2.2173568442891463
 30
0.0
 11
-3.788125
 21
2.424553422144573
 31
0.0
  0
ARC
  5
15F
100
AcDbEntity
  8
body
 62
256
370
-1
  6
ByLayer
100
AcDbCircle
 10
-3.1899999999999999
 20
2.6317500000000003
 30
0.0
 40
0.4785
100
AcDbArc
 50
60.0000000000000071
 51
119.9999999999999858
  0
ARC
  5
160
100
AcDbEntity
  8
body
 62
256
370
-1
  6
ByLayer
100
AcDbCircle
 10
-3.1899999999999999
 20
2.6317500000000003
 30
0.0
 40
0.4785
100
AcDbArc
 50
240.0000000000000284
 51
299.9999999999999432
  0
ARC
  5
161
100
AcDbEntity
  8
body
 62
256
370
-1
  6
ByLayer
100
AcDbCircle
 10
-3.6684999999999999
 20
2.6317500000000003
 30
0.0
 40
0.23925
100
AcDbArc
 50
119.9999999999999858
 51
240.0000000000000284
  0
ARC
  5
162
100
AcDbEntity
  8
body
 62
256
370
-1
  6
ByLayer
100
AcDbCircle
 10
-2.7115
 20
2.6317500000000003
 30
0.0
 40
0.23925
100
AcDbArc
 50
299.9999999999999432
 51
60.0000000000000071
  0
LINE
  5
163
100
AcDbEntity
100
AcDbLine
  8
body
 62
7
370
-1
  6
ByLayer
 10
-3.7083750000000002
 20
2.6317500000000003
 30
0.0
 11
-3.628625
 21
2.6317500000000003
 31
0.0
  0
LINE
  5
164
100
AcDbEntity
100
AcDbLine
  8
body
 62
7
370
-1
  6
ByLayer
 10
-3.6684999999999999
 20
2.5918749999999999
 30
0.0
 11
-3.6684999999999999
 21
2.6716250000000001
 31
0.0
  0
LINE
  5
165
100
AcDbEntity
100
AcDbLine
  8
body
 62
7
370
-1
  6
ByLayer
 10
-2.7513749999999999
 20
2.6317500000000003
 30
0.0
 11
-2.6716250000000001
 21
2.6317500000000003
 31
0.0
  0
LINE
  5
166
100
AcDbEntity
100
AcDbLine
  8
body
 62
7
370
-1
  6
ByLayer
 10
-2.7115
 20
2.5918749999999999
 30
0.0
 11
-2.7115
 21
2.6716250000000001
 31
0.0
  0
CIRCLE
  5
167
100
AcDbEntity
100
AcDbCircle
  8
body
 62
256
370
-1
  6
ByLayer
 10
-3.1899999999999999
 20
2.6317500000000003
 30
0.0
 40
0.23925
  0
LINE
  5
168
100
AcDbEntity
100
AcDbLine
  8
body
 62
7
370
-1
  6
ByLayer
 10
-3.2298750000000003
 20
2.6317500000000003
 30
0.0
 11
-3.1501250000000001
 21
2.6317500000000003
 31
0.0
  0
LINE
  5
169
100
AcDbEntity
100
AcDbLine
  8
body
 62
7
370
-1
  6
ByLayer
 10
-3.1899999999999999
 20
2.5918749999999999
 30
0.0
 11
-3.1899999999999999
 21
2.6716250000000001
 31
0.0
  0
LINE
  5
16A
100
AcDbEntity
100
AcDbLine
  8
body
 62
256
370
-1
  6
ByLayer
 10
-4.9285500000000013
 20
1.9140000000000001
 30
0.0
 11
-4.9285500000000013
 21
3.1899999999999999
 31
0.0
  0
LINE
  5
16B
100
AcDbEntity
100
AcDbLine
  8
body
 62
256
370
-1
  6
ByLayer
 10
-6.0450500000000007
 20
1.9140000000000001
 30
0.0
 11
-6.0450500000000007
 21
3.1899999999999999
 31
0.0
  0
LINE
  5
16C
100
AcDbEntity
100
AcDbLine
  8
body
 62
7
370
-1
  6
ByLayer
 10
-5.5266750000000009
 20
1.9140000000000001
 30
0.0
 11
-5.4469250000000011
 21
1.9140000000000001
 31
0.0
  0
LINE
  5
16D
100
AcDbEntity
100
AcDbLine
  8
body
 62
7
370
-1
  6
ByLayer
 10
-5.4868000000000006
 20
1.874125
 30
0.0
 11
-5.4868000000000006
 21
1.953875
 31
0.0
  0
ARC
  5
16E
100
AcDbEntity
  8
body
 62
256
370
-1
  6
ByLayer
100
AcDbCircle
 10
-5.4868000000000006
 20
1.9140000000000001
 30
0.0
 40
0.55825
100
AcDbArc
 50
180.0
 51
0.0
  0
LINE
  5
16F
100
AcDbEntity
100
AcDbLine
  8
body
 62
256
370
-1
  6
ByLayer
 10
1.0925536809435215
 20
2.4203607879385731
 30
0.0
 11
1.7545000000000004
 21
2.4203607879385731
 31
0.0
  0
LINE
  5
170
100
AcDbEntity
100
AcDbLine
  8
body
 62
256
370
-1
  6
ByLayer
 10
1.7545000000000004
 20
1.9361349955530449
 30
0.0
 11
1.7545000000000004
 21
2.4203607879385731
 31
0.0
  0
CIRCLE
  5
171
100
AcDbEntity
100
AcDbCircle
  8
body
 62
256
370
-1
  6
ByLayer
 10
3.8280000000000012
 20
8.3737499999999994
 30
0.0
 40
0.23925
  0
CIRCLE
  5
172
100
AcDbEntity
100
AcDbCircle
  8
body
 62
256
370
-1
  6
ByLayer
 10
3.8280000000000012
 20
7.7357499999999986
 30
0.0
 40
0.23925
  0
CIRCLE
  5
173
100
AcDbEntity
100
AcDbCircle
  8
body
 62
256
370
-1
  6
ByLayer
 10
3.8280000000000012
 20
8.3737499999999994
 30
0.0
 40
0.199375
  0
CIRCLE
  5
174
100
AcDbEntity
100
AcDbCircle
  8
body
 62
256
370
-1
  6
ByLayer
 10
3.8280000000000012
 20
7.7357499999999986
 30
0.0
 40
0.199375
  0
ARC
  5
175
100
AcDbEntity
  8
body
 62
256
370
-1
  6
ByLayer
100
AcDbCircle
 10
3.6445536809435222
 20
8.8522499999999997
 30
0.0
 40
0.1595
100
AcDbArc
 50
180.0
 51
270.0000000000001137
  0
ARC
  5
176
100
AcDbEntity
  8
body
 62
256
370
-1
  6
ByLayer
100
AcDbCircle
 10
3.6445536809435222
 20
7.2572499999999991
 30
0.0
 40
0.1595
100
AcDbArc
 50
89.9999999999999432
 51
180.0
  0
ARC
  5
177
100
AcDbEntity
  8
body
 62
256
370
-1
  6
ByLayer
100
AcDbCircle
 10
3.8280000000000012
 20
8.3737499999999994
 30
0.0
 40
0.319
100
AcDbArc
 50
0.0
 51
90.0
  0
ARC
  5
178
100
AcDbEntity
  8
body
 62
256
370
-1
  6
ByLayer
100
AcDbCircle
 10
3.8280000000000012
 20
7.7357499999999986
 30
0.0
 40
0.319
100
AcDbArc
 50
270.0
 51
0.0
  0
LINE
  5
179
100
AcDbEntity
100
AcDbLine
  8
body
 62
256
370
-1
  6
ByLayer
 10
3.6445536809435226
 20
8.6927499999999984
 30
0.0
 11
3.8280000000000012
 21
8.6927499999999984
 31
0.0
  0
LINE
  5
17A
100
AcDbEntity
100
AcDbLine
  8
body
 62
256
370
-1
  6
ByLayer
 10
4.1470000000000011
 20
8.3737499999999994
 30
0.0
 11
4.1470000000000011
 21
7.7357499999999986
 31
0.0
  0
LINE
  5
17B
100
AcDbEntity
100
AcDbLine
  8
body
 62
256
370
-1
  6
ByLayer
 10
3.6445536809435226
 20
7.4167499999999986
 30
0.0
 11
3.8280000000000012
 21
7.4167499999999986
 31
0.0
  0
CIRCLE
  5
17C
100
AcDbEntity
100
AcDbCircle
  8
body
 62
256
370
-1
  6
ByLayer
 10
3.8280000000000007
 20
6.6192499999999992
 30
0.0
 40
0.23925
  0
CIRCLE
  5
17D
100
AcDbEntity
100
AcDbCircle
  8
body
 62
256
370
-1
  6
ByLayer
 10
3.8280000000000007
 20
5.9812499999999993
 30
0.0
 40
0.23925
  0
CIRCLE
  5
17E
100
AcDbEntity
100
AcDbCircle
  8
body
 62
256
370
-1
  6
ByLayer
 10
3.8280000000000007
 20
6.6192499999999992
 30
0.0
 40
0.199375
  0
CIRCLE
  5
17F
100
AcDbEntity
100
AcDbCircle
  8
body
 62
256
370
-1
  6
ByLayer
 10
3.8280000000000007
 20
5.9812499999999993
 30
0.0
 40
0.199375
  0
ARC
  5
180
100
AcDbEntity
  8
body
 62
256
370
-1
  6
ByLayer
100
AcDbCircle
 10
3.6445536809435222
 20
7.0977499999999987
 30
0.0
 40
0.1595
100
AcDbArc
 50
180.0
 51
270.0000000000001137
  0
ARC
  5
181
100
AcDbEntity
  8
body
 62
256
370
-1
  6
ByLayer
100
AcDbCircle
 10
3.6445536809435222
 20
5.5027499999999989
 30
0.0
 40
0.1595
100
AcDbArc
 50
89.9999999999999432
 51
180.0
  0
ARC
  5
182
100
AcDbEntity
  8
body
 62
256
370
-1
  6
ByLayer
100
AcDbCircle
 10
3.8280000000000007
 20
6.6192499999999992
 30
0.0
 40
0.319
100
AcDbArc
 50
0.0
 51
90.0
  0
ARC
  5
183
100
AcDbEntity
  8
body
 62
256
370
-1
  6
ByLayer
100
AcDbCircle
 10
3.8280000000000007
 20
5.9812499999999993
 30
0.0
 40
0.319
100
AcDbArc
 50
270.0
 51
0.0
  0
LINE
  5
184
100
AcDbEntity
100
AcDbLine
  8
body
 62
256
370
-1
  6
ByLayer
 10
3.6445536809435222
 20
6.9382499999999991
 30
0.0
 11
3.8280000000000007
 21
6.9382499999999991
 31
0.0
  0
LINE
  5
185
100
AcDbEntity
100
AcDbLine
  8
body
 62
256
370
-1
  6
ByLayer
 10
4.1470000000000002
 20
6.6192499999999992
 30
0.0
 11
4.1470000000000002
 21
5.9812499999999993
 31
0.0
  0
LINE
  5
186
100
AcDbEntity
100
AcDbLine
  8
body
 62
256
370
-1
  6
ByLayer
 10
3.6445536809435222
 20
5.6622499999999993
 30
0.0
 11
3.8280000000000007
 21
5.6622499999999993
 31
0.0
  0
LINE
  5
187
100
AcDbEntity
100
AcDbLine
  8
body
 62
256
370
-1
  6
ByLayer
 10
3.4850536809435222
 20
8.8522499999999997
 30
0.0
 11
3.4850536809435222
 21
5.5027499999999989
 31
0.0
  0
LINE
  5
188
100
AcDbEntity
100
AcDbLine
  8
body
 62
7
370
-1
  6
ByLayer
 10
3.7881250000000013
 20
8.0547500000000003
 30
0.0
 11
3.8678750000000011
 21
8.0547500000000003
 31
0.0
  0
LINE
  5
189
100
AcDbEntity
100
AcDbLine
  8
body
 62
7
370
-1
  6
ByLayer
 10
3.8280000000000012
 20
8.014875
 30
0.0
 11
3.8280000000000012
 21
8.0946250000000006
 31
0.0
  0
LINE
  5
18A
100
AcDbEntity
100
AcDbLine
  8
body
 62
7
370
-1
  6
ByLayer
 10
3.7881250000000013
 20
6.3002500000000001
 30
0.0
 11
3.8678750000000011
 21
6.3002500000000001
 31
0.0
  0
LINE
  5
18B
100
AcDbEntity
100
AcDbLine
  8
body
 62
7
370
-1
  6
ByLayer
 10
3.8280000000000012
 20
6.2603749999999998
 30
0.0
 11
3.8280000000000012
 21
6.3401250000000005
 31
0.0
  0
ARC
  5
18C
100
AcDbEntity
  8
body
 62
256
370
-1
  6
ByLayer
100
AcDbCircle
 10
0.0
 20
0.0
 30
0.0
 40
0.87725
100
AcDbArc
 50
0.0
 51
180.0
  0
ENDSEC
  0
SECTION
  2
OBJECTS
  0
DICTIONARY
  5
C
100
AcDbDictionary
280
0
281
1
  3
ACAD_GROUP
350
D
  3
ACAD_LAYOUT
350
1A
  3
ACAD_MLINESTYLE
350
17
  3
ACAD_PLOTSETTINGS
350
19
  3
ACAD_PLOTSTYLENAME
350
E
  3
AcDbVariableDictionary
350
18D
  0
DICTIONARY
  5
D
100
AcDbDictionary
280
0
281
1
  0
ACDBDICTIONARYWDFLT
  5
E
100
AcDbDictionary
281
1
  3
Normal
350
F
100
AcDbDictionaryWithDefault
340
F
  0
ACDBPLACEHOLDER
  5
F
  0
DICTIONARY
  5
17
100
AcDbDictionary
280
0
281
1
  3
Standard
350
18
  0
MLINESTYLE
  5
18
100
AcDbMlineStyle
  2
STANDARD
 70
0
  3

 62
256
 51
90.0
 52
90.0
 71
2
 49
0.5
 62
256
  6
BYLAYER
 49
-0.5
 62
256
  6
BYLAYER
  0
DICTIONARY
  5
19
100
AcDbDictionary
280
0
281
1
  0
DICTIONARY
  5
1A
100
AcDbDictionary
281
1
  3
Layout1
350
1E
  3
Layout2
350
26
  3
Model
350
22
  0
LAYOUT
  5
1E
100
AcDbPlotSettings
  1

  2
C:\Program Files\AutoCAD 2002\plotters\DWF ePlot (optimized for plotting).pc3
  4

  6

 40
0.0
 41
0.0
 42
0.0
 43
0.0
 44
0.0
 45
0.0
 46
0.0
 47
0.0
 48
0.0
 49
0.0
140
0.0
141
0.0
142
1.0
143
1.0
 70
688
 72
0
 73
0
 74
5
  7

 75
16
147
1.0
148
0.0
149
0.0
100
AcDbLayout
  1
Layout1
 70
1
 71
1
 10
0.0
 20
0.0
 11
420.0
 21
297.0
 12
0.0
 22
0.0
 32
0.0
 14
100000000000000000000.0
 24
100000000000000000000.0
 34
100000000000000000000.0
 15
-100000000000000000000.0
 25
-100000000000000000000.0
 35
-100000000000000000000.0
146
0.0
 13
0.0
 23
0.0
 33
0.0
 16
1.0
 26
0.0
 36
0.0
 17
0.0
 27
1.0
 37
0.0
 76
0
330
1B
  0
LAYOUT
  5
22
100
AcDbPlotSettings
  1

  2
C:\Program Files\AutoCAD 2002\plotters\DWF ePlot (optimized for plotting).pc3
  4

  6

 40
0.0
 41
0.0
 42
0.0
 43
0.0
 44
0.0
 45
0.0
 46
0.0
 47
0.0
 48
0.0
 49
0.0
140
0.0
141
0.0
142
1.0
143
1.0
 70
1712
 72
0
 73
0
 74
0
  7

 75
0
147
1.0
148
0.0
149
0.0
100
AcDbLayout
  1
Model
 70
1
 71
0
 10
0.0
 20
0.0
 11
12.0
 21
9.0
 12
0.0
 22
0.0
 32
0.0
 14
0.0
 24
0.0
 34
0.0
 15
0.0
 25
0.0
 35
0.0
146
0.0
 13
0.0
 23
0.0
 33
0.0
 16
1.0
 26
0.0
 36
0.0
 17
0.0
 27
1.0
 37
0.0
 76
0
330
1F
  0
LAYOUT
  5
26
100
AcDbPlotSettings
  1

  2
C:\Program Files\AutoCAD 2002\plotters\DWF ePlot (optimized for plotting).pc3
  4

  6

 40
0.0
 41
0.0
 42
0.0
 43
0.0
 44
0.0
 45
0.0
 46
0.0
 47
0.0
 48
0.0
 49
0.0
140
0.0
141
0.0
142
1.0
143
1.0
 70
688
 72
0
 73
0
 74
5
  7

 75
16
147
1.0
148
0.0
149
0.0
100
AcDbLayout
  1
Layout2
 70
1
 71
2
 10
0.0
 20
0.0
 11
12.0
 21
9.0
 12
0.0
 22
0.0
 32
0.0
 14
0.0
 24
0.0
 34
0.0
 15
0.0
 25
0.0
 35
0.0
146
0.0
 13
0.0
 23
0.0
 33
0.0
 16
1.0
 26
0.0
 36
0.0
 17
0.0
 27
1.0
 37
0.0
 76
0
330
23
  0
DICTIONARY
  5
18D
100
AcDbDictionary
281
1
  3
DIMASSOC
350
18F
  3
HIDETEXT
350
18E
  0
DICTIONARYVAR
  5
18E
100
DictionaryVariables
280
0
  1
2
  0
DICTIONARYVAR
  5
18F
100
DictionaryVariables
280
0
  1
1
  0
ENDSEC
  0
EOF
