999
dxfrw 0.5.10
0
SECTION
2
HEADER
9
$ACADVER
1
AC1021
9
$HANDSEED
5
20000
9
$DWGCODEPAGE
3
ANSI_1252
9
$INSBASE
10
0
20
0
30
0
9
$EXTMIN
10
-2.552
20
-0.957
30
0
9
$EXTMAX
10
2.552
20
4.89816917641
30
0
9
$LIMMIN
10
0
20
0
9
$LIMMAX
10
420
20
297
9
$ORTHOMODE
70
0
9
$LTSCALE
40
1
9
$TEXTSTYLE
7
STANDARD
9
$CLAYER
8
lower_core
9
$DIMASZ
40
0.1
9
$DIMLFAC
40
1
9
$DIMSCALE
40
1
9
$DIMEXO
40
0.025
9
$DIMEXE
40
0.05
9
$DIMTXT
40
0.1
9
$DIMTSZ
40
0
9
$DIMAUNIT
70
0
9
$DIMADEC
70
0
9
$DIMLUNIT
70
2
9
$DIMSTYLE
2
Standard
9
$DIMGAP
40
0.025
9
$DIMTIH
70
0
9
$LUNITS
70
2
9
$LUPREC
70
4
9
$AUNITS
70
0
9
$AUPREC
70
2
9
$SPLINESEGS
70
8
9
$GRIDMODE
70
1
9
$SNAPSTYLE
70
0
9
$PINSBASE
10
4.13385826772
20
3.03441064582
30
0
9
$PLIMMIN
10
0
20
0
9
$PLIMMAX
10
8.26771653543
20
11.6929133858
9
$INSUNITS
70
1
9
$PSVPSCALE
40
1
0
ENDSEC
0
SECTION
2
CLASSES
0
ENDSEC
0
SECTION
2
TABLES
0
TABLE
2
VPORT
5
8
330
0
100
AcDbSymbolTable
70
1
0
VPORT
5
31
330
2
100
AcDbSymbolTableRecord
100
AcDbViewportTableRecord
2
*ACTIVE
70
0
10
0
20
0
11
1
21
1
12
5.62379188144
22
5.65726683312
13
0
23
0
14
10
24
10
15
10
25
10
16
0
26
0
36
1
17
0
27
0
37
0
40
13.3230307668
41
2.03140703518
42
50
43
0
44
0
50
0
51
0
71
0
72
100
73
1
74
3
75
0
76
1
77
0
78
0
281
0
65
1
110
0
120
0
130
0
111
1
121
0
131
0
112
0
122
1
132
0
79
0
146
0
348
10020
60
7
61
5
292
1
282
1
141
0
142
0
63
250
421
3358443
0
ENDTAB
0
TABLE
2
LTYPE
5
5
330
0
100
AcDbSymbolTable
70
4
0
LTYPE
5
14
330
5
100
AcDbSymbolTableRecord
100
AcDbLinetypeTableRecord
2
ByBlock
70
0
3

72
65
73
0
40
0
0
LTYPE
5
15
330
5
100
AcDbSymbolTableRecord
100
AcDbLinetypeTableRecord
2
ByLayer
70
0
3

72
65
73
0
40
0
0
LTYPE
5
16
330
5
100
AcDbSymbolTableRecord
100
AcDbLinetypeTableRecord
2
Continuous
70
0
3
Solid line
72
65
73
0
40
0
0
LTYPE
5
32
330
5
100
AcDbSymbolTableRecord
100
AcDbLinetypeTableRecord
2
DOT
70
0
3
Dot . . . . . . . . . . . . . . . . . . . . . .
72
65
73
2
40
6.35
49
0
74
0
49
-6.35
74
0
0
LTYPE
5
33
330
5
100
AcDbSymbolTableRecord
100
AcDbLinetypeTableRecord
2
DOT2
70
0
3
Dot (.5x) .....................................
72
65
73
2
40
3.175
49
0
74
0
49
-3.175
74
0
0
LTYPE
5
34
330
5
100
AcDbSymbolTableRecord
100
AcDbLinetypeTableRecord
2
DOTX2
70
0
3
Dot (2x) .  .  .  .  .  .  .  .  .  .  .  .  .
72
65
73
2
40
12.7
49
0
74
0
49
-12.7
74
0
0
LTYPE
5
35
330
5
100
AcDbSymbolTableRecord
100
AcDbLinetypeTableRecord
2
DASHED
70
0
3
Dot . . . . . . . . . . . . . . . . . . . . . .
72
65
73
2
40
19.05
49
12.7
74
0
49
-6.35
74
0
0
LTYPE
5
36
330
5
100
AcDbSymbolTableRecord
100
AcDbLinetypeTableRecord
2
DASHED2
70
0
3
Dashed (.5x) _ _ _ _ _ _ _ _ _ _ _ _ _ _ _ _ _
72
65
73
2
40
9.525
49
6.35
74
0
49
-3.175
74
0
0
LTYPE
5
37
330
5
100
AcDbSymbolTableRecord
100
AcDbLinetypeTableRecord
2
DASHEDX2
70
0
3
Dashed (2x) ____  ____  ____  ____  ____  ___
72
65
73
2
40
38.1
49
25.4
74
0
49
-12.7
74
0
0
LTYPE
5
38
330
5
100
AcDbSymbolTableRecord
100
AcDbLinetypeTableRecord
2
DASHDOT
70
0
3
Dash dot __ . __ . __ . __ . __ . __ . __ . __
72
65
73
4
40
25.4
49
12.7
74
0
49
-6.35
74
0
49
0
74
0
49
-6.35
74
0
0
LTYPE
5
39
330
5
100
AcDbSymbolTableRecord
100
AcDbLinetypeTableRecord
2
DASHDOT2
70
0
3
Dash dot (.5x) _._._._._._._._._._._._._._._.
72
65
73
4
40
12.7
49
6.35
74
0
49
-3.175
74
0
49
0
74
0
49
-3.175
74
0
0
LTYPE
5
3A
330
5
100
AcDbSymbolTableRecord
100
AcDbLinetypeTableRecord
2
DASHDOTX2
70
0
3
Dash dot (2x) ____  .  ____  .  ____  .  ___
72
65
73
4
40
50.8
49
25.4
74
0
49
-12.7
74
0
49
0
74
0
49
-12.7
74
0
0
LTYPE
5
3B
330
5
100
AcDbSymbolTableRecord
100
AcDbLinetypeTableRecord
2
DIVIDE
70
0
3
Divide ____ . . ____ . . ____ . . ____ . . ____
72
65
73
6
40
31.75
49
12.7
74
0
49
-6.35
74
0
49
0
74
0
49
-6.35
74
0
49
0
74
0
49
-6.35
74
0
0
LTYPE
5
3C
330
5
100
AcDbSymbolTableRecord
100
AcDbLinetypeTableRecord
2
DIVIDE2
70
0
3
Divide (.5x) __..__..__..__..__..__..__..__.._
72
65
73
6
40
15.875
49
6.35
74
0
49
-3.175
74
0
49
0
74
0
49
-3.175
74
0
49
0
74
0
49
-3.175
74
0
0
LTYPE
5
3D
330
5
100
AcDbSymbolTableRecord
100
AcDbLinetypeTableRecord
2
DIVIDEX2
70
0
3
Divide (2x) ________  .  .  ________  .  .  _
72
65
73
6
40
63.5
49
25.4
74
0
49
-12.7
74
0
49
0
74
0
49
-12.7
74
0
49
0
74
0
49
-12.7
74
0
0
LTYPE
5
3E
330
5
100
AcDbSymbolTableRecord
100
AcDbLinetypeTableRecord
2
BORDER
70
0
3
Border __ __ . __ __ . __ __ . __ __ . __ __ .
72
65
73
6
40
44.45
49
12.7
74
0
49
-6.35
74
0
49
12.7
74
0
49
-6.35
74
0
49
0
74
0
49
-6.35
74
0
0
LTYPE
5
3F
330
5
100
AcDbSymbolTableRecord
100
AcDbLinetypeTableRecord
2
BORDER2
70
0
3
Border (.5x) __.__.__.__.__.__.__.__.__.__.__.
72
65
73
6
40
22.225
49
6.35
74
0
49
-3.175
74
0
49
6.35
74
0
49
-3.175
74
0
49
0
74
0
49
-3.175
74
0
0
LTYPE
5
40
330
5
100
AcDbSymbolTableRecord
100
AcDbLinetypeTableRecord
2
BORDERX2
70
0
3
Border (2x) ____  ____  .  ____  ____  .  ___
72
65
73
6
40
88.9
49
25.4
74
0
49
-12.7
74
0
49
25.4
74
0
49
-12.7
74
0
49
0
74
0
49
-12.7
74
0
0
LTYPE
5
41
330
5
100
AcDbSymbolTableRecord
100
AcDbLinetypeTableRecord
2
CENTER
70
0
3
Center ____ _ ____ _ ____ _ ____ _ ____ _ ____
72
65
73
4
40
50.8
49
31.75
74
0
49
-6.35
74
0
49
6.35
74
0
49
-6.35
74
0
0
LTYPE
5
42
330
5
100
AcDbSymbolTableRecord
100
AcDbLinetypeTableRecord
2
CENTER2
70
0
3
Center (.5x) ___ _ ___ _ ___ _ ___ _ ___ _ ___
72
65
73
4
40
28.575
49
19.05
74
0
49
-3.175
74
0
49
3.175
74
0
49
-3.175
74
0
0
LTYPE
5
43
330
5
100
AcDbSymbolTableRecord
100
AcDbLinetypeTableRecord
2
CENTERX2
70
0
3
Center (2x) ________  __  ________  __  _____
72
65
73
4
40
101.6
49
63.5
74
0
49
-12.7
74
0
49
12.7
74
0
49
-12.7
74
0
0
ENDTAB
0
TABLE
2
LAYER
5
2
330
0
100
AcDbSymbolTable
70
1
0
LAYER
5
10
330
2
100
AcDbSymbolTableRecord
100
AcDbLayerTableRecord
2
0
70
0
62
7
6
CONTINUOUS
370
0
390
F
0
LAYER
5
44
330
2
100
AcDbSymbolTableRecord
100
AcDbLayerTableRecord
2
body
70
1
62
7
6
CONTINUOUS
370
0
390
F
0
LAYER
5
45
330
2
100
AcDbSymbolTableRecord
100
AcDbLayerTableRecord
2
sump
70
1
62
7
6
CONTINUOUS
370
0
390
F
0
LAYER
5
46
330
2
100
AcDbSymbolTableRecord
100
AcDbLayerTableRecord
2
timing_cover
70
1
62
7
6
CONTINUOUS
370
0
390
F
0
LAYER
5
47
330
2
100
AcDbSymbolTableRecord
100
AcDbLayerTableRecord
2
crank
70
1
62
3
6
CONTINUOUS
370
0
390
F
0
LAYER
5
48
330
2
100
AcDbSymbolTableRecord
100
AcDbLayerTableRecord
2
liner
70
1
62
9
6
CONTINUOUS
370
0
390
F
0
LAYER
5
49
330
2
100
AcDbSymbolTableRecord
100
AcDbLayerTableRecord
2
camplate
70
1
62
7
6
CONTINUOUS
370
0
390
F
0
LAYER
5
4A
330
2
100
AcDbSymbolTableRecord
100
AcDbLayerTableRecord
2
lower_core
70
0
62
2
6
CONTINUOUS
370
0
390
F
0
LAYER
5
4B
330
2
100
AcDbSymbolTableRecord
100
AcDbLayerTableRecord
2
water_jacket
70
0
62
5
6
CONTINUOUS
370
0
390
F
0
LAYER
5
4C
330
2
100
AcDbSymbolTableRecord
100
AcDbLayerTableRecord
2
core_blocks
70
0
62
7
6
CONTINUOUS
370
0
390
F
0
ENDTAB
0
TABLE
2
STYLE
5
3
330
0
100
AcDbSymbolTable
70
3
0
STYLE
5
4D
330
2
100
AcDbSymbolTableRecord
100
AcDbTextStyleTableRecord
2
Standard
70
0
40
0
41
1
50
0
71
0
42
1
3
txt
4

0
ENDTAB
0
TABLE
2
VIEW
5
6
330
0
100
AcDbSymbolTable
70
0
0
ENDTAB
0
TABLE
2
UCS
5
7
330
0
100
AcDbSymbolTable
70
0
0
ENDTAB
0
TABLE
2
APPID
5
9
330
0
100
AcDbSymbolTable
70
1
0
APPID
5
12
330
9
100
AcDbSymbolTableRecord
100
AcDbRegAppTableRecord
2
ACAD
70
0
0
ENDTAB
0
TABLE
2
DIMSTYLE
5
A
330
0
100
AcDbSymbolTable
70
1
100
AcDbDimStyleTable
71
1
0
DIMSTYLE
105
4E
330
A
100
AcDbSymbolTableRecord
100
AcDbDimStyleTableRecord
2
Standard
70
0
40
1
41
0.1
42
0.025
43
0.38
44
0.05
45
0
46
0
47
0
48
0
140
0.1
141
0.09
142
0
143
25.4
144
1
145
0
146
1
147
0.025
148
0
71
0
72
0
73
0
74
1
75
0
76
0
77
0
78
0
79
0
170
0
171
2
172
0
173
0
174
0
175
0
176
0
177
0
178
0
179
0
271
4
272
4
273
2
274
2
275
0
276
0
277
2
278
46
279
0
280
0
281
0
282
0
283
1
284
0
285
0
286
0
288
0
289
3
340
Standard
341

371
-2
372
-2
0
ENDTAB
0
TABLE
2
BLOCK_RECORD
5
1
330
0
100
AcDbSymbolTable
70
2
0
BLOCK_RECORD
5
1F
330
1
100
AcDbSymbolTableRecord
100
AcDbBlockTableRecord
2
*Model_Space
70
0
280
1
281
0
0
BLOCK_RECORD
5
1E
330
1
100
AcDbSymbolTableRecord
100
AcDbBlockTableRecord
2
*Paper_Space
70
0
280
1
281
0
0
ENDTAB
0
ENDSEC
0
SECTION
2
BLOCKS
0
BLOCK
5
20
330
1F
100
AcDbEntity
8
0
100
AcDbBlockBegin
2
*Model_Space
70
0
10
0
20
0
30
0
3
*Model_Space
1

0
ENDBLK
5
21
330
1F
100
AcDbEntity
8
0
100
AcDbBlockEnd
0
BLOCK
5
1C
330
1B
100
AcDbEntity
8
0
100
AcDbBlockBegin
2
*Paper_Space
70
0
10
0
20
0
30
0
3
*Paper_Space
1

0
ENDBLK
5
1D
330
1F
100
AcDbEntity
8
0
100
AcDbBlockEnd
0
ENDSEC
0
SECTION
2
ENTITIES
0
LINE
5
4F
100
AcDbEntity
8
sump
6
ByLayer
62
2
370
-1
100
AcDbLine
10
-1.35575
20
-0.7975
11
-1.35575
21
0
0
LINE
5
50
100
AcDbEntity
8
sump
6
ByLayer
62
2
370
-1
100
AcDbLine
10
1.35575
20
-0.7975
11
1.35575
21
1.276e-16
0
LINE
5
51
100
AcDbEntity
8
sump
6
ByLayer
62
2
370
-1
100
AcDbLine
10
-1.35575
20
-0.7975
11
-1.67475
21
-0.7975
0
LINE
5
52
100
AcDbEntity
8
sump
6
ByLayer
62
2
370
-1
100
AcDbLine
10
1.67475
20
-0.7975
11
1.35575
21
-0.7975
0
LINE
5
53
100
AcDbEntity
8
sump
6
ByLayer
62
2
370
-1
100
AcDbLine
10
-2.113375
20
0
11
-2.033625
21
0
0
LINE
5
54
100
AcDbEntity
8
sump
6
ByLayer
62
2
370
-1
100
AcDbLine
10
2.033625
20
0
11
2.113375
21
0
0
LINE
5
55
100
AcDbEntity
8
sump
6
ByLayer
62
2
370
-1
100
AcDbLine
10
-2.0735
20
-0.039875
11
-2.0735
21
0.039875
0
LINE
5
56
100
AcDbEntity
8
sump
6
ByLayer
62
2
370
-1
100
AcDbLine
10
2.0735
20
-0.039875
11
2.0735
21
0.039875
0
LINE
5
57
100
AcDbEntity
8
sump
6
ByLayer
62
2
370
-1
100
AcDbLine
10
1.67475
20
0
11
-1.35575
21
0
0
LINE
5
58
100
AcDbEntity
8
sump
6
ByLayer
62
2
370
-1
100
AcDbLine
10
-1.35575
20
0
11
-1.67475
21
0
0
ARC
5
59
100
AcDbEntity
8
sump
6
ByLayer
62
2
370
-1
100
AcDbCircle
10
2.0735
20
0
40
3.58875
100
AcDbArc
50
180
51
218.478595133
0
LINE
5
5A
100
AcDbEntity
8
sump
6
ByLayer
62
2
370
-1
100
AcDbLine
10
0.735919435132
20
-2.233
11
-0.735919435132
21
-2.233
0
ARC
5
5B
100
AcDbEntity
8
sump
6
ByLayer
62
2
370
-1
100
AcDbCircle
10
-2.0735
20
0
40
3.42925
100
AcDbArc
50
322.796256009
51
0
0
ARC
5
5C
100
AcDbEntity
8
sump
6
ByLayer
62
2
370
-1
100
AcDbCircle
10
2.0735
20
0
40
3.42925
100
AcDbArc
50
180
51
217.203743991
0
LINE
5
5D
100
AcDbEntity
8
sump
6
ByLayer
62
2
370
-1
100
AcDbLine
10
-1.67475
20
-0.7975
11
-1.67475
21
0
0
LINE
5
5E
100
AcDbEntity
8
sump
6
ByLayer
62
2
370
-1
100
AcDbLine
10
1.67475
20
-0.7975
11
1.67475
21
0
0
LINE
5
5F
100
AcDbEntity
8
sump
6
ByLayer
62
2
370
-1
100
AcDbLine
10
-1.51525
20
-0.7975
11
-1.51525
21
0
0
ARC
5
60
100
AcDbEntity
8
sump
6
ByLayer
62
2
370
-1
100
AcDbCircle
10
-2.0735
20
0
40
3.58875
100
AcDbArc
50
321.521404867
51
0
0
LINE
5
61
100
AcDbEntity
8
sump
6
ByLayer
62
2
370
-1
100
AcDbLine
10
1.51525
20
-0.7975
11
1.51525
21
0
0
LINE
5
62
100
AcDbEntity
8
sump
6
ByLayer
62
2
370
-1
100
AcDbLine
10
1.67475
20
-0.199375
11
-1.67475
21
-0.199375
0
ARC
5
63
100
AcDbEntity
8
sump
6
ByLayer
62
2
370
-1
100
AcDbCircle
10
-5.52e-17
20
0
40
0.87725
100
AcDbArc
50
180
51
0
0
ARC
5
64
100
AcDbEntity
8
sump
6
ByLayer
62
2
370
-1
100
AcDbCircle
10
-5.52e-17
20
0
40
0.55825
100
AcDbArc
50
180
51
360
0
LINE
5
65
100
AcDbEntity
8
sump
6
ByLayer
62
2
370
-1
100
AcDbLine
10
0.319
20
-2.31275
11
0.319
21
-2.233
0
LINE
5
66
100
AcDbEntity
8
sump
6
ByLayer
62
2
370
-1
100
AcDbLine
10
-0.319
20
-2.31275
11
-0.319
21
-2.233
0
LINE
5
67
100
AcDbEntity
8
sump
6
ByLayer
62
2
370
-1
100
AcDbLine
10
0.319
20
-2.31275
11
-0.319
21
-2.31275
0
ARC
5
68
100
AcDbEntity
8
timing_cover
6
ByLayer
62
4
370
-1
100
AcDbCircle
10
1.4355
20
1.38361078794
40
0.87725
100
AcDbArc
50
309.356953827
51
138.534085298
0
LINE
5
69
100
AcDbEntity
8
timing_cover
6
ByLayer
62
4
370
-1
100
AcDbLine
10
0.039875
20
-5.104e-16
11
-0.039875
21
5.104e-16
0
LINE
5
6A
100
AcDbEntity
8
timing_cover
6
ByLayer
62
4
370
-1
100
AcDbLine
10
2e-16
20
-0.039875
11
-3.104e-16
21
0.039875
0
LINE
5
6B
100
AcDbEntity
8
timing_cover
6
ByLayer
62
4
370
-1
100
AcDbLine
10
1.475375
20
1.38361078794
11
1.395625
21
1.38361078794
0
LINE
5
6C
100
AcDbEntity
8
timing_cover
6
ByLayer
62
4
370
-1
100
AcDbLine
10
1.4355
20
1.34373578794
11
1.4355
21
1.42348578794
0
LINE
5
6D
100
AcDbEntity
8
timing_cover
6
ByLayer
62
4
370
-1
100
AcDbLine
10
0.039875
20
-1.19625
11
-0.039875
21
-1.19625
0
LINE
5
6E
100
AcDbEntity
8
timing_cover
6
ByLayer
62
4
370
-1
100
AcDbLine
10
2.4968e-15
20
-1.236125
11
-3.104e-16
21
-1.156375
0
LINE
5
6F
100
AcDbEntity
8
timing_cover
6
ByLayer
62
4
370
-1
100
AcDbLine
10
2.09295478582
20
0.581985085315
11
0.966211821992
21
-0.342115216767
0
ARC
5
70
100
AcDbEntity
8
timing_cover
6
ByLayer
62
4
370
-1
100
AcDbCircle
10
1.01678526705
20
-0.403778732353
40
0.07975
100
AcDbArc
50
129.356953827
51
234.322694314
0
CIRCLE
5
71
100
AcDbEntity
8
timing_cover
6
ByLayer
62
4
370
-1
100
AcDbCircle
10
0.87725
20
-0.598125
40
0.1595
0
ARC
5
72
100
AcDbEntity
8
timing_cover
6
ByLayer
62
4
370
-1
100
AcDbCircle
10
1.03514808979
20
-0.777871365027
40
0.07975
100
AcDbArc
50
131.297670063
51
202.007216027
0
ARC
5
73
100
AcDbEntity
8
timing_cover
6
ByLayer
62
4
370
-1
100
AcDbCircle
10
-1.03514808979
20
-0.777871365027
40
0.07975
100
AcDbArc
50
337.992783973
51
48.7023299371
0
ARC
5
74
100
AcDbEntity
8
timing_cover
6
ByLayer
62
4
370
-1
100
AcDbCircle
10
2e-16
20
-1.19625
40
1.03675
100
AcDbArc
50
318.901425631
51
22.0072160273
0
ARC
5
75
100
AcDbEntity
8
timing_cover
6
ByLayer
62
4
370
-1
100
AcDbCircle
10
0.841371789596
20
-1.93018852717
40
0.07975
100
AcDbArc
50
138.901425631
51
203.524492106
0
CIRCLE
5
76
100
AcDbEntity
8
timing_cover
6
ByLayer
62
4
370
-1
100
AcDbCircle
10
0.622005967587
20
-2.02568302248
40
0.1595
0
ARC
5
77
100
AcDbEntity
8
timing_cover
6
ByLayer
62
4
370
-1
100
AcDbCircle
10
0.468889301888
20
-2.20951949651
40
0.07975
100
AcDbArc
50
50.2092197005
51
114.832286175
0
ARC
5
78
100
AcDbEntity
8
timing_cover
6
ByLayer
62
4
370
-1
100
AcDbCircle
10
2e-16
20
-1.19625
40
1.03675
100
AcDbArc
50
245.167713825
51
294.832286175
0
ARC
5
79
100
AcDbEntity
8
timing_cover
6
ByLayer
62
4
370
-1
100
AcDbCircle
10
-0.468889301888
20
-2.20951949651
40
0.07975
100
AcDbArc
50
65.1677138247
51
129.7907803
0
CIRCLE
5
7A
100
AcDbEntity
8
timing_cover
6
ByLayer
62
4
370
-1
100
AcDbCircle
10
-0.622005967587
20
-2.02568302248
40
0.1595
0
ARC
5
7B
100
AcDbEntity
8
timing_cover
6
ByLayer
62
4
370
-1
100
AcDbCircle
10
2e-16
20
-1.19625
40
1.03675
100
AcDbArc
50
157.992783973
51
221.098574369
0
ARC
5
7C
100
AcDbEntity
8
timing_cover
6
ByLayer
62
4
370
-1
100
AcDbCircle
10
-0.841371789596
20
-1.93018852717
40
0.07975
100
AcDbArc
50
336.475507894
51
41.0985743686
0
ARC
5
7D
100
AcDbEntity
8
timing_cover
6
ByLayer
62
4
370
-1
100
AcDbCircle
10
1.4355
20
1.38361078794
40
1.03675
100
AcDbArc
50
309.356953827
51
31.9109498342
0
ARC
5
7E
100
AcDbEntity
8
timing_cover
6
ByLayer
62
4
370
-1
100
AcDbCircle
10
2.38326411638
20
1.97379332726
40
0.07975
100
AcDbArc
50
147.287883359
51
211.910949834
0
CIRCLE
5
7F
100
AcDbEntity
8
timing_cover
6
ByLayer
62
4
370
-1
100
AcDbCircle
10
2.18196
20
2.10308839767
40
0.1595
0
ARC
5
80
100
AcDbEntity
8
timing_cover
6
ByLayer
62
4
370
-1
100
AcDbCircle
10
1.4355
20
1.38361078794
40
1.03675
100
AcDbArc
50
55.9800892904
51
138.534085298
0
ARC
5
81
100
AcDbEntity
8
timing_cover
6
ByLayer
62
4
370
-1
100
AcDbCircle
10
2.06016049901
20
2.3090142194
40
0.07975
100
AcDbArc
50
235.98008929
51
300.603155765
0
LINE
5
82
100
AcDbEntity
8
timing_cover
6
ByLayer
62
4
370
-1
100
AcDbLine
10
0.77813290431
20
1.96450325991
11
0.656249204059
21
1.8265735433
0
ARC
5
83
100
AcDbEntity
8
timing_cover
6
ByLayer
62
4
370
-1
100
AcDbCircle
10
0.716009849123
20
1.77376513676
40
0.07975
100
AcDbArc
50
138.534085298
51
209.062864664
0
CIRCLE
5
84
100
AcDbEntity
8
timing_cover
6
ByLayer
62
4
370
-1
100
AcDbCircle
10
0.506884474577
20
1.65754491382
40
0.1595
0
LINE
5
85
100
AcDbEntity
8
timing_cover
6
ByLayer
62
4
370
-1
100
AcDbLine
10
0.357519745094
20
1.48851628433
11
-0.537845805565
21
0.475275658893
0
ARC
5
86
100
AcDbEntity
8
timing_cover
6
ByLayer
62
4
370
-1
100
AcDbCircle
10
0.417280390157
20
1.43570787778
40
0.07975
100
AcDbArc
50
68.0053059326
51
138.534085298
0
LINE
5
87
100
AcDbEntity
8
timing_cover
6
ByLayer
62
4
370
-1
100
AcDbLine
10
1.99180789569
20
0.705312116487
11
1.84948628552
21
0.588586787661
0
ARC
5
88
100
AcDbEntity
8
timing_cover
6
ByLayer
62
4
370
-1
100
AcDbCircle
10
1.79891284045
20
0.650250303247
40
0.07975
100
AcDbArc
50
238.828174461
51
309.356953827
0
CIRCLE
5
89
100
AcDbEntity
8
timing_cover
6
ByLayer
62
4
370
-1
100
AcDbCircle
10
1.67507552543
20
0.445543483853
40
0.1595
0
ARC
5
8A
100
AcDbEntity
8
timing_cover
6
ByLayer
62
4
370
-1
100
AcDbCircle
10
1.45009132027
20
0.364163695632
40
0.07975
100
AcDbArc
50
309.356953827
51
19.885733192
0
LINE
5
8B
100
AcDbEntity
8
timing_cover
6
ByLayer
62
4
370
-1
100
AcDbLine
10
0.658611614184
20
2.070120073
11
-0.508002366208
21
0.749921101469
0
ARC
5
8C
100
AcDbEntity
8
timing_cover
6
ByLayer
62
4
370
-1
100
AcDbCircle
10
-0.567763011271
20
0.802729508012
40
0.07975
100
AcDbArc
50
248.005305933
51
318.534085298
0
CIRCLE
5
8D
100
AcDbEntity
8
timing_cover
6
ByLayer
62
4
370
-1
100
AcDbCircle
10
-0.65736709569
20
0.58089247198
40
0.1595
0
ARC
5
8E
100
AcDbEntity
8
timing_cover
6
ByLayer
62
4
370
-1
100
AcDbCircle
10
-0.850216591578
20
0.439295740254
40
0.07975
100
AcDbArc
50
332.675195532
51
36.2873955708
0
CIRCLE
5
8F
100
AcDbEntity
8
timing_cover
6
ByLayer
62
4
370
-1
100
AcDbCircle
10
-0.87725
20
-0.598125
40
0.1595
0
ARC
5
90
100
AcDbEntity
8
timing_cover
6
ByLayer
62
4
370
-1
100
AcDbCircle
10
-0.88708097721
20
-0.359077066759
40
0.07975
100
AcDbArc
50
272.354993244
51
22.0373635496
0
ARC
5
91
100
AcDbEntity
8
timing_cover
6
ByLayer
62
4
370
-1
100
AcDbCircle
10
2e-16
20
0
40
0.87725
100
AcDbArc
50
152.675195547
51
202.03736355
0
LINE
5
92
100
AcDbEntity
8
timing_cover
6
ByLayer
62
4
370
-1
100
AcDbLine
10
1.50066476534
20
0.302500180046
11
0.601972991341
21
-0.434563521693
0
ARC
5
93
100
AcDbEntity
8
timing_cover
6
ByLayer
62
4
370
-1
100
AcDbCircle
10
0.652546436403
20
-0.496227037279
40
0.07975
100
AcDbArc
50
129.356953827
51
227.010313291
0
ARC
5
94
100
AcDbEntity
8
timing_cover
6
ByLayer
62
4
370
-1
100
AcDbCircle
10
2e-16
20
0
40
0.71775
100
AcDbArc
50
138.534085298
51
217.109004946
0
ARC
5
95
100
AcDbEntity
8
timing_cover
6
ByLayer
62
4
370
-1
100
AcDbCircle
10
2e-16
20
-1.19625
40
0.87725
100
AcDbArc
50
131.649672274
51
47.0103132907
0
ARC
5
96
100
AcDbEntity
8
timing_cover
6
ByLayer
62
4
370
-1
100
AcDbCircle
10
-0.635997569385
20
-0.481158333333
40
0.07975
100
AcDbArc
50
311.649672274
51
37.1090049458
0
LINE
5
97
100
AcDbEntity
8
timing_cover
6
ByLayer
62
4
370
-1
100
AcDbLine
10
2.221835
20
2.10308839767
11
2.142085
21
2.10308839767
0
LINE
5
98
100
AcDbEntity
8
timing_cover
6
ByLayer
62
4
370
-1
100
AcDbLine
10
2.18196
20
2.06321339767
11
2.18196
21
2.14296339767
0
LINE
5
99
100
AcDbEntity
8
timing_cover
6
ByLayer
62
4
370
-1
100
AcDbLine
10
0.546759474577
20
1.65754491382
11
0.467009474577
21
1.65754491382
0
LINE
5
9A
100
AcDbEntity
8
timing_cover
6
ByLayer
62
4
370
-1
100
AcDbLine
10
0.506884474577
20
1.61766991382
11
0.506884474577
21
1.69741991382
0
LINE
5
9B
100
AcDbEntity
8
timing_cover
6
ByLayer
62
4
370
-1
100
AcDbLine
10
1.71495052543
20
0.445543483853
11
1.63520052543
21
0.445543483853
0
LINE
5
9C
100
AcDbEntity
8
timing_cover
6
ByLayer
62
4
370
-1
100
AcDbLine
10
1.67507552543
20
0.405668483853
11
1.67507552543
21
0.485418483853
0
LINE
5
9D
100
AcDbEntity
8
timing_cover
6
ByLayer
62
4
370
-1
100
AcDbLine
10
-0.61749209569
20
0.58089247198
11
-0.69724209569
21
0.58089247198
0
LINE
5
9E
100
AcDbEntity
8
timing_cover
6
ByLayer
62
4
370
-1
100
AcDbLine
10
-0.65736709569
20
0.54101747198
11
-0.65736709569
21
0.62076747198
0
LINE
5
9F
100
AcDbEntity
8
timing_cover
6
ByLayer
62
4
370
-1
100
AcDbLine
10
-0.837375
20
-0.598125
11
-0.917125
21
-0.598125
0
LINE
5
A0
100
AcDbEntity
8
timing_cover
6
ByLayer
62
4
370
-1
100
AcDbLine
10
-0.87725
20
-0.638
11
-0.87725
21
-0.55825
0
LINE
5
A1
100
AcDbEntity
8
timing_cover
6
ByLayer
62
4
370
-1
100
AcDbLine
10
0.917125
20
-0.598125
11
0.837375
21
-0.598125
0
LINE
5
A2
100
AcDbEntity
8
timing_cover
6
ByLayer
62
4
370
-1
100
AcDbLine
10
0.87725
20
-0.638
11
0.87725
21
-0.55825
0
LINE
5
A3
100
AcDbEntity
8
timing_cover
6
ByLayer
62
4
370
-1
100
AcDbLine
10
-0.582130967587
20
-2.02568302248
11
-0.661880967587
21
-2.02568302248
0
LINE
5
A4
100
AcDbEntity
8
timing_cover
6
ByLayer
62
4
370
-1
100
AcDbLine
10
-0.622005967587
20
-2.06555802248
11
-0.622005967587
21
-1.98580802248
0
LINE
5
A5
100
AcDbEntity
8
timing_cover
6
ByLayer
62
4
370
-1
100
AcDbLine
10
0.661880967587
20
-2.02568302248
11
0.582130967587
21
-2.02568302248
0
LINE
5
A6
100
AcDbEntity
8
timing_cover
6
ByLayer
62
4
370
-1
100
AcDbLine
10
0.622005967587
20
-2.06555802248
11
0.622005967587
21
-1.98580802248
0
LINE
5
A7
100
AcDbEntity
8
timing_cover
6
ByLayer
62
4
370
-1
100
AcDbLine
10
0.039875
20
-1.395625
11
-0.039875
21
-1.395625
0
LINE
5
A8
100
AcDbEntity
8
timing_cover
6
ByLayer
62
4
370
-1
100
AcDbLine
10
-3.104e-16
20
-1.4355
11
2.4968e-15
21
-1.35575
0
LINE
5
A9
100
AcDbEntity
8
sump
6
ByLayer
62
2
370
-1
100
AcDbLine
10
0.657864734432
20
-2.0735
11
-0.657864734432
21
-2.0735
0
LINE
5
AA
100
AcDbEntity
8
body
6
ByLayer
62
256
370
-1
100
AcDbLine
10
-5.52e-17
20
0
11
2e-16
21
4.22675
0
LINE
5
AB
100
AcDbEntity
8
body
6
ByLayer
62
256
370
-1
100
AcDbLine
10
1.1165
20
4.22675
11
-1.1165
21
4.22675
0
LINE
5
AC
100
AcDbEntity
8
body
6
ByLayer
62
256
370
-1
100
AcDbLine
10
-2.31275
20
2.552e-16
11
-2.31275
21
0.23925
0
LINE
5
AD
100
AcDbEntity
8
body
6
ByLayer
62
256
370
-1
100
AcDbLine
10
2.31275
20
-5.104e-16
11
2.31275
21
0.23925
0
LINE
5
AE
100
AcDbEntity
8
body
6
ByLayer
62
256
370
-1
100
AcDbLine
10
-2.31275
20
0.23925
11
2.31275
21
0.23925
0
LINE
5
AF
100
AcDbEntity
8
body
6
ByLayer
62
256
370
-1
100
AcDbLine
10
-2.31275
20
0
11
2.31275
21
0
0
LINE
5
B0
100
AcDbEntity
8
body
6
ByLayer
62
256
370
-1
100
AcDbLine
10
1.4355
20
2.02161078794
11
1.4355
21
2.02161078794
0
LINE
5
B1
100
AcDbEntity
8
body
6
ByLayer
62
256
370
-1
100
AcDbLine
10
1.4355
20
2.10136078794
11
1.4355
21
2.10136078794
0
LINE
5
B2
100
AcDbEntity
8
crank
6
ByLayer
62
3
370
-1
100
AcDbLine
10
-0.039875
20
0
11
0.039875
21
0
0
LINE
5
B3
100
AcDbEntity
8
crank
6
ByLayer
62
3
370
-1
100
AcDbLine
10
-5.52e-17
20
-0.039875
11
-5.52e-17
21
0.039875
0
LINE
5
B4
100
AcDbEntity
8
crank
6
ByLayer
62
3
370
-1
100
AcDbLine
10
-0.039875
20
0.71775
11
0.039875
21
0.71775
0
LINE
5
B5
100
AcDbEntity
8
crank
6
ByLayer
62
3
370
-1
100
AcDbLine
10
7.24e-17
20
0.677875
11
7.24e-17
21
0.757625
0
CIRCLE
5
B6
100
AcDbEntity
8
crank
6
ByLayer
62
3
370
-1
100
AcDbCircle
10
-5.52e-17
20
0
40
0.279125
0
CIRCLE
5
B7
100
AcDbEntity
8
crank
6
ByLayer
62
3
370
-1
100
AcDbCircle
10
7.24e-17
20
0.71775
40
0.279125
0
ARC
5
B8
100
AcDbEntity
8
crank
6
ByLayer
62
256
370
-1
100
AcDbCircle
10
-5.52e-17
20
0
40
1.076625
100
AcDbArc
50
70.5287793655
51
109.471220634
0
LINE
5
B9
100
AcDbEntity
8
crank
6
ByLayer
62
256
370
-1
100
AcDbLine
10
-0.358875
20
-0.358875
11
-0.358875
21
1.01505178439
0
LINE
5
BA
100
AcDbEntity
8
crank
6
ByLayer
62
256
370
-1
100
AcDbLine
10
0.358875
20
-0.358875
11
0.358875
21
1.01505178439
0
LINE
5
BB
100
AcDbEntity
8
crank
6
ByLayer
62
256
370
-1
100
AcDbLine
10
-0.358875
20
-0.358875
11
0.358875
21
-0.358875
0
CIRCLE
5
BC
100
AcDbEntity
8
crank
6
ByLayer
62
256
370
-1
100
AcDbCircle
10
2e-16
20
3.58875
40
0.1595
0
CIRCLE
5
BD
100
AcDbEntity
8
crank
6
ByLayer
62
256
370
-1
100
AcDbCircle
10
2e-16
20
3.58875
40
0.199375
0
CIRCLE
5
BE
100
AcDbEntity
8
crank
6
ByLayer
62
256
370
-1
100
AcDbCircle
10
7.24e-17
20
0.71775
40
0.3788125
0
LINE
5
BF
100
AcDbEntity
8
crank
6
ByLayer
62
256
370
-1
100
AcDbLine
10
2e-16
20
3.389375
11
7.24e-17
21
1.0965625
0
LINE
5
C0
100
AcDbEntity
8
crank
6
ByLayer
62
3
370
-1
100
AcDbLine
10
-0.039875
20
3.58875
11
0.039875
21
3.58875
0
LINE
5
C1
100
AcDbEntity
8
crank
6
ByLayer
62
3
370
-1
100
AcDbLine
10
2e-16
20
3.548875
11
2e-16
21
3.628625
0
LINE
5
C2
100
AcDbEntity
8
crank
6
ByLayer
62
256
370
-1
100
AcDbLine
10
-0.638
20
2.95075
11
-0.638
21
4.22675
0
LINE
5
C3
100
AcDbEntity
8
crank
6
ByLayer
62
256
370
-1
100
AcDbLine
10
0.638
20
2.95075
11
0.638
21
4.22675
0
LINE
5
C4
100
AcDbEntity
8
crank
6
ByLayer
62
256
370
-1
100
AcDbLine
10
-0.638
20
4.22675
11
0.638
21
4.22675
0
LINE
5
C5
100
AcDbEntity
8
crank
6
ByLayer
62
256
370
-1
100
AcDbLine
10
-0.638
20
2.95075
11
0.638
21
2.95075
0
LINE
5
C6
100
AcDbEntity
8
liner
6
ByLayer
62
256
370
-1
100
AcDbLine
10
0.7975
20
4.22675
11
-0.7975
21
4.22675
0
LINE
5
C7
100
AcDbEntity
8
liner
6
ByLayer
62
256
370
-1
100
AcDbLine
10
0.7975
20
4.107125
11
-0.7975
21
4.107125
0
LINE
5
C8
100
AcDbEntity
8
liner
6
ByLayer
62
256
370
-1
100
AcDbLine
10
-0.7975
20
4.107125
11
-0.7975
21
4.22675
0
LINE
5
C9
100
AcDbEntity
8
liner
6
ByLayer
62
256
370
-1
100
AcDbLine
10
0.7975
20
4.107125
11
0.7975
21
4.22675
0
LINE
5
CA
100
AcDbEntity
8
liner
6
ByLayer
62
256
370
-1
100
AcDbLine
10
0.71775
20
1.67475
11
-0.71775
21
1.67475
0
LINE
5
CB
100
AcDbEntity
8
liner
6
ByLayer
62
256
370
-1
100
AcDbLine
10
-0.638
20
4.107125
11
-0.71775
21
4.22675
0
LINE
5
CC
100
AcDbEntity
8
liner
6
ByLayer
62
256
370
-1
100
AcDbLine
10
0.638
20
4.107125
11
0.71775
21
4.22675
0
LINE
5
CD
100
AcDbEntity
8
liner
6
ByLayer
62
256
370
-1
100
AcDbLine
10
-0.638
20
1.67475
11
-0.638
21
4.107125
0
LINE
5
CE
100
AcDbEntity
8
liner
6
ByLayer
62
256
370
-1
100
AcDbLine
10
0.638
20
1.67475
11
0.638
21
4.107125
0
LINE
5
CF
100
AcDbEntity
8
liner
6
ByLayer
62
256
370
-1
100
AcDbLine
10
-0.71775
20
1.67475
11
-0.71775
21
4.107125
0
LINE
5
D0
100
AcDbEntity
8
liner
6
ByLayer
62
256
370
-1
100
AcDbLine
10
0.71775
20
1.67475
11
0.71775
21
4.107125
0
ARC
5
D1
100
AcDbEntity
8
body
6
ByLayer
62
256
370
-1
100
AcDbCircle
10
2.0735
20
0
40
3.58875
100
AcDbArc
50
148.109208198
51
176.177446271
0
LINE
5
D2
100
AcDbEntity
8
body
6
ByLayer
62
256
370
-1
100
AcDbLine
10
-1.1165
20
2.552
11
-1.1165
21
4.22675
0
LINE
5
D3
100
AcDbEntity
8
body
6
ByLayer
62
256
370
-1
100
AcDbLine
10
1.1165
20
2.552
11
1.1165
21
4.22675
0
LINE
5
D4
100
AcDbEntity
8
body
6
ByLayer
62
256
370
-1
100
AcDbLine
10
0.87725
20
2.233
11
-0.87725
21
2.233
0
ARC
5
D5
100
AcDbEntity
8
body
6
ByLayer
62
256
370
-1
100
AcDbCircle
10
-1.51525
20
2.233
40
0.638
100
AcDbArc
50
328.109208198
51
0
0
ARC
5
D6
100
AcDbEntity
8
body
6
ByLayer
62
256
370
-1
100
AcDbCircle
10
-0.7975
20
2.54203125
40
0.31915572371
100
AcDbArc
50
178.210089392
51
255.5297059
0
ARC
5
D7
100
AcDbEntity
8
body
6
ByLayer
62
256
370
-1
100
AcDbCircle
10
0.7975
20
2.54203125
40
0.31915572371
100
AcDbArc
50
284.4702941
51
1.78991060825
0
CIRCLE
5
D8
100
AcDbEntity
8
body
6
ByLayer
62
256
370
-1
100
AcDbCircle
10
1.4355
20
1.38361078794
40
0.4785
0
LINE
5
D9
100
AcDbEntity
8
body
6
ByLayer
62
256
370
-1
100
AcDbLine
10
1.1108351717
20
2.03355168392
11
1.45815931319
21
2.02120827502
0
ARC
5
DA
100
AcDbEntity
8
body
6
ByLayer
62
256
370
-1
100
AcDbCircle
10
1.1165
20
2.19295105569
40
0.1595
100
AcDbArc
50
180
51
267.964645596
0
LINE
5
DB
100
AcDbEntity
8
body
6
ByLayer
62
256
370
-1
100
AcDbLine
10
0.957
20
2.19295105569
11
0.957
21
2.26558934656
0
LINE
5
DC
100
AcDbEntity
8
body
6
ByLayer
62
256
370
-1
100
AcDbLine
10
-1.67475
20
5.104
11
1.67475
21
5.104
0
LINE
5
DD
100
AcDbEntity
8
body
6
ByLayer
62
256
370
-1
100
AcDbLine
10
2.31275
20
5.66225
11
2.31275
21
6.38
0
LINE
5
DE
100
AcDbEntity
8
body
6
ByLayer
62
256
370
-1
100
AcDbLine
10
-2.31275
20
5.66225
11
-2.31275
21
6.38
0
LINE
5
DF
100
AcDbEntity
8
body
6
ByLayer
62
256
370
-1
100
AcDbLine
10
-2.31275
20
7.975
11
-2.31275
21
8.69275
0
LINE
5
E0
100
AcDbEntity
8
body
6
ByLayer
62
256
370
-1
100
AcDbLine
10
2.31275
20
7.975
11
2.31275
21
8.69275
0
LINE
5
E1
100
AcDbEntity
8
body
6
ByLayer
62
256
370
-1
100
AcDbLine
10
-0.87725
20
9.49025
11
0.87725
21
9.49025
0
LINE
5
E2
100
AcDbEntity
8
body
6
ByLayer
62
256
370
-1
100
AcDbLine
10
-2.31275
20
7.975
11
-1.83425
21
7.975
0
ARC
5
E3
100
AcDbEntity
8
body
6
ByLayer
62
256
370
-1
100
AcDbCircle
10
-1.83425
20
7.8155
40
0.1595
100
AcDbArc
50
0
51
90
0
LINE
5
E4
100
AcDbEntity
8
body
6
ByLayer
62
256
370
-1
100
AcDbLine
10
-2.31275
20
8.69275
11
-1.83425
21
8.69275
0
LINE
5
E5
100
AcDbEntity
8
body
6
ByLayer
62
256
370
-1
100
AcDbLine
10
-1.67475
20
8.85225
11
-1.67475
21
9.17125
0
ARC
5
E6
100
AcDbEntity
8
body
6
ByLayer
62
256
370
-1
100
AcDbCircle
10
-1.83425
20
8.85225
40
0.1595
100
AcDbArc
50
270
51
0
0
LINE
5
E7
100
AcDbEntity
8
body
6
ByLayer
62
256
370
-1
100
AcDbLine
10
-2.31275
20
6.38
11
-1.83425
21
6.38
0
LINE
5
E8
100
AcDbEntity
8
body
6
ByLayer
62
256
370
-1
100
AcDbLine
10
-1.67475
20
6.5395
11
-1.67475
21
7.8155
0
ARC
5
E9
100
AcDbEntity
8
body
6
ByLayer
62
256
370
-1
100
AcDbCircle
10
-1.83425
20
6.5395
40
0.1595
100
AcDbArc
50
270
51
0
0
LINE
5
EA
100
AcDbEntity
8
body
6
ByLayer
62
256
370
-1
100
AcDbLine
10
-2.31275
20
5.66225
11
-1.83425
21
5.66225
0
LINE
5
EB
100
AcDbEntity
8
body
6
ByLayer
62
256
370
-1
100
AcDbLine
10
-1.67475
20
5.104
11
-1.67475
21
5.50275
0
ARC
5
EC
100
AcDbEntity
8
body
6
ByLayer
62
256
370
-1
100
AcDbCircle
10
-1.83425
20
5.50275
40
0.1595
100
AcDbArc
50
0
51
90
0
LINE
5
ED
100
AcDbEntity
8
body
6
ByLayer
62
256
370
-1
100
AcDbLine
10
1.67475
20
5.104
11
1.67475
21
5.50275
0
LINE
5
EE
100
AcDbEntity
8
body
6
ByLayer
62
256
370
-1
100
AcDbLine
10
1.83425
20
5.66225
11
2.31275
21
5.66225
0
ARC
5
EF
100
AcDbEntity
8
body
6
ByLayer
62
256
370
-1
100
AcDbCircle
10
1.83425
20
5.50275
40
0.1595
100
AcDbArc
50
90
51
180
0
LINE
5
F0
100
AcDbEntity
8
body
6
ByLayer
62
256
370
-1
100
AcDbLine
10
1.83425
20
6.38
11
2.31275
21
6.38
0
ARC
5
F1
100
AcDbEntity
8
body
6
ByLayer
62
256
370
-1
100
AcDbCircle
10
1.83425
20
6.5395
40
0.1595
100
AcDbArc
50
180
51
270
0
LINE
5
F2
100
AcDbEntity
8
body
6
ByLayer
62
256
370
-1
100
AcDbLine
10
1.67475
20
6.5395
11
1.67475
21
7.8155
0
LINE
5
F3
100
AcDbEntity
8
body
6
ByLayer
62
256
370
-1
100
AcDbLine
10
1.83425
20
7.975
11
2.31275
21
7.975
0
ARC
5
F4
100
AcDbEntity
8
body
6
ByLayer
62
256
370
-1
100
AcDbCircle
10
1.83425
20
7.8155
40
0.1595
100
AcDbArc
50
90
51
180
0
LINE
5
F5
100
AcDbEntity
8
body
6
ByLayer
62
256
370
-1
100
AcDbLine
10
1.83425
20
8.69275
11
2.31275
21
8.69275
0
LINE
5
F6
100
AcDbEntity
8
body
6
ByLayer
62
256
370
-1
100
AcDbLine
10
1.67475
20
8.85225
11
1.67475
21
9.17125
0
ARC
5
F7
100
AcDbEntity
8
body
6
ByLayer
62
256
370
-1
100
AcDbCircle
10
1.83425
20
8.85225
40
0.1595
100
AcDbArc
50
180
51
270
0
LINE
5
F8
100
AcDbEntity
8
body
6
ByLayer
62
256
370
-1
100
AcDbLine
10
1.03675
20
9.17125
11
1.67475
21
9.17125
0
LINE
5
F9
100
AcDbEntity
8
body
6
ByLayer
62
256
370
-1
100
AcDbLine
10
0.87725
20
9.33075
11
0.87725
21
9.49025
0
ARC
5
FA
100
AcDbEntity
8
body
6
ByLayer
62
256
370
-1
100
AcDbCircle
10
1.03675
20
9.33075
40
0.1595
100
AcDbArc
50
180
51
270
0
LINE
5
FB
100
AcDbEntity
8
body
6
ByLayer
62
256
370
-1
100
AcDbLine
10
-1.67475
20
9.17125
11
-1.03675
21
9.17125
0
LINE
5
FC
100
AcDbEntity
8
body
6
ByLayer
62
256
370
-1
100
AcDbLine
10
-0.87725
20
9.33075
11
-0.87725
21
9.49025
0
ARC
5
FD
100
AcDbEntity
8
body
6
ByLayer
62
256
370
-1
100
AcDbCircle
10
-1.03675
20
9.33075
40
0.1595
100
AcDbArc
50
270
51
0
0
ARC
5
FE
100
AcDbEntity
8
body
6
ByLayer
62
256
370
-1
100
AcDbCircle
10
-1.19625
20
8.53325
40
0.1595
100
AcDbArc
50
90
51
180
0
LINE
5
FF
100
AcDbEntity
8
body
6
ByLayer
62
256
370
-1
100
AcDbLine
10
-1.19625
20
8.69275
11
1.19625
21
8.69275
0
ARC
5
100
100
AcDbEntity
8
body
6
ByLayer
62
256
370
-1
100
AcDbCircle
10
1.19625
20
8.53325
40
0.1595
100
AcDbArc
50
0
51
90
0
LINE
5
101
100
AcDbEntity
8
body
6
ByLayer
62
256
370
-1
100
AcDbLine
10
1.35575
20
7.57625
11
1.35575
21
8.53325
0
ARC
5
102
100
AcDbEntity
8
body
6
ByLayer
62
256
370
-1
100
AcDbCircle
10
1.19625
20
7.57625
40
0.1595
100
AcDbArc
50
270
51
0
0
LINE
5
103
100
AcDbEntity
8
body
6
ByLayer
62
256
370
-1
100
AcDbLine
10
-1.19625
20
7.41675
11
1.19625
21
7.41675
0
LINE
5
104
100
AcDbEntity
8
body
6
ByLayer
62
256
370
-1
100
AcDbLine
10
-1.35575
20
7.57625
11
-1.35575
21
8.53325
0
ARC
5
105
100
AcDbEntity
8
body
6
ByLayer
62
256
370
-1
100
AcDbCircle
10
-1.19625
20
7.57625
40
0.1595
100
AcDbArc
50
180
51
270
0
ARC
5
106
100
AcDbEntity
8
body
6
ByLayer
62
256
370
-1
100
AcDbCircle
10
-1.19625
20
6.77875
40
0.1595
100
AcDbArc
50
90
51
180
0
LINE
5
107
100
AcDbEntity
8
body
6
ByLayer
62
256
370
-1
100
AcDbLine
10
-1.35575
20
5.82175
11
-1.35575
21
6.77875
0
ARC
5
108
100
AcDbEntity
8
body
6
ByLayer
62
256
370
-1
100
AcDbCircle
10
-1.19625
20
5.82175
40
0.1595
100
AcDbArc
50
180
51
270
0
LINE
5
109
100
AcDbEntity
8
body
6
ByLayer
62
256
370
-1
100
AcDbLine
10
-1.19625
20
6.93825
11
1.19625
21
6.93825
0
ARC
5
10A
100
AcDbEntity
8
body
6
ByLayer
62
256
370
-1
100
AcDbCircle
10
1.19625
20
6.77875
40
0.1595
100
AcDbArc
50
0
51
90
0
LINE
5
10B
100
AcDbEntity
8
body
6
ByLayer
62
256
370
-1
100
AcDbLine
10
1.35575
20
5.82175
11
1.35575
21
6.77875
0
LINE
5
10C
100
AcDbEntity
8
body
6
ByLayer
62
256
370
-1
100
AcDbLine
10
-1.19625
20
5.66225
11
1.19625
21
5.66225
0
ARC
5
10D
100
AcDbEntity
8
body
6
ByLayer
62
256
370
-1
100
AcDbCircle
10
1.19625
20
5.82175
40
0.1595
100
AcDbArc
50
270
51
0
0
CIRCLE
5
10E
100
AcDbEntity
8
body
6
ByLayer
62
256
370
-1
100
AcDbCircle
10
-1.99375
20
8.37375
40
0.07975
0
CIRCLE
5
10F
100
AcDbEntity
8
body
6
ByLayer
62
256
370
-1
100
AcDbCircle
10
1.99375
20
8.37375
40
0.07975
0
CIRCLE
5
110
100
AcDbEntity
8
body
6
ByLayer
62
256
370
-1
100
AcDbCircle
10
1.99375
20
5.98125
40
0.07975
0
CIRCLE
5
111
100
AcDbEntity
8
body
6
ByLayer
62
256
370
-1
100
AcDbCircle
10
-1.99375
20
5.98125
40
0.07975
0
LINE
5
112
100
AcDbEntity
8
body
6
ByLayer
62
7
370
-1
100
AcDbLine
10
1.953875
20
8.37375
11
2.033625
21
8.37375
0
LINE
5
113
100
AcDbEntity
8
body
6
ByLayer
62
7
370
-1
100
AcDbLine
10
1.99375
20
8.333875
11
1.99375
21
8.413625
0
LINE
5
114
100
AcDbEntity
8
body
6
ByLayer
62
7
370
-1
100
AcDbLine
10
1.953875
20
5.98125
11
2.033625
21
5.98125
0
LINE
5
115
100
AcDbEntity
8
body
6
ByLayer
62
7
370
-1
100
AcDbLine
10
1.99375
20
5.941375
11
1.99375
21
6.021125
0
LINE
5
116
100
AcDbEntity
8
body
6
ByLayer
62
7
370
-1
100
AcDbLine
10
-2.033625
20
5.98125
11
-1.953875
21
5.98125
0
LINE
5
117
100
AcDbEntity
8
body
6
ByLayer
62
7
370
-1
100
AcDbLine
10
-1.99375
20
5.941375
11
-1.99375
21
6.021125
0
LINE
5
118
100
AcDbEntity
8
body
6
ByLayer
62
7
370
-1
100
AcDbLine
10
-2.033625
20
8.37375
11
-1.953875
21
8.37375
0
LINE
5
119
100
AcDbEntity
8
body
6
ByLayer
62
7
370
-1
100
AcDbLine
10
-1.99375
20
8.333875
11
-1.99375
21
8.413625
0
LINE
5
11A
100
AcDbEntity
8
body
6
ByLayer
62
256
370
-1
100
AcDbLine
10
2.0735
20
0.23925
11
2.0735
21
0
0
LINE
5
11B
100
AcDbEntity
8
body
6
ByLayer
62
256
370
-1
100
AcDbLine
10
1.914
20
0.23925
11
1.914
21
0
0
LINE
5
11C
100
AcDbEntity
8
body
6
ByLayer
62
256
370
-1
100
AcDbLine
10
-1.914
20
0.23925
11
-1.914
21
0
0
LINE
5
11D
100
AcDbEntity
8
body
6
ByLayer
62
256
370
-1
100
AcDbLine
10
-2.0735
20
0.23925
11
-2.0735
21
0
0
CIRCLE
5
11E
100
AcDbEntity
8
body
6
ByLayer
62
256
370
-1
100
AcDbCircle
10
7.24e-17
20
8.05475
40
0.638
0
CIRCLE
5
11F
100
AcDbEntity
8
body
6
ByLayer
62
256
370
-1
100
AcDbCircle
10
7.24e-17
20
6.30025
40
0.638
0
LINE
5
120
100
AcDbEntity
8
body
6
ByLayer
62
7
370
-1
100
AcDbLine
10
-0.039875
20
8.05475
11
0.039875
21
8.05475
0
LINE
5
121
100
AcDbEntity
8
body
6
ByLayer
62
7
370
-1
100
AcDbLine
10
7.24e-17
20
8.014875
11
7.24e-17
21
8.094625
0
LINE
5
122
100
AcDbEntity
8
body
6
ByLayer
62
7
370
-1
100
AcDbLine
10
-0.039875
20
6.30025
11
0.039875
21
6.30025
0
LINE
5
123
100
AcDbEntity
8
body
6
ByLayer
62
7
370
-1
100
AcDbLine
10
7.24e-17
20
6.260375
11
7.24e-17
21
6.340125
0
LINE
5
124
100
AcDbEntity
8
body
6
DASHED
62
256
370
-1
100
AcDbLine
10
-5.52e-17
20
4.9445
11
2e-16
21
9.64975
0
LINE
5
125
100
AcDbEntity
8
body
6
DASHED
62
256
370
-1
100
AcDbLine
10
-2.31275
20
7.1775
11
2.31275
21
7.1775
0
LINE
5
126
100
AcDbEntity
8
body
6
ByLayer
62
256
370
-1
100
AcDbLine
10
1.7545
20
0.438625
11
1.7545
21
0.438625
0
ARC
5
127
100
AcDbEntity
8
body
6
ByLayer
62
256
370
-1
100
AcDbCircle
10
1.4355
20
1.38361078794
40
0.638
100
AcDbArc
50
318.590377086
51
87.9646455964
0
ARC
5
128
100
AcDbEntity
8
body
6
ByLayer
62
256
370
-1
100
AcDbCircle
10
-0.7975
20
8.85225
40
0.1595
100
AcDbArc
50
90
51
180
0
LINE
5
129
100
AcDbEntity
8
body
6
ByLayer
62
256
370
-1
100
AcDbLine
10
-0.7975
20
9.01175
11
0.7975
21
9.01175
0
ARC
5
12A
100
AcDbEntity
8
body
6
ByLayer
62
256
370
-1
100
AcDbCircle
10
0.7975
20
8.85225
40
0.1595
100
AcDbArc
50
0
51
90
0
LINE
5
12B
100
AcDbEntity
8
body
6
ByLayer
62
256
370
-1
100
AcDbLine
10
0.957
20
5.50275
11
0.957
21
8.85225
0
ARC
5
12C
100
AcDbEntity
8
body
6
ByLayer
62
256
370
-1
100
AcDbCircle
10
0.7975
20
5.50275
40
0.1595
100
AcDbArc
50
270
51
0
0
LINE
5
12D
100
AcDbEntity
8
body
6
ByLayer
62
256
370
-1
100
AcDbLine
10
-0.7975
20
5.34325
11
0.7975
21
5.34325
0
LINE
5
12E
100
AcDbEntity
8
body
6
ByLayer
62
256
370
-1
100
AcDbLine
10
-0.957
20
5.50275
11
-0.957
21
8.85225
0
ARC
5
12F
100
AcDbEntity
8
body
6
ByLayer
62
256
370
-1
100
AcDbCircle
10
-0.7975
20
5.50275
40
0.1595
100
AcDbArc
50
180
51
270
0
LINE
5
130
100
AcDbEntity
8
body
6
DASHED
62
256
370
-1
100
AcDbLine
10
-1.67475
20
9.01175
11
1.67475
21
9.01175
0
LINE
5
131
100
AcDbEntity
8
body
6
DASHED
62
256
370
-1
100
AcDbLine
10
-1.67475
20
5.34325
11
1.67475
21
5.34325
0
CIRCLE
5
132
100
AcDbEntity
8
sump
6
ByLayer
62
2
370
-1
100
AcDbCircle
10
3.0624
20
5.34325
40
0.1595
0
CIRCLE
5
133
100
AcDbEntity
8
sump
6
ByLayer
62
2
370
-1
100
AcDbCircle
10
3.0624
20
6.5395
40
0.1595
0
CIRCLE
5
134
100
AcDbEntity
8
sump
6
ByLayer
62
2
370
-1
100
AcDbCircle
10
3.0624
20
7.8155
40
0.1595
0
CIRCLE
5
135
100
AcDbEntity
8
sump
6
ByLayer
62
2
370
-1
100
AcDbCircle
10
3.0624
20
9.01175
40
0.1595
0
CIRCLE
5
136
100
AcDbEntity
8
sump
6
ByLayer
62
2
370
-1
100
AcDbCircle
10
6.0929
20
9.01175
40
0.1595
0
CIRCLE
5
137
100
AcDbEntity
8
sump
6
ByLayer
62
2
370
-1
100
AcDbCircle
10
6.0929
20
7.8155
40
0.1595
0
CIRCLE
5
138
100
AcDbEntity
8
sump
6
ByLayer
62
2
370
-1
100
AcDbCircle
10
6.0929
20
6.5395
40
0.1595
0
CIRCLE
5
139
100
AcDbEntity
8
sump
6
ByLayer
62
2
370
-1
100
AcDbCircle
10
6.0929
20
5.34325
40
0.1595
0
LINE
5
13A
100
AcDbEntity
8
sump
6
ByLayer
62
2
370
-1
100
AcDbLine
10
3.2219
20
9.01175
11
5.9334
21
9.01175
0
CIRCLE
5
13B
100
AcDbEntity
8
sump
6
ByLayer
62
2
370
-1
100
AcDbCircle
10
4.57765
20
8.613
40
0.319
0
LINE
5
13C
100
AcDbEntity
8
sump
6
ByLayer
62
2
370
-1
100
AcDbLine
10
3.7004
20
9.49025
11
3.7004
21
9.17125
0
LINE
5
13D
100
AcDbEntity
8
sump
6
ByLayer
62
2
370
-1
100
AcDbLine
10
5.4549
20
9.49025
11
5.4549
21
9.17125
0
LINE
5
13E
100
AcDbEntity
8
sump
6
ByLayer
62
2
370
-1
100
AcDbLine
10
5.9334
20
9.17125
11
5.9334
21
5.104
0
LINE
5
13F
100
AcDbEntity
8
sump
6
ByLayer
62
2
370
-1
100
AcDbLine
10
3.2219
20
9.17125
11
3.2219
21
5.104
0
LINE
5
140
100
AcDbEntity
8
sump
6
ByLayer
62
2
370
-1
100
AcDbLine
10
3.7004
20
9.49025
11
5.4549
21
9.49025
0
LINE
5
141
100
AcDbEntity
8
sump
6
ByLayer
62
2
370
-1
100
AcDbLine
10
3.0624
20
9.17125
11
3.0624
21
5.104
0
LINE
5
142
100
AcDbEntity
8
sump
6
ByLayer
62
2
370
-1
100
AcDbLine
10
6.0929
20
9.17125
11
6.0929
21
5.104
0
LINE
5
143
100
AcDbEntity
8
sump
6
ByLayer
62
2
370
-1
100
AcDbLine
10
3.0624
20
5.104
11
6.0929
21
5.104
0
LINE
5
144
100
AcDbEntity
8
sump
6
ByLayer
62
2
370
-1
100
AcDbLine
10
6.2524
20
5.34325
11
6.2524
21
9.01175
0
LINE
5
145
100
AcDbEntity
8
sump
6
ByLayer
62
2
370
-1
100
AcDbLine
10
2.9029
20
5.34325
11
2.9029
21
9.01175
0
LINE
5
146
100
AcDbEntity
8
sump
6
ByLayer
62
2
370
-1
100
AcDbLine
10
3.0624
20
9.17125
11
6.0929
21
9.17125
0
LINE
5
147
100
AcDbEntity
8
sump
6
ByLayer
62
2
370
-1
100
AcDbLine
10
5.21565
20
5.98125
11
5.21565
21
5.34325
0
LINE
5
148
100
AcDbEntity
8
sump
6
ByLayer
62
2
370
-1
100
AcDbLine
10
5.7739
20
5.98125
11
5.7739
21
5.34325
0
LINE
5
149
100
AcDbEntity
8
sump
6
ByLayer
62
2
370
-1
100
AcDbLine
10
5.21565
20
5.34325
11
5.7739
21
5.34325
0
LINE
5
14A
100
AcDbEntity
8
sump
6
ByLayer
62
2
370
-1
100
AcDbLine
10
5.21565
20
5.98125
11
5.7739
21
5.98125
0
LINE
5
14B
100
AcDbEntity
8
body
6
ByLayer
62
256
370
-1
100
AcDbLine
10
1.84660927972
20
0.838549243384
11
1.67475
21
0.23925
0
ARC
5
14C
100
AcDbEntity
8
body
6
ByLayer
62
256
370
-1
100
AcDbCircle
10
2.15325
20
0.750614786766
40
0.319
100
AcDbArc
50
138.590377891
51
163.998852724
0
LINE
5
14D
100
AcDbEntity
8
body
6
ByLayer
62
256
370
-1
100
AcDbLine
10
-2.05719550788
20
1.91683455405
11
-1.67475
21
0.23925
0
LINE
5
14E
100
AcDbEntity
8
body
6
ByLayer
62
256
370
-1
100
AcDbLine
10
-0.87725
20
2.233
11
-2.05719550788
21
1.91683455405
0
CIRCLE
5
14F
100
AcDbEntity
8
camplate
6
ByLayer
62
256
370
-1
100
AcDbCircle
10
1.1165
20
1.93613499556
40
0.07975
0
CIRCLE
5
150
100
AcDbEntity
8
camplate
6
ByLayer
62
256
370
-1
100
AcDbCircle
10
1.7545
20
0.831086580324
40
0.07975
0
LINE
5
151
100
AcDbEntity
8
camplate
6
ByLayer
62
256
370
-1
100
AcDbLine
10
1.20347715175
20
2.15901509241
11
1.66743907132
21
1.97795771289
0
LINE
5
152
100
AcDbEntity
8
camplate
6
ByLayer
62
256
370
-1
100
AcDbLine
10
2.06618907132
20
1.28730245336
11
1.99100840175
21
0.79497095486
0
LINE
5
153
100
AcDbEntity
8
camplate
6
ByLayer
62
256
370
-1
100
AcDbLine
10
1.66752284825
20
0.608206483469
11
1.20356092867
21
0.789263862994
0
LINE
5
154
100
AcDbEntity
8
camplate
6
ByLayer
62
256
370
-1
100
AcDbLine
10
0.804810928672
20
1.47991912251
11
0.879991598252
21
1.97225062102
0
LINE
5
155
100
AcDbEntity
8
camplate
6
ByLayer
62
7
370
-1
100
AcDbLine
10
1.395625
20
1.38361078794
11
1.475375
21
1.38361078794
0
LINE
5
156
100
AcDbEntity
8
camplate
6
ByLayer
62
7
370
-1
100
AcDbLine
10
1.4355
20
1.34373578794
11
1.4355
21
1.42348578794
0
ARC
5
157
100
AcDbEntity
8
camplate
6
ByLayer
62
256
370
-1
100
AcDbCircle
10
1.1165
20
1.93613499556
40
0.23925
100
AcDbArc
50
68.6821874535
51
171.317812547
0
ARC
5
158
100
AcDbEntity
8
camplate
6
ByLayer
62
256
370
-1
100
AcDbCircle
10
1.7545
20
0.831086580324
40
0.23925
100
AcDbArc
50
248.682187453
51
351.317812547
0
ARC
5
159
100
AcDbEntity
8
camplate
6
ByLayer
62
256
370
-1
100
AcDbCircle
10
1.4355
20
1.38361078794
40
0.638
100
AcDbArc
50
351.317812547
51
68.6821874535
0
ARC
5
15A
100
AcDbEntity
8
camplate
6
ByLayer
62
256
370
-1
100
AcDbCircle
10
1.4355
20
1.38361078794
40
0.638
100
AcDbArc
50
171.317812547
51
248.682187453
0
LINE
5
15B
100
AcDbEntity
8
body
6
ByLayer
62
256
370
-1
100
AcDbLine
10
-1.19625
20
2.233
11
-1.19625
21
3.0305
0
LINE
5
15C
100
AcDbEntity
8
body
6
ByLayer
62
256
370
-1
100
AcDbLine
10
-1.1165
20
3.0305
11
-1.19625
21
3.0305
0
LINE
5
15D
100
AcDbEntity
8
body
6
ByLayer
62
256
370
-1
100
AcDbLine
10
-1.1165
20
2.63175
11
-1.19625
21
2.63175
0
LINE
5
15E
100
AcDbEntity
8
body
6
ByLayer
62
256
370
-1
100
AcDbLine
10
-0.87725
20
2.233
11
-1.19625
21
2.233
0
CIRCLE
5
15F
100
AcDbEntity
8
body
6
ByLayer
62
256
370
-1
100
AcDbCircle
10
-2.7115
20
2.63175
40
0.07975
0
CIRCLE
5
160
100
AcDbEntity
8
body
6
ByLayer
62
256
370
-1
100
AcDbCircle
10
-3.6685
20
2.63175
40
0.07975
0
LINE
5
161
100
AcDbEntity
8
body
6
ByLayer
62
256
370
-1
100
AcDbLine
10
-3.788125
20
2.83894657786
11
-3.42925
21
3.04614315571
0
LINE
5
162
100
AcDbEntity
8
body
6
ByLayer
62
256
370
-1
100
AcDbLine
10
-2.95075
20
3.04614315571
11
-2.591875
21
2.83894657786
0
LINE
5
163
100
AcDbEntity
8
body
6
ByLayer
62
256
370
-1
100
AcDbLine
10
-2.591875
20
2.42455342214
11
-2.95075
21
2.21735684429
0
LINE
5
164
100
AcDbEntity
8
body
6
ByLayer
62
256
370
-1
100
AcDbLine
10
-3.42925
20
2.21735684429
11
-3.788125
21
2.42455342214
0
ARC
5
165
100
AcDbEntity
8
body
6
ByLayer
62
256
370
-1
100
AcDbCircle
10
-3.19
20
2.63175
40
0.4785
100
AcDbArc
50
60
51
120
0
ARC
5
166
100
AcDbEntity
8
body
6
ByLayer
62
256
370
-1
100
AcDbCircle
10
-3.19
20
2.63175
40
0.4785
100
AcDbArc
50
240
51
300
0
ARC
5
167
100
AcDbEntity
8
body
6
ByLayer
62
256
370
-1
100
AcDbCircle
10
-3.6685
20
2.63175
40
0.23925
100
AcDbArc
50
120
51
240
0
ARC
5
168
100
AcDbEntity
8
body
6
ByLayer
62
256
370
-1
100
AcDbCircle
10
-2.7115
20
2.63175
40
0.23925
100
AcDbArc
50
300
51
60
0
LINE
5
169
100
AcDbEntity
8
body
6
ByLayer
62
7
370
-1
100
AcDbLine
10
-3.708375
20
2.63175
11
-3.628625
21
2.63175
0
LINE
5
16A
100
AcDbEntity
8
body
6
ByLayer
62
7
370
-1
100
AcDbLine
10
-3.6685
20
2.591875
11
-3.6685
21
2.671625
0
LINE
5
16B
100
AcDbEntity
8
body
6
ByLayer
62
7
370
-1
100
AcDbLine
10
-2.751375
20
2.63175
11
-2.671625
21
2.63175
0
LINE
5
16C
100
AcDbEntity
8
body
6
ByLayer
62
7
370
-1
100
AcDbLine
10
-2.7115
20
2.591875
11
-2.7115
21
2.671625
0
CIRCLE
5
16D
100
AcDbEntity
8
body
6
ByLayer
62
256
370
-1
100
AcDbCircle
10
-3.19
20
2.63175
40
0.23925
0
LINE
5
16E
100
AcDbEntity
8
body
6
ByLayer
62
7
370
-1
100
AcDbLine
10
-3.229875
20
2.63175
11
-3.150125
21
2.63175
0
LINE
5
16F
100
AcDbEntity
8
body
6
ByLayer
62
7
370
-1
100
AcDbLine
10
-3.19
20
2.591875
11
-3.19
21
2.671625
0
LINE
5
170
100
AcDbEntity
8
body
6
ByLayer
62
256
370
-1
100
AcDbLine
10
-4.92855
20
1.914
11
-4.92855
21
3.19
0
LINE
5
171
100
AcDbEntity
8
body
6
ByLayer
62
256
370
-1
100
AcDbLine
10
-6.04505
20
1.914
11
-6.04505
21
3.19
0
LINE
5
172
100
AcDbEntity
8
body
6
ByLayer
62
7
370
-1
100
AcDbLine
10
-5.526675
20
1.914
11
-5.446925
21
1.914
0
LINE
5
173
100
AcDbEntity
8
body
6
ByLayer
62
7
370
-1
100
AcDbLine
10
-5.4868
20
1.874125
11
-5.4868
21
1.953875
0
ARC
5
174
100
AcDbEntity
8
body
6
ByLayer
62
256
370
-1
100
AcDbCircle
10
-5.4868
20
1.914
40
0.55825
100
AcDbArc
50
180
51
0
0
LINE
5
175
100
AcDbEntity
8
body
6
ByLayer
62
256
370
-1
100
AcDbLine
10
1.09255368094
20
2.42036078794
11
1.7545
21
2.42036078794
0
LINE
5
176
100
AcDbEntity
8
body
6
ByLayer
62
256
370
-1
100
AcDbLine
10
1.7545
20
1.93613499556
11
1.7545
21
2.42036078794
0
CIRCLE
5
177
100
AcDbEntity
8
body
6
ByLayer
62
256
370
-1
100
AcDbCircle
10
3.828
20
8.37375
40
0.23925
0
CIRCLE
5
178
100
AcDbEntity
8
body
6
ByLayer
62
256
370
-1
100
AcDbCircle
10
3.828
20
7.73575
40
0.23925
0
CIRCLE
5
179
100
AcDbEntity
8
body
6
ByLayer
62
256
370
-1
100
AcDbCircle
10
3.828
20
8.37375
40
0.199375
0
CIRCLE
5
17A
100
AcDbEntity
8
body
6
ByLayer
62
256
370
-1
100
AcDbCircle
10
3.828
20
7.73575
40
0.199375
0
ARC
5
17B
100
AcDbEntity
8
body
6
ByLayer
62
256
370
-1
100
AcDbCircle
10
3.64455368095
20
8.85225
40
0.1595
100
AcDbArc
50
180
51
270
0
ARC
5
17C
100
AcDbEntity
8
body
6
ByLayer
62
256
370
-1
100
AcDbCircle
10
3.64455368095
20
7.25725
40
0.1595
100
AcDbArc
50
90
51
180
0
ARC
5
17D
100
AcDbEntity
8
body
6
ByLayer
62
256
370
-1
100
AcDbCircle
10
3.828
20
8.37375
40
0.319
100
AcDbArc
50
0
51
90
0
ARC
5
17E
100
AcDbEntity
8
body
6
ByLayer
62
256
370
-1
100
AcDbCircle
10
3.828
20
7.73575
40
0.319
100
AcDbArc
50
270
51
0
0
LINE
5
17F
100
AcDbEntity
8
body
6
ByLayer
62
256
370
-1
100
AcDbLine
10
3.64455368095
20
8.69275
11
3.828
21
8.69275
0
LINE
5
180
100
AcDbEntity
8
body
6
ByLayer
62
256
370
-1
100
AcDbLine
10
4.147
20
8.37375
11
4.147
21
7.73575
0
LINE
5
181
100
AcDbEntity
8
body
6
ByLayer
62
256
370
-1
100
AcDbLine
10
3.64455368095
20
7.41675
11
3.828
21
7.41675
0
CIRCLE
5
182
100
AcDbEntity
8
body
6
ByLayer
62
256
370
-1
100
AcDbCircle
10
3.828
20
6.61925
40
0.23925
0
CIRCLE
5
183
100
AcDbEntity
8
body
6
ByLayer
62
256
370
-1
100
AcDbCircle
10
3.828
20
5.98125
40
0.23925
0
CIRCLE
5
184
100
AcDbEntity
8
body
6
ByLayer
62
256
370
-1
100
AcDbCircle
10
3.828
20
6.61925
40
0.199375
0
CIRCLE
5
185
100
AcDbEntity
8
body
6
ByLayer
62
256
370
-1
100
AcDbCircle
10
3.828
20
5.98125
40
0.199375
0
ARC
5
186
100
AcDbEntity
8
body
6
ByLayer
62
256
370
-1
100
AcDbCircle
10
3.64455368095
20
7.09775
40
0.1595
100
AcDbArc
50
180
51
270
0
ARC
5
187
100
AcDbEntity
8
body
6
ByLayer
62
256
370
-1
100
AcDbCircle
10
3.64455368095
20
5.50275
40
0.1595
100
AcDbArc
50
90
51
180
0
ARC
5
188
100
AcDbEntity
8
body
6
ByLayer
62
256
370
-1
100
AcDbCircle
10
3.828
20
6.61925
40
0.319
100
AcDbArc
50
0
51
90
0
ARC
5
189
100
AcDbEntity
8
body
6
ByLayer
62
256
370
-1
100
AcDbCircle
10
3.828
20
5.98125
40
0.319
100
AcDbArc
50
270
51
0
0
LINE
5
18A
100
AcDbEntity
8
body
6
ByLayer
62
256
370
-1
100
AcDbLine
10
3.64455368095
20
6.93825
11
3.828
21
6.93825
0
LINE
5
18B
100
AcDbEntity
8
body
6
ByLayer
62
256
370
-1
100
AcDbLine
10
4.147
20
6.61925
11
4.147
21
5.98125
0
LINE
5
18C
100
AcDbEntity
8
body
6
ByLayer
62
256
370
-1
100
AcDbLine
10
3.64455368095
20
5.66225
11
3.828
21
5.66225
0
LINE
5
18D
100
AcDbEntity
8
body
6
ByLayer
62
256
370
-1
100
AcDbLine
10
3.48505368095
20
8.85225
11
3.48505368095
21
5.50275
0
LINE
5
18E
100
AcDbEntity
8
body
6
ByLayer
62
7
370
-1
100
AcDbLine
10
3.788125
20
8.05475
11
3.867875
21
8.05475
0
LINE
5
18F
100
AcDbEntity
8
body
6
ByLayer
62
7
370
-1
100
AcDbLine
10
3.828
20
8.014875
11
3.828
21
8.094625
0
LINE
5
190
100
AcDbEntity
8
body
6
ByLayer
62
7
370
-1
100
AcDbLine
10
3.788125
20
6.30025
11
3.867875
21
6.30025
0
LINE
5
191
100
AcDbEntity
8
body
6
ByLayer
62
7
370
-1
100
AcDbLine
10
3.828
20
6.260375
11
3.828
21
6.340125
0
ARC
5
192
100
AcDbEntity
8
body
6
ByLayer
62
256
370
-1
100
AcDbCircle
10
-5.52e-17
20
0
40
0.87725
100
AcDbArc
50
0
51
180
0
LINE
5
193
100
AcDbEntity
8
lower_core
6
ByLayer
62
256
370
-1
100
AcDbLine
10
-1.35575
20
3.13713660141e-16
11
1.35575
21
1.44136562203e-16
0
LINE
5
194
100
AcDbEntity
8
lower_core
6
ByLayer
62
256
370
-1
100
AcDbLine
10
1.35575
20
1.44136562203e-16
11
1.35575
21
0.683807378049
0
ARC
5
195
100
AcDbEntity
8
lower_core
6
ByLayer
62
256
370
-1
100
AcDbCircle
10
1.595
20
0.683807378049
40
0.23925
100
AcDbArc
50
102.839588407
51
180
0
ARC
5
196
100
AcDbEntity
8
lower_core
6
ByLayer
62
256
370
-1
100
AcDbCircle
10
1.4355
20
1.38361078794
40
0.4785
100
AcDbArc
50
282.839607671
51
90.0000011384
0
LINE
5
197
100
AcDbEntity
8
lower_core
6
ByLayer
62
256
370
-1
100
AcDbLine
10
-1.35575
20
3.13713660141e-16
11
-0.803225792386
21
-0.957
0
LINE
5
198
100
AcDbEntity
8
lower_core
6
ByLayer
62
256
370
-1
100
AcDbLine
10
1.35575
20
1.44136562203e-16
11
0.803225792386
21
-0.957
0
LINE
5
199
100
AcDbEntity
8
lower_core
6
ByLayer
62
256
370
-1
100
AcDbLine
10
-0.803225792386
20
-0.957
11
0.803225792386
21
-0.957
0
LINE
5
19A
100
AcDbEntity
8
lower_core
6
ByLayer
62
256
370
-1
100
AcDbLine
10
1.43550000951
20
1.86211078794
11
6.02988321691e-17
21
1.91223955288
0
LINE
5
19B
100
AcDbEntity
8
lower_core
6
ByLayer
62
256
370
-1
100
AcDbLine
10
6.02988321691e-17
20
1.91223955288
11
-0.724595704277
21
1.86718124625
0
ARC
5
19C
100
AcDbEntity
8
lower_core
6
ByLayer
62
256
370
-1
100
AcDbCircle
10
-0.714696466859
20
1.7079887367
40
0.1595
100
AcDbArc
50
93.5583027337
51
148.509267117
0
ARC
5
19D
100
AcDbEntity
8
lower_core
6
ByLayer
62
256
370
-1
100
AcDbCircle
10
2.0735
20
-1.06248343457e-16
40
3.42925
100
AcDbArc
50
148.509267489
51
180
0
LINE
5
19E
100
AcDbEntity
8
water_jacket
6
ByLayer
62
256
370
-1
100
AcDbLine
10
-0.803066469724
20
3.91312547733
11
-5.52e-17
21
3.94116917641
0
ARC
5
19F
100
AcDbEntity
8
water_jacket
6
ByLayer
62
256
370
-1
100
AcDbCircle
10
-0.7975
20
3.75372264042
40
0.1595
100
AcDbArc
50
92.0000000001
51
180
0
LINE
5
1A0
100
AcDbEntity
8
water_jacket
6
ByLayer
62
256
370
-1
100
AcDbLine
10
0.803066469724
20
3.91312547733
11
-5.52e-17
21
3.94116917641
0
ARC
5
1A1
100
AcDbEntity
8
water_jacket
6
ByLayer
62
256
370
-1
100
AcDbCircle
10
0.7975
20
3.75372264042
40
0.1595
100
AcDbArc
50
0
51
87.9999999999
0
LINE
5
1A2
100
AcDbEntity
8
water_jacket
6
ByLayer
62
256
370
-1
100
AcDbLine
10
0.957
20
3.75372264042
11
0.957
21
2.54652735958
0
LINE
5
1A3
100
AcDbEntity
8
water_jacket
6
ByLayer
62
256
370
-1
100
AcDbLine
10
0.803066469724
20
2.38712452267
11
-1.81882506166e-14
21
2.35908082359
0
ARC
5
1A4
100
AcDbEntity
8
water_jacket
6
ByLayer
62
256
370
-1
100
AcDbCircle
10
0.7975
20
2.54652735958
40
0.1595
100
AcDbArc
50
272
51
0
0
LINE
5
1A5
100
AcDbEntity
8
water_jacket
6
ByLayer
62
256
370
-1
100
AcDbLine
10
-0.803066469724
20
2.38712452267
11
-2.72547759249e-14
21
2.35908082359
0
LINE
5
1A6
100
AcDbEntity
8
water_jacket
6
ByLayer
62
256
370
-1
100
AcDbLine
10
-0.957
20
2.54652735958
11
-0.957
21
3.75372264042
0
ARC
5
1A7
100
AcDbEntity
8
water_jacket
6
ByLayer
62
256
370
-1
100
AcDbCircle
10
-0.7975
20
2.54652735958
40
0.1595
100
AcDbArc
50
180
51
268
0
LINE
5
1A8
100
AcDbEntity
8
core_blocks
6
ByLayer
62
256
370
-1
100
AcDbLine
10
-2.552
20
4.89816917641
11
2.552
21
4.89816917641
0
LINE
5
1A9
100
AcDbEntity
8
core_blocks
6
ByLayer
62
256
370
-1
100
AcDbLine
10
-2.552
20
2.14065567488
11
2.552
21
2.14065567488
0
LINE
5
1AA
100
AcDbEntity
8
core_blocks
6
ByLayer
62
256
370
-1
100
AcDbLine
10
-2.552
20
2.28925111172e-16
11
2.552
21
2.28925111172e-16
0
LINE
5
1AB
100
AcDbEntity
8
core_blocks
6
ByLayer
62
256
370
-1
100
AcDbLine
10
-2.552
20
-0.957
11
2.552
21
-0.957
0
LINE
5
1AC
100
AcDbEntity
8
core_blocks
6
ByLayer
62
256
370
-1
100
AcDbLine
10
2.552
20
4.89816917641
11
2.552
21
-0.957
0
LINE
5
1AD
100
AcDbEntity
8
core_blocks
6
ByLayer
62
256
370
-1
100
AcDbLine
10
1.53153242095e-16
20
4.89816917641
11
-3.24881037262e-16
21
-0.957
0
LINE
5
1AE
100
AcDbEntity
8
core_blocks
6
ByLayer
62
256
370
-1
100
AcDbLine
10
-2.552
20
4.89816917641
11
-2.552
21
-0.957
0
LINE
5
1AF
100
AcDbEntity
8
lower_core
6
ByLayer
62
256
370
-1
100
AcDbLine
10
1.3717
20
1.38361078794
11
1.4993
21
1.38361078794
0
LINE
5
1B0
100
AcDbEntity
8
lower_core
6
ByLayer
62
256
370
-1
100
AcDbLine
10
1.4355
20
1.31981078794
11
1.4355
21
1.44741078794
0
ENDSEC
0
SECTION
2
OBJECTS
0
DICTIONARY
5
C
330
0
100
AcDbDictionary
281
1
3
ACAD_GROUP
350
D
0
DICTIONARY
5
D
330
C
100
AcDbDictionary
281
1
0
ENDSEC
0
EOF
