999
dxfrw 0.5.10
0
SECTION
2
HEADER
9
$ACADVER
1
AC1021
9
$HANDSEED
5
20000
9
$DWGCODEPAGE
3
ANSI_1252
9
$INSBASE
10
0
20
0
30
0
9
$EXTMIN
10
-4.7375
20
-0.75
30
0
9
$EXTMAX
10
3.25
20
7.5625
30
0
9
$LIMMIN
10
0
20
0
9
$LIMMAX
10
420
20
297
9
$ORTHOMODE
70
0
9
$LTSCALE
40
1
9
$TEXTSTYLE
7
STANDARD
9
$CLAYER
8
lower_core
9
$DIMASZ
40
0.1
9
$DIMLFAC
40
1
9
$DIMSCALE
40
1
9
$DIMEXO
40
0.025
9
$DIMEXE
40
0.05
9
$DIMTXT
40
0.1
9
$DIMTSZ
40
0
9
$DIMAUNIT
70
0
9
$DIMADEC
70
0
9
$DIMLUNIT
70
2
9
$DIMSTYLE
2
Standard
9
$DIMGAP
40
0.025
9
$DIMTIH
70
0
9
$LUNITS
70
2
9
$LUPREC
70
4
9
$AUNITS
70
0
9
$AUPREC
70
2
9
$SPLINESEGS
70
8
9
$GRIDMODE
70
1
9
$SNAPSTYLE
70
0
9
$PINSBASE
10
0
20
0
30
0
9
$PLIMMIN
10
0
20
0
9
$PLIMMAX
10
8.26771653543
20
11.6929133858
9
$INSUNITS
70
1
9
$PSVPSCALE
40
1
0
ENDSEC
0
SECTION
2
CLASSES
0
ENDSEC
0
SECTION
2
TABLES
0
TABLE
2
VPORT
5
8
330
0
100
AcDbSymbolTable
70
1
0
VPORT
5
31
330
2
100
AcDbSymbolTableRecord
100
AcDbViewportTableRecord
2
*ACTIVE
70
0
10
0
20
0
11
1
21
1
12
4.49233851482
22
4.29148880477
13
0
23
0
14
10
24
10
15
10
25
10
16
0
26
0
36
1
17
0
27
0
37
0
40
10.6584246134
41
2.03140703518
42
50
43
0
44
0
50
0
51
0
71
0
72
100
73
1
74
3
75
0
76
1
77
0
78
0
281
0
65
1
110
0
120
0
130
0
111
1
121
0
131
0
112
0
122
1
132
0
79
0
146
0
348
10020
60
7
61
5
292
1
282
1
141
0
142
0
63
250
421
3358443
0
ENDTAB
0
TABLE
2
LTYPE
5
5
330
0
100
AcDbSymbolTable
70
4
0
LTYPE
5
14
330
5
100
AcDbSymbolTableRecord
100
AcDbLinetypeTableRecord
2
ByBlock
70
0
3

72
65
73
0
40
0
0
LTYPE
5
15
330
5
100
AcDbSymbolTableRecord
100
AcDbLinetypeTableRecord
2
ByLayer
70
0
3

72
65
73
0
40
0
0
LTYPE
5
16
330
5
100
AcDbSymbolTableRecord
100
AcDbLinetypeTableRecord
2
Continuous
70
0
3
Solid line
72
65
73
0
40
0
0
LTYPE
5
32
330
5
100
AcDbSymbolTableRecord
100
AcDbLinetypeTableRecord
2
DOT
70
0
3
Dot . . . . . . . . . . . . . . . . . . . . . .
72
65
73
2
40
6.35
49
0
74
0
49
-6.35
74
0
0
LTYPE
5
33
330
5
100
AcDbSymbolTableRecord
100
AcDbLinetypeTableRecord
2
DOT2
70
0
3
Dot (.5x) .....................................
72
65
73
2
40
3.175
49
0
74
0
49
-3.175
74
0
0
LTYPE
5
34
330
5
100
AcDbSymbolTableRecord
100
AcDbLinetypeTableRecord
2
DOTX2
70
0
3
Dot (2x) .  .  .  .  .  .  .  .  .  .  .  .  .
72
65
73
2
40
12.7
49
0
74
0
49
-12.7
74
0
0
LTYPE
5
35
330
5
100
AcDbSymbolTableRecord
100
AcDbLinetypeTableRecord
2
DASHED
70
0
3
Dot . . . . . . . . . . . . . . . . . . . . . .
72
65
73
2
40
19.05
49
12.7
74
0
49
-6.35
74
0
0
LTYPE
5
36
330
5
100
AcDbSymbolTableRecord
100
AcDbLinetypeTableRecord
2
DASHED2
70
0
3
Dashed (.5x) _ _ _ _ _ _ _ _ _ _ _ _ _ _ _ _ _
72
65
73
2
40
9.525
49
6.35
74
0
49
-3.175
74
0
0
LTYPE
5
37
330
5
100
AcDbSymbolTableRecord
100
AcDbLinetypeTableRecord
2
DASHEDX2
70
0
3
Dashed (2x) ____  ____  ____  ____  ____  ___
72
65
73
2
40
38.1
49
25.4
74
0
49
-12.7
74
0
0
LTYPE
5
38
330
5
100
AcDbSymbolTableRecord
100
AcDbLinetypeTableRecord
2
DASHDOT
70
0
3
Dash dot __ . __ . __ . __ . __ . __ . __ . __
72
65
73
4
40
25.4
49
12.7
74
0
49
-6.35
74
0
49
0
74
0
49
-6.35
74
0
0
LTYPE
5
39
330
5
100
AcDbSymbolTableRecord
100
AcDbLinetypeTableRecord
2
DASHDOT2
70
0
3
Dash dot (.5x) _._._._._._._._._._._._._._._.
72
65
73
4
40
12.7
49
6.35
74
0
49
-3.175
74
0
49
0
74
0
49
-3.175
74
0
0
LTYPE
5
3A
330
5
100
AcDbSymbolTableRecord
100
AcDbLinetypeTableRecord
2
DASHDOTX2
70
0
3
Dash dot (2x) ____  .  ____  .  ____  .  ___
72
65
73
4
40
50.8
49
25.4
74
0
49
-12.7
74
0
49
0
74
0
49
-12.7
74
0
0
LTYPE
5
3B
330
5
100
AcDbSymbolTableRecord
100
AcDbLinetypeTableRecord
2
DIVIDE
70
0
3
Divide ____ . . ____ . . ____ . . ____ . . ____
72
65
73
6
40
31.75
49
12.7
74
0
49
-6.35
74
0
49
0
74
0
49
-6.35
74
0
49
0
74
0
49
-6.35
74
0
0
LTYPE
5
3C
330
5
100
AcDbSymbolTableRecord
100
AcDbLinetypeTableRecord
2
DIVIDE2
70
0
3
Divide (.5x) __..__..__..__..__..__..__..__.._
72
65
73
6
40
15.875
49
6.35
74
0
49
-3.175
74
0
49
0
74
0
49
-3.175
74
0
49
0
74
0
49
-3.175
74
0
0
LTYPE
5
3D
330
5
100
AcDbSymbolTableRecord
100
AcDbLinetypeTableRecord
2
DIVIDEX2
70
0
3
Divide (2x) ________  .  .  ________  .  .  _
72
65
73
6
40
63.5
49
25.4
74
0
49
-12.7
74
0
49
0
74
0
49
-12.7
74
0
49
0
74
0
49
-12.7
74
0
0
LTYPE
5
3E
330
5
100
AcDbSymbolTableRecord
100
AcDbLinetypeTableRecord
2
BORDER
70
0
3
Border __ __ . __ __ . __ __ . __ __ . __ __ .
72
65
73
6
40
44.45
49
12.7
74
0
49
-6.35
74
0
49
12.7
74
0
49
-6.35
74
0
49
0
74
0
49
-6.35
74
0
0
LTYPE
5
3F
330
5
100
AcDbSymbolTableRecord
100
AcDbLinetypeTableRecord
2
BORDER2
70
0
3
Border (.5x) __.__.__.__.__.__.__.__.__.__.__.
72
65
73
6
40
22.225
49
6.35
74
0
49
-3.175
74
0
49
6.35
74
0
49
-3.175
74
0
49
0
74
0
49
-3.175
74
0
0
LTYPE
5
40
330
5
100
AcDbSymbolTableRecord
100
AcDbLinetypeTableRecord
2
BORDERX2
70
0
3
Border (2x) ____  ____  .  ____  ____  .  ___
72
65
73
6
40
88.9
49
25.4
74
0
49
-12.7
74
0
49
25.4
74
0
49
-12.7
74
0
49
0
74
0
49
-12.7
74
0
0
LTYPE
5
41
330
5
100
AcDbSymbolTableRecord
100
AcDbLinetypeTableRecord
2
CENTER
70
0
3
Center ____ _ ____ _ ____ _ ____ _ ____ _ ____
72
65
73
4
40
50.8
49
31.75
74
0
49
-6.35
74
0
49
6.35
74
0
49
-6.35
74
0
0
LTYPE
5
42
330
5
100
AcDbSymbolTableRecord
100
AcDbLinetypeTableRecord
2
CENTER2
70
0
3
Center (.5x) ___ _ ___ _ ___ _ ___ _ ___ _ ___
72
65
73
4
40
28.575
49
19.05
74
0
49
-3.175
74
0
49
3.175
74
0
49
-3.175
74
0
0
LTYPE
5
43
330
5
100
AcDbSymbolTableRecord
100
AcDbLinetypeTableRecord
2
CENTERX2
70
0
3
Center (2x) ________  __  ________  __  _____
72
65
73
4
40
101.6
49
63.5
74
0
49
-12.7
74
0
49
12.7
74
0
49
-12.7
74
0
0
ENDTAB
0
TABLE
2
LAYER
5
2
330
0
100
AcDbSymbolTable
70
1
0
LAYER
5
10
330
2
100
AcDbSymbolTableRecord
100
AcDbLayerTableRecord
2
0
70
0
62
7
6
CONTINUOUS
370
0
390
F
0
LAYER
5
44
330
2
100
AcDbSymbolTableRecord
100
AcDbLayerTableRecord
2
body
70
0
62
7
6
CONTINUOUS
370
0
390
F
0
LAYER
5
45
330
2
100
AcDbSymbolTableRecord
100
AcDbLayerTableRecord
2
sump
70
1
62
7
6
CONTINUOUS
370
0
390
F
0
LAYER
5
46
330
2
100
AcDbSymbolTableRecord
100
AcDbLayerTableRecord
2
timing_cover
70
1
62
7
6
CONTINUOUS
370
0
390
F
0
LAYER
5
47
330
2
100
AcDbSymbolTableRecord
100
AcDbLayerTableRecord
2
crank
70
1
62
3
6
CONTINUOUS
370
0
390
F
0
LAYER
5
48
330
2
100
AcDbSymbolTableRecord
100
AcDbLayerTableRecord
2
liner
70
1
62
9
6
CONTINUOUS
370
0
390
F
0
LAYER
5
49
330
2
100
AcDbSymbolTableRecord
100
AcDbLayerTableRecord
2
camplate
70
1
62
7
6
CONTINUOUS
370
0
390
F
0
LAYER
5
4A
330
2
100
AcDbSymbolTableRecord
100
AcDbLayerTableRecord
2
lower_core
70
5
62
2
6
CONTINUOUS
370
0
390
F
0
LAYER
5
4B
330
2
100
AcDbSymbolTableRecord
100
AcDbLayerTableRecord
2
water_jacket
70
1
62
5
6
CONTINUOUS
370
0
390
F
0
LAYER
5
4C
330
2
100
AcDbSymbolTableRecord
100
AcDbLayerTableRecord
2
core_blocks
70
1
62
7
6
CONTINUOUS
370
0
390
F
0
ENDTAB
0
TABLE
2
STYLE
5
3
330
0
100
AcDbSymbolTable
70
3
0
STYLE
5
4D
330
2
100
AcDbSymbolTableRecord
100
AcDbTextStyleTableRecord
2
Standard
70
0
40
0
41
1
50
0
71
0
42
1
3
txt
4

0
ENDTAB
0
TABLE
2
VIEW
5
6
330
0
100
AcDbSymbolTable
70
0
0
ENDTAB
0
TABLE
2
UCS
5
7
330
0
100
AcDbSymbolTable
70
0
0
ENDTAB
0
TABLE
2
APPID
5
9
330
0
100
AcDbSymbolTable
70
1
0
APPID
5
12
330
9
100
AcDbSymbolTableRecord
100
AcDbRegAppTableRecord
2
ACAD
70
0
0
ENDTAB
0
TABLE
2
DIMSTYLE
5
A
330
0
100
AcDbSymbolTable
70
1
100
AcDbDimStyleTable
71
1
0
DIMSTYLE
105
4E
330
A
100
AcDbSymbolTableRecord
100
AcDbDimStyleTableRecord
2
Standard
70
0
40
1
41
0.1
42
0.025
43
0.38
44
0.05
45
0
46
0
47
0
48
0
140
0.1
141
0.09
142
0
143
25.4
144
1
145
0
146
1
147
0.025
148
0
71
0
72
0
73
0
74
1
75
0
76
0
77
0
78
0
79
0
170
0
171
2
172
0
173
0
174
0
175
0
176
0
177
0
178
0
179
0
271
4
272
4
273
2
274
2
275
0
276
0
277
2
278
46
279
0
280
0
281
0
282
0
283
1
284
0
285
0
286
0
288
0
289
3
340
Standard
341

371
-2
372
-2
0
ENDTAB
0
TABLE
2
BLOCK_RECORD
5
1
330
0
100
AcDbSymbolTable
70
2
0
BLOCK_RECORD
5
1F
330
1
100
AcDbSymbolTableRecord
100
AcDbBlockTableRecord
2
*Model_Space
70
0
280
1
281
0
0
BLOCK_RECORD
5
1E
330
1
100
AcDbSymbolTableRecord
100
AcDbBlockTableRecord
2
*Paper_Space
70
0
280
1
281
0
0
ENDTAB
0
ENDSEC
0
SECTION
2
BLOCKS
0
BLOCK
5
20
330
1F
100
AcDbEntity
8
0
100
AcDbBlockBegin
2
*Model_Space
70
0
10
0
20
0
30
0
3
*Model_Space
1

0
ENDBLK
5
21
330
1F
100
AcDbEntity
8
0
100
AcDbBlockEnd
0
BLOCK
5
1C
330
1B
100
AcDbEntity
8
0
100
AcDbBlockBegin
2
*Paper_Space
70
0
10
0
20
0
30
0
3
*Paper_Space
1

0
ENDBLK
5
1D
330
1F
100
AcDbEntity
8
0
100
AcDbBlockEnd
0
ENDSEC
0
SECTION
2
ENTITIES
0
LINE
5
4F
100
AcDbEntity
8
sump
6
ByLayer
62
2
370
-1
100
AcDbLine
10
-1.0625
20
-0.625
11
-1.0625
21
-0
0
LINE
5
50
100
AcDbEntity
8
sump
6
ByLayer
62
2
370
-1
100
AcDbLine
10
1.0625
20
-0.625
11
1.0625
21
1e-16
0
LINE
5
51
100
AcDbEntity
8
sump
6
ByLayer
62
2
370
-1
100
AcDbLine
10
-1.0625
20
-0.625
11
-1.3125
21
-0.625
0
LINE
5
52
100
AcDbEntity
8
sump
6
ByLayer
62
2
370
-1
100
AcDbLine
10
1.3125
20
-0.625
11
1.0625
21
-0.625
0
LINE
5
53
100
AcDbEntity
8
sump
6
ByLayer
62
2
370
-1
100
AcDbLine
10
-1.65625
20
-0
11
-1.59375
21
-0
0
LINE
5
54
100
AcDbEntity
8
sump
6
ByLayer
62
2
370
-1
100
AcDbLine
10
1.59375
20
-0
11
1.65625
21
-0
0
LINE
5
55
100
AcDbEntity
8
sump
6
ByLayer
62
2
370
-1
100
AcDbLine
10
-1.625
20
-0.03125
11
-1.625
21
0.03125
0
LINE
5
56
100
AcDbEntity
8
sump
6
ByLayer
62
2
370
-1
100
AcDbLine
10
1.625
20
-0.03125
11
1.625
21
0.03125
0
LINE
5
57
100
AcDbEntity
8
sump
6
ByLayer
62
2
370
-1
100
AcDbLine
10
1.3125
20
-0
11
-1.0625
21
-0
0
LINE
5
58
100
AcDbEntity
8
sump
6
ByLayer
62
2
370
-1
100
AcDbLine
10
-1.0625
20
-0
11
-1.3125
21
-0
0
ARC
5
59
100
AcDbEntity
8
sump
6
ByLayer
62
2
370
-1
100
AcDbCircle
10
1.625
20
-0
40
2.8125
100
AcDbArc
50
180
51
218.478595133
0
LINE
5
5A
100
AcDbEntity
8
sump
6
ByLayer
62
2
370
-1
100
AcDbLine
10
0.576739369226
20
-1.75
11
-0.576739369226
21
-1.75
0
ARC
5
5B
100
AcDbEntity
8
sump
6
ByLayer
62
2
370
-1
100
AcDbCircle
10
-1.625
20
-0
40
2.6875
100
AcDbArc
50
322.796256009
51
0
0
ARC
5
5C
100
AcDbEntity
8
sump
6
ByLayer
62
2
370
-1
100
AcDbCircle
10
1.625
20
-0
40
2.6875
100
AcDbArc
50
180
51
217.203743991
0
LINE
5
5D
100
AcDbEntity
8
sump
6
ByLayer
62
2
370
-1
100
AcDbLine
10
-1.3125
20
-0.625
11
-1.3125
21
-0
0
LINE
5
5E
100
AcDbEntity
8
sump
6
ByLayer
62
2
370
-1
100
AcDbLine
10
1.3125
20
-0.625
11
1.3125
21
-0
0
LINE
5
5F
100
AcDbEntity
8
sump
6
ByLayer
62
2
370
-1
100
AcDbLine
10
-1.1875
20
-0.625
11
-1.1875
21
-0
0
ARC
5
60
100
AcDbEntity
8
sump
6
ByLayer
62
2
370
-1
100
AcDbCircle
10
-1.625
20
-0
40
2.8125
100
AcDbArc
50
321.521404867
51
0
0
LINE
5
61
100
AcDbEntity
8
sump
6
ByLayer
62
2
370
-1
100
AcDbLine
10
1.1875
20
-0.625
11
1.1875
21
-0
0
LINE
5
62
100
AcDbEntity
8
sump
6
ByLayer
62
2
370
-1
100
AcDbLine
10
1.3125
20
-0.15625
11
-1.3125
21
-0.15625
0
ARC
5
63
100
AcDbEntity
8
sump
6
ByLayer
62
2
370
-1
100
AcDbCircle
10
0
20
-0
40
0.6875
100
AcDbArc
50
180
51
0
0
ARC
5
64
100
AcDbEntity
8
sump
6
ByLayer
62
2
370
-1
100
AcDbCircle
10
0
20
-0
40
0.4375
100
AcDbArc
50
180
51
360
0
LINE
5
65
100
AcDbEntity
8
sump
6
ByLayer
62
2
370
-1
100
AcDbLine
10
0.25
20
-1.8125
11
0.25
21
-1.75
0
LINE
5
66
100
AcDbEntity
8
sump
6
ByLayer
62
2
370
-1
100
AcDbLine
10
-0.25
20
-1.8125
11
-0.25
21
-1.75
0
LINE
5
67
100
AcDbEntity
8
sump
6
ByLayer
62
2
370
-1
100
AcDbLine
10
0.25
20
-1.8125
11
-0.25
21
-1.8125
0
ARC
5
68
100
AcDbEntity
8
timing_cover
6
ByLayer
62
4
370
-1
100
AcDbCircle
10
1.125
20
1.08433447331
40
0.6875
100
AcDbArc
50
309.356953827
51
138.534085298
0
LINE
5
69
100
AcDbEntity
8
timing_cover
6
ByLayer
62
4
370
-1
100
AcDbLine
10
0.03125
20
-4e-16
11
-0.03125
21
4e-16
0
LINE
5
6A
100
AcDbEntity
8
timing_cover
6
ByLayer
62
4
370
-1
100
AcDbLine
10
2e-16
20
-0.03125
11
-2e-16
21
0.03125
0
LINE
5
6B
100
AcDbEntity
8
timing_cover
6
ByLayer
62
4
370
-1
100
AcDbLine
10
1.15625
20
1.08433447331
11
1.09375
21
1.08433447331
0
LINE
5
6C
100
AcDbEntity
8
timing_cover
6
ByLayer
62
4
370
-1
100
AcDbLine
10
1.125
20
1.05308447331
11
1.125
21
1.11558447331
0
LINE
5
6D
100
AcDbEntity
8
timing_cover
6
ByLayer
62
4
370
-1
100
AcDbLine
10
0.03125
20
-0.9375
11
-0.03125
21
-0.9375
0
LINE
5
6E
100
AcDbEntity
8
timing_cover
6
ByLayer
62
4
370
-1
100
AcDbLine
10
2e-15
20
-0.96875
11
-2e-16
21
-0.90625
0
LINE
5
6F
100
AcDbEntity
8
timing_cover
6
ByLayer
62
4
370
-1
100
AcDbLine
10
1.64024669735
20
0.45610116404
11
0.757219296232
21
-0.268115373642
0
ARC
5
70
100
AcDbEntity
8
timing_cover
6
ByLayer
62
4
370
-1
100
AcDbCircle
10
0.796853657566
20
-0.316441012816
40
0.0625
100
AcDbArc
50
129.356953827
51
234.322694314
0
CIRCLE
5
71
100
AcDbEntity
8
timing_cover
6
ByLayer
62
4
370
-1
100
AcDbCircle
10
0.6875
20
-0.46875
40
0.125
0
ARC
5
72
100
AcDbEntity
8
timing_cover
6
ByLayer
62
4
370
-1
100
AcDbCircle
10
0.811244584476
20
-0.609617057231
40
0.0625
100
AcDbArc
50
131.297670063
51
202.007216027
0
ARC
5
73
100
AcDbEntity
8
timing_cover
6
ByLayer
62
4
370
-1
100
AcDbCircle
10
-0.811244584476
20
-0.609617057231
40
0.0625
100
AcDbArc
50
337.992783973
51
48.7023299371
0
ARC
5
74
100
AcDbEntity
8
timing_cover
6
ByLayer
62
4
370
-1
100
AcDbCircle
10
2e-16
20
-0.9375
40
0.8125
100
AcDbArc
50
318.901425631
51
22.0072160273
0
ARC
5
75
100
AcDbEntity
8
timing_cover
6
ByLayer
62
4
370
-1
100
AcDbCircle
10
0.659382280248
20
-1.51268693352
40
0.0625
100
AcDbArc
50
138.901425631
51
203.524492106
0
CIRCLE
5
76
100
AcDbEntity
8
timing_cover
6
ByLayer
62
4
370
-1
100
AcDbCircle
10
0.487465491839
20
-1.58752587969
40
0.125
0
ARC
5
77
100
AcDbEntity
8
timing_cover
6
ByLayer
62
4
370
-1
100
AcDbCircle
10
0.367468104928
20
-1.7315983515
40
0.0625
100
AcDbArc
50
50.2092197005
51
114.832286175
0
ARC
5
78
100
AcDbEntity
8
timing_cover
6
ByLayer
62
4
370
-1
100
AcDbCircle
10
2e-16
20
-0.9375
40
0.8125
100
AcDbArc
50
245.167713825
51
294.832286175
0
ARC
5
79
100
AcDbEntity
8
timing_cover
6
ByLayer
62
4
370
-1
100
AcDbCircle
10
-0.367468104928
20
-1.7315983515
40
0.0625
100
AcDbArc
50
65.1677138247
51
129.7907803
0
CIRCLE
5
7A
100
AcDbEntity
8
timing_cover
6
ByLayer
62
4
370
-1
100
AcDbCircle
10
-0.487465491839
20
-1.58752587969
40
0.125
0
ARC
5
7B
100
AcDbEntity
8
timing_cover
6
ByLayer
62
4
370
-1
100
AcDbCircle
10
2e-16
20
-0.9375
40
0.8125
100
AcDbArc
50
157.992783973
51
221.098574369
0
ARC
5
7C
100
AcDbEntity
8
timing_cover
6
ByLayer
62
4
370
-1
100
AcDbCircle
10
-0.659382280248
20
-1.51268693352
40
0.0625
100
AcDbArc
50
336.475507894
51
41.0985743686
0
ARC
5
7D
100
AcDbEntity
8
timing_cover
6
ByLayer
62
4
370
-1
100
AcDbCircle
10
1.125
20
1.08433447331
40
0.8125
100
AcDbArc
50
309.356953827
51
31.9109498342
0
ARC
5
7E
100
AcDbEntity
8
timing_cover
6
ByLayer
62
4
370
-1
100
AcDbCircle
10
1.86776184669
20
1.54685997434
40
0.0625
100
AcDbArc
50
147.287883359
51
211.910949834
0
CIRCLE
5
7F
100
AcDbEntity
8
timing_cover
6
ByLayer
62
4
370
-1
100
AcDbCircle
10
1.71
20
1.64818839943
40
0.125
0
ARC
5
80
100
AcDbEntity
8
timing_cover
6
ByLayer
62
4
370
-1
100
AcDbCircle
10
1.125
20
1.08433447331
40
0.8125
100
AcDbArc
50
55.9800892904
51
138.534085298
0
ARC
5
81
100
AcDbEntity
8
timing_cover
6
ByLayer
62
4
370
-1
100
AcDbCircle
10
1.61454584562
20
1.80957227226
40
0.0625
100
AcDbArc
50
235.98008929
51
300.603155765
0
LINE
5
82
100
AcDbEntity
8
timing_cover
6
ByLayer
62
4
370
-1
100
AcDbLine
10
0.609822025321
20
1.5395793573
11
0.514301884059
21
1.4314839681
0
ARC
5
83
100
AcDbEntity
8
timing_cover
6
ByLayer
62
4
370
-1
100
AcDbCircle
10
0.561136245394
20
1.39009806956
40
0.0625
100
AcDbArc
50
138.534085298
51
209.062864664
0
CIRCLE
5
84
100
AcDbEntity
8
timing_cover
6
ByLayer
62
4
370
-1
100
AcDbCircle
10
0.397244886032
20
1.29901639014
40
0.125
0
LINE
5
85
100
AcDbEntity
8
timing_cover
6
ByLayer
62
4
370
-1
100
AcDbLine
10
0.280187888005
20
1.16654881217
11
-0.42150925201
21
0.372473086907
0
ARC
5
86
100
AcDbEntity
8
timing_cover
6
ByLayer
62
4
370
-1
100
AcDbCircle
10
0.327022249339
20
1.12516291362
40
0.0625
100
AcDbArc
50
68.0053059326
51
138.534085298
0
LINE
5
87
100
AcDbEntity
8
timing_cover
6
ByLayer
62
4
370
-1
100
AcDbLine
10
1.56097797468
20
0.552752442388
11
1.44944066263
21
0.46127491196
0
ARC
5
88
100
AcDbEntity
8
timing_cover
6
ByLayer
62
4
370
-1
100
AcDbCircle
10
1.40980630129
20
0.509600551134
40
0.0625
100
AcDbArc
50
238.828174461
51
309.356953827
0
CIRCLE
5
89
100
AcDbEntity
8
timing_cover
6
ByLayer
62
4
370
-1
100
AcDbCircle
10
1.31275511397
20
0.349172009289
40
0.125
0
ARC
5
8A
100
AcDbEntity
8
timing_cover
6
ByLayer
62
4
370
-1
100
AcDbCircle
10
1.13643520397
20
0.285394745793
40
0.0625
100
AcDbArc
50
309.356953827
51
19.885733192
0
LINE
5
8B
100
AcDbEntity
8
timing_cover
6
ByLayer
62
4
370
-1
100
AcDbLine
10
0.516153302652
20
1.62235115439
11
-0.398120976652
21
0.587712461966
0
ARC
5
8C
100
AcDbEntity
8
timing_cover
6
ByLayer
62
4
370
-1
100
AcDbCircle
10
-0.444955337987
20
0.629098360511
40
0.0625
100
AcDbArc
50
248.005305933
51
318.534085298
0
CIRCLE
5
8D
100
AcDbEntity
8
timing_cover
6
ByLayer
62
4
370
-1
100
AcDbCircle
10
-0.515177974679
20
0.455244883997
40
0.125
0
ARC
5
8E
100
AcDbEntity
8
timing_cover
6
ByLayer
62
4
370
-1
100
AcDbCircle
10
-0.666313943243
20
0.344275658506
40
0.0625
100
AcDbArc
50
332.675195532
51
36.2873955708
0
CIRCLE
5
8F
100
AcDbEntity
8
timing_cover
6
ByLayer
62
4
370
-1
100
AcDbCircle
10
-0.6875
20
-0.46875
40
0.125
0
ARC
5
90
100
AcDbEntity
8
timing_cover
6
ByLayer
62
4
370
-1
100
AcDbCircle
10
-0.695204527594
20
-0.281408359529
40
0.0625
100
AcDbArc
50
272.354993244
51
22.0373635496
0
ARC
5
91
100
AcDbEntity
8
timing_cover
6
ByLayer
62
4
370
-1
100
AcDbCircle
10
2e-16
20
0
40
0.6875
100
AcDbArc
50
152.675195547
51
202.03736355
0
LINE
5
92
100
AcDbEntity
8
timing_cover
6
ByLayer
62
4
370
-1
100
AcDbLine
10
1.17606956531
20
0.237069106619
11
0.471765667195
21
-0.34056702327
0
ARC
5
93
100
AcDbEntity
8
timing_cover
6
ByLayer
62
4
370
-1
100
AcDbCircle
10
0.511400028529
20
-0.388892662444
40
0.0625
100
AcDbArc
50
129.356953827
51
227.010313291
0
ARC
5
94
100
AcDbEntity
8
timing_cover
6
ByLayer
62
4
370
-1
100
AcDbCircle
10
2e-16
20
0
40
0.5625
100
AcDbArc
50
138.534085298
51
217.109004946
0
ARC
5
95
100
AcDbEntity
8
timing_cover
6
ByLayer
62
4
370
-1
100
AcDbCircle
10
2e-16
20
-0.9375
40
0.6875
100
AcDbArc
50
131.649672274
51
47.0103132907
0
ARC
5
96
100
AcDbEntity
8
timing_cover
6
ByLayer
62
4
370
-1
100
AcDbCircle
10
-0.49843069701
20
-0.377083333333
40
0.0625
100
AcDbArc
50
311.649672274
51
37.1090049458
0
LINE
5
97
100
AcDbEntity
8
timing_cover
6
ByLayer
62
4
370
-1
100
AcDbLine
10
1.74125
20
1.64818839943
11
1.67875
21
1.64818839943
0
LINE
5
98
100
AcDbEntity
8
timing_cover
6
ByLayer
62
4
370
-1
100
AcDbLine
10
1.71
20
1.61693839943
11
1.71
21
1.67943839943
0
LINE
5
99
100
AcDbEntity
8
timing_cover
6
ByLayer
62
4
370
-1
100
AcDbLine
10
0.428494886032
20
1.29901639014
11
0.365994886032
21
1.29901639014
0
LINE
5
9A
100
AcDbEntity
8
timing_cover
6
ByLayer
62
4
370
-1
100
AcDbLine
10
0.397244886032
20
1.26776639014
11
0.397244886032
21
1.33026639014
0
LINE
5
9B
100
AcDbEntity
8
timing_cover
6
ByLayer
62
4
370
-1
100
AcDbLine
10
1.34400511397
20
0.349172009289
11
1.28150511397
21
0.349172009289
0
LINE
5
9C
100
AcDbEntity
8
timing_cover
6
ByLayer
62
4
370
-1
100
AcDbLine
10
1.31275511397
20
0.317922009289
11
1.31275511397
21
0.380422009289
0
LINE
5
9D
100
AcDbEntity
8
timing_cover
6
ByLayer
62
4
370
-1
100
AcDbLine
10
-0.483927974679
20
0.455244883997
11
-0.546427974679
21
0.455244883997
0
LINE
5
9E
100
AcDbEntity
8
timing_cover
6
ByLayer
62
4
370
-1
100
AcDbLine
10
-0.515177974679
20
0.423994883997
11
-0.515177974679
21
0.486494883997
0
LINE
5
9F
100
AcDbEntity
8
timing_cover
6
ByLayer
62
4
370
-1
100
AcDbLine
10
-0.65625
20
-0.46875
11
-0.71875
21
-0.46875
0
LINE
5
A0
100
AcDbEntity
8
timing_cover
6
ByLayer
62
4
370
-1
100
AcDbLine
10
-0.6875
20
-0.5
11
-0.6875
21
-0.4375
0
LINE
5
A1
100
AcDbEntity
8
timing_cover
6
ByLayer
62
4
370
-1
100
AcDbLine
10
0.71875
20
-0.46875
11
0.65625
21
-0.46875
0
LINE
5
A2
100
AcDbEntity
8
timing_cover
6
ByLayer
62
4
370
-1
100
AcDbLine
10
0.6875
20
-0.5
11
0.6875
21
-0.4375
0
LINE
5
A3
100
AcDbEntity
8
timing_cover
6
ByLayer
62
4
370
-1
100
AcDbLine
10
-0.456215491839
20
-1.58752587969
11
-0.518715491839
21
-1.58752587969
0
LINE
5
A4
100
AcDbEntity
8
timing_cover
6
ByLayer
62
4
370
-1
100
AcDbLine
10
-0.487465491839
20
-1.61877587969
11
-0.487465491839
21
-1.55627587969
0
LINE
5
A5
100
AcDbEntity
8
timing_cover
6
ByLayer
62
4
370
-1
100
AcDbLine
10
0.518715491839
20
-1.58752587969
11
0.456215491839
21
-1.58752587969
0
LINE
5
A6
100
AcDbEntity
8
timing_cover
6
ByLayer
62
4
370
-1
100
AcDbLine
10
0.487465491839
20
-1.61877587969
11
0.487465491839
21
-1.55627587969
0
LINE
5
A7
100
AcDbEntity
8
timing_cover
6
ByLayer
62
4
370
-1
100
AcDbLine
10
0.03125
20
-1.09375
11
-0.03125
21
-1.09375
0
LINE
5
A8
100
AcDbEntity
8
timing_cover
6
ByLayer
62
4
370
-1
100
AcDbLine
10
-2e-16
20
-1.125
11
2e-15
21
-1.0625
0
LINE
5
A9
100
AcDbEntity
8
sump
6
ByLayer
62
2
370
-1
100
AcDbLine
10
0.515567973693
20
-1.625
11
-0.515567973693
21
-1.625
0
LINE
5
AA
100
AcDbEntity
8
body
6
ByLayer
62
256
370
-1
100
AcDbLine
10
0
20
-0
11
2e-16
21
3.3125
0
LINE
5
AB
100
AcDbEntity
8
body
6
ByLayer
62
256
370
-1
100
AcDbLine
10
0.875
20
3.3125
11
-0.875
21
3.3125
0
LINE
5
AC
100
AcDbEntity
8
body
6
ByLayer
62
256
370
-1
100
AcDbLine
10
-1.8125
20
2e-16
11
-1.8125
21
0.1875
0
LINE
5
AD
100
AcDbEntity
8
body
6
ByLayer
62
256
370
-1
100
AcDbLine
10
1.8125
20
-4e-16
11
1.8125
21
0.1875
0
LINE
5
AE
100
AcDbEntity
8
body
6
ByLayer
62
256
370
-1
100
AcDbLine
10
-1.8125
20
0.1875
11
1.8125
21
0.1875
0
LINE
5
AF
100
AcDbEntity
8
body
6
ByLayer
62
256
370
-1
100
AcDbLine
10
-1.8125
20
-0
11
1.8125
21
-0
0
LINE
5
B0
100
AcDbEntity
8
body
6
ByLayer
62
256
370
-1
100
AcDbLine
10
1.125
20
1.58433447331
11
1.125
21
1.58433447331
0
LINE
5
B1
100
AcDbEntity
8
body
6
ByLayer
62
256
370
-1
100
AcDbLine
10
1.125
20
1.64683447331
11
1.125
21
1.64683447331
0
LINE
5
B2
100
AcDbEntity
8
crank
6
ByLayer
62
3
370
-1
100
AcDbLine
10
-0.03125
20
0
11
0.03125
21
0
0
LINE
5
B3
100
AcDbEntity
8
crank
6
ByLayer
62
3
370
-1
100
AcDbLine
10
0
20
-0.03125
11
0
21
0.03125
0
LINE
5
B4
100
AcDbEntity
8
crank
6
ByLayer
62
3
370
-1
100
AcDbLine
10
-0.03125
20
0.5625
11
0.03125
21
0.5625
0
LINE
5
B5
100
AcDbEntity
8
crank
6
ByLayer
62
3
370
-1
100
AcDbLine
10
1e-16
20
0.53125
11
1e-16
21
0.59375
0
CIRCLE
5
B6
100
AcDbEntity
8
crank
6
ByLayer
62
3
370
-1
100
AcDbCircle
10
-0
20
-0
40
0.21875
0
CIRCLE
5
B7
100
AcDbEntity
8
crank
6
ByLayer
62
3
370
-1
100
AcDbCircle
10
1e-16
20
0.5625
40
0.21875
0
ARC
5
B8
100
AcDbEntity
8
crank
6
ByLayer
62
256
370
-1
100
AcDbCircle
10
-0
20
-0
40
0.84375
100
AcDbArc
50
70.5287793655
51
109.471220634
0
LINE
5
B9
100
AcDbEntity
8
crank
6
ByLayer
62
256
370
-1
100
AcDbLine
10
-0.28125
20
-0.28125
11
-0.28125
21
0.795495128835
0
LINE
5
BA
100
AcDbEntity
8
crank
6
ByLayer
62
256
370
-1
100
AcDbLine
10
0.28125
20
-0.28125
11
0.28125
21
0.795495128835
0
LINE
5
BB
100
AcDbEntity
8
crank
6
ByLayer
62
256
370
-1
100
AcDbLine
10
-0.28125
20
-0.28125
11
0.28125
21
-0.28125
0
CIRCLE
5
BC
100
AcDbEntity
8
crank
6
ByLayer
62
256
370
-1
100
AcDbCircle
10
2e-16
20
2.8125
40
0.125
0
CIRCLE
5
BD
100
AcDbEntity
8
crank
6
ByLayer
62
256
370
-1
100
AcDbCircle
10
2e-16
20
2.8125
40
0.15625
0
CIRCLE
5
BE
100
AcDbEntity
8
crank
6
ByLayer
62
256
370
-1
100
AcDbCircle
10
1e-16
20
0.5625
40
0.296875
0
LINE
5
BF
100
AcDbEntity
8
crank
6
ByLayer
62
256
370
-1
100
AcDbLine
10
2e-16
20
2.65625
11
1e-16
21
0.859375
0
LINE
5
C0
100
AcDbEntity
8
crank
6
ByLayer
62
3
370
-1
100
AcDbLine
10
-0.03125
20
2.8125
11
0.03125
21
2.8125
0
LINE
5
C1
100
AcDbEntity
8
crank
6
ByLayer
62
3
370
-1
100
AcDbLine
10
2e-16
20
2.78125
11
2e-16
21
2.84375
0
LINE
5
C2
100
AcDbEntity
8
crank
6
ByLayer
62
256
370
-1
100
AcDbLine
10
-0.5
20
2.3125
11
-0.5
21
3.3125
0
LINE
5
C3
100
AcDbEntity
8
crank
6
ByLayer
62
256
370
-1
100
AcDbLine
10
0.5
20
2.3125
11
0.5
21
3.3125
0
LINE
5
C4
100
AcDbEntity
8
crank
6
ByLayer
62
256
370
-1
100
AcDbLine
10
-0.5
20
3.3125
11
0.5
21
3.3125
0
LINE
5
C5
100
AcDbEntity
8
crank
6
ByLayer
62
256
370
-1
100
AcDbLine
10
-0.5
20
2.3125
11
0.5
21
2.3125
0
LINE
5
C6
100
AcDbEntity
8
liner
6
ByLayer
62
256
370
-1
100
AcDbLine
10
0.625
20
3.3125
11
-0.625
21
3.3125
0
LINE
5
C7
100
AcDbEntity
8
liner
6
ByLayer
62
256
370
-1
100
AcDbLine
10
0.625
20
3.21875
11
-0.625
21
3.21875
0
LINE
5
C8
100
AcDbEntity
8
liner
6
ByLayer
62
256
370
-1
100
AcDbLine
10
-0.625
20
3.21875
11
-0.625
21
3.3125
0
LINE
5
C9
100
AcDbEntity
8
liner
6
ByLayer
62
256
370
-1
100
AcDbLine
10
0.625
20
3.21875
11
0.625
21
3.3125
0
LINE
5
CA
100
AcDbEntity
8
liner
6
ByLayer
62
256
370
-1
100
AcDbLine
10
0.5625
20
1.3125
11
-0.5625
21
1.3125
0
LINE
5
CB
100
AcDbEntity
8
liner
6
ByLayer
62
256
370
-1
100
AcDbLine
10
-0.5
20
3.21875
11
-0.5625
21
3.3125
0
LINE
5
CC
100
AcDbEntity
8
liner
6
ByLayer
62
256
370
-1
100
AcDbLine
10
0.5
20
3.21875
11
0.5625
21
3.3125
0
LINE
5
CD
100
AcDbEntity
8
liner
6
ByLayer
62
256
370
-1
100
AcDbLine
10
-0.5
20
1.3125
11
-0.5
21
3.21875
0
LINE
5
CE
100
AcDbEntity
8
liner
6
ByLayer
62
256
370
-1
100
AcDbLine
10
0.5
20
1.3125
11
0.5
21
3.21875
0
LINE
5
CF
100
AcDbEntity
8
liner
6
ByLayer
62
256
370
-1
100
AcDbLine
10
-0.5625
20
1.3125
11
-0.5625
21
3.21875
0
LINE
5
D0
100
AcDbEntity
8
liner
6
ByLayer
62
256
370
-1
100
AcDbLine
10
0.5625
20
1.3125
11
0.5625
21
3.21875
0
ARC
5
D1
100
AcDbEntity
8
body
6
ByLayer
62
256
370
-1
100
AcDbCircle
10
1.625
20
-0
40
2.8125
100
AcDbArc
50
148.109208198
51
176.177446271
0
LINE
5
D2
100
AcDbEntity
8
body
6
ByLayer
62
256
370
-1
100
AcDbLine
10
-0.875
20
2
11
-0.875
21
3.3125
0
LINE
5
D3
100
AcDbEntity
8
body
6
ByLayer
62
256
370
-1
100
AcDbLine
10
0.875
20
2
11
0.875
21
3.3125
0
LINE
5
D4
100
AcDbEntity
8
body
6
ByLayer
62
256
370
-1
100
AcDbLine
10
0.6875
20
1.75
11
-0.6875
21
1.75
0
ARC
5
D5
100
AcDbEntity
8
body
6
ByLayer
62
256
370
-1
100
AcDbCircle
10
-1.1875
20
1.75
40
0.5
100
AcDbArc
50
328.109208198
51
0
0
ARC
5
D6
100
AcDbEntity
8
body
6
ByLayer
62
256
370
-1
100
AcDbCircle
10
-0.625
20
1.9921875
40
0.250122040525
100
AcDbArc
50
178.210089392
51
255.5297059
0
ARC
5
D7
100
AcDbEntity
8
body
6
ByLayer
62
256
370
-1
100
AcDbCircle
10
0.625
20
1.9921875
40
0.250122040525
100
AcDbArc
50
284.4702941
51
1.78991060825
0
CIRCLE
5
D8
100
AcDbEntity
8
body
6
ByLayer
62
256
370
-1
100
AcDbCircle
10
1.125
20
1.08433447331
40
0.375
0
LINE
5
D9
100
AcDbEntity
8
body
6
ByLayer
62
256
370
-1
100
AcDbLine
10
0.87056047939
20
1.59369254226
11
1.14275808244
21
1.58401902431
0
ARC
5
DA
100
AcDbEntity
8
body
6
ByLayer
62
256
370
-1
100
AcDbCircle
10
0.875
20
1.71861368001
40
0.125
100
AcDbArc
50
180
51
267.964645596
0
LINE
5
DB
100
AcDbEntity
8
body
6
ByLayer
62
256
370
-1
100
AcDbLine
10
0.75
20
1.71861368001
11
0.75
21
1.77554024025
0
LINE
5
DC
100
AcDbEntity
8
body
6
ByLayer
62
256
370
-1
100
AcDbLine
10
-1.3125
20
4
11
1.3125
21
4
0
LINE
5
DD
100
AcDbEntity
8
body
6
ByLayer
62
256
370
-1
100
AcDbLine
10
1.8125
20
4.4375
11
1.8125
21
5
0
LINE
5
DE
100
AcDbEntity
8
body
6
ByLayer
62
256
370
-1
100
AcDbLine
10
-1.8125
20
4.4375
11
-1.8125
21
5
0
LINE
5
DF
100
AcDbEntity
8
body
6
ByLayer
62
256
370
-1
100
AcDbLine
10
-1.8125
20
6.25
11
-1.8125
21
6.8125
0
LINE
5
E0
100
AcDbEntity
8
body
6
ByLayer
62
256
370
-1
100
AcDbLine
10
1.8125
20
6.25
11
1.8125
21
6.8125
0
LINE
5
E1
100
AcDbEntity
8
body
6
ByLayer
62
256
370
-1
100
AcDbLine
10
-0.6875
20
7.4375
11
0.6875
21
7.4375
0
LINE
5
E2
100
AcDbEntity
8
body
6
ByLayer
62
256
370
-1
100
AcDbLine
10
-1.8125
20
6.25
11
-1.4375
21
6.25
0
ARC
5
E3
100
AcDbEntity
8
body
6
ByLayer
62
256
370
-1
100
AcDbCircle
10
-1.4375
20
6.125
40
0.125
100
AcDbArc
50
0
51
90
0
LINE
5
E4
100
AcDbEntity
8
body
6
ByLayer
62
256
370
-1
100
AcDbLine
10
-1.8125
20
6.8125
11
-1.4375
21
6.8125
0
LINE
5
E5
100
AcDbEntity
8
body
6
ByLayer
62
256
370
-1
100
AcDbLine
10
-1.3125
20
6.9375
11
-1.3125
21
7.1875
0
ARC
5
E6
100
AcDbEntity
8
body
6
ByLayer
62
256
370
-1
100
AcDbCircle
10
-1.4375
20
6.9375
40
0.125
100
AcDbArc
50
270
51
0
0
LINE
5
E7
100
AcDbEntity
8
body
6
ByLayer
62
256
370
-1
100
AcDbLine
10
-1.8125
20
5
11
-1.4375
21
5
0
LINE
5
E8
100
AcDbEntity
8
body
6
ByLayer
62
256
370
-1
100
AcDbLine
10
-1.3125
20
5.125
11
-1.3125
21
6.125
0
ARC
5
E9
100
AcDbEntity
8
body
6
ByLayer
62
256
370
-1
100
AcDbCircle
10
-1.4375
20
5.125
40
0.125
100
AcDbArc
50
270
51
0
0
LINE
5
EA
100
AcDbEntity
8
body
6
ByLayer
62
256
370
-1
100
AcDbLine
10
-1.8125
20
4.4375
11
-1.4375
21
4.4375
0
LINE
5
EB
100
AcDbEntity
8
body
6
ByLayer
62
256
370
-1
100
AcDbLine
10
-1.3125
20
4
11
-1.3125
21
4.3125
0
ARC
5
EC
100
AcDbEntity
8
body
6
ByLayer
62
256
370
-1
100
AcDbCircle
10
-1.4375
20
4.3125
40
0.125
100
AcDbArc
50
0
51
90
0
LINE
5
ED
100
AcDbEntity
8
body
6
ByLayer
62
256
370
-1
100
AcDbLine
10
1.3125
20
4
11
1.3125
21
4.3125
0
LINE
5
EE
100
AcDbEntity
8
body
6
ByLayer
62
256
370
-1
100
AcDbLine
10
1.4375
20
4.4375
11
1.8125
21
4.4375
0
ARC
5
EF
100
AcDbEntity
8
body
6
ByLayer
62
256
370
-1
100
AcDbCircle
10
1.4375
20
4.3125
40
0.125
100
AcDbArc
50
90
51
180
0
LINE
5
F0
100
AcDbEntity
8
body
6
ByLayer
62
256
370
-1
100
AcDbLine
10
1.4375
20
5
11
1.8125
21
5
0
ARC
5
F1
100
AcDbEntity
8
body
6
ByLayer
62
256
370
-1
100
AcDbCircle
10
1.4375
20
5.125
40
0.125
100
AcDbArc
50
180
51
270
0
LINE
5
F2
100
AcDbEntity
8
body
6
ByLayer
62
256
370
-1
100
AcDbLine
10
1.3125
20
5.125
11
1.3125
21
6.125
0
LINE
5
F3
100
AcDbEntity
8
body
6
ByLayer
62
256
370
-1
100
AcDbLine
10
1.4375
20
6.25
11
1.8125
21
6.25
0
ARC
5
F4
100
AcDbEntity
8
body
6
ByLayer
62
256
370
-1
100
AcDbCircle
10
1.4375
20
6.125
40
0.125
100
AcDbArc
50
90
51
180
0
LINE
5
F5
100
AcDbEntity
8
body
6
ByLayer
62
256
370
-1
100
AcDbLine
10
1.4375
20
6.8125
11
1.8125
21
6.8125
0
LINE
5
F6
100
AcDbEntity
8
body
6
ByLayer
62
256
370
-1
100
AcDbLine
10
1.3125
20
6.9375
11
1.3125
21
7.1875
0
ARC
5
F7
100
AcDbEntity
8
body
6
ByLayer
62
256
370
-1
100
AcDbCircle
10
1.4375
20
6.9375
40
0.125
100
AcDbArc
50
180
51
270
0
LINE
5
F8
100
AcDbEntity
8
body
6
ByLayer
62
256
370
-1
100
AcDbLine
10
0.8125
20
7.1875
11
1.3125
21
7.1875
0
LINE
5
F9
100
AcDbEntity
8
body
6
ByLayer
62
256
370
-1
100
AcDbLine
10
0.6875
20
7.3125
11
0.6875
21
7.4375
0
ARC
5
FA
100
AcDbEntity
8
body
6
ByLayer
62
256
370
-1
100
AcDbCircle
10
0.8125
20
7.3125
40
0.125
100
AcDbArc
50
180
51
270
0
LINE
5
FB
100
AcDbEntity
8
body
6
ByLayer
62
256
370
-1
100
AcDbLine
10
-1.3125
20
7.1875
11
-0.8125
21
7.1875
0
LINE
5
FC
100
AcDbEntity
8
body
6
ByLayer
62
256
370
-1
100
AcDbLine
10
-0.6875
20
7.3125
11
-0.6875
21
7.4375
0
ARC
5
FD
100
AcDbEntity
8
body
6
ByLayer
62
256
370
-1
100
AcDbCircle
10
-0.8125
20
7.3125
40
0.125
100
AcDbArc
50
270
51
0
0
ARC
5
FE
100
AcDbEntity
8
body
6
ByLayer
62
256
370
-1
100
AcDbCircle
10
-0.9375
20
6.6875
40
0.125
100
AcDbArc
50
90
51
180
0
LINE
5
FF
100
AcDbEntity
8
body
6
ByLayer
62
256
370
-1
100
AcDbLine
10
-0.9375
20
6.8125
11
0.9375
21
6.8125
0
ARC
5
100
100
AcDbEntity
8
body
6
ByLayer
62
256
370
-1
100
AcDbCircle
10
0.9375
20
6.6875
40
0.125
100
AcDbArc
50
0
51
90
0
LINE
5
101
100
AcDbEntity
8
body
6
ByLayer
62
256
370
-1
100
AcDbLine
10
1.0625
20
5.9375
11
1.0625
21
6.6875
0
ARC
5
102
100
AcDbEntity
8
body
6
ByLayer
62
256
370
-1
100
AcDbCircle
10
0.9375
20
5.9375
40
0.125
100
AcDbArc
50
270
51
0
0
LINE
5
103
100
AcDbEntity
8
body
6
ByLayer
62
256
370
-1
100
AcDbLine
10
-0.9375
20
5.8125
11
0.9375
21
5.8125
0
LINE
5
104
100
AcDbEntity
8
body
6
ByLayer
62
256
370
-1
100
AcDbLine
10
-1.0625
20
5.9375
11
-1.0625
21
6.6875
0
ARC
5
105
100
AcDbEntity
8
body
6
ByLayer
62
256
370
-1
100
AcDbCircle
10
-0.9375
20
5.9375
40
0.125
100
AcDbArc
50
180
51
270
0
ARC
5
106
100
AcDbEntity
8
body
6
ByLayer
62
256
370
-1
100
AcDbCircle
10
-0.9375
20
5.3125
40
0.125
100
AcDbArc
50
90
51
180
0
LINE
5
107
100
AcDbEntity
8
body
6
ByLayer
62
256
370
-1
100
AcDbLine
10
-1.0625
20
4.5625
11
-1.0625
21
5.3125
0
ARC
5
108
100
AcDbEntity
8
body
6
ByLayer
62
256
370
-1
100
AcDbCircle
10
-0.9375
20
4.5625
40
0.125
100
AcDbArc
50
180
51
270
0
LINE
5
109
100
AcDbEntity
8
body
6
ByLayer
62
256
370
-1
100
AcDbLine
10
-0.9375
20
5.4375
11
0.9375
21
5.4375
0
ARC
5
10A
100
AcDbEntity
8
body
6
ByLayer
62
256
370
-1
100
AcDbCircle
10
0.9375
20
5.3125
40
0.125
100
AcDbArc
50
0
51
90
0
LINE
5
10B
100
AcDbEntity
8
body
6
ByLayer
62
256
370
-1
100
AcDbLine
10
1.0625
20
4.5625
11
1.0625
21
5.3125
0
LINE
5
10C
100
AcDbEntity
8
body
6
ByLayer
62
256
370
-1
100
AcDbLine
10
-0.9375
20
4.4375
11
0.9375
21
4.4375
0
ARC
5
10D
100
AcDbEntity
8
body
6
ByLayer
62
256
370
-1
100
AcDbCircle
10
0.9375
20
4.5625
40
0.125
100
AcDbArc
50
270
51
0
0
CIRCLE
5
10E
100
AcDbEntity
8
body
6
ByLayer
62
256
370
-1
100
AcDbCircle
10
-1.5625
20
6.5625
40
0.0625
0
CIRCLE
5
10F
100
AcDbEntity
8
body
6
ByLayer
62
256
370
-1
100
AcDbCircle
10
1.5625
20
6.5625
40
0.0625
0
CIRCLE
5
110
100
AcDbEntity
8
body
6
ByLayer
62
256
370
-1
100
AcDbCircle
10
1.5625
20
4.6875
40
0.0625
0
CIRCLE
5
111
100
AcDbEntity
8
body
6
ByLayer
62
256
370
-1
100
AcDbCircle
10
-1.5625
20
4.6875
40
0.0625
0
LINE
5
112
100
AcDbEntity
8
body
6
ByLayer
62
7
370
-1
100
AcDbLine
10
1.53125
20
6.5625
11
1.59375
21
6.5625
0
LINE
5
113
100
AcDbEntity
8
body
6
ByLayer
62
7
370
-1
100
AcDbLine
10
1.5625
20
6.53125
11
1.5625
21
6.59375
0
LINE
5
114
100
AcDbEntity
8
body
6
ByLayer
62
7
370
-1
100
AcDbLine
10
1.53125
20
4.6875
11
1.59375
21
4.6875
0
LINE
5
115
100
AcDbEntity
8
body
6
ByLayer
62
7
370
-1
100
AcDbLine
10
1.5625
20
4.65625
11
1.5625
21
4.71875
0
LINE
5
116
100
AcDbEntity
8
body
6
ByLayer
62
7
370
-1
100
AcDbLine
10
-1.59375
20
4.6875
11
-1.53125
21
4.6875
0
LINE
5
117
100
AcDbEntity
8
body
6
ByLayer
62
7
370
-1
100
AcDbLine
10
-1.5625
20
4.65625
11
-1.5625
21
4.71875
0
LINE
5
118
100
AcDbEntity
8
body
6
ByLayer
62
7
370
-1
100
AcDbLine
10
-1.59375
20
6.5625
11
-1.53125
21
6.5625
0
LINE
5
119
100
AcDbEntity
8
body
6
ByLayer
62
7
370
-1
100
AcDbLine
10
-1.5625
20
6.53125
11
-1.5625
21
6.59375
0
LINE
5
11A
100
AcDbEntity
8
body
6
ByLayer
62
256
370
-1
100
AcDbLine
10
1.625
20
0.1875
11
1.625
21
-0
0
LINE
5
11B
100
AcDbEntity
8
body
6
ByLayer
62
256
370
-1
100
AcDbLine
10
1.5
20
0.1875
11
1.5
21
-0
0
LINE
5
11C
100
AcDbEntity
8
body
6
ByLayer
62
256
370
-1
100
AcDbLine
10
-1.5
20
0.1875
11
-1.5
21
-0
0
LINE
5
11D
100
AcDbEntity
8
body
6
ByLayer
62
256
370
-1
100
AcDbLine
10
-1.625
20
0.1875
11
-1.625
21
-0
0
CIRCLE
5
11E
100
AcDbEntity
8
body
6
ByLayer
62
256
370
-1
100
AcDbCircle
10
1e-16
20
6.3125
40
0.5
0
CIRCLE
5
11F
100
AcDbEntity
8
body
6
ByLayer
62
256
370
-1
100
AcDbCircle
10
1e-16
20
4.9375
40
0.5
0
LINE
5
120
100
AcDbEntity
8
body
6
ByLayer
62
7
370
-1
100
AcDbLine
10
-0.03125
20
6.3125
11
0.03125
21
6.3125
0
LINE
5
121
100
AcDbEntity
8
body
6
ByLayer
62
7
370
-1
100
AcDbLine
10
1e-16
20
6.28125
11
1e-16
21
6.34375
0
LINE
5
122
100
AcDbEntity
8
body
6
ByLayer
62
7
370
-1
100
AcDbLine
10
-0.03125
20
4.9375
11
0.03125
21
4.9375
0
LINE
5
123
100
AcDbEntity
8
body
6
ByLayer
62
7
370
-1
100
AcDbLine
10
1e-16
20
4.90625
11
1e-16
21
4.96875
0
LINE
5
124
100
AcDbEntity
8
body
6
DASHED
62
256
370
-1
100
AcDbLine
10
-0
20
3.875
11
2e-16
21
7.5625
0
LINE
5
125
100
AcDbEntity
8
body
6
DASHED
62
256
370
-1
100
AcDbLine
10
-1.8125
20
5.625
11
1.8125
21
5.625
0
LINE
5
126
100
AcDbEntity
8
body
6
ByLayer
62
256
370
-1
100
AcDbLine
10
1.375
20
0.34375
11
1.375
21
0.34375
0
ARC
5
127
100
AcDbEntity
8
body
6
ByLayer
62
256
370
-1
100
AcDbCircle
10
1.125
20
1.08433447331
40
0.5
100
AcDbArc
50
318.590377086
51
87.9646455964
0
ARC
5
128
100
AcDbEntity
8
body
6
ByLayer
62
256
370
-1
100
AcDbCircle
10
-0.625
20
6.9375
40
0.125
100
AcDbArc
50
90
51
180
0
LINE
5
129
100
AcDbEntity
8
body
6
ByLayer
62
256
370
-1
100
AcDbLine
10
-0.625
20
7.0625
11
0.625
21
7.0625
0
ARC
5
12A
100
AcDbEntity
8
body
6
ByLayer
62
256
370
-1
100
AcDbCircle
10
0.625
20
6.9375
40
0.125
100
AcDbArc
50
0
51
90
0
LINE
5
12B
100
AcDbEntity
8
body
6
ByLayer
62
256
370
-1
100
AcDbLine
10
0.75
20
4.3125
11
0.75
21
6.9375
0
ARC
5
12C
100
AcDbEntity
8
body
6
ByLayer
62
256
370
-1
100
AcDbCircle
10
0.625
20
4.3125
40
0.125
100
AcDbArc
50
270
51
0
0
LINE
5
12D
100
AcDbEntity
8
body
6
ByLayer
62
256
370
-1
100
AcDbLine
10
-0.625
20
4.1875
11
0.625
21
4.1875
0
LINE
5
12E
100
AcDbEntity
8
body
6
ByLayer
62
256
370
-1
100
AcDbLine
10
-0.75
20
4.3125
11
-0.75
21
6.9375
0
ARC
5
12F
100
AcDbEntity
8
body
6
ByLayer
62
256
370
-1
100
AcDbCircle
10
-0.625
20
4.3125
40
0.125
100
AcDbArc
50
180
51
270
0
LINE
5
130
100
AcDbEntity
8
body
6
DASHED
62
256
370
-1
100
AcDbLine
10
-1.3125
20
7.0625
11
1.3125
21
7.0625
0
LINE
5
131
100
AcDbEntity
8
body
6
DASHED
62
256
370
-1
100
AcDbLine
10
-1.3125
20
4.1875
11
1.3125
21
4.1875
0
CIRCLE
5
132
100
AcDbEntity
8
sump
6
ByLayer
62
2
370
-1
100
AcDbCircle
10
2.4
20
4.1875
40
0.125
0
CIRCLE
5
133
100
AcDbEntity
8
sump
6
ByLayer
62
2
370
-1
100
AcDbCircle
10
2.4
20
5.125
40
0.125
0
CIRCLE
5
134
100
AcDbEntity
8
sump
6
ByLayer
62
2
370
-1
100
AcDbCircle
10
2.4
20
6.125
40
0.125
0
CIRCLE
5
135
100
AcDbEntity
8
sump
6
ByLayer
62
2
370
-1
100
AcDbCircle
10
2.4
20
7.0625
40
0.125
0
CIRCLE
5
136
100
AcDbEntity
8
sump
6
ByLayer
62
2
370
-1
100
AcDbCircle
10
4.775
20
7.0625
40
0.125
0
CIRCLE
5
137
100
AcDbEntity
8
sump
6
ByLayer
62
2
370
-1
100
AcDbCircle
10
4.775
20
6.125
40
0.125
0
CIRCLE
5
138
100
AcDbEntity
8
sump
6
ByLayer
62
2
370
-1
100
AcDbCircle
10
4.775
20
5.125
40
0.125
0
CIRCLE
5
139
100
AcDbEntity
8
sump
6
ByLayer
62
2
370
-1
100
AcDbCircle
10
4.775
20
4.1875
40
0.125
0
LINE
5
13A
100
AcDbEntity
8
sump
6
ByLayer
62
2
370
-1
100
AcDbLine
10
2.525
20
7.0625
11
4.65
21
7.0625
0
CIRCLE
5
13B
100
AcDbEntity
8
sump
6
ByLayer
62
2
370
-1
100
AcDbCircle
10
3.5875
20
6.75
40
0.25
0
LINE
5
13C
100
AcDbEntity
8
sump
6
ByLayer
62
2
370
-1
100
AcDbLine
10
2.9
20
7.4375
11
2.9
21
7.1875
0
LINE
5
13D
100
AcDbEntity
8
sump
6
ByLayer
62
2
370
-1
100
AcDbLine
10
4.275
20
7.4375
11
4.275
21
7.1875
0
LINE
5
13E
100
AcDbEntity
8
sump
6
ByLayer
62
2
370
-1
100
AcDbLine
10
4.65
20
7.1875
11
4.65
21
4
0
LINE
5
13F
100
AcDbEntity
8
sump
6
ByLayer
62
2
370
-1
100
AcDbLine
10
2.525
20
7.1875
11
2.525
21
4
0
LINE
5
140
100
AcDbEntity
8
sump
6
ByLayer
62
2
370
-1
100
AcDbLine
10
2.9
20
7.4375
11
4.275
21
7.4375
0
LINE
5
141
100
AcDbEntity
8
sump
6
ByLayer
62
2
370
-1
100
AcDbLine
10
2.4
20
7.1875
11
2.4
21
4
0
LINE
5
142
100
AcDbEntity
8
sump
6
ByLayer
62
2
370
-1
100
AcDbLine
10
4.775
20
7.1875
11
4.775
21
4
0
LINE
5
143
100
AcDbEntity
8
sump
6
ByLayer
62
2
370
-1
100
AcDbLine
10
2.4
20
4
11
4.775
21
4
0
LINE
5
144
100
AcDbEntity
8
sump
6
ByLayer
62
2
370
-1
100
AcDbLine
10
4.9
20
4.1875
11
4.9
21
7.0625
0
LINE
5
145
100
AcDbEntity
8
sump
6
ByLayer
62
2
370
-1
100
AcDbLine
10
2.275
20
4.1875
11
2.275
21
7.0625
0
LINE
5
146
100
AcDbEntity
8
sump
6
ByLayer
62
2
370
-1
100
AcDbLine
10
2.4
20
7.1875
11
4.775
21
7.1875
0
LINE
5
147
100
AcDbEntity
8
sump
6
ByLayer
62
2
370
-1
100
AcDbLine
10
4.0875
20
4.6875
11
4.0875
21
4.1875
0
LINE
5
148
100
AcDbEntity
8
sump
6
ByLayer
62
2
370
-1
100
AcDbLine
10
4.525
20
4.6875
11
4.525
21
4.1875
0
LINE
5
149
100
AcDbEntity
8
sump
6
ByLayer
62
2
370
-1
100
AcDbLine
10
4.0875
20
4.1875
11
4.525
21
4.1875
0
LINE
5
14A
100
AcDbEntity
8
sump
6
ByLayer
62
2
370
-1
100
AcDbLine
10
4.0875
20
4.6875
11
4.525
21
4.6875
0
LINE
5
14B
100
AcDbEntity
8
body
6
ByLayer
62
256
370
-1
100
AcDbLine
10
1.44718595589
20
0.657170253436
11
1.3125
21
0.1875
0
ARC
5
14C
100
AcDbEntity
8
body
6
ByLayer
62
256
370
-1
100
AcDbCircle
10
1.6875
20
0.588256102481
40
0.25
100
AcDbArc
50
138.590377891
51
163.998852724
0
LINE
5
14D
100
AcDbEntity
8
body
6
ByLayer
62
256
370
-1
100
AcDbLine
10
-1.61222218486
20
1.50222143734
11
-1.3125
21
0.1875
0
LINE
5
14E
100
AcDbEntity
8
body
6
ByLayer
62
256
370
-1
100
AcDbLine
10
-0.6875
20
1.75
11
-1.61222218486
21
1.50222143734
0
CIRCLE
5
14F
100
AcDbEntity
8
camplate
6
ByLayer
62
256
370
-1
100
AcDbCircle
10
0.875
20
1.5173471752
40
0.0625
0
CIRCLE
5
150
100
AcDbEntity
8
camplate
6
ByLayer
62
256
370
-1
100
AcDbCircle
10
1.375
20
0.651321771414
40
0.0625
0
LINE
5
151
100
AcDbEntity
8
camplate
6
ByLayer
62
256
370
-1
100
AcDbLine
10
0.943163912028
20
1.6920180975
11
1.30677043207
21
1.55012359944
0
LINE
5
152
100
AcDbEntity
8
camplate
6
ByLayer
62
256
370
-1
100
AcDbLine
10
1.61927043207
20
1.00885772207
11
1.56035141203
21
0.623017989702
0
LINE
5
153
100
AcDbEntity
8
camplate
6
ByLayer
62
256
370
-1
100
AcDbLine
10
1.30683608797
20
0.476650849114
11
0.943229567925
21
0.618545347174
0
LINE
5
154
100
AcDbEntity
8
camplate
6
ByLayer
62
256
370
-1
100
AcDbLine
10
0.630729567925
20
1.15981122454
11
0.689648587972
21
1.54565095691
0
LINE
5
155
100
AcDbEntity
8
camplate
6
ByLayer
62
7
370
-1
100
AcDbLine
10
1.09375
20
1.08433447331
11
1.15625
21
1.08433447331
0
LINE
5
156
100
AcDbEntity
8
camplate
6
ByLayer
62
7
370
-1
100
AcDbLine
10
1.125
20
1.05308447331
11
1.125
21
1.11558447331
0
ARC
5
157
100
AcDbEntity
8
camplate
6
ByLayer
62
256
370
-1
100
AcDbCircle
10
0.875
20
1.5173471752
40
0.1875
100
AcDbArc
50
68.6821874535
51
171.317812547
0
ARC
5
158
100
AcDbEntity
8
camplate
6
ByLayer
62
256
370
-1
100
AcDbCircle
10
1.375
20
0.651321771414
40
0.1875
100
AcDbArc
50
248.682187453
51
351.317812547
0
ARC
5
159
100
AcDbEntity
8
camplate
6
ByLayer
62
256
370
-1
100
AcDbCircle
10
1.125
20
1.08433447331
40
0.5
100
AcDbArc
50
351.317812547
51
68.6821874535
0
ARC
5
15A
100
AcDbEntity
8
camplate
6
ByLayer
62
256
370
-1
100
AcDbCircle
10
1.125
20
1.08433447331
40
0.5
100
AcDbArc
50
171.317812547
51
248.682187453
0
LINE
5
15B
100
AcDbEntity
8
body
6
ByLayer
62
256
370
-1
100
AcDbLine
10
-0.9375
20
1.75
11
-0.9375
21
2.375
0
LINE
5
15C
100
AcDbEntity
8
body
6
ByLayer
62
256
370
-1
100
AcDbLine
10
-0.875
20
2.375
11
-0.9375
21
2.375
0
LINE
5
15D
100
AcDbEntity
8
body
6
ByLayer
62
256
370
-1
100
AcDbLine
10
-0.875
20
2.0625
11
-0.9375
21
2.0625
0
LINE
5
15E
100
AcDbEntity
8
body
6
ByLayer
62
256
370
-1
100
AcDbLine
10
-0.6875
20
1.75
11
-0.9375
21
1.75
0
CIRCLE
5
15F
100
AcDbEntity
8
body
6
ByLayer
62
256
370
-1
100
AcDbCircle
10
-2.125
20
2.0625
40
0.0625
0
CIRCLE
5
160
100
AcDbEntity
8
body
6
ByLayer
62
256
370
-1
100
AcDbCircle
10
-2.875
20
2.0625
40
0.0625
0
LINE
5
161
100
AcDbEntity
8
body
6
ByLayer
62
256
370
-1
100
AcDbLine
10
-2.96875
20
2.22487976321
11
-2.6875
21
2.38725952642
0
LINE
5
162
100
AcDbEntity
8
body
6
ByLayer
62
256
370
-1
100
AcDbLine
10
-2.3125
20
2.38725952642
11
-2.03125
21
2.22487976321
0
LINE
5
163
100
AcDbEntity
8
body
6
ByLayer
62
256
370
-1
100
AcDbLine
10
-2.03125
20
1.90012023679
11
-2.3125
21
1.73774047358
0
LINE
5
164
100
AcDbEntity
8
body
6
ByLayer
62
256
370
-1
100
AcDbLine
10
-2.6875
20
1.73774047358
11
-2.96875
21
1.90012023679
0
ARC
5
165
100
AcDbEntity
8
body
6
ByLayer
62
256
370
-1
100
AcDbCircle
10
-2.5
20
2.0625
40
0.375
100
AcDbArc
50
60
51
120
0
ARC
5
166
100
AcDbEntity
8
body
6
ByLayer
62
256
370
-1
100
AcDbCircle
10
-2.5
20
2.0625
40
0.375
100
AcDbArc
50
240
51
300
0
ARC
5
167
100
AcDbEntity
8
body
6
ByLayer
62
256
370
-1
100
AcDbCircle
10
-2.875
20
2.0625
40
0.1875
100
AcDbArc
50
120
51
240
0
ARC
5
168
100
AcDbEntity
8
body
6
ByLayer
62
256
370
-1
100
AcDbCircle
10
-2.125
20
2.0625
40
0.1875
100
AcDbArc
50
300
51
60
0
LINE
5
169
100
AcDbEntity
8
body
6
ByLayer
62
7
370
-1
100
AcDbLine
10
-2.90625
20
2.0625
11
-2.84375
21
2.0625
0
LINE
5
16A
100
AcDbEntity
8
body
6
ByLayer
62
7
370
-1
100
AcDbLine
10
-2.875
20
2.03125
11
-2.875
21
2.09375
0
LINE
5
16B
100
AcDbEntity
8
body
6
ByLayer
62
7
370
-1
100
AcDbLine
10
-2.15625
20
2.0625
11
-2.09375
21
2.0625
0
LINE
5
16C
100
AcDbEntity
8
body
6
ByLayer
62
7
370
-1
100
AcDbLine
10
-2.125
20
2.03125
11
-2.125
21
2.09375
0
CIRCLE
5
16D
100
AcDbEntity
8
body
6
ByLayer
62
256
370
-1
100
AcDbCircle
10
-2.5
20
2.0625
40
0.1875
0
LINE
5
16E
100
AcDbEntity
8
body
6
ByLayer
62
7
370
-1
100
AcDbLine
10
-2.53125
20
2.0625
11
-2.46875
21
2.0625
0
LINE
5
16F
100
AcDbEntity
8
body
6
ByLayer
62
7
370
-1
100
AcDbLine
10
-2.5
20
2.03125
11
-2.5
21
2.09375
0
LINE
5
170
100
AcDbEntity
8
body
6
ByLayer
62
256
370
-1
100
AcDbLine
10
-3.8625
20
1.5
11
-3.8625
21
2.5
0
LINE
5
171
100
AcDbEntity
8
body
6
ByLayer
62
256
370
-1
100
AcDbLine
10
-4.7375
20
1.5
11
-4.7375
21
2.5
0
LINE
5
172
100
AcDbEntity
8
body
6
ByLayer
62
7
370
-1
100
AcDbLine
10
-4.33125
20
1.5
11
-4.26875
21
1.5
0
LINE
5
173
100
AcDbEntity
8
body
6
ByLayer
62
7
370
-1
100
AcDbLine
10
-4.3
20
1.46875
11
-4.3
21
1.53125
0
ARC
5
174
100
AcDbEntity
8
body
6
ByLayer
62
256
370
-1
100
AcDbCircle
10
-4.3
20
1.5
40
0.4375
100
AcDbArc
50
180
51
0
0
LINE
5
175
100
AcDbEntity
8
body
6
ByLayer
62
256
370
-1
100
AcDbLine
10
0.856233292275
20
1.89683447331
11
1.375
21
1.89683447331
0
LINE
5
176
100
AcDbEntity
8
body
6
ByLayer
62
256
370
-1
100
AcDbLine
10
1.375
20
1.5173471752
11
1.375
21
1.89683447331
0
CIRCLE
5
177
100
AcDbEntity
8
body
6
ByLayer
62
256
370
-1
100
AcDbCircle
10
3
20
6.5625
40
0.1875
0
CIRCLE
5
178
100
AcDbEntity
8
body
6
ByLayer
62
256
370
-1
100
AcDbCircle
10
3
20
6.0625
40
0.1875
0
CIRCLE
5
179
100
AcDbEntity
8
body
6
ByLayer
62
256
370
-1
100
AcDbCircle
10
3
20
6.5625
40
0.15625
0
CIRCLE
5
17A
100
AcDbEntity
8
body
6
ByLayer
62
256
370
-1
100
AcDbCircle
10
3
20
6.0625
40
0.15625
0
ARC
5
17B
100
AcDbEntity
8
body
6
ByLayer
62
256
370
-1
100
AcDbCircle
10
2.85623329228
20
6.9375
40
0.125
100
AcDbArc
50
180
51
270
0
ARC
5
17C
100
AcDbEntity
8
body
6
ByLayer
62
256
370
-1
100
AcDbCircle
10
2.85623329228
20
5.6875
40
0.125
100
AcDbArc
50
90
51
180
0
ARC
5
17D
100
AcDbEntity
8
body
6
ByLayer
62
256
370
-1
100
AcDbCircle
10
3
20
6.5625
40
0.25
100
AcDbArc
50
0
51
90
0
ARC
5
17E
100
AcDbEntity
8
body
6
ByLayer
62
256
370
-1
100
AcDbCircle
10
3
20
6.0625
40
0.25
100
AcDbArc
50
270
51
0
0
LINE
5
17F
100
AcDbEntity
8
body
6
ByLayer
62
256
370
-1
100
AcDbLine
10
2.85623329228
20
6.8125
11
3
21
6.8125
0
LINE
5
180
100
AcDbEntity
8
body
6
ByLayer
62
256
370
-1
100
AcDbLine
10
3.25
20
6.5625
11
3.25
21
6.0625
0
LINE
5
181
100
AcDbEntity
8
body
6
ByLayer
62
256
370
-1
100
AcDbLine
10
2.85623329228
20
5.8125
11
3
21
5.8125
0
CIRCLE
5
182
100
AcDbEntity
8
body
6
ByLayer
62
256
370
-1
100
AcDbCircle
10
3
20
5.1875
40
0.1875
0
CIRCLE
5
183
100
AcDbEntity
8
body
6
ByLayer
62
256
370
-1
100
AcDbCircle
10
3
20
4.6875
40
0.1875
0
CIRCLE
5
184
100
AcDbEntity
8
body
6
ByLayer
62
256
370
-1
100
AcDbCircle
10
3
20
5.1875
40
0.15625
0
CIRCLE
5
185
100
AcDbEntity
8
body
6
ByLayer
62
256
370
-1
100
AcDbCircle
10
3
20
4.6875
40
0.15625
0
ARC
5
186
100
AcDbEntity
8
body
6
ByLayer
62
256
370
-1
100
AcDbCircle
10
2.85623329228
20
5.5625
40
0.125
100
AcDbArc
50
180
51
270
0
ARC
5
187
100
AcDbEntity
8
body
6
ByLayer
62
256
370
-1
100
AcDbCircle
10
2.85623329228
20
4.3125
40
0.125
100
AcDbArc
50
90
51
180
0
ARC
5
188
100
AcDbEntity
8
body
6
ByLayer
62
256
370
-1
100
AcDbCircle
10
3
20
5.1875
40
0.25
100
AcDbArc
50
0
51
90
0
ARC
5
189
100
AcDbEntity
8
body
6
ByLayer
62
256
370
-1
100
AcDbCircle
10
3
20
4.6875
40
0.25
100
AcDbArc
50
270
51
0
0
LINE
5
18A
100
AcDbEntity
8
body
6
ByLayer
62
256
370
-1
100
AcDbLine
10
2.85623329228
20
5.4375
11
3
21
5.4375
0
LINE
5
18B
100
AcDbEntity
8
body
6
ByLayer
62
256
370
-1
100
AcDbLine
10
3.25
20
5.1875
11
3.25
21
4.6875
0
LINE
5
18C
100
AcDbEntity
8
body
6
ByLayer
62
256
370
-1
100
AcDbLine
10
2.85623329228
20
4.4375
11
3
21
4.4375
0
LINE
5
18D
100
AcDbEntity
8
body
6
ByLayer
62
256
370
-1
100
AcDbLine
10
2.73123329228
20
6.9375
11
2.73123329228
21
4.3125
0
LINE
5
18E
100
AcDbEntity
8
body
6
ByLayer
62
7
370
-1
100
AcDbLine
10
2.96875
20
6.3125
11
3.03125
21
6.3125
0
LINE
5
18F
100
AcDbEntity
8
body
6
ByLayer
62
7
370
-1
100
AcDbLine
10
3
20
6.28125
11
3
21
6.34375
0
LINE
5
190
100
AcDbEntity
8
body
6
ByLayer
62
7
370
-1
100
AcDbLine
10
2.96875
20
4.9375
11
3.03125
21
4.9375
0
LINE
5
191
100
AcDbEntity
8
body
6
ByLayer
62
7
370
-1
100
AcDbLine
10
3
20
4.90625
11
3
21
4.96875
0
ARC
5
192
100
AcDbEntity
8
body
6
ByLayer
62
256
370
-1
100
AcDbCircle
10
0
20
0
40
0.6875
100
AcDbArc
50
0
51
180
0
LINE
5
193
100
AcDbEntity
8
lower_core
6
ByLayer
62
256
370
-1
100
AcDbLine
10
-1.0625
20
2.45857100424e-16
11
1.0625
21
1.12959688247e-16
0
LINE
5
194
100
AcDbEntity
8
lower_core
6
ByLayer
62
256
370
-1
100
AcDbLine
10
1.0625
20
1.12959688247e-16
11
1.0625
21
0.535899199098
0
ARC
5
195
100
AcDbEntity
8
lower_core
6
ByLayer
62
256
370
-1
100
AcDbCircle
10
1.25
20
0.535899199098
40
0.1875
100
AcDbArc
50
102.839588407
51
180
0
ARC
5
196
100
AcDbEntity
8
lower_core
6
ByLayer
62
256
370
-1
100
AcDbCircle
10
1.125
20
1.08433447331
40
0.375
100
AcDbArc
50
282.839607671
51
90.0000011384
0
LINE
5
197
100
AcDbEntity
8
lower_core
6
ByLayer
62
256
370
-1
100
AcDbLine
10
-1.0625
20
2.45857100424e-16
11
-0.629487298108
21
-0.75
0
LINE
5
198
100
AcDbEntity
8
lower_core
6
ByLayer
62
256
370
-1
100
AcDbLine
10
1.0625
20
1.12959688247e-16
11
0.629487298108
21
-0.75
0
LINE
5
199
100
AcDbEntity
8
lower_core
6
ByLayer
62
256
370
-1
100
AcDbLine
10
-0.629487298108
20
-0.75
11
0.629487298108
21
-0.75
0
LINE
5
19A
100
AcDbEntity
8
lower_core
6
ByLayer
62
256
370
-1
100
AcDbLine
10
1.12500000745
20
1.45933447331
11
9.05163261513e-17
21
1.49862033925
0
LINE
5
19B
100
AcDbEntity
8
lower_core
6
ByLayer
62
256
370
-1
100
AcDbLine
10
9.05163261513e-17
20
1.49862033925
11
-0.567864972004
21
1.46330818672
0
ARC
5
19C
100
AcDbEntity
8
lower_core
6
ByLayer
62
256
370
-1
100
AcDbCircle
10
-0.560106948949
20
1.33854916669
40
0.125
100
AcDbArc
50
93.5583027337
51
148.509267117
0
ARC
5
19D
100
AcDbEntity
8
lower_core
6
ByLayer
62
256
370
-1
100
AcDbCircle
10
1.625
20
-8.32667268469e-17
40
2.6875
100
AcDbArc
50
148.509267489
51
180
0
LINE
5
19E
100
AcDbEntity
8
water_jacket
6
ByLayer
62
256
370
-1
100
AcDbLine
10
-0.629362437088
20
3.06671275653
11
0
21
3.08869057712
0
ARC
5
19F
100
AcDbEntity
8
water_jacket
6
ByLayer
62
256
370
-1
100
AcDbCircle
10
-0.625
20
2.94178890315
40
0.125
100
AcDbArc
50
92.0000000001
51
180
0
LINE
5
1A0
100
AcDbEntity
8
water_jacket
6
ByLayer
62
256
370
-1
100
AcDbLine
10
0.629362437088
20
3.06671275653
11
0
21
3.08869057712
0
ARC
5
1A1
100
AcDbEntity
8
water_jacket
6
ByLayer
62
256
370
-1
100
AcDbCircle
10
0.625
20
2.94178890315
40
0.125
100
AcDbArc
50
0
51
87.9999999999
0
LINE
5
1A2
100
AcDbEntity
8
water_jacket
6
ByLayer
62
256
370
-1
100
AcDbLine
10
0.75
20
2.94178890315
11
0.75
21
1.99571109685
0
LINE
5
1A3
100
AcDbEntity
8
water_jacket
6
ByLayer
62
256
370
-1
100
AcDbLine
10
0.629362437088
20
1.87078724347
11
-1.42108547152e-14
21
1.84880942288
0
ARC
5
1A4
100
AcDbEntity
8
water_jacket
6
ByLayer
62
256
370
-1
100
AcDbCircle
10
0.625
20
1.99571109685
40
0.125
100
AcDbArc
50
272
51
0
0
LINE
5
1A5
100
AcDbEntity
8
water_jacket
6
ByLayer
62
256
370
-1
100
AcDbLine
10
-0.629362437088
20
1.87078724347
11
-2.13162820728e-14
21
1.84880942288
0
LINE
5
1A6
100
AcDbEntity
8
water_jacket
6
ByLayer
62
256
370
-1
100
AcDbLine
10
-0.75
20
1.99571109685
11
-0.75
21
2.94178890315
0
ARC
5
1A7
100
AcDbEntity
8
water_jacket
6
ByLayer
62
256
370
-1
100
AcDbCircle
10
-0.625
20
1.99571109685
40
0.125
100
AcDbArc
50
180
51
268
0
LINE
5
1A8
100
AcDbEntity
8
core_blocks
6
ByLayer
62
256
370
-1
100
AcDbLine
10
-2
20
3.83869057712
11
2
21
3.83869057712
0
LINE
5
1A9
100
AcDbEntity
8
core_blocks
6
ByLayer
62
256
370
-1
100
AcDbLine
10
-2
20
1.67762983925
11
2
21
1.67762983925
0
LINE
5
1AA
100
AcDbEntity
8
core_blocks
6
ByLayer
62
256
370
-1
100
AcDbLine
10
-2
20
1.79408394335e-16
11
2
21
1.79408394335e-16
0
LINE
5
1AB
100
AcDbEntity
8
core_blocks
6
ByLayer
62
256
370
-1
100
AcDbLine
10
-2
20
-0.75
11
2
21
-0.75
0
LINE
5
1AC
100
AcDbEntity
8
core_blocks
6
ByLayer
62
256
370
-1
100
AcDbLine
10
2
20
3.83869057712
11
2
21
-0.75
0
LINE
5
1AD
100
AcDbEntity
8
core_blocks
6
ByLayer
62
256
370
-1
100
AcDbLine
10
1.63286239886e-16
20
3.83869057712
11
-2.11348775284e-16
21
-0.75
0
LINE
5
1AE
100
AcDbEntity
8
core_blocks
6
ByLayer
62
256
370
-1
100
AcDbLine
10
-2
20
3.83869057712
11
-2
21
-0.75
0
LINE
5
1AF
100
AcDbEntity
8
lower_core
6
ByLayer
62
256
370
-1
100
AcDbLine
10
1.075
20
1.08433447331
11
1.175
21
1.08433447331
0
LINE
5
1B0
100
AcDbEntity
8
lower_core
6
ByLayer
62
256
370
-1
100
AcDbLine
10
1.125
20
1.03433447331
11
1.125
21
1.13433447331
0
ENDSEC
0
SECTION
2
OBJECTS
0
DICTIONARY
5
C
330
0
100
AcDbDictionary
281
1
3
ACAD_GROUP
350
D
0
DICTIONARY
5
D
330
C
100
AcDbDictionary
281
1
0
ENDSEC
0
EOF
