999
dxflib 2.2.0.0
  0
SECTION
  2
HEADER
  9
$ACADVER
  1
AC1015
  9
$HANDSEED
  5
FFFF
  9
$DIMASZ
 40
0.1
  9
$PLIMMIN
 10
0.0
 20
0.0
  9
$DIMEXE
 40
0.05
  9
$DIMGAP
 40
0.025
  9
$PLIMMAX
 10
8.2677165354330722
 20
11.6929133858267722
  9
$INSUNITS
 70
1
  9
$DIMSTYLE
  2
Standard
  9
$DIMEXO
 40
0.025
  9
$DIMTXT
 40
0.1
  0
ENDSEC
  0
SECTION
  2
TABLES
  0
TABLE
  2
VPORT
  5
8
100
AcDbSymbolTable
 70
1
  0
VPORT
  5
30
100
AcDbSymbolTableRecord
100
AcDbViewportTableRecord
  2
*Active
 70
0
 10
0.0
 20
0.0
 11
1.0
 21
1.0
 12
286.3055555555554861
 22
148.5
 13
0.0
 23
0.0
 14
10.0
 24
10.0
 15
10.0
 25
10.0
 16
0.0
 26
0.0
 36
1.0
 17
0.0
 27
0.0
 37
0.0
 40
297.0
 41
1.92798353909465
 42
50.0
 43
0.0
 44
0.0
 50
0.0
 51
0.0
 71
0
 72
100
 73
1
 74
3
 75
1
 76
1
 77
0
 78
0
281
0
 65
1
110
0.0
120
0.0
130
0.0
111
1.0
121
0.0
131
0.0
112
0.0
122
1.0
132
0.0
 79
0
146
0.0
  0
ENDTAB
  0
TABLE
  2
LTYPE
  5
5
100
AcDbSymbolTable
 70
21
  0
LTYPE
  5
14
100
AcDbSymbolTableRecord
100
AcDbLinetypeTableRecord
  2
ByBlock
 70
0
  3

 72
65
 73
0
 40
0.0
  0
LTYPE
  5
15
100
AcDbSymbolTableRecord
100
AcDbLinetypeTableRecord
  2
ByLayer
 70
0
  3

 72
65
 73
0
 40
0.0
  0
LTYPE
  5
16
100
AcDbSymbolTableRecord
100
AcDbLinetypeTableRecord
  2
CONTINUOUS
 70
0
  3
Solid line
 72
65
 73
0
 40
0.0
  0
LTYPE
  5
31
100
AcDbSymbolTableRecord
100
AcDbLinetypeTableRecord
  2
DOT
 70
0
  3
Dot . . . . . . . . . . . . . . . . . . . . . .
 72
65
 73
2
 40
6.3499999999999996
 49
0.0
 74
0
 49
-6.3499999999999996
 74
0
  0
LTYPE
  5
32
100
AcDbSymbolTableRecord
100
AcDbLinetypeTableRecord
  2
DOT2
 70
0
  3
Dot (.5x) .....................................
 72
65
 73
2
 40
3.1749999999999998
 49
0.0
 74
0
 49
-3.1749999999999998
 74
0
  0
LTYPE
  5
33
100
AcDbSymbolTableRecord
100
AcDbLinetypeTableRecord
  2
DOTX2
 70
0
  3
Dot (2x) .  .  .  .  .  .  .  .  .  .  .  .  .
 72
65
 73
2
 40
12.6999999999999993
 49
0.0
 74
0
 49
-12.6999999999999993
 74
0
  0
LTYPE
  5
34
100
AcDbSymbolTableRecord
100
AcDbLinetypeTableRecord
  2
DASHED
 70
0
  3
Dashed __ __ __ __ __ __ __ __ __ __ __ __ __ _
 72
65
 73
2
 40
19.0500000000000007
 49
12.6999999999999993
 74
0
 49
-6.3499999999999996
 74
0
  0
LTYPE
  5
35
100
AcDbSymbolTableRecord
100
AcDbLinetypeTableRecord
  2
DASHED2
 70
0
  3
Dashed (.5x) _ _ _ _ _ _ _ _ _ _ _ _ _ _ _ _ _
 72
65
 73
2
 40
9.5250000000000004
 49
6.3499999999999996
 74
0
 49
-3.1749999999999998
 74
0
  0
LTYPE
  5
36
100
AcDbSymbolTableRecord
100
AcDbLinetypeTableRecord
  2
DASHEDX2
 70
0
  3
Dashed (2x) ____  ____  ____  ____  ____  ___
 72
65
 73
2
 40
38.1000000000000014
 49
25.3999999999999986
 74
0
 49
-12.6999999999999993
 74
0
  0
LTYPE
  5
37
100
AcDbSymbolTableRecord
100
AcDbLinetypeTableRecord
  2
DASHDOT
 70
0
  3
Dash dot __ . __ . __ . __ . __ . __ . __ . __
 72
65
 73
4
 40
25.3999999999999986
 49
12.6999999999999993
 74
0
 49
-6.3499999999999996
 74
0
 49
0.0
 74
0
 49
-6.3499999999999996
 74
0
  0
LTYPE
  5
38
100
AcDbSymbolTableRecord
100
AcDbLinetypeTableRecord
  2
DASHDOT2
 70
0
  3
Dash dot (.5x) _._._._._._._._._._._._._._._.
 72
65
 73
4
 40
12.6999999999999993
 49
6.3499999999999996
 74
0
 49
-3.1749999999999998
 74
0
 49
0.0
 74
0
 49
-3.1749999999999998
 74
0
  0
LTYPE
  5
39
100
AcDbSymbolTableRecord
100
AcDbLinetypeTableRecord
  2
DASHDOTX2
 70
0
  3
Dash dot (2x) ____  .  ____  .  ____  .  ___
 72
65
 73
4
 40
50.7999999999999972
 49
25.3999999999999986
 74
0
 49
-12.6999999999999993
 74
0
 49
0.0
 74
0
 49
-12.6999999999999993
 74
0
  0
LTYPE
  5
3A
100
AcDbSymbolTableRecord
100
AcDbLinetypeTableRecord
  2
DIVIDE
 70
0
  3
Divide ____ . . ____ . . ____ . . ____ . . ____
 72
65
 73
6
 40
31.75
 49
12.6999999999999993
 74
0
 49
-6.3499999999999996
 74
0
 49
0.0
 74
0
 49
-6.3499999999999996
 74
0
 49
0.0
 74
0
 49
-6.3499999999999996
 74
0
  0
LTYPE
  5
3B
100
AcDbSymbolTableRecord
100
AcDbLinetypeTableRecord
  2
DIVIDE2
 70
0
  3
Divide (.5x) __..__..__..__..__..__..__..__.._
 72
65
 73
6
 40
15.875
 49
6.3499999999999996
 74
0
 49
-3.1749999999999998
 74
0
 49
0.0
 74
0
 49
-3.1749999999999998
 74
0
 49
0.0
 74
0
 49
-3.1749999999999998
 74
0
  0
LTYPE
  5
3C
100
AcDbSymbolTableRecord
100
AcDbLinetypeTableRecord
  2
DIVIDEX2
 70
0
  3
Divide (2x) ________  .  .  ________  .  .  _
 72
65
 73
6
 40
63.5
 49
25.3999999999999986
 74
0
 49
-12.6999999999999993
 74
0
 49
0.0
 74
0
 49
-12.6999999999999993
 74
0
 49
0.0
 74
0
 49
-12.6999999999999993
 74
0
  0
LTYPE
  5
3D
100
AcDbSymbolTableRecord
100
AcDbLinetypeTableRecord
  2
CENTER
 70
0
  3
Center ____ _ ____ _ ____ _ ____ _ ____ _ ____
 72
65
 73
4
 40
50.7999999999999972
 49
31.75
 74
0
 49
-6.3499999999999996
 74
0
 49
6.3499999999999996
 74
0
 49
-6.3499999999999996
 74
0
  0
LTYPE
  5
3E
100
AcDbSymbolTableRecord
100
AcDbLinetypeTableRecord
  2
CENTER2
 70
0
  3
Center (.5x) ___ _ ___ _ ___ _ ___ _ ___ _ ___
 72
65
 73
4
 40
28.5749999999999993
 49
19.0500000000000007
 74
0
 49
-3.1749999999999998
 74
0
 49
3.1749999999999998
 74
0
 49
-3.1749999999999998
 74
0
  0
LTYPE
  5
3F
100
AcDbSymbolTableRecord
100
AcDbLinetypeTableRecord
  2
CENTERX2
 70
0
  3
Center (2x) ________  __  ________  __  _____
 72
65
 73
4
 40
101.5999999999999943
 49
63.5
 74
0
 49
-12.6999999999999993
 74
0
 49
12.6999999999999993
 74
0
 49
-12.6999999999999993
 74
0
  0
LTYPE
  5
40
100
AcDbSymbolTableRecord
100
AcDbLinetypeTableRecord
  2
BORDER
 70
0
  3
Border __ __ . __ __ . __ __ . __ __ . __ __ .
 72
65
 73
6
 40
44.4500000000000028
 49
12.6999999999999993
 74
0
 49
-6.3499999999999996
 74
0
 49
12.6999999999999993
 74
0
 49
-6.3499999999999996
 74
0
 49
0.0
 74
0
 49
-6.3499999999999996
 74
0
  0
LTYPE
  5
41
100
AcDbSymbolTableRecord
100
AcDbLinetypeTableRecord
  2
BORDER2
 70
0
  3
Border (.5x) __.__.__.__.__.__.__.__.__.__.__.
 72
65
 73
6
 40
22.2250000000000014
 49
6.3499999999999996
 74
0
 49
-3.1749999999999998
 74
0
 49
6.3499999999999996
 74
0
 49
-3.1749999999999998
 74
0
 49
0.0
 74
0
 49
-3.1749999999999998
 74
0
  0
LTYPE
  5
42
100
AcDbSymbolTableRecord
100
AcDbLinetypeTableRecord
  2
BORDERX2
 70
0
  3
Border (2x) ____  ____  .  ____  ____  .  ___
 72
65
 73
6
 40
88.9000000000000057
 49
25.3999999999999986
 74
0
 49
-12.6999999999999993
 74
0
 49
25.3999999999999986
 74
0
 49
-12.6999999999999993
 74
0
 49
0.0
 74
0
 49
-12.6999999999999993
 74
0
  0
ENDTAB
  0
TABLE
  2
LAYER
  5
2
100
AcDbSymbolTable
 70
7
  0
LAYER
  5
10
100
AcDbSymbolTableRecord
100
AcDbLayerTableRecord
  2
0
 70
0
 62
7
  6
CONTINUOUS
370
0
390
F
  0
LAYER
  5
43
100
AcDbSymbolTableRecord
100
AcDbLayerTableRecord
  2
body
 70
0
 62
7
  6
CONTINUOUS
370
0
390
F
  0
LAYER
  5
44
100
AcDbSymbolTableRecord
100
AcDbLayerTableRecord
  2
sump
 70
1
 62
7
  6
CONTINUOUS
370
0
390
F
  0
LAYER
  5
45
100
AcDbSymbolTableRecord
100
AcDbLayerTableRecord
  2
timing_cover
 70
1
 62
7
  6
CONTINUOUS
370
0
390
F
  0
LAYER
  5
46
100
AcDbSymbolTableRecord
100
AcDbLayerTableRecord
  2
crank
 70
1
 62
3
  6
CONTINUOUS
370
0
390
F
  0
LAYER
  5
47
100
AcDbSymbolTableRecord
100
AcDbLayerTableRecord
  2
liner
 70
1
 62
9
  6
CONTINUOUS
370
0
390
F
  0
LAYER
  5
48
100
AcDbSymbolTableRecord
100
AcDbLayerTableRecord
  2
camplate
 70
1
 62
7
  6
CONTINUOUS
370
0
390
F
  0
ENDTAB
  0
TABLE
  2
STYLE
  5
3
100
AcDbSymbolTable
 70
1
  0
STYLE
  5
11
100
AcDbSymbolTableRecord
100
AcDbTextStyleTableRecord
  2
Standard
 70
0
 40
0.0
 41
0.75
 50
0.0
 71
0
 42
2.5
  3
txt
  4

  0
ENDTAB
  0
TABLE
  2
VIEW
  5
6
100
AcDbSymbolTable
 70
0
  0
ENDTAB
  0
TABLE
  2
UCS
  5
7
100
AcDbSymbolTable
 70
0
  0
ENDTAB
  0
TABLE
  2
APPID
  5
9
100
AcDbSymbolTable
 70
1
  0
APPID
  5
12
100
AcDbSymbolTableRecord
100
AcDbRegAppTableRecord
  2
ACAD
 70
0
  0
ENDTAB
  0
TABLE
  2
DIMSTYLE
  5
A
100
AcDbSymbolTable
 70
1
100
AcDbDimStyleTable
 71
0
  0
DIMSTYLE
105
27
100
AcDbSymbolTableRecord
100
AcDbDimStyleTableRecord
  2
Standard
 41
0.1
 42
0.025
 43
3.75
 44
0.05
 70
0
 73
0
 74
0
 77
1
 78
8
140
0.1
141
2.5
143
0.03937007874016
147
0.025
171
3
172
1
271
2
272
2
274
3
278
44
283
0
284
8
340
11
  0
ENDTAB
  0
TABLE
  2
BLOCK_RECORD
  5
1
100
AcDbSymbolTable
 70
1
  0
BLOCK_RECORD
  5
1F
100
AcDbSymbolTableRecord
100
AcDbBlockTableRecord
  2
*Model_Space
340
22
  0
BLOCK_RECORD
  5
1B
100
AcDbSymbolTableRecord
100
AcDbBlockTableRecord
  2
*Paper_Space
340
1E
  0
BLOCK_RECORD
  5
23
100
AcDbSymbolTableRecord
100
AcDbBlockTableRecord
  2
*Paper_Space0
340
26
  0
ENDTAB
  0
ENDSEC
  0
SECTION
  2
BLOCKS
  0
BLOCK
  5
20
100
AcDbEntity
  8
0
100
AcDbBlockBegin
  2
*Model_Space
 70
0
 10
0.0
 20
0.0
 30
0.0
  3
*Model_Space
  1

  0
ENDBLK
  5
21
100
AcDbEntity
  8
0
100
AcDbBlockEnd
  0
BLOCK
  5
1C
100
AcDbEntity
 67
1
  8
0
100
AcDbBlockBegin
  2
*Paper_Space
 70
0
 10
0.0
 20
0.0
 30
0.0
  3
*Paper_Space
  1

  0
ENDBLK
  5
1D
100
AcDbEntity
 67
1
  8
0
100
AcDbBlockEnd
  0
BLOCK
  5
24
100
AcDbEntity
  8
0
100
AcDbBlockBegin
  2
*Paper_Space0
 70
0
 10
0.0
 20
0.0
 30
0.0
  3
*Paper_Space0
  1

  0
ENDBLK
  5
25
100
AcDbEntity
  8
0
100
AcDbBlockEnd
  0
ENDSEC
  0
SECTION
  2
ENTITIES
  0
LINE
  5
49
100
AcDbEntity
100
AcDbLine
  8
sump
 62
2
370
-1
  6
ByLayer
 10
-1.0625000000000002
 20
-0.6250000000000001
 30
0.0
 11
-1.0625000000000002
 21
-0.0
 31
0.0
  0
LINE
  5
4A
100
AcDbEntity
100
AcDbLine
  8
sump
 62
2
370
-1
  6
ByLayer
 10
1.0625000000000002
 20
-0.6250000000000001
 30
0.0
 11
1.0625000000000002
 21
0.0000000000000001
 31
0.0
  0
LINE
  5
4B
100
AcDbEntity
100
AcDbLine
  8
sump
 62
2
370
-1
  6
ByLayer
 10
-1.0625000000000002
 20
-0.6250000000000001
 30
0.0
 11
-1.3125000000000002
 21
-0.6250000000000001
 31
0.0
  0
LINE
  5
4C
100
AcDbEntity
100
AcDbLine
  8
sump
 62
2
370
-1
  6
ByLayer
 10
1.3125000000000002
 20
-0.6250000000000001
 30
0.0
 11
1.0625000000000002
 21
-0.6250000000000001
 31
0.0
  0
LINE
  5
4D
100
AcDbEntity
100
AcDbLine
  8
sump
 62
2
370
-1
  6
ByLayer
 10
-1.6562499999999998
 20
-0.0
 30
0.0
 11
-1.5937499999999998
 21
-0.0
 31
0.0
  0
LINE
  5
4E
100
AcDbEntity
100
AcDbLine
  8
sump
 62
2
370
-1
  6
ByLayer
 10
1.5937499999999998
 20
-0.0
 30
0.0
 11
1.6562499999999998
 21
-0.0
 31
0.0
  0
LINE
  5
4F
100
AcDbEntity
100
AcDbLine
  8
sump
 62
2
370
-1
  6
ByLayer
 10
-1.6249999999999998
 20
-0.03125
 30
0.0
 11
-1.6249999999999998
 21
0.03125
 31
0.0
  0
LINE
  5
50
100
AcDbEntity
100
AcDbLine
  8
sump
 62
2
370
-1
  6
ByLayer
 10
1.6249999999999998
 20
-0.03125
 30
0.0
 11
1.6249999999999998
 21
0.03125
 31
0.0
  0
LINE
  5
51
100
AcDbEntity
100
AcDbLine
  8
sump
 62
2
370
-1
  6
ByLayer
 10
1.3125000000000002
 20
-0.0
 30
0.0
 11
-1.0625000000000002
 21
-0.0
 31
0.0
  0
LINE
  5
52
100
AcDbEntity
100
AcDbLine
  8
sump
 62
2
370
-1
  6
ByLayer
 10
-1.0625000000000002
 20
-0.0
 30
0.0
 11
-1.3125000000000002
 21
-0.0
 31
0.0
  0
ARC
  5
53
100
AcDbEntity
  8
sump
 62
2
370
-1
  6
ByLayer
100
AcDbCircle
 10
1.6249999999999998
 20
-0.0
 30
0.0
 40
2.8125
100
AcDbArc
 50
180.0
 51
218.4785951332979437
  0
LINE
  5
54
100
AcDbEntity
100
AcDbLine
  8
sump
 62
2
370
-1
  6
ByLayer
 10
0.5767393692260669
 20
-1.75
 30
0.0
 11
-0.5767393692260672
 21
-1.75
 31
0.0
  0
ARC
  5
55
100
AcDbEntity
  8
sump
 62
2
370
-1
  6
ByLayer
100
AcDbCircle
 10
-1.6249999999999998
 20
-0.0
 30
0.0
 40
2.6875
100
AcDbArc
 50
322.7962560093251909
 51
0.0
  0
ARC
  5
56
100
AcDbEntity
  8
sump
 62
2
370
-1
  6
ByLayer
100
AcDbCircle
 10
1.6249999999999998
 20
-0.0
 30
0.0
 40
2.6875
100
AcDbArc
 50
180.0
 51
217.2037439906748091
  0
LINE
  5
57
100
AcDbEntity
100
AcDbLine
  8
sump
 62
2
370
-1
  6
ByLayer
 10
-1.3125000000000002
 20
-0.6250000000000001
 30
0.0
 11
-1.3125000000000002
 21
-0.0
 31
0.0
  0
LINE
  5
58
100
AcDbEntity
100
AcDbLine
  8
sump
 62
2
370
-1
  6
ByLayer
 10
1.3125000000000002
 20
-0.6250000000000001
 30
0.0
 11
1.3125000000000002
 21
-0.0
 31
0.0
  0
LINE
  5
59
100
AcDbEntity
100
AcDbLine
  8
sump
 62
2
370
-1
  6
ByLayer
 10
-1.1875000000000002
 20
-0.6250000000000001
 30
0.0
 11
-1.1875000000000002
 21
-0.0
 31
0.0
  0
ARC
  5
5A
100
AcDbEntity
  8
sump
 62
2
370
-1
  6
ByLayer
100
AcDbCircle
 10
-1.6249999999999998
 20
-0.0
 30
0.0
 40
2.8125
100
AcDbArc
 50
321.5214048667020847
 51
0.0
  0
LINE
  5
5B
100
AcDbEntity
100
AcDbLine
  8
sump
 62
2
370
-1
  6
ByLayer
 10
1.1875000000000002
 20
-0.6250000000000001
 30
0.0
 11
1.1875000000000002
 21
-0.0
 31
0.0
  0
LINE
  5
5C
100
AcDbEntity
100
AcDbLine
  8
sump
 62
2
370
-1
  6
ByLayer
 10
1.3125000000000002
 20
-0.1562500000000001
 30
0.0
 11
-1.3125000000000002
 21
-0.1562500000000001
 31
0.0
  0
ARC
  5
5D
100
AcDbEntity
  8
sump
 62
2
370
-1
  6
ByLayer
100
AcDbCircle
 10
0.0
 20
-0.0
 30
0.0
 40
0.6875000000000001
100
AcDbArc
 50
180.0
 51
0.0
  0
ARC
  5
5E
100
AcDbEntity
  8
sump
 62
2
370
-1
  6
ByLayer
100
AcDbCircle
 10
0.0
 20
-0.0
 30
0.0
 40
0.4375
100
AcDbArc
 50
180.0
 51
360.0
  0
LINE
  5
5F
100
AcDbEntity
100
AcDbLine
  8
sump
 62
2
370
-1
  6
ByLayer
 10
0.2499999999999999
 20
-1.8125
 30
0.0
 11
0.2499999999999999
 21
-1.75
 31
0.0
  0
LINE
  5
60
100
AcDbEntity
100
AcDbLine
  8
sump
 62
2
370
-1
  6
ByLayer
 10
-0.25
 20
-1.8125
 30
0.0
 11
-0.25
 21
-1.75
 31
0.0
  0
LINE
  5
61
100
AcDbEntity
100
AcDbLine
  8
sump
 62
2
370
-1
  6
ByLayer
 10
0.2499999999999999
 20
-1.8125
 30
0.0
 11
-0.25
 21
-1.8125
 31
0.0
  0
ARC
  5
62
100
AcDbEntity
  8
timing_cover
 62
4
370
-1
  6
ByLayer
100
AcDbCircle
 10
1.1250000000000011
 20
1.0843344733060918
 30
0.0
 40
0.6875
100
AcDbArc
 50
309.3569538265230108
 51
138.5340852980946238
  0
LINE
  5
63
100
AcDbEntity
100
AcDbLine
  8
timing_cover
 62
4
370
-1
  6
ByLayer
 10
0.0312500000000002
 20
-0.0000000000000004
 30
0.0
 11
-0.0312499999999989
 21
0.0000000000000004
 31
0.0
  0
LINE
  5
64
100
AcDbEntity
100
AcDbLine
  8
timing_cover
 62
4
370
-1
  6
ByLayer
 10
0.0000000000000002
 20
-0.0312500000000004
 30
0.0
 11
-0.0000000000000002
 21
0.0312499999999996
 31
0.0
  0
LINE
  5
65
100
AcDbEntity
100
AcDbLine
  8
timing_cover
 62
4
370
-1
  6
ByLayer
 10
1.1562500000000011
 20
1.0843344733060909
 30
0.0
 11
1.093750000000002
 21
1.0843344733060918
 31
0.0
  0
LINE
  5
66
100
AcDbEntity
100
AcDbLine
  8
timing_cover
 62
4
370
-1
  6
ByLayer
 10
1.1250000000000011
 20
1.0530844733060918
 30
0.0
 11
1.1250000000000002
 21
1.1155844733060909
 31
0.0
  0
LINE
  5
67
100
AcDbEntity
100
AcDbLine
  8
timing_cover
 62
4
370
-1
  6
ByLayer
 10
0.031250000000002
 20
-0.9374999999999991
 30
0.0
 11
-0.0312500000000007
 21
-0.9375000000000009
 31
0.0
  0
LINE
  5
68
100
AcDbEntity
100
AcDbLine
  8
timing_cover
 62
4
370
-1
  6
ByLayer
 10
0.000000000000002
 20
-0.9687499999999991
 30
0.0
 11
-0.0000000000000002
 21
-0.9062500000000004
 31
0.0
  0
LINE
  5
69
100
AcDbEntity
100
AcDbLine
  8
timing_cover
 62
4
370
-1
  6
ByLayer
 10
1.6402466973481842
 20
0.4561011640397097
 30
0.0
 11
0.7572192962316662
 21
-0.2681153736420203
 31
0.0
  0
ARC
  5
6A
100
AcDbEntity
  8
timing_cover
 62
4
370
-1
  6
ByLayer
100
AcDbCircle
 10
0.7968536575661427
 20
-0.3164410128163575
 30
0.0
 40
0.0625
100
AcDbArc
 50
129.3569538265231813
 51
234.3226943139329421
  0
CIRCLE
  5
6B
100
AcDbEntity
100
AcDbCircle
  8
timing_cover
 62
4
370
-1
  6
ByLayer
 10
0.6875000000000002
 20
-0.4687500000000004
 30
0.0
 40
0.125
  0
ARC
  5
6C
100
AcDbEntity
  8
timing_cover
 62
4
370
-1
  6
ByLayer
100
AcDbCircle
 10
0.8112445844757128
 20
-0.6096170572310413
 30
0.0
 40
0.0625
100
AcDbArc
 50
131.2976700628961453
 51
202.0072160273047359
  0
ARC
  5
6D
100
AcDbEntity
  8
timing_cover
 62
4
370
-1
  6
ByLayer
100
AcDbCircle
 10
-0.8112445844757106
 20
-0.6096170572310422
 30
0.0
 40
0.0625
100
AcDbArc
 50
337.9927839726950651
 51
48.7023299371037055
  0
ARC
  5
6E
100
AcDbEntity
  8
timing_cover
 62
4
370
-1
  6
ByLayer
100
AcDbCircle
 10
0.0000000000000002
 20
-0.9375
 30
0.0
 40
0.8125
100
AcDbArc
 50
318.9014256314271734
 51
22.0072160273049633
  0
ARC
  5
6F
100
AcDbEntity
  8
timing_cover
 62
4
370
-1
  6
ByLayer
100
AcDbCircle
 10
0.6593822802476572
 20
-1.5126869335228341
 30
0.0
 40
0.0625
100
AcDbArc
 50
138.9014256314267186
 51
203.5244921062747778
  0
CIRCLE
  5
70
100
AcDbEntity
100
AcDbCircle
  8
timing_cover
 62
4
370
-1
  6
ByLayer
 10
0.4874654918391965
 20
-1.5875258796893936
 30
0.0
 40
0.125
  0
ARC
  5
71
100
AcDbEntity
  8
timing_cover
 62
4
370
-1
  6
ByLayer
100
AcDbCircle
 10
0.3674681049284036
 20
-1.7315983515033433
 30
0.0
 40
0.0625
100
AcDbArc
 50
50.2092197004511789
 51
114.8322861752983641
  0
ARC
  5
72
100
AcDbEntity
  8
timing_cover
 62
4
370
-1
  6
ByLayer
100
AcDbCircle
 10
0.0000000000000002
 20
-0.9375
 30
0.0
 40
0.8125
100
AcDbArc
 50
245.1677138247009964
 51
294.832286175299032
  0
ARC
  5
73
100
AcDbEntity
  8
timing_cover
 62
4
370
-1
  6
ByLayer
100
AcDbCircle
 10
-0.3674681049284032
 20
-1.7315983515033437
 30
0.0
 40
0.0625
100
AcDbArc
 50
65.167713824700769
 51
129.790780299548544
  0
CIRCLE
  5
74
100
AcDbEntity
100
AcDbCircle
  8
timing_cover
 62
4
370
-1
  6
ByLayer
 10
-0.487465491839197
 20
-1.5875258796893941
 30
0.0
 40
0.125
  0
ARC
  5
75
100
AcDbEntity
  8
timing_cover
 62
4
370
-1
  6
ByLayer
100
AcDbCircle
 10
0.0000000000000002
 20
-0.9375
 30
0.0
 40
0.8125
100
AcDbArc
 50
157.9927839726950367
 51
221.0985743685728835
  0
ARC
  5
76
100
AcDbEntity
  8
timing_cover
 62
4
370
-1
  6
ByLayer
100
AcDbCircle
 10
-0.6593822802476541
 20
-1.5126869335228341
 30
0.0
 40
0.0625
100
AcDbArc
 50
336.4755078937252506
 51
41.0985743685728906
  0
ARC
  5
77
100
AcDbEntity
  8
timing_cover
 62
4
370
-1
  6
ByLayer
100
AcDbCircle
 10
1.1250000000000011
 20
1.0843344733060918
 30
0.0
 40
0.8125
100
AcDbArc
 50
309.3569538265230108
 51
31.910949834244736
  0
ARC
  5
78
100
AcDbEntity
  8
timing_cover
 62
4
370
-1
  6
ByLayer
100
AcDbCircle
 10
1.8677618466862642
 20
1.5468599743405878
 30
0.0
 40
0.0625
100
AcDbArc
 50
147.287883359397
 51
211.9109498342448319
  0
CIRCLE
  5
79
100
AcDbEntity
100
AcDbCircle
  8
timing_cover
 62
4
370
-1
  6
ByLayer
 10
1.7100000000000011
 20
1.6481883994252589
 30
0.0
 40
0.125
  0
ARC
  5
7A
100
AcDbEntity
  8
timing_cover
 62
4
370
-1
  6
ByLayer
100
AcDbCircle
 10
1.1250000000000011
 20
1.0843344733060918
 30
0.0
 40
0.8125
100
AcDbArc
 50
55.9800892903728737
 51
138.5340852980946238
  0
ARC
  5
7B
100
AcDbEntity
  8
timing_cover
 62
4
370
-1
  6
ByLayer
100
AcDbCircle
 10
1.6145458456214297
 20
1.8095722722622676
 30
0.0
 40
0.0625
100
AcDbArc
 50
235.9800892903729448
 51
300.6031557652204924
  0
LINE
  5
7C
100
AcDbEntity
100
AcDbLine
  8
timing_cover
 62
4
370
-1
  6
ByLayer
 10
0.6098220253207691
 20
1.5395793573030523
 30
0.0
 11
0.5143018840590978
 21
1.4314839681045837
 31
0.0
  0
ARC
  5
7D
100
AcDbEntity
  8
timing_cover
 62
4
370
-1
  6
ByLayer
100
AcDbCircle
 10
0.5611362453935735
 20
1.390098069559405
 30
0.0
 40
0.0625
100
AcDbArc
 50
138.5340852980946238
 51
209.0628646636038752
  0
CIRCLE
  5
7E
100
AcDbEntity
100
AcDbCircle
  8
timing_cover
 62
4
370
-1
  6
ByLayer
 10
0.3972448860319215
 20
1.2990163901359888
 30
0.0
 40
0.125
  0
LINE
  5
7F
100
AcDbEntity
100
AcDbLine
  8
timing_cover
 62
4
370
-1
  6
ByLayer
 10
0.2801878880047453
 20
1.1665488121673939
 30
0.0
 11
-0.4215092520102786
 21
0.3724730869066044
 31
0.0
  0
ARC
  5
80
100
AcDbEntity
  8
timing_cover
 62
4
370
-1
  6
ByLayer
100
AcDbCircle
 10
0.3270222493392219
 20
1.1251629136222152
 30
0.0
 40
0.0625
100
AcDbArc
 50
68.0053059325853155
 51
138.5340852980947091
  0
LINE
  5
81
100
AcDbEntity
100
AcDbLine
  8
timing_cover
 62
4
370
-1
  6
ByLayer
 10
1.5609779746792329
 20
0.5527524423883832
 30
0.0
 11
1.4494406626294725
 21
0.4612749119596944
 31
0.0
  0
ARC
  5
82
100
AcDbEntity
  8
timing_cover
 62
4
370
-1
  6
ByLayer
100
AcDbCircle
 10
1.409806301294996
 20
0.5096005511340285
 30
0.0
 40
0.0625
100
AcDbArc
 50
238.8281744610136172
 51
309.3569538265230108
  0
CIRCLE
  5
83
100
AcDbEntity
100
AcDbCircle
  8
timing_cover
 62
4
370
-1
  6
ByLayer
 10
1.3127551139680789
 20
0.3491720092892687
 30
0.0
 40
0.125
  0
ARC
  5
84
100
AcDbEntity
  8
timing_cover
 62
4
370
-1
  6
ByLayer
100
AcDbCircle
 10
1.1364352039722123
 20
0.285394745793186
 30
0.0
 40
0.0625
100
AcDbArc
 50
309.3569538265230108
 51
19.8857331920322906
  0
LINE
  5
85
100
AcDbEntity
100
AcDbLine
  8
timing_cover
 62
4
370
-1
  6
ByLayer
 10
0.5161533026518186
 20
1.6223511543934088
 30
0.0
 11
-0.3981209766520555
 21
0.5877124619655532
 31
0.0
  0
ARC
  5
86
100
AcDbEntity
  8
timing_cover
 62
4
370
-1
  6
ByLayer
100
AcDbCircle
 10
-0.4449553379865312
 20
0.629098360510731
 30
0.0
 40
0.0625
100
AcDbArc
 50
248.0053059325853724
 51
318.5340852980946238
  0
CIRCLE
  5
87
100
AcDbEntity
100
AcDbCircle
  8
timing_cover
 62
4
370
-1
  6
ByLayer
 10
-0.5151779746792313
 20
0.4552448839969583
 30
0.0
 40
0.125
  0
ARC
  5
88
100
AcDbEntity
  8
timing_cover
 62
4
370
-1
  6
ByLayer
100
AcDbCircle
 10
-0.66631394324341
 20
0.3442756585055311
 30
0.0
 40
0.0625
100
AcDbArc
 50
332.6751955320262937
 51
36.287395570783282
  0
CIRCLE
  5
89
100
AcDbEntity
100
AcDbCircle
  8
timing_cover
 62
4
370
-1
  6
ByLayer
 10
-0.6874999999999993
 20
-0.4687499999999996
 30
0.0
 40
0.125
  0
ARC
  5
8A
100
AcDbEntity
  8
timing_cover
 62
4
370
-1
  6
ByLayer
100
AcDbCircle
 10
-0.6952045275941983
 20
-0.2814083595285064
 30
0.0
 40
0.0625
100
AcDbArc
 50
272.3549932435404344
 51
22.0373635495751365
  0
ARC
  5
8B
100
AcDbEntity
  8
timing_cover
 62
4
370
-1
  6
ByLayer
100
AcDbCircle
 10
0.0000000000000002
 20
0.0
 30
0.0
 40
0.6875
100
AcDbArc
 50
152.6751955465792889
 51
202.0373635495752467
  0
LINE
  5
8C
100
AcDbEntity
100
AcDbLine
  8
timing_cover
 62
4
370
-1
  6
ByLayer
 10
1.176069565306687
 20
0.2370691066188475
 30
0.0
 11
0.4717656671947099
 21
-0.3405670232696032
 31
0.0
  0
ARC
  5
8D
100
AcDbEntity
  8
timing_cover
 62
4
370
-1
  6
ByLayer
100
AcDbCircle
 10
0.5114000285291864
 20
-0.3888926624439386
 30
0.0
 40
0.0625
100
AcDbArc
 50
129.3569538265228687
 51
227.0103132906751568
  0
ARC
  5
8E
100
AcDbEntity
  8
timing_cover
 62
4
370
-1
  6
ByLayer
100
AcDbCircle
 10
0.0000000000000002
 20
0.0
 30
0.0
 40
0.5625
100
AcDbArc
 50
138.5340852980947091
 51
217.1090049458084934
  0
ARC
  5
8F
100
AcDbEntity
  8
timing_cover
 62
4
370
-1
  6
ByLayer
100
AcDbCircle
 10
0.0000000000000002
 20
-0.9375
 30
0.0
 40
0.6875
100
AcDbArc
 50
131.6496722738668552
 51
47.0103132906750645
  0
ARC
  5
90
100
AcDbEntity
  8
timing_cover
 62
4
370
-1
  6
ByLayer
100
AcDbCircle
 10
-0.4984306970103487
 20
-0.3770833333333332
 30
0.0
 40
0.0625
100
AcDbArc
 50
311.6496722738668836
 51
37.1090049458084152
  0
LINE
  5
91
100
AcDbEntity
100
AcDbLine
  8
timing_cover
 62
4
370
-1
  6
ByLayer
 10
1.7412500000000011
 20
1.6481883994252597
 30
0.0
 11
1.6787500000000002
 21
1.648188399425258
 31
0.0
  0
LINE
  5
92
100
AcDbEntity
100
AcDbLine
  8
timing_cover
 62
4
370
-1
  6
ByLayer
 10
1.7100000000000011
 20
1.6169383994252597
 30
0.0
 11
1.7100000000000011
 21
1.6794383994252589
 31
0.0
  0
LINE
  5
93
100
AcDbEntity
100
AcDbLine
  8
timing_cover
 62
4
370
-1
  6
ByLayer
 10
0.4284948860319215
 20
1.2990163901359888
 30
0.0
 11
0.3659948860319224
 21
1.2990163901359897
 31
0.0
  0
LINE
  5
94
100
AcDbEntity
100
AcDbLine
  8
timing_cover
 62
4
370
-1
  6
ByLayer
 10
0.3972448860319215
 20
1.2677663901359888
 30
0.0
 11
0.3972448860319207
 21
1.3302663901359879
 31
0.0
  0
LINE
  5
95
100
AcDbEntity
100
AcDbLine
  8
timing_cover
 62
4
370
-1
  6
ByLayer
 10
1.3440051139680789
 20
0.3491720092892696
 30
0.0
 11
1.2815051139680798
 21
0.3491720092892705
 31
0.0
  0
LINE
  5
96
100
AcDbEntity
100
AcDbLine
  8
timing_cover
 62
4
370
-1
  6
ByLayer
 10
1.3127551139680798
 20
0.3179220092892705
 30
0.0
 11
1.3127551139680789
 21
0.3804220092892678
 31
0.0
  0
LINE
  5
97
100
AcDbEntity
100
AcDbLine
  8
timing_cover
 62
4
370
-1
  6
ByLayer
 10
-0.4839279746792309
 20
0.4552448839969583
 30
0.0
 11
-0.5464279746792318
 21
0.4552448839969583
 31
0.0
  0
LINE
  5
98
100
AcDbEntity
100
AcDbLine
  8
timing_cover
 62
4
370
-1
  6
ByLayer
 10
-0.5151779746792309
 20
0.4239948839969592
 30
0.0
 11
-0.5151779746792313
 21
0.4864948839969583
 31
0.0
  0
LINE
  5
99
100
AcDbEntity
100
AcDbLine
  8
timing_cover
 62
4
370
-1
  6
ByLayer
 10
-0.6562499999999998
 20
-0.46875
 30
0.0
 11
-0.7187499999999989
 21
-0.4687499999999996
 31
0.0
  0
LINE
  5
9A
100
AcDbEntity
100
AcDbLine
  8
timing_cover
 62
4
370
-1
  6
ByLayer
 10
-0.687499999999998
 20
-0.4999999999999991
 30
0.0
 11
-0.6874999999999989
 21
-0.4374999999999996
 31
0.0
  0
LINE
  5
9B
100
AcDbEntity
100
AcDbLine
  8
timing_cover
 62
4
370
-1
  6
ByLayer
 10
0.718750000000002
 20
-0.4687499999999996
 30
0.0
 11
0.6562500000000002
 21
-0.4687500000000004
 31
0.0
  0
LINE
  5
9C
100
AcDbEntity
100
AcDbLine
  8
timing_cover
 62
4
370
-1
  6
ByLayer
 10
0.6875000000000002
 20
-0.5000000000000009
 30
0.0
 11
0.6875000000000002
 21
-0.4375000000000009
 31
0.0
  0
LINE
  5
9D
100
AcDbEntity
100
AcDbLine
  8
timing_cover
 62
4
370
-1
  6
ByLayer
 10
-0.456215491839197
 20
-1.5875258796893936
 30
0.0
 11
-0.5187154918391979
 21
-1.5875258796893941
 31
0.0
  0
LINE
  5
9E
100
AcDbEntity
100
AcDbLine
  8
timing_cover
 62
4
370
-1
  6
ByLayer
 10
-0.4874654918391952
 20
-1.6187758796893927
 30
0.0
 11
-0.4874654918391943
 21
-1.5562758796893927
 31
0.0
  0
LINE
  5
9F
100
AcDbEntity
100
AcDbLine
  8
timing_cover
 62
4
370
-1
  6
ByLayer
 10
0.5187154918391956
 20
-1.5875258796893945
 30
0.0
 11
0.4562154918391974
 21
-1.5875258796893941
 31
0.0
  0
LINE
  5
A0
100
AcDbEntity
100
AcDbLine
  8
timing_cover
 62
4
370
-1
  6
ByLayer
 10
0.4874654918391992
 20
-1.6187758796893927
 30
0.0
 11
0.4874654918391965
 21
-1.556275879689395
 31
0.0
  0
LINE
  5
A1
100
AcDbEntity
100
AcDbLine
  8
timing_cover
 62
4
370
-1
  6
ByLayer
 10
0.0312500000000002
 20
-1.09375
 30
0.0
 11
-0.0312499999999998
 21
-1.0937500000000004
 31
0.0
  0
LINE
  5
A2
100
AcDbEntity
100
AcDbLine
  8
timing_cover
 62
4
370
-1
  6
ByLayer
 10
-0.0000000000000002
 20
-1.1250000000000004
 30
0.0
 11
0.000000000000002
 21
-1.0624999999999991
 31
0.0
  0
LINE
  5
A3
100
AcDbEntity
100
AcDbLine
  8
sump
 62
2
370
-1
  6
ByLayer
 10
0.5155679736929636
 20
-1.625
 30
0.0
 11
-0.5155679736929638
 21
-1.625
 31
0.0
  0
LINE
  5
A4
100
AcDbEntity
100
AcDbLine
  8
body
 62
256
370
-1
  6
ByLayer
 10
0.0
 20
-0.0
 30
0.0
 11
0.0000000000000002
 21
3.3125
 31
0.0
  0
LINE
  5
A5
100
AcDbEntity
100
AcDbLine
  8
body
 62
256
370
-1
  6
ByLayer
 10
0.8750000000000002
 20
3.3125
 30
0.0
 11
-0.8749999999999998
 21
3.3125
 31
0.0
  0
LINE
  5
A6
100
AcDbEntity
100
AcDbLine
  8
body
 62
256
370
-1
  6
ByLayer
 10
-1.8125
 20
0.0000000000000002
 30
0.0
 11
-1.8125
 21
0.1875
 31
0.0
  0
LINE
  5
A7
100
AcDbEntity
100
AcDbLine
  8
body
 62
256
370
-1
  6
ByLayer
 10
1.8125
 20
-0.0000000000000004
 30
0.0
 11
1.8125
 21
0.1875
 31
0.0
  0
LINE
  5
A8
100
AcDbEntity
100
AcDbLine
  8
body
 62
256
370
-1
  6
ByLayer
 10
-1.8125
 20
0.1875
 30
0.0
 11
1.8125
 21
0.1875
 31
0.0
  0
LINE
  5
A9
100
AcDbEntity
100
AcDbLine
  8
body
 62
256
370
-1
  6
ByLayer
 10
-1.8125
 20
-0.0
 30
0.0
 11
1.8125
 21
-0.0
 31
0.0
  0
LINE
  5
AA
100
AcDbEntity
100
AcDbLine
  8
body
 62
256
370
-1
  6
ByLayer
 10
1.1250000000000007
 20
1.5843344733060913
 30
0.0
 11
1.125
 21
1.5843344733060913
 31
0.0
  0
LINE
  5
AB
100
AcDbEntity
100
AcDbLine
  8
body
 62
256
370
-1
  6
ByLayer
 10
1.1250000000000007
 20
1.6468344733060913
 30
0.0
 11
1.125
 21
1.6468344733060913
 31
0.0
  0
LINE
  5
AC
100
AcDbEntity
100
AcDbLine
  8
crank
 62
3
370
-1
  6
ByLayer
 10
-0.03125
 20
0.0
 30
0.0
 11
0.03125
 21
0.0
 31
0.0
  0
LINE
  5
AD
100
AcDbEntity
100
AcDbLine
  8
crank
 62
3
370
-1
  6
ByLayer
 10
0.0
 20
-0.03125
 30
0.0
 11
0.0
 21
0.03125
 31
0.0
  0
LINE
  5
AE
100
AcDbEntity
100
AcDbLine
  8
crank
 62
3
370
-1
  6
ByLayer
 10
-0.0312499999999999
 20
0.5625
 30
0.0
 11
0.0312500000000001
 21
0.5625
 31
0.0
  0
LINE
  5
AF
100
AcDbEntity
100
AcDbLine
  8
crank
 62
3
370
-1
  6
ByLayer
 10
0.0000000000000001
 20
0.53125
 30
0.0
 11
0.0000000000000001
 21
0.59375
 31
0.0
  0
CIRCLE
  5
B0
100
AcDbEntity
100
AcDbCircle
  8
crank
 62
3
370
-1
  6
ByLayer
 10
-0.0
 20
-0.0
 30
0.0
 40
0.21875
  0
CIRCLE
  5
B1
100
AcDbEntity
100
AcDbCircle
  8
crank
 62
3
370
-1
  6
ByLayer
 10
0.0000000000000001
 20
0.5625
 30
0.0
 40
0.21875
  0
ARC
  5
B2
100
AcDbEntity
  8
crank
 62
256
370
-1
  6
ByLayer
100
AcDbCircle
 10
-0.0
 20
-0.0
 30
0.0
 40
0.84375
100
AcDbArc
 50
70.5287793655093083
 51
109.4712206344906917
  0
LINE
  5
B3
100
AcDbEntity
100
AcDbLine
  8
crank
 62
256
370
-1
  6
ByLayer
 10
-0.28125
 20
-0.28125
 30
0.0
 11
-0.28125
 21
0.7954951288348659
 31
0.0
  0
LINE
  5
B4
100
AcDbEntity
100
AcDbLine
  8
crank
 62
256
370
-1
  6
ByLayer
 10
0.28125
 20
-0.28125
 30
0.0
 11
0.28125
 21
0.7954951288348658
 31
0.0
  0
LINE
  5
B5
100
AcDbEntity
100
AcDbLine
  8
crank
 62
256
370
-1
  6
ByLayer
 10
-0.28125
 20
-0.28125
 30
0.0
 11
0.28125
 21
-0.28125
 31
0.0
  0
CIRCLE
  5
B6
100
AcDbEntity
100
AcDbCircle
  8
crank
 62
256
370
-1
  6
ByLayer
 10
0.0000000000000002
 20
2.8125
 30
0.0
 40
0.125
  0
CIRCLE
  5
B7
100
AcDbEntity
100
AcDbCircle
  8
crank
 62
256
370
-1
  6
ByLayer
 10
0.0000000000000002
 20
2.8125
 30
0.0
 40
0.15625
  0
CIRCLE
  5
B8
100
AcDbEntity
100
AcDbCircle
  8
crank
 62
256
370
-1
  6
ByLayer
 10
0.0000000000000001
 20
0.5625
 30
0.0
 40
0.296875
  0
LINE
  5
B9
100
AcDbEntity
100
AcDbLine
  8
crank
 62
256
370
-1
  6
ByLayer
 10
0.0000000000000002
 20
2.65625
 30
0.0
 11
0.0000000000000001
 21
0.859375
 31
0.0
  0
LINE
  5
BA
100
AcDbEntity
100
AcDbLine
  8
crank
 62
3
370
-1
  6
ByLayer
 10
-0.0312499999999998
 20
2.8125
 30
0.0
 11
0.0312500000000002
 21
2.8125
 31
0.0
  0
LINE
  5
BB
100
AcDbEntity
100
AcDbLine
  8
crank
 62
3
370
-1
  6
ByLayer
 10
0.0000000000000002
 20
2.78125
 30
0.0
 11
0.0000000000000002
 21
2.84375
 31
0.0
  0
LINE
  5
BC
100
AcDbEntity
100
AcDbLine
  8
crank
 62
256
370
-1
  6
ByLayer
 10
-0.4999999999999998
 20
2.3125
 30
0.0
 11
-0.4999999999999998
 21
3.3125
 31
0.0
  0
LINE
  5
BD
100
AcDbEntity
100
AcDbLine
  8
crank
 62
256
370
-1
  6
ByLayer
 10
0.5000000000000002
 20
2.3125
 30
0.0
 11
0.5000000000000002
 21
3.3125
 31
0.0
  0
LINE
  5
BE
100
AcDbEntity
100
AcDbLine
  8
crank
 62
256
370
-1
  6
ByLayer
 10
-0.4999999999999998
 20
3.3125
 30
0.0
 11
0.5000000000000002
 21
3.3125
 31
0.0
  0
LINE
  5
BF
100
AcDbEntity
100
AcDbLine
  8
crank
 62
256
370
-1
  6
ByLayer
 10
-0.4999999999999998
 20
2.3125
 30
0.0
 11
0.5000000000000002
 21
2.3125
 31
0.0
  0
LINE
  5
C0
100
AcDbEntity
100
AcDbLine
  8
liner
 62
256
370
-1
  6
ByLayer
 10
0.6250000000000002
 20
3.3125
 30
0.0
 11
-0.6249999999999998
 21
3.3125
 31
0.0
  0
LINE
  5
C1
100
AcDbEntity
100
AcDbLine
  8
liner
 62
256
370
-1
  6
ByLayer
 10
0.6250000000000002
 20
3.21875
 30
0.0
 11
-0.6249999999999998
 21
3.21875
 31
0.0
  0
LINE
  5
C2
100
AcDbEntity
100
AcDbLine
  8
liner
 62
256
370
-1
  6
ByLayer
 10
-0.6249999999999998
 20
3.21875
 30
0.0
 11
-0.6249999999999998
 21
3.3125
 31
0.0
  0
LINE
  5
C3
100
AcDbEntity
100
AcDbLine
  8
liner
 62
256
370
-1
  6
ByLayer
 10
0.6250000000000002
 20
3.21875
 30
0.0
 11
0.6250000000000002
 21
3.3125
 31
0.0
  0
LINE
  5
C4
100
AcDbEntity
100
AcDbLine
  8
liner
 62
256
370
-1
  6
ByLayer
 10
0.5625000000000001
 20
1.3125
 30
0.0
 11
-0.5624999999999999
 21
1.3125
 31
0.0
  0
LINE
  5
C5
100
AcDbEntity
100
AcDbLine
  8
liner
 62
256
370
-1
  6
ByLayer
 10
-0.4999999999999998
 20
3.21875
 30
0.0
 11
-0.5624999999999998
 21
3.3125
 31
0.0
  0
LINE
  5
C6
100
AcDbEntity
100
AcDbLine
  8
liner
 62
256
370
-1
  6
ByLayer
 10
0.5000000000000002
 20
3.21875
 30
0.0
 11
0.5625000000000002
 21
3.3125
 31
0.0
  0
LINE
  5
C7
100
AcDbEntity
100
AcDbLine
  8
liner
 62
256
370
-1
  6
ByLayer
 10
-0.4999999999999999
 20
1.3125
 30
0.0
 11
-0.4999999999999998
 21
3.21875
 31
0.0
  0
LINE
  5
C8
100
AcDbEntity
100
AcDbLine
  8
liner
 62
256
370
-1
  6
ByLayer
 10
0.5000000000000001
 20
1.3125
 30
0.0
 11
0.5000000000000002
 21
3.21875
 31
0.0
  0
LINE
  5
C9
100
AcDbEntity
100
AcDbLine
  8
liner
 62
256
370
-1
  6
ByLayer
 10
-0.5624999999999999
 20
1.3125
 30
0.0
 11
-0.5624999999999998
 21
3.21875
 31
0.0
  0
LINE
  5
CA
100
AcDbEntity
100
AcDbLine
  8
liner
 62
256
370
-1
  6
ByLayer
 10
0.5625000000000001
 20
1.3125
 30
0.0
 11
0.5625000000000002
 21
3.21875
 31
0.0
  0
ARC
  5
CB
100
AcDbEntity
  8
body
 62
256
370
-1
  6
ByLayer
100
AcDbCircle
 10
1.6249999999999998
 20
-0.0
 30
0.0
 40
2.8125
100
AcDbArc
 50
148.1092081981542776
 51
176.1774462707256816
  0
LINE
  5
CC
100
AcDbEntity
100
AcDbLine
  8
body
 62
256
370
-1
  6
ByLayer
 10
-0.8749999999999999
 20
2.0
 30
0.0
 11
-0.8749999999999998
 21
3.3125
 31
0.0
  0
LINE
  5
CD
100
AcDbEntity
100
AcDbLine
  8
body
 62
256
370
-1
  6
ByLayer
 10
0.8750000000000004
 20
2.0
 30
0.0
 11
0.8750000000000002
 21
3.3125
 31
0.0
  0
LINE
  5
CE
100
AcDbEntity
100
AcDbLine
  8
body
 62
256
370
-1
  6
ByLayer
 10
0.6874999999999998
 20
1.75
 30
0.0
 11
-0.6874999999999999
 21
1.7500000000000002
 31
0.0
  0
ARC
  5
CF
100
AcDbEntity
  8
body
 62
256
370
-1
  6
ByLayer
100
AcDbCircle
 10
-1.1875
 20
1.7500000000000002
 30
0.0
 40
0.5
100
AcDbArc
 50
328.1092081981542492
 51
0.0
  0
ARC
  5
D0
100
AcDbEntity
  8
body
 62
256
370
-1
  6
ByLayer
100
AcDbCircle
 10
-0.6249999999999998
 20
1.9921875000000002
 30
0.0
 40
0.2501220405247206
100
AcDbArc
 50
178.2100893917539963
 51
255.5297058999341004
  0
ARC
  5
D1
100
AcDbEntity
  8
body
 62
256
370
-1
  6
ByLayer
100
AcDbCircle
 10
0.6250000000000001
 20
1.9921875000000002
 30
0.0
 40
0.2501220405247206
100
AcDbArc
 50
284.470294100065928
 51
1.7899106082459972
  0
CIRCLE
  5
D2
100
AcDbEntity
100
AcDbCircle
  8
body
 62
256
370
-1
  6
ByLayer
 10
1.1250000000000007
 20
1.0843344733060913
 30
0.0
 40
0.375
  0
LINE
  5
D3
100
AcDbEntity
100
AcDbLine
  8
body
 62
256
370
-1
  6
ByLayer
 10
0.8705604793903173
 20
1.593692542258365
 30
0.0
 11
1.142758082438732
 21
1.584019024306119
 31
0.0
  0
ARC
  5
D4
100
AcDbEntity
  8
body
 62
256
370
-1
  6
ByLayer
100
AcDbCircle
 10
0.8750000000000001
 20
1.7186136800083718
 30
0.0
 40
0.125
100
AcDbArc
 50
180.0
 51
267.9646455963507492
  0
LINE
  5
D5
100
AcDbEntity
100
AcDbLine
  8
body
 62
256
370
-1
  6
ByLayer
 10
0.7500000000000001
 20
1.7186136800083718
 30
0.0
 11
0.7500000000000001
 21
1.7755402402521558
 31
0.0
  0
LINE
  5
D6
100
AcDbEntity
100
AcDbLine
  8
body
 62
256
370
-1
  6
ByLayer
 10
-1.3125
 20
4.0
 30
0.0
 11
1.3125
 21
4.0
 31
0.0
  0
LINE
  5
D7
100
AcDbEntity
100
AcDbLine
  8
body
 62
256
370
-1
  6
ByLayer
 10
1.8125000000000002
 20
4.4375
 30
0.0
 11
1.8125000000000002
 21
5.0
 31
0.0
  0
LINE
  5
D8
100
AcDbEntity
100
AcDbLine
  8
body
 62
256
370
-1
  6
ByLayer
 10
-1.8124999999999998
 20
4.4375
 30
0.0
 11
-1.8124999999999998
 21
5.0
 31
0.0
  0
LINE
  5
D9
100
AcDbEntity
100
AcDbLine
  8
body
 62
256
370
-1
  6
ByLayer
 10
-1.8124999999999996
 20
6.25
 30
0.0
 11
-1.8124999999999996
 21
6.8125
 31
0.0
  0
LINE
  5
DA
100
AcDbEntity
100
AcDbLine
  8
body
 62
256
370
-1
  6
ByLayer
 10
1.8125000000000004
 20
6.25
 30
0.0
 11
1.8125000000000004
 21
6.8125
 31
0.0
  0
LINE
  5
DB
100
AcDbEntity
100
AcDbLine
  8
body
 62
256
370
-1
  6
ByLayer
 10
-0.6874999999999998
 20
7.4375
 30
0.0
 11
0.6875000000000002
 21
7.4375
 31
0.0
  0
LINE
  5
DC
100
AcDbEntity
100
AcDbLine
  8
body
 62
256
370
-1
  6
ByLayer
 10
-1.8124999999999996
 20
6.25
 30
0.0
 11
-1.4374999999999998
 21
6.25
 31
0.0
  0
ARC
  5
DD
100
AcDbEntity
  8
body
 62
256
370
-1
  6
ByLayer
100
AcDbCircle
 10
-1.4374999999999998
 20
6.125
 30
0.0
 40
0.125
100
AcDbArc
 50
0.0
 51
90.0
  0
LINE
  5
DE
100
AcDbEntity
100
AcDbLine
  8
body
 62
256
370
-1
  6
ByLayer
 10
-1.8124999999999996
 20
6.8125
 30
0.0
 11
-1.4374999999999998
 21
6.8125
 31
0.0
  0
LINE
  5
DF
100
AcDbEntity
100
AcDbLine
  8
body
 62
256
370
-1
  6
ByLayer
 10
-1.3124999999999998
 20
6.9375
 30
0.0
 11
-1.3124999999999998
 21
7.1875
 31
0.0
  0
ARC
  5
E0
100
AcDbEntity
  8
body
 62
256
370
-1
  6
ByLayer
100
AcDbCircle
 10
-1.4374999999999998
 20
6.9375
 30
0.0
 40
0.125
100
AcDbArc
 50
270.0
 51
0.0
  0
LINE
  5
E1
100
AcDbEntity
100
AcDbLine
  8
body
 62
256
370
-1
  6
ByLayer
 10
-1.8124999999999998
 20
5.0
 30
0.0
 11
-1.4375
 21
5.0
 31
0.0
  0
LINE
  5
E2
100
AcDbEntity
100
AcDbLine
  8
body
 62
256
370
-1
  6
ByLayer
 10
-1.3125
 20
5.125
 30
0.0
 11
-1.3124999999999998
 21
6.125
 31
0.0
  0
ARC
  5
E3
100
AcDbEntity
  8
body
 62
256
370
-1
  6
ByLayer
100
AcDbCircle
 10
-1.4375
 20
5.125
 30
0.0
 40
0.125
100
AcDbArc
 50
270.0
 51
0.0
  0
LINE
  5
E4
100
AcDbEntity
100
AcDbLine
  8
body
 62
256
370
-1
  6
ByLayer
 10
-1.8124999999999998
 20
4.4375
 30
0.0
 11
-1.4375
 21
4.4375
 31
0.0
  0
LINE
  5
E5
100
AcDbEntity
100
AcDbLine
  8
body
 62
256
370
-1
  6
ByLayer
 10
-1.3125
 20
4.0
 30
0.0
 11
-1.3125
 21
4.3125
 31
0.0
  0
ARC
  5
E6
100
AcDbEntity
  8
body
 62
256
370
-1
  6
ByLayer
100
AcDbCircle
 10
-1.4375
 20
4.3125
 30
0.0
 40
0.125
100
AcDbArc
 50
0.0
 51
90.0
  0
LINE
  5
E7
100
AcDbEntity
100
AcDbLine
  8
body
 62
256
370
-1
  6
ByLayer
 10
1.3125
 20
4.0
 30
0.0
 11
1.3125
 21
4.3125
 31
0.0
  0
LINE
  5
E8
100
AcDbEntity
100
AcDbLine
  8
body
 62
256
370
-1
  6
ByLayer
 10
1.4375
 20
4.4375
 30
0.0
 11
1.8125000000000002
 21
4.4375
 31
0.0
  0
ARC
  5
E9
100
AcDbEntity
  8
body
 62
256
370
-1
  6
ByLayer
100
AcDbCircle
 10
1.4375
 20
4.3125
 30
0.0
 40
0.125
100
AcDbArc
 50
90.0
 51
180.0
  0
LINE
  5
EA
100
AcDbEntity
100
AcDbLine
  8
body
 62
256
370
-1
  6
ByLayer
 10
1.4375
 20
5.0
 30
0.0
 11
1.8125000000000002
 21
5.0
 31
0.0
  0
ARC
  5
EB
100
AcDbEntity
  8
body
 62
256
370
-1
  6
ByLayer
100
AcDbCircle
 10
1.4375
 20
5.125
 30
0.0
 40
0.125
100
AcDbArc
 50
180.0
 51
270.0
  0
LINE
  5
EC
100
AcDbEntity
100
AcDbLine
  8
body
 62
256
370
-1
  6
ByLayer
 10
1.3125
 20
5.125
 30
0.0
 11
1.3125000000000002
 21
6.125
 31
0.0
  0
LINE
  5
ED
100
AcDbEntity
100
AcDbLine
  8
body
 62
256
370
-1
  6
ByLayer
 10
1.4375000000000002
 20
6.25
 30
0.0
 11
1.8125000000000004
 21
6.25
 31
0.0
  0
ARC
  5
EE
100
AcDbEntity
  8
body
 62
256
370
-1
  6
ByLayer
100
AcDbCircle
 10
1.4375000000000002
 20
6.125
 30
0.0
 40
0.125
100
AcDbArc
 50
90.0
 51
180.0
  0
LINE
  5
EF
100
AcDbEntity
100
AcDbLine
  8
body
 62
256
370
-1
  6
ByLayer
 10
1.4375000000000002
 20
6.8125
 30
0.0
 11
1.8125000000000004
 21
6.8125
 31
0.0
  0
LINE
  5
F0
100
AcDbEntity
100
AcDbLine
  8
body
 62
256
370
-1
  6
ByLayer
 10
1.3125000000000002
 20
6.9375
 30
0.0
 11
1.3125000000000002
 21
7.1875
 31
0.0
  0
ARC
  5
F1
100
AcDbEntity
  8
body
 62
256
370
-1
  6
ByLayer
100
AcDbCircle
 10
1.4375000000000002
 20
6.9375
 30
0.0
 40
0.125
100
AcDbArc
 50
180.0
 51
270.0
  0
LINE
  5
F2
100
AcDbEntity
100
AcDbLine
  8
body
 62
256
370
-1
  6
ByLayer
 10
0.8125000000000002
 20
7.1875
 30
0.0
 11
1.3125000000000002
 21
7.1875
 31
0.0
  0
LINE
  5
F3
100
AcDbEntity
100
AcDbLine
  8
body
 62
256
370
-1
  6
ByLayer
 10
0.6875000000000002
 20
7.3125
 30
0.0
 11
0.6875000000000002
 21
7.4375
 31
0.0
  0
ARC
  5
F4
100
AcDbEntity
  8
body
 62
256
370
-1
  6
ByLayer
100
AcDbCircle
 10
0.8125000000000002
 20
7.3125
 30
0.0
 40
0.125
100
AcDbArc
 50
180.0
 51
270.0
  0
LINE
  5
F5
100
AcDbEntity
100
AcDbLine
  8
body
 62
256
370
-1
  6
ByLayer
 10
-1.3124999999999998
 20
7.1875
 30
0.0
 11
-0.8124999999999998
 21
7.1875
 31
0.0
  0
LINE
  5
F6
100
AcDbEntity
100
AcDbLine
  8
body
 62
256
370
-1
  6
ByLayer
 10
-0.6874999999999998
 20
7.3125
 30
0.0
 11
-0.6874999999999998
 21
7.4375
 31
0.0
  0
ARC
  5
F7
100
AcDbEntity
  8
body
 62
256
370
-1
  6
ByLayer
100
AcDbCircle
 10
-0.8124999999999998
 20
7.3125
 30
0.0
 40
0.125
100
AcDbArc
 50
270.0
 51
0.0
  0
ARC
  5
F8
100
AcDbEntity
  8
body
 62
256
370
-1
  6
ByLayer
100
AcDbCircle
 10
-0.9374999999999998
 20
6.6875
 30
0.0
 40
0.125
100
AcDbArc
 50
90.0
 51
180.0
  0
LINE
  5
F9
100
AcDbEntity
100
AcDbLine
  8
body
 62
256
370
-1
  6
ByLayer
 10
-0.9374999999999998
 20
6.8125
 30
0.0
 11
0.9375000000000002
 21
6.8125
 31
0.0
  0
ARC
  5
FA
100
AcDbEntity
  8
body
 62
256
370
-1
  6
ByLayer
100
AcDbCircle
 10
0.9375000000000002
 20
6.6875
 30
0.0
 40
0.125
100
AcDbArc
 50
0.0
 51
90.0
  0
LINE
  5
FB
100
AcDbEntity
100
AcDbLine
  8
body
 62
256
370
-1
  6
ByLayer
 10
1.0625
 20
5.9375
 30
0.0
 11
1.0625000000000002
 21
6.6875
 31
0.0
  0
ARC
  5
FC
100
AcDbEntity
  8
body
 62
256
370
-1
  6
ByLayer
100
AcDbCircle
 10
0.9375
 20
5.9375
 30
0.0
 40
0.125
100
AcDbArc
 50
269.9999999999998863
 51
0.0
  0
LINE
  5
FD
100
AcDbEntity
100
AcDbLine
  8
body
 62
256
370
-1
  6
ByLayer
 10
-0.9374999999999998
 20
5.8125
 30
0.0
 11
0.9374999999999998
 21
5.8125
 31
0.0
  0
LINE
  5
FE
100
AcDbEntity
100
AcDbLine
  8
body
 62
256
370
-1
  6
ByLayer
 10
-1.0624999999999998
 20
5.9375
 30
0.0
 11
-1.0624999999999998
 21
6.6875
 31
0.0
  0
ARC
  5
FF
100
AcDbEntity
  8
body
 62
256
370
-1
  6
ByLayer
100
AcDbCircle
 10
-0.9374999999999998
 20
5.9375
 30
0.0
 40
0.125
100
AcDbArc
 50
180.0
 51
270.0
  0
ARC
  5
100
100
AcDbEntity
  8
body
 62
256
370
-1
  6
ByLayer
100
AcDbCircle
 10
-0.9374999999999998
 20
5.3125
 30
0.0
 40
0.125
100
AcDbArc
 50
90.0
 51
180.0
  0
LINE
  5
101
100
AcDbEntity
100
AcDbLine
  8
body
 62
256
370
-1
  6
ByLayer
 10
-1.0625
 20
4.5625
 30
0.0
 11
-1.0624999999999998
 21
5.3125
 31
0.0
  0
ARC
  5
102
100
AcDbEntity
  8
body
 62
256
370
-1
  6
ByLayer
100
AcDbCircle
 10
-0.9375
 20
4.5625
 30
0.0
 40
0.125
100
AcDbArc
 50
180.0
 51
270.0
  0
LINE
  5
103
100
AcDbEntity
100
AcDbLine
  8
body
 62
256
370
-1
  6
ByLayer
 10
-0.9374999999999998
 20
5.4375
 30
0.0
 11
0.9375
 21
5.4375
 31
0.0
  0
ARC
  5
104
100
AcDbEntity
  8
body
 62
256
370
-1
  6
ByLayer
100
AcDbCircle
 10
0.9375
 20
5.3125
 30
0.0
 40
0.125
100
AcDbArc
 50
0.0
 51
90.0
  0
LINE
  5
105
100
AcDbEntity
100
AcDbLine
  8
body
 62
256
370
-1
  6
ByLayer
 10
1.0625
 20
4.5625
 30
0.0
 11
1.0625
 21
5.3125
 31
0.0
  0
LINE
  5
106
100
AcDbEntity
100
AcDbLine
  8
body
 62
256
370
-1
  6
ByLayer
 10
-0.9375
 20
4.4375
 30
0.0
 11
0.9375
 21
4.4375
 31
0.0
  0
ARC
  5
107
100
AcDbEntity
  8
body
 62
256
370
-1
  6
ByLayer
100
AcDbCircle
 10
0.9375
 20
4.5625
 30
0.0
 40
0.125
100
AcDbArc
 50
270.0
 51
0.0
  0
CIRCLE
  5
108
100
AcDbEntity
100
AcDbCircle
  8
body
 62
256
370
-1
  6
ByLayer
 10
-1.5624999999999998
 20
6.5625
 30
0.0
 40
0.0625
  0
CIRCLE
  5
109
100
AcDbEntity
100
AcDbCircle
  8
body
 62
256
370
-1
  6
ByLayer
 10
1.5625000000000002
 20
6.5625
 30
0.0
 40
0.0625
  0
CIRCLE
  5
10A
100
AcDbEntity
100
AcDbCircle
  8
body
 62
256
370
-1
  6
ByLayer
 10
1.5625
 20
4.6875
 30
0.0
 40
0.0625
  0
CIRCLE
  5
10B
100
AcDbEntity
100
AcDbCircle
  8
body
 62
256
370
-1
  6
ByLayer
 10
-1.5625
 20
4.6875
 30
0.0
 40
0.0625
  0
LINE
  5
10C
100
AcDbEntity
100
AcDbLine
  8
body
 62
7
370
-1
  6
ByLayer
 10
1.5312500000000007
 20
6.5625000000000009
 30
0.0
 11
1.5937500000000007
 21
6.5625000000000009
 31
0.0
  0
LINE
  5
10D
100
AcDbEntity
100
AcDbLine
  8
body
 62
7
370
-1
  6
ByLayer
 10
1.5625000000000007
 20
6.5312500000000009
 30
0.0
 11
1.5625000000000007
 21
6.5937500000000009
 31
0.0
  0
LINE
  5
10E
100
AcDbEntity
100
AcDbLine
  8
body
 62
7
370
-1
  6
ByLayer
 10
1.5312500000000004
 20
4.6875000000000009
 30
0.0
 11
1.5937500000000004
 21
4.6875000000000009
 31
0.0
  0
LINE
  5
10F
100
AcDbEntity
100
AcDbLine
  8
body
 62
7
370
-1
  6
ByLayer
 10
1.5625000000000004
 20
4.6562500000000009
 30
0.0
 11
1.5625000000000004
 21
4.7187500000000009
 31
0.0
  0
LINE
  5
110
100
AcDbEntity
100
AcDbLine
  8
body
 62
7
370
-1
  6
ByLayer
 10
-1.5937499999999996
 20
4.6875000000000009
 30
0.0
 11
-1.5312499999999996
 21
4.6875000000000009
 31
0.0
  0
LINE
  5
111
100
AcDbEntity
100
AcDbLine
  8
body
 62
7
370
-1
  6
ByLayer
 10
-1.5624999999999996
 20
4.6562500000000009
 30
0.0
 11
-1.5624999999999996
 21
4.7187500000000009
 31
0.0
  0
LINE
  5
112
100
AcDbEntity
100
AcDbLine
  8
body
 62
7
370
-1
  6
ByLayer
 10
-1.5937499999999993
 20
6.5625000000000009
 30
0.0
 11
-1.5312499999999993
 21
6.5625000000000009
 31
0.0
  0
LINE
  5
113
100
AcDbEntity
100
AcDbLine
  8
body
 62
7
370
-1
  6
ByLayer
 10
-1.5624999999999993
 20
6.5312500000000009
 30
0.0
 11
-1.5624999999999993
 21
6.5937500000000009
 31
0.0
  0
LINE
  5
114
100
AcDbEntity
100
AcDbLine
  8
body
 62
256
370
-1
  6
ByLayer
 10
1.6250000000000002
 20
0.1875
 30
0.0
 11
1.6250000000000002
 21
-0.0
 31
0.0
  0
LINE
  5
115
100
AcDbEntity
100
AcDbLine
  8
body
 62
256
370
-1
  6
ByLayer
 10
1.5000000000000002
 20
0.1875
 30
0.0
 11
1.5000000000000002
 21
-0.0
 31
0.0
  0
LINE
  5
116
100
AcDbEntity
100
AcDbLine
  8
body
 62
256
370
-1
  6
ByLayer
 10
-1.4999999999999998
 20
0.1875
 30
0.0
 11
-1.4999999999999998
 21
-0.0
 31
0.0
  0
LINE
  5
117
100
AcDbEntity
100
AcDbLine
  8
body
 62
256
370
-1
  6
ByLayer
 10
-1.6249999999999998
 20
0.1875
 30
0.0
 11
-1.6249999999999998
 21
-0.0
 31
0.0
  0
CIRCLE
  5
118
100
AcDbEntity
100
AcDbCircle
  8
body
 62
256
370
-1
  6
ByLayer
 10
0.0000000000000001
 20
6.3125
 30
0.0
 40
0.5
  0
CIRCLE
  5
119
100
AcDbEntity
100
AcDbCircle
  8
body
 62
256
370
-1
  6
ByLayer
 10
0.0000000000000001
 20
4.9375
 30
0.0
 40
0.5
  0
LINE
  5
11A
100
AcDbEntity
100
AcDbLine
  8
body
 62
7
370
-1
  6
ByLayer
 10
-0.0312499999999999
 20
6.3125
 30
0.0
 11
0.0312500000000001
 21
6.3125
 31
0.0
  0
LINE
  5
11B
100
AcDbEntity
100
AcDbLine
  8
body
 62
7
370
-1
  6
ByLayer
 10
0.0000000000000001
 20
6.28125
 30
0.0
 11
0.0000000000000001
 21
6.34375
 31
0.0
  0
LINE
  5
11C
100
AcDbEntity
100
AcDbLine
  8
body
 62
7
370
-1
  6
ByLayer
 10
-0.0312499999999999
 20
4.9375
 30
0.0
 11
0.0312500000000001
 21
4.9375
 31
0.0
  0
LINE
  5
11D
100
AcDbEntity
100
AcDbLine
  8
body
 62
7
370
-1
  6
ByLayer
 10
0.0000000000000001
 20
4.90625
 30
0.0
 11
0.0000000000000001
 21
4.96875
 31
0.0
  0
LINE
  5
11E
100
AcDbEntity
100
AcDbLine
  8
body
 62
256
370
-1
  6
DASHED
 10
-0.0
 20
3.875
 30
0.0
 11
0.0000000000000002
 21
7.5625
 31
0.0
  0
LINE
  5
11F
100
AcDbEntity
100
AcDbLine
  8
body
 62
256
370
-1
  6
DASHED
 10
-1.8124999999999996
 20
5.625
 30
0.0
 11
1.8125000000000004
 21
5.625
 31
0.0
  0
LINE
  5
120
100
AcDbEntity
100
AcDbLine
  8
body
 62
256
370
-1
  6
ByLayer
 10
1.3749999999999998
 20
0.34375
 30
0.0
 11
1.375
 21
0.34375
 31
0.0
  0
ARC
  5
121
100
AcDbEntity
  8
body
 62
256
370
-1
  6
ByLayer
100
AcDbCircle
 10
1.1250000000000007
 20
1.0843344733060913
 30
0.0
 40
0.5
100
AcDbArc
 50
318.5903770857021868
 51
87.9646455963507492
  0
ARC
  5
122
100
AcDbEntity
  8
body
 62
256
370
-1
  6
ByLayer
100
AcDbCircle
 10
-0.6249999999999998
 20
6.9375
 30
0.0
 40
0.125
100
AcDbArc
 50
90.0
 51
180.0
  0
LINE
  5
123
100
AcDbEntity
100
AcDbLine
  8
body
 62
256
370
-1
  6
ByLayer
 10
-0.6249999999999998
 20
7.0625
 30
0.0
 11
0.6250000000000002
 21
7.0625
 31
0.0
  0
ARC
  5
124
100
AcDbEntity
  8
body
 62
256
370
-1
  6
ByLayer
100
AcDbCircle
 10
0.6250000000000002
 20
6.9375
 30
0.0
 40
0.125
100
AcDbArc
 50
0.0
 51
90.0
  0
LINE
  5
125
100
AcDbEntity
100
AcDbLine
  8
body
 62
256
370
-1
  6
ByLayer
 10
0.75
 20
4.3125
 30
0.0
 11
0.7500000000000002
 21
6.9375
 31
0.0
  0
ARC
  5
126
100
AcDbEntity
  8
body
 62
256
370
-1
  6
ByLayer
100
AcDbCircle
 10
0.625
 20
4.3125
 30
0.0
 40
0.125
100
AcDbArc
 50
270.0
 51
0.0
  0
LINE
  5
127
100
AcDbEntity
100
AcDbLine
  8
body
 62
256
370
-1
  6
ByLayer
 10
-0.625
 20
4.1875
 30
0.0
 11
0.625
 21
4.1875
 31
0.0
  0
LINE
  5
128
100
AcDbEntity
100
AcDbLine
  8
body
 62
256
370
-1
  6
ByLayer
 10
-0.75
 20
4.3125
 30
0.0
 11
-0.7499999999999998
 21
6.9375
 31
0.0
  0
ARC
  5
129
100
AcDbEntity
  8
body
 62
256
370
-1
  6
ByLayer
100
AcDbCircle
 10
-0.625
 20
4.3125
 30
0.0
 40
0.125
100
AcDbArc
 50
180.0
 51
270.0
  0
LINE
  5
12A
100
AcDbEntity
100
AcDbLine
  8
body
 62
256
370
-1
  6
DASHED
 10
-1.3124999999999998
 20
7.0625
 30
0.0
 11
1.3125000000000002
 21
7.0625
 31
0.0
  0
LINE
  5
12B
100
AcDbEntity
100
AcDbLine
  8
body
 62
256
370
-1
  6
DASHED
 10
-1.3125
 20
4.1875
 30
0.0
 11
1.3125
 21
4.1875
 31
0.0
  0
CIRCLE
  5
12C
100
AcDbEntity
100
AcDbCircle
  8
sump
 62
2
370
-1
  6
ByLayer
 10
2.4000000000000004
 20
4.1875000000000009
 30
0.0
 40
0.125
  0
CIRCLE
  5
12D
100
AcDbEntity
100
AcDbCircle
  8
sump
 62
2
370
-1
  6
ByLayer
 10
2.4000000000000004
 20
5.1250000000000009
 30
0.0
 40
0.125
  0
CIRCLE
  5
12E
100
AcDbEntity
100
AcDbCircle
  8
sump
 62
2
370
-1
  6
ByLayer
 10
2.4000000000000004
 20
6.125
 30
0.0
 40
0.125
  0
CIRCLE
  5
12F
100
AcDbEntity
100
AcDbCircle
  8
sump
 62
2
370
-1
  6
ByLayer
 10
2.4000000000000004
 20
7.0625
 30
0.0
 40
0.125
  0
CIRCLE
  5
130
100
AcDbEntity
100
AcDbCircle
  8
sump
 62
2
370
-1
  6
ByLayer
 10
4.7750000000000021
 20
7.0624999999999982
 30
0.0
 40
0.125
  0
CIRCLE
  5
131
100
AcDbEntity
100
AcDbCircle
  8
sump
 62
2
370
-1
  6
ByLayer
 10
4.7750000000000004
 20
6.125
 30
0.0
 40
0.125
  0
CIRCLE
  5
132
100
AcDbEntity
100
AcDbCircle
  8
sump
 62
2
370
-1
  6
ByLayer
 10
4.7750000000000004
 20
5.125
 30
0.0
 40
0.125
  0
CIRCLE
  5
133
100
AcDbEntity
100
AcDbCircle
  8
sump
 62
2
370
-1
  6
ByLayer
 10
4.7750000000000004
 20
4.1875
 30
0.0
 40
0.125
  0
LINE
  5
134
100
AcDbEntity
100
AcDbLine
  8
sump
 62
2
370
-1
  6
ByLayer
 10
2.5250000000000004
 20
7.0625
 30
0.0
 11
4.6500000000000004
 21
7.0625
 31
0.0
  0
CIRCLE
  5
135
100
AcDbEntity
100
AcDbCircle
  8
sump
 62
2
370
-1
  6
ByLayer
 10
3.5875000000000012
 20
6.75
 30
0.0
 40
0.25
  0
LINE
  5
136
100
AcDbEntity
100
AcDbLine
  8
sump
 62
2
370
-1
  6
ByLayer
 10
2.9000000000000004
 20
7.4375
 30
0.0
 11
2.9000000000000012
 21
7.1875
 31
0.0
  0
LINE
  5
137
100
AcDbEntity
100
AcDbLine
  8
sump
 62
2
370
-1
  6
ByLayer
 10
4.2750000000000012
 20
7.4375
 30
0.0
 11
4.2750000000000021
 21
7.1875
 31
0.0
  0
LINE
  5
138
100
AcDbEntity
100
AcDbLine
  8
sump
 62
2
370
-1
  6
ByLayer
 10
4.6500000000000004
 20
7.1875
 30
0.0
 11
4.6500000000000004
 21
3.9999999999999982
 31
0.0
  0
LINE
  5
139
100
AcDbEntity
100
AcDbLine
  8
sump
 62
2
370
-1
  6
ByLayer
 10
2.5250000000000004
 20
7.1875
 30
0.0
 11
2.5250000000000004
 21
4.0000000000000009
 31
0.0
  0
LINE
  5
13A
100
AcDbEntity
100
AcDbLine
  8
sump
 62
2
370
-1
  6
ByLayer
 10
2.9000000000000004
 20
7.4375
 30
0.0
 11
4.2750000000000012
 21
7.4375
 31
0.0
  0
LINE
  5
13B
100
AcDbEntity
100
AcDbLine
  8
sump
 62
2
370
-1
  6
ByLayer
 10
2.4000000000000004
 20
7.1875
 30
0.0
 11
2.4000000000000004
 21
4.0000000000000009
 31
0.0
  0
LINE
  5
13C
100
AcDbEntity
100
AcDbLine
  8
sump
 62
2
370
-1
  6
ByLayer
 10
4.7750000000000004
 20
7.1875
 30
0.0
 11
4.7750000000000004
 21
4.0
 31
0.0
  0
LINE
  5
13D
100
AcDbEntity
100
AcDbLine
  8
sump
 62
2
370
-1
  6
ByLayer
 10
2.4000000000000004
 20
4.0000000000000009
 30
0.0
 11
4.7750000000000004
 21
4.0
 31
0.0
  0
LINE
  5
13E
100
AcDbEntity
100
AcDbLine
  8
sump
 62
2
370
-1
  6
ByLayer
 10
4.9000000000000004
 20
4.1875
 30
0.0
 11
4.9000000000000021
 21
7.0624999999999982
 31
0.0
  0
LINE
  5
13F
100
AcDbEntity
100
AcDbLine
  8
sump
 62
2
370
-1
  6
ByLayer
 10
2.2750000000000004
 20
4.1875000000000009
 30
0.0
 11
2.2750000000000004
 21
7.0625
 31
0.0
  0
LINE
  5
140
100
AcDbEntity
100
AcDbLine
  8
sump
 62
2
370
-1
  6
ByLayer
 10
2.4000000000000004
 20
7.1875
 30
0.0
 11
4.7750000000000004
 21
7.1875
 31
0.0
  0
LINE
  5
141
100
AcDbEntity
100
AcDbLine
  8
sump
 62
2
370
-1
  6
ByLayer
 10
4.0875000000000004
 20
4.6875
 30
0.0
 11
4.0875000000000004
 21
4.1875000000000009
 31
0.0
  0
LINE
  5
142
100
AcDbEntity
100
AcDbLine
  8
sump
 62
2
370
-1
  6
ByLayer
 10
4.5250000000000004
 20
4.6875
 30
0.0
 11
4.5250000000000004
 21
4.1875
 31
0.0
  0
LINE
  5
143
100
AcDbEntity
100
AcDbLine
  8
sump
 62
2
370
-1
  6
ByLayer
 10
4.0875000000000004
 20
4.1875000000000009
 30
0.0
 11
4.5250000000000004
 21
4.1875
 31
0.0
  0
LINE
  5
144
100
AcDbEntity
100
AcDbLine
  8
sump
 62
2
370
-1
  6
ByLayer
 10
4.0875000000000004
 20
4.6875
 30
0.0
 11
4.5250000000000004
 21
4.6875
 31
0.0
  0
LINE
  5
145
100
AcDbEntity
100
AcDbLine
  8
body
 62
256
370
-1
  6
ByLayer
 10
1.4471859558865647
 20
0.6571702534364605
 30
0.0
 11
1.3124999999999998
 21
0.1875
 31
0.0
  0
ARC
  5
146
100
AcDbEntity
  8
body
 62
256
370
-1
  6
ByLayer
100
AcDbCircle
 10
1.6875
 20
0.58825610248148
 30
0.0
 40
0.25
100
AcDbArc
 50
138.5903778907290871
 51
163.9988527239748066
  0
LINE
  5
147
100
AcDbEntity
100
AcDbLine
  8
body
 62
256
370
-1
  6
ByLayer
 10
-1.6122221848584006
 20
1.5022214373440483
 30
0.0
 11
-1.3125000000000002
 21
0.1875
 31
0.0
  0
LINE
  5
148
100
AcDbEntity
100
AcDbLine
  8
body
 62
256
370
-1
  6
ByLayer
 10
-0.6875000000000002
 20
1.7500000000000002
 30
0.0
 11
-1.6122221848584006
 21
1.5022214373440483
 31
0.0
  0
CIRCLE
  5
149
100
AcDbEntity
100
AcDbCircle
  8
camplate
 62
256
370
-1
  6
ByLayer
 10
0.875000000000001
 20
1.5173471751983105
 30
0.0
 40
0.0625
  0
CIRCLE
  5
14A
100
AcDbEntity
100
AcDbCircle
  8
camplate
 62
256
370
-1
  6
ByLayer
 10
1.3750000000000004
 20
0.6513217714138717
 30
0.0
 40
0.0625
  0
LINE
  5
14B
100
AcDbEntity
100
AcDbLine
  8
camplate
 62
256
370
-1
  6
ByLayer
 10
0.943163912028032
 20
1.6920180974980306
 30
0.0
 11
1.30677043207475
 21
1.5501235994386782
 31
0.0
  0
LINE
  5
14C
100
AcDbEntity
100
AcDbLine
  8
camplate
 62
256
370
-1
  6
ByLayer
 10
1.6192704320747495
 20
1.0088577220734041
 30
0.0
 11
1.5603514120280315
 21
0.6230179897016145
 31
0.0
  0
LINE
  5
14D
100
AcDbEntity
100
AcDbLine
  8
camplate
 62
256
370
-1
  6
ByLayer
 10
1.3068360879719698
 20
0.476650849114152
 30
0.0
 11
0.9432295679252518
 21
0.6185453471735043
 31
0.0
  0
LINE
  5
14E
100
AcDbEntity
100
AcDbLine
  8
camplate
 62
256
370
-1
  6
ByLayer
 10
0.6307295679252518
 20
1.1598112245387788
 30
0.0
 11
0.6896485879719702
 21
1.5456509569105683
 31
0.0
  0
LINE
  5
14F
100
AcDbEntity
100
AcDbLine
  8
camplate
 62
7
370
-1
  6
ByLayer
 10
1.0937500000000007
 20
1.0843344733060913
 30
0.0
 11
1.1562500000000007
 21
1.0843344733060913
 31
0.0
  0
LINE
  5
150
100
AcDbEntity
100
AcDbLine
  8
camplate
 62
7
370
-1
  6
ByLayer
 10
1.1250000000000007
 20
1.0530844733060913
 30
0.0
 11
1.1250000000000007
 21
1.1155844733060913
 31
0.0
  0
ARC
  5
151
100
AcDbEntity
  8
camplate
 62
256
370
-1
  6
ByLayer
100
AcDbCircle
 10
0.875000000000001
 20
1.5173471751983105
 30
0.0
 40
0.1875
100
AcDbArc
 50
68.6821874534894334
 51
171.3178125465104529
  0
ARC
  5
152
100
AcDbEntity
  8
camplate
 62
256
370
-1
  6
ByLayer
100
AcDbCircle
 10
1.3750000000000007
 20
0.6513217714138722
 30
0.0
 40
0.1875
100
AcDbArc
 50
248.682187453489405
 51
351.317812546510595
  0
ARC
  5
153
100
AcDbEntity
  8
camplate
 62
256
370
-1
  6
ByLayer
100
AcDbCircle
 10
1.1250000000000007
 20
1.0843344733060913
 30
0.0
 40
0.5
100
AcDbArc
 50
351.317812546510595
 51
68.6821874534894619
  0
ARC
  5
154
100
AcDbEntity
  8
camplate
 62
256
370
-1
  6
ByLayer
100
AcDbCircle
 10
1.1250000000000007
 20
1.0843344733060913
 30
0.0
 40
0.5
100
AcDbArc
 50
171.3178125465105097
 51
248.6821874534894619
  0
LINE
  5
155
100
AcDbEntity
100
AcDbLine
  8
body
 62
256
370
-1
  6
ByLayer
 10
-0.9374999999999999
 20
1.75
 30
0.0
 11
-0.9374999999999999
 21
2.375
 31
0.0
  0
LINE
  5
156
100
AcDbEntity
100
AcDbLine
  8
body
 62
256
370
-1
  6
ByLayer
 10
-0.8749999999999999
 20
2.375
 30
0.0
 11
-0.9374999999999999
 21
2.375
 31
0.0
  0
LINE
  5
157
100
AcDbEntity
100
AcDbLine
  8
body
 62
256
370
-1
  6
ByLayer
 10
-0.875
 20
2.0625
 30
0.0
 11
-0.9374999999999999
 21
2.0625
 31
0.0
  0
LINE
  5
158
100
AcDbEntity
100
AcDbLine
  8
body
 62
256
370
-1
  6
ByLayer
 10
-0.687500000000001
 20
1.75
 30
0.0
 11
-0.9374999999999999
 21
1.75
 31
0.0
  0
CIRCLE
  5
159
100
AcDbEntity
100
AcDbCircle
  8
body
 62
256
370
-1
  6
ByLayer
 10
-2.125
 20
2.0625
 30
0.0
 40
0.0625
  0
CIRCLE
  5
15A
100
AcDbEntity
100
AcDbCircle
  8
body
 62
256
370
-1
  6
ByLayer
 10
-2.875
 20
2.0625
 30
0.0
 40
0.0625
  0
LINE
  5
15B
100
AcDbEntity
100
AcDbLine
  8
body
 62
256
370
-1
  6
ByLayer
 10
-2.96875
 20
2.2248797632095823
 30
0.0
 11
-2.6875
 21
2.3872595264191645
 31
0.0
  0
LINE
  5
15C
100
AcDbEntity
100
AcDbLine
  8
body
 62
256
370
-1
  6
ByLayer
 10
-2.3125
 20
2.3872595264191645
 30
0.0
 11
-2.03125
 21
2.2248797632095823
 31
0.0
  0
LINE
  5
15D
100
AcDbEntity
100
AcDbLine
  8
body
 62
256
370
-1
  6
ByLayer
 10
-2.03125
 20
1.9001202367904177
 30
0.0
 11
-2.3125
 21
1.7377404735808355
 31
0.0
  0
LINE
  5
15E
100
AcDbEntity
100
AcDbLine
  8
body
 62
256
370
-1
  6
ByLayer
 10
-2.6875
 20
1.7377404735808355
 30
0.0
 11
-2.96875
 21
1.9001202367904177
 31
0.0
  0
ARC
  5
15F
100
AcDbEntity
  8
body
 62
256
370
-1
  6
ByLayer
100
AcDbCircle
 10
-2.5
 20
2.0625
 30
0.0
 40
0.375
100
AcDbArc
 50
60.0000000000000071
 51
119.9999999999999858
  0
ARC
  5
160
100
AcDbEntity
  8
body
 62
256
370
-1
  6
ByLayer
100
AcDbCircle
 10
-2.5
 20
2.0625
 30
0.0
 40
0.375
100
AcDbArc
 50
240.0000000000000284
 51
299.9999999999999432
  0
ARC
  5
161
100
AcDbEntity
  8
body
 62
256
370
-1
  6
ByLayer
100
AcDbCircle
 10
-2.875
 20
2.0625
 30
0.0
 40
0.1875
100
AcDbArc
 50
119.9999999999999858
 51
240.0000000000000284
  0
ARC
  5
162
100
AcDbEntity
  8
body
 62
256
370
-1
  6
ByLayer
100
AcDbCircle
 10
-2.125
 20
2.0625
 30
0.0
 40
0.1875
100
AcDbArc
 50
299.9999999999999432
 51
60.0000000000000071
  0
LINE
  5
163
100
AcDbEntity
100
AcDbLine
  8
body
 62
7
370
-1
  6
ByLayer
 10
-2.90625
 20
2.0625
 30
0.0
 11
-2.84375
 21
2.0625
 31
0.0
  0
LINE
  5
164
100
AcDbEntity
100
AcDbLine
  8
body
 62
7
370
-1
  6
ByLayer
 10
-2.875
 20
2.03125
 30
0.0
 11
-2.875
 21
2.09375
 31
0.0
  0
LINE
  5
165
100
AcDbEntity
100
AcDbLine
  8
body
 62
7
370
-1
  6
ByLayer
 10
-2.15625
 20
2.0625
 30
0.0
 11
-2.09375
 21
2.0625
 31
0.0
  0
LINE
  5
166
100
AcDbEntity
100
AcDbLine
  8
body
 62
7
370
-1
  6
ByLayer
 10
-2.125
 20
2.03125
 30
0.0
 11
-2.125
 21
2.09375
 31
0.0
  0
CIRCLE
  5
167
100
AcDbEntity
100
AcDbCircle
  8
body
 62
256
370
-1
  6
ByLayer
 10
-2.5
 20
2.0625
 30
0.0
 40
0.1875
  0
LINE
  5
168
100
AcDbEntity
100
AcDbLine
  8
body
 62
7
370
-1
  6
ByLayer
 10
-2.53125
 20
2.0625
 30
0.0
 11
-2.46875
 21
2.0625
 31
0.0
  0
LINE
  5
169
100
AcDbEntity
100
AcDbLine
  8
body
 62
7
370
-1
  6
ByLayer
 10
-2.5
 20
2.03125
 30
0.0
 11
-2.5
 21
2.09375
 31
0.0
  0
LINE
  5
16A
100
AcDbEntity
100
AcDbLine
  8
body
 62
256
370
-1
  6
ByLayer
 10
-3.8625000000000007
 20
1.5
 30
0.0
 11
-3.8625000000000007
 21
2.5
 31
0.0
  0
LINE
  5
16B
100
AcDbEntity
100
AcDbLine
  8
body
 62
256
370
-1
  6
ByLayer
 10
-4.7375000000000007
 20
1.5
 30
0.0
 11
-4.7375000000000007
 21
2.5
 31
0.0
  0
LINE
  5
16C
100
AcDbEntity
100
AcDbLine
  8
body
 62
7
370
-1
  6
ByLayer
 10
-4.3312500000000007
 20
1.5
 30
0.0
 11
-4.2687500000000007
 21
1.5
 31
0.0
  0
LINE
  5
16D
100
AcDbEntity
100
AcDbLine
  8
body
 62
7
370
-1
  6
ByLayer
 10
-4.3000000000000007
 20
1.46875
 30
0.0
 11
-4.3000000000000007
 21
1.53125
 31
0.0
  0
ARC
  5
16E
100
AcDbEntity
  8
body
 62
256
370
-1
  6
ByLayer
100
AcDbCircle
 10
-4.3000000000000007
 20
1.5
 30
0.0
 40
0.4375
100
AcDbArc
 50
180.0
 51
0.0
  0
LINE
  5
16F
100
AcDbEntity
100
AcDbLine
  8
body
 62
256
370
-1
  6
ByLayer
 10
0.8562332922754871
 20
1.8968344733060918
 30
0.0
 11
1.3750000000000002
 21
1.8968344733060918
 31
0.0
  0
LINE
  5
170
100
AcDbEntity
100
AcDbLine
  8
body
 62
256
370
-1
  6
ByLayer
 10
1.3750000000000002
 20
1.517347175198311
 30
0.0
 11
1.3750000000000002
 21
1.8968344733060918
 31
0.0
  0
CIRCLE
  5
171
100
AcDbEntity
100
AcDbCircle
  8
body
 62
256
370
-1
  6
ByLayer
 10
3.0000000000000009
 20
6.5624999999999991
 30
0.0
 40
0.1875
  0
CIRCLE
  5
172
100
AcDbEntity
100
AcDbCircle
  8
body
 62
256
370
-1
  6
ByLayer
 10
3.0000000000000009
 20
6.0624999999999991
 30
0.0
 40
0.1875
  0
CIRCLE
  5
173
100
AcDbEntity
100
AcDbCircle
  8
body
 62
256
370
-1
  6
ByLayer
 10
3.0000000000000009
 20
6.5624999999999991
 30
0.0
 40
0.15625
  0
CIRCLE
  5
174
100
AcDbEntity
100
AcDbCircle
  8
body
 62
256
370
-1
  6
ByLayer
 10
3.0000000000000009
 20
6.0624999999999991
 30
0.0
 40
0.15625
  0
ARC
  5
175
100
AcDbEntity
  8
body
 62
256
370
-1
  6
ByLayer
100
AcDbCircle
 10
2.8562332922754874
 20
6.9374999999999991
 30
0.0
 40
0.125
100
AcDbArc
 50
180.0
 51
270.0000000000001137
  0
ARC
  5
176
100
AcDbEntity
  8
body
 62
256
370
-1
  6
ByLayer
100
AcDbCircle
 10
2.8562332922754874
 20
5.6874999999999991
 30
0.0
 40
0.125
100
AcDbArc
 50
89.9999999999999432
 51
180.0
  0
ARC
  5
177
100
AcDbEntity
  8
body
 62
256
370
-1
  6
ByLayer
100
AcDbCircle
 10
3.0000000000000009
 20
6.5624999999999991
 30
0.0
 40
0.25
100
AcDbArc
 50
0.0
 51
90.0
  0
ARC
  5
178
100
AcDbEntity
  8
body
 62
256
370
-1
  6
ByLayer
100
AcDbCircle
 10
3.0000000000000009
 20
6.0624999999999991
 30
0.0
 40
0.25
100
AcDbArc
 50
270.0
 51
0.0
  0
LINE
  5
179
100
AcDbEntity
100
AcDbLine
  8
body
 62
256
370
-1
  6
ByLayer
 10
2.8562332922754878
 20
6.8124999999999991
 30
0.0
 11
3.0000000000000009
 21
6.8124999999999991
 31
0.0
  0
LINE
  5
17A
100
AcDbEntity
100
AcDbLine
  8
body
 62
256
370
-1
  6
ByLayer
 10
3.2500000000000009
 20
6.5624999999999991
 30
0.0
 11
3.2500000000000009
 21
6.0624999999999991
 31
0.0
  0
LINE
  5
17B
100
AcDbEntity
100
AcDbLine
  8
body
 62
256
370
-1
  6
ByLayer
 10
2.8562332922754878
 20
5.8124999999999991
 30
0.0
 11
3.0000000000000009
 21
5.8124999999999991
 31
0.0
  0
CIRCLE
  5
17C
100
AcDbEntity
100
AcDbCircle
  8
body
 62
256
370
-1
  6
ByLayer
 10
3.0000000000000004
 20
5.1874999999999991
 30
0.0
 40
0.1875
  0
CIRCLE
  5
17D
100
AcDbEntity
100
AcDbCircle
  8
body
 62
256
370
-1
  6
ByLayer
 10
3.0000000000000004
 20
4.6874999999999991
 30
0.0
 40
0.1875
  0
CIRCLE
  5
17E
100
AcDbEntity
100
AcDbCircle
  8
body
 62
256
370
-1
  6
ByLayer
 10
3.0000000000000004
 20
5.1874999999999991
 30
0.0
 40
0.15625
  0
CIRCLE
  5
17F
100
AcDbEntity
100
AcDbCircle
  8
body
 62
256
370
-1
  6
ByLayer
 10
3.0000000000000004
 20
4.6874999999999991
 30
0.0
 40
0.15625
  0
ARC
  5
180
100
AcDbEntity
  8
body
 62
256
370
-1
  6
ByLayer
100
AcDbCircle
 10
2.8562332922754874
 20
5.5624999999999991
 30
0.0
 40
0.125
100
AcDbArc
 50
180.0
 51
270.0000000000001137
  0
ARC
  5
181
100
AcDbEntity
  8
body
 62
256
370
-1
  6
ByLayer
100
AcDbCircle
 10
2.8562332922754874
 20
4.3124999999999991
 30
0.0
 40
0.125
100
AcDbArc
 50
89.9999999999999432
 51
180.0
  0
ARC
  5
182
100
AcDbEntity
  8
body
 62
256
370
-1
  6
ByLayer
100
AcDbCircle
 10
3.0000000000000004
 20
5.1874999999999991
 30
0.0
 40
0.25
100
AcDbArc
 50
0.0
 51
90.0
  0
ARC
  5
183
100
AcDbEntity
  8
body
 62
256
370
-1
  6
ByLayer
100
AcDbCircle
 10
3.0000000000000004
 20
4.6874999999999991
 30
0.0
 40
0.25
100
AcDbArc
 50
270.0
 51
0.0
  0
LINE
  5
184
100
AcDbEntity
100
AcDbLine
  8
body
 62
256
370
-1
  6
ByLayer
 10
2.8562332922754874
 20
5.4374999999999991
 30
0.0
 11
3.0000000000000004
 21
5.4374999999999991
 31
0.0
  0
LINE
  5
185
100
AcDbEntity
100
AcDbLine
  8
body
 62
256
370
-1
  6
ByLayer
 10
3.2500000000000004
 20
5.1874999999999991
 30
0.0
 11
3.2500000000000004
 21
4.6874999999999991
 31
0.0
  0
LINE
  5
186
100
AcDbEntity
100
AcDbLine
  8
body
 62
256
370
-1
  6
ByLayer
 10
2.8562332922754874
 20
4.4374999999999991
 30
0.0
 11
3.0000000000000004
 21
4.4374999999999991
 31
0.0
  0
LINE
  5
187
100
AcDbEntity
100
AcDbLine
  8
body
 62
256
370
-1
  6
ByLayer
 10
2.7312332922754874
 20
6.9374999999999991
 30
0.0
 11
2.7312332922754874
 21
4.3124999999999991
 31
0.0
  0
LINE
  5
188
100
AcDbEntity
100
AcDbLine
  8
body
 62
7
370
-1
  6
ByLayer
 10
2.9687500000000009
 20
6.3125
 30
0.0
 11
3.0312500000000009
 21
6.3125
 31
0.0
  0
LINE
  5
189
100
AcDbEntity
100
AcDbLine
  8
body
 62
7
370
-1
  6
ByLayer
 10
3.0000000000000009
 20
6.28125
 30
0.0
 11
3.0000000000000009
 21
6.34375
 31
0.0
  0
LINE
  5
18A
100
AcDbEntity
100
AcDbLine
  8
body
 62
7
370
-1
  6
ByLayer
 10
2.9687500000000009
 20
4.9375
 30
0.0
 11
3.0312500000000009
 21
4.9375
 31
0.0
  0
LINE
  5
18B
100
AcDbEntity
100
AcDbLine
  8
body
 62
7
370
-1
  6
ByLayer
 10
3.0000000000000009
 20
4.90625
 30
0.0
 11
3.0000000000000009
 21
4.96875
 31
0.0
  0
ARC
  5
18C
100
AcDbEntity
  8
body
 62
256
370
-1
  6
ByLayer
100
AcDbCircle
 10
0.0
 20
0.0
 30
0.0
 40
0.6875
100
AcDbArc
 50
0.0
 51
180.0
  0
ENDSEC
  0
SECTION
  2
OBJECTS
  0
DICTIONARY
  5
C
100
AcDbDictionary
280
0
281
1
  3
ACAD_GROUP
350
D
  3
ACAD_LAYOUT
350
1A
  3
ACAD_MLINESTYLE
350
17
  3
ACAD_PLOTSETTINGS
350
19
  3
ACAD_PLOTSTYLENAME
350
E
  3
AcDbVariableDictionary
350
18D
  0
DICTIONARY
  5
D
100
AcDbDictionary
280
0
281
1
  0
ACDBDICTIONARYWDFLT
  5
E
100
AcDbDictionary
281
1
  3
Normal
350
F
100
AcDbDictionaryWithDefault
340
F
  0
ACDBPLACEHOLDER
  5
F
  0
DICTIONARY
  5
17
100
AcDbDictionary
280
0
281
1
  3
Standard
350
18
  0
MLINESTYLE
  5
18
100
AcDbMlineStyle
  2
STANDARD
 70
0
  3

 62
256
 51
90.0
 52
90.0
 71
2
 49
0.5
 62
256
  6
BYLAYER
 49
-0.5
 62
256
  6
BYLAYER
  0
DICTIONARY
  5
19
100
AcDbDictionary
280
0
281
1
  0
DICTIONARY
  5
1A
100
AcDbDictionary
281
1
  3
Layout1
350
1E
  3
Layout2
350
26
  3
Model
350
22
  0
LAYOUT
  5
1E
100
AcDbPlotSettings
  1

  2
C:\Program Files\AutoCAD 2002\plotters\DWF ePlot (optimized for plotting).pc3
  4

  6

 40
0.0
 41
0.0
 42
0.0
 43
0.0
 44
0.0
 45
0.0
 46
0.0
 47
0.0
 48
0.0
 49
0.0
140
0.0
141
0.0
142
1.0
143
1.0
 70
688
 72
0
 73
0
 74
5
  7

 75
16
147
1.0
148
0.0
149
0.0
100
AcDbLayout
  1
Layout1
 70
1
 71
1
 10
0.0
 20
0.0
 11
420.0
 21
297.0
 12
0.0
 22
0.0
 32
0.0
 14
100000000000000000000.0
 24
100000000000000000000.0
 34
100000000000000000000.0
 15
-100000000000000000000.0
 25
-100000000000000000000.0
 35
-100000000000000000000.0
146
0.0
 13
0.0
 23
0.0
 33
0.0
 16
1.0
 26
0.0
 36
0.0
 17
0.0
 27
1.0
 37
0.0
 76
0
330
1B
  0
LAYOUT
  5
22
100
AcDbPlotSettings
  1

  2
C:\Program Files\AutoCAD 2002\plotters\DWF ePlot (optimized for plotting).pc3
  4

  6

 40
0.0
 41
0.0
 42
0.0
 43
0.0
 44
0.0
 45
0.0
 46
0.0
 47
0.0
 48
0.0
 49
0.0
140
0.0
141
0.0
142
1.0
143
1.0
 70
1712
 72
0
 73
0
 74
0
  7

 75
0
147
1.0
148
0.0
149
0.0
100
AcDbLayout
  1
Model
 70
1
 71
0
 10
0.0
 20
0.0
 11
12.0
 21
9.0
 12
0.0
 22
0.0
 32
0.0
 14
0.0
 24
0.0
 34
0.0
 15
0.0
 25
0.0
 35
0.0
146
0.0
 13
0.0
 23
0.0
 33
0.0
 16
1.0
 26
0.0
 36
0.0
 17
0.0
 27
1.0
 37
0.0
 76
0
330
1F
  0
LAYOUT
  5
26
100
AcDbPlotSettings
  1

  2
C:\Program Files\AutoCAD 2002\plotters\DWF ePlot (optimized for plotting).pc3
  4

  6

 40
0.0
 41
0.0
 42
0.0
 43
0.0
 44
0.0
 45
0.0
 46
0.0
 47
0.0
 48
0.0
 49
0.0
140
0.0
141
0.0
142
1.0
143
1.0
 70
688
 72
0
 73
0
 74
5
  7

 75
16
147
1.0
148
0.0
149
0.0
100
AcDbLayout
  1
Layout2
 70
1
 71
2
 10
0.0
 20
0.0
 11
12.0
 21
9.0
 12
0.0
 22
0.0
 32
0.0
 14
0.0
 24
0.0
 34
0.0
 15
0.0
 25
0.0
 35
0.0
146
0.0
 13
0.0
 23
0.0
 33
0.0
 16
1.0
 26
0.0
 36
0.0
 17
0.0
 27
1.0
 37
0.0
 76
0
330
23
  0
DICTIONARY
  5
18D
100
AcDbDictionary
281
1
  3
DIMASSOC
350
18F
  3
HIDETEXT
350
18E
  0
DICTIONARYVAR
  5
18E
100
DictionaryVariables
280
0
  1
2
  0
DICTIONARYVAR
  5
18F
100
DictionaryVariables
280
0
  1
1
  0
ENDSEC
  0
EOF
