999
dxfrw 0.5.11
0
SECTION
2
HEADER
9
$ACADVER
1
AC1021
9
$HANDSEED
5
20000
9
$DWGCODEPAGE
3
ANSI_1252
9
$INSBASE
10
0
20
0
30
0
9
$EXTMIN
10
-1.94099998768
20
-4
30
0
9
$EXTMAX
10
3.9125
20
5.05
30
0
9
$LIMMIN
10
0
20
0
9
$LIMMAX
10
420
20
297
9
$ORTHOMODE
70
0
9
$LTSCALE
40
1
9
$TEXTSTYLE
7
STANDARD
9
$CLAYER
8
exhaust_boss
9
$DIMASZ
40
0.1
9
$DIMLFAC
40
1
9
$DIMSCALE
40
1
9
$DIMEXO
40
0.025
9
$DIMEXE
40
0.05
9
$DIMTXT
40
0.1
9
$DIMTSZ
40
0
9
$DIMAUNIT
70
0
9
$DIMADEC
70
2
9
$DIMLUNIT
70
2
9
$DIMSTYLE
2
Standard
9
$DIMGAP
40
0.025
9
$DIMTIH
70
0
9
$LUNITS
70
2
9
$LUPREC
70
4
9
$AUNITS
70
0
9
$AUPREC
70
2
9
$SPLINESEGS
70
8
9
$GRIDMODE
70
1
9
$SNAPSTYLE
70
0
9
$GRIDUNIT
10
0
20
0
9
$PINSBASE
10
1.046875
20
1.4375
30
0
9
$PLIMMIN
10
0
20
0
9
$PLIMMAX
10
11
20
8.5
9
$INSUNITS
70
1
9
$PSVPSCALE
40
1.25
0
ENDSEC
0
SECTION
2
CLASSES
0
ENDSEC
0
SECTION
2
TABLES
0
TABLE
2
VPORT
5
8
330
0
100
AcDbSymbolTable
70
1
0
VPORT
5
31
330
2
100
AcDbSymbolTableRecord
100
AcDbViewportTableRecord
2
*ACTIVE
70
0
10
0
20
0
11
1
21
1
12
1.88494967147
22
0.728724436841
13
0
23
0
14
10
24
10
15
10
25
10
16
0
26
0
36
1
17
0
27
0
37
0
40
2.22300414849
41
1.84970414201
42
50
43
0
44
0
50
0
51
0
71
0
72
100
73
1
74
3
75
0
76
1
77
0
78
0
281
0
65
1
110
0
120
0
130
0
111
1
121
0
131
0
112
0
122
1
132
0
79
0
146
0
348
10020
60
7
61
5
292
1
282
1
141
0
142
0
63
250
421
3358443
0
ENDTAB
0
TABLE
2
LTYPE
5
5
330
0
100
AcDbSymbolTable
70
4
0
LTYPE
5
14
330
5
100
AcDbSymbolTableRecord
100
AcDbLinetypeTableRecord
2
ByBlock
70
0
3

72
65
73
0
40
0
0
LTYPE
5
15
330
5
100
AcDbSymbolTableRecord
100
AcDbLinetypeTableRecord
2
ByLayer
70
0
3

72
65
73
0
40
0
0
LTYPE
5
16
330
5
100
AcDbSymbolTableRecord
100
AcDbLinetypeTableRecord
2
Continuous
70
0
3
Solid line
72
65
73
0
40
0
0
LTYPE
5
32
330
5
100
AcDbSymbolTableRecord
100
AcDbLinetypeTableRecord
2
DOT
70
0
3
Dot . . . . . . . . . . . . . . . . . . . . . .
72
65
73
2
40
6.35
49
0
74
0
49
-6.35
74
0
0
LTYPE
5
33
330
5
100
AcDbSymbolTableRecord
100
AcDbLinetypeTableRecord
2
DOT2
70
0
3
Dot (.5x) .....................................
72
65
73
2
40
3.175
49
0
74
0
49
-3.175
74
0
0
LTYPE
5
34
330
5
100
AcDbSymbolTableRecord
100
AcDbLinetypeTableRecord
2
DOTX2
70
0
3
Dot (2x) .  .  .  .  .  .  .  .  .  .  .  .  .
72
65
73
2
40
12.7
49
0
74
0
49
-12.7
74
0
0
LTYPE
5
35
330
5
100
AcDbSymbolTableRecord
100
AcDbLinetypeTableRecord
2
DASHED
70
0
3
Dot . . . . . . . . . . . . . . . . . . . . . .
72
65
73
2
40
19.05
49
12.7
74
0
49
-6.35
74
0
0
LTYPE
5
36
330
5
100
AcDbSymbolTableRecord
100
AcDbLinetypeTableRecord
2
DASHED2
70
0
3
Dashed (.5x) _ _ _ _ _ _ _ _ _ _ _ _ _ _ _ _ _
72
65
73
2
40
9.525
49
6.35
74
0
49
-3.175
74
0
0
LTYPE
5
37
330
5
100
AcDbSymbolTableRecord
100
AcDbLinetypeTableRecord
2
DASHEDX2
70
0
3
Dashed (2x) ____  ____  ____  ____  ____  ___
72
65
73
2
40
38.1
49
25.4
74
0
49
-12.7
74
0
0
LTYPE
5
38
330
5
100
AcDbSymbolTableRecord
100
AcDbLinetypeTableRecord
2
DASHDOT
70
0
3
Dash dot __ . __ . __ . __ . __ . __ . __ . __
72
65
73
4
40
25.4
49
12.7
74
0
49
-6.35
74
0
49
0
74
0
49
-6.35
74
0
0
LTYPE
5
39
330
5
100
AcDbSymbolTableRecord
100
AcDbLinetypeTableRecord
2
DASHDOT2
70
0
3
Dash dot (.5x) _._._._._._._._._._._._._._._.
72
65
73
4
40
12.7
49
6.35
74
0
49
-3.175
74
0
49
0
74
0
49
-3.175
74
0
0
LTYPE
5
3A
330
5
100
AcDbSymbolTableRecord
100
AcDbLinetypeTableRecord
2
DASHDOTX2
70
0
3
Dash dot (2x) ____  .  ____  .  ____  .  ___
72
65
73
4
40
50.8
49
25.4
74
0
49
-12.7
74
0
49
0
74
0
49
-12.7
74
0
0
LTYPE
5
3B
330
5
100
AcDbSymbolTableRecord
100
AcDbLinetypeTableRecord
2
DIVIDE
70
0
3
Divide ____ . . ____ . . ____ . . ____ . . ____
72
65
73
6
40
31.75
49
12.7
74
0
49
-6.35
74
0
49
0
74
0
49
-6.35
74
0
49
0
74
0
49
-6.35
74
0
0
LTYPE
5
3C
330
5
100
AcDbSymbolTableRecord
100
AcDbLinetypeTableRecord
2
DIVIDE2
70
0
3
Divide (.5x) __..__..__..__..__..__..__..__.._
72
65
73
6
40
15.875
49
6.35
74
0
49
-3.175
74
0
49
0
74
0
49
-3.175
74
0
49
0
74
0
49
-3.175
74
0
0
LTYPE
5
3D
330
5
100
AcDbSymbolTableRecord
100
AcDbLinetypeTableRecord
2
DIVIDEX2
70
0
3
Divide (2x) ________  .  .  ________  .  .  _
72
65
73
6
40
63.5
49
25.4
74
0
49
-12.7
74
0
49
0
74
0
49
-12.7
74
0
49
0
74
0
49
-12.7
74
0
0
LTYPE
5
3E
330
5
100
AcDbSymbolTableRecord
100
AcDbLinetypeTableRecord
2
BORDER
70
0
3
Border __ __ . __ __ . __ __ . __ __ . __ __ .
72
65
73
6
40
44.45
49
12.7
74
0
49
-6.35
74
0
49
12.7
74
0
49
-6.35
74
0
49
0
74
0
49
-6.35
74
0
0
LTYPE
5
3F
330
5
100
AcDbSymbolTableRecord
100
AcDbLinetypeTableRecord
2
BORDER2
70
0
3
Border (.5x) __.__.__.__.__.__.__.__.__.__.__.
72
65
73
6
40
22.225
49
6.35
74
0
49
-3.175
74
0
49
6.35
74
0
49
-3.175
74
0
49
0
74
0
49
-3.175
74
0
0
LTYPE
5
40
330
5
100
AcDbSymbolTableRecord
100
AcDbLinetypeTableRecord
2
BORDERX2
70
0
3
Border (2x) ____  ____  .  ____  ____  .  ___
72
65
73
6
40
88.9
49
25.4
74
0
49
-12.7
74
0
49
25.4
74
0
49
-12.7
74
0
49
0
74
0
49
-12.7
74
0
0
LTYPE
5
41
330
5
100
AcDbSymbolTableRecord
100
AcDbLinetypeTableRecord
2
CENTER
70
0
3
Center ____ _ ____ _ ____ _ ____ _ ____ _ ____
72
65
73
4
40
50.8
49
31.75
74
0
49
-6.35
74
0
49
6.35
74
0
49
-6.35
74
0
0
LTYPE
5
42
330
5
100
AcDbSymbolTableRecord
100
AcDbLinetypeTableRecord
2
CENTER2
70
0
3
Center (.5x) ___ _ ___ _ ___ _ ___ _ ___ _ ___
72
65
73
4
40
28.575
49
19.05
74
0
49
-3.175
74
0
49
3.175
74
0
49
-3.175
74
0
0
LTYPE
5
43
330
5
100
AcDbSymbolTableRecord
100
AcDbLinetypeTableRecord
2
CENTERX2
70
0
3
Center (2x) ________  __  ________  __  _____
72
65
73
4
40
101.6
49
63.5
74
0
49
-12.7
74
0
49
12.7
74
0
49
-12.7
74
0
0
ENDTAB
0
TABLE
2
LAYER
5
2
330
0
100
AcDbSymbolTable
70
1
0
LAYER
5
10
330
2
100
AcDbSymbolTableRecord
100
AcDbLayerTableRecord
2
0
70
0
62
7
6
CONTINUOUS
370
0
390
F
0
LAYER
5
44
330
2
100
AcDbSymbolTableRecord
100
AcDbLayerTableRecord
2
exhaust_boss
70
0
62
7
6
CONTINUOUS
370
0
390
F
0
LAYER
5
45
330
2
100
AcDbSymbolTableRecord
100
AcDbLayerTableRecord
2
head
70
0
62
6
6
CONTINUOUS
370
0
390
F
0
LAYER
5
46
330
2
100
AcDbSymbolTableRecord
100
AcDbLayerTableRecord
2
head_cover
70
0
62
2
6
CONTINUOUS
370
0
390
F
0
LAYER
5
47
330
2
100
AcDbSymbolTableRecord
100
AcDbLayerTableRecord
2
head_details
70
0
62
7
6
CONTINUOUS
370
0
390
F
0
LAYER
5
48
330
2
100
AcDbSymbolTableRecord
100
AcDbLayerTableRecord
2
head_wall_holes
70
0
62
4
6
CONTINUOUS
370
0
390
F
0
LAYER
5
49
330
2
100
AcDbSymbolTableRecord
100
AcDbLayerTableRecord
2
head_wall_inner
70
0
62
4
6
CONTINUOUS
370
0
390
F
0
LAYER
5
4A
330
2
100
AcDbSymbolTableRecord
100
AcDbLayerTableRecord
2
head_wall_outer
70
0
62
4
6
CONTINUOUS
370
0
390
F
0
LAYER
5
4B
330
2
100
AcDbSymbolTableRecord
100
AcDbLayerTableRecord
2
manifolds
70
0
62
7
6
CONTINUOUS
370
0
390
F
0
LAYER
5
4C
330
2
100
AcDbSymbolTableRecord
100
AcDbLayerTableRecord
2
valve_holes
70
0
62
6
6
CONTINUOUS
370
0
390
F
0
ENDTAB
0
TABLE
2
STYLE
5
3
330
0
100
AcDbSymbolTable
70
3
0
STYLE
5
4D
330
2
100
AcDbSymbolTableRecord
100
AcDbTextStyleTableRecord
2
Standard
70
0
40
0
41
1
50
0
71
0
42
1
3
txt
4

0
ENDTAB
0
TABLE
2
VIEW
5
6
330
0
100
AcDbSymbolTable
70
0
0
ENDTAB
0
TABLE
2
UCS
5
7
330
0
100
AcDbSymbolTable
70
0
0
ENDTAB
0
TABLE
2
APPID
5
9
330
0
100
AcDbSymbolTable
70
1
0
APPID
5
12
330
9
100
AcDbSymbolTableRecord
100
AcDbRegAppTableRecord
2
ACAD
70
0
0
ENDTAB
0
TABLE
2
DIMSTYLE
5
A
330
0
100
AcDbSymbolTable
70
1
100
AcDbDimStyleTable
71
1
0
DIMSTYLE
105
4E
330
A
100
AcDbSymbolTableRecord
100
AcDbDimStyleTableRecord
2
Standard
70
0
40
1
41
0.1
42
0.025
43
0.38
44
0.05
45
0
46
0
47
0
48
0
140
0.1
141
0.09
142
0
143
25.4
144
1
145
0
146
1
147
0.025
148
0
71
0
72
0
73
0
74
1
75
0
76
0
77
0
78
0
79
0
170
0
171
2
172
0
173
0
174
0
175
0
176
0
177
0
178
0
179
0
271
4
272
4
273
2
274
2
275
0
276
0
277
2
278
46
279
0
280
0
281
0
282
0
283
1
284
0
285
0
286
0
288
0
289
3
340
Standard
341

371
-2
372
-2
0
ENDTAB
0
TABLE
2
BLOCK_RECORD
5
1
330
0
100
AcDbSymbolTable
70
2
0
BLOCK_RECORD
5
1F
330
1
100
AcDbSymbolTableRecord
100
AcDbBlockTableRecord
2
*Model_Space
70
0
280
1
281
0
0
BLOCK_RECORD
5
1E
330
1
100
AcDbSymbolTableRecord
100
AcDbBlockTableRecord
2
*Paper_Space
70
0
280
1
281
0
0
ENDTAB
0
ENDSEC
0
SECTION
2
BLOCKS
0
BLOCK
5
20
330
1F
100
AcDbEntity
8
0
100
AcDbBlockBegin
2
*Model_Space
70
0
10
0
20
0
30
0
3
*Model_Space
1

0
ENDBLK
5
21
330
1F
100
AcDbEntity
8
0
100
AcDbBlockEnd
0
BLOCK
5
1C
330
1B
100
AcDbEntity
8
0
100
AcDbBlockBegin
2
*Paper_Space
70
0
10
0
20
0
30
0
3
*Paper_Space
1

0
ENDBLK
5
1D
330
1F
100
AcDbEntity
8
0
100
AcDbBlockEnd
0
ENDSEC
0
SECTION
2
ENTITIES
0
ARC
5
4F
100
AcDbEntity
8
head_cover
6
ByLayer
62
256
370
-1
100
AcDbCircle
10
-0.68749998768
20
-0.6875
40
0.0625
100
AcDbArc
50
270
51
2.54e-14
0
ARC
5
50
100
AcDbEntity
8
head_cover
6
ByLayer
62
256
370
-1
100
AcDbCircle
10
0.68750001232
20
-0.6875
40
0.0625
100
AcDbArc
50
180
51
270
0
ARC
5
51
100
AcDbEntity
8
head_cover
6
ByLayer
62
256
370
-1
100
AcDbCircle
10
0.87500001232
20
0.6875
40
0.0625
100
AcDbArc
50
90
51
180
0
ARC
5
52
100
AcDbEntity
8
head_cover
6
ByLayer
62
256
370
-1
100
AcDbCircle
10
-0.87499998768
20
0.6875
40
0.0625
100
AcDbArc
50
0
51
90
0
LINE
5
53
100
AcDbEntity
8
head_cover
6
ByLayer
62
256
370
-1
100
AcDbLine
10
-0.81249998768
20
0.4375
11
-0.81249998768
21
0.6875
0
ARC
5
54
100
AcDbEntity
8
head_cover
6
ByLayer
62
256
370
-1
100
AcDbCircle
10
-0.74999998768
20
0.4375
40
0.0625
100
AcDbArc
50
180
51
270
0
LINE
5
55
100
AcDbEntity
8
head_cover
6
ByLayer
62
256
370
-1
100
AcDbLine
10
-0.74999998768
20
0.375
11
0.75000001232
21
0.375
0
LINE
5
56
100
AcDbEntity
8
head_cover
6
ByLayer
62
256
370
-1
100
AcDbLine
10
0.81250001232
20
0.4375
11
0.81250001232
21
0.6875
0
ARC
5
57
100
AcDbEntity
8
head_cover
6
ByLayer
62
256
370
-1
100
AcDbCircle
10
0.75000001232
20
0.4375
40
0.0625
100
AcDbArc
50
270
51
0
0
LINE
5
58
100
AcDbEntity
8
head_cover
6
ByLayer
62
256
370
-1
100
AcDbLine
10
-0.49999998768
20
-0.6875
11
-0.37499998768
21
-0.6875
0
LINE
5
59
100
AcDbEntity
8
head_cover
6
ByLayer
62
256
370
-1
100
AcDbLine
10
-0.43749998768
20
-0.75
11
-0.43749998768
21
-0.625
0
LINE
5
5A
100
AcDbEntity
8
head_cover
6
ByLayer
62
256
370
-1
100
AcDbLine
10
0.37500001232
20
-0.6875
11
0.50000001232
21
-0.6875
0
LINE
5
5B
100
AcDbEntity
8
head_cover
6
ByLayer
62
256
370
-1
100
AcDbLine
10
0.43750001232
20
-0.75
11
0.43750001232
21
-0.625
0
LINE
5
5C
100
AcDbEntity
8
head_cover
6
ByLayer
62
256
370
-1
100
AcDbLine
10
1.69100001232
20
-0.6875
11
1.69100001232
21
0.6875
0
ARC
5
5D
100
AcDbEntity
8
head_cover
6
ByLayer
62
256
370
-1
100
AcDbCircle
10
1.25350001232
20
-0.6875
40
0.0625
100
AcDbArc
50
270
51
2.54e-14
0
ARC
5
5E
100
AcDbEntity
8
head_cover
6
ByLayer
62
256
370
-1
100
AcDbCircle
10
1.50350001232
20
-0.4375
40
0.0625
100
AcDbArc
50
270
51
0
0
LINE
5
5F
100
AcDbEntity
8
head_cover
6
ByLayer
62
256
370
-1
100
AcDbLine
10
1.56600001232
20
-0.4375
11
1.56600001232
21
-0.25
0
ARC
5
60
100
AcDbEntity
8
head_cover
6
ByLayer
62
256
370
-1
100
AcDbCircle
10
1.50350001232
20
-0.25
40
0.0625
100
AcDbArc
50
0
51
90
0
ARC
5
61
100
AcDbEntity
8
head_cover
6
ByLayer
62
256
370
-1
100
AcDbCircle
10
1.50350001232
20
0.25
40
0.0625
100
AcDbArc
50
270
51
0
0
LINE
5
62
100
AcDbEntity
8
head_cover
6
ByLayer
62
256
370
-1
100
AcDbLine
10
1.56600001232
20
0.25
11
1.56600001232
21
0.4375
0
ARC
5
63
100
AcDbEntity
8
head_cover
6
ByLayer
62
256
370
-1
100
AcDbCircle
10
1.50350001232
20
0.4375
40
0.0625
100
AcDbArc
50
0
51
90
0
ARC
5
64
100
AcDbEntity
8
head_cover
6
ByLayer
62
256
370
-1
100
AcDbCircle
10
1.25350001232
20
0.6875
40
0.0625
100
AcDbArc
50
0
51
90
0
ARC
5
65
100
AcDbEntity
8
head_cover
6
ByLayer
62
256
370
-1
100
AcDbCircle
10
1.50350001232
20
0.6875
40
0.1875
100
AcDbArc
50
180
51
270
0
ARC
5
66
100
AcDbEntity
8
head_cover
6
ByLayer
62
256
370
-1
100
AcDbCircle
10
1.50350001232
20
0.6875
40
0.1875
100
AcDbArc
50
6.79e-14
51
90
0
ARC
5
67
100
AcDbEntity
8
head_cover
6
ByLayer
62
256
370
-1
100
AcDbCircle
10
1.50350001232
20
0
40
0.1875
100
AcDbArc
50
90
51
270
0
ARC
5
68
100
AcDbEntity
8
head_cover
6
ByLayer
62
256
370
-1
100
AcDbCircle
10
1.50350001232
20
-0.6875
40
0.1875
100
AcDbArc
50
90
51
180
0
ARC
5
69
100
AcDbEntity
8
head_cover
6
ByLayer
62
256
370
-1
100
AcDbCircle
10
1.50350001232
20
-0.6875
40
0.1875
100
AcDbArc
50
270
51
0
0
LINE
5
6A
100
AcDbEntity
8
head_cover
6
ByLayer
62
256
370
-1
100
AcDbLine
10
1.44100001232
20
-0.6875
11
1.56600001232
21
-0.6875
0
LINE
5
6B
100
AcDbEntity
8
head_cover
6
ByLayer
62
256
370
-1
100
AcDbLine
10
1.50350001232
20
-0.75
11
1.50350001232
21
-0.625
0
LINE
5
6C
100
AcDbEntity
8
head_cover
6
ByLayer
62
256
370
-1
100
AcDbLine
10
1.44100001232
20
0
11
1.56600001232
21
0
0
LINE
5
6D
100
AcDbEntity
8
head_cover
6
ByLayer
62
256
370
-1
100
AcDbLine
10
1.50350001232
20
-0.0625
11
1.50350001232
21
0.0625
0
LINE
5
6E
100
AcDbEntity
8
head_cover
6
ByLayer
62
256
370
-1
100
AcDbLine
10
1.44100001232
20
0.6875
11
1.56600001232
21
0.6875
0
LINE
5
6F
100
AcDbEntity
8
head_cover
6
ByLayer
62
256
370
-1
100
AcDbLine
10
1.50350001232
20
0.625
11
1.50350001232
21
0.75
0
ARC
5
70
100
AcDbEntity
8
head_cover
6
ByLayer
62
256
370
-1
100
AcDbCircle
10
-1.50349998768
20
0.4375
40
0.0625
100
AcDbArc
50
90
51
180
0
LINE
5
71
100
AcDbEntity
8
head_cover
6
ByLayer
62
256
370
-1
100
AcDbLine
10
-1.56599998768
20
0.25
11
-1.56599998768
21
0.4375
0
ARC
5
72
100
AcDbEntity
8
head_cover
6
ByLayer
62
256
370
-1
100
AcDbCircle
10
-1.50349998768
20
0.25
40
0.0625
100
AcDbArc
50
180
51
270
0
ARC
5
73
100
AcDbEntity
8
head_cover
6
ByLayer
62
256
370
-1
100
AcDbCircle
10
-1.50349998768
20
-0.25
40
0.0625
100
AcDbArc
50
90
51
180
0
LINE
5
74
100
AcDbEntity
8
head_cover
6
ByLayer
62
256
370
-1
100
AcDbLine
10
-1.56599998768
20
-0.4375
11
-1.56599998768
21
-0.25
0
ARC
5
75
100
AcDbEntity
8
head_cover
6
ByLayer
62
256
370
-1
100
AcDbCircle
10
-1.50349998768
20
-0.4375
40
0.0625
100
AcDbArc
50
180
51
270
0
ARC
5
76
100
AcDbEntity
8
head_cover
6
ByLayer
62
256
370
-1
100
AcDbCircle
10
-1.25349998768
20
-0.6875
40
0.0625
100
AcDbArc
50
180
51
270
0
ARC
5
77
100
AcDbEntity
8
head_cover
6
ByLayer
62
256
370
-1
100
AcDbCircle
10
-1.50349998768
20
0.6875
40
0.1875
100
AcDbArc
50
90
51
180
0
ARC
5
78
100
AcDbEntity
8
head_cover
6
ByLayer
62
256
370
-1
100
AcDbCircle
10
-1.50349998768
20
0.6875
40
0.1875
100
AcDbArc
50
270
51
359.999999303
0
ARC
5
79
100
AcDbEntity
8
head_cover
6
ByLayer
62
256
370
-1
100
AcDbCircle
10
-1.50349998768
20
-0.6875
40
0.1875
100
AcDbArc
50
180
51
270
0
LINE
5
7A
100
AcDbEntity
8
head_cover
6
ByLayer
62
256
370
-1
100
AcDbLine
10
-1.69099998768
20
-0.6875
11
-1.69099998768
21
0.6875
0
ARC
5
7B
100
AcDbEntity
8
head_cover
6
ByLayer
62
256
370
-1
100
AcDbCircle
10
-1.50349998768
20
0
40
0.1875
100
AcDbArc
50
269.999999014
51
90
0
ARC
5
7C
100
AcDbEntity
8
head_cover
6
ByLayer
62
256
370
-1
100
AcDbCircle
10
-1.50349998768
20
-0.6875
40
0.1875
100
AcDbArc
50
0
51
90
0
LINE
5
7D
100
AcDbEntity
8
head_cover
6
ByLayer
62
256
370
-1
100
AcDbLine
10
-1.56599998768
20
-0.6875
11
-1.44099998768
21
-0.6875
0
LINE
5
7E
100
AcDbEntity
8
head_cover
6
ByLayer
62
256
370
-1
100
AcDbLine
10
-1.50349998768
20
-0.75
11
-1.50349998768
21
-0.625
0
LINE
5
7F
100
AcDbEntity
8
head_cover
6
ByLayer
62
256
370
-1
100
AcDbLine
10
-1.56599998768
20
0.6875
11
-1.44099998768
21
0.6875
0
LINE
5
80
100
AcDbEntity
8
head_cover
6
ByLayer
62
256
370
-1
100
AcDbLine
10
-1.50349998768
20
0.625
11
-1.50349998768
21
0.75
0
LINE
5
81
100
AcDbEntity
8
head_cover
6
ByLayer
62
256
370
-1
100
AcDbLine
10
-1.56599998768
20
0
11
-1.44099998768
21
0
0
LINE
5
82
100
AcDbEntity
8
head_cover
6
ByLayer
62
256
370
-1
100
AcDbLine
10
-1.50349998768
20
-0.0625
11
-1.50349998768
21
0.0625
0
ARC
5
83
100
AcDbEntity
8
head_cover
6
ByLayer
62
256
370
-1
100
AcDbCircle
10
-1.25349998768
20
0.6875
40
0.0625
100
AcDbArc
50
90
51
180.001480372
0
LINE
5
84
100
AcDbEntity
8
head_cover
6
ByLayer
62
256
370
-1
100
AcDbLine
10
-1.25349997935
20
0.75
11
-0.87499998768
21
0.75
0
LINE
5
85
100
AcDbEntity
8
head_cover
6
ByLayer
62
256
370
-1
100
AcDbLine
10
-1.25349997935
20
-0.75
11
-0.68749998768
21
-0.75
0
LINE
5
86
100
AcDbEntity
8
head_cover
6
ByLayer
62
256
370
-1
100
AcDbLine
10
-1.50349995907
20
0.875
11
1.50349992571
21
0.875
0
LINE
5
87
100
AcDbEntity
8
head_cover
6
ByLayer
62
256
370
-1
100
AcDbLine
10
0.87500001232
20
0.75
11
1.25349993899
21
0.75
0
LINE
5
88
100
AcDbEntity
8
head_cover
6
ByLayer
62
256
370
-1
100
AcDbLine
10
0.68750001232
20
-0.75
11
1.25349997075
21
-0.75
0
LINE
5
89
100
AcDbEntity
8
head_cover
6
ByLayer
62
256
370
-1
100
AcDbLine
10
-1.50349995907
20
-0.875
11
1.50349999243
21
-0.875
0
LINE
5
8A
100
AcDbEntity
8
head_cover
6
ByLayer
62
256
370
-1
100
AcDbLine
10
-0.49999998768
20
0.6875
11
-0.37499998768
21
0.6875
0
LINE
5
8B
100
AcDbEntity
8
head_cover
6
ByLayer
62
256
370
-1
100
AcDbLine
10
-0.43749998768
20
0.625
11
-0.43749998768
21
0.75
0
LINE
5
8C
100
AcDbEntity
8
head_cover
6
ByLayer
62
256
370
-1
100
AcDbLine
10
0.37500001232
20
0.6875
11
0.50000001232
21
0.6875
0
LINE
5
8D
100
AcDbEntity
8
head_cover
6
ByLayer
62
256
370
-1
100
AcDbLine
10
0.43750001232
20
0.625
11
0.43750001232
21
0.75
0
LINE
5
8E
100
AcDbEntity
8
head_cover
6
ByLayer
62
256
370
-1
100
AcDbLine
10
-0.06249998768
20
-0.375
11
0.06250001232
21
-0.375
0
LINE
5
8F
100
AcDbEntity
8
head_cover
6
ByLayer
62
256
370
-1
100
AcDbLine
10
1.23199996871e-08
20
-0.4375
11
1.23199996871e-08
21
-0.3125
0
LINE
5
90
100
AcDbEntity
8
head_cover
6
ByLayer
62
256
370
-1
100
AcDbLine
10
-0.49999998768
20
-0.6875
11
-0.37499998768
21
-0.6875
0
LINE
5
91
100
AcDbEntity
8
head_cover
6
ByLayer
62
256
370
-1
100
AcDbLine
10
-0.43749998768
20
-0.75
11
-0.43749998768
21
-0.625
0
LINE
5
92
100
AcDbEntity
8
head_cover
6
ByLayer
62
256
370
-1
100
AcDbLine
10
0.37500001232
20
-0.6875
11
0.50000001232
21
-0.6875
0
LINE
5
93
100
AcDbEntity
8
head_cover
6
ByLayer
62
256
370
-1
100
AcDbLine
10
0.43750001232
20
-0.75
11
0.43750001232
21
-0.625
0
LINE
5
94
100
AcDbEntity
8
head_cover
6
ByLayer
62
256
370
-1
100
AcDbLine
10
-0.18749998768
20
-0.125
11
-0.52499998768
21
-0.378125
0
ARC
5
95
100
AcDbEntity
8
head_cover
6
ByLayer
62
256
370
-1
100
AcDbCircle
10
-0.37499998768
20
-0.578125
40
0.25
100
AcDbArc
50
126.869897646
51
180
0
LINE
5
96
100
AcDbEntity
8
head_cover
6
ByLayer
62
256
370
-1
100
AcDbLine
10
0.18750001232
20
-0.125
11
0.52500001232
21
-0.378125
0
ARC
5
97
100
AcDbEntity
8
head_cover
6
ByLayer
62
256
370
-1
100
AcDbCircle
10
0.37500001232
20
-0.578125
40
0.25
100
AcDbArc
50
0
51
53.1301023542
0
ARC
5
98
100
AcDbEntity
8
head_cover
6
ByLayer
62
256
370
-1
100
AcDbCircle
10
1.23199996871e-08
20
-0.375
40
0.3125
100
AcDbArc
50
53.1301023542
51
126.869897646
0
LINE
5
99
100
AcDbEntity
8
head_cover
6
ByLayer
62
256
370
-1
100
AcDbLine
10
-0.62499998768
20
-0.6875
11
-0.62499998768
21
-0.578125
0
LINE
5
9A
100
AcDbEntity
8
head_cover
6
ByLayer
62
256
370
-1
100
AcDbLine
10
0.62500001232
20
-0.6875
11
0.62500001232
21
-0.578125
0
CIRCLE
5
9B
100
AcDbEntity
8
head_details
6
ByLayer
62
256
370
-1
100
AcDbCircle
10
-0.4375
20
0.125
40
0.1875
0
CIRCLE
5
9C
100
AcDbEntity
8
head_details
6
ByLayer
62
256
370
-1
100
AcDbCircle
10
-0.9375
20
0.125
40
0.1875
0
CIRCLE
5
9D
100
AcDbEntity
8
head_details
6
ByLayer
62
256
370
-1
100
AcDbCircle
10
0.4375
20
0.125
40
0.1875
0
CIRCLE
5
9E
100
AcDbEntity
8
head_details
6
ByLayer
62
256
370
-1
100
AcDbCircle
10
0.9375
20
0.125
40
0.1875
0
CIRCLE
5
9F
100
AcDbEntity
8
head_details
6
ByLayer
62
256
370
-1
100
AcDbCircle
10
0
20
-0.375
40
0.1875
0
CIRCLE
5
A0
100
AcDbEntity
8
head_details
6
ByLayer
62
256
370
-1
100
AcDbCircle
10
-0.3125
20
-0.375
40
0.0625
0
CIRCLE
5
A1
100
AcDbEntity
8
head_details
6
ByLayer
62
256
370
-1
100
AcDbCircle
10
0.3125
20
-0.375
40
0.0625
0
LINE
5
A2
100
AcDbEntity
8
head_details
6
ByLayer
62
256
370
-1
100
AcDbLine
10
-0.1875
20
-0.125
11
-0.3875
21
-0.275
0
LINE
5
A3
100
AcDbEntity
8
head_details
6
ByLayer
62
256
370
-1
100
AcDbLine
10
-0.1875
20
-0.625
11
-0.3875
21
-0.475
0
LINE
5
A4
100
AcDbEntity
8
head_details
6
ByLayer
62
256
370
-1
100
AcDbLine
10
0.1875
20
-0.625
11
0.3875
21
-0.475
0
LINE
5
A5
100
AcDbEntity
8
head_details
6
ByLayer
62
256
370
-1
100
AcDbLine
10
0.1875
20
-0.125
11
0.3875
21
-0.275
0
ARC
5
A6
100
AcDbEntity
8
head_details
6
ByLayer
62
256
370
-1
100
AcDbCircle
10
0
20
-0.375
40
0.3125
100
AcDbArc
50
233.130102354
51
306.869897646
0
ARC
5
A7
100
AcDbEntity
8
head_details
6
ByLayer
62
256
370
-1
100
AcDbCircle
10
0
20
-0.375
40
0.3125
100
AcDbArc
50
53.1301023542
51
126.869897646
0
ARC
5
A8
100
AcDbEntity
8
head_details
6
ByLayer
62
256
370
-1
100
AcDbCircle
10
-0.3125
20
-0.375
40
0.125
100
AcDbArc
50
126.869897646
51
233.130102354
0
ARC
5
A9
100
AcDbEntity
8
head_details
6
ByLayer
62
256
370
-1
100
AcDbCircle
10
0.3125
20
-0.375
40
0.125
100
AcDbArc
50
306.869897646
51
53.1301023542
0
CIRCLE
5
AA
100
AcDbEntity
8
head_details
6
ByLayer
62
256
370
-1
100
AcDbCircle
10
-0.6875
20
1.11022302463e-16
40
0.5625
0
CIRCLE
5
AB
100
AcDbEntity
8
head_details
6
ByLayer
62
256
370
-1
100
AcDbCircle
10
0.6875
20
1.11022302463e-16
40
0.5625
0
ARC
5
AC
100
AcDbEntity
8
head_cover
6
ByLayer
62
256
370
-1
100
AcDbCircle
10
-0.68750000436
20
1.3875
40
0.0625
100
AcDbArc
50
270
51
2.54e-14
0
ARC
5
AD
100
AcDbEntity
8
head_cover
6
ByLayer
62
256
370
-1
100
AcDbCircle
10
-0.18750000436
20
1.3875
40
0.0625
100
AcDbArc
50
180
51
270
0
LINE
5
AE
100
AcDbEntity
8
head_cover
6
ByLayer
62
256
370
-1
100
AcDbLine
10
-0.18750000436
20
1.325
11
0.18749999564
21
1.325
0
ARC
5
AF
100
AcDbEntity
8
head_cover
6
ByLayer
62
256
370
-1
100
AcDbCircle
10
0.18749999564
20
1.3875
40
0.0625
100
AcDbArc
50
270
51
2.54e-14
0
ARC
5
B0
100
AcDbEntity
8
head_cover
6
ByLayer
62
256
370
-1
100
AcDbCircle
10
0.68749999564
20
1.3875
40
0.0625
100
AcDbArc
50
180
51
270
0
ARC
5
B1
100
AcDbEntity
8
head_cover
6
ByLayer
62
256
370
-1
100
AcDbCircle
10
0.87499999564
20
2.7625
40
0.0625
100
AcDbArc
50
90
51
180
0
ARC
5
B2
100
AcDbEntity
8
head_cover
6
ByLayer
62
256
370
-1
100
AcDbCircle
10
-0.87500000436
20
2.7625
40
0.0625
100
AcDbArc
50
0
51
90
0
ARC
5
B3
100
AcDbEntity
8
head_cover
6
ByLayer
62
256
370
-1
100
AcDbCircle
10
0.43749999564
20
1.3875
40
0.1875
100
AcDbArc
50
0
51
180
0
ARC
5
B4
100
AcDbEntity
8
head_cover
6
ByLayer
62
256
370
-1
100
AcDbCircle
10
-0.43750000436
20
1.3875
40
0.1875
100
AcDbArc
50
0
51
180
0
LINE
5
B5
100
AcDbEntity
8
head_cover
6
ByLayer
62
256
370
-1
100
AcDbLine
10
-0.81250000436
20
2.5125
11
-0.81250000436
21
2.7625
0
ARC
5
B6
100
AcDbEntity
8
head_cover
6
ByLayer
62
256
370
-1
100
AcDbCircle
10
-0.75000000436
20
2.5125
40
0.0625
100
AcDbArc
50
180
51
270
0
LINE
5
B7
100
AcDbEntity
8
head_cover
6
ByLayer
62
256
370
-1
100
AcDbLine
10
-0.75000000436
20
2.45
11
0.74999999564
21
2.45
0
LINE
5
B8
100
AcDbEntity
8
head_cover
6
ByLayer
62
256
370
-1
100
AcDbLine
10
0.81249999564
20
2.5125
11
0.81249999564
21
2.7625
0
ARC
5
B9
100
AcDbEntity
8
head_cover
6
ByLayer
62
256
370
-1
100
AcDbCircle
10
0.74999999564
20
2.5125
40
0.0625
100
AcDbArc
50
270
51
0
0
LINE
5
BA
100
AcDbEntity
8
head_cover
6
ByLayer
62
256
370
-1
100
AcDbLine
10
-0.50000000436
20
1.3875
11
-0.37500000436
21
1.3875
0
LINE
5
BB
100
AcDbEntity
8
head_cover
6
ByLayer
62
256
370
-1
100
AcDbLine
10
-0.43750000436
20
1.325
11
-0.43750000436
21
1.45
0
LINE
5
BC
100
AcDbEntity
8
head_cover
6
ByLayer
62
256
370
-1
100
AcDbLine
10
0.37499999564
20
1.3875
11
0.49999999564
21
1.3875
0
LINE
5
BD
100
AcDbEntity
8
head_cover
6
ByLayer
62
256
370
-1
100
AcDbLine
10
0.43749999564
20
1.325
11
0.43749999564
21
1.45
0
LINE
5
BE
100
AcDbEntity
8
head_cover
6
ByLayer
62
256
370
-1
100
AcDbLine
10
1.69099999564
20
1.3875
11
1.69099999564
21
2.7625
0
ARC
5
BF
100
AcDbEntity
8
head_cover
6
ByLayer
62
256
370
-1
100
AcDbCircle
10
1.25349999564
20
1.3875
40
0.0625
100
AcDbArc
50
270
51
2.54e-14
0
ARC
5
C0
100
AcDbEntity
8
head_cover
6
ByLayer
62
256
370
-1
100
AcDbCircle
10
1.50349999564
20
1.6375
40
0.0625
100
AcDbArc
50
270
51
0
0
LINE
5
C1
100
AcDbEntity
8
head_cover
6
ByLayer
62
256
370
-1
100
AcDbLine
10
1.56599999564
20
1.6375
11
1.56599999564
21
1.825
0
ARC
5
C2
100
AcDbEntity
8
head_cover
6
ByLayer
62
256
370
-1
100
AcDbCircle
10
1.50349999564
20
1.825
40
0.0625
100
AcDbArc
50
0
51
90
0
ARC
5
C3
100
AcDbEntity
8
head_cover
6
ByLayer
62
256
370
-1
100
AcDbCircle
10
1.50349999564
20
2.325
40
0.0625
100
AcDbArc
50
270
51
0
0
LINE
5
C4
100
AcDbEntity
8
head_cover
6
ByLayer
62
256
370
-1
100
AcDbLine
10
1.56599999564
20
2.325
11
1.56599999564
21
2.5125
0
ARC
5
C5
100
AcDbEntity
8
head_cover
6
ByLayer
62
256
370
-1
100
AcDbCircle
10
1.50349999564
20
2.5125
40
0.0625
100
AcDbArc
50
0
51
90
0
ARC
5
C6
100
AcDbEntity
8
head_cover
6
ByLayer
62
256
370
-1
100
AcDbCircle
10
1.25349999564
20
2.7625
40
0.0625
100
AcDbArc
50
0
51
90
0
ARC
5
C7
100
AcDbEntity
8
head_cover
6
ByLayer
62
256
370
-1
100
AcDbCircle
10
1.50349999564
20
2.7625
40
0.1875
100
AcDbArc
50
180
51
270
0
ARC
5
C8
100
AcDbEntity
8
head_cover
6
ByLayer
62
256
370
-1
100
AcDbCircle
10
1.50349999564
20
2.7625
40
0.1875
100
AcDbArc
50
6.79e-14
51
90
0
ARC
5
C9
100
AcDbEntity
8
head_cover
6
ByLayer
62
256
370
-1
100
AcDbCircle
10
1.50349999564
20
2.075
40
0.1875
100
AcDbArc
50
90
51
270
0
ARC
5
CA
100
AcDbEntity
8
head_cover
6
ByLayer
62
256
370
-1
100
AcDbCircle
10
1.50349999564
20
1.3875
40
0.1875
100
AcDbArc
50
90
51
180
0
ARC
5
CB
100
AcDbEntity
8
head_cover
6
ByLayer
62
256
370
-1
100
AcDbCircle
10
1.50349999564
20
1.3875
40
0.1875
100
AcDbArc
50
270
51
0
0
LINE
5
CC
100
AcDbEntity
8
head_cover
6
ByLayer
62
256
370
-1
100
AcDbLine
10
1.44099999564
20
1.3875
11
1.56599999564
21
1.3875
0
LINE
5
CD
100
AcDbEntity
8
head_cover
6
ByLayer
62
256
370
-1
100
AcDbLine
10
1.50349999564
20
1.325
11
1.50349999564
21
1.45
0
LINE
5
CE
100
AcDbEntity
8
head_cover
6
ByLayer
62
256
370
-1
100
AcDbLine
10
1.44099999564
20
2.075
11
1.56599999564
21
2.075
0
LINE
5
CF
100
AcDbEntity
8
head_cover
6
ByLayer
62
256
370
-1
100
AcDbLine
10
1.50349999564
20
2.0125
11
1.50349999564
21
2.1375
0
LINE
5
D0
100
AcDbEntity
8
head_cover
6
ByLayer
62
256
370
-1
100
AcDbLine
10
1.44099999564
20
2.7625
11
1.56599999564
21
2.7625
0
LINE
5
D1
100
AcDbEntity
8
head_cover
6
ByLayer
62
256
370
-1
100
AcDbLine
10
1.50349999564
20
2.7
11
1.50349999564
21
2.825
0
ARC
5
D2
100
AcDbEntity
8
head_cover
6
ByLayer
62
256
370
-1
100
AcDbCircle
10
-1.50350000436
20
2.5125
40
0.0625
100
AcDbArc
50
90
51
180
0
LINE
5
D3
100
AcDbEntity
8
head_cover
6
ByLayer
62
256
370
-1
100
AcDbLine
10
-1.56600000436
20
2.325
11
-1.56600000436
21
2.5125
0
ARC
5
D4
100
AcDbEntity
8
head_cover
6
ByLayer
62
256
370
-1
100
AcDbCircle
10
-1.50350000436
20
2.325
40
0.0625
100
AcDbArc
50
180
51
270
0
ARC
5
D5
100
AcDbEntity
8
head_cover
6
ByLayer
62
256
370
-1
100
AcDbCircle
10
-1.50350000436
20
1.825
40
0.0625
100
AcDbArc
50
90
51
180
0
LINE
5
D6
100
AcDbEntity
8
head_cover
6
ByLayer
62
256
370
-1
100
AcDbLine
10
-1.56600000436
20
1.6375
11
-1.56600000436
21
1.825
0
ARC
5
D7
100
AcDbEntity
8
head_cover
6
ByLayer
62
256
370
-1
100
AcDbCircle
10
-1.50350000436
20
1.6375
40
0.0625
100
AcDbArc
50
180
51
270
0
ARC
5
D8
100
AcDbEntity
8
head_cover
6
ByLayer
62
256
370
-1
100
AcDbCircle
10
-1.25350000436
20
1.3875
40
0.0625
100
AcDbArc
50
180
51
270
0
ARC
5
D9
100
AcDbEntity
8
head_cover
6
ByLayer
62
256
370
-1
100
AcDbCircle
10
-1.50350000436
20
2.7625
40
0.1875
100
AcDbArc
50
90
51
180
0
ARC
5
DA
100
AcDbEntity
8
head_cover
6
ByLayer
62
256
370
-1
100
AcDbCircle
10
-1.50350000436
20
2.7625
40
0.1875
100
AcDbArc
50
270
51
359.999999303
0
ARC
5
DB
100
AcDbEntity
8
head_cover
6
ByLayer
62
256
370
-1
100
AcDbCircle
10
-1.50350000436
20
1.3875
40
0.1875
100
AcDbArc
50
180
51
270
0
LINE
5
DC
100
AcDbEntity
8
head_cover
6
ByLayer
62
256
370
-1
100
AcDbLine
10
-1.69100000436
20
1.3875
11
-1.69100000436
21
2.7625
0
ARC
5
DD
100
AcDbEntity
8
head_cover
6
ByLayer
62
256
370
-1
100
AcDbCircle
10
-1.50350000436
20
2.075
40
0.1875
100
AcDbArc
50
269.999999014
51
90
0
ARC
5
DE
100
AcDbEntity
8
head_cover
6
ByLayer
62
256
370
-1
100
AcDbCircle
10
-1.50350000436
20
1.3875
40
0.1875
100
AcDbArc
50
0
51
90
0
LINE
5
DF
100
AcDbEntity
8
head_cover
6
ByLayer
62
256
370
-1
100
AcDbLine
10
-1.56600000436
20
1.3875
11
-1.44100000436
21
1.3875
0
LINE
5
E0
100
AcDbEntity
8
head_cover
6
ByLayer
62
256
370
-1
100
AcDbLine
10
-1.50350000436
20
1.325
11
-1.50350000436
21
1.45
0
LINE
5
E1
100
AcDbEntity
8
head_cover
6
ByLayer
62
256
370
-1
100
AcDbLine
10
-1.56600000436
20
2.7625
11
-1.44100000436
21
2.7625
0
LINE
5
E2
100
AcDbEntity
8
head_cover
6
ByLayer
62
256
370
-1
100
AcDbLine
10
-1.50350000436
20
2.7
11
-1.50350000436
21
2.825
0
LINE
5
E3
100
AcDbEntity
8
head_cover
6
ByLayer
62
256
370
-1
100
AcDbLine
10
-1.56600000436
20
2.075
11
-1.44100000436
21
2.075
0
LINE
5
E4
100
AcDbEntity
8
head_cover
6
ByLayer
62
256
370
-1
100
AcDbLine
10
-1.50350000436
20
2.0125
11
-1.50350000436
21
2.1375
0
ARC
5
E5
100
AcDbEntity
8
head_cover
6
ByLayer
62
256
370
-1
100
AcDbCircle
10
-1.25350000436
20
2.7625
40
0.0625
100
AcDbArc
50
90
51
180.001480372
0
LINE
5
E6
100
AcDbEntity
8
head_cover
6
ByLayer
62
256
370
-1
100
AcDbLine
10
-1.25349999603
20
2.825
11
-0.87500000436
21
2.825
0
LINE
5
E7
100
AcDbEntity
8
head_cover
6
ByLayer
62
256
370
-1
100
AcDbLine
10
-1.25349999603
20
1.325
11
-0.68750000436
21
1.325
0
LINE
5
E8
100
AcDbEntity
8
head_cover
6
ByLayer
62
256
370
-1
100
AcDbLine
10
-1.50349997575
20
2.95
11
1.50349990903
21
2.95
0
LINE
5
E9
100
AcDbEntity
8
head_cover
6
ByLayer
62
256
370
-1
100
AcDbLine
10
0.87499999564
20
2.825
11
1.25349992231
21
2.825
0
LINE
5
EA
100
AcDbEntity
8
head_cover
6
ByLayer
62
256
370
-1
100
AcDbLine
10
0.68749999564
20
1.325
11
1.25349995407
21
1.325
0
LINE
5
EB
100
AcDbEntity
8
head_cover
6
ByLayer
62
256
370
-1
100
AcDbLine
10
-1.50349997575
20
1.2
11
1.50349997575
21
1.2
0
LINE
5
EC
100
AcDbEntity
8
head_cover
6
ByLayer
62
256
370
-1
100
AcDbLine
10
-0.50000000436
20
2.7625
11
-0.37500000436
21
2.7625
0
LINE
5
ED
100
AcDbEntity
8
head_cover
6
ByLayer
62
256
370
-1
100
AcDbLine
10
-0.43750000436
20
2.7
11
-0.43750000436
21
2.825
0
LINE
5
EE
100
AcDbEntity
8
head_cover
6
ByLayer
62
256
370
-1
100
AcDbLine
10
0.37499999564
20
2.7625
11
0.49999999564
21
2.7625
0
LINE
5
EF
100
AcDbEntity
8
head_cover
6
ByLayer
62
256
370
-1
100
AcDbLine
10
0.43749999564
20
2.7
11
0.43749999564
21
2.825
0
LINE
5
F0
100
AcDbEntity
8
head_cover
6
ByLayer
62
256
370
-1
100
AcDbLine
10
-0.06250001668
20
3.8
11
0.06249998332
21
3.8
0
LINE
5
F1
100
AcDbEntity
8
head_cover
6
ByLayer
62
256
370
-1
100
AcDbLine
10
-1.66800003254e-08
20
3.7375
11
-1.66800003254e-08
21
3.8625
0
LINE
5
F2
100
AcDbEntity
8
head_cover
6
ByLayer
62
256
370
-1
100
AcDbLine
10
-0.50000001668
20
3.4875
11
-0.37500001668
21
3.4875
0
LINE
5
F3
100
AcDbEntity
8
head_cover
6
ByLayer
62
256
370
-1
100
AcDbLine
10
-0.43750001668
20
3.425
11
-0.43750001668
21
3.55
0
LINE
5
F4
100
AcDbEntity
8
head_cover
6
ByLayer
62
256
370
-1
100
AcDbLine
10
0.37499998332
20
3.4875
11
0.49999998332
21
3.4875
0
LINE
5
F5
100
AcDbEntity
8
head_cover
6
ByLayer
62
256
370
-1
100
AcDbLine
10
0.43749998332
20
3.425
11
0.43749998332
21
3.55
0
ARC
5
F6
100
AcDbEntity
8
head_cover
6
ByLayer
62
256
370
-1
100
AcDbCircle
10
-0.78125001668
20
4.9875
40
0.0625
100
AcDbArc
50
90
51
180
0
LINE
5
F7
100
AcDbEntity
8
head_cover
6
ByLayer
62
256
370
-1
100
AcDbLine
10
-0.78125001668
20
5.05
11
0.78124998332
21
5.05
0
ARC
5
F8
100
AcDbEntity
8
head_cover
6
ByLayer
62
256
370
-1
100
AcDbCircle
10
0.78124998332
20
4.9875
40
0.0625
100
AcDbArc
50
0
51
90
0
LINE
5
F9
100
AcDbEntity
8
head_cover
6
ByLayer
62
256
370
-1
100
AcDbLine
10
0.84374998332
20
4.6125
11
0.84374998332
21
4.9875
0
ARC
5
FA
100
AcDbEntity
8
head_cover
6
ByLayer
62
256
370
-1
100
AcDbCircle
10
0.78124998332
20
4.6125
40
0.0625
100
AcDbArc
50
270
51
0
0
LINE
5
FB
100
AcDbEntity
8
head_cover
6
ByLayer
62
256
370
-1
100
AcDbLine
10
-0.78125001668
20
4.55
11
0.78124998332
21
4.55
0
LINE
5
FC
100
AcDbEntity
8
head_cover
6
ByLayer
62
256
370
-1
100
AcDbLine
10
-0.84375001668
20
4.6125
11
-0.84375001668
21
4.9875
0
ARC
5
FD
100
AcDbEntity
8
head_cover
6
ByLayer
62
256
370
-1
100
AcDbCircle
10
-0.78125001668
20
4.6125
40
0.0625
100
AcDbArc
50
180
51
270
0
LINE
5
FE
100
AcDbEntity
8
head_cover
6
ByLayer
62
256
370
-1
100
AcDbLine
10
-0.78125001668
20
5.05
11
0.78124998332
21
5.05
0
LINE
5
FF
100
AcDbEntity
8
head_cover
6
ByLayer
62
256
370
-1
100
AcDbLine
10
-0.50000001668
20
4.8625
11
-0.37500001668
21
4.8625
0
LINE
5
100
100
AcDbEntity
8
head_cover
6
ByLayer
62
256
370
-1
100
AcDbLine
10
-0.43750001668
20
4.8
11
-0.43750001668
21
4.925
0
LINE
5
101
100
AcDbEntity
8
head_cover
6
ByLayer
62
256
370
-1
100
AcDbLine
10
0.37499998332
20
4.8625
11
0.49999998332
21
4.8625
0
LINE
5
102
100
AcDbEntity
8
head_cover
6
ByLayer
62
256
370
-1
100
AcDbLine
10
0.43749998332
20
4.8
11
0.43749998332
21
4.925
0
LINE
5
103
100
AcDbEntity
8
head_cover
6
ByLayer
62
256
370
-1
100
AcDbLine
10
-0.18750001668
20
4.05
11
-0.52500001668
21
3.796875
0
ARC
5
104
100
AcDbEntity
8
head_cover
6
ByLayer
62
256
370
-1
100
AcDbCircle
10
-0.37500001668
20
3.596875
40
0.25
100
AcDbArc
50
126.869897646
51
180
0
LINE
5
105
100
AcDbEntity
8
head_cover
6
ByLayer
62
256
370
-1
100
AcDbLine
10
0.18749998332
20
4.05
11
0.52499998332
21
3.796875
0
ARC
5
106
100
AcDbEntity
8
head_cover
6
ByLayer
62
256
370
-1
100
AcDbCircle
10
0.37499998332
20
3.596875
40
0.25
100
AcDbArc
50
0
51
53.1301023542
0
ARC
5
107
100
AcDbEntity
8
head_cover
6
ByLayer
62
256
370
-1
100
AcDbCircle
10
-1.66800003254e-08
20
3.8
40
0.3125
100
AcDbArc
50
53.1301023542
51
126.869897646
0
ARC
5
108
100
AcDbEntity
8
head_cover
6
ByLayer
62
256
370
-1
100
AcDbCircle
10
-0.43750001668
20
3.4875
40
0.1875
100
AcDbArc
50
180
51
270
0
ARC
5
109
100
AcDbEntity
8
head_cover
6
ByLayer
62
256
370
-1
100
AcDbCircle
10
0.43749998332
20
3.4875
40
0.1875
100
AcDbArc
50
270
51
0
0
LINE
5
10A
100
AcDbEntity
8
head_cover
6
ByLayer
62
256
370
-1
100
AcDbLine
10
-0.62500001668
20
3.4875
11
-0.62500001668
21
3.596875
0
LINE
5
10B
100
AcDbEntity
8
head_cover
6
ByLayer
62
256
370
-1
100
AcDbLine
10
0.62499998332
20
3.4875
11
0.62499998332
21
3.596875
0
LINE
5
10C
100
AcDbEntity
8
head_cover
6
ByLayer
62
256
370
-1
100
AcDbLine
10
-1.69100001668
20
3.4875
11
-1.69100001668
21
4.8625
0
LINE
5
10D
100
AcDbEntity
8
head_cover
6
ByLayer
62
256
370
-1
100
AcDbLine
10
1.69099998332
20
3.4875
11
1.69099998332
21
4.8625
0
ARC
5
10E
100
AcDbEntity
8
head_cover
6
ByLayer
62
256
370
-1
100
AcDbCircle
10
1.50349998332
20
4.8625
40
0.1875
100
AcDbArc
50
6.79e-14
51
90
0
ARC
5
10F
100
AcDbEntity
8
head_cover
6
ByLayer
62
256
370
-1
100
AcDbCircle
10
1.50349998332
20
3.4875
40
0.1875
100
AcDbArc
50
270
51
0
0
LINE
5
110
100
AcDbEntity
8
head_cover
6
ByLayer
62
256
370
-1
100
AcDbLine
10
1.44099998332
20
4.8625
11
1.56599998332
21
4.8625
0
LINE
5
111
100
AcDbEntity
8
head_cover
6
ByLayer
62
256
370
-1
100
AcDbLine
10
1.50349998332
20
4.8
11
1.50349998332
21
4.925
0
LINE
5
112
100
AcDbEntity
8
head_cover
6
ByLayer
62
256
370
-1
100
AcDbLine
10
1.44099998332
20
4.175
11
1.56599998332
21
4.175
0
LINE
5
113
100
AcDbEntity
8
head_cover
6
ByLayer
62
256
370
-1
100
AcDbLine
10
1.50349998332
20
4.1125
11
1.50349998332
21
4.2375
0
LINE
5
114
100
AcDbEntity
8
head_cover
6
ByLayer
62
256
370
-1
100
AcDbLine
10
1.44099998332
20
3.4875
11
1.56599998332
21
3.4875
0
LINE
5
115
100
AcDbEntity
8
head_cover
6
ByLayer
62
256
370
-1
100
AcDbLine
10
1.50349998332
20
3.425
11
1.50349998332
21
3.55
0
CIRCLE
5
116
100
AcDbEntity
8
head_cover
6
ByLayer
62
256
370
-1
100
AcDbCircle
10
1.50349998332
20
3.4875
40
0.1875
0
CIRCLE
5
117
100
AcDbEntity
8
head_cover
6
ByLayer
62
256
370
-1
100
AcDbCircle
10
1.50349998332
20
4.175
40
0.1875
0
CIRCLE
5
118
100
AcDbEntity
8
head_cover
6
ByLayer
62
256
370
-1
100
AcDbCircle
10
1.50349998332
20
4.8625
40
0.1875
0
ARC
5
119
100
AcDbEntity
8
head_cover
6
ByLayer
62
256
370
-1
100
AcDbCircle
10
-1.50350001668
20
4.8625
40
0.1875
100
AcDbArc
50
6.79e-14
51
90
0
ARC
5
11A
100
AcDbEntity
8
head_cover
6
ByLayer
62
256
370
-1
100
AcDbCircle
10
-1.50350001668
20
3.4875
40
0.1875
100
AcDbArc
50
270
51
0
0
LINE
5
11B
100
AcDbEntity
8
head_cover
6
ByLayer
62
256
370
-1
100
AcDbLine
10
-1.56600001668
20
4.8625
11
-1.44100001668
21
4.8625
0
LINE
5
11C
100
AcDbEntity
8
head_cover
6
ByLayer
62
256
370
-1
100
AcDbLine
10
-1.50350001668
20
4.8
11
-1.50350001668
21
4.925
0
LINE
5
11D
100
AcDbEntity
8
head_cover
6
ByLayer
62
256
370
-1
100
AcDbLine
10
-1.56600001668
20
4.175
11
-1.44100001668
21
4.175
0
LINE
5
11E
100
AcDbEntity
8
head_cover
6
ByLayer
62
256
370
-1
100
AcDbLine
10
-1.50350001668
20
4.1125
11
-1.50350001668
21
4.2375
0
LINE
5
11F
100
AcDbEntity
8
head_cover
6
ByLayer
62
256
370
-1
100
AcDbLine
10
-1.56600001668
20
3.4875
11
-1.44100001668
21
3.4875
0
LINE
5
120
100
AcDbEntity
8
head_cover
6
ByLayer
62
256
370
-1
100
AcDbLine
10
-1.50350001668
20
3.425
11
-1.50350001668
21
3.55
0
CIRCLE
5
121
100
AcDbEntity
8
head_cover
6
ByLayer
62
256
370
-1
100
AcDbCircle
10
-1.50350001668
20
3.4875
40
0.1875
0
CIRCLE
5
122
100
AcDbEntity
8
head_cover
6
ByLayer
62
256
370
-1
100
AcDbCircle
10
-1.50350001668
20
4.175
40
0.1875
0
CIRCLE
5
123
100
AcDbEntity
8
head_cover
6
ByLayer
62
256
370
-1
100
AcDbCircle
10
-1.50350001668
20
4.8625
40
0.1875
0
LINE
5
124
100
AcDbEntity
8
head_cover
6
ByLayer
62
256
370
-1
100
AcDbLine
10
-1.50349996341
20
5.05
11
-0.78125001668
21
5.05
0
LINE
5
125
100
AcDbEntity
8
head_cover
6
ByLayer
62
256
370
-1
100
AcDbLine
10
-1.50349996341
20
3.3
11
1.50349996341
21
3.3
0
LINE
5
126
100
AcDbEntity
8
head_cover
6
ByLayer
62
256
370
-1
100
AcDbLine
10
0.78124998332
20
5.05
11
1.50349993631
21
5.05
0
LINE
5
127
100
AcDbEntity
8
head
6
ByLayer
62
256
370
-1
100
AcDbLine
10
-0.6875
20
1.11022302463e-16
11
-0.6875
21
-4
0
LINE
5
128
100
AcDbEntity
8
head
6
ByLayer
62
256
370
-1
100
AcDbLine
10
0.6875
20
1.11022302463e-16
11
0.6875
21
-4
0
LINE
5
129
100
AcDbEntity
8
head
6
ByLayer
62
256
370
-1
100
AcDbLine
10
-1.25
20
-2.8125
11
-0.125
21
-2.8125
0
LINE
5
12A
100
AcDbEntity
8
head
6
ByLayer
62
256
370
-1
100
AcDbLine
10
0.125
20
-2.8125
11
1.25
21
-2.8125
0
LINE
5
12B
100
AcDbEntity
8
head
6
ByLayer
62
256
370
-1
100
AcDbLine
10
1.25
20
-2.8125
11
1.25
21
-3
0
LINE
5
12C
100
AcDbEntity
8
head
6
ByLayer
62
256
370
-1
100
AcDbLine
10
0.125
20
-2.8125
11
0.125
21
-3
0
LINE
5
12D
100
AcDbEntity
8
head
6
ByLayer
62
256
370
-1
100
AcDbLine
10
-0.125
20
-2.8125
11
-0.125
21
-3
0
LINE
5
12E
100
AcDbEntity
8
head
6
ByLayer
62
256
370
-1
100
AcDbLine
10
-1.25
20
-2.8125
11
-1.25
21
-3
0
LINE
5
12F
100
AcDbEntity
8
head
6
ByLayer
62
256
370
-1
100
AcDbLine
10
1.69100001232
20
-2.125
11
1.69100001232
21
-3
0
LINE
5
130
100
AcDbEntity
8
head
6
ByLayer
62
256
370
-1
100
AcDbLine
10
-1.69099998768
20
-2.125
11
-1.69099998768
21
-3
0
LINE
5
131
100
AcDbEntity
8
head
6
ByLayer
62
256
370
-1
100
AcDbLine
10
-1.69099998768
20
-2.125
11
1.69100001232
21
-2.125
0
LINE
5
132
100
AcDbEntity
8
head
6
ByLayer
62
256
370
-1
100
AcDbLine
10
-1.69099998768
20
-3
11
1.69100001232
21
-3
0
LINE
5
133
100
AcDbEntity
8
head
6
ByLayer
62
256
370
-1
100
AcDbLine
10
-1.69099998768
20
-2.1875
11
-1.75349998768
21
-2.1875
0
LINE
5
134
100
AcDbEntity
8
head
6
ByLayer
62
256
370
-1
100
AcDbLine
10
-1.69099998768
20
-2.8125
11
-1.75349998768
21
-2.8125
0
LINE
5
135
100
AcDbEntity
8
head
6
ByLayer
62
256
370
-1
100
AcDbLine
10
1.69100001232
20
-2.1875
11
1.75350001232
21
-2.1875
0
LINE
5
136
100
AcDbEntity
8
head
6
ByLayer
62
256
370
-1
100
AcDbLine
10
1.69100001232
20
-2.8125
11
1.75350001232
21
-2.8125
0
LINE
5
137
100
AcDbEntity
8
head
6
ByLayer
62
256
370
-1
100
AcDbLine
10
-1.94099998768
20
-2.5
11
1.94100001232
21
-2.5
0
LINE
5
138
100
AcDbEntity
8
head
6
ByLayer
62
256
370
-1
100
AcDbLine
10
-1.75349998768
20
-2.1875
11
-1.75349998768
21
-2.8125
0
LINE
5
139
100
AcDbEntity
8
head
6
ByLayer
62
256
370
-1
100
AcDbLine
10
1.75350001232
20
-2.1875
11
1.75350001232
21
-2.8125
0
LINE
5
13A
100
AcDbEntity
8
head
6
ByLayer
62
256
370
-1
100
AcDbLine
10
-1.69099998768
20
-2.3125
11
-0.9375
21
-2.3125
0
LINE
5
13B
100
AcDbEntity
8
head
6
ByLayer
62
256
370
-1
100
AcDbLine
10
-0.75
20
-2.5
11
-0.75
21
-2.8125
0
ARC
5
13C
100
AcDbEntity
8
head
6
ByLayer
62
256
370
-1
100
AcDbCircle
10
-0.9375
20
-2.5
40
0.1875
100
AcDbArc
50
0
51
90
0
LINE
5
13D
100
AcDbEntity
8
head
6
ByLayer
62
256
370
-1
100
AcDbLine
10
0.9375
20
-2.3125
11
1.69100001232
21
-2.3125
0
LINE
5
13E
100
AcDbEntity
8
head
6
ByLayer
62
256
370
-1
100
AcDbLine
10
0.75
20
-2.5
11
0.75
21
-2.8125
0
ARC
5
13F
100
AcDbEntity
8
head
6
ByLayer
62
256
370
-1
100
AcDbCircle
10
0.9375
20
-2.5
40
0.1875
100
AcDbArc
50
90
51
180
0
LINE
5
140
100
AcDbEntity
8
head
6
ByLayer
62
256
370
-1
100
AcDbLine
10
-1.69099998768
20
-2.6875
11
-1.1875
21
-2.6875
0
LINE
5
141
100
AcDbEntity
8
head
6
ByLayer
62
256
370
-1
100
AcDbLine
10
-1.125
20
-2.75
11
-1.125
21
-2.8125
0
ARC
5
142
100
AcDbEntity
8
head
6
ByLayer
62
256
370
-1
100
AcDbCircle
10
-1.1875
20
-2.75
40
0.0625
100
AcDbArc
50
0
51
90
0
LINE
5
143
100
AcDbEntity
8
head
6
ByLayer
62
256
370
-1
100
AcDbLine
10
1.125
20
-2.75
11
1.125
21
-2.8125
0
LINE
5
144
100
AcDbEntity
8
head
6
ByLayer
62
256
370
-1
100
AcDbLine
10
1.1875
20
-2.6875
11
1.69100001232
21
-2.6875
0
ARC
5
145
100
AcDbEntity
8
head
6
ByLayer
62
256
370
-1
100
AcDbCircle
10
1.1875
20
-2.75
40
0.0625
100
AcDbArc
50
90
51
180
0
LINE
5
146
100
AcDbEntity
8
head_wall_outer
6
ByLayer
62
256
370
-1
100
AcDbLine
10
1.69100001232
20
-0.6875
11
1.69100001232
21
0.6875
0
ARC
5
147
100
AcDbEntity
8
head_wall_outer
6
ByLayer
62
256
370
-1
100
AcDbCircle
10
1.50350001232
20
0.6875
40
0.1875
100
AcDbArc
50
6.79e-14
51
90
0
ARC
5
148
100
AcDbEntity
8
head_wall_outer
6
ByLayer
62
256
370
-1
100
AcDbCircle
10
1.50350001232
20
-0.6875
40
0.1875
100
AcDbArc
50
270
51
0
0
ARC
5
149
100
AcDbEntity
8
head_wall_outer
6
ByLayer
62
256
370
-1
100
AcDbCircle
10
-1.50349998768
20
0.6875
40
0.1875
100
AcDbArc
50
90
51
180
0
ARC
5
14A
100
AcDbEntity
8
head_wall_outer
6
ByLayer
62
256
370
-1
100
AcDbCircle
10
-1.50349998768
20
-0.6875
40
0.1875
100
AcDbArc
50
180
51
270
0
LINE
5
14B
100
AcDbEntity
8
head_wall_outer
6
ByLayer
62
256
370
-1
100
AcDbLine
10
-1.69099998768
20
-0.6875
11
-1.69099998768
21
0.6875
0
LINE
5
14C
100
AcDbEntity
8
head_wall_outer
6
ByLayer
62
256
370
-1
100
AcDbLine
10
-1.50349995907
20
0.875
11
1.50349992571
21
0.875
0
LINE
5
14D
100
AcDbEntity
8
head_wall_outer
6
ByLayer
62
256
370
-1
100
AcDbLine
10
-1.50349995907
20
-0.875
11
1.50349999243
21
-0.875
0
ARC
5
14E
100
AcDbEntity
8
head_wall_inner
6
ByLayer
62
256
370
-1
100
AcDbCircle
10
-0.68749998768
20
-0.6875
40
0.0625
100
AcDbArc
50
270
51
2.54e-14
0
ARC
5
14F
100
AcDbEntity
8
head_wall_inner
6
ByLayer
62
256
370
-1
100
AcDbCircle
10
-0.18749998768
20
-0.6875
40
0.0625
100
AcDbArc
50
180
51
270
0
LINE
5
150
100
AcDbEntity
8
head_wall_inner
6
ByLayer
62
256
370
-1
100
AcDbLine
10
-0.18749998768
20
-0.75
11
0.18750001232
21
-0.75
0
ARC
5
151
100
AcDbEntity
8
head_wall_inner
6
ByLayer
62
256
370
-1
100
AcDbCircle
10
0.18750001232
20
-0.6875
40
0.0625
100
AcDbArc
50
270
51
2.54e-14
0
ARC
5
152
100
AcDbEntity
8
head_wall_inner
6
ByLayer
62
256
370
-1
100
AcDbCircle
10
0.68750001232
20
-0.6875
40
0.0625
100
AcDbArc
50
180
51
270
0
ARC
5
153
100
AcDbEntity
8
head_wall_inner
6
ByLayer
62
256
370
-1
100
AcDbCircle
10
0.43750001232
20
-0.6875
40
0.1875
100
AcDbArc
50
0
51
180
0
ARC
5
154
100
AcDbEntity
8
head_wall_inner
6
ByLayer
62
256
370
-1
100
AcDbCircle
10
-0.43749998768
20
-0.6875
40
0.1875
100
AcDbArc
50
0
51
180
0
ARC
5
155
100
AcDbEntity
8
head_wall_inner
6
ByLayer
62
256
370
-1
100
AcDbCircle
10
1.25350001232
20
-0.6875
40
0.0625
100
AcDbArc
50
270
51
2.54e-14
0
ARC
5
156
100
AcDbEntity
8
head_wall_inner
6
ByLayer
62
256
370
-1
100
AcDbCircle
10
1.50350001232
20
-0.4375
40
0.0625
100
AcDbArc
50
270
51
0
0
LINE
5
157
100
AcDbEntity
8
head_wall_inner
6
ByLayer
62
256
370
-1
100
AcDbLine
10
1.56600001232
20
-0.4375
11
1.56600001232
21
-0.25
0
ARC
5
158
100
AcDbEntity
8
head_wall_inner
6
ByLayer
62
256
370
-1
100
AcDbCircle
10
1.50350001232
20
-0.25
40
0.0625
100
AcDbArc
50
0
51
90
0
ARC
5
159
100
AcDbEntity
8
head_wall_inner
6
ByLayer
62
256
370
-1
100
AcDbCircle
10
1.50350001232
20
0.25
40
0.0625
100
AcDbArc
50
270
51
0
0
LINE
5
15A
100
AcDbEntity
8
head_wall_inner
6
ByLayer
62
256
370
-1
100
AcDbLine
10
1.56600001232
20
0.25
11
1.56600001232
21
0.4375
0
ARC
5
15B
100
AcDbEntity
8
head_wall_inner
6
ByLayer
62
256
370
-1
100
AcDbCircle
10
1.50350001232
20
0.4375
40
0.0625
100
AcDbArc
50
0
51
90
0
ARC
5
15C
100
AcDbEntity
8
head_wall_inner
6
ByLayer
62
256
370
-1
100
AcDbCircle
10
1.25350001232
20
0.6875
40
0.0625
100
AcDbArc
50
0
51
90
0
ARC
5
15D
100
AcDbEntity
8
head_wall_inner
6
ByLayer
62
256
370
-1
100
AcDbCircle
10
1.50350001232
20
0.6875
40
0.1875
100
AcDbArc
50
180
51
270
0
ARC
5
15E
100
AcDbEntity
8
head_wall_inner
6
ByLayer
62
256
370
-1
100
AcDbCircle
10
1.50350001232
20
0
40
0.1875
100
AcDbArc
50
90
51
270
0
ARC
5
15F
100
AcDbEntity
8
head_wall_inner
6
ByLayer
62
256
370
-1
100
AcDbCircle
10
1.50350001232
20
-0.6875
40
0.1875
100
AcDbArc
50
90
51
180
0
ARC
5
160
100
AcDbEntity
8
head_wall_inner
6
ByLayer
62
256
370
-1
100
AcDbCircle
10
-1.50349998768
20
0.4375
40
0.0625
100
AcDbArc
50
90
51
180
0
LINE
5
161
100
AcDbEntity
8
head_wall_inner
6
ByLayer
62
256
370
-1
100
AcDbLine
10
-1.56599998768
20
0.25
11
-1.56599998768
21
0.4375
0
ARC
5
162
100
AcDbEntity
8
head_wall_inner
6
ByLayer
62
256
370
-1
100
AcDbCircle
10
-1.50349998768
20
0.25
40
0.0625
100
AcDbArc
50
180
51
270
0
ARC
5
163
100
AcDbEntity
8
head_wall_inner
6
ByLayer
62
256
370
-1
100
AcDbCircle
10
-1.50349998768
20
-0.25
40
0.0625
100
AcDbArc
50
90
51
180
0
LINE
5
164
100
AcDbEntity
8
head_wall_inner
6
ByLayer
62
256
370
-1
100
AcDbLine
10
-1.56599998768
20
-0.4375
11
-1.56599998768
21
-0.25
0
ARC
5
165
100
AcDbEntity
8
head_wall_inner
6
ByLayer
62
256
370
-1
100
AcDbCircle
10
-1.50349998768
20
-0.4375
40
0.0625
100
AcDbArc
50
180
51
270
0
ARC
5
166
100
AcDbEntity
8
head_wall_inner
6
ByLayer
62
256
370
-1
100
AcDbCircle
10
-1.25349998768
20
-0.6875
40
0.0625
100
AcDbArc
50
180
51
270
0
ARC
5
167
100
AcDbEntity
8
head_wall_inner
6
ByLayer
62
256
370
-1
100
AcDbCircle
10
-1.50349998768
20
0.6875
40
0.1875
100
AcDbArc
50
270
51
359.999999303
0
ARC
5
168
100
AcDbEntity
8
head_wall_inner
6
ByLayer
62
256
370
-1
100
AcDbCircle
10
-1.50349998768
20
0
40
0.1875
100
AcDbArc
50
269.999999014
51
90
0
ARC
5
169
100
AcDbEntity
8
head_wall_inner
6
ByLayer
62
256
370
-1
100
AcDbCircle
10
-1.50349998768
20
-0.6875
40
0.1875
100
AcDbArc
50
0
51
90
0
ARC
5
16A
100
AcDbEntity
8
head_wall_inner
6
ByLayer
62
256
370
-1
100
AcDbCircle
10
-1.25349998768
20
0.6875
40
0.0625
100
AcDbArc
50
90
51
180.001480372
0
LINE
5
16B
100
AcDbEntity
8
head_wall_inner
6
ByLayer
62
256
370
-1
100
AcDbLine
10
-1.25349997935
20
-0.75
11
-0.68749998768
21
-0.75
0
LINE
5
16C
100
AcDbEntity
8
head_wall_inner
6
ByLayer
62
256
370
-1
100
AcDbLine
10
0.68750001232
20
-0.75
11
1.25349997075
21
-0.75
0
ARC
5
16D
100
AcDbEntity
8
head_wall_inner
6
ByLayer
62
256
370
-1
100
AcDbCircle
10
-0.68749998768
20
0.6875
40
0.0625
100
AcDbArc
50
360
51
90
0
ARC
5
16E
100
AcDbEntity
8
head_wall_inner
6
ByLayer
62
256
370
-1
100
AcDbCircle
10
-0.18749998768
20
0.6875
40
0.0625
100
AcDbArc
50
90
51
180
0
LINE
5
16F
100
AcDbEntity
8
head_wall_inner
6
ByLayer
62
256
370
-1
100
AcDbLine
10
-0.18749998768
20
0.75
11
0.18750001232
21
0.75
0
ARC
5
170
100
AcDbEntity
8
head_wall_inner
6
ByLayer
62
256
370
-1
100
AcDbCircle
10
0.18750001232
20
0.6875
40
0.0625
100
AcDbArc
50
360
51
90
0
ARC
5
171
100
AcDbEntity
8
head_wall_inner
6
ByLayer
62
256
370
-1
100
AcDbCircle
10
0.68750001232
20
0.6875
40
0.0625
100
AcDbArc
50
90
51
180
0
ARC
5
172
100
AcDbEntity
8
head_wall_inner
6
ByLayer
62
256
370
-1
100
AcDbCircle
10
0.43750001232
20
0.6875
40
0.1875
100
AcDbArc
50
180
51
0
0
ARC
5
173
100
AcDbEntity
8
head_wall_inner
6
ByLayer
62
256
370
-1
100
AcDbCircle
10
-0.43749998768
20
0.6875
40
0.1875
100
AcDbArc
50
180
51
0
0
LINE
5
174
100
AcDbEntity
8
head_wall_inner
6
ByLayer
62
256
370
-1
100
AcDbLine
10
-1.25349997935
20
0.75
11
-0.68749998768
21
0.75
0
LINE
5
175
100
AcDbEntity
8
head_wall_inner
6
ByLayer
62
256
370
-1
100
AcDbLine
10
0.68750001232
20
0.75
11
1.25349997075
21
0.75
0
CIRCLE
5
176
100
AcDbEntity
8
head_wall_holes
6
ByLayer
62
256
370
-1
100
AcDbCircle
10
-1.50349998768
20
0.6875
40
0.0625
0
CIRCLE
5
177
100
AcDbEntity
8
head_wall_holes
6
ByLayer
62
256
370
-1
100
AcDbCircle
10
-0.43749998768
20
0.6875
40
0.0625
0
CIRCLE
5
178
100
AcDbEntity
8
head_wall_holes
6
ByLayer
62
256
370
-1
100
AcDbCircle
10
0.43750001232
20
0.6875
40
0.0625
0
CIRCLE
5
179
100
AcDbEntity
8
head_wall_holes
6
ByLayer
62
256
370
-1
100
AcDbCircle
10
1.50350001232
20
0.6875
40
0.0625
0
CIRCLE
5
17A
100
AcDbEntity
8
head_wall_holes
6
ByLayer
62
256
370
-1
100
AcDbCircle
10
1.50350001232
20
0
40
0.0625
0
CIRCLE
5
17B
100
AcDbEntity
8
head_wall_holes
6
ByLayer
62
256
370
-1
100
AcDbCircle
10
1.50350001232
20
-0.6875
40
0.0625
0
CIRCLE
5
17C
100
AcDbEntity
8
head_wall_holes
6
ByLayer
62
256
370
-1
100
AcDbCircle
10
0.43750001232
20
-0.6875
40
0.0625
0
CIRCLE
5
17D
100
AcDbEntity
8
head_wall_holes
6
ByLayer
62
256
370
-1
100
AcDbCircle
10
-0.43749998768
20
-0.6875
40
0.0625
0
CIRCLE
5
17E
100
AcDbEntity
8
head_wall_holes
6
ByLayer
62
256
370
-1
100
AcDbCircle
10
-1.50349998768
20
-0.6875
40
0.0625
0
CIRCLE
5
17F
100
AcDbEntity
8
head_wall_holes
6
ByLayer
62
256
370
-1
100
AcDbCircle
10
-1.50349998768
20
0
40
0.0625
0
CIRCLE
5
180
100
AcDbEntity
8
valve_holes
6
ByLayer
62
256
370
-1
100
AcDbCircle
10
-0.9375
20
0.125
40
0.125
0
CIRCLE
5
181
100
AcDbEntity
8
valve_holes
6
ByLayer
62
256
370
-1
100
AcDbCircle
10
-0.4375
20
0.125
40
0.125
0
CIRCLE
5
182
100
AcDbEntity
8
valve_holes
6
ByLayer
62
256
370
-1
100
AcDbCircle
10
0.4375
20
0.125
40
0.125
0
CIRCLE
5
183
100
AcDbEntity
8
valve_holes
6
ByLayer
62
256
370
-1
100
AcDbCircle
10
0.9375
20
0.125
40
0.125
0
LINE
5
184
100
AcDbEntity
8
head
6
ByLayer
62
256
370
-1
100
AcDbLine
10
2.1
20
0.875
11
2.975
21
0.875
0
LINE
5
185
100
AcDbEntity
8
head
6
ByLayer
62
256
370
-1
100
AcDbLine
10
2.1
20
-0.875
11
2.975
21
-0.875
0
LINE
5
186
100
AcDbEntity
8
head
6
ByLayer
62
256
370
-1
100
AcDbLine
10
2.1
20
-0.875
11
2.1
21
0.875
0
LINE
5
187
100
AcDbEntity
8
head
6
ByLayer
62
256
370
-1
100
AcDbLine
10
2.975
20
-0.875
11
2.975
21
0.875
0
LINE
5
188
100
AcDbEntity
8
head
6
ByLayer
62
256
370
-1
100
AcDbLine
10
2.475
20
-0.875
11
2.475
21
0.875
0
CIRCLE
5
189
100
AcDbEntity
8
head
6
ByLayer
62
256
370
-1
100
AcDbCircle
10
2.475
20
0.3125
40
0.1875
0
CIRCLE
5
18A
100
AcDbEntity
8
head
6
ByLayer
62
256
370
-1
100
AcDbCircle
10
2.475
20
0.71875
40
0.0625
0
CIRCLE
5
18B
100
AcDbEntity
8
head
6
ByLayer
62
256
370
-1
100
AcDbCircle
10
2.475
20
-0.09375
40
0.0625
0
LINE
5
18C
100
AcDbEntity
8
head
6
ByLayer
62
256
370
-1
100
AcDbLine
10
2.4125
20
-0.09375
11
2.5375
21
-0.09375
0
LINE
5
18D
100
AcDbEntity
8
head
6
ByLayer
62
256
370
-1
100
AcDbLine
10
2.475
20
-0.15625
11
2.475
21
-0.03125
0
LINE
5
18E
100
AcDbEntity
8
head
6
ByLayer
62
256
370
-1
100
AcDbLine
10
2.4125
20
0.3125
11
2.5375
21
0.3125
0
LINE
5
18F
100
AcDbEntity
8
head
6
ByLayer
62
256
370
-1
100
AcDbLine
10
2.475
20
0.25
11
2.475
21
0.375
0
LINE
5
190
100
AcDbEntity
8
head
6
ByLayer
62
256
370
-1
100
AcDbLine
10
2.4125
20
0.71875
11
2.5375
21
0.71875
0
LINE
5
191
100
AcDbEntity
8
head
6
ByLayer
62
256
370
-1
100
AcDbLine
10
2.475
20
0.65625
11
2.475
21
0.78125
0
LINE
5
192
100
AcDbEntity
8
head
6
ByLayer
62
256
370
-1
100
AcDbLine
10
0.9375
20
0.125
11
1.69100001232
21
0.312499974243
0
LINE
5
193
100
AcDbEntity
8
head
6
ByLayer
62
256
370
-1
100
AcDbLine
10
0.907315643803
20
0.246300884749
11
1.66081565612
21
0.433800858992
0
LINE
5
194
100
AcDbEntity
8
head
6
ByLayer
62
256
370
-1
100
AcDbLine
10
0.967684356197
20
0.00369911525061
11
1.72118436852
21
0.191199089494
0
LINE
5
195
100
AcDbEntity
8
head
6
ByLayer
62
256
370
-1
100
AcDbLine
10
7.1592377728e-16
20
-1
11
8.38388457195e-16
21
1
0
LINE
5
196
100
AcDbEntity
8
head
6
ByLayer
62
256
370
-1
100
AcDbLine
10
0.4375
20
0.125
11
8.307344147e-16
21
0.875
0
LINE
5
197
100
AcDbEntity
8
head
6
ByLayer
62
256
370
-1
100
AcDbLine
10
0.329527637388
20
0.0620161218095
11
-0.107972362612
21
0.812016121809
0
LINE
5
198
100
AcDbEntity
8
head
6
ByLayer
62
256
370
-1
100
AcDbLine
10
0.545472362612
20
0.187983878191
11
0.107972362612
21
0.937983878191
0
CIRCLE
5
199
100
AcDbEntity
8
head
6
ByLayer
62
256
370
-1
100
AcDbCircle
10
0.9375
20
0.125
40
0.28125
0
CIRCLE
5
19A
100
AcDbEntity
8
head
6
ByLayer
62
256
370
-1
100
AcDbCircle
10
0.4375
20
0.125
40
0.28125
0
LINE
5
19B
100
AcDbEntity
8
head
6
ByLayer
62
256
370
-1
100
AcDbLine
10
0.869585198557
20
0.397926990686
11
1.62308521088
21
0.585426964929
0
LINE
5
19C
100
AcDbEntity
8
head
6
ByLayer
62
256
370
-1
100
AcDbLine
10
1.00541480144
20
-0.147926990686
11
1.75891481376
21
0.0395729835569
0
LINE
5
19D
100
AcDbEntity
8
head
6
ByLayer
62
256
370
-1
100
AcDbLine
10
0.680437815878
20
0.266713725929
11
0.242937815878
21
1.01671372593
0
LINE
5
19E
100
AcDbEntity
8
head
6
ByLayer
62
256
370
-1
100
AcDbLine
10
0.194562184122
20
-0.0167137259286
11
-0.242937815878
21
0.733286274071
0
LINE
5
19F
100
AcDbEntity
8
manifolds
6
ByLayer
62
256
370
-1
100
AcDbLine
10
1.00541480144
20
-0.147926990686
11
1.69100001232
21
0.0226731516882
0
ARC
5
1A0
100
AcDbEntity
8
manifolds
6
ByLayer
62
256
370
-1
100
AcDbCircle
10
0.6875
20
-0.195217211436
40
0.125
100
AcDbArc
50
52.0201275551
51
127.979872445
0
ARC
5
1A1
100
AcDbEntity
8
manifolds
6
ByLayer
62
256
370
-1
100
AcDbCircle
10
0.4375
20
0.125
40
0.28125
100
AcDbArc
50
210.256437164
51
307.979872445
0
ARC
5
1A2
100
AcDbEntity
8
manifolds
6
ByLayer
62
256
370
-1
100
AcDbCircle
10
0.9375
20
0.125
40
0.28125
100
AcDbArc
50
232.020127555
51
283.973603532
0
LINE
5
1A3
100
AcDbEntity
8
manifolds
6
ByLayer
62
256
370
-1
100
AcDbLine
10
-1.00541480144
20
-0.147926990686
11
-1.69100001232
21
0.0226731516882
0
ARC
5
1A4
100
AcDbEntity
8
manifolds
6
ByLayer
62
256
370
-1
100
AcDbCircle
10
-0.6875
20
-0.195217211436
40
0.125
100
AcDbArc
50
52.0201275551
51
127.979872445
0
ARC
5
1A5
100
AcDbEntity
8
manifolds
6
ByLayer
62
256
370
-1
100
AcDbCircle
10
-0.4375
20
0.125
40
0.28125
100
AcDbArc
50
232.020127555
51
329.743562836
0
ARC
5
1A6
100
AcDbEntity
8
manifolds
6
ByLayer
62
256
370
-1
100
AcDbCircle
10
-0.9375
20
0.125
40
0.28125
100
AcDbArc
50
256.026396468
51
307.979872445
0
LINE
5
1A7
100
AcDbEntity
8
manifolds
6
ByLayer
62
256
370
-1
100
AcDbLine
10
-0.194562184122
20
-0.0167137259286
11
-0.161958543918
21
0.0391782287065
0
LINE
5
1A8
100
AcDbEntity
8
manifolds
6
ByLayer
62
256
370
-1
100
AcDbLine
10
0.194562184122
20
-0.0167137259286
11
0.161958543918
21
0.0391782287065
0
ARC
5
1A9
100
AcDbEntity
8
manifolds
6
ByLayer
62
256
370
-1
100
AcDbCircle
10
1.17961196366e-16
20
-0.0552975885792
40
0.1875
100
AcDbArc
50
30.2564371635
51
149.743562836
0
LINE
5
1AA
100
AcDbEntity
8
manifolds
6
ByLayer
62
256
370
-1
100
AcDbLine
10
-0.773981835973
20
0.374137172864
11
-1.69100001232
21
0.602326796798
0
LINE
5
1AB
100
AcDbEntity
8
manifolds
6
ByLayer
62
256
370
-1
100
AcDbLine
10
-0.56674675776
20
0.461612682702
11
-0.325604156003
21
0.875
0
ARC
5
1AC
100
AcDbEntity
8
manifolds
6
ByLayer
62
256
370
-1
100
AcDbCircle
10
-0.728705301678
20
0.556088499988
40
0.1875
100
AcDbArc
50
256.026396468
51
329.743562836
0
LINE
5
1AD
100
AcDbEntity
8
manifolds
6
ByLayer
62
256
370
-1
100
AcDbLine
10
0.56674675776
20
0.461612682702
11
0.325604156003
21
0.875
0
LINE
5
1AE
100
AcDbEntity
8
manifolds
6
ByLayer
62
256
370
-1
100
AcDbLine
10
0.773981835973
20
0.374137172864
11
1.69100001232
21
0.602326796798
0
ARC
5
1AF
100
AcDbEntity
8
manifolds
6
ByLayer
62
256
370
-1
100
AcDbCircle
10
0.728705301678
20
0.556088499988
40
0.1875
100
AcDbArc
50
210.256437164
51
283.973603532
0
LINE
5
1B0
100
AcDbEntity
8
manifolds
6
ByLayer
62
256
370
-1
100
AcDbLine
10
-1.69100001232
20
0.602326796798
11
-1.69100001232
21
0.0226731516882
0
LINE
5
1B1
100
AcDbEntity
8
manifolds
6
ByLayer
62
256
370
-1
100
AcDbLine
10
-0.325604156003
20
0.875
11
0.325604156003
21
0.875
0
LINE
5
1B2
100
AcDbEntity
8
manifolds
6
ByLayer
62
256
370
-1
100
AcDbLine
10
1.69100001232
20
0.602326796798
11
1.69100001232
21
0.0226731516882
0
LINE
5
1B3
100
AcDbEntity
8
head
6
ByLayer
62
256
370
-1
100
AcDbLine
10
3.74423076923
20
-0.153846153846
11
3.88846153846
21
0.192307692308
0
LINE
5
1B4
100
AcDbEntity
8
head
6
ByLayer
62
256
370
-1
100
AcDbLine
10
3.88846153846
20
0.432692307692
11
3.74423076923
21
0.778846153846
0
ARC
5
1B5
100
AcDbEntity
8
head
6
ByLayer
62
256
370
-1
100
AcDbCircle
10
3.6
20
0.3125
40
0.3125
100
AcDbArc
50
337.380133172
51
22.6198683384
0
LINE
5
1B6
100
AcDbEntity
8
head
6
ByLayer
62
256
370
-1
100
AcDbLine
10
3.6
20
0.25
11
3.6
21
0.375
0
LINE
5
1B7
100
AcDbEntity
8
head
6
ByLayer
62
256
370
-1
100
AcDbLine
10
3.6
20
-1.6875
11
3.6
21
2.3125
0
ARC
5
1B8
100
AcDbEntity
8
head
6
ByLayer
62
256
370
-1
100
AcDbCircle
10
3.6
20
0.71875
40
0.15625
100
AcDbArc
50
22.6198702878
51
90
0
ARC
5
1B9
100
AcDbEntity
8
head
6
ByLayer
62
256
370
-1
100
AcDbCircle
10
3.6
20
-0.09375
40
0.15625
100
AcDbArc
50
270
51
337.380138516
0
LINE
5
1BA
100
AcDbEntity
8
head
6
ByLayer
62
256
370
-1
100
AcDbLine
10
3.475
20
-1.6875
11
3.475
21
2.3125
0
LINE
5
1BB
100
AcDbEntity
8
head
6
ByLayer
62
256
370
-1
100
AcDbLine
10
3.33076923077
20
-0.153846153846
11
3.18653846154
21
0.192307692308
0
LINE
5
1BC
100
AcDbEntity
8
head
6
ByLayer
62
256
370
-1
100
AcDbLine
10
3.18653846154
20
0.432692307692
11
3.33076923077
21
0.778846153846
0
ARC
5
1BD
100
AcDbEntity
8
head
6
ByLayer
62
256
370
-1
100
AcDbCircle
10
3.475
20
0.3125
40
0.3125
100
AcDbArc
50
157.380138442
51
202.619868026
0
ARC
5
1BE
100
AcDbEntity
8
head
6
ByLayer
62
256
370
-1
100
AcDbCircle
10
3.475
20
0.71875
40
0.15625
100
AcDbArc
50
90
51
157.380129712
0
ARC
5
1BF
100
AcDbEntity
8
head
6
ByLayer
62
256
370
-1
100
AcDbCircle
10
3.475
20
-0.09375
40
0.15625
100
AcDbArc
50
202.619860122
51
270
0
LINE
5
1C0
100
AcDbEntity
8
head
6
ByLayer
62
256
370
-1
100
AcDbLine
10
3.475
20
0.875
11
3.6
21
0.875
0
LINE
5
1C1
100
AcDbEntity
8
head
6
ByLayer
62
256
370
-1
100
AcDbLine
10
3.475
20
-0.25
11
3.6
21
-0.25
0
LINE
5
1C2
100
AcDbEntity
8
head
6
ByLayer
62
256
370
-1
100
AcDbLine
10
2.4125
20
-0.09375
11
2.5375
21
-0.09375
0
LINE
5
1C3
100
AcDbEntity
8
head
6
ByLayer
62
256
370
-1
100
AcDbLine
10
2.475
20
-0.15625
11
2.475
21
-0.03125
0
LINE
5
1C4
100
AcDbEntity
8
head
6
ByLayer
62
256
370
-1
100
AcDbLine
10
2.4125
20
0.3125
11
2.5375
21
0.3125
0
LINE
5
1C5
100
AcDbEntity
8
head
6
ByLayer
62
256
370
-1
100
AcDbLine
10
2.475
20
0.25
11
2.475
21
0.375
0
LINE
5
1C6
100
AcDbEntity
8
head
6
ByLayer
62
256
370
-1
100
AcDbLine
10
2.4125
20
0.71875
11
2.5375
21
0.71875
0
LINE
5
1C7
100
AcDbEntity
8
head
6
ByLayer
62
256
370
-1
100
AcDbLine
10
2.475
20
0.65625
11
2.475
21
0.78125
0
LINE
5
1C8
100
AcDbEntity
8
head
6
ByLayer
62
256
370
-1
100
AcDbLine
10
2.4125
20
-0.09375
11
2.5375
21
-0.09375
0
LINE
5
1C9
100
AcDbEntity
8
head
6
ByLayer
62
256
370
-1
100
AcDbLine
10
2.475
20
-0.15625
11
2.475
21
-0.03125
0
LINE
5
1CA
100
AcDbEntity
8
head
6
ByLayer
62
256
370
-1
100
AcDbLine
10
2.4125
20
0.3125
11
2.5375
21
0.3125
0
LINE
5
1CB
100
AcDbEntity
8
head
6
ByLayer
62
256
370
-1
100
AcDbLine
10
2.475
20
0.25
11
2.475
21
0.375
0
LINE
5
1CC
100
AcDbEntity
8
head
6
ByLayer
62
256
370
-1
100
AcDbLine
10
2.4125
20
0.71875
11
2.5375
21
0.71875
0
LINE
5
1CD
100
AcDbEntity
8
head
6
ByLayer
62
256
370
-1
100
AcDbLine
10
2.475
20
0.65625
11
2.475
21
0.78125
0
LINE
5
1CE
100
AcDbEntity
8
head
6
ByLayer
62
256
370
-1
100
AcDbLine
10
2.33076923077
20
-0.153846153846
11
2.18653846154
21
0.192307692308
0
LINE
5
1CF
100
AcDbEntity
8
head
6
ByLayer
62
256
370
-1
100
AcDbLine
10
2.61923076923
20
-0.153846153846
11
2.76346153846
21
0.192307692308
0
LINE
5
1D0
100
AcDbEntity
8
head
6
ByLayer
62
256
370
-1
100
AcDbLine
10
2.76346153846
20
0.432692307692
11
2.61923076923
21
0.778846153846
0
LINE
5
1D1
100
AcDbEntity
8
head
6
ByLayer
62
256
370
-1
100
AcDbLine
10
2.18653846154
20
0.432692307692
11
2.33076923077
21
0.778846153846
0
ARC
5
1D2
100
AcDbEntity
8
head
6
ByLayer
62
256
370
-1
100
AcDbCircle
10
2.475
20
0.3125
40
0.3125
100
AcDbArc
50
337.380133172
51
22.6198683384
0
ARC
5
1D3
100
AcDbEntity
8
head
6
ByLayer
62
256
370
-1
100
AcDbCircle
10
2.475
20
0.3125
40
0.3125
100
AcDbArc
50
157.380138442
51
202.619868026
0
ARC
5
1D4
100
AcDbEntity
8
head
6
ByLayer
62
256
370
-1
100
AcDbCircle
10
2.475
20
-0.09375
40
0.15625
100
AcDbArc
50
202.619860122
51
337.380138516
0
ARC
5
1D5
100
AcDbEntity
8
head
6
ByLayer
62
256
370
-1
100
AcDbCircle
10
2.475
20
0.71875
40
0.15625
100
AcDbArc
50
22.6198702878
51
157.380129712
0
LINE
5
1D6
100
AcDbEntity
8
head
6
ByLayer
62
256
370
-1
100
AcDbLine
10
2.4125
20
-0.09375
11
2.5375
21
-0.09375
0
LINE
5
1D7
100
AcDbEntity
8
head
6
ByLayer
62
256
370
-1
100
AcDbLine
10
2.475
20
-0.15625
11
2.475
21
-0.03125
0
LINE
5
1D8
100
AcDbEntity
8
head
6
ByLayer
62
256
370
-1
100
AcDbLine
10
2.4125
20
0.3125
11
2.5375
21
0.3125
0
LINE
5
1D9
100
AcDbEntity
8
head
6
ByLayer
62
256
370
-1
100
AcDbLine
10
2.475
20
0.25
11
2.475
21
0.375
0
LINE
5
1DA
100
AcDbEntity
8
head
6
ByLayer
62
256
370
-1
100
AcDbLine
10
2.4125
20
0.71875
11
2.5375
21
0.71875
0
LINE
5
1DB
100
AcDbEntity
8
head
6
ByLayer
62
256
370
-1
100
AcDbLine
10
2.475
20
0.65625
11
2.475
21
0.78125
0
LINE
5
1DC
100
AcDbEntity
8
exhaust_boss
6
ByLayer
62
256
370
-1
100
AcDbLine
10
-0.144230739428
20
-0.153846153846
11
-0.288461508658
21
0.192307692308
0
LINE
5
1DD
100
AcDbEntity
8
exhaust_boss
6
ByLayer
62
256
370
-1
100
AcDbLine
10
0.144230799032
20
-0.153846153846
11
0.288461568262
21
0.192307692308
0
LINE
5
1DE
100
AcDbEntity
8
exhaust_boss
6
ByLayer
62
256
370
-1
100
AcDbLine
10
0.288461568262
20
0.432692307692
11
0.144230799032
21
0.778846153846
0
LINE
5
1DF
100
AcDbEntity
8
exhaust_boss
6
ByLayer
62
256
370
-1
100
AcDbLine
10
-0.288461508658
20
0.432692307692
11
-0.144230739428
21
0.778846153846
0
ARC
5
1E0
100
AcDbEntity
8
exhaust_boss
6
ByLayer
62
256
370
-1
100
AcDbCircle
10
2.98023232759e-08
20
0.3125
40
0.3125
100
AcDbArc
50
337.380133172
51
22.6198683384
0
ARC
5
1E1
100
AcDbEntity
8
exhaust_boss
6
ByLayer
62
256
370
-1
100
AcDbCircle
10
2.98023232759e-08
20
0.3125
40
0.3125
100
AcDbArc
50
157.380138442
51
202.619868026
0
ARC
5
1E2
100
AcDbEntity
8
exhaust_boss
6
ByLayer
62
256
370
-1
100
AcDbCircle
10
2.98023232759e-08
20
-0.09375
40
0.15625
100
AcDbArc
50
202.619860122
51
337.380138516
0
ARC
5
1E3
100
AcDbEntity
8
exhaust_boss
6
ByLayer
62
256
370
-1
100
AcDbCircle
10
2.98023232759e-08
20
0.71875
40
0.15625
100
AcDbArc
50
22.6198702878
51
157.380129712
0
ENDSEC
0
SECTION
2
OBJECTS
0
DICTIONARY
5
C
330
0
100
AcDbDictionary
281
1
3
ACAD_GROUP
350
D
0
DICTIONARY
5
D
330
C
100
AcDbDictionary
281
1
0
ENDSEC
0
EOF
