999
dxfrw 0.5.10
0
SECTION
2
HEADER
9
$ACADVER
1
AC1021
9
$HANDSEED
5
20000
9
$DWGCODEPAGE
3
ANSI_1252
9
$INSBASE
10
0
20
0
30
0
9
$EXTMIN
10
-2.15771602128
20
-1.1165
30
0
9
$EXTMAX
10
2.15771601572
20
6.4438
30
0
9
$LIMMIN
10
0
20
0
9
$LIMMAX
10
420
20
297
9
$ORTHOMODE
70
0
9
$LTSCALE
40
1
9
$TEXTSTYLE
7
STANDARD
9
$CLAYER
8
head_wall_holes
9
$DIMASZ
40
0.1
9
$DIMLFAC
40
1
9
$DIMSCALE
40
1
9
$DIMEXO
40
0.025
9
$DIMEXE
40
0.05
9
$DIMTXT
40
0.1
9
$DIMTSZ
40
0
9
$DIMAUNIT
70
0
9
$DIMADEC
70
2
9
$DIMLUNIT
70
2
9
$DIMSTYLE
2
Standard
9
$DIMGAP
40
0.025
9
$DIMTIH
70
0
9
$LUNITS
70
2
9
$LUPREC
70
4
9
$AUNITS
70
0
9
$AUPREC
70
2
9
$SPLINESEGS
70
8
9
$GRIDMODE
70
1
9
$SNAPSTYLE
70
0
9
$GRIDUNIT
10
0
20
0
9
$PINSBASE
10
5.41977533097
20
1.65445140555
30
0
9
$PLIMMIN
10
0
20
0
9
$PLIMMAX
10
11
20
8.5
9
$INSUNITS
70
1
9
$PSVPSCALE
40
1
0
ENDSEC
0
SECTION
2
CLASSES
0
ENDSEC
0
SECTION
2
TABLES
0
TABLE
2
VPORT
5
8
330
0
100
AcDbSymbolTable
70
1
0
VPORT
5
31
330
2
100
AcDbSymbolTableRecord
100
AcDbViewportTableRecord
2
*ACTIVE
70
0
10
0
20
0
11
1
21
1
12
1.2351171299
22
0.586986358763
13
0
23
0
14
10
24
10
15
10
25
10
16
0
26
0
36
1
17
0
27
0
37
0
40
1.9468380899
41
2.03140703518
42
50
43
0
44
0
50
0
51
0
71
0
72
100
73
1
74
3
75
0
76
1
77
0
78
0
281
0
65
1
110
0
120
0
130
0
111
1
121
0
131
0
112
0
122
1
132
0
79
0
146
0
348
10020
60
7
61
5
292
1
282
1
141
0
142
0
63
250
421
3358443
0
ENDTAB
0
TABLE
2
LTYPE
5
5
330
0
100
AcDbSymbolTable
70
4
0
LTYPE
5
14
330
5
100
AcDbSymbolTableRecord
100
AcDbLinetypeTableRecord
2
ByBlock
70
0
3

72
65
73
0
40
0
0
LTYPE
5
15
330
5
100
AcDbSymbolTableRecord
100
AcDbLinetypeTableRecord
2
ByLayer
70
0
3

72
65
73
0
40
0
0
LTYPE
5
16
330
5
100
AcDbSymbolTableRecord
100
AcDbLinetypeTableRecord
2
Continuous
70
0
3
Solid line
72
65
73
0
40
0
0
LTYPE
5
32
330
5
100
AcDbSymbolTableRecord
100
AcDbLinetypeTableRecord
2
DOT
70
0
3
Dot . . . . . . . . . . . . . . . . . . . . . .
72
65
73
2
40
6.35
49
0
74
0
49
-6.35
74
0
0
LTYPE
5
33
330
5
100
AcDbSymbolTableRecord
100
AcDbLinetypeTableRecord
2
DOT2
70
0
3
Dot (.5x) .....................................
72
65
73
2
40
3.175
49
0
74
0
49
-3.175
74
0
0
LTYPE
5
34
330
5
100
AcDbSymbolTableRecord
100
AcDbLinetypeTableRecord
2
DOTX2
70
0
3
Dot (2x) .  .  .  .  .  .  .  .  .  .  .  .  .
72
65
73
2
40
12.7
49
0
74
0
49
-12.7
74
0
0
LTYPE
5
35
330
5
100
AcDbSymbolTableRecord
100
AcDbLinetypeTableRecord
2
DASHED
70
0
3
Dot . . . . . . . . . . . . . . . . . . . . . .
72
65
73
2
40
19.05
49
12.7
74
0
49
-6.35
74
0
0
LTYPE
5
36
330
5
100
AcDbSymbolTableRecord
100
AcDbLinetypeTableRecord
2
DASHED2
70
0
3
Dashed (.5x) _ _ _ _ _ _ _ _ _ _ _ _ _ _ _ _ _
72
65
73
2
40
9.525
49
6.35
74
0
49
-3.175
74
0
0
LTYPE
5
37
330
5
100
AcDbSymbolTableRecord
100
AcDbLinetypeTableRecord
2
DASHEDX2
70
0
3
Dashed (2x) ____  ____  ____  ____  ____  ___
72
65
73
2
40
38.1
49
25.4
74
0
49
-12.7
74
0
0
LTYPE
5
38
330
5
100
AcDbSymbolTableRecord
100
AcDbLinetypeTableRecord
2
DASHDOT
70
0
3
Dash dot __ . __ . __ . __ . __ . __ . __ . __
72
65
73
4
40
25.4
49
12.7
74
0
49
-6.35
74
0
49
0
74
0
49
-6.35
74
0
0
LTYPE
5
39
330
5
100
AcDbSymbolTableRecord
100
AcDbLinetypeTableRecord
2
DASHDOT2
70
0
3
Dash dot (.5x) _._._._._._._._._._._._._._._.
72
65
73
4
40
12.7
49
6.35
74
0
49
-3.175
74
0
49
0
74
0
49
-3.175
74
0
0
LTYPE
5
3A
330
5
100
AcDbSymbolTableRecord
100
AcDbLinetypeTableRecord
2
DASHDOTX2
70
0
3
Dash dot (2x) ____  .  ____  .  ____  .  ___
72
65
73
4
40
50.8
49
25.4
74
0
49
-12.7
74
0
49
0
74
0
49
-12.7
74
0
0
LTYPE
5
3B
330
5
100
AcDbSymbolTableRecord
100
AcDbLinetypeTableRecord
2
DIVIDE
70
0
3
Divide ____ . . ____ . . ____ . . ____ . . ____
72
65
73
6
40
31.75
49
12.7
74
0
49
-6.35
74
0
49
0
74
0
49
-6.35
74
0
49
0
74
0
49
-6.35
74
0
0
LTYPE
5
3C
330
5
100
AcDbSymbolTableRecord
100
AcDbLinetypeTableRecord
2
DIVIDE2
70
0
3
Divide (.5x) __..__..__..__..__..__..__..__.._
72
65
73
6
40
15.875
49
6.35
74
0
49
-3.175
74
0
49
0
74
0
49
-3.175
74
0
49
0
74
0
49
-3.175
74
0
0
LTYPE
5
3D
330
5
100
AcDbSymbolTableRecord
100
AcDbLinetypeTableRecord
2
DIVIDEX2
70
0
3
Divide (2x) ________  .  .  ________  .  .  _
72
65
73
6
40
63.5
49
25.4
74
0
49
-12.7
74
0
49
0
74
0
49
-12.7
74
0
49
0
74
0
49
-12.7
74
0
0
LTYPE
5
3E
330
5
100
AcDbSymbolTableRecord
100
AcDbLinetypeTableRecord
2
BORDER
70
0
3
Border __ __ . __ __ . __ __ . __ __ . __ __ .
72
65
73
6
40
44.45
49
12.7
74
0
49
-6.35
74
0
49
12.7
74
0
49
-6.35
74
0
49
0
74
0
49
-6.35
74
0
0
LTYPE
5
3F
330
5
100
AcDbSymbolTableRecord
100
AcDbLinetypeTableRecord
2
BORDER2
70
0
3
Border (.5x) __.__.__.__.__.__.__.__.__.__.__.
72
65
73
6
40
22.225
49
6.35
74
0
49
-3.175
74
0
49
6.35
74
0
49
-3.175
74
0
49
0
74
0
49
-3.175
74
0
0
LTYPE
5
40
330
5
100
AcDbSymbolTableRecord
100
AcDbLinetypeTableRecord
2
BORDERX2
70
0
3
Border (2x) ____  ____  .  ____  ____  .  ___
72
65
73
6
40
88.9
49
25.4
74
0
49
-12.7
74
0
49
25.4
74
0
49
-12.7
74
0
49
0
74
0
49
-12.7
74
0
0
LTYPE
5
41
330
5
100
AcDbSymbolTableRecord
100
AcDbLinetypeTableRecord
2
CENTER
70
0
3
Center ____ _ ____ _ ____ _ ____ _ ____ _ ____
72
65
73
4
40
50.8
49
31.75
74
0
49
-6.35
74
0
49
6.35
74
0
49
-6.35
74
0
0
LTYPE
5
42
330
5
100
AcDbSymbolTableRecord
100
AcDbLinetypeTableRecord
2
CENTER2
70
0
3
Center (.5x) ___ _ ___ _ ___ _ ___ _ ___ _ ___
72
65
73
4
40
28.575
49
19.05
74
0
49
-3.175
74
0
49
3.175
74
0
49
-3.175
74
0
0
LTYPE
5
43
330
5
100
AcDbSymbolTableRecord
100
AcDbLinetypeTableRecord
2
CENTERX2
70
0
3
Center (2x) ________  __  ________  __  _____
72
65
73
4
40
101.6
49
63.5
74
0
49
-12.7
74
0
49
12.7
74
0
49
-12.7
74
0
0
ENDTAB
0
TABLE
2
LAYER
5
2
330
0
100
AcDbSymbolTable
70
1
0
LAYER
5
10
330
2
100
AcDbSymbolTableRecord
100
AcDbLayerTableRecord
2
0
70
0
62
7
6
CONTINUOUS
370
0
390
F
0
LAYER
5
44
330
2
100
AcDbSymbolTableRecord
100
AcDbLayerTableRecord
2
head_cover
70
0
62
2
6
CONTINUOUS
370
0
390
F
0
LAYER
5
45
330
2
100
AcDbSymbolTableRecord
100
AcDbLayerTableRecord
2
head_details
70
1
62
7
6
CONTINUOUS
370
0
390
F
0
LAYER
5
46
330
2
100
AcDbSymbolTableRecord
100
AcDbLayerTableRecord
2
head
70
1
62
6
6
CONTINUOUS
370
0
390
F
0
LAYER
5
47
330
2
100
AcDbSymbolTableRecord
100
AcDbLayerTableRecord
2
head_wall_outer
70
1
62
4
6
CONTINUOUS
370
0
390
F
0
LAYER
5
48
330
2
100
AcDbSymbolTableRecord
100
AcDbLayerTableRecord
2
head_wall_inner
70
1
62
4
6
CONTINUOUS
370
0
390
F
0
LAYER
5
49
330
2
100
AcDbSymbolTableRecord
100
AcDbLayerTableRecord
2
head_wall_holes
70
1
62
4
6
CONTINUOUS
370
0
390
F
0
ENDTAB
0
TABLE
2
STYLE
5
3
330
0
100
AcDbSymbolTable
70
3
0
STYLE
5
4A
330
2
100
AcDbSymbolTableRecord
100
AcDbTextStyleTableRecord
2
Standard
70
0
40
0
41
1
50
0
71
0
42
1
3
txt
4

0
ENDTAB
0
TABLE
2
VIEW
5
6
330
0
100
AcDbSymbolTable
70
0
0
ENDTAB
0
TABLE
2
UCS
5
7
330
0
100
AcDbSymbolTable
70
0
0
ENDTAB
0
TABLE
2
APPID
5
9
330
0
100
AcDbSymbolTable
70
1
0
APPID
5
12
330
9
100
AcDbSymbolTableRecord
100
AcDbRegAppTableRecord
2
ACAD
70
0
0
ENDTAB
0
TABLE
2
DIMSTYLE
5
A
330
0
100
AcDbSymbolTable
70
1
100
AcDbDimStyleTable
71
1
0
DIMSTYLE
105
4B
330
A
100
AcDbSymbolTableRecord
100
AcDbDimStyleTableRecord
2
Standard
70
0
40
1
41
0.1
42
0.025
43
0.38
44
0.05
45
0
46
0
47
0
48
0
140
0.1
141
0.09
142
0
143
25.4
144
1
145
0
146
1
147
0.025
148
0
71
0
72
0
73
0
74
1
75
0
76
0
77
0
78
0
79
0
170
0
171
2
172
0
173
0
174
0
175
0
176
0
177
0
178
0
179
0
271
4
272
4
273
2
274
2
275
0
276
0
277
2
278
46
279
0
280
0
281
0
282
0
283
1
284
0
285
0
286
0
288
0
289
3
340
Standard
341

371
-2
372
-2
0
ENDTAB
0
TABLE
2
BLOCK_RECORD
5
1
330
0
100
AcDbSymbolTable
70
2
0
BLOCK_RECORD
5
1F
330
1
100
AcDbSymbolTableRecord
100
AcDbBlockTableRecord
2
*Model_Space
70
0
280
1
281
0
0
BLOCK_RECORD
5
1E
330
1
100
AcDbSymbolTableRecord
100
AcDbBlockTableRecord
2
*Paper_Space
70
0
280
1
281
0
0
ENDTAB
0
ENDSEC
0
SECTION
2
BLOCKS
0
BLOCK
5
20
330
1F
100
AcDbEntity
8
0
100
AcDbBlockBegin
2
*Model_Space
70
0
10
0
20
0
30
0
3
*Model_Space
1

0
ENDBLK
5
21
330
1F
100
AcDbEntity
8
0
100
AcDbBlockEnd
0
BLOCK
5
1C
330
1B
100
AcDbEntity
8
0
100
AcDbBlockBegin
2
*Paper_Space
70
0
10
0
20
0
30
0
3
*Paper_Space
1

0
ENDBLK
5
1D
330
1F
100
AcDbEntity
8
0
100
AcDbBlockEnd
0
ENDSEC
0
SECTION
2
ENTITIES
0
ARC
5
4C
100
AcDbEntity
8
head_cover
6
ByLayer
62
256
370
-1
100
AcDbCircle
10
-0.87724998428
20
-0.87725
40
0.07975
100
AcDbArc
50
270
51
2.54e-14
0
ARC
5
4D
100
AcDbEntity
8
head_cover
6
ByLayer
62
256
370
-1
100
AcDbCircle
10
0.87725001572
20
-0.87725
40
0.07975
100
AcDbArc
50
180
51
270
0
ARC
5
4E
100
AcDbEntity
8
head_cover
6
ByLayer
62
256
370
-1
100
AcDbCircle
10
1.11650001572
20
0.87725
40
0.07975
100
AcDbArc
50
90
51
180
0
ARC
5
4F
100
AcDbEntity
8
head_cover
6
ByLayer
62
256
370
-1
100
AcDbCircle
10
-1.11649998428
20
0.87725
40
0.07975
100
AcDbArc
50
0
51
90
0
LINE
5
50
100
AcDbEntity
8
head_cover
6
ByLayer
62
256
370
-1
100
AcDbLine
10
-1.03674998428
20
0.55825
11
-1.03674998428
21
0.87725
0
ARC
5
51
100
AcDbEntity
8
head_cover
6
ByLayer
62
256
370
-1
100
AcDbCircle
10
-0.95699998428
20
0.55825
40
0.07975
100
AcDbArc
50
180
51
270
0
LINE
5
52
100
AcDbEntity
8
head_cover
6
ByLayer
62
256
370
-1
100
AcDbLine
10
-0.95699998428
20
0.4785
11
0.95700001572
21
0.4785
0
LINE
5
53
100
AcDbEntity
8
head_cover
6
ByLayer
62
256
370
-1
100
AcDbLine
10
1.03675001572
20
0.55825
11
1.03675001572
21
0.87725
0
ARC
5
54
100
AcDbEntity
8
head_cover
6
ByLayer
62
256
370
-1
100
AcDbCircle
10
0.95700001572
20
0.55825
40
0.07975
100
AcDbArc
50
270
51
0
0
LINE
5
55
100
AcDbEntity
8
head_cover
6
ByLayer
62
256
370
-1
100
AcDbLine
10
-0.63799998428
20
-0.87725
11
-0.47849998428
21
-0.87725
0
LINE
5
56
100
AcDbEntity
8
head_cover
6
ByLayer
62
256
370
-1
100
AcDbLine
10
-0.55824998428
20
-0.957
11
-0.55824998428
21
-0.7975
0
LINE
5
57
100
AcDbEntity
8
head_cover
6
ByLayer
62
256
370
-1
100
AcDbLine
10
0.47850001572
20
-0.87725
11
0.63800001572
21
-0.87725
0
LINE
5
58
100
AcDbEntity
8
head_cover
6
ByLayer
62
256
370
-1
100
AcDbLine
10
0.55825001572
20
-0.957
11
0.55825001572
21
-0.7975
0
LINE
5
59
100
AcDbEntity
8
head_cover
6
ByLayer
62
256
370
-1
100
AcDbLine
10
2.15771601572
20
-0.87725
11
2.15771601572
21
0.87725
0
ARC
5
5A
100
AcDbEntity
8
head_cover
6
ByLayer
62
256
370
-1
100
AcDbCircle
10
1.59946601572
20
-0.87725
40
0.07975
100
AcDbArc
50
270
51
2.54e-14
0
ARC
5
5B
100
AcDbEntity
8
head_cover
6
ByLayer
62
256
370
-1
100
AcDbCircle
10
1.91846601572
20
-0.55825
40
0.07975
100
AcDbArc
50
270
51
0
0
LINE
5
5C
100
AcDbEntity
8
head_cover
6
ByLayer
62
256
370
-1
100
AcDbLine
10
1.99821601572
20
-0.55825
11
1.99821601572
21
-0.319
0
ARC
5
5D
100
AcDbEntity
8
head_cover
6
ByLayer
62
256
370
-1
100
AcDbCircle
10
1.91846601572
20
-0.319
40
0.07975
100
AcDbArc
50
0
51
90
0
ARC
5
5E
100
AcDbEntity
8
head_cover
6
ByLayer
62
256
370
-1
100
AcDbCircle
10
1.91846601572
20
0.319
40
0.07975
100
AcDbArc
50
270
51
0
0
LINE
5
5F
100
AcDbEntity
8
head_cover
6
ByLayer
62
256
370
-1
100
AcDbLine
10
1.99821601572
20
0.319
11
1.99821601572
21
0.55825
0
ARC
5
60
100
AcDbEntity
8
head_cover
6
ByLayer
62
256
370
-1
100
AcDbCircle
10
1.91846601572
20
0.55825
40
0.07975
100
AcDbArc
50
0
51
90
0
ARC
5
61
100
AcDbEntity
8
head_cover
6
ByLayer
62
256
370
-1
100
AcDbCircle
10
1.59946601572
20
0.87725
40
0.07975
100
AcDbArc
50
0
51
90
0
ARC
5
62
100
AcDbEntity
8
head_cover
6
ByLayer
62
256
370
-1
100
AcDbCircle
10
1.91846601572
20
0.87725
40
0.23925
100
AcDbArc
50
180
51
270
0
ARC
5
63
100
AcDbEntity
8
head_cover
6
ByLayer
62
256
370
-1
100
AcDbCircle
10
1.91846601572
20
0.87725
40
0.23925
100
AcDbArc
50
6.79e-14
51
90
0
ARC
5
64
100
AcDbEntity
8
head_cover
6
ByLayer
62
256
370
-1
100
AcDbCircle
10
1.91846601572
20
0
40
0.23925
100
AcDbArc
50
90
51
270
0
ARC
5
65
100
AcDbEntity
8
head_cover
6
ByLayer
62
256
370
-1
100
AcDbCircle
10
1.91846601572
20
-0.87725
40
0.23925
100
AcDbArc
50
90
51
180
0
ARC
5
66
100
AcDbEntity
8
head_cover
6
ByLayer
62
256
370
-1
100
AcDbCircle
10
1.91846601572
20
-0.87725
40
0.23925
100
AcDbArc
50
270
51
0
0
LINE
5
67
100
AcDbEntity
8
head_cover
6
ByLayer
62
256
370
-1
100
AcDbLine
10
1.83871601572
20
-0.87725
11
1.99821601572
21
-0.87725
0
LINE
5
68
100
AcDbEntity
8
head_cover
6
ByLayer
62
256
370
-1
100
AcDbLine
10
1.91846601572
20
-0.957
11
1.91846601572
21
-0.7975
0
LINE
5
69
100
AcDbEntity
8
head_cover
6
ByLayer
62
256
370
-1
100
AcDbLine
10
1.83871601572
20
0
11
1.99821601572
21
0
0
LINE
5
6A
100
AcDbEntity
8
head_cover
6
ByLayer
62
256
370
-1
100
AcDbLine
10
1.91846601572
20
-0.07975
11
1.91846601572
21
0.07975
0
LINE
5
6B
100
AcDbEntity
8
head_cover
6
ByLayer
62
256
370
-1
100
AcDbLine
10
1.83871601572
20
0.87725
11
1.99821601572
21
0.87725
0
LINE
5
6C
100
AcDbEntity
8
head_cover
6
ByLayer
62
256
370
-1
100
AcDbLine
10
1.91846601572
20
0.7975
11
1.91846601572
21
0.957
0
ARC
5
6D
100
AcDbEntity
8
head_cover
6
ByLayer
62
256
370
-1
100
AcDbCircle
10
-1.91846598428
20
0.55825
40
0.07975
100
AcDbArc
50
90
51
180
0
LINE
5
6E
100
AcDbEntity
8
head_cover
6
ByLayer
62
256
370
-1
100
AcDbLine
10
-1.99821598428
20
0.319
11
-1.99821598428
21
0.55825
0
ARC
5
6F
100
AcDbEntity
8
head_cover
6
ByLayer
62
256
370
-1
100
AcDbCircle
10
-1.91846598428
20
0.319
40
0.07975
100
AcDbArc
50
180
51
270
0
ARC
5
70
100
AcDbEntity
8
head_cover
6
ByLayer
62
256
370
-1
100
AcDbCircle
10
-1.91846598428
20
-0.319
40
0.07975
100
AcDbArc
50
90
51
180
0
LINE
5
71
100
AcDbEntity
8
head_cover
6
ByLayer
62
256
370
-1
100
AcDbLine
10
-1.99821598428
20
-0.55825
11
-1.99821598428
21
-0.319
0
ARC
5
72
100
AcDbEntity
8
head_cover
6
ByLayer
62
256
370
-1
100
AcDbCircle
10
-1.91846598428
20
-0.55825
40
0.07975
100
AcDbArc
50
180
51
270
0
ARC
5
73
100
AcDbEntity
8
head_cover
6
ByLayer
62
256
370
-1
100
AcDbCircle
10
-1.59946598428
20
-0.87725
40
0.07975
100
AcDbArc
50
180
51
270
0
ARC
5
74
100
AcDbEntity
8
head_cover
6
ByLayer
62
256
370
-1
100
AcDbCircle
10
-1.91846598428
20
0.87725
40
0.23925
100
AcDbArc
50
90
51
180
0
ARC
5
75
100
AcDbEntity
8
head_cover
6
ByLayer
62
256
370
-1
100
AcDbCircle
10
-1.91846598428
20
0.87725
40
0.23925
100
AcDbArc
50
270
51
359.999999303
0
ARC
5
76
100
AcDbEntity
8
head_cover
6
ByLayer
62
256
370
-1
100
AcDbCircle
10
-1.91846598428
20
-0.87725
40
0.23925
100
AcDbArc
50
180
51
270
0
LINE
5
77
100
AcDbEntity
8
head_cover
6
ByLayer
62
256
370
-1
100
AcDbLine
10
-2.15771598428
20
-0.87725
11
-2.15771598428
21
0.87725
0
ARC
5
78
100
AcDbEntity
8
head_cover
6
ByLayer
62
256
370
-1
100
AcDbCircle
10
-1.91846598428
20
0
40
0.23925
100
AcDbArc
50
269.999999014
51
90
0
ARC
5
79
100
AcDbEntity
8
head_cover
6
ByLayer
62
256
370
-1
100
AcDbCircle
10
-1.91846598428
20
-0.87725
40
0.23925
100
AcDbArc
50
0
51
90
0
LINE
5
7A
100
AcDbEntity
8
head_cover
6
ByLayer
62
256
370
-1
100
AcDbLine
10
-1.99821598428
20
-0.87725
11
-1.83871598428
21
-0.87725
0
LINE
5
7B
100
AcDbEntity
8
head_cover
6
ByLayer
62
256
370
-1
100
AcDbLine
10
-1.91846598428
20
-0.957
11
-1.91846598428
21
-0.7975
0
LINE
5
7C
100
AcDbEntity
8
head_cover
6
ByLayer
62
256
370
-1
100
AcDbLine
10
-1.99821598428
20
0.87725
11
-1.83871598428
21
0.87725
0
LINE
5
7D
100
AcDbEntity
8
head_cover
6
ByLayer
62
256
370
-1
100
AcDbLine
10
-1.91846598428
20
0.7975
11
-1.91846598428
21
0.957
0
LINE
5
7E
100
AcDbEntity
8
head_cover
6
ByLayer
62
256
370
-1
100
AcDbLine
10
-1.99821598428
20
0
11
-1.83871598428
21
0
0
LINE
5
7F
100
AcDbEntity
8
head_cover
6
ByLayer
62
256
370
-1
100
AcDbLine
10
-1.91846598428
20
-0.07975
11
-1.91846598428
21
0.07975
0
ARC
5
80
100
AcDbEntity
8
head_cover
6
ByLayer
62
256
370
-1
100
AcDbCircle
10
-1.59946598428
20
0.87725
40
0.07975
100
AcDbArc
50
90
51
180.001480372
0
LINE
5
81
100
AcDbEntity
8
head_cover
6
ByLayer
62
256
370
-1
100
AcDbLine
10
-1.59946597365
20
0.957
11
-1.11649998428
21
0.957
0
LINE
5
82
100
AcDbEntity
8
head_cover
6
ByLayer
62
256
370
-1
100
AcDbLine
10
-1.59946597365
20
-0.957
11
-0.87724998428
21
-0.957
0
LINE
5
83
100
AcDbEntity
8
head_cover
6
ByLayer
62
256
370
-1
100
AcDbLine
10
-1.91846594777
20
1.1165
11
1.91846590521
21
1.1165
0
LINE
5
84
100
AcDbEntity
8
head_cover
6
ByLayer
62
256
370
-1
100
AcDbLine
10
1.11650001572
20
0.957
11
1.59946592215
21
0.957
0
LINE
5
85
100
AcDbEntity
8
head_cover
6
ByLayer
62
256
370
-1
100
AcDbLine
10
0.87725001572
20
-0.957
11
1.59946596268
21
-0.957
0
LINE
5
86
100
AcDbEntity
8
head_cover
6
ByLayer
62
256
370
-1
100
AcDbLine
10
-1.91846594777
20
-1.1165
11
1.91846599034
21
-1.1165
0
LINE
5
87
100
AcDbEntity
8
head_cover
6
ByLayer
62
256
370
-1
100
AcDbLine
10
-0.63799998428
20
0.87725
11
-0.47849998428
21
0.87725
0
LINE
5
88
100
AcDbEntity
8
head_cover
6
ByLayer
62
256
370
-1
100
AcDbLine
10
-0.55824998428
20
0.7975
11
-0.55824998428
21
0.957
0
LINE
5
89
100
AcDbEntity
8
head_cover
6
ByLayer
62
256
370
-1
100
AcDbLine
10
0.47850001572
20
0.87725
11
0.63800001572
21
0.87725
0
LINE
5
8A
100
AcDbEntity
8
head_cover
6
ByLayer
62
256
370
-1
100
AcDbLine
10
0.55825001572
20
0.7975
11
0.55825001572
21
0.957
0
LINE
5
8B
100
AcDbEntity
8
head_cover
6
ByLayer
62
256
370
-1
100
AcDbLine
10
-0.0797499842797
20
-0.4785
11
0.0797500157203
21
-0.4785
0
LINE
5
8C
100
AcDbEntity
8
head_cover
6
ByLayer
62
256
370
-1
100
AcDbLine
10
1.5720319639e-08
20
-0.55825
11
1.5720319639e-08
21
-0.39875
0
LINE
5
8D
100
AcDbEntity
8
head_cover
6
ByLayer
62
256
370
-1
100
AcDbLine
10
-0.63799998428
20
-0.87725
11
-0.47849998428
21
-0.87725
0
LINE
5
8E
100
AcDbEntity
8
head_cover
6
ByLayer
62
256
370
-1
100
AcDbLine
10
-0.55824998428
20
-0.957
11
-0.55824998428
21
-0.7975
0
LINE
5
8F
100
AcDbEntity
8
head_cover
6
ByLayer
62
256
370
-1
100
AcDbLine
10
0.47850001572
20
-0.87725
11
0.63800001572
21
-0.87725
0
LINE
5
90
100
AcDbEntity
8
head_cover
6
ByLayer
62
256
370
-1
100
AcDbLine
10
0.55825001572
20
-0.957
11
0.55825001572
21
-0.7975
0
LINE
5
91
100
AcDbEntity
8
head_cover
6
ByLayer
62
256
370
-1
100
AcDbLine
10
-0.23924998428
20
-0.1595
11
-0.66989998428
21
-0.4824875
0
ARC
5
92
100
AcDbEntity
8
head_cover
6
ByLayer
62
256
370
-1
100
AcDbCircle
10
-0.47849998428
20
-0.7376875
40
0.319
100
AcDbArc
50
126.869897646
51
180
0
LINE
5
93
100
AcDbEntity
8
head_cover
6
ByLayer
62
256
370
-1
100
AcDbLine
10
0.23925001572
20
-0.1595
11
0.66990001572
21
-0.4824875
0
ARC
5
94
100
AcDbEntity
8
head_cover
6
ByLayer
62
256
370
-1
100
AcDbCircle
10
0.47850001572
20
-0.7376875
40
0.319
100
AcDbArc
50
0
51
53.1301023542
0
ARC
5
95
100
AcDbEntity
8
head_cover
6
ByLayer
62
256
370
-1
100
AcDbCircle
10
1.5720319639e-08
20
-0.4785
40
0.39875
100
AcDbArc
50
53.1301023542
51
126.869897646
0
LINE
5
96
100
AcDbEntity
8
head_cover
6
ByLayer
62
256
370
-1
100
AcDbLine
10
-0.79749998428
20
-0.87725
11
-0.79749998428
21
-0.7376875
0
LINE
5
97
100
AcDbEntity
8
head_cover
6
ByLayer
62
256
370
-1
100
AcDbLine
10
0.79750001572
20
-0.87725
11
0.79750001572
21
-0.7376875
0
CIRCLE
5
98
100
AcDbEntity
8
head_details
6
ByLayer
62
256
370
-1
100
AcDbCircle
10
-1.19625
20
0.1595
40
0.1595
0
CIRCLE
5
99
100
AcDbEntity
8
head_details
6
ByLayer
62
256
370
-1
100
AcDbCircle
10
-0.55825
20
0.1595
40
0.1595
0
CIRCLE
5
9A
100
AcDbEntity
8
head_details
6
ByLayer
62
256
370
-1
100
AcDbCircle
10
0.55825
20
0.1595
40
0.1595
0
CIRCLE
5
9B
100
AcDbEntity
8
head_details
6
ByLayer
62
256
370
-1
100
AcDbCircle
10
1.19625
20
0.1595
40
0.1595
0
CIRCLE
5
9C
100
AcDbEntity
8
head_details
6
ByLayer
62
256
370
-1
100
AcDbCircle
10
-0.55825
20
0.1595
40
0.23925
0
CIRCLE
5
9D
100
AcDbEntity
8
head_details
6
ByLayer
62
256
370
-1
100
AcDbCircle
10
-1.19625
20
0.1595
40
0.23925
0
CIRCLE
5
9E
100
AcDbEntity
8
head_details
6
ByLayer
62
256
370
-1
100
AcDbCircle
10
0.55825
20
0.1595
40
0.23925
0
CIRCLE
5
9F
100
AcDbEntity
8
head_details
6
ByLayer
62
256
370
-1
100
AcDbCircle
10
1.19625
20
0.1595
40
0.23925
0
CIRCLE
5
A0
100
AcDbEntity
8
head_details
6
ByLayer
62
256
370
-1
100
AcDbCircle
10
3.83026943496e-17
20
-0.4785
40
0.23925
0
CIRCLE
5
A1
100
AcDbEntity
8
head_details
6
ByLayer
62
256
370
-1
100
AcDbCircle
10
-0.39875
20
-0.4785
40
0.07975
0
CIRCLE
5
A2
100
AcDbEntity
8
head_details
6
ByLayer
62
256
370
-1
100
AcDbCircle
10
0.39875
20
-0.4785
40
0.07975
0
LINE
5
A3
100
AcDbEntity
8
head_details
6
ByLayer
62
256
370
-1
100
AcDbLine
10
-0.23925
20
-0.1595
11
-0.49445
21
-0.3509
0
LINE
5
A4
100
AcDbEntity
8
head_details
6
ByLayer
62
256
370
-1
100
AcDbLine
10
-0.23925
20
-0.7975
11
-0.49445
21
-0.6061
0
LINE
5
A5
100
AcDbEntity
8
head_details
6
ByLayer
62
256
370
-1
100
AcDbLine
10
0.23925
20
-0.7975
11
0.49445
21
-0.6061
0
LINE
5
A6
100
AcDbEntity
8
head_details
6
ByLayer
62
256
370
-1
100
AcDbLine
10
0.23925
20
-0.1595
11
0.49445
21
-0.3509
0
ARC
5
A7
100
AcDbEntity
8
head_details
6
ByLayer
62
256
370
-1
100
AcDbCircle
10
3.83026943496e-17
20
-0.4785
40
0.39875
100
AcDbArc
50
233.130102354
51
306.869897646
0
ARC
5
A8
100
AcDbEntity
8
head_details
6
ByLayer
62
256
370
-1
100
AcDbCircle
10
3.83026943496e-17
20
-0.4785
40
0.39875
100
AcDbArc
50
53.1301023542
51
126.869897646
0
ARC
5
A9
100
AcDbEntity
8
head_details
6
ByLayer
62
256
370
-1
100
AcDbCircle
10
-0.39875
20
-0.4785
40
0.1595
100
AcDbArc
50
126.869897646
51
233.130102354
0
ARC
5
AA
100
AcDbEntity
8
head_details
6
ByLayer
62
256
370
-1
100
AcDbCircle
10
0.39875
20
-0.4785
40
0.1595
100
AcDbArc
50
306.869897646
51
53.1301023542
0
CIRCLE
5
AB
100
AcDbEntity
8
head_details
6
ByLayer
62
256
370
-1
100
AcDbCircle
10
-0.87725
20
1.41664457943e-16
40
0.71775
0
CIRCLE
5
AC
100
AcDbEntity
8
head_details
6
ByLayer
62
256
370
-1
100
AcDbCircle
10
0.87725
20
1.41664457943e-16
40
0.71775
0
ARC
5
AD
100
AcDbEntity
8
head_cover
6
ByLayer
62
256
370
-1
100
AcDbCircle
10
-0.877250005563
20
1.77045
40
0.07975
100
AcDbArc
50
270
51
2.54e-14
0
ARC
5
AE
100
AcDbEntity
8
head_cover
6
ByLayer
62
256
370
-1
100
AcDbCircle
10
-0.239250005563
20
1.77045
40
0.07975
100
AcDbArc
50
180
51
270
0
LINE
5
AF
100
AcDbEntity
8
head_cover
6
ByLayer
62
256
370
-1
100
AcDbLine
10
-0.239250005563
20
1.6907
11
0.239249994437
21
1.6907
0
ARC
5
B0
100
AcDbEntity
8
head_cover
6
ByLayer
62
256
370
-1
100
AcDbCircle
10
0.239249994437
20
1.77045
40
0.07975
100
AcDbArc
50
270
51
2.54e-14
0
ARC
5
B1
100
AcDbEntity
8
head_cover
6
ByLayer
62
256
370
-1
100
AcDbCircle
10
0.877249994437
20
1.77045
40
0.07975
100
AcDbArc
50
180
51
270
0
ARC
5
B2
100
AcDbEntity
8
head_cover
6
ByLayer
62
256
370
-1
100
AcDbCircle
10
1.11649999444
20
3.52495
40
0.07975
100
AcDbArc
50
90
51
180
0
ARC
5
B3
100
AcDbEntity
8
head_cover
6
ByLayer
62
256
370
-1
100
AcDbCircle
10
-1.11650000556
20
3.52495
40
0.07975
100
AcDbArc
50
0
51
90
0
ARC
5
B4
100
AcDbEntity
8
head_cover
6
ByLayer
62
256
370
-1
100
AcDbCircle
10
0.558249994437
20
1.77045
40
0.23925
100
AcDbArc
50
0
51
180
0
ARC
5
B5
100
AcDbEntity
8
head_cover
6
ByLayer
62
256
370
-1
100
AcDbCircle
10
-0.558250005563
20
1.77045
40
0.23925
100
AcDbArc
50
0
51
180
0
LINE
5
B6
100
AcDbEntity
8
head_cover
6
ByLayer
62
256
370
-1
100
AcDbLine
10
-1.03675000556
20
3.20595
11
-1.03675000556
21
3.52495
0
ARC
5
B7
100
AcDbEntity
8
head_cover
6
ByLayer
62
256
370
-1
100
AcDbCircle
10
-0.957000005563
20
3.20595
40
0.07975
100
AcDbArc
50
180
51
270
0
LINE
5
B8
100
AcDbEntity
8
head_cover
6
ByLayer
62
256
370
-1
100
AcDbLine
10
-0.957000005563
20
3.1262
11
0.956999994437
21
3.1262
0
LINE
5
B9
100
AcDbEntity
8
head_cover
6
ByLayer
62
256
370
-1
100
AcDbLine
10
1.03674999444
20
3.20595
11
1.03674999444
21
3.52495
0
ARC
5
BA
100
AcDbEntity
8
head_cover
6
ByLayer
62
256
370
-1
100
AcDbCircle
10
0.956999994437
20
3.20595
40
0.07975
100
AcDbArc
50
270
51
0
0
LINE
5
BB
100
AcDbEntity
8
head_cover
6
ByLayer
62
256
370
-1
100
AcDbLine
10
-0.638000005563
20
1.77045
11
-0.478500005563
21
1.77045
0
LINE
5
BC
100
AcDbEntity
8
head_cover
6
ByLayer
62
256
370
-1
100
AcDbLine
10
-0.558250005563
20
1.6907
11
-0.558250005563
21
1.8502
0
LINE
5
BD
100
AcDbEntity
8
head_cover
6
ByLayer
62
256
370
-1
100
AcDbLine
10
0.478499994437
20
1.77045
11
0.637999994437
21
1.77045
0
LINE
5
BE
100
AcDbEntity
8
head_cover
6
ByLayer
62
256
370
-1
100
AcDbLine
10
0.558249994437
20
1.6907
11
0.558249994437
21
1.8502
0
LINE
5
BF
100
AcDbEntity
8
head_cover
6
ByLayer
62
256
370
-1
100
AcDbLine
10
2.15771599444
20
1.77045
11
2.15771599444
21
3.52495
0
ARC
5
C0
100
AcDbEntity
8
head_cover
6
ByLayer
62
256
370
-1
100
AcDbCircle
10
1.59946599444
20
1.77045
40
0.07975
100
AcDbArc
50
270
51
2.54e-14
0
ARC
5
C1
100
AcDbEntity
8
head_cover
6
ByLayer
62
256
370
-1
100
AcDbCircle
10
1.91846599444
20
2.08945
40
0.07975
100
AcDbArc
50
270
51
0
0
LINE
5
C2
100
AcDbEntity
8
head_cover
6
ByLayer
62
256
370
-1
100
AcDbLine
10
1.99821599444
20
2.08945
11
1.99821599444
21
2.3287
0
ARC
5
C3
100
AcDbEntity
8
head_cover
6
ByLayer
62
256
370
-1
100
AcDbCircle
10
1.91846599444
20
2.3287
40
0.07975
100
AcDbArc
50
0
51
90
0
ARC
5
C4
100
AcDbEntity
8
head_cover
6
ByLayer
62
256
370
-1
100
AcDbCircle
10
1.91846599444
20
2.9667
40
0.07975
100
AcDbArc
50
270
51
0
0
LINE
5
C5
100
AcDbEntity
8
head_cover
6
ByLayer
62
256
370
-1
100
AcDbLine
10
1.99821599444
20
2.9667
11
1.99821599444
21
3.20595
0
ARC
5
C6
100
AcDbEntity
8
head_cover
6
ByLayer
62
256
370
-1
100
AcDbCircle
10
1.91846599444
20
3.20595
40
0.07975
100
AcDbArc
50
0
51
90
0
ARC
5
C7
100
AcDbEntity
8
head_cover
6
ByLayer
62
256
370
-1
100
AcDbCircle
10
1.59946599444
20
3.52495
40
0.07975
100
AcDbArc
50
0
51
90
0
ARC
5
C8
100
AcDbEntity
8
head_cover
6
ByLayer
62
256
370
-1
100
AcDbCircle
10
1.91846599444
20
3.52495
40
0.23925
100
AcDbArc
50
180
51
270
0
ARC
5
C9
100
AcDbEntity
8
head_cover
6
ByLayer
62
256
370
-1
100
AcDbCircle
10
1.91846599444
20
3.52495
40
0.23925
100
AcDbArc
50
6.79e-14
51
90
0
ARC
5
CA
100
AcDbEntity
8
head_cover
6
ByLayer
62
256
370
-1
100
AcDbCircle
10
1.91846599444
20
2.6477
40
0.23925
100
AcDbArc
50
90
51
270
0
ARC
5
CB
100
AcDbEntity
8
head_cover
6
ByLayer
62
256
370
-1
100
AcDbCircle
10
1.91846599444
20
1.77045
40
0.23925
100
AcDbArc
50
90
51
180
0
ARC
5
CC
100
AcDbEntity
8
head_cover
6
ByLayer
62
256
370
-1
100
AcDbCircle
10
1.91846599444
20
1.77045
40
0.23925
100
AcDbArc
50
270
51
0
0
LINE
5
CD
100
AcDbEntity
8
head_cover
6
ByLayer
62
256
370
-1
100
AcDbLine
10
1.83871599444
20
1.77045
11
1.99821599444
21
1.77045
0
LINE
5
CE
100
AcDbEntity
8
head_cover
6
ByLayer
62
256
370
-1
100
AcDbLine
10
1.91846599444
20
1.6907
11
1.91846599444
21
1.8502
0
LINE
5
CF
100
AcDbEntity
8
head_cover
6
ByLayer
62
256
370
-1
100
AcDbLine
10
1.83871599444
20
2.6477
11
1.99821599444
21
2.6477
0
LINE
5
D0
100
AcDbEntity
8
head_cover
6
ByLayer
62
256
370
-1
100
AcDbLine
10
1.91846599444
20
2.56795
11
1.91846599444
21
2.72745
0
LINE
5
D1
100
AcDbEntity
8
head_cover
6
ByLayer
62
256
370
-1
100
AcDbLine
10
1.83871599444
20
3.52495
11
1.99821599444
21
3.52495
0
LINE
5
D2
100
AcDbEntity
8
head_cover
6
ByLayer
62
256
370
-1
100
AcDbLine
10
1.91846599444
20
3.4452
11
1.91846599444
21
3.6047
0
ARC
5
D3
100
AcDbEntity
8
head_cover
6
ByLayer
62
256
370
-1
100
AcDbCircle
10
-1.91846600556
20
3.20595
40
0.07975
100
AcDbArc
50
90
51
180
0
LINE
5
D4
100
AcDbEntity
8
head_cover
6
ByLayer
62
256
370
-1
100
AcDbLine
10
-1.99821600556
20
2.9667
11
-1.99821600556
21
3.20595
0
ARC
5
D5
100
AcDbEntity
8
head_cover
6
ByLayer
62
256
370
-1
100
AcDbCircle
10
-1.91846600556
20
2.9667
40
0.07975
100
AcDbArc
50
180
51
270
0
ARC
5
D6
100
AcDbEntity
8
head_cover
6
ByLayer
62
256
370
-1
100
AcDbCircle
10
-1.91846600556
20
2.3287
40
0.07975
100
AcDbArc
50
90
51
180
0
LINE
5
D7
100
AcDbEntity
8
head_cover
6
ByLayer
62
256
370
-1
100
AcDbLine
10
-1.99821600556
20
2.08945
11
-1.99821600556
21
2.3287
0
ARC
5
D8
100
AcDbEntity
8
head_cover
6
ByLayer
62
256
370
-1
100
AcDbCircle
10
-1.91846600556
20
2.08945
40
0.07975
100
AcDbArc
50
180
51
270
0
ARC
5
D9
100
AcDbEntity
8
head_cover
6
ByLayer
62
256
370
-1
100
AcDbCircle
10
-1.59946600556
20
1.77045
40
0.07975
100
AcDbArc
50
180
51
270
0
ARC
5
DA
100
AcDbEntity
8
head_cover
6
ByLayer
62
256
370
-1
100
AcDbCircle
10
-1.91846600556
20
3.52495
40
0.23925
100
AcDbArc
50
90
51
180
0
ARC
5
DB
100
AcDbEntity
8
head_cover
6
ByLayer
62
256
370
-1
100
AcDbCircle
10
-1.91846600556
20
3.52495
40
0.23925
100
AcDbArc
50
270
51
359.999999303
0
ARC
5
DC
100
AcDbEntity
8
head_cover
6
ByLayer
62
256
370
-1
100
AcDbCircle
10
-1.91846600556
20
1.77045
40
0.23925
100
AcDbArc
50
180
51
270
0
LINE
5
DD
100
AcDbEntity
8
head_cover
6
ByLayer
62
256
370
-1
100
AcDbLine
10
-2.15771600556
20
1.77045
11
-2.15771600556
21
3.52495
0
ARC
5
DE
100
AcDbEntity
8
head_cover
6
ByLayer
62
256
370
-1
100
AcDbCircle
10
-1.91846600556
20
2.6477
40
0.23925
100
AcDbArc
50
269.999999014
51
90
0
ARC
5
DF
100
AcDbEntity
8
head_cover
6
ByLayer
62
256
370
-1
100
AcDbCircle
10
-1.91846600556
20
1.77045
40
0.23925
100
AcDbArc
50
0
51
90
0
LINE
5
E0
100
AcDbEntity
8
head_cover
6
ByLayer
62
256
370
-1
100
AcDbLine
10
-1.99821600556
20
1.77045
11
-1.83871600556
21
1.77045
0
LINE
5
E1
100
AcDbEntity
8
head_cover
6
ByLayer
62
256
370
-1
100
AcDbLine
10
-1.91846600556
20
1.6907
11
-1.91846600556
21
1.8502
0
LINE
5
E2
100
AcDbEntity
8
head_cover
6
ByLayer
62
256
370
-1
100
AcDbLine
10
-1.99821600556
20
3.52495
11
-1.83871600556
21
3.52495
0
LINE
5
E3
100
AcDbEntity
8
head_cover
6
ByLayer
62
256
370
-1
100
AcDbLine
10
-1.91846600556
20
3.4452
11
-1.91846600556
21
3.6047
0
LINE
5
E4
100
AcDbEntity
8
head_cover
6
ByLayer
62
256
370
-1
100
AcDbLine
10
-1.99821600556
20
2.6477
11
-1.83871600556
21
2.6477
0
LINE
5
E5
100
AcDbEntity
8
head_cover
6
ByLayer
62
256
370
-1
100
AcDbLine
10
-1.91846600556
20
2.56795
11
-1.91846600556
21
2.72745
0
ARC
5
E6
100
AcDbEntity
8
head_cover
6
ByLayer
62
256
370
-1
100
AcDbCircle
10
-1.59946600556
20
3.52495
40
0.07975
100
AcDbArc
50
90
51
180.001480372
0
LINE
5
E7
100
AcDbEntity
8
head_cover
6
ByLayer
62
256
370
-1
100
AcDbLine
10
-1.59946599493
20
3.6047
11
-1.11650000556
21
3.6047
0
LINE
5
E8
100
AcDbEntity
8
head_cover
6
ByLayer
62
256
370
-1
100
AcDbLine
10
-1.59946599493
20
1.6907
11
-0.877250005563
21
1.6907
0
LINE
5
E9
100
AcDbEntity
8
head_cover
6
ByLayer
62
256
370
-1
100
AcDbLine
10
-1.91846596906
20
3.7642
11
1.91846588392
21
3.7642
0
LINE
5
EA
100
AcDbEntity
8
head_cover
6
ByLayer
62
256
370
-1
100
AcDbLine
10
1.11649999444
20
3.6047
11
1.59946590087
21
3.6047
0
LINE
5
EB
100
AcDbEntity
8
head_cover
6
ByLayer
62
256
370
-1
100
AcDbLine
10
0.877249994437
20
1.6907
11
1.59946594139
21
1.6907
0
LINE
5
EC
100
AcDbEntity
8
head_cover
6
ByLayer
62
256
370
-1
100
AcDbLine
10
-1.91846596906
20
1.5312
11
1.91846596906
21
1.5312
0
LINE
5
ED
100
AcDbEntity
8
head_cover
6
ByLayer
62
256
370
-1
100
AcDbLine
10
-0.638000005563
20
3.52495
11
-0.478500005563
21
3.52495
0
LINE
5
EE
100
AcDbEntity
8
head_cover
6
ByLayer
62
256
370
-1
100
AcDbLine
10
-0.558250005563
20
3.4452
11
-0.558250005563
21
3.6047
0
LINE
5
EF
100
AcDbEntity
8
head_cover
6
ByLayer
62
256
370
-1
100
AcDbLine
10
0.478499994437
20
3.52495
11
0.637999994437
21
3.52495
0
LINE
5
F0
100
AcDbEntity
8
head_cover
6
ByLayer
62
256
370
-1
100
AcDbLine
10
0.558249994437
20
3.4452
11
0.558249994437
21
3.6047
0
LINE
5
F1
100
AcDbEntity
8
head_cover
6
ByLayer
62
256
370
-1
100
AcDbLine
10
-0.0797500212837
20
4.8488
11
0.0797499787163
21
4.8488
0
LINE
5
F2
100
AcDbEntity
8
head_cover
6
ByLayer
62
256
370
-1
100
AcDbLine
10
-2.12836803769e-08
20
4.76905
11
-2.12836803769e-08
21
4.92855
0
LINE
5
F3
100
AcDbEntity
8
head_cover
6
ByLayer
62
256
370
-1
100
AcDbLine
10
-0.638000021284
20
4.45005
11
-0.478500021284
21
4.45005
0
LINE
5
F4
100
AcDbEntity
8
head_cover
6
ByLayer
62
256
370
-1
100
AcDbLine
10
-0.558250021284
20
4.3703
11
-0.558250021284
21
4.5298
0
LINE
5
F5
100
AcDbEntity
8
head_cover
6
ByLayer
62
256
370
-1
100
AcDbLine
10
0.478499978716
20
4.45005
11
0.637999978716
21
4.45005
0
LINE
5
F6
100
AcDbEntity
8
head_cover
6
ByLayer
62
256
370
-1
100
AcDbLine
10
0.558249978716
20
4.3703
11
0.558249978716
21
4.5298
0
ARC
5
F7
100
AcDbEntity
8
head_cover
6
ByLayer
62
256
370
-1
100
AcDbCircle
10
-0.996875021284
20
6.36405
40
0.07975
100
AcDbArc
50
90
51
180
0
LINE
5
F8
100
AcDbEntity
8
head_cover
6
ByLayer
62
256
370
-1
100
AcDbLine
10
-0.996875021284
20
6.4438
11
0.996874978716
21
6.4438
0
ARC
5
F9
100
AcDbEntity
8
head_cover
6
ByLayer
62
256
370
-1
100
AcDbCircle
10
0.996874978716
20
6.36405
40
0.07975
100
AcDbArc
50
0
51
90
0
LINE
5
FA
100
AcDbEntity
8
head_cover
6
ByLayer
62
256
370
-1
100
AcDbLine
10
1.07662497872
20
5.88555
11
1.07662497872
21
6.36405
0
ARC
5
FB
100
AcDbEntity
8
head_cover
6
ByLayer
62
256
370
-1
100
AcDbCircle
10
0.996874978716
20
5.88555
40
0.07975
100
AcDbArc
50
270
51
0
0
LINE
5
FC
100
AcDbEntity
8
head_cover
6
ByLayer
62
256
370
-1
100
AcDbLine
10
-0.996875021284
20
5.8058
11
0.996874978716
21
5.8058
0
LINE
5
FD
100
AcDbEntity
8
head_cover
6
ByLayer
62
256
370
-1
100
AcDbLine
10
-1.07662502128
20
5.88555
11
-1.07662502128
21
6.36405
0
ARC
5
FE
100
AcDbEntity
8
head_cover
6
ByLayer
62
256
370
-1
100
AcDbCircle
10
-0.996875021284
20
5.88555
40
0.07975
100
AcDbArc
50
180
51
270
0
LINE
5
FF
100
AcDbEntity
8
head_cover
6
ByLayer
62
256
370
-1
100
AcDbLine
10
-0.996875021284
20
6.4438
11
0.996874978716
21
6.4438
0
LINE
5
100
100
AcDbEntity
8
head_cover
6
ByLayer
62
256
370
-1
100
AcDbLine
10
-0.638000021284
20
6.20455
11
-0.478500021284
21
6.20455
0
LINE
5
101
100
AcDbEntity
8
head_cover
6
ByLayer
62
256
370
-1
100
AcDbLine
10
-0.558250021284
20
6.1248
11
-0.558250021284
21
6.2843
0
LINE
5
102
100
AcDbEntity
8
head_cover
6
ByLayer
62
256
370
-1
100
AcDbLine
10
0.478499978716
20
6.20455
11
0.637999978716
21
6.20455
0
LINE
5
103
100
AcDbEntity
8
head_cover
6
ByLayer
62
256
370
-1
100
AcDbLine
10
0.558249978716
20
6.1248
11
0.558249978716
21
6.2843
0
LINE
5
104
100
AcDbEntity
8
head_cover
6
ByLayer
62
256
370
-1
100
AcDbLine
10
-0.239250021284
20
5.1678
11
-0.669900021284
21
4.8448125
0
ARC
5
105
100
AcDbEntity
8
head_cover
6
ByLayer
62
256
370
-1
100
AcDbCircle
10
-0.478500021284
20
4.5896125
40
0.319
100
AcDbArc
50
126.869897646
51
180
0
LINE
5
106
100
AcDbEntity
8
head_cover
6
ByLayer
62
256
370
-1
100
AcDbLine
10
0.239249978716
20
5.1678
11
0.669899978716
21
4.8448125
0
ARC
5
107
100
AcDbEntity
8
head_cover
6
ByLayer
62
256
370
-1
100
AcDbCircle
10
0.478499978716
20
4.5896125
40
0.319
100
AcDbArc
50
0
51
53.1301023542
0
ARC
5
108
100
AcDbEntity
8
head_cover
6
ByLayer
62
256
370
-1
100
AcDbCircle
10
-2.12836803769e-08
20
4.8488
40
0.39875
100
AcDbArc
50
53.1301023542
51
126.869897646
0
ARC
5
109
100
AcDbEntity
8
head_cover
6
ByLayer
62
256
370
-1
100
AcDbCircle
10
-0.558250021284
20
4.45005
40
0.23925
100
AcDbArc
50
180
51
270
0
ARC
5
10A
100
AcDbEntity
8
head_cover
6
ByLayer
62
256
370
-1
100
AcDbCircle
10
0.558249978716
20
4.45005
40
0.23925
100
AcDbArc
50
270
51
0
0
LINE
5
10B
100
AcDbEntity
8
head_cover
6
ByLayer
62
256
370
-1
100
AcDbLine
10
-0.797500021284
20
4.45005
11
-0.797500021284
21
4.5896125
0
LINE
5
10C
100
AcDbEntity
8
head_cover
6
ByLayer
62
256
370
-1
100
AcDbLine
10
0.797499978716
20
4.45005
11
0.797499978716
21
4.5896125
0
LINE
5
10D
100
AcDbEntity
8
head_cover
6
ByLayer
62
256
370
-1
100
AcDbLine
10
-2.15771602128
20
4.45005
11
-2.15771602128
21
6.20455
0
LINE
5
10E
100
AcDbEntity
8
head_cover
6
ByLayer
62
256
370
-1
100
AcDbLine
10
2.15771597872
20
4.45005
11
2.15771597872
21
6.20455
0
ARC
5
10F
100
AcDbEntity
8
head_cover
6
ByLayer
62
256
370
-1
100
AcDbCircle
10
1.91846597872
20
6.20455
40
0.23925
100
AcDbArc
50
6.79e-14
51
90
0
ARC
5
110
100
AcDbEntity
8
head_cover
6
ByLayer
62
256
370
-1
100
AcDbCircle
10
1.91846597872
20
4.45005
40
0.23925
100
AcDbArc
50
270
51
0
0
LINE
5
111
100
AcDbEntity
8
head_cover
6
ByLayer
62
256
370
-1
100
AcDbLine
10
1.83871597872
20
6.20455
11
1.99821597872
21
6.20455
0
LINE
5
112
100
AcDbEntity
8
head_cover
6
ByLayer
62
256
370
-1
100
AcDbLine
10
1.91846597872
20
6.1248
11
1.91846597872
21
6.2843
0
LINE
5
113
100
AcDbEntity
8
head_cover
6
ByLayer
62
256
370
-1
100
AcDbLine
10
1.83871597872
20
5.3273
11
1.99821597872
21
5.3273
0
LINE
5
114
100
AcDbEntity
8
head_cover
6
ByLayer
62
256
370
-1
100
AcDbLine
10
1.91846597872
20
5.24755
11
1.91846597872
21
5.40705
0
LINE
5
115
100
AcDbEntity
8
head_cover
6
ByLayer
62
256
370
-1
100
AcDbLine
10
1.83871597872
20
4.45005
11
1.99821597872
21
4.45005
0
LINE
5
116
100
AcDbEntity
8
head_cover
6
ByLayer
62
256
370
-1
100
AcDbLine
10
1.91846597872
20
4.3703
11
1.91846597872
21
4.5298
0
CIRCLE
5
117
100
AcDbEntity
8
head_cover
6
ByLayer
62
256
370
-1
100
AcDbCircle
10
1.91846597872
20
4.45005
40
0.23925
0
CIRCLE
5
118
100
AcDbEntity
8
head_cover
6
ByLayer
62
256
370
-1
100
AcDbCircle
10
1.91846597872
20
5.3273
40
0.23925
0
CIRCLE
5
119
100
AcDbEntity
8
head_cover
6
ByLayer
62
256
370
-1
100
AcDbCircle
10
1.91846597872
20
6.20455
40
0.23925
0
ARC
5
11A
100
AcDbEntity
8
head_cover
6
ByLayer
62
256
370
-1
100
AcDbCircle
10
-1.91846602128
20
6.20455
40
0.23925
100
AcDbArc
50
6.79e-14
51
90
0
ARC
5
11B
100
AcDbEntity
8
head_cover
6
ByLayer
62
256
370
-1
100
AcDbCircle
10
-1.91846602128
20
4.45005
40
0.23925
100
AcDbArc
50
270
51
0
0
LINE
5
11C
100
AcDbEntity
8
head_cover
6
ByLayer
62
256
370
-1
100
AcDbLine
10
-1.99821602128
20
6.20455
11
-1.83871602128
21
6.20455
0
LINE
5
11D
100
AcDbEntity
8
head_cover
6
ByLayer
62
256
370
-1
100
AcDbLine
10
-1.91846602128
20
6.1248
11
-1.91846602128
21
6.2843
0
LINE
5
11E
100
AcDbEntity
8
head_cover
6
ByLayer
62
256
370
-1
100
AcDbLine
10
-1.99821602128
20
5.3273
11
-1.83871602128
21
5.3273
0
LINE
5
11F
100
AcDbEntity
8
head_cover
6
ByLayer
62
256
370
-1
100
AcDbLine
10
-1.91846602128
20
5.24755
11
-1.91846602128
21
5.40705
0
LINE
5
120
100
AcDbEntity
8
head_cover
6
ByLayer
62
256
370
-1
100
AcDbLine
10
-1.99821602128
20
4.45005
11
-1.83871602128
21
4.45005
0
LINE
5
121
100
AcDbEntity
8
head_cover
6
ByLayer
62
256
370
-1
100
AcDbLine
10
-1.91846602128
20
4.3703
11
-1.91846602128
21
4.5298
0
CIRCLE
5
122
100
AcDbEntity
8
head_cover
6
ByLayer
62
256
370
-1
100
AcDbCircle
10
-1.91846602128
20
4.45005
40
0.23925
0
CIRCLE
5
123
100
AcDbEntity
8
head_cover
6
ByLayer
62
256
370
-1
100
AcDbCircle
10
-1.91846602128
20
5.3273
40
0.23925
0
CIRCLE
5
124
100
AcDbEntity
8
head_cover
6
ByLayer
62
256
370
-1
100
AcDbCircle
10
-1.91846602128
20
6.20455
40
0.23925
0
LINE
5
125
100
AcDbEntity
8
head_cover
6
ByLayer
62
256
370
-1
100
AcDbLine
10
-1.91846595331
20
6.4438
11
-0.996875021284
21
6.4438
0
LINE
5
126
100
AcDbEntity
8
head_cover
6
ByLayer
62
256
370
-1
100
AcDbLine
10
-1.91846595331
20
4.2108
11
1.91846595331
21
4.2108
0
LINE
5
127
100
AcDbEntity
8
head_cover
6
ByLayer
62
256
370
-1
100
AcDbLine
10
0.996874978716
20
6.4438
11
1.91846591873
21
6.4438
0
LINE
5
128
100
AcDbEntity
8
head
6
ByLayer
62
256
370
-1
100
AcDbLine
10
-0.87725
20
1.41664457943e-16
11
-0.87725
21
-5.104
0
LINE
5
129
100
AcDbEntity
8
head
6
ByLayer
62
256
370
-1
100
AcDbLine
10
0.87725
20
1.41664457943e-16
11
0.87725
21
-5.104
0
LINE
5
12A
100
AcDbEntity
8
head
6
ByLayer
62
256
370
-1
100
AcDbLine
10
-1.595
20
-3.58875
11
-0.1595
21
-3.58875
0
LINE
5
12B
100
AcDbEntity
8
head
6
ByLayer
62
256
370
-1
100
AcDbLine
10
0.1595
20
-3.58875
11
1.595
21
-3.58875
0
LINE
5
12C
100
AcDbEntity
8
head
6
ByLayer
62
256
370
-1
100
AcDbLine
10
1.595
20
-3.58875
11
1.595
21
-3.828
0
LINE
5
12D
100
AcDbEntity
8
head
6
ByLayer
62
256
370
-1
100
AcDbLine
10
0.1595
20
-3.58875
11
0.1595
21
-3.828
0
LINE
5
12E
100
AcDbEntity
8
head
6
ByLayer
62
256
370
-1
100
AcDbLine
10
-0.1595
20
-3.58875
11
-0.1595
21
-3.828
0
LINE
5
12F
100
AcDbEntity
8
head
6
ByLayer
62
256
370
-1
100
AcDbLine
10
-1.595
20
-3.58875
11
-1.595
21
-3.828
0
LINE
5
130
100
AcDbEntity
8
head
6
ByLayer
62
256
370
-1
100
AcDbLine
10
2.15771601572
20
-2.7115
11
2.15771601572
21
-3.828
0
LINE
5
131
100
AcDbEntity
8
head
6
ByLayer
62
256
370
-1
100
AcDbLine
10
-2.15771598428
20
-2.7115
11
-2.15771598428
21
-3.828
0
LINE
5
132
100
AcDbEntity
8
head
6
ByLayer
62
256
370
-1
100
AcDbLine
10
-2.15771598428
20
-2.7115
11
2.15771601572
21
-2.7115
0
LINE
5
133
100
AcDbEntity
8
head
6
ByLayer
62
256
370
-1
100
AcDbLine
10
-2.15771598428
20
-3.828
11
2.15771601572
21
-3.828
0
LINE
5
134
100
AcDbEntity
8
head
6
ByLayer
62
256
370
-1
100
AcDbLine
10
-2.15771598428
20
-2.79125
11
-2.23746598428
21
-2.79125
0
LINE
5
135
100
AcDbEntity
8
head
6
ByLayer
62
256
370
-1
100
AcDbLine
10
-2.15771598428
20
-3.58875
11
-2.23746598428
21
-3.58875
0
LINE
5
136
100
AcDbEntity
8
head
6
ByLayer
62
256
370
-1
100
AcDbLine
10
2.15771601572
20
-2.79125
11
2.23746601572
21
-2.79125
0
LINE
5
137
100
AcDbEntity
8
head
6
ByLayer
62
256
370
-1
100
AcDbLine
10
2.15771601572
20
-3.58875
11
2.23746601572
21
-3.58875
0
LINE
5
138
100
AcDbEntity
8
head
6
ByLayer
62
256
370
-1
100
AcDbLine
10
-2.47671598428
20
-3.19
11
2.47671601572
21
-3.19
0
LINE
5
139
100
AcDbEntity
8
head
6
ByLayer
62
256
370
-1
100
AcDbLine
10
-2.23746598428
20
-2.79125
11
-2.23746598428
21
-3.58875
0
LINE
5
13A
100
AcDbEntity
8
head
6
ByLayer
62
256
370
-1
100
AcDbLine
10
2.23746601572
20
-2.79125
11
2.23746601572
21
-3.58875
0
LINE
5
13B
100
AcDbEntity
8
head
6
ByLayer
62
256
370
-1
100
AcDbLine
10
-2.15771598428
20
-2.95075
11
-1.19625
21
-2.95075
0
LINE
5
13C
100
AcDbEntity
8
head
6
ByLayer
62
256
370
-1
100
AcDbLine
10
-0.957
20
-3.19
11
-0.957
21
-3.58875
0
ARC
5
13D
100
AcDbEntity
8
head
6
ByLayer
62
256
370
-1
100
AcDbCircle
10
-1.19625
20
-3.19
40
0.23925
100
AcDbArc
50
0
51
90
0
LINE
5
13E
100
AcDbEntity
8
head
6
ByLayer
62
256
370
-1
100
AcDbLine
10
1.19625
20
-2.95075
11
2.15771601572
21
-2.95075
0
LINE
5
13F
100
AcDbEntity
8
head
6
ByLayer
62
256
370
-1
100
AcDbLine
10
0.957
20
-3.19
11
0.957
21
-3.58875
0
ARC
5
140
100
AcDbEntity
8
head
6
ByLayer
62
256
370
-1
100
AcDbCircle
10
1.19625
20
-3.19
40
0.23925
100
AcDbArc
50
90
51
180
0
LINE
5
141
100
AcDbEntity
8
head
6
ByLayer
62
256
370
-1
100
AcDbLine
10
-2.15771598428
20
-3.42925
11
-1.51525
21
-3.42925
0
LINE
5
142
100
AcDbEntity
8
head
6
ByLayer
62
256
370
-1
100
AcDbLine
10
-1.4355
20
-3.509
11
-1.4355
21
-3.58875
0
ARC
5
143
100
AcDbEntity
8
head
6
ByLayer
62
256
370
-1
100
AcDbCircle
10
-1.51525
20
-3.509
40
0.07975
100
AcDbArc
50
0
51
90
0
LINE
5
144
100
AcDbEntity
8
head
6
ByLayer
62
256
370
-1
100
AcDbLine
10
1.4355
20
-3.509
11
1.4355
21
-3.58875
0
LINE
5
145
100
AcDbEntity
8
head
6
ByLayer
62
256
370
-1
100
AcDbLine
10
1.51525
20
-3.42925
11
2.15771601572
21
-3.42925
0
ARC
5
146
100
AcDbEntity
8
head
6
ByLayer
62
256
370
-1
100
AcDbCircle
10
1.51525
20
-3.509
40
0.07975
100
AcDbArc
50
90
51
180
0
LINE
5
147
100
AcDbEntity
8
head_wall_outer
6
ByLayer
62
256
370
-1
100
AcDbLine
10
2.15771601572
20
-0.87725
11
2.15771601572
21
0.87725
0
ARC
5
148
100
AcDbEntity
8
head_wall_outer
6
ByLayer
62
256
370
-1
100
AcDbCircle
10
1.91846601572
20
0.87725
40
0.23925
100
AcDbArc
50
6.79e-14
51
90
0
ARC
5
149
100
AcDbEntity
8
head_wall_outer
6
ByLayer
62
256
370
-1
100
AcDbCircle
10
1.91846601572
20
-0.87725
40
0.23925
100
AcDbArc
50
270
51
0
0
ARC
5
14A
100
AcDbEntity
8
head_wall_outer
6
ByLayer
62
256
370
-1
100
AcDbCircle
10
-1.91846598428
20
0.87725
40
0.23925
100
AcDbArc
50
90
51
180
0
ARC
5
14B
100
AcDbEntity
8
head_wall_outer
6
ByLayer
62
256
370
-1
100
AcDbCircle
10
-1.91846598428
20
-0.87725
40
0.23925
100
AcDbArc
50
180
51
270
0
LINE
5
14C
100
AcDbEntity
8
head_wall_outer
6
ByLayer
62
256
370
-1
100
AcDbLine
10
-2.15771598428
20
-0.87725
11
-2.15771598428
21
0.87725
0
LINE
5
14D
100
AcDbEntity
8
head_wall_outer
6
ByLayer
62
256
370
-1
100
AcDbLine
10
-1.91846594777
20
1.1165
11
1.91846590521
21
1.1165
0
LINE
5
14E
100
AcDbEntity
8
head_wall_outer
6
ByLayer
62
256
370
-1
100
AcDbLine
10
-1.91846594777
20
-1.1165
11
1.91846599034
21
-1.1165
0
ARC
5
14F
100
AcDbEntity
8
head_wall_inner
6
ByLayer
62
256
370
-1
100
AcDbCircle
10
-0.87724998428
20
-0.87725
40
0.07975
100
AcDbArc
50
270
51
2.54e-14
0
ARC
5
150
100
AcDbEntity
8
head_wall_inner
6
ByLayer
62
256
370
-1
100
AcDbCircle
10
-0.23924998428
20
-0.87725
40
0.07975
100
AcDbArc
50
180
51
270
0
LINE
5
151
100
AcDbEntity
8
head_wall_inner
6
ByLayer
62
256
370
-1
100
AcDbLine
10
-0.23924998428
20
-0.957
11
0.23925001572
21
-0.957
0
ARC
5
152
100
AcDbEntity
8
head_wall_inner
6
ByLayer
62
256
370
-1
100
AcDbCircle
10
0.23925001572
20
-0.87725
40
0.07975
100
AcDbArc
50
270
51
2.54e-14
0
ARC
5
153
100
AcDbEntity
8
head_wall_inner
6
ByLayer
62
256
370
-1
100
AcDbCircle
10
0.87725001572
20
-0.87725
40
0.07975
100
AcDbArc
50
180
51
270
0
ARC
5
154
100
AcDbEntity
8
head_wall_inner
6
ByLayer
62
256
370
-1
100
AcDbCircle
10
0.55825001572
20
-0.87725
40
0.23925
100
AcDbArc
50
0
51
180
0
ARC
5
155
100
AcDbEntity
8
head_wall_inner
6
ByLayer
62
256
370
-1
100
AcDbCircle
10
-0.55824998428
20
-0.87725
40
0.23925
100
AcDbArc
50
0
51
180
0
ARC
5
156
100
AcDbEntity
8
head_wall_inner
6
ByLayer
62
256
370
-1
100
AcDbCircle
10
1.59946601572
20
-0.87725
40
0.07975
100
AcDbArc
50
270
51
2.54e-14
0
ARC
5
157
100
AcDbEntity
8
head_wall_inner
6
ByLayer
62
256
370
-1
100
AcDbCircle
10
1.91846601572
20
-0.55825
40
0.07975
100
AcDbArc
50
270
51
0
0
LINE
5
158
100
AcDbEntity
8
head_wall_inner
6
ByLayer
62
256
370
-1
100
AcDbLine
10
1.99821601572
20
-0.55825
11
1.99821601572
21
-0.319
0
ARC
5
159
100
AcDbEntity
8
head_wall_inner
6
ByLayer
62
256
370
-1
100
AcDbCircle
10
1.91846601572
20
-0.319
40
0.07975
100
AcDbArc
50
0
51
90
0
ARC
5
15A
100
AcDbEntity
8
head_wall_inner
6
ByLayer
62
256
370
-1
100
AcDbCircle
10
1.91846601572
20
0.319
40
0.07975
100
AcDbArc
50
270
51
0
0
LINE
5
15B
100
AcDbEntity
8
head_wall_inner
6
ByLayer
62
256
370
-1
100
AcDbLine
10
1.99821601572
20
0.319
11
1.99821601572
21
0.55825
0
ARC
5
15C
100
AcDbEntity
8
head_wall_inner
6
ByLayer
62
256
370
-1
100
AcDbCircle
10
1.91846601572
20
0.55825
40
0.07975
100
AcDbArc
50
0
51
90
0
ARC
5
15D
100
AcDbEntity
8
head_wall_inner
6
ByLayer
62
256
370
-1
100
AcDbCircle
10
1.59946601572
20
0.87725
40
0.07975
100
AcDbArc
50
0
51
90
0
ARC
5
15E
100
AcDbEntity
8
head_wall_inner
6
ByLayer
62
256
370
-1
100
AcDbCircle
10
1.91846601572
20
0.87725
40
0.23925
100
AcDbArc
50
180
51
270
0
ARC
5
15F
100
AcDbEntity
8
head_wall_inner
6
ByLayer
62
256
370
-1
100
AcDbCircle
10
1.91846601572
20
0
40
0.23925
100
AcDbArc
50
90
51
270
0
ARC
5
160
100
AcDbEntity
8
head_wall_inner
6
ByLayer
62
256
370
-1
100
AcDbCircle
10
1.91846601572
20
-0.87725
40
0.23925
100
AcDbArc
50
90
51
180
0
ARC
5
161
100
AcDbEntity
8
head_wall_inner
6
ByLayer
62
256
370
-1
100
AcDbCircle
10
-1.91846598428
20
0.55825
40
0.07975
100
AcDbArc
50
90
51
180
0
LINE
5
162
100
AcDbEntity
8
head_wall_inner
6
ByLayer
62
256
370
-1
100
AcDbLine
10
-1.99821598428
20
0.319
11
-1.99821598428
21
0.55825
0
ARC
5
163
100
AcDbEntity
8
head_wall_inner
6
ByLayer
62
256
370
-1
100
AcDbCircle
10
-1.91846598428
20
0.319
40
0.07975
100
AcDbArc
50
180
51
270
0
ARC
5
164
100
AcDbEntity
8
head_wall_inner
6
ByLayer
62
256
370
-1
100
AcDbCircle
10
-1.91846598428
20
-0.319
40
0.07975
100
AcDbArc
50
90
51
180
0
LINE
5
165
100
AcDbEntity
8
head_wall_inner
6
ByLayer
62
256
370
-1
100
AcDbLine
10
-1.99821598428
20
-0.55825
11
-1.99821598428
21
-0.319
0
ARC
5
166
100
AcDbEntity
8
head_wall_inner
6
ByLayer
62
256
370
-1
100
AcDbCircle
10
-1.91846598428
20
-0.55825
40
0.07975
100
AcDbArc
50
180
51
270
0
ARC
5
167
100
AcDbEntity
8
head_wall_inner
6
ByLayer
62
256
370
-1
100
AcDbCircle
10
-1.59946598428
20
-0.87725
40
0.07975
100
AcDbArc
50
180
51
270
0
ARC
5
168
100
AcDbEntity
8
head_wall_inner
6
ByLayer
62
256
370
-1
100
AcDbCircle
10
-1.91846598428
20
0.87725
40
0.23925
100
AcDbArc
50
270
51
359.999999303
0
ARC
5
169
100
AcDbEntity
8
head_wall_inner
6
ByLayer
62
256
370
-1
100
AcDbCircle
10
-1.91846598428
20
0
40
0.23925
100
AcDbArc
50
269.999999014
51
90
0
ARC
5
16A
100
AcDbEntity
8
head_wall_inner
6
ByLayer
62
256
370
-1
100
AcDbCircle
10
-1.91846598428
20
-0.87725
40
0.23925
100
AcDbArc
50
0
51
90
0
ARC
5
16B
100
AcDbEntity
8
head_wall_inner
6
ByLayer
62
256
370
-1
100
AcDbCircle
10
-1.59946598428
20
0.87725
40
0.07975
100
AcDbArc
50
90
51
180.001480372
0
LINE
5
16C
100
AcDbEntity
8
head_wall_inner
6
ByLayer
62
256
370
-1
100
AcDbLine
10
-1.59946597365
20
-0.957
11
-0.87724998428
21
-0.957
0
LINE
5
16D
100
AcDbEntity
8
head_wall_inner
6
ByLayer
62
256
370
-1
100
AcDbLine
10
0.87725001572
20
-0.957
11
1.59946596268
21
-0.957
0
ARC
5
16E
100
AcDbEntity
8
head_wall_inner
6
ByLayer
62
256
370
-1
100
AcDbCircle
10
-0.87724998428
20
0.87725
40
0.07975
100
AcDbArc
50
360
51
90
0
ARC
5
16F
100
AcDbEntity
8
head_wall_inner
6
ByLayer
62
256
370
-1
100
AcDbCircle
10
-0.23924998428
20
0.87725
40
0.07975
100
AcDbArc
50
90
51
180
0
LINE
5
170
100
AcDbEntity
8
head_wall_inner
6
ByLayer
62
256
370
-1
100
AcDbLine
10
-0.23924998428
20
0.957
11
0.23925001572
21
0.957
0
ARC
5
171
100
AcDbEntity
8
head_wall_inner
6
ByLayer
62
256
370
-1
100
AcDbCircle
10
0.23925001572
20
0.87725
40
0.07975
100
AcDbArc
50
360
51
90
0
ARC
5
172
100
AcDbEntity
8
head_wall_inner
6
ByLayer
62
256
370
-1
100
AcDbCircle
10
0.87725001572
20
0.87725
40
0.07975
100
AcDbArc
50
90
51
180
0
ARC
5
173
100
AcDbEntity
8
head_wall_inner
6
ByLayer
62
256
370
-1
100
AcDbCircle
10
0.55825001572
20
0.87725
40
0.23925
100
AcDbArc
50
180
51
0
0
ARC
5
174
100
AcDbEntity
8
head_wall_inner
6
ByLayer
62
256
370
-1
100
AcDbCircle
10
-0.55824998428
20
0.87725
40
0.23925
100
AcDbArc
50
180
51
0
0
LINE
5
175
100
AcDbEntity
8
head_wall_inner
6
ByLayer
62
256
370
-1
100
AcDbLine
10
-1.59946597365
20
0.957
11
-0.87724998428
21
0.957
0
LINE
5
176
100
AcDbEntity
8
head_wall_inner
6
ByLayer
62
256
370
-1
100
AcDbLine
10
0.87725001572
20
0.957
11
1.59946596268
21
0.957
0
CIRCLE
5
177
100
AcDbEntity
8
head_wall_holes
6
ByLayer
62
256
370
-1
100
AcDbCircle
10
-1.91846598428
20
0.87725
40
0.07975
0
CIRCLE
5
178
100
AcDbEntity
8
head_wall_holes
6
ByLayer
62
256
370
-1
100
AcDbCircle
10
-0.55824998428
20
0.87725
40
0.07975
0
CIRCLE
5
179
100
AcDbEntity
8
head_wall_holes
6
ByLayer
62
256
370
-1
100
AcDbCircle
10
0.55825001572
20
0.87725
40
0.07975
0
CIRCLE
5
17A
100
AcDbEntity
8
head_wall_holes
6
ByLayer
62
256
370
-1
100
AcDbCircle
10
1.91846601572
20
0.87725
40
0.07975
0
CIRCLE
5
17B
100
AcDbEntity
8
head_wall_holes
6
ByLayer
62
256
370
-1
100
AcDbCircle
10
1.91846601572
20
0
40
0.07975
0
CIRCLE
5
17C
100
AcDbEntity
8
head_wall_holes
6
ByLayer
62
256
370
-1
100
AcDbCircle
10
1.91846601572
20
-0.87725
40
0.07975
0
CIRCLE
5
17D
100
AcDbEntity
8
head_wall_holes
6
ByLayer
62
256
370
-1
100
AcDbCircle
10
0.55825001572
20
-0.87725
40
0.07975
0
CIRCLE
5
17E
100
AcDbEntity
8
head_wall_holes
6
ByLayer
62
256
370
-1
100
AcDbCircle
10
-0.55824998428
20
-0.87725
40
0.07975
0
CIRCLE
5
17F
100
AcDbEntity
8
head_wall_holes
6
ByLayer
62
256
370
-1
100
AcDbCircle
10
-1.91846598428
20
-0.87725
40
0.07975
0
CIRCLE
5
180
100
AcDbEntity
8
head_wall_holes
6
ByLayer
62
256
370
-1
100
AcDbCircle
10
-1.91846598428
20
0
40
0.07975
0
ENDSEC
0
SECTION
2
OBJECTS
0
DICTIONARY
5
C
330
0
100
AcDbDictionary
281
1
3
ACAD_GROUP
350
D
0
DICTIONARY
5
D
330
C
100
AcDbDictionary
281
1
0
ENDSEC
0
EOF
