999
dxflib 2.2.0.0
  0
SECTION
  2
HEADER
  9
$ACADVER
  1
AC1015
  9
$HANDSEED
  5
FFFF
  9
$DIMASZ
 40
0.1
  9
$PLIMMIN
 10
0.0
 20
0.0
  9
$DIMEXE
 40
0.05
  9
$DIMGAP
 40
0.025
  9
$PLIMMAX
 10
8.2677165354330722
 20
11.6929133858267722
  9
$INSUNITS
 70
1
  9
$DIMSTYLE
  2
Standard
  9
$DIMEXO
 40
0.025
  9
$DIMTXT
 40
0.1
  0
ENDSEC
  0
SECTION
  2
TABLES
  0
TABLE
  2
VPORT
  5
8
100
AcDbSymbolTable
 70
1
  0
VPORT
  5
30
100
AcDbSymbolTableRecord
100
AcDbViewportTableRecord
  2
*Active
 70
0
 10
0.0
 20
0.0
 11
1.0
 21
1.0
 12
286.3055555555554861
 22
148.5
 13
0.0
 23
0.0
 14
10.0
 24
10.0
 15
10.0
 25
10.0
 16
0.0
 26
0.0
 36
1.0
 17
0.0
 27
0.0
 37
0.0
 40
297.0
 41
1.92798353909465
 42
50.0
 43
0.0
 44
0.0
 50
0.0
 51
0.0
 71
0
 72
100
 73
1
 74
3
 75
1
 76
1
 77
0
 78
0
281
0
 65
1
110
0.0
120
0.0
130
0.0
111
1.0
121
0.0
131
0.0
112
0.0
122
1.0
132
0.0
 79
0
146
0.0
  0
ENDTAB
  0
TABLE
  2
LTYPE
  5
5
100
AcDbSymbolTable
 70
21
  0
LTYPE
  5
14
100
AcDbSymbolTableRecord
100
AcDbLinetypeTableRecord
  2
ByBlock
 70
0
  3

 72
65
 73
0
 40
0.0
  0
LTYPE
  5
15
100
AcDbSymbolTableRecord
100
AcDbLinetypeTableRecord
  2
ByLayer
 70
0
  3

 72
65
 73
0
 40
0.0
  0
LTYPE
  5
16
100
AcDbSymbolTableRecord
100
AcDbLinetypeTableRecord
  2
CONTINUOUS
 70
0
  3
Solid line
 72
65
 73
0
 40
0.0
  0
LTYPE
  5
31
100
AcDbSymbolTableRecord
100
AcDbLinetypeTableRecord
  2
DOT
 70
0
  3
Dot . . . . . . . . . . . . . . . . . . . . . .
 72
65
 73
2
 40
6.3499999999999996
 49
0.0
 74
0
 49
-6.3499999999999996
 74
0
  0
LTYPE
  5
32
100
AcDbSymbolTableRecord
100
AcDbLinetypeTableRecord
  2
DOT2
 70
0
  3
Dot (.5x) .....................................
 72
65
 73
2
 40
3.1749999999999998
 49
0.0
 74
0
 49
-3.1749999999999998
 74
0
  0
LTYPE
  5
33
100
AcDbSymbolTableRecord
100
AcDbLinetypeTableRecord
  2
DOTX2
 70
0
  3
Dot (2x) .  .  .  .  .  .  .  .  .  .  .  .  .
 72
65
 73
2
 40
12.6999999999999993
 49
0.0
 74
0
 49
-12.6999999999999993
 74
0
  0
LTYPE
  5
34
100
AcDbSymbolTableRecord
100
AcDbLinetypeTableRecord
  2
DASHED
 70
0
  3
Dashed __ __ __ __ __ __ __ __ __ __ __ __ __ _
 72
65
 73
2
 40
19.0500000000000007
 49
12.6999999999999993
 74
0
 49
-6.3499999999999996
 74
0
  0
LTYPE
  5
35
100
AcDbSymbolTableRecord
100
AcDbLinetypeTableRecord
  2
DASHED2
 70
0
  3
Dashed (.5x) _ _ _ _ _ _ _ _ _ _ _ _ _ _ _ _ _
 72
65
 73
2
 40
9.5250000000000004
 49
6.3499999999999996
 74
0
 49
-3.1749999999999998
 74
0
  0
LTYPE
  5
36
100
AcDbSymbolTableRecord
100
AcDbLinetypeTableRecord
  2
DASHEDX2
 70
0
  3
Dashed (2x) ____  ____  ____  ____  ____  ___
 72
65
 73
2
 40
38.1000000000000014
 49
25.3999999999999986
 74
0
 49
-12.6999999999999993
 74
0
  0
LTYPE
  5
37
100
AcDbSymbolTableRecord
100
AcDbLinetypeTableRecord
  2
DASHDOT
 70
0
  3
Dash dot __ . __ . __ . __ . __ . __ . __ . __
 72
65
 73
4
 40
25.3999999999999986
 49
12.6999999999999993
 74
0
 49
-6.3499999999999996
 74
0
 49
0.0
 74
0
 49
-6.3499999999999996
 74
0
  0
LTYPE
  5
38
100
AcDbSymbolTableRecord
100
AcDbLinetypeTableRecord
  2
DASHDOT2
 70
0
  3
Dash dot (.5x) _._._._._._._._._._._._._._._.
 72
65
 73
4
 40
12.6999999999999993
 49
6.3499999999999996
 74
0
 49
-3.1749999999999998
 74
0
 49
0.0
 74
0
 49
-3.1749999999999998
 74
0
  0
LTYPE
  5
39
100
AcDbSymbolTableRecord
100
AcDbLinetypeTableRecord
  2
DASHDOTX2
 70
0
  3
Dash dot (2x) ____  .  ____  .  ____  .  ___
 72
65
 73
4
 40
50.7999999999999972
 49
25.3999999999999986
 74
0
 49
-12.6999999999999993
 74
0
 49
0.0
 74
0
 49
-12.6999999999999993
 74
0
  0
LTYPE
  5
3A
100
AcDbSymbolTableRecord
100
AcDbLinetypeTableRecord
  2
DIVIDE
 70
0
  3
Divide ____ . . ____ . . ____ . . ____ . . ____
 72
65
 73
6
 40
31.75
 49
12.6999999999999993
 74
0
 49
-6.3499999999999996
 74
0
 49
0.0
 74
0
 49
-6.3499999999999996
 74
0
 49
0.0
 74
0
 49
-6.3499999999999996
 74
0
  0
LTYPE
  5
3B
100
AcDbSymbolTableRecord
100
AcDbLinetypeTableRecord
  2
DIVIDE2
 70
0
  3
Divide (.5x) __..__..__..__..__..__..__..__.._
 72
65
 73
6
 40
15.875
 49
6.3499999999999996
 74
0
 49
-3.1749999999999998
 74
0
 49
0.0
 74
0
 49
-3.1749999999999998
 74
0
 49
0.0
 74
0
 49
-3.1749999999999998
 74
0
  0
LTYPE
  5
3C
100
AcDbSymbolTableRecord
100
AcDbLinetypeTableRecord
  2
DIVIDEX2
 70
0
  3
Divide (2x) ________  .  .  ________  .  .  _
 72
65
 73
6
 40
63.5
 49
25.3999999999999986
 74
0
 49
-12.6999999999999993
 74
0
 49
0.0
 74
0
 49
-12.6999999999999993
 74
0
 49
0.0
 74
0
 49
-12.6999999999999993
 74
0
  0
LTYPE
  5
3D
100
AcDbSymbolTableRecord
100
AcDbLinetypeTableRecord
  2
CENTER
 70
0
  3
Center ____ _ ____ _ ____ _ ____ _ ____ _ ____
 72
65
 73
4
 40
50.7999999999999972
 49
31.75
 74
0
 49
-6.3499999999999996
 74
0
 49
6.3499999999999996
 74
0
 49
-6.3499999999999996
 74
0
  0
LTYPE
  5
3E
100
AcDbSymbolTableRecord
100
AcDbLinetypeTableRecord
  2
CENTER2
 70
0
  3
Center (.5x) ___ _ ___ _ ___ _ ___ _ ___ _ ___
 72
65
 73
4
 40
28.5749999999999993
 49
19.0500000000000007
 74
0
 49
-3.1749999999999998
 74
0
 49
3.1749999999999998
 74
0
 49
-3.1749999999999998
 74
0
  0
LTYPE
  5
3F
100
AcDbSymbolTableRecord
100
AcDbLinetypeTableRecord
  2
CENTERX2
 70
0
  3
Center (2x) ________  __  ________  __  _____
 72
65
 73
4
 40
101.5999999999999943
 49
63.5
 74
0
 49
-12.6999999999999993
 74
0
 49
12.6999999999999993
 74
0
 49
-12.6999999999999993
 74
0
  0
LTYPE
  5
40
100
AcDbSymbolTableRecord
100
AcDbLinetypeTableRecord
  2
BORDER
 70
0
  3
Border __ __ . __ __ . __ __ . __ __ . __ __ .
 72
65
 73
6
 40
44.4500000000000028
 49
12.6999999999999993
 74
0
 49
-6.3499999999999996
 74
0
 49
12.6999999999999993
 74
0
 49
-6.3499999999999996
 74
0
 49
0.0
 74
0
 49
-6.3499999999999996
 74
0
  0
LTYPE
  5
41
100
AcDbSymbolTableRecord
100
AcDbLinetypeTableRecord
  2
BORDER2
 70
0
  3
Border (.5x) __.__.__.__.__.__.__.__.__.__.__.
 72
65
 73
6
 40
22.2250000000000014
 49
6.3499999999999996
 74
0
 49
-3.1749999999999998
 74
0
 49
6.3499999999999996
 74
0
 49
-3.1749999999999998
 74
0
 49
0.0
 74
0
 49
-3.1749999999999998
 74
0
  0
LTYPE
  5
42
100
AcDbSymbolTableRecord
100
AcDbLinetypeTableRecord
  2
BORDERX2
 70
0
  3
Border (2x) ____  ____  .  ____  ____  .  ___
 72
65
 73
6
 40
88.9000000000000057
 49
25.3999999999999986
 74
0
 49
-12.6999999999999993
 74
0
 49
25.3999999999999986
 74
0
 49
-12.6999999999999993
 74
0
 49
0.0
 74
0
 49
-12.6999999999999993
 74
0
  0
ENDTAB
  0
TABLE
  2
LAYER
  5
2
100
AcDbSymbolTable
 70
3
  0
LAYER
  5
10
100
AcDbSymbolTableRecord
100
AcDbLayerTableRecord
  2
0
 70
0
 62
7
  6
CONTINUOUS
370
0
390
F
  0
LAYER
  5
43
100
AcDbSymbolTableRecord
100
AcDbLayerTableRecord
  2
timing cover
 70
0
 62
7
  6
CONTINUOUS
370
0
390
F
  0
LAYER
  5
44
100
AcDbSymbolTableRecord
100
AcDbLayerTableRecord
  2
sump
 70
1
 62
7
  6
CONTINUOUS
370
0
390
F
  0
ENDTAB
  0
TABLE
  2
STYLE
  5
3
100
AcDbSymbolTable
 70
1
  0
STYLE
  5
11
100
AcDbSymbolTableRecord
100
AcDbTextStyleTableRecord
  2
Standard
 70
0
 40
0.0
 41
0.75
 50
0.0
 71
0
 42
2.5
  3
txt
  4

  0
ENDTAB
  0
TABLE
  2
VIEW
  5
6
100
AcDbSymbolTable
 70
0
  0
ENDTAB
  0
TABLE
  2
UCS
  5
7
100
AcDbSymbolTable
 70
0
  0
ENDTAB
  0
TABLE
  2
APPID
  5
9
100
AcDbSymbolTable
 70
1
  0
APPID
  5
12
100
AcDbSymbolTableRecord
100
AcDbRegAppTableRecord
  2
ACAD
 70
0
  0
ENDTAB
  0
TABLE
  2
DIMSTYLE
  5
A
100
AcDbSymbolTable
 70
1
100
AcDbDimStyleTable
 71
0
  0
DIMSTYLE
105
27
100
AcDbSymbolTableRecord
100
AcDbDimStyleTableRecord
  2
Standard
 41
0.1
 42
0.025
 43
3.75
 44
0.05
 70
0
 73
0
 74
0
 77
1
 78
8
140
0.1
141
2.5
143
0.03937007874016
147
0.025
171
3
172
1
271
2
272
2
274
3
278
44
283
0
284
8
340
11
  0
ENDTAB
  0
TABLE
  2
BLOCK_RECORD
  5
1
100
AcDbSymbolTable
 70
1
  0
BLOCK_RECORD
  5
1F
100
AcDbSymbolTableRecord
100
AcDbBlockTableRecord
  2
*Model_Space
340
22
  0
BLOCK_RECORD
  5
1B
100
AcDbSymbolTableRecord
100
AcDbBlockTableRecord
  2
*Paper_Space
340
1E
  0
BLOCK_RECORD
  5
23
100
AcDbSymbolTableRecord
100
AcDbBlockTableRecord
  2
*Paper_Space0
340
26
  0
ENDTAB
  0
ENDSEC
  0
SECTION
  2
BLOCKS
  0
BLOCK
  5
20
100
AcDbEntity
  8
0
100
AcDbBlockBegin
  2
*Model_Space
 70
0
 10
0.0
 20
0.0
 30
0.0
  3
*Model_Space
  1

  0
ENDBLK
  5
21
100
AcDbEntity
  8
0
100
AcDbBlockEnd
  0
BLOCK
  5
1C
100
AcDbEntity
 67
1
  8
0
100
AcDbBlockBegin
  2
*Paper_Space
 70
0
 10
0.0
 20
0.0
 30
0.0
  3
*Paper_Space
  1

  0
ENDBLK
  5
1D
100
AcDbEntity
 67
1
  8
0
100
AcDbBlockEnd
  0
BLOCK
  5
24
100
AcDbEntity
  8
0
100
AcDbBlockBegin
  2
*Paper_Space0
 70
0
 10
0.0
 20
0.0
 30
0.0
  3
*Paper_Space0
  1

  0
ENDBLK
  5
25
100
AcDbEntity
  8
0
100
AcDbBlockEnd
  0
ENDSEC
  0
SECTION
  2
ENTITIES
  0
ARC
  5
45
100
AcDbEntity
  8
timing cover
 62
256
370
-1
  6
ByLayer
100
AcDbCircle
 10
-1.1250000000000004
 20
1.0843344733060918
 30
0.0
 40
0.6875
100
AcDbArc
 50
41.4659147019053265
 51
230.6430461734770176
  0
LINE
  5
46
100
AcDbEntity
100
AcDbLine
  8
timing cover
 62
256
370
-1
  6
ByLayer
 10
-0.0312500000000004
 20
0.0000000000000001
 30
0.0
 11
0.0312499999999996
 21
0.0000000000000001
 31
0.0
  0
LINE
  5
47
100
AcDbEntity
100
AcDbLine
  8
timing cover
 62
256
370
-1
  6
ByLayer
 10
-0.0000000000000004
 20
-0.0312499999999999
 30
0.0
 11
-0.0000000000000004
 21
0.0312500000000001
 31
0.0
  0
LINE
  5
48
100
AcDbEntity
100
AcDbLine
  8
timing cover
 62
256
370
-1
  6
ByLayer
 10
-1.1562500000000004
 20
1.0843344733060918
 30
0.0
 11
-1.0937500000000004
 21
1.0843344733060918
 31
0.0
  0
LINE
  5
49
100
AcDbEntity
100
AcDbLine
  8
timing cover
 62
256
370
-1
  6
ByLayer
 10
-1.1250000000000004
 20
1.0530844733060918
 30
0.0
 11
-1.1250000000000004
 21
1.1155844733060918
 31
0.0
  0
LINE
  5
4A
100
AcDbEntity
100
AcDbLine
  8
timing cover
 62
256
370
-1
  6
ByLayer
 10
-0.0312500000000005
 20
-0.9375
 30
0.0
 11
0.0312499999999995
 21
-0.9375
 31
0.0
  0
LINE
  5
4B
100
AcDbEntity
100
AcDbLine
  8
timing cover
 62
256
370
-1
  6
ByLayer
 10
-0.0000000000000005
 20
-0.96875
 30
0.0
 11
-0.0000000000000005
 21
-0.90625
 31
0.0
  0
LINE
  5
4C
100
AcDbEntity
100
AcDbLine
  8
timing cover
 62
256
370
-1
  6
ByLayer
 10
-1.6402466973481835
 20
0.4561011640397096
 30
0.0
 11
-0.7572192962316662
 21
-0.26811537364202
 31
0.0
  0
ARC
  5
4D
100
AcDbEntity
  8
timing cover
 62
256
370
-1
  6
ByLayer
100
AcDbCircle
 10
-0.7968536575661419
 20
-0.3164410128163569
 30
0.0
 40
0.0625
100
AcDbArc
 50
305.6773056860669726
 51
50.6430461734768329
  0
CIRCLE
  5
4E
100
AcDbEntity
100
AcDbCircle
  8
timing cover
 62
256
370
-1
  6
ByLayer
 10
-0.6875000000000004
 20
-0.4687499999999999
 30
0.0
 40
0.125
  0
ARC
  5
4F
100
AcDbEntity
  8
timing cover
 62
256
370
-1
  6
ByLayer
100
AcDbCircle
 10
-0.811244584475711
 20
-0.6096170572310422
 30
0.0
 40
0.0625
100
AcDbArc
 50
337.9927839726952357
 51
48.7023299371037908
  0
ARC
  5
50
100
AcDbEntity
  8
timing cover
 62
256
370
-1
  6
ByLayer
100
AcDbCircle
 10
0.81124458447571
 20
-0.6096170572310422
 30
0.0
 40
0.0625
100
AcDbArc
 50
131.2976700628962874
 51
202.0072160273049349
  0
ARC
  5
51
100
AcDbEntity
  8
timing cover
 62
256
370
-1
  6
ByLayer
100
AcDbCircle
 10
-0.0000000000000004
 20
0.0000000000000001
 30
0.0
 40
0.8125
100
AcDbArc
 50
337.9927839726950651
 51
73.6701422058773687
  0
ARC
  5
52
100
AcDbEntity
  8
timing cover
 62
256
370
-1
  6
ByLayer
100
AcDbCircle
 10
0.8112445844757101
 20
-0.3278829427689577
 30
0.0
 40
0.0625
100
AcDbArc
 50
157.9927839726950367
 51
228.7023299371036558
  0
ARC
  5
53
100
AcDbEntity
  8
timing cover
 62
256
370
-1
  6
ByLayer
100
AcDbCircle
 10
-0.0000000000000005
 20
-0.9375
 30
0.0
 40
0.8125
100
AcDbArc
 50
157.9927839726950367
 51
221.0985743685728835
  0
ARC
  5
54
100
AcDbEntity
  8
timing cover
 62
256
370
-1
  6
ByLayer
100
AcDbCircle
 10
-0.6593822802476563
 20
-1.5126869335228348
 30
0.0
 40
0.0625
100
AcDbArc
 50
336.4755078937251938
 51
41.0985743685732174
  0
CIRCLE
  5
55
100
AcDbEntity
100
AcDbCircle
  8
timing cover
 62
256
370
-1
  6
ByLayer
 10
-0.4874654918391974
 20
-1.5875258796893936
 30
0.0
 40
0.125
  0
ARC
  5
56
100
AcDbEntity
  8
timing cover
 62
256
370
-1
  6
ByLayer
100
AcDbCircle
 10
-0.3674681049284041
 20
-1.7315983515033433
 30
0.0
 40
0.0625
100
AcDbArc
 50
65.1677138247016501
 51
129.7907802995487998
  0
ARC
  5
57
100
AcDbEntity
  8
timing cover
 62
256
370
-1
  6
ByLayer
100
AcDbCircle
 10
-0.0000000000000005
 20
-0.9375
 30
0.0
 40
0.8125
100
AcDbArc
 50
245.1677138247009964
 51
294.8322861752989752
  0
ARC
  5
58
100
AcDbEntity
  8
timing cover
 62
256
370
-1
  6
ByLayer
100
AcDbCircle
 10
0.3674681049284031
 20
-1.7315983515033435
 30
0.0
 40
0.0625
100
AcDbArc
 50
50.209219700451392
 51
114.8322861752991884
  0
CIRCLE
  5
59
100
AcDbEntity
100
AcDbCircle
  8
timing cover
 62
256
370
-1
  6
ByLayer
 10
0.4874654918391962
 20
-1.5875258796893936
 30
0.0
 40
0.125
  0
ARC
  5
5A
100
AcDbEntity
  8
timing cover
 62
256
370
-1
  6
ByLayer
100
AcDbCircle
 10
-0.0000000000000005
 20
-0.9375
 30
0.0
 40
0.8125
100
AcDbArc
 50
318.9014256314271165
 51
22.0072160273049491
  0
ARC
  5
5B
100
AcDbEntity
  8
timing cover
 62
256
370
-1
  6
ByLayer
100
AcDbCircle
 10
0.6593822802476552
 20
-1.5126869335228348
 30
0.0
 40
0.0625
100
AcDbArc
 50
138.9014256314270881
 51
203.5244921062747778
  0
ARC
  5
5C
100
AcDbEntity
  8
timing cover
 62
256
370
-1
  6
ByLayer
100
AcDbCircle
 10
-1.1250000000000004
 20
1.0843344733060918
 30
0.0
 40
0.8125
100
AcDbArc
 50
148.0890501657552534
 51
230.6430461734770176
  0
ARC
  5
5D
100
AcDbEntity
  8
timing cover
 62
256
370
-1
  6
ByLayer
100
AcDbCircle
 10
-1.867761846686264
 20
1.5468599743405878
 30
0.0
 40
0.0625
100
AcDbArc
 50
328.0890501657551681
 51
32.7121166406029289
  0
CIRCLE
  5
5E
100
AcDbEntity
100
AcDbCircle
  8
timing cover
 62
256
370
-1
  6
ByLayer
 10
-1.7100000000000002
 20
1.6481883994252593
 30
0.0
 40
0.125
  0
ARC
  5
5F
100
AcDbEntity
  8
timing cover
 62
256
370
-1
  6
ByLayer
100
AcDbCircle
 10
-1.1250000000000004
 20
1.0843344733060918
 30
0.0
 40
0.8125
100
AcDbArc
 50
41.4659147019053336
 51
124.0199107096271121
  0
ARC
  5
60
100
AcDbEntity
  8
timing cover
 62
256
370
-1
  6
ByLayer
100
AcDbCircle
 10
-1.6145458456214294
 20
1.8095722722622687
 30
0.0
 40
0.0625
100
AcDbArc
 50
239.396844234779536
 51
304.0199107096270836
  0
LINE
  5
61
100
AcDbEntity
100
AcDbLine
  8
timing cover
 62
256
370
-1
  6
ByLayer
 10
-0.6098220253207688
 20
1.5395793573030512
 30
0.0
 11
-0.5143018840590967
 21
1.4314839681045841
 31
0.0
  0
ARC
  5
62
100
AcDbEntity
  8
timing cover
 62
256
370
-1
  6
ByLayer
100
AcDbCircle
 10
-0.5611362453935724
 20
1.3900980695594058
 30
0.0
 40
0.0625
100
AcDbArc
 50
330.9371353363960679
 51
41.4659147019053762
  0
CIRCLE
  5
63
100
AcDbEntity
100
AcDbCircle
  8
timing cover
 62
256
370
-1
  6
ByLayer
 10
-0.3972448860319211
 20
1.299016390135989
 30
0.0
 40
0.125
  0
LINE
  5
64
100
AcDbEntity
100
AcDbLine
  8
timing cover
 62
256
370
-1
  6
ByLayer
 10
-0.2801878880047454
 20
1.1665488121673939
 30
0.0
 11
0.42150925201028
 21
0.3724730869066031
 31
0.0
  0
ARC
  5
65
100
AcDbEntity
  8
timing cover
 62
256
370
-1
  6
ByLayer
100
AcDbCircle
 10
-0.327022249339221
 20
1.1251629136222159
 30
0.0
 40
0.0625
100
AcDbArc
 50
41.4659147019052909
 51
111.9946940674146703
  0
LINE
  5
66
100
AcDbEntity
100
AcDbLine
  8
timing cover
 62
256
370
-1
  6
ByLayer
 10
-1.5609779746792323
 20
0.5527524423883837
 30
0.0
 11
-1.4494406626294714
 21
0.4612749119596923
 31
0.0
  0
ARC
  5
67
100
AcDbEntity
  8
timing cover
 62
256
370
-1
  6
ByLayer
100
AcDbCircle
 10
-1.4098063012949957
 20
0.5096005511340294
 30
0.0
 40
0.0625
100
AcDbArc
 50
230.6430461734770176
 51
301.1718255389862975
  0
CIRCLE
  5
68
100
AcDbEntity
100
AcDbCircle
  8
timing cover
 62
256
370
-1
  6
ByLayer
 10
-1.3127551139680791
 20
0.3491720092892699
 30
0.0
 40
0.125
  0
ARC
  5
69
100
AcDbEntity
  8
timing cover
 62
256
370
-1
  6
ByLayer
100
AcDbCircle
 10
-1.1364352039722114
 20
0.2853947457931846
 30
0.0
 40
0.0625
100
AcDbArc
 50
160.114266807967681
 51
230.6430461734770176
  0
LINE
  5
6A
100
AcDbEntity
100
AcDbLine
  8
timing cover
 62
256
370
-1
  6
ByLayer
 10
-0.5161533026518176
 20
1.6223511543934075
 30
0.0
 11
0.3981209766520559
 21
0.5877124619655538
 31
0.0
  0
ARC
  5
6B
100
AcDbEntity
  8
timing cover
 62
256
370
-1
  6
ByLayer
100
AcDbCircle
 10
0.4449553379865315
 20
0.6290983605107319
 30
0.0
 40
0.0625
100
AcDbArc
 50
221.4659147019053194
 51
291.9946940674146276
  0
CIRCLE
  5
6C
100
AcDbEntity
100
AcDbCircle
  8
timing cover
 62
256
370
-1
  6
ByLayer
 10
0.5151779746792314
 20
0.4552448839969592
 30
0.0
 40
0.125
  0
ARC
  5
6D
100
AcDbEntity
  8
timing cover
 62
256
370
-1
  6
ByLayer
100
AcDbCircle
 10
0.6663139432434103
 20
0.3442756585055307
 30
0.0
 40
0.0625
100
AcDbArc
 50
143.7126044292166966
 51
207.3248044679737063
  0
CIRCLE
  5
6E
100
AcDbEntity
100
AcDbCircle
  8
timing cover
 62
256
370
-1
  6
ByLayer
 10
0.6874999999999996
 20
-0.4687499999999999
 30
0.0
 40
0.125
  0
ARC
  5
6F
100
AcDbEntity
  8
timing cover
 62
256
370
-1
  6
ByLayer
100
AcDbCircle
 10
0.6952045275941995
 20
-0.2814083595285068
 30
0.0
 40
0.0625
100
AcDbArc
 50
157.9626364504248386
 51
267.6450067564595656
  0
ARC
  5
70
100
AcDbEntity
  8
timing cover
 62
256
370
-1
  6
ByLayer
100
AcDbCircle
 10
-0.0000000000000004
 20
0.0000000000000001
 30
0.0
 40
0.6875
100
AcDbArc
 50
337.9626364504247249
 51
27.3248044534207146
  0
LINE
  5
71
100
AcDbEntity
100
AcDbLine
  8
timing cover
 62
256
370
-1
  6
ByLayer
 10
-1.176069565306687
 20
0.2370691066188475
 30
0.0
 11
-0.47176566719471
 21
-0.3405670232696031
 31
0.0
  0
ARC
  5
72
100
AcDbEntity
  8
timing cover
 62
256
370
-1
  6
ByLayer
100
AcDbCircle
 10
-0.5114000285291855
 20
-0.3888926624439403
 30
0.0
 40
0.0625
100
AcDbArc
 50
312.9896867093248147
 51
50.6430461734771313
  0
ARC
  5
73
100
AcDbEntity
  8
timing cover
 62
256
370
-1
  6
ByLayer
100
AcDbCircle
 10
-0.0000000000000004
 20
0.0000000000000001
 30
0.0
 40
0.5625
100
AcDbArc
 50
322.8909950541914782
 51
41.4659147019053052
  0
ARC
  5
74
100
AcDbEntity
  8
timing cover
 62
256
370
-1
  6
ByLayer
100
AcDbCircle
 10
-0.0000000000000005
 20
-0.9375
 30
0.0
 40
0.6875
100
AcDbArc
 50
132.9896867093249284
 51
48.3503277261331874
  0
ARC
  5
75
100
AcDbEntity
  8
timing cover
 62
256
370
-1
  6
ByLayer
100
AcDbCircle
 10
0.4984306970103484
 20
-0.3770833333333333
 30
0.0
 40
0.0625
100
AcDbArc
 50
142.8909950541915919
 51
228.3503277261331448
  0
LINE
  5
76
100
AcDbEntity
100
AcDbLine
  8
sump
 62
3
370
-1
  6
ByLayer
 10
-1.0624999999999993
 20
-0.6249999999999996
 30
0.0
 11
-1.0624999999999993
 21
0.0000000000000006
 31
0.0
  0
LINE
  5
77
100
AcDbEntity
100
AcDbLine
  8
sump
 62
3
370
-1
  6
ByLayer
 10
1.0625000000000016
 20
-0.6249999999999996
 30
0.0
 11
1.0625000000000016
 21
0.0000000000000006
 31
0.0
  0
LINE
  5
78
100
AcDbEntity
100
AcDbLine
  8
sump
 62
3
370
-1
  6
ByLayer
 10
-1.0624999999999993
 20
-0.6249999999999996
 30
0.0
 11
-1.3124999999999993
 21
-0.6249999999999996
 31
0.0
  0
LINE
  5
79
100
AcDbEntity
100
AcDbLine
  8
sump
 62
3
370
-1
  6
ByLayer
 10
1.3125000000000016
 20
-0.6249999999999996
 30
0.0
 11
1.0625000000000016
 21
-0.6249999999999996
 31
0.0
  0
LINE
  5
7A
100
AcDbEntity
100
AcDbLine
  8
sump
 62
3
370
-1
  6
ByLayer
 10
1.3125000000000016
 20
0.0000000000000006
 30
0.0
 11
-1.0624999999999993
 21
0.0000000000000006
 31
0.0
  0
LINE
  5
7B
100
AcDbEntity
100
AcDbLine
  8
sump
 62
3
370
-1
  6
ByLayer
 10
-1.0624999999999993
 20
0.0000000000000006
 30
0.0
 11
-1.3124999999999993
 21
0.0000000000000006
 31
0.0
  0
ARC
  5
7C
100
AcDbEntity
  8
sump
 62
3
370
-1
  6
ByLayer
100
AcDbCircle
 10
1.6249999999999998
 20
0.0000000000000006
 30
0.0
 40
2.8125
100
AcDbArc
 50
180.0
 51
218.4785951332979437
  0
LINE
  5
7D
100
AcDbEntity
100
AcDbLine
  8
sump
 62
3
370
-1
  6
ByLayer
 10
0.5767393692260681
 20
-1.7499999999999993
 30
0.0
 11
-0.5767393692260667
 21
-1.7499999999999993
 31
0.0
  0
ARC
  5
7E
100
AcDbEntity
  8
sump
 62
3
370
-1
  6
ByLayer
100
AcDbCircle
 10
-1.6249999999999993
 20
0.0000000000000006
 30
0.0
 40
2.6875
100
AcDbArc
 50
322.7962560093251909
 51
0.0
  0
ARC
  5
7F
100
AcDbEntity
  8
sump
 62
3
370
-1
  6
ByLayer
100
AcDbCircle
 10
1.6249999999999998
 20
0.0000000000000006
 30
0.0
 40
2.6875
100
AcDbArc
 50
180.0
 51
217.2037439906748091
  0
LINE
  5
80
100
AcDbEntity
100
AcDbLine
  8
sump
 62
3
370
-1
  6
ByLayer
 10
-1.3124999999999993
 20
-0.6249999999999996
 30
0.0
 11
-1.3124999999999993
 21
0.0000000000000006
 31
0.0
  0
LINE
  5
81
100
AcDbEntity
100
AcDbLine
  8
sump
 62
3
370
-1
  6
ByLayer
 10
1.3125000000000016
 20
-0.6249999999999996
 30
0.0
 11
1.3125000000000016
 21
0.0000000000000006
 31
0.0
  0
LINE
  5
82
100
AcDbEntity
100
AcDbLine
  8
sump
 62
3
370
-1
  6
ByLayer
 10
-1.1874999999999993
 20
-0.6249999999999996
 30
0.0
 11
-1.1874999999999993
 21
0.0000000000000006
 31
0.0
  0
ARC
  5
83
100
AcDbEntity
  8
sump
 62
3
370
-1
  6
ByLayer
100
AcDbCircle
 10
-1.6249999999999993
 20
0.0000000000000006
 30
0.0
 40
2.8125
100
AcDbArc
 50
321.5214048667020847
 51
0.0
  0
LINE
  5
84
100
AcDbEntity
100
AcDbLine
  8
sump
 62
3
370
-1
  6
ByLayer
 10
1.1875000000000016
 20
-0.6249999999999996
 30
0.0
 11
1.1875000000000016
 21
0.0000000000000006
 31
0.0
  0
LINE
  5
85
100
AcDbEntity
100
AcDbLine
  8
sump
 62
3
370
-1
  6
ByLayer
 10
1.3125000000000016
 20
-0.1562499999999995
 30
0.0
 11
-1.3124999999999993
 21
-0.1562499999999995
 31
0.0
  0
ARC
  5
86
100
AcDbEntity
  8
sump
 62
3
370
-1
  6
ByLayer
100
AcDbCircle
 10
0.0000000000000006
 20
0.0000000000000006
 30
0.0
 40
0.6875000000000001
100
AcDbArc
 50
180.0
 51
0.0
  0
ARC
  5
87
100
AcDbEntity
  8
sump
 62
3
370
-1
  6
ByLayer
100
AcDbCircle
 10
0.0000000000000006
 20
0.0000000000000006
 30
0.0
 40
0.4375
100
AcDbArc
 50
180.0
 51
360.0
  0
LINE
  5
88
100
AcDbEntity
100
AcDbLine
  8
sump
 62
3
370
-1
  6
ByLayer
 10
0.2500000000000007
 20
-1.8124999999999993
 30
0.0
 11
0.2500000000000007
 21
-1.7499999999999993
 31
0.0
  0
LINE
  5
89
100
AcDbEntity
100
AcDbLine
  8
sump
 62
3
370
-1
  6
ByLayer
 10
-0.2499999999999994
 20
-1.8124999999999993
 30
0.0
 11
-0.2499999999999994
 21
-1.7499999999999993
 31
0.0
  0
LINE
  5
8A
100
AcDbEntity
100
AcDbLine
  8
sump
 62
3
370
-1
  6
ByLayer
 10
0.2500000000000007
 20
-1.8124999999999993
 30
0.0
 11
-0.2499999999999994
 21
-1.8124999999999993
 31
0.0
  0
LINE
  5
8B
100
AcDbEntity
100
AcDbLine
  8
sump
 62
3
370
-1
  6
ByLayer
 10
0.5155679736929641
 20
-1.6249999999999993
 30
0.0
 11
-0.9374999999999993
 21
-1.6249999999999993
 31
0.0
  0
LINE
  5
8C
100
AcDbEntity
100
AcDbLine
  8
sump
 62
3
370
-1
  6
ByLayer
 10
-0.4999999999999993
 20
-1.6249999999999993
 30
0.0
 11
-0.4999999999999993
 21
-1.1249999999999993
 31
0.0
  0
LINE
  5
8D
100
AcDbEntity
100
AcDbLine
  8
sump
 62
3
370
-1
  6
ByLayer
 10
-0.4999999999999993
 20
-1.1249999999999993
 30
0.0
 11
-0.9374999999999993
 21
-1.1249999999999993
 31
0.0
  0
LINE
  5
8E
100
AcDbEntity
100
AcDbLine
  8
sump
 62
3
370
-1
  6
ByLayer
 10
-0.9374999999999993
 20
-1.6249999999999993
 30
0.0
 11
-0.9374999999999993
 21
-1.1249999999999993
 31
0.0
  0
LINE
  5
8F
100
AcDbEntity
100
AcDbLine
  8
timing cover
 62
256
370
-1
  6
ByLayer
 10
-1.7412500000000002
 20
1.6481883994252593
 30
0.0
 11
-1.6787500000000002
 21
1.6481883994252593
 31
0.0
  0
LINE
  5
90
100
AcDbEntity
100
AcDbLine
  8
timing cover
 62
256
370
-1
  6
ByLayer
 10
-1.7100000000000002
 20
1.6169383994252593
 30
0.0
 11
-1.7100000000000002
 21
1.6794383994252593
 31
0.0
  0
LINE
  5
91
100
AcDbEntity
100
AcDbLine
  8
timing cover
 62
256
370
-1
  6
ByLayer
 10
-0.4284948860319211
 20
1.299016390135989
 30
0.0
 11
-0.3659948860319211
 21
1.299016390135989
 31
0.0
  0
LINE
  5
92
100
AcDbEntity
100
AcDbLine
  8
timing cover
 62
256
370
-1
  6
ByLayer
 10
-0.3972448860319211
 20
1.267766390135989
 30
0.0
 11
-0.3972448860319211
 21
1.330266390135989
 31
0.0
  0
LINE
  5
93
100
AcDbEntity
100
AcDbLine
  8
timing cover
 62
256
370
-1
  6
ByLayer
 10
-1.3440051139680791
 20
0.3491720092892699
 30
0.0
 11
-1.2815051139680791
 21
0.3491720092892699
 31
0.0
  0
LINE
  5
94
100
AcDbEntity
100
AcDbLine
  8
timing cover
 62
256
370
-1
  6
ByLayer
 10
-1.3127551139680791
 20
0.3179220092892699
 30
0.0
 11
-1.3127551139680791
 21
0.3804220092892699
 31
0.0
  0
LINE
  5
95
100
AcDbEntity
100
AcDbLine
  8
timing cover
 62
256
370
-1
  6
ByLayer
 10
0.4839279746792314
 20
0.4552448839969592
 30
0.0
 11
0.5464279746792314
 21
0.4552448839969592
 31
0.0
  0
LINE
  5
96
100
AcDbEntity
100
AcDbLine
  8
timing cover
 62
256
370
-1
  6
ByLayer
 10
0.5151779746792314
 20
0.4239948839969592
 30
0.0
 11
0.5151779746792314
 21
0.4864948839969592
 31
0.0
  0
LINE
  5
97
100
AcDbEntity
100
AcDbLine
  8
timing cover
 62
256
370
-1
  6
ByLayer
 10
0.6562499999999996
 20
-0.4687499999999999
 30
0.0
 11
0.7187499999999996
 21
-0.4687499999999999
 31
0.0
  0
LINE
  5
98
100
AcDbEntity
100
AcDbLine
  8
timing cover
 62
256
370
-1
  6
ByLayer
 10
0.6874999999999996
 20
-0.4999999999999999
 30
0.0
 11
0.6874999999999996
 21
-0.4374999999999999
 31
0.0
  0
LINE
  5
99
100
AcDbEntity
100
AcDbLine
  8
timing cover
 62
256
370
-1
  6
ByLayer
 10
-0.7187500000000004
 20
-0.4687499999999999
 30
0.0
 11
-0.6562500000000004
 21
-0.4687499999999999
 31
0.0
  0
LINE
  5
9A
100
AcDbEntity
100
AcDbLine
  8
timing cover
 62
256
370
-1
  6
ByLayer
 10
-0.6875000000000004
 20
-0.4999999999999999
 30
0.0
 11
-0.6875000000000004
 21
-0.4374999999999999
 31
0.0
  0
LINE
  5
9B
100
AcDbEntity
100
AcDbLine
  8
timing cover
 62
256
370
-1
  6
ByLayer
 10
0.4562154918391962
 20
-1.5875258796893936
 30
0.0
 11
0.5187154918391962
 21
-1.5875258796893936
 31
0.0
  0
LINE
  5
9C
100
AcDbEntity
100
AcDbLine
  8
timing cover
 62
256
370
-1
  6
ByLayer
 10
0.4874654918391962
 20
-1.6187758796893936
 30
0.0
 11
0.4874654918391962
 21
-1.5562758796893936
 31
0.0
  0
LINE
  5
9D
100
AcDbEntity
100
AcDbLine
  8
timing cover
 62
256
370
-1
  6
ByLayer
 10
-0.5187154918391974
 20
-1.5875258796893936
 30
0.0
 11
-0.4562154918391974
 21
-1.5875258796893936
 31
0.0
  0
LINE
  5
9E
100
AcDbEntity
100
AcDbLine
  8
timing cover
 62
256
370
-1
  6
ByLayer
 10
-0.4874654918391974
 20
-1.6187758796893936
 30
0.0
 11
-0.4874654918391974
 21
-1.5562758796893936
 31
0.0
  0
LINE
  5
9F
100
AcDbEntity
100
AcDbLine
  8
timing cover
 62
256
370
-1
  6
ByLayer
 10
-1.1250000000000004
 20
1.0843344733060918
 30
0.0
 11
3.8749999999999996
 21
1.0843344733060918
 31
0.0
  0
LINE
  5
A0
100
AcDbEntity
100
AcDbLine
  8
timing cover
 62
256
370
-1
  6
ByLayer
 10
-0.0000000000000004
 20
0.0000000000000001
 30
0.0
 11
5.0
 21
0.0000000000000001
 31
0.0
  0
LINE
  5
A1
100
AcDbEntity
100
AcDbLine
  8
timing cover
 62
256
370
-1
  6
ByLayer
 10
2.0
 20
-1.75
 30
0.0
 11
2.0000000000000004
 21
1.8968344733060918
 31
0.0
  0
LINE
  5
A2
100
AcDbEntity
100
AcDbLine
  8
timing cover
 62
256
370
-1
  6
ByLayer
 10
2.4375000000000004
 20
1.7093344733060918
 30
0.0
 11
2.5000000000000004
 21
1.7093344733060918
 31
0.0
  0
LINE
  5
A3
100
AcDbEntity
100
AcDbLine
  8
timing cover
 62
256
370
-1
  6
ByLayer
 10
2.4375000000000004
 20
1.7718344733060918
 30
0.0
 11
2.5000000000000004
 21
1.7718344733060918
 31
0.0
  0
LINE
  5
A4
100
AcDbEntity
100
AcDbLine
  8
timing cover
 62
256
370
-1
  6
ByLayer
 10
2.3125000000000004
 20
1.3343344733060918
 30
0.0
 11
2.4375000000000004
 21
1.3343344733060918
 31
0.0
  0
LINE
  5
A5
100
AcDbEntity
100
AcDbLine
  8
timing cover
 62
256
370
-1
  6
ByLayer
 10
2.3125000000000004
 20
0.8343344733060918
 30
0.0
 11
2.4375000000000004
 21
0.8343344733060918
 31
0.0
  0
LINE
  5
A6
100
AcDbEntity
100
AcDbLine
  8
timing cover
 62
256
370
-1
  6
ByLayer
 10
2.4375000000000004
 20
0.4593344733060918
 30
0.0
 11
2.5000000000000004
 21
0.4593344733060918
 31
0.0
  0
LINE
  5
A7
100
AcDbEntity
100
AcDbLine
  8
timing cover
 62
256
370
-1
  6
ByLayer
 10
2.4375000000000004
 20
0.4593344733060918
 30
0.0
 11
2.4375000000000004
 21
1.7093344733060918
 31
0.0
  0
LINE
  5
A8
100
AcDbEntity
100
AcDbLine
  8
timing cover
 62
256
370
-1
  6
ByLayer
 10
2.7500000000000004
 20
-0.3124999999999999
 30
0.0
 11
2.7500000000000004
 21
0.3125000000000001
 31
0.0
  0
LINE
  5
A9
100
AcDbEntity
100
AcDbLine
  8
timing cover
 62
256
370
-1
  6
ByLayer
 10
2.5
 20
-0.3124999999999999
 30
0.0
 11
2.7500000000000004
 21
-0.3124999999999999
 31
0.0
  0
LINE
  5
AA
100
AcDbEntity
100
AcDbLine
  8
timing cover
 62
256
370
-1
  6
ByLayer
 10
2.5000000000000004
 20
0.3125000000000001
 30
0.0
 11
2.7500000000000004
 21
0.3125000000000001
 31
0.0
  0
LINE
  5
AB
100
AcDbEntity
100
AcDbLine
  8
timing cover
 62
256
370
-1
  6
ByLayer
 10
2.3125000000000004
 20
0.2187500000000001
 30
0.0
 11
2.7500000000000004
 21
0.2187500000000001
 31
0.0
  0
LINE
  5
AC
100
AcDbEntity
100
AcDbLine
  8
timing cover
 62
256
370
-1
  6
ByLayer
 10
2.3125
 20
-0.2187499999999999
 30
0.0
 11
2.7500000000000004
 21
-0.2187499999999999
 31
0.0
  0
LINE
  5
AD
100
AcDbEntity
100
AcDbLine
  8
timing cover
 62
256
370
-1
  6
ByLayer
 10
2.5
 20
0.3125000000000001
 30
0.0
 11
2.5000000000000004
 21
1.7718344733060918
 31
0.0
  0
LINE
  5
AE
100
AcDbEntity
100
AcDbLine
  8
timing cover
 62
256
370
-1
  6
ByLayer
 10
2.5
 20
-0.3749999999999999
 30
0.0
 11
2.5
 21
-0.3124999999999999
 31
0.0
  0
LINE
  5
AF
100
AcDbEntity
100
AcDbLine
  8
timing cover
 62
256
370
-1
  6
ByLayer
 10
-0.0000000000000006
 20
-1.09375
 30
0.0
 11
5.0
 21
-1.09375
 31
0.0
  0
LINE
  5
B0
100
AcDbEntity
100
AcDbLine
  8
timing cover
 62
256
370
-1
  6
ByLayer
 10
-0.0312500000000006
 20
-1.09375
 30
0.0
 11
0.0312499999999994
 21
-1.09375
 31
0.0
  0
LINE
  5
B1
100
AcDbEntity
100
AcDbLine
  8
timing cover
 62
256
370
-1
  6
ByLayer
 10
-0.0000000000000006
 20
-1.125
 30
0.0
 11
-0.0000000000000006
 21
-1.0625
 31
0.0
  0
LINE
  5
B2
100
AcDbEntity
100
AcDbLine
  8
timing cover
 62
256
370
-1
  6
ByLayer
 10
2.3125
 20
-0.65625
 30
0.0
 11
2.4375000000000004
 21
-0.65625
 31
0.0
  0
LINE
  5
B3
100
AcDbEntity
100
AcDbLine
  8
timing cover
 62
256
370
-1
  6
ByLayer
 10
2.3125
 20
-1.53125
 30
0.0
 11
2.4375
 21
-1.53125
 31
0.0
  0
ARC
  5
B4
100
AcDbEntity
  8
timing cover
 62
256
370
-1
  6
ByLayer
100
AcDbCircle
 10
2.375
 20
-1.6875
 30
0.0
 40
0.0625
100
AcDbArc
 50
270.0
 51
0.0
  0
LINE
  5
B5
100
AcDbEntity
100
AcDbLine
  8
timing cover
 62
256
370
-1
  6
ByLayer
 10
2.4375000000000004
 20
1.7718344733060918
 30
0.0
 11
2.4375000000000004
 21
1.8343344733060918
 31
0.0
  0
ARC
  5
B6
100
AcDbEntity
  8
timing cover
 62
256
370
-1
  6
ByLayer
100
AcDbCircle
 10
2.3750000000000004
 20
1.8343344733060918
 30
0.0
 40
0.0625
100
AcDbArc
 50
0.0
 51
90.0
  0
LINE
  5
B7
100
AcDbEntity
100
AcDbLine
  8
timing cover
 62
256
370
-1
  6
ByLayer
 10
2.5000000000000004
 20
-0.3749999999999999
 30
0.0
 11
2.5
 21
-0.3749999999999999
 31
0.0
  0
LINE
  5
B8
100
AcDbEntity
100
AcDbLine
  8
timing cover
 62
256
370
-1
  6
ByLayer
 10
2.4375
 20
-1.6875
 30
0.0
 11
2.4375000000000004
 21
-0.4375
 31
0.0
  0
ARC
  5
B9
100
AcDbEntity
  8
timing cover
 62
256
370
-1
  6
ByLayer
100
AcDbCircle
 10
2.5000000000000004
 20
-0.4374999999999999
 30
0.0
 40
0.0625
100
AcDbArc
 50
90.0
 51
180.0000000000001137
  0
LINE
  5
BA
100
AcDbEntity
100
AcDbLine
  8
timing cover
 62
256
370
-1
  6
ByLayer
 10
2.0000000000000004
 20
1.7718344733060918
 30
0.0
 11
2.2500000000000004
 21
1.7718344733060918
 31
0.0
  0
ARC
  5
BB
100
AcDbEntity
  8
timing cover
 62
256
370
-1
  6
ByLayer
100
AcDbCircle
 10
2.2500000000000004
 20
1.7093344733060918
 30
0.0
 40
0.0625
100
AcDbArc
 50
0.0
 51
90.0
  0
LINE
  5
BC
100
AcDbEntity
100
AcDbLine
  8
timing cover
 62
256
370
-1
  6
ByLayer
 10
2.0
 20
-1.625
 30
0.0
 11
2.25
 21
-1.625
 31
0.0
  0
LINE
  5
BD
100
AcDbEntity
100
AcDbLine
  8
timing cover
 62
256
370
-1
  6
ByLayer
 10
2.3125
 20
-1.5625
 30
0.0
 11
2.3125000000000004
 21
1.7093344733060918
 31
0.0
  0
ARC
  5
BE
100
AcDbEntity
  8
timing cover
 62
256
370
-1
  6
ByLayer
100
AcDbCircle
 10
2.25
 20
-1.5625
 30
0.0
 40
0.0625
100
AcDbArc
 50
270.0
 51
0.0
  0
LINE
  5
BF
100
AcDbEntity
100
AcDbLine
  8
timing cover
 62
256
370
-1
  6
ByLayer
 10
2.0
 20
-1.75
 30
0.0
 11
2.375
 21
-1.75
 31
0.0
  0
LINE
  5
C0
100
AcDbEntity
100
AcDbLine
  8
timing cover
 62
256
370
-1
  6
ByLayer
 10
2.0000000000000004
 20
1.8968344733060918
 30
0.0
 11
2.3750000000000004
 21
1.8968344733060918
 31
0.0
  0
CIRCLE
  5
C1
100
AcDbEntity
100
AcDbCircle
  8
timing cover
 62
256
370
-1
  6
ByLayer
 10
-1.1250000000000004
 20
1.0843344733060918
 30
0.0
 40
0.6875
  0
CIRCLE
  5
C2
100
AcDbEntity
100
AcDbCircle
  8
timing cover
 62
256
370
-1
  6
ByLayer
 10
-1.1250000000000004
 20
1.0843344733060918
 30
0.0
 40
0.625
  0
CIRCLE
  5
C3
100
AcDbEntity
100
AcDbCircle
  8
timing cover
 62
256
370
-1
  6
ByLayer
 10
-0.0000000000000006
 20
-1.09375
 30
0.0
 40
0.625
  0
ARC
  5
C4
100
AcDbEntity
  8
timing cover
 62
256
370
-1
  6
ByLayer
100
AcDbCircle
 10
-1.125
 20
5.0843344733060913
 30
0.0
 40
0.6875
100
AcDbArc
 50
41.4659147019053265
 51
230.6430461734770176
  0
LINE
  5
C5
100
AcDbEntity
100
AcDbLine
  8
timing cover
 62
256
370
-1
  6
ByLayer
 10
-0.03125
 20
4.0
 30
0.0
 11
0.03125
 21
4.0
 31
0.0
  0
LINE
  5
C6
100
AcDbEntity
100
AcDbLine
  8
timing cover
 62
256
370
-1
  6
ByLayer
 10
0.0
 20
3.96875
 30
0.0
 11
0.0
 21
4.03125
 31
0.0
  0
LINE
  5
C7
100
AcDbEntity
100
AcDbLine
  8
timing cover
 62
256
370
-1
  6
ByLayer
 10
-1.15625
 20
5.0843344733060913
 30
0.0
 11
-1.09375
 21
5.0843344733060913
 31
0.0
  0
LINE
  5
C8
100
AcDbEntity
100
AcDbLine
  8
timing cover
 62
256
370
-1
  6
ByLayer
 10
-1.125
 20
5.0530844733060913
 30
0.0
 11
-1.125
 21
5.1155844733060913
 31
0.0
  0
LINE
  5
C9
100
AcDbEntity
100
AcDbLine
  8
timing cover
 62
256
370
-1
  6
ByLayer
 10
-0.0312500000000001
 20
3.0625
 30
0.0
 11
0.0312499999999999
 21
3.0625
 31
0.0
  0
LINE
  5
CA
100
AcDbEntity
100
AcDbLine
  8
timing cover
 62
256
370
-1
  6
ByLayer
 10
-0.0000000000000001
 20
3.03125
 30
0.0
 11
-0.0000000000000001
 21
3.09375
 31
0.0
  0
LINE
  5
CB
100
AcDbEntity
100
AcDbLine
  8
timing cover
 62
256
370
-1
  6
ByLayer
 10
-1.6402466973481831
 20
4.4561011640397092
 30
0.0
 11
-0.7572192962316657
 21
3.7318846263579797
 31
0.0
  0
ARC
  5
CC
100
AcDbEntity
  8
timing cover
 62
256
370
-1
  6
ByLayer
100
AcDbCircle
 10
-0.7968536575661415
 20
3.6835589871836429
 30
0.0
 40
0.0625
100
AcDbArc
 50
305.6773056860669726
 51
50.6430461734768329
  0
CIRCLE
  5
CD
100
AcDbEntity
100
AcDbCircle
  8
timing cover
 62
256
370
-1
  6
ByLayer
 10
-0.6875
 20
3.53125
 30
0.0
 40
0.125
  0
ARC
  5
CE
100
AcDbEntity
  8
timing cover
 62
256
370
-1
  6
ByLayer
100
AcDbCircle
 10
-0.8112445844757106
 20
3.3903829427689578
 30
0.0
 40
0.0625
100
AcDbArc
 50
337.9927839726952357
 51
48.7023299371037908
  0
ARC
  5
CF
100
AcDbEntity
  8
timing cover
 62
256
370
-1
  6
ByLayer
100
AcDbCircle
 10
0.8112445844757105
 20
3.3903829427689578
 30
0.0
 40
0.0625
100
AcDbArc
 50
131.2976700628962874
 51
202.0072160273049349
  0
ARC
  5
D0
100
AcDbEntity
  8
timing cover
 62
256
370
-1
  6
ByLayer
100
AcDbCircle
 10
-0.0000000000000001
 20
3.0625
 30
0.0
 40
0.8125
100
AcDbArc
 50
157.9927839726950367
 51
221.0985743685728835
  0
ARC
  5
D1
100
AcDbEntity
  8
timing cover
 62
256
370
-1
  6
ByLayer
100
AcDbCircle
 10
-0.6593822802476559
 20
2.4873130664771654
 30
0.0
 40
0.0625
100
AcDbArc
 50
336.4755078937251938
 51
41.0985743685732174
  0
CIRCLE
  5
D2
100
AcDbEntity
100
AcDbCircle
  8
timing cover
 62
256
370
-1
  6
ByLayer
 10
-0.487465491839197
 20
2.4124741203106064
 30
0.0
 40
0.125
  0
ARC
  5
D3
100
AcDbEntity
  8
timing cover
 62
256
370
-1
  6
ByLayer
100
AcDbCircle
 10
-0.3674681049284037
 20
2.2684016484966567
 30
0.0
 40
0.0625
100
AcDbArc
 50
65.1677138247016501
 51
129.7907802995487998
  0
ARC
  5
D4
100
AcDbEntity
  8
timing cover
 62
256
370
-1
  6
ByLayer
100
AcDbCircle
 10
-0.0000000000000001
 20
3.0625
 30
0.0
 40
0.8125
100
AcDbArc
 50
245.1677138247009964
 51
294.8322861752989752
  0
ARC
  5
D5
100
AcDbEntity
  8
timing cover
 62
256
370
-1
  6
ByLayer
100
AcDbCircle
 10
0.3674681049284035
 20
2.2684016484966563
 30
0.0
 40
0.0625
100
AcDbArc
 50
50.209219700451392
 51
114.8322861752991884
  0
CIRCLE
  5
D6
100
AcDbEntity
100
AcDbCircle
  8
timing cover
 62
256
370
-1
  6
ByLayer
 10
0.4874654918391966
 20
2.4124741203106064
 30
0.0
 40
0.125
  0
ARC
  5
D7
100
AcDbEntity
  8
timing cover
 62
256
370
-1
  6
ByLayer
100
AcDbCircle
 10
-0.0000000000000001
 20
3.0625
 30
0.0
 40
0.8125
100
AcDbArc
 50
318.9014256314271165
 51
22.0072160273049491
  0
ARC
  5
D8
100
AcDbEntity
  8
timing cover
 62
256
370
-1
  6
ByLayer
100
AcDbCircle
 10
0.6593822802476557
 20
2.4873130664771654
 30
0.0
 40
0.0625
100
AcDbArc
 50
138.9014256314270881
 51
203.5244921062747778
  0
ARC
  5
D9
100
AcDbEntity
  8
timing cover
 62
256
370
-1
  6
ByLayer
100
AcDbCircle
 10
-1.125
 20
5.0843344733060913
 30
0.0
 40
0.8125
100
AcDbArc
 50
148.0890501657552534
 51
230.6430461734770176
  0
ARC
  5
DA
100
AcDbEntity
  8
timing cover
 62
256
370
-1
  6
ByLayer
100
AcDbCircle
 10
-1.8677618466862635
 20
5.5468599743405882
 30
0.0
 40
0.0625
100
AcDbArc
 50
328.0890501657551681
 51
32.7121166406029289
  0
CIRCLE
  5
DB
100
AcDbEntity
100
AcDbCircle
  8
timing cover
 62
256
370
-1
  6
ByLayer
 10
-1.7099999999999997
 20
5.6481883994252593
 30
0.0
 40
0.125
  0
ARC
  5
DC
100
AcDbEntity
  8
timing cover
 62
256
370
-1
  6
ByLayer
100
AcDbCircle
 10
-1.125
 20
5.0843344733060913
 30
0.0
 40
0.8125
100
AcDbArc
 50
41.4659147019053336
 51
124.0199107096271121
  0
ARC
  5
DD
100
AcDbEntity
  8
timing cover
 62
256
370
-1
  6
ByLayer
100
AcDbCircle
 10
-1.614545845621429
 20
5.8095722722622689
 30
0.0
 40
0.0625
100
AcDbArc
 50
239.396844234779536
 51
304.0199107096270836
  0
LINE
  5
DE
100
AcDbEntity
100
AcDbLine
  8
timing cover
 62
256
370
-1
  6
ByLayer
 10
-0.6098220253207683
 20
5.539579357303051
 30
0.0
 11
-0.5143018840590963
 21
5.4314839681045841
 31
0.0
  0
ARC
  5
DF
100
AcDbEntity
  8
timing cover
 62
256
370
-1
  6
ByLayer
100
AcDbCircle
 10
-0.561136245393572
 20
5.3900980695594054
 30
0.0
 40
0.0625
100
AcDbArc
 50
330.9371353363960679
 51
41.4659147019053762
  0
CIRCLE
  5
E0
100
AcDbEntity
100
AcDbCircle
  8
timing cover
 62
256
370
-1
  6
ByLayer
 10
-0.3972448860319207
 20
5.2990163901359892
 30
0.0
 40
0.125
  0
LINE
  5
E1
100
AcDbEntity
100
AcDbLine
  8
timing cover
 62
256
370
-1
  6
ByLayer
 10
-0.280187888004745
 20
5.1665488121673935
 30
0.0
 11
0.4215092520102804
 21
4.3724730869066031
 31
0.0
  0
ARC
  5
E2
100
AcDbEntity
  8
timing cover
 62
256
370
-1
  6
ByLayer
100
AcDbCircle
 10
-0.3270222493392206
 20
5.1251629136222157
 30
0.0
 40
0.0625
100
AcDbArc
 50
41.4659147019052909
 51
111.9946940674146703
  0
LINE
  5
E3
100
AcDbEntity
100
AcDbLine
  8
timing cover
 62
256
370
-1
  6
ByLayer
 10
-1.5609779746792318
 20
4.5527524423883836
 30
0.0
 11
-1.4494406626294709
 21
4.4612749119596922
 31
0.0
  0
ARC
  5
E4
100
AcDbEntity
  8
timing cover
 62
256
370
-1
  6
ByLayer
100
AcDbCircle
 10
-1.4098063012949953
 20
4.5096005511340289
 30
0.0
 40
0.0625
100
AcDbArc
 50
230.6430461734770176
 51
301.1718255389862975
  0
CIRCLE
  5
E5
100
AcDbEntity
100
AcDbCircle
  8
timing cover
 62
256
370
-1
  6
ByLayer
 10
-1.3127551139680786
 20
4.3491720092892701
 30
0.0
 40
0.125
  0
ARC
  5
E6
100
AcDbEntity
  8
timing cover
 62
256
370
-1
  6
ByLayer
100
AcDbCircle
 10
-1.136435203972211
 20
4.2853947457931847
 30
0.0
 40
0.0625
100
AcDbArc
 50
160.114266807967681
 51
230.6430461734770176
  0
LINE
  5
E7
100
AcDbEntity
100
AcDbLine
  8
timing cover
 62
256
370
-1
  6
ByLayer
 10
-0.5161533026518171
 20
5.6223511543934075
 30
0.0
 11
0.3981209766520563
 21
4.5877124619655536
 31
0.0
  0
ARC
  5
E8
100
AcDbEntity
  8
timing cover
 62
256
370
-1
  6
ByLayer
100
AcDbCircle
 10
0.4449553379865319
 20
4.6290983605107314
 30
0.0
 40
0.0625
100
AcDbArc
 50
221.4659147019053194
 51
291.9946940674146276
  0
CIRCLE
  5
E9
100
AcDbEntity
100
AcDbCircle
  8
timing cover
 62
256
370
-1
  6
ByLayer
 10
0.5151779746792319
 20
4.4552448839969587
 30
0.0
 40
0.125
  0
ARC
  5
EA
100
AcDbEntity
  8
timing cover
 62
256
370
-1
  6
ByLayer
100
AcDbCircle
 10
0.6663139432434108
 20
4.3442756585055307
 30
0.0
 40
0.0625
100
AcDbArc
 50
143.7126044292166966
 51
207.3248044679737063
  0
CIRCLE
  5
EB
100
AcDbEntity
100
AcDbCircle
  8
timing cover
 62
256
370
-1
  6
ByLayer
 10
0.6875
 20
3.53125
 30
0.0
 40
0.125
  0
ARC
  5
EC
100
AcDbEntity
  8
timing cover
 62
256
370
-1
  6
ByLayer
100
AcDbCircle
 10
0.6952045275941999
 20
3.7185916404714932
 30
0.0
 40
0.0625
100
AcDbArc
 50
157.9626364504248386
 51
267.6450067564595656
  0
ARC
  5
ED
100
AcDbEntity
  8
timing cover
 62
256
370
-1
  6
ByLayer
100
AcDbCircle
 10
0.0
 20
4.0
 30
0.0
 40
0.6875
100
AcDbArc
 50
337.9626364504247249
 51
27.3248044534207146
  0
LINE
  5
EE
100
AcDbEntity
100
AcDbLine
  8
timing cover
 62
256
370
-1
  6
ByLayer
 10
-1.1760695653066866
 20
4.2370691066188471
 30
0.0
 11
-0.4717656671947096
 21
3.6594329767303968
 31
0.0
  0
ARC
  5
EF
100
AcDbEntity
  8
timing cover
 62
256
370
-1
  6
ByLayer
100
AcDbCircle
 10
-0.5114000285291851
 20
3.6111073375560596
 30
0.0
 40
0.0625
100
AcDbArc
 50
312.9896867093248147
 51
50.6430461734771313
  0
ARC
  5
F0
100
AcDbEntity
  8
timing cover
 62
256
370
-1
  6
ByLayer
100
AcDbCircle
 10
0.0
 20
4.0
 30
0.0
 40
0.5625
100
AcDbArc
 50
322.8909950541914782
 51
41.4659147019053052
  0
ARC
  5
F1
100
AcDbEntity
  8
timing cover
 62
256
370
-1
  6
ByLayer
100
AcDbCircle
 10
-0.0000000000000001
 20
3.0625
 30
0.0
 40
0.6875
100
AcDbArc
 50
132.9896867093249284
 51
48.3503277261331874
  0
ARC
  5
F2
100
AcDbEntity
  8
timing cover
 62
256
370
-1
  6
ByLayer
100
AcDbCircle
 10
0.4984306970103488
 20
3.6229166666666668
 30
0.0
 40
0.0625
100
AcDbArc
 50
142.8909950541915919
 51
228.3503277261331448
  0
LINE
  5
F3
100
AcDbEntity
100
AcDbLine
  8
timing cover
 62
256
370
-1
  6
ByLayer
 10
-1.7412499999999997
 20
5.6481883994252593
 30
0.0
 11
-1.6787499999999997
 21
5.6481883994252593
 31
0.0
  0
LINE
  5
F4
100
AcDbEntity
100
AcDbLine
  8
timing cover
 62
256
370
-1
  6
ByLayer
 10
-1.7099999999999997
 20
5.6169383994252593
 30
0.0
 11
-1.7099999999999997
 21
5.6794383994252593
 31
0.0
  0
LINE
  5
F5
100
AcDbEntity
100
AcDbLine
  8
timing cover
 62
256
370
-1
  6
ByLayer
 10
-0.4284948860319207
 20
5.2990163901359892
 30
0.0
 11
-0.3659948860319207
 21
5.2990163901359892
 31
0.0
  0
LINE
  5
F6
100
AcDbEntity
100
AcDbLine
  8
timing cover
 62
256
370
-1
  6
ByLayer
 10
-0.3972448860319207
 20
5.2677663901359892
 30
0.0
 11
-0.3972448860319207
 21
5.3302663901359892
 31
0.0
  0
LINE
  5
F7
100
AcDbEntity
100
AcDbLine
  8
timing cover
 62
256
370
-1
  6
ByLayer
 10
-1.3440051139680786
 20
4.3491720092892701
 30
0.0
 11
-1.2815051139680786
 21
4.3491720092892701
 31
0.0
  0
LINE
  5
F8
100
AcDbEntity
100
AcDbLine
  8
timing cover
 62
256
370
-1
  6
ByLayer
 10
-1.3127551139680786
 20
4.3179220092892701
 30
0.0
 11
-1.3127551139680786
 21
4.3804220092892701
 31
0.0
  0
LINE
  5
F9
100
AcDbEntity
100
AcDbLine
  8
timing cover
 62
256
370
-1
  6
ByLayer
 10
0.4839279746792318
 20
4.4552448839969587
 30
0.0
 11
0.5464279746792319
 21
4.4552448839969587
 31
0.0
  0
LINE
  5
FA
100
AcDbEntity
100
AcDbLine
  8
timing cover
 62
256
370
-1
  6
ByLayer
 10
0.5151779746792319
 20
4.4239948839969587
 30
0.0
 11
0.5151779746792319
 21
4.4864948839969587
 31
0.0
  0
LINE
  5
FB
100
AcDbEntity
100
AcDbLine
  8
timing cover
 62
256
370
-1
  6
ByLayer
 10
0.65625
 20
3.53125
 30
0.0
 11
0.71875
 21
3.53125
 31
0.0
  0
LINE
  5
FC
100
AcDbEntity
100
AcDbLine
  8
timing cover
 62
256
370
-1
  6
ByLayer
 10
0.6875
 20
3.5
 30
0.0
 11
0.6875
 21
3.5625
 31
0.0
  0
LINE
  5
FD
100
AcDbEntity
100
AcDbLine
  8
timing cover
 62
256
370
-1
  6
ByLayer
 10
-0.71875
 20
3.53125
 30
0.0
 11
-0.65625
 21
3.53125
 31
0.0
  0
LINE
  5
FE
100
AcDbEntity
100
AcDbLine
  8
timing cover
 62
256
370
-1
  6
ByLayer
 10
-0.6875
 20
3.5
 30
0.0
 11
-0.6875
 21
3.5625
 31
0.0
  0
LINE
  5
FF
100
AcDbEntity
100
AcDbLine
  8
timing cover
 62
256
370
-1
  6
ByLayer
 10
0.4562154918391966
 20
2.4124741203106064
 30
0.0
 11
0.5187154918391966
 21
2.4124741203106064
 31
0.0
  0
LINE
  5
100
100
AcDbEntity
100
AcDbLine
  8
timing cover
 62
256
370
-1
  6
ByLayer
 10
0.4874654918391966
 20
2.3812241203106064
 30
0.0
 11
0.4874654918391966
 21
2.4437241203106064
 31
0.0
  0
LINE
  5
101
100
AcDbEntity
100
AcDbLine
  8
timing cover
 62
256
370
-1
  6
ByLayer
 10
-0.518715491839197
 20
2.4124741203106064
 30
0.0
 11
-0.456215491839197
 21
2.4124741203106064
 31
0.0
  0
LINE
  5
102
100
AcDbEntity
100
AcDbLine
  8
timing cover
 62
256
370
-1
  6
ByLayer
 10
-0.487465491839197
 20
2.3812241203106064
 30
0.0
 11
-0.487465491839197
 21
2.4437241203106064
 31
0.0
  0
LINE
  5
103
100
AcDbEntity
100
AcDbLine
  8
timing cover
 62
256
370
-1
  6
ByLayer
 10
-0.0312500000000002
 20
2.90625
 30
0.0
 11
0.0312499999999998
 21
2.90625
 31
0.0
  0
LINE
  5
104
100
AcDbEntity
100
AcDbLine
  8
timing cover
 62
256
370
-1
  6
ByLayer
 10
-0.0000000000000002
 20
2.875
 30
0.0
 11
-0.0000000000000002
 21
2.9375
 31
0.0
  0
ARC
  5
105
100
AcDbEntity
  8
timing cover
 62
256
370
-1
  6
ByLayer
100
AcDbCircle
 10
3.1250000000000009
 20
5.0843344733060913
 30
0.0
 40
0.6875
100
AcDbArc
 50
309.3569538265230108
 51
138.5340852980946238
  0
LINE
  5
106
100
AcDbEntity
100
AcDbLine
  8
timing cover
 62
256
370
-1
  6
ByLayer
 10
2.03125
 20
3.9999999999999991
 30
0.0
 11
1.9687500000000009
 21
4.0
 31
0.0
  0
LINE
  5
107
100
AcDbEntity
100
AcDbLine
  8
timing cover
 62
256
370
-1
  6
ByLayer
 10
2.0
 20
3.9687499999999991
 30
0.0
 11
1.9999999999999996
 21
4.0312499999999991
 31
0.0
  0
LINE
  5
108
100
AcDbEntity
100
AcDbLine
  8
timing cover
 62
256
370
-1
  6
ByLayer
 10
3.1562500000000009
 20
5.0843344733060905
 30
0.0
 11
3.0937500000000018
 21
5.0843344733060913
 31
0.0
  0
LINE
  5
109
100
AcDbEntity
100
AcDbLine
  8
timing cover
 62
256
370
-1
  6
ByLayer
 10
3.1250000000000009
 20
5.0530844733060913
 30
0.0
 11
3.125
 21
5.1155844733060905
 31
0.0
  0
LINE
  5
10A
100
AcDbEntity
100
AcDbLine
  8
timing cover
 62
256
370
-1
  6
ByLayer
 10
2.0312500000000018
 20
3.0625000000000004
 30
0.0
 11
1.9687499999999991
 21
3.0624999999999987
 31
0.0
  0
LINE
  5
10B
100
AcDbEntity
100
AcDbLine
  8
timing cover
 62
256
370
-1
  6
ByLayer
 10
2.0000000000000018
 20
3.0312500000000004
 30
0.0
 11
1.9999999999999996
 21
3.0937499999999991
 31
0.0
  0
LINE
  5
10C
100
AcDbEntity
100
AcDbLine
  8
timing cover
 62
256
370
-1
  6
ByLayer
 10
3.640246697348184
 20
4.4561011640397092
 30
0.0
 11
2.757219296231666
 21
3.7318846263579792
 31
0.0
  0
ARC
  5
10D
100
AcDbEntity
  8
timing cover
 62
256
370
-1
  6
ByLayer
100
AcDbCircle
 10
2.7968536575661425
 20
3.6835589871836421
 30
0.0
 40
0.0625
100
AcDbArc
 50
129.3569538265231813
 51
234.3226943139329421
  0
CIRCLE
  5
10E
100
AcDbEntity
100
AcDbCircle
  8
timing cover
 62
256
370
-1
  6
ByLayer
 10
2.6875
 20
3.5312499999999991
 30
0.0
 40
0.125
  0
ARC
  5
10F
100
AcDbEntity
  8
timing cover
 62
256
370
-1
  6
ByLayer
100
AcDbCircle
 10
2.8112445844757126
 20
3.3903829427689582
 30
0.0
 40
0.0625
100
AcDbArc
 50
131.2976700628961453
 51
202.0072160273047359
  0
ARC
  5
110
100
AcDbEntity
  8
timing cover
 62
256
370
-1
  6
ByLayer
100
AcDbCircle
 10
1.1887554155242892
 20
3.3903829427689574
 30
0.0
 40
0.0625
100
AcDbArc
 50
337.9927839726950651
 51
48.7023299371037055
  0
ARC
  5
111
100
AcDbEntity
  8
timing cover
 62
256
370
-1
  6
ByLayer
100
AcDbCircle
 10
2.0
 20
3.0624999999999996
 30
0.0
 40
0.8125
100
AcDbArc
 50
318.9014256314271734
 51
22.0072160273049633
  0
ARC
  5
112
100
AcDbEntity
  8
timing cover
 62
256
370
-1
  6
ByLayer
100
AcDbCircle
 10
2.659382280247657
 20
2.4873130664771654
 30
0.0
 40
0.0625
100
AcDbArc
 50
138.9014256314267186
 51
203.5244921062747778
  0
CIRCLE
  5
113
100
AcDbEntity
100
AcDbCircle
  8
timing cover
 62
256
370
-1
  6
ByLayer
 10
2.4874654918391963
 20
2.4124741203106059
 30
0.0
 40
0.125
  0
ARC
  5
114
100
AcDbEntity
  8
timing cover
 62
256
370
-1
  6
ByLayer
100
AcDbCircle
 10
2.3674681049284034
 20
2.2684016484966563
 30
0.0
 40
0.0625
100
AcDbArc
 50
50.2092197004511789
 51
114.8322861752983641
  0
ARC
  5
115
100
AcDbEntity
  8
timing cover
 62
256
370
-1
  6
ByLayer
100
AcDbCircle
 10
2.0
 20
3.0624999999999996
 30
0.0
 40
0.8125
100
AcDbArc
 50
245.1677138247009964
 51
294.832286175299032
  0
ARC
  5
116
100
AcDbEntity
  8
timing cover
 62
256
370
-1
  6
ByLayer
100
AcDbCircle
 10
1.6325318950715966
 20
2.2684016484966558
 30
0.0
 40
0.0625
100
AcDbArc
 50
65.167713824700769
 51
129.790780299548544
  0
CIRCLE
  5
117
100
AcDbEntity
100
AcDbCircle
  8
timing cover
 62
256
370
-1
  6
ByLayer
 10
1.5125345081608028
 20
2.4124741203106055
 30
0.0
 40
0.125
  0
ARC
  5
118
100
AcDbEntity
  8
timing cover
 62
256
370
-1
  6
ByLayer
100
AcDbCircle
 10
2.0
 20
3.0624999999999996
 30
0.0
 40
0.8125
100
AcDbArc
 50
157.9927839726950367
 51
221.0985743685728835
  0
ARC
  5
119
100
AcDbEntity
  8
timing cover
 62
256
370
-1
  6
ByLayer
100
AcDbCircle
 10
1.3406177197523457
 20
2.4873130664771654
 30
0.0
 40
0.0625
100
AcDbArc
 50
336.4755078937252506
 51
41.0985743685728906
  0
ARC
  5
11A
100
AcDbEntity
  8
timing cover
 62
256
370
-1
  6
ByLayer
100
AcDbCircle
 10
3.1250000000000009
 20
5.0843344733060913
 30
0.0
 40
0.8125
100
AcDbArc
 50
309.3569538265230108
 51
31.910949834244736
  0
ARC
  5
11B
100
AcDbEntity
  8
timing cover
 62
256
370
-1
  6
ByLayer
100
AcDbCircle
 10
3.867761846686264
 20
5.5468599743405873
 30
0.0
 40
0.0625
100
AcDbArc
 50
147.287883359397
 51
211.9109498342448319
  0
CIRCLE
  5
11C
100
AcDbEntity
100
AcDbCircle
  8
timing cover
 62
256
370
-1
  6
ByLayer
 10
3.7100000000000009
 20
5.6481883994252584
 30
0.0
 40
0.125
  0
ARC
  5
11D
100
AcDbEntity
  8
timing cover
 62
256
370
-1
  6
ByLayer
100
AcDbCircle
 10
3.1250000000000009
 20
5.0843344733060913
 30
0.0
 40
0.8125
100
AcDbArc
 50
55.9800892903728737
 51
138.5340852980946238
  0
ARC
  5
11E
100
AcDbEntity
  8
timing cover
 62
256
370
-1
  6
ByLayer
100
AcDbCircle
 10
3.6145458456214294
 20
5.8095722722622671
 30
0.0
 40
0.0625
100
AcDbArc
 50
235.9800892903729448
 51
300.6031557652204924
  0
LINE
  5
11F
100
AcDbEntity
100
AcDbLine
  8
timing cover
 62
256
370
-1
  6
ByLayer
 10
2.6098220253207689
 20
5.5395793573030518
 30
0.0
 11
2.5143018840590976
 21
5.4314839681045832
 31
0.0
  0
ARC
  5
120
100
AcDbEntity
  8
timing cover
 62
256
370
-1
  6
ByLayer
100
AcDbCircle
 10
2.5611362453935733
 20
5.3900980695594045
 30
0.0
 40
0.0625
100
AcDbArc
 50
138.5340852980946238
 51
209.0628646636038752
  0
CIRCLE
  5
121
100
AcDbEntity
100
AcDbCircle
  8
timing cover
 62
256
370
-1
  6
ByLayer
 10
2.3972448860319213
 20
5.2990163901359884
 30
0.0
 40
0.125
  0
LINE
  5
122
100
AcDbEntity
100
AcDbLine
  8
timing cover
 62
256
370
-1
  6
ByLayer
 10
2.280187888004745
 20
5.1665488121673935
 30
0.0
 11
1.5784907479897212
 21
4.372473086906604
 31
0.0
  0
ARC
  5
123
100
AcDbEntity
  8
timing cover
 62
256
370
-1
  6
ByLayer
100
AcDbCircle
 10
2.3270222493392216
 20
5.1251629136222148
 30
0.0
 40
0.0625
100
AcDbArc
 50
68.0053059325853155
 51
138.5340852980947091
  0
LINE
  5
124
100
AcDbEntity
100
AcDbLine
  8
timing cover
 62
256
370
-1
  6
ByLayer
 10
3.5609779746792327
 20
4.5527524423883827
 30
0.0
 11
3.4494406626294722
 21
4.4612749119596939
 31
0.0
  0
ARC
  5
125
100
AcDbEntity
  8
timing cover
 62
256
370
-1
  6
ByLayer
100
AcDbCircle
 10
3.4098063012949957
 20
4.509600551134028
 30
0.0
 40
0.0625
100
AcDbArc
 50
238.8281744610136172
 51
309.3569538265230108
  0
CIRCLE
  5
126
100
AcDbEntity
100
AcDbCircle
  8
timing cover
 62
256
370
-1
  6
ByLayer
 10
3.3127551139680786
 20
4.3491720092892683
 30
0.0
 40
0.125
  0
ARC
  5
127
100
AcDbEntity
  8
timing cover
 62
256
370
-1
  6
ByLayer
100
AcDbCircle
 10
3.1364352039722121
 20
4.2853947457931856
 30
0.0
 40
0.0625
100
AcDbArc
 50
309.3569538265230108
 51
19.8857331920322906
  0
LINE
  5
128
100
AcDbEntity
100
AcDbLine
  8
timing cover
 62
256
370
-1
  6
ByLayer
 10
2.5161533026518184
 20
5.6223511543934084
 30
0.0
 11
1.6018790233479443
 21
4.5877124619655527
 31
0.0
  0
ARC
  5
129
100
AcDbEntity
  8
timing cover
 62
256
370
-1
  6
ByLayer
100
AcDbCircle
 10
1.5550446620134686
 20
4.6290983605107305
 30
0.0
 40
0.0625
100
AcDbArc
 50
248.0053059325853724
 51
318.5340852980946238
  0
CIRCLE
  5
12A
100
AcDbEntity
100
AcDbCircle
  8
timing cover
 62
256
370
-1
  6
ByLayer
 10
1.4848220253207685
 20
4.4552448839969578
 30
0.0
 40
0.125
  0
ARC
  5
12B
100
AcDbEntity
  8
timing cover
 62
256
370
-1
  6
ByLayer
100
AcDbCircle
 10
1.3336860567565898
 20
4.3442756585055307
 30
0.0
 40
0.0625
100
AcDbArc
 50
332.6751955320262937
 51
36.287395570783282
  0
CIRCLE
  5
12C
100
AcDbEntity
100
AcDbCircle
  8
timing cover
 62
256
370
-1
  6
ByLayer
 10
1.3125000000000004
 20
3.53125
 30
0.0
 40
0.125
  0
ARC
  5
12D
100
AcDbEntity
  8
timing cover
 62
256
370
-1
  6
ByLayer
100
AcDbCircle
 10
1.3047954724058015
 20
3.7185916404714932
 30
0.0
 40
0.0625
100
AcDbArc
 50
272.3549932435404344
 51
22.0373635495751365
  0
ARC
  5
12E
100
AcDbEntity
  8
timing cover
 62
256
370
-1
  6
ByLayer
100
AcDbCircle
 10
2.0
 20
3.9999999999999996
 30
0.0
 40
0.6875
100
AcDbArc
 50
152.6751955465792889
 51
202.0373635495752467
  0
LINE
  5
12F
100
AcDbEntity
100
AcDbLine
  8
timing cover
 62
256
370
-1
  6
ByLayer
 10
3.1760695653066868
 20
4.2370691066188471
 30
0.0
 11
2.4717656671947097
 21
3.6594329767303964
 31
0.0
  0
ARC
  5
130
100
AcDbEntity
  8
timing cover
 62
256
370
-1
  6
ByLayer
100
AcDbCircle
 10
2.5114000285291862
 20
3.6111073375560609
 30
0.0
 40
0.0625
100
AcDbArc
 50
129.3569538265228687
 51
227.0103132906751568
  0
ARC
  5
131
100
AcDbEntity
  8
timing cover
 62
256
370
-1
  6
ByLayer
100
AcDbCircle
 10
2.0
 20
3.9999999999999996
 30
0.0
 40
0.5625
100
AcDbArc
 50
138.5340852980947091
 51
217.1090049458084934
  0
ARC
  5
132
100
AcDbEntity
  8
timing cover
 62
256
370
-1
  6
ByLayer
100
AcDbCircle
 10
2.0
 20
3.0624999999999996
 30
0.0
 40
0.6875
100
AcDbArc
 50
131.6496722738668552
 51
47.0103132906750645
  0
ARC
  5
133
100
AcDbEntity
  8
timing cover
 62
256
370
-1
  6
ByLayer
100
AcDbCircle
 10
1.5015693029896511
 20
3.6229166666666663
 30
0.0
 40
0.0625
100
AcDbArc
 50
311.6496722738668836
 51
37.1090049458084152
  0
LINE
  5
134
100
AcDbEntity
100
AcDbLine
  8
timing cover
 62
256
370
-1
  6
ByLayer
 10
3.7412500000000009
 20
5.6481883994252593
 30
0.0
 11
3.67875
 21
5.6481883994252575
 31
0.0
  0
LINE
  5
135
100
AcDbEntity
100
AcDbLine
  8
timing cover
 62
256
370
-1
  6
ByLayer
 10
3.7100000000000009
 20
5.6169383994252593
 30
0.0
 11
3.7100000000000009
 21
5.6794383994252584
 31
0.0
  0
LINE
  5
136
100
AcDbEntity
100
AcDbLine
  8
timing cover
 62
256
370
-1
  6
ByLayer
 10
2.4284948860319213
 20
5.2990163901359884
 30
0.0
 11
2.3659948860319222
 21
5.2990163901359892
 31
0.0
  0
LINE
  5
137
100
AcDbEntity
100
AcDbLine
  8
timing cover
 62
256
370
-1
  6
ByLayer
 10
2.3972448860319213
 20
5.2677663901359884
 30
0.0
 11
2.3972448860319204
 21
5.3302663901359875
 31
0.0
  0
LINE
  5
138
100
AcDbEntity
100
AcDbLine
  8
timing cover
 62
256
370
-1
  6
ByLayer
 10
3.3440051139680786
 20
4.3491720092892692
 30
0.0
 11
3.2815051139680795
 21
4.3491720092892701
 31
0.0
  0
LINE
  5
139
100
AcDbEntity
100
AcDbLine
  8
timing cover
 62
256
370
-1
  6
ByLayer
 10
3.3127551139680795
 20
4.3179220092892701
 30
0.0
 11
3.3127551139680786
 21
4.3804220092892674
 31
0.0
  0
LINE
  5
13A
100
AcDbEntity
100
AcDbLine
  8
timing cover
 62
256
370
-1
  6
ByLayer
 10
1.5160720253207689
 20
4.4552448839969578
 30
0.0
 11
1.453572025320768
 21
4.4552448839969578
 31
0.0
  0
LINE
  5
13B
100
AcDbEntity
100
AcDbLine
  8
timing cover
 62
256
370
-1
  6
ByLayer
 10
1.4848220253207689
 20
4.4239948839969587
 30
0.0
 11
1.4848220253207685
 21
4.4864948839969578
 31
0.0
  0
LINE
  5
13C
100
AcDbEntity
100
AcDbLine
  8
timing cover
 62
256
370
-1
  6
ByLayer
 10
1.34375
 20
3.5312499999999996
 30
0.0
 11
1.2812500000000009
 21
3.53125
 31
0.0
  0
LINE
  5
13D
100
AcDbEntity
100
AcDbLine
  8
timing cover
 62
256
370
-1
  6
ByLayer
 10
1.3125000000000018
 20
3.5000000000000004
 30
0.0
 11
1.3125000000000009
 21
3.5625
 31
0.0
  0
LINE
  5
13E
100
AcDbEntity
100
AcDbLine
  8
timing cover
 62
256
370
-1
  6
ByLayer
 10
2.7187500000000018
 20
3.53125
 30
0.0
 11
2.65625
 21
3.5312499999999991
 31
0.0
  0
LINE
  5
13F
100
AcDbEntity
100
AcDbLine
  8
timing cover
 62
256
370
-1
  6
ByLayer
 10
2.6875
 20
3.4999999999999987
 30
0.0
 11
2.6875
 21
3.5624999999999987
 31
0.0
  0
LINE
  5
140
100
AcDbEntity
100
AcDbLine
  8
timing cover
 62
256
370
-1
  6
ByLayer
 10
1.5437845081608028
 20
2.4124741203106059
 30
0.0
 11
1.4812845081608019
 21
2.4124741203106055
 31
0.0
  0
LINE
  5
141
100
AcDbEntity
100
AcDbLine
  8
timing cover
 62
256
370
-1
  6
ByLayer
 10
1.5125345081608046
 20
2.3812241203106068
 30
0.0
 11
1.5125345081608055
 21
2.4437241203106068
 31
0.0
  0
LINE
  5
142
100
AcDbEntity
100
AcDbLine
  8
timing cover
 62
256
370
-1
  6
ByLayer
 10
2.5187154918391954
 20
2.412474120310605
 30
0.0
 11
2.4562154918391972
 21
2.4124741203106055
 31
0.0
  0
LINE
  5
143
100
AcDbEntity
100
AcDbLine
  8
timing cover
 62
256
370
-1
  6
ByLayer
 10
2.487465491839199
 20
2.3812241203106068
 30
0.0
 11
2.4874654918391963
 21
2.4437241203106046
 31
0.0
  0
LINE
  5
144
100
AcDbEntity
100
AcDbLine
  8
timing cover
 62
256
370
-1
  6
ByLayer
 10
2.03125
 20
2.9062499999999996
 30
0.0
 11
1.96875
 21
2.9062499999999991
 31
0.0
  0
LINE
  5
145
100
AcDbEntity
100
AcDbLine
  8
timing cover
 62
256
370
-1
  6
ByLayer
 10
1.9999999999999996
 20
2.8749999999999991
 30
0.0
 11
2.0000000000000018
 21
2.9375000000000004
 31
0.0
  0
ARC
  5
146
100
AcDbEntity
  8
timing cover
 62
256
370
-1
  6
ByLayer
100
AcDbCircle
 10
-1.125
 20
10.0843344733060913
 30
0.0
 40
0.6875
100
AcDbArc
 50
41.4659147019053265
 51
230.6430461734770176
  0
LINE
  5
147
100
AcDbEntity
100
AcDbLine
  8
timing cover
 62
256
370
-1
  6
ByLayer
 10
-0.03125
 20
9.0
 30
0.0
 11
0.03125
 21
9.0
 31
0.0
  0
LINE
  5
148
100
AcDbEntity
100
AcDbLine
  8
timing cover
 62
256
370
-1
  6
ByLayer
 10
0.0
 20
8.96875
 30
0.0
 11
0.0
 21
9.03125
 31
0.0
  0
LINE
  5
149
100
AcDbEntity
100
AcDbLine
  8
timing cover
 62
256
370
-1
  6
ByLayer
 10
-1.15625
 20
10.0843344733060913
 30
0.0
 11
-1.09375
 21
10.0843344733060913
 31
0.0
  0
LINE
  5
14A
100
AcDbEntity
100
AcDbLine
  8
timing cover
 62
256
370
-1
  6
ByLayer
 10
-1.125
 20
10.0530844733060913
 30
0.0
 11
-1.125
 21
10.1155844733060913
 31
0.0
  0
LINE
  5
14B
100
AcDbEntity
100
AcDbLine
  8
timing cover
 62
256
370
-1
  6
ByLayer
 10
-0.0312500000000001
 20
8.0625
 30
0.0
 11
0.0312499999999999
 21
8.0625
 31
0.0
  0
LINE
  5
14C
100
AcDbEntity
100
AcDbLine
  8
timing cover
 62
256
370
-1
  6
ByLayer
 10
-0.0000000000000001
 20
8.03125
 30
0.0
 11
-0.0000000000000001
 21
8.09375
 31
0.0
  0
LINE
  5
14D
100
AcDbEntity
100
AcDbLine
  8
timing cover
 62
256
370
-1
  6
ByLayer
 10
-1.6402466973481831
 20
9.4561011640397101
 30
0.0
 11
-0.7572192962316657
 21
8.7318846263579797
 31
0.0
  0
ARC
  5
14E
100
AcDbEntity
  8
timing cover
 62
256
370
-1
  6
ByLayer
100
AcDbCircle
 10
-0.7968536575661415
 20
8.6835589871836429
 30
0.0
 40
0.0625
100
AcDbArc
 50
305.6773056860669726
 51
50.6430461734768329
  0
CIRCLE
  5
14F
100
AcDbEntity
100
AcDbCircle
  8
timing cover
 62
256
370
-1
  6
ByLayer
 10
-0.6875
 20
8.53125
 30
0.0
 40
0.125
  0
ARC
  5
150
100
AcDbEntity
  8
timing cover
 62
256
370
-1
  6
ByLayer
100
AcDbCircle
 10
-0.8112445844757106
 20
8.3903829427689569
 30
0.0
 40
0.0625
100
AcDbArc
 50
337.9927839726952357
 51
48.7023299371037908
  0
ARC
  5
151
100
AcDbEntity
  8
timing cover
 62
256
370
-1
  6
ByLayer
100
AcDbCircle
 10
0.8112445844757105
 20
8.3903829427689569
 30
0.0
 40
0.0625
100
AcDbArc
 50
131.2976700628962874
 51
202.0072160273049349
  0
ARC
  5
152
100
AcDbEntity
  8
timing cover
 62
256
370
-1
  6
ByLayer
100
AcDbCircle
 10
0.0
 20
9.0
 30
0.0
 40
0.8125
100
AcDbArc
 50
337.9927839726950651
 51
73.6701422058773687
  0
ARC
  5
153
100
AcDbEntity
  8
timing cover
 62
256
370
-1
  6
ByLayer
100
AcDbCircle
 10
0.8112445844757106
 20
8.6721170572310413
 30
0.0
 40
0.0625
100
AcDbArc
 50
157.9927839726950367
 51
228.7023299371036558
  0
ARC
  5
154
100
AcDbEntity
  8
timing cover
 62
256
370
-1
  6
ByLayer
100
AcDbCircle
 10
-0.0000000000000001
 20
8.0625
 30
0.0
 40
0.8125
100
AcDbArc
 50
157.9927839726950367
 51
221.0985743685728835
  0
ARC
  5
155
100
AcDbEntity
  8
timing cover
 62
256
370
-1
  6
ByLayer
100
AcDbCircle
 10
-0.6593822802476559
 20
7.4873130664771654
 30
0.0
 40
0.0625
100
AcDbArc
 50
336.4755078937251938
 51
41.0985743685732174
  0
CIRCLE
  5
156
100
AcDbEntity
100
AcDbCircle
  8
timing cover
 62
256
370
-1
  6
ByLayer
 10
-0.487465491839197
 20
7.4124741203106064
 30
0.0
 40
0.125
  0
ARC
  5
157
100
AcDbEntity
  8
timing cover
 62
256
370
-1
  6
ByLayer
100
AcDbCircle
 10
-0.3674681049284037
 20
7.2684016484966563
 30
0.0
 40
0.0625
100
AcDbArc
 50
65.1677138247016501
 51
129.7907802995487998
  0
ARC
  5
158
100
AcDbEntity
  8
timing cover
 62
256
370
-1
  6
ByLayer
100
AcDbCircle
 10
-0.0000000000000001
 20
8.0625
 30
0.0
 40
0.8125
100
AcDbArc
 50
245.1677138247009964
 51
294.8322861752989752
  0
ARC
  5
159
100
AcDbEntity
  8
timing cover
 62
256
370
-1
  6
ByLayer
100
AcDbCircle
 10
0.3674681049284035
 20
7.2684016484966563
 30
0.0
 40
0.0625
100
AcDbArc
 50
50.209219700451392
 51
114.8322861752991884
  0
CIRCLE
  5
15A
100
AcDbEntity
100
AcDbCircle
  8
timing cover
 62
256
370
-1
  6
ByLayer
 10
0.4874654918391966
 20
7.4124741203106064
 30
0.0
 40
0.125
  0
ARC
  5
15B
100
AcDbEntity
  8
timing cover
 62
256
370
-1
  6
ByLayer
100
AcDbCircle
 10
-0.0000000000000001
 20
8.0625
 30
0.0
 40
0.8125
100
AcDbArc
 50
318.9014256314271165
 51
22.0072160273049491
  0
ARC
  5
15C
100
AcDbEntity
  8
timing cover
 62
256
370
-1
  6
ByLayer
100
AcDbCircle
 10
0.6593822802476557
 20
7.4873130664771654
 30
0.0
 40
0.0625
100
AcDbArc
 50
138.9014256314270881
 51
203.5244921062747778
  0
ARC
  5
15D
100
AcDbEntity
  8
timing cover
 62
256
370
-1
  6
ByLayer
100
AcDbCircle
 10
-1.125
 20
10.0843344733060913
 30
0.0
 40
0.8125
100
AcDbArc
 50
148.0890501657552534
 51
230.6430461734770176
  0
ARC
  5
15E
100
AcDbEntity
  8
timing cover
 62
256
370
-1
  6
ByLayer
100
AcDbCircle
 10
-1.8677618466862635
 20
10.5468599743405882
 30
0.0
 40
0.0625
100
AcDbArc
 50
328.0890501657551681
 51
32.7121166406029289
  0
CIRCLE
  5
15F
100
AcDbEntity
100
AcDbCircle
  8
timing cover
 62
256
370
-1
  6
ByLayer
 10
-1.7099999999999997
 20
10.6481883994252584
 30
0.0
 40
0.125
  0
ARC
  5
160
100
AcDbEntity
  8
timing cover
 62
256
370
-1
  6
ByLayer
100
AcDbCircle
 10
-1.125
 20
10.0843344733060913
 30
0.0
 40
0.8125
100
AcDbArc
 50
41.4659147019053336
 51
124.0199107096271121
  0
ARC
  5
161
100
AcDbEntity
  8
timing cover
 62
256
370
-1
  6
ByLayer
100
AcDbCircle
 10
-1.614545845621429
 20
10.8095722722622689
 30
0.0
 40
0.0625
100
AcDbArc
 50
239.396844234779536
 51
304.0199107096270836
  0
LINE
  5
162
100
AcDbEntity
100
AcDbLine
  8
timing cover
 62
256
370
-1
  6
ByLayer
 10
-0.6098220253207683
 20
10.539579357303051
 30
0.0
 11
-0.5143018840590963
 21
10.4314839681045832
 31
0.0
  0
ARC
  5
163
100
AcDbEntity
  8
timing cover
 62
256
370
-1
  6
ByLayer
100
AcDbCircle
 10
-0.561136245393572
 20
10.3900980695594054
 30
0.0
 40
0.0625
100
AcDbArc
 50
330.9371353363960679
 51
41.4659147019053762
  0
CIRCLE
  5
164
100
AcDbEntity
100
AcDbCircle
  8
timing cover
 62
256
370
-1
  6
ByLayer
 10
-0.3972448860319207
 20
10.2990163901359892
 30
0.0
 40
0.125
  0
LINE
  5
165
100
AcDbEntity
100
AcDbLine
  8
timing cover
 62
256
370
-1
  6
ByLayer
 10
-0.280187888004745
 20
10.1665488121673935
 30
0.0
 11
0.4215092520102804
 21
9.3724730869066022
 31
0.0
  0
ARC
  5
166
100
AcDbEntity
  8
timing cover
 62
256
370
-1
  6
ByLayer
100
AcDbCircle
 10
-0.3270222493392206
 20
10.1251629136222157
 30
0.0
 40
0.0625
100
AcDbArc
 50
41.4659147019052909
 51
111.9946940674146703
  0
LINE
  5
167
100
AcDbEntity
100
AcDbLine
  8
timing cover
 62
256
370
-1
  6
ByLayer
 10
-1.5609779746792318
 20
9.5527524423883836
 30
0.0
 11
-1.4494406626294709
 21
9.4612749119596913
 31
0.0
  0
ARC
  5
168
100
AcDbEntity
  8
timing cover
 62
256
370
-1
  6
ByLayer
100
AcDbCircle
 10
-1.4098063012949953
 20
9.5096005511340298
 30
0.0
 40
0.0625
100
AcDbArc
 50
230.6430461734770176
 51
301.1718255389862975
  0
CIRCLE
  5
169
100
AcDbEntity
100
AcDbCircle
  8
timing cover
 62
256
370
-1
  6
ByLayer
 10
-1.3127551139680786
 20
9.3491720092892692
 30
0.0
 40
0.125
  0
ARC
  5
16A
100
AcDbEntity
  8
timing cover
 62
256
370
-1
  6
ByLayer
100
AcDbCircle
 10
-1.136435203972211
 20
9.2853947457931838
 30
0.0
 40
0.0625
100
AcDbArc
 50
160.114266807967681
 51
230.6430461734770176
  0
LINE
  5
16B
100
AcDbEntity
100
AcDbLine
  8
timing cover
 62
256
370
-1
  6
ByLayer
 10
-0.5161533026518171
 20
10.6223511543934066
 30
0.0
 11
0.3981209766520563
 21
9.5877124619655536
 31
0.0
  0
ARC
  5
16C
100
AcDbEntity
  8
timing cover
 62
256
370
-1
  6
ByLayer
100
AcDbCircle
 10
0.4449553379865319
 20
9.6290983605107314
 30
0.0
 40
0.0625
100
AcDbArc
 50
221.4659147019053194
 51
291.9946940674146276
  0
CIRCLE
  5
16D
100
AcDbEntity
100
AcDbCircle
  8
timing cover
 62
256
370
-1
  6
ByLayer
 10
0.5151779746792319
 20
9.4552448839969596
 30
0.0
 40
0.125
  0
ARC
  5
16E
100
AcDbEntity
  8
timing cover
 62
256
370
-1
  6
ByLayer
100
AcDbCircle
 10
0.6663139432434108
 20
9.3442756585055307
 30
0.0
 40
0.0625
100
AcDbArc
 50
143.7126044292166966
 51
207.3248044679737063
  0
CIRCLE
  5
16F
100
AcDbEntity
100
AcDbCircle
  8
timing cover
 62
256
370
-1
  6
ByLayer
 10
0.6875
 20
8.53125
 30
0.0
 40
0.125
  0
ARC
  5
170
100
AcDbEntity
  8
timing cover
 62
256
370
-1
  6
ByLayer
100
AcDbCircle
 10
0.6952045275941999
 20
8.7185916404714927
 30
0.0
 40
0.0625
100
AcDbArc
 50
157.9626364504248386
 51
267.6450067564595656
  0
ARC
  5
171
100
AcDbEntity
  8
timing cover
 62
256
370
-1
  6
ByLayer
100
AcDbCircle
 10
0.0
 20
9.0
 30
0.0
 40
0.6875
100
AcDbArc
 50
337.9626364504247249
 51
27.3248044534207146
  0
LINE
  5
172
100
AcDbEntity
100
AcDbLine
  8
timing cover
 62
256
370
-1
  6
ByLayer
 10
-1.1760695653066866
 20
9.2370691066188471
 30
0.0
 11
-0.4717656671947096
 21
8.6594329767303968
 31
0.0
  0
ARC
  5
173
100
AcDbEntity
  8
timing cover
 62
256
370
-1
  6
ByLayer
100
AcDbCircle
 10
-0.5114000285291851
 20
8.6111073375560601
 30
0.0
 40
0.0625
100
AcDbArc
 50
312.9896867093248147
 51
50.6430461734771313
  0
ARC
  5
174
100
AcDbEntity
  8
timing cover
 62
256
370
-1
  6
ByLayer
100
AcDbCircle
 10
0.0
 20
9.0
 30
0.0
 40
0.5625
100
AcDbArc
 50
322.8909950541914782
 51
41.4659147019053052
  0
ARC
  5
175
100
AcDbEntity
  8
timing cover
 62
256
370
-1
  6
ByLayer
100
AcDbCircle
 10
-0.0000000000000001
 20
8.0625
 30
0.0
 40
0.6875
100
AcDbArc
 50
132.9896867093249284
 51
48.3503277261331874
  0
ARC
  5
176
100
AcDbEntity
  8
timing cover
 62
256
370
-1
  6
ByLayer
100
AcDbCircle
 10
0.4984306970103488
 20
8.6229166666666668
 30
0.0
 40
0.0625
100
AcDbArc
 50
142.8909950541915919
 51
228.3503277261331448
  0
LINE
  5
177
100
AcDbEntity
100
AcDbLine
  8
timing cover
 62
256
370
-1
  6
ByLayer
 10
-1.7412499999999997
 20
10.6481883994252584
 30
0.0
 11
-1.6787499999999997
 21
10.6481883994252584
 31
0.0
  0
LINE
  5
178
100
AcDbEntity
100
AcDbLine
  8
timing cover
 62
256
370
-1
  6
ByLayer
 10
-1.7099999999999997
 20
10.6169383994252584
 30
0.0
 11
-1.7099999999999997
 21
10.6794383994252584
 31
0.0
  0
LINE
  5
179
100
AcDbEntity
100
AcDbLine
  8
timing cover
 62
256
370
-1
  6
ByLayer
 10
-0.4284948860319207
 20
10.2990163901359892
 30
0.0
 11
-0.3659948860319207
 21
10.2990163901359892
 31
0.0
  0
LINE
  5
17A
100
AcDbEntity
100
AcDbLine
  8
timing cover
 62
256
370
-1
  6
ByLayer
 10
-0.3972448860319207
 20
10.2677663901359892
 30
0.0
 11
-0.3972448860319207
 21
10.3302663901359892
 31
0.0
  0
LINE
  5
17B
100
AcDbEntity
100
AcDbLine
  8
timing cover
 62
256
370
-1
  6
ByLayer
 10
-1.3440051139680786
 20
9.3491720092892692
 30
0.0
 11
-1.2815051139680786
 21
9.3491720092892692
 31
0.0
  0
LINE
  5
17C
100
AcDbEntity
100
AcDbLine
  8
timing cover
 62
256
370
-1
  6
ByLayer
 10
-1.3127551139680786
 20
9.3179220092892692
 30
0.0
 11
-1.3127551139680786
 21
9.3804220092892692
 31
0.0
  0
LINE
  5
17D
100
AcDbEntity
100
AcDbLine
  8
timing cover
 62
256
370
-1
  6
ByLayer
 10
0.4839279746792318
 20
9.4552448839969596
 30
0.0
 11
0.5464279746792319
 21
9.4552448839969596
 31
0.0
  0
LINE
  5
17E
100
AcDbEntity
100
AcDbLine
  8
timing cover
 62
256
370
-1
  6
ByLayer
 10
0.5151779746792319
 20
9.4239948839969596
 30
0.0
 11
0.5151779746792319
 21
9.4864948839969596
 31
0.0
  0
LINE
  5
17F
100
AcDbEntity
100
AcDbLine
  8
timing cover
 62
256
370
-1
  6
ByLayer
 10
0.65625
 20
8.53125
 30
0.0
 11
0.71875
 21
8.53125
 31
0.0
  0
LINE
  5
180
100
AcDbEntity
100
AcDbLine
  8
timing cover
 62
256
370
-1
  6
ByLayer
 10
0.6875
 20
8.5
 30
0.0
 11
0.6875
 21
8.5625
 31
0.0
  0
LINE
  5
181
100
AcDbEntity
100
AcDbLine
  8
timing cover
 62
256
370
-1
  6
ByLayer
 10
-0.71875
 20
8.53125
 30
0.0
 11
-0.65625
 21
8.53125
 31
0.0
  0
LINE
  5
182
100
AcDbEntity
100
AcDbLine
  8
timing cover
 62
256
370
-1
  6
ByLayer
 10
-0.6875
 20
8.5
 30
0.0
 11
-0.6875
 21
8.5625
 31
0.0
  0
LINE
  5
183
100
AcDbEntity
100
AcDbLine
  8
timing cover
 62
256
370
-1
  6
ByLayer
 10
0.4562154918391966
 20
7.4124741203106064
 30
0.0
 11
0.5187154918391966
 21
7.4124741203106064
 31
0.0
  0
LINE
  5
184
100
AcDbEntity
100
AcDbLine
  8
timing cover
 62
256
370
-1
  6
ByLayer
 10
0.4874654918391966
 20
7.3812241203106064
 30
0.0
 11
0.4874654918391966
 21
7.4437241203106064
 31
0.0
  0
LINE
  5
185
100
AcDbEntity
100
AcDbLine
  8
timing cover
 62
256
370
-1
  6
ByLayer
 10
-0.518715491839197
 20
7.4124741203106064
 30
0.0
 11
-0.456215491839197
 21
7.4124741203106064
 31
0.0
  0
LINE
  5
186
100
AcDbEntity
100
AcDbLine
  8
timing cover
 62
256
370
-1
  6
ByLayer
 10
-0.487465491839197
 20
7.3812241203106064
 30
0.0
 11
-0.487465491839197
 21
7.4437241203106064
 31
0.0
  0
LINE
  5
187
100
AcDbEntity
100
AcDbLine
  8
timing cover
 62
256
370
-1
  6
ByLayer
 10
-0.0312500000000002
 20
7.90625
 30
0.0
 11
0.0312499999999998
 21
7.90625
 31
0.0
  0
LINE
  5
188
100
AcDbEntity
100
AcDbLine
  8
timing cover
 62
256
370
-1
  6
ByLayer
 10
-0.0000000000000002
 20
7.875
 30
0.0
 11
-0.0000000000000002
 21
7.9375
 31
0.0
  0
CIRCLE
  5
189
100
AcDbEntity
100
AcDbCircle
  8
timing cover
 62
256
370
-1
  6
ByLayer
 10
-1.125
 20
10.0843344733060913
 30
0.0
 40
0.6875
  0
CIRCLE
  5
18A
100
AcDbEntity
100
AcDbCircle
  8
timing cover
 62
256
370
-1
  6
ByLayer
 10
-1.125
 20
10.0843344733060913
 30
0.0
 40
0.625
  0
CIRCLE
  5
18B
100
AcDbEntity
100
AcDbCircle
  8
timing cover
 62
256
370
-1
  6
ByLayer
 10
-0.0000000000000002
 20
7.90625
 30
0.0
 40
0.625
  0
ARC
  5
18C
100
AcDbEntity
  8
timing cover
 62
256
370
-1
  6
ByLayer
100
AcDbCircle
 10
5.1250000000000009
 20
10.0843344733060896
 30
0.0
 40
0.6875
100
AcDbArc
 50
309.3569538265230108
 51
138.5340852980946806
  0
LINE
  5
18D
100
AcDbEntity
100
AcDbLine
  8
timing cover
 62
256
370
-1
  6
ByLayer
 10
4.03125
 20
9.0
 30
0.0
 11
3.9687500000000009
 21
9.0
 31
0.0
  0
LINE
  5
18E
100
AcDbEntity
100
AcDbLine
  8
timing cover
 62
256
370
-1
  6
ByLayer
 10
4.0
 20
8.96875
 30
0.0
 11
4.0
 21
9.03125
 31
0.0
  0
LINE
  5
18F
100
AcDbEntity
100
AcDbLine
  8
timing cover
 62
256
370
-1
  6
ByLayer
 10
5.15625
 20
10.0843344733060913
 30
0.0
 11
5.09375
 21
10.0843344733060913
 31
0.0
  0
LINE
  5
190
100
AcDbEntity
100
AcDbLine
  8
timing cover
 62
256
370
-1
  6
ByLayer
 10
5.1250000000000009
 20
10.0530844733060896
 30
0.0
 11
5.125
 21
10.1155844733060913
 31
0.0
  0
LINE
  5
191
100
AcDbEntity
100
AcDbLine
  8
timing cover
 62
256
370
-1
  6
ByLayer
 10
4.03125
 20
8.0625
 30
0.0
 11
3.96875
 21
8.0625
 31
0.0
  0
LINE
  5
192
100
AcDbEntity
100
AcDbLine
  8
timing cover
 62
256
370
-1
  6
ByLayer
 10
4.0
 20
8.03125
 30
0.0
 11
4.0
 21
8.09375
 31
0.0
  0
LINE
  5
193
100
AcDbEntity
100
AcDbLine
  8
timing cover
 62
256
370
-1
  6
ByLayer
 10
5.6402466973481822
 20
9.4561011640397101
 30
0.0
 11
4.757219296231666
 21
8.7318846263579797
 31
0.0
  0
ARC
  5
194
100
AcDbEntity
  8
timing cover
 62
256
370
-1
  6
ByLayer
100
AcDbCircle
 10
4.7968536575661416
 20
8.6835589871836429
 30
0.0
 40
0.0625
100
AcDbArc
 50
129.3569538265231813
 51
234.322694313932999
  0
CIRCLE
  5
195
100
AcDbEntity
100
AcDbCircle
  8
timing cover
 62
256
370
-1
  6
ByLayer
 10
4.6875
 20
8.53125
 30
0.0
 40
0.125
  0
ARC
  5
196
100
AcDbEntity
  8
timing cover
 62
256
370
-1
  6
ByLayer
100
AcDbCircle
 10
4.8112445844757108
 20
8.3903829427689551
 30
0.0
 40
0.0625
100
AcDbArc
 50
131.2976700628962021
 51
202.0072160273047643
  0
ARC
  5
197
100
AcDbEntity
  8
timing cover
 62
256
370
-1
  6
ByLayer
100
AcDbCircle
 10
3.1887554155242901
 20
8.3903829427689569
 30
0.0
 40
0.0625
100
AcDbArc
 50
337.9927839726950651
 51
48.7023299371037197
  0
ARC
  5
198
100
AcDbEntity
  8
timing cover
 62
256
370
-1
  6
ByLayer
100
AcDbCircle
 10
4.0
 20
9.0
 30
0.0
 40
0.8125
100
AcDbArc
 50
106.3298577941226313
 51
202.0072160273049349
  0
ARC
  5
199
100
AcDbEntity
  8
timing cover
 62
256
370
-1
  6
ByLayer
100
AcDbCircle
 10
3.1887554155242892
 20
8.6721170572310413
 30
0.0
 40
0.0625
100
AcDbArc
 50
311.2976700628963727
 51
22.0072160273049739
  0
ARC
  5
19A
100
AcDbEntity
  8
timing cover
 62
256
370
-1
  6
ByLayer
100
AcDbCircle
 10
4.0
 20
8.0625
 30
0.0
 40
0.8125
100
AcDbArc
 50
318.9014256314271734
 51
22.0072160273049739
  0
ARC
  5
19B
100
AcDbEntity
  8
timing cover
 62
256
370
-1
  6
ByLayer
100
AcDbCircle
 10
4.6593822802476561
 20
7.4873130664771645
 30
0.0
 40
0.0625
100
AcDbArc
 50
138.9014256314268039
 51
203.5244921062748062
  0
CIRCLE
  5
19C
100
AcDbEntity
100
AcDbCircle
  8
timing cover
 62
256
370
-1
  6
ByLayer
 10
4.4874654918391972
 20
7.4124741203106055
 30
0.0
 40
0.125
  0
ARC
  5
19D
100
AcDbEntity
  8
timing cover
 62
256
370
-1
  6
ByLayer
100
AcDbCircle
 10
4.3674681049284043
 20
7.2684016484966563
 30
0.0
 40
0.0625
100
AcDbArc
 50
50.2092197004511931
 51
114.8322861752983499
  0
ARC
  5
19E
100
AcDbEntity
  8
timing cover
 62
256
370
-1
  6
ByLayer
100
AcDbCircle
 10
4.0
 20
8.0625
 30
0.0
 40
0.8125
100
AcDbArc
 50
245.1677138247010532
 51
294.832286175299032
  0
ARC
  5
19F
100
AcDbEntity
  8
timing cover
 62
256
370
-1
  6
ByLayer
100
AcDbCircle
 10
3.6325318950715966
 20
7.2684016484966563
 30
0.0
 40
0.0625
100
AcDbArc
 50
65.1677138247008116
 51
129.7907802995486009
  0
CIRCLE
  5
1A0
100
AcDbEntity
100
AcDbCircle
  8
timing cover
 62
256
370
-1
  6
ByLayer
 10
3.5125345081608033
 20
7.4124741203106064
 30
0.0
 40
0.125
  0
ARC
  5
1A1
100
AcDbEntity
  8
timing cover
 62
256
370
-1
  6
ByLayer
100
AcDbCircle
 10
4.0
 20
8.0625
 30
0.0
 40
0.8125
100
AcDbArc
 50
157.9927839726950367
 51
221.0985743685729119
  0
ARC
  5
1A2
100
AcDbEntity
  8
timing cover
 62
256
370
-1
  6
ByLayer
100
AcDbCircle
 10
3.3406177197523443
 20
7.4873130664771654
 30
0.0
 40
0.0625
100
AcDbArc
 50
336.4755078937252506
 51
41.0985743685729048
  0
ARC
  5
1A3
100
AcDbEntity
  8
timing cover
 62
256
370
-1
  6
ByLayer
100
AcDbCircle
 10
5.1250000000000009
 20
10.0843344733060896
 30
0.0
 40
0.8125
100
AcDbArc
 50
309.3569538265230108
 51
31.9109498342447395
  0
ARC
  5
1A4
100
AcDbEntity
  8
timing cover
 62
256
370
-1
  6
ByLayer
100
AcDbCircle
 10
5.867761846686264
 20
10.5468599743405882
 30
0.0
 40
0.0625
100
AcDbArc
 50
147.2878833593970853
 51
211.9109498342448603
  0
CIRCLE
  5
1A5
100
AcDbEntity
100
AcDbCircle
  8
timing cover
 62
256
370
-1
  6
ByLayer
 10
5.7100000000000009
 20
10.6481883994252584
 30
0.0
 40
0.125
  0
ARC
  5
1A6
100
AcDbEntity
  8
timing cover
 62
256
370
-1
  6
ByLayer
100
AcDbCircle
 10
5.1250000000000009
 20
10.0843344733060896
 30
0.0
 40
0.8125
100
AcDbArc
 50
55.9800892903728879
 51
138.5340852980946806
  0
ARC
  5
1A7
100
AcDbEntity
  8
timing cover
 62
256
370
-1
  6
ByLayer
100
AcDbCircle
 10
5.6145458456214286
 20
10.8095722722622671
 30
0.0
 40
0.0625
100
AcDbArc
 50
235.9800892903729448
 51
300.6031557652204924
  0
LINE
  5
1A8
100
AcDbEntity
100
AcDbLine
  8
timing cover
 62
256
370
-1
  6
ByLayer
 10
4.6098220253207689
 20
10.539579357303051
 30
0.0
 11
4.5143018840590958
 21
10.4314839681045832
 31
0.0
  0
ARC
  5
1A9
100
AcDbEntity
  8
timing cover
 62
256
370
-1
  6
ByLayer
100
AcDbCircle
 10
4.5611362453935715
 20
10.3900980695594054
 30
0.0
 40
0.0625
100
AcDbArc
 50
138.5340852980946238
 51
209.0628646636039036
  0
CIRCLE
  5
1AA
100
AcDbEntity
100
AcDbCircle
  8
timing cover
 62
256
370
-1
  6
ByLayer
 10
4.3972448860319204
 20
10.2990163901359892
 30
0.0
 40
0.125
  0
LINE
  5
1AB
100
AcDbEntity
100
AcDbLine
  8
timing cover
 62
256
370
-1
  6
ByLayer
 10
4.280187888004745
 20
10.1665488121673935
 30
0.0
 11
3.5784907479897199
 21
9.3724730869066022
 31
0.0
  0
ARC
  5
1AC
100
AcDbEntity
  8
timing cover
 62
256
370
-1
  6
ByLayer
100
AcDbCircle
 10
4.3270222493392207
 20
10.1251629136222157
 30
0.0
 40
0.0625
100
AcDbArc
 50
68.0053059325853297
 51
138.5340852980947091
  0
LINE
  5
1AD
100
AcDbEntity
100
AcDbLine
  8
timing cover
 62
256
370
-1
  6
ByLayer
 10
5.5609779746792318
 20
9.5527524423883818
 30
0.0
 11
5.4494406626294705
 21
9.4612749119596913
 31
0.0
  0
ARC
  5
1AE
100
AcDbEntity
  8
timing cover
 62
256
370
-1
  6
ByLayer
100
AcDbCircle
 10
5.4098063012949957
 20
9.5096005511340298
 30
0.0
 40
0.0625
100
AcDbArc
 50
238.8281744610136741
 51
309.3569538265230108
  0
CIRCLE
  5
1AF
100
AcDbEntity
100
AcDbCircle
  8
timing cover
 62
256
370
-1
  6
ByLayer
 10
5.3127551139680786
 20
9.3491720092892692
 30
0.0
 40
0.125
  0
ARC
  5
1B0
100
AcDbEntity
  8
timing cover
 62
256
370
-1
  6
ByLayer
100
AcDbCircle
 10
5.1364352039722121
 20
9.2853947457931838
 30
0.0
 40
0.0625
100
AcDbArc
 50
309.3569538265230108
 51
19.8857331920323084
  0
LINE
  5
1B1
100
AcDbEntity
100
AcDbLine
  8
timing cover
 62
256
370
-1
  6
ByLayer
 10
4.5161533026518175
 20
10.6223511543934066
 30
0.0
 11
3.6018790233479434
 21
9.5877124619655536
 31
0.0
  0
ARC
  5
1B2
100
AcDbEntity
  8
timing cover
 62
256
370
-1
  6
ByLayer
100
AcDbCircle
 10
3.555044662013469
 20
9.6290983605107314
 30
0.0
 40
0.0625
100
AcDbArc
 50
248.0053059325853724
 51
318.5340852980946238
  0
CIRCLE
  5
1B3
100
AcDbEntity
100
AcDbCircle
  8
timing cover
 62
256
370
-1
  6
ByLayer
 10
3.4848220253207685
 20
9.4552448839969596
 30
0.0
 40
0.125
  0
ARC
  5
1B4
100
AcDbEntity
  8
timing cover
 62
256
370
-1
  6
ByLayer
100
AcDbCircle
 10
3.3336860567565894
 20
9.3442756585055307
 30
0.0
 40
0.0625
100
AcDbArc
 50
332.6751955320262937
 51
36.2873955707832963
  0
CIRCLE
  5
1B5
100
AcDbEntity
100
AcDbCircle
  8
timing cover
 62
256
370
-1
  6
ByLayer
 10
3.3125
 20
8.53125
 30
0.0
 40
0.125
  0
ARC
  5
1B6
100
AcDbEntity
  8
timing cover
 62
256
370
-1
  6
ByLayer
100
AcDbCircle
 10
3.3047954724058002
 20
8.7185916404714927
 30
0.0
 40
0.0625
100
AcDbArc
 50
272.3549932435404344
 51
22.0373635495751508
  0
ARC
  5
1B7
100
AcDbEntity
  8
timing cover
 62
256
370
-1
  6
ByLayer
100
AcDbCircle
 10
4.0
 20
9.0
 30
0.0
 40
0.6875
100
AcDbArc
 50
152.6751955465792889
 51
202.0373635495752467
  0
LINE
  5
1B8
100
AcDbEntity
100
AcDbLine
  8
timing cover
 62
256
370
-1
  6
ByLayer
 10
5.1760695653066868
 20
9.2370691066188471
 30
0.0
 11
4.4717656671947097
 21
8.6594329767303968
 31
0.0
  0
ARC
  5
1B9
100
AcDbEntity
  8
timing cover
 62
256
370
-1
  6
ByLayer
100
AcDbCircle
 10
4.5114000285291844
 20
8.6111073375560601
 30
0.0
 40
0.0625
100
AcDbArc
 50
129.3569538265228687
 51
227.0103132906751853
  0
ARC
  5
1BA
100
AcDbEntity
  8
timing cover
 62
256
370
-1
  6
ByLayer
100
AcDbCircle
 10
4.0
 20
9.0
 30
0.0
 40
0.5625
100
AcDbArc
 50
138.5340852980946806
 51
217.1090049458085218
  0
ARC
  5
1BB
100
AcDbEntity
  8
timing cover
 62
256
370
-1
  6
ByLayer
100
AcDbCircle
 10
4.0
 20
8.0625
 30
0.0
 40
0.6875
100
AcDbArc
 50
131.6496722738667984
 51
47.0103132906750858
  0
ARC
  5
1BC
100
AcDbEntity
  8
timing cover
 62
256
370
-1
  6
ByLayer
100
AcDbCircle
 10
3.5015693029896511
 20
8.6229166666666668
 30
0.0
 40
0.0625
100
AcDbArc
 50
311.6496722738668836
 51
37.109004945808401
  0
LINE
  5
1BD
100
AcDbEntity
100
AcDbLine
  8
timing cover
 62
256
370
-1
  6
ByLayer
 10
5.74125
 20
10.6481883994252584
 30
0.0
 11
5.6787500000000009
 21
10.6481883994252566
 31
0.0
  0
LINE
  5
1BE
100
AcDbEntity
100
AcDbLine
  8
timing cover
 62
256
370
-1
  6
ByLayer
 10
5.7100000000000009
 20
10.6169383994252584
 30
0.0
 11
5.7100000000000009
 21
10.6794383994252584
 31
0.0
  0
LINE
  5
1BF
100
AcDbEntity
100
AcDbLine
  8
timing cover
 62
256
370
-1
  6
ByLayer
 10
4.4284948860319222
 20
10.2990163901359875
 30
0.0
 11
4.3659948860319222
 21
10.2990163901359892
 31
0.0
  0
LINE
  5
1C0
100
AcDbEntity
100
AcDbLine
  8
timing cover
 62
256
370
-1
  6
ByLayer
 10
4.3972448860319204
 20
10.2677663901359892
 30
0.0
 11
4.3972448860319204
 21
10.3302663901359892
 31
0.0
  0
LINE
  5
1C1
100
AcDbEntity
100
AcDbLine
  8
timing cover
 62
256
370
-1
  6
ByLayer
 10
5.3440051139680786
 20
9.3491720092892692
 30
0.0
 11
5.2815051139680786
 21
9.3491720092892692
 31
0.0
  0
LINE
  5
1C2
100
AcDbEntity
100
AcDbLine
  8
timing cover
 62
256
370
-1
  6
ByLayer
 10
5.3127551139680786
 20
9.3179220092892692
 30
0.0
 11
5.3127551139680786
 21
9.3804220092892692
 31
0.0
  0
LINE
  5
1C3
100
AcDbEntity
100
AcDbLine
  8
timing cover
 62
256
370
-1
  6
ByLayer
 10
3.5160720253207689
 20
9.4552448839969596
 30
0.0
 11
3.4535720253207685
 21
9.4552448839969596
 31
0.0
  0
LINE
  5
1C4
100
AcDbEntity
100
AcDbLine
  8
timing cover
 62
256
370
-1
  6
ByLayer
 10
3.484822025320768
 20
9.4239948839969596
 30
0.0
 11
3.484822025320768
 21
9.4864948839969596
 31
0.0
  0
LINE
  5
1C5
100
AcDbEntity
100
AcDbLine
  8
timing cover
 62
256
370
-1
  6
ByLayer
 10
3.34375
 20
8.53125
 30
0.0
 11
3.28125
 21
8.53125
 31
0.0
  0
LINE
  5
1C6
100
AcDbEntity
100
AcDbLine
  8
timing cover
 62
256
370
-1
  6
ByLayer
 10
3.3125
 20
8.5
 30
0.0
 11
3.3125000000000004
 21
8.5625
 31
0.0
  0
LINE
  5
1C7
100
AcDbEntity
100
AcDbLine
  8
timing cover
 62
256
370
-1
  6
ByLayer
 10
4.71875
 20
8.53125
 30
0.0
 11
4.65625
 21
8.53125
 31
0.0
  0
LINE
  5
1C8
100
AcDbEntity
100
AcDbLine
  8
timing cover
 62
256
370
-1
  6
ByLayer
 10
4.6875
 20
8.5
 30
0.0
 11
4.6875
 21
8.5625
 31
0.0
  0
LINE
  5
1C9
100
AcDbEntity
100
AcDbLine
  8
timing cover
 62
256
370
-1
  6
ByLayer
 10
3.5437845081608037
 20
7.4124741203106064
 30
0.0
 11
3.4812845081608033
 21
7.4124741203106064
 31
0.0
  0
LINE
  5
1CA
100
AcDbEntity
100
AcDbLine
  8
timing cover
 62
256
370
-1
  6
ByLayer
 10
3.5125345081608037
 20
7.3812241203106064
 30
0.0
 11
3.5125345081608037
 21
7.4437241203106064
 31
0.0
  0
LINE
  5
1CB
100
AcDbEntity
100
AcDbLine
  8
timing cover
 62
256
370
-1
  6
ByLayer
 10
4.5187154918391972
 20
7.4124741203106064
 30
0.0
 11
4.4562154918391972
 21
7.4124741203106055
 31
0.0
  0
LINE
  5
1CC
100
AcDbEntity
100
AcDbLine
  8
timing cover
 62
256
370
-1
  6
ByLayer
 10
4.4874654918391972
 20
7.3812241203106064
 30
0.0
 11
4.4874654918391972
 21
7.4437241203106055
 31
0.0
  0
LINE
  5
1CD
100
AcDbEntity
100
AcDbLine
  8
timing cover
 62
256
370
-1
  6
ByLayer
 10
4.03125
 20
7.90625
 30
0.0
 11
3.96875
 21
7.90625
 31
0.0
  0
LINE
  5
1CE
100
AcDbEntity
100
AcDbLine
  8
timing cover
 62
256
370
-1
  6
ByLayer
 10
4.0
 20
7.8749999999999991
 30
0.0
 11
4.0
 21
7.9375
 31
0.0
  0
ENDSEC
  0
SECTION
  2
OBJECTS
  0
DICTIONARY
  5
C
100
AcDbDictionary
280
0
281
1
  3
ACAD_GROUP
350
D
  3
ACAD_LAYOUT
350
1A
  3
ACAD_MLINESTYLE
350
17
  3
ACAD_PLOTSETTINGS
350
19
  3
ACAD_PLOTSTYLENAME
350
E
  3
AcDbVariableDictionary
350
1CF
  0
DICTIONARY
  5
D
100
AcDbDictionary
280
0
281
1
  0
ACDBDICTIONARYWDFLT
  5
E
100
AcDbDictionary
281
1
  3
Normal
350
F
100
AcDbDictionaryWithDefault
340
F
  0
ACDBPLACEHOLDER
  5
F
  0
DICTIONARY
  5
17
100
AcDbDictionary
280
0
281
1
  3
Standard
350
18
  0
MLINESTYLE
  5
18
100
AcDbMlineStyle
  2
STANDARD
 70
0
  3

 62
256
 51
90.0
 52
90.0
 71
2
 49
0.5
 62
256
  6
BYLAYER
 49
-0.5
 62
256
  6
BYLAYER
  0
DICTIONARY
  5
19
100
AcDbDictionary
280
0
281
1
  0
DICTIONARY
  5
1A
100
AcDbDictionary
281
1
  3
Layout1
350
1E
  3
Layout2
350
26
  3
Model
350
22
  0
LAYOUT
  5
1E
100
AcDbPlotSettings
  1

  2
C:\Program Files\AutoCAD 2002\plotters\DWF ePlot (optimized for plotting).pc3
  4

  6

 40
0.0
 41
0.0
 42
0.0
 43
0.0
 44
0.0
 45
0.0
 46
0.0
 47
0.0
 48
0.0
 49
0.0
140
0.0
141
0.0
142
1.0
143
1.0
 70
688
 72
0
 73
0
 74
5
  7

 75
16
147
1.0
148
0.0
149
0.0
100
AcDbLayout
  1
Layout1
 70
1
 71
1
 10
0.0
 20
0.0
 11
420.0
 21
297.0
 12
0.0
 22
0.0
 32
0.0
 14
100000000000000000000.0
 24
100000000000000000000.0
 34
100000000000000000000.0
 15
-100000000000000000000.0
 25
-100000000000000000000.0
 35
-100000000000000000000.0
146
0.0
 13
0.0
 23
0.0
 33
0.0
 16
1.0
 26
0.0
 36
0.0
 17
0.0
 27
1.0
 37
0.0
 76
0
330
1B
  0
LAYOUT
  5
22
100
AcDbPlotSettings
  1

  2
C:\Program Files\AutoCAD 2002\plotters\DWF ePlot (optimized for plotting).pc3
  4

  6

 40
0.0
 41
0.0
 42
0.0
 43
0.0
 44
0.0
 45
0.0
 46
0.0
 47
0.0
 48
0.0
 49
0.0
140
0.0
141
0.0
142
1.0
143
1.0
 70
1712
 72
0
 73
0
 74
0
  7

 75
0
147
1.0
148
0.0
149
0.0
100
AcDbLayout
  1
Model
 70
1
 71
0
 10
0.0
 20
0.0
 11
12.0
 21
9.0
 12
0.0
 22
0.0
 32
0.0
 14
0.0
 24
0.0
 34
0.0
 15
0.0
 25
0.0
 35
0.0
146
0.0
 13
0.0
 23
0.0
 33
0.0
 16
1.0
 26
0.0
 36
0.0
 17
0.0
 27
1.0
 37
0.0
 76
0
330
1F
  0
LAYOUT
  5
26
100
AcDbPlotSettings
  1

  2
C:\Program Files\AutoCAD 2002\plotters\DWF ePlot (optimized for plotting).pc3
  4

  6

 40
0.0
 41
0.0
 42
0.0
 43
0.0
 44
0.0
 45
0.0
 46
0.0
 47
0.0
 48
0.0
 49
0.0
140
0.0
141
0.0
142
1.0
143
1.0
 70
688
 72
0
 73
0
 74
5
  7

 75
16
147
1.0
148
0.0
149
0.0
100
AcDbLayout
  1
Layout2
 70
1
 71
2
 10
0.0
 20
0.0
 11
12.0
 21
9.0
 12
0.0
 22
0.0
 32
0.0
 14
0.0
 24
0.0
 34
0.0
 15
0.0
 25
0.0
 35
0.0
146
0.0
 13
0.0
 23
0.0
 33
0.0
 16
1.0
 26
0.0
 36
0.0
 17
0.0
 27
1.0
 37
0.0
 76
0
330
23
  0
DICTIONARY
  5
1CF
100
AcDbDictionary
281
1
  3
DIMASSOC
350
1D1
  3
HIDETEXT
350
1D0
  0
DICTIONARYVAR
  5
1D0
100
DictionaryVariables
280
0
  1
2
  0
DICTIONARYVAR
  5
1D1
100
DictionaryVariables
280
0
  1
1
  0
ENDSEC
  0
EOF
