999
dxflib 2.2.0.0
  0
SECTION
  2
HEADER
  9
$ACADVER
  1
AC1015
  9
$HANDSEED
  5
FFFF
  9
$DIMASZ
 40
0.1
  9
$PLIMMIN
 10
0.0
 20
0.0
  9
$DIMEXE
 40
0.05
  9
$DIMGAP
 40
0.025
  9
$PLIMMAX
 10
8.2677165354330722
 20
11.6929133858267722
  9
$PSVPSCALE
 40
1.0
  9
$PINSBASE
 10
-0.4516450389698718
 20
-6.9884310880732787
 30
0.0
  9
$INSUNITS
 70
1
  9
$DIMSTYLE
  2
Standard
  9
$DIMEXO
 40
0.025
  9
$DIMTXT
 40
0.1
  0
ENDSEC
  0
SECTION
  2
TABLES
  0
TABLE
  2
VPORT
  5
8
100
AcDbSymbolTable
 70
1
  0
VPORT
  5
30
100
AcDbSymbolTableRecord
100
AcDbViewportTableRecord
  2
*Active
 70
0
 10
0.0
 20
0.0
 11
1.0
 21
1.0
 12
286.3055555555554861
 22
148.5
 13
0.0
 23
0.0
 14
10.0
 24
10.0
 15
10.0
 25
10.0
 16
0.0
 26
0.0
 36
1.0
 17
0.0
 27
0.0
 37
0.0
 40
297.0
 41
1.92798353909465
 42
50.0
 43
0.0
 44
0.0
 50
0.0
 51
0.0
 71
0
 72
100
 73
1
 74
3
 75
1
 76
1
 77
0
 78
0
281
0
 65
1
110
0.0
120
0.0
130
0.0
111
1.0
121
0.0
131
0.0
112
0.0
122
1.0
132
0.0
 79
0
146
0.0
  0
ENDTAB
  0
TABLE
  2
LTYPE
  5
5
100
AcDbSymbolTable
 70
21
  0
LTYPE
  5
14
100
AcDbSymbolTableRecord
100
AcDbLinetypeTableRecord
  2
ByBlock
 70
0
  3

 72
65
 73
0
 40
0.0
  0
LTYPE
  5
15
100
AcDbSymbolTableRecord
100
AcDbLinetypeTableRecord
  2
ByLayer
 70
0
  3

 72
65
 73
0
 40
0.0
  0
LTYPE
  5
16
100
AcDbSymbolTableRecord
100
AcDbLinetypeTableRecord
  2
CONTINUOUS
 70
0
  3
Solid line
 72
65
 73
0
 40
0.0
  0
LTYPE
  5
31
100
AcDbSymbolTableRecord
100
AcDbLinetypeTableRecord
  2
DOT
 70
0
  3
Dot . . . . . . . . . . . . . . . . . . . . . .
 72
65
 73
2
 40
6.3499999999999996
 49
0.0
 74
0
 49
-6.3499999999999996
 74
0
  0
LTYPE
  5
32
100
AcDbSymbolTableRecord
100
AcDbLinetypeTableRecord
  2
DOT2
 70
0
  3
Dot (.5x) .....................................
 72
65
 73
2
 40
3.1749999999999998
 49
0.0
 74
0
 49
-3.1749999999999998
 74
0
  0
LTYPE
  5
33
100
AcDbSymbolTableRecord
100
AcDbLinetypeTableRecord
  2
DOTX2
 70
0
  3
Dot (2x) .  .  .  .  .  .  .  .  .  .  .  .  .
 72
65
 73
2
 40
12.6999999999999993
 49
0.0
 74
0
 49
-12.6999999999999993
 74
0
  0
LTYPE
  5
34
100
AcDbSymbolTableRecord
100
AcDbLinetypeTableRecord
  2
DASHED
 70
0
  3
Dashed __ __ __ __ __ __ __ __ __ __ __ __ __ _
 72
65
 73
2
 40
19.0500000000000007
 49
12.6999999999999993
 74
0
 49
-6.3499999999999996
 74
0
  0
LTYPE
  5
35
100
AcDbSymbolTableRecord
100
AcDbLinetypeTableRecord
  2
DASHED2
 70
0
  3
Dashed (.5x) _ _ _ _ _ _ _ _ _ _ _ _ _ _ _ _ _
 72
65
 73
2
 40
9.5250000000000004
 49
6.3499999999999996
 74
0
 49
-3.1749999999999998
 74
0
  0
LTYPE
  5
36
100
AcDbSymbolTableRecord
100
AcDbLinetypeTableRecord
  2
DASHEDX2
 70
0
  3
Dashed (2x) ____  ____  ____  ____  ____  ___
 72
65
 73
2
 40
38.1000000000000014
 49
25.3999999999999986
 74
0
 49
-12.6999999999999993
 74
0
  0
LTYPE
  5
37
100
AcDbSymbolTableRecord
100
AcDbLinetypeTableRecord
  2
DASHDOT
 70
0
  3
Dash dot __ . __ . __ . __ . __ . __ . __ . __
 72
65
 73
4
 40
25.3999999999999986
 49
12.6999999999999993
 74
0
 49
-6.3499999999999996
 74
0
 49
0.0
 74
0
 49
-6.3499999999999996
 74
0
  0
LTYPE
  5
38
100
AcDbSymbolTableRecord
100
AcDbLinetypeTableRecord
  2
DASHDOT2
 70
0
  3
Dash dot (.5x) _._._._._._._._._._._._._._._.
 72
65
 73
4
 40
12.6999999999999993
 49
6.3499999999999996
 74
0
 49
-3.1749999999999998
 74
0
 49
0.0
 74
0
 49
-3.1749999999999998
 74
0
  0
LTYPE
  5
39
100
AcDbSymbolTableRecord
100
AcDbLinetypeTableRecord
  2
DASHDOTX2
 70
0
  3
Dash dot (2x) ____  .  ____  .  ____  .  ___
 72
65
 73
4
 40
50.7999999999999972
 49
25.3999999999999986
 74
0
 49
-12.6999999999999993
 74
0
 49
0.0
 74
0
 49
-12.6999999999999993
 74
0
  0
LTYPE
  5
3A
100
AcDbSymbolTableRecord
100
AcDbLinetypeTableRecord
  2
DIVIDE
 70
0
  3
Divide ____ . . ____ . . ____ . . ____ . . ____
 72
65
 73
6
 40
31.75
 49
12.6999999999999993
 74
0
 49
-6.3499999999999996
 74
0
 49
0.0
 74
0
 49
-6.3499999999999996
 74
0
 49
0.0
 74
0
 49
-6.3499999999999996
 74
0
  0
LTYPE
  5
3B
100
AcDbSymbolTableRecord
100
AcDbLinetypeTableRecord
  2
DIVIDE2
 70
0
  3
Divide (.5x) __..__..__..__..__..__..__..__.._
 72
65
 73
6
 40
15.875
 49
6.3499999999999996
 74
0
 49
-3.1749999999999998
 74
0
 49
0.0
 74
0
 49
-3.1749999999999998
 74
0
 49
0.0
 74
0
 49
-3.1749999999999998
 74
0
  0
LTYPE
  5
3C
100
AcDbSymbolTableRecord
100
AcDbLinetypeTableRecord
  2
DIVIDEX2
 70
0
  3
Divide (2x) ________  .  .  ________  .  .  _
 72
65
 73
6
 40
63.5
 49
25.3999999999999986
 74
0
 49
-12.6999999999999993
 74
0
 49
0.0
 74
0
 49
-12.6999999999999993
 74
0
 49
0.0
 74
0
 49
-12.6999999999999993
 74
0
  0
LTYPE
  5
3D
100
AcDbSymbolTableRecord
100
AcDbLinetypeTableRecord
  2
CENTER
 70
0
  3
Center ____ _ ____ _ ____ _ ____ _ ____ _ ____
 72
65
 73
4
 40
50.7999999999999972
 49
31.75
 74
0
 49
-6.3499999999999996
 74
0
 49
6.3499999999999996
 74
0
 49
-6.3499999999999996
 74
0
  0
LTYPE
  5
3E
100
AcDbSymbolTableRecord
100
AcDbLinetypeTableRecord
  2
CENTER2
 70
0
  3
Center (.5x) ___ _ ___ _ ___ _ ___ _ ___ _ ___
 72
65
 73
4
 40
28.5749999999999993
 49
19.0500000000000007
 74
0
 49
-3.1749999999999998
 74
0
 49
3.1749999999999998
 74
0
 49
-3.1749999999999998
 74
0
  0
LTYPE
  5
3F
100
AcDbSymbolTableRecord
100
AcDbLinetypeTableRecord
  2
CENTERX2
 70
0
  3
Center (2x) ________  __  ________  __  _____
 72
65
 73
4
 40
101.5999999999999943
 49
63.5
 74
0
 49
-12.6999999999999993
 74
0
 49
12.6999999999999993
 74
0
 49
-12.6999999999999993
 74
0
  0
LTYPE
  5
40
100
AcDbSymbolTableRecord
100
AcDbLinetypeTableRecord
  2
BORDER
 70
0
  3
Border __ __ . __ __ . __ __ . __ __ . __ __ .
 72
65
 73
6
 40
44.4500000000000028
 49
12.6999999999999993
 74
0
 49
-6.3499999999999996
 74
0
 49
12.6999999999999993
 74
0
 49
-6.3499999999999996
 74
0
 49
0.0
 74
0
 49
-6.3499999999999996
 74
0
  0
LTYPE
  5
41
100
AcDbSymbolTableRecord
100
AcDbLinetypeTableRecord
  2
BORDER2
 70
0
  3
Border (.5x) __.__.__.__.__.__.__.__.__.__.__.
 72
65
 73
6
 40
22.2250000000000014
 49
6.3499999999999996
 74
0
 49
-3.1749999999999998
 74
0
 49
6.3499999999999996
 74
0
 49
-3.1749999999999998
 74
0
 49
0.0
 74
0
 49
-3.1749999999999998
 74
0
  0
LTYPE
  5
42
100
AcDbSymbolTableRecord
100
AcDbLinetypeTableRecord
  2
BORDERX2
 70
0
  3
Border (2x) ____  ____  .  ____  ____  .  ___
 72
65
 73
6
 40
88.9000000000000057
 49
25.3999999999999986
 74
0
 49
-12.6999999999999993
 74
0
 49
25.3999999999999986
 74
0
 49
-12.6999999999999993
 74
0
 49
0.0
 74
0
 49
-12.6999999999999993
 74
0
  0
ENDTAB
  0
TABLE
  2
LAYER
  5
2
100
AcDbSymbolTable
 70
3
  0
LAYER
  5
10
100
AcDbSymbolTableRecord
100
AcDbLayerTableRecord
  2
0
 70
0
 62
7
  6
CONTINUOUS
370
0
390
F
  0
LAYER
  5
43
100
AcDbSymbolTableRecord
100
AcDbLayerTableRecord
  2
timing cover
 70
0
 62
7
  6
CONTINUOUS
370
0
390
F
  0
LAYER
  5
44
100
AcDbSymbolTableRecord
100
AcDbLayerTableRecord
  2
sump
 70
0
 62
7
  6
CONTINUOUS
370
0
390
F
  0
ENDTAB
  0
TABLE
  2
STYLE
  5
3
100
AcDbSymbolTable
 70
1
  0
STYLE
  5
11
100
AcDbSymbolTableRecord
100
AcDbTextStyleTableRecord
  2
Standard
 70
0
 40
0.0
 41
0.75
 50
0.0
 71
0
 42
2.5
  3
txt
  4

  0
ENDTAB
  0
TABLE
  2
VIEW
  5
6
100
AcDbSymbolTable
 70
0
  0
ENDTAB
  0
TABLE
  2
UCS
  5
7
100
AcDbSymbolTable
 70
0
  0
ENDTAB
  0
TABLE
  2
APPID
  5
9
100
AcDbSymbolTable
 70
1
  0
APPID
  5
12
100
AcDbSymbolTableRecord
100
AcDbRegAppTableRecord
  2
ACAD
 70
0
  0
ENDTAB
  0
TABLE
  2
DIMSTYLE
  5
A
100
AcDbSymbolTable
 70
1
100
AcDbDimStyleTable
 71
0
  0
DIMSTYLE
105
27
100
AcDbSymbolTableRecord
100
AcDbDimStyleTableRecord
  2
Standard
 41
0.1
 42
0.025
 43
3.75
 44
0.05
 70
0
 73
0
 74
0
 77
1
 78
8
140
0.1
141
2.5
143
0.03937007874016
147
0.025
171
3
172
1
271
2
272
2
274
3
278
44
283
0
284
8
340
11
  0
ENDTAB
  0
TABLE
  2
BLOCK_RECORD
  5
1
100
AcDbSymbolTable
 70
1
  0
BLOCK_RECORD
  5
1F
100
AcDbSymbolTableRecord
100
AcDbBlockTableRecord
  2
*Model_Space
340
22
  0
BLOCK_RECORD
  5
1B
100
AcDbSymbolTableRecord
100
AcDbBlockTableRecord
  2
*Paper_Space
340
1E
  0
BLOCK_RECORD
  5
23
100
AcDbSymbolTableRecord
100
AcDbBlockTableRecord
  2
*Paper_Space0
340
26
  0
ENDTAB
  0
ENDSEC
  0
SECTION
  2
BLOCKS
  0
BLOCK
  5
20
100
AcDbEntity
  8
0
100
AcDbBlockBegin
  2
*Model_Space
 70
0
 10
0.0
 20
0.0
 30
0.0
  3
*Model_Space
  1

  0
ENDBLK
  5
21
100
AcDbEntity
  8
0
100
AcDbBlockEnd
  0
BLOCK
  5
1C
100
AcDbEntity
 67
1
  8
0
100
AcDbBlockBegin
  2
*Paper_Space
 70
0
 10
0.0
 20
0.0
 30
0.0
  3
*Paper_Space
  1

  0
ENDBLK
  5
1D
100
AcDbEntity
 67
1
  8
0
100
AcDbBlockEnd
  0
BLOCK
  5
24
100
AcDbEntity
  8
0
100
AcDbBlockBegin
  2
*Paper_Space0
 70
0
 10
0.0
 20
0.0
 30
0.0
  3
*Paper_Space0
  1

  0
ENDBLK
  5
25
100
AcDbEntity
  8
0
100
AcDbBlockEnd
  0
ENDSEC
  0
SECTION
  2
ENTITIES
  0
LINE
  5
45
100
AcDbEntity
100
AcDbLine
  8
sump
 62
3
370
-1
  6
ByLayer
 10
-1.0624999999999993
 20
-0.6249999999999996
 30
0.0
 11
-1.0624999999999993
 21
0.0000000000000006
 31
0.0
  0
LINE
  5
46
100
AcDbEntity
100
AcDbLine
  8
sump
 62
3
370
-1
  6
ByLayer
 10
1.0625000000000016
 20
-0.6249999999999996
 30
0.0
 11
1.0625000000000016
 21
0.0000000000000006
 31
0.0
  0
LINE
  5
47
100
AcDbEntity
100
AcDbLine
  8
sump
 62
3
370
-1
  6
ByLayer
 10
-1.0624999999999993
 20
-0.6249999999999996
 30
0.0
 11
-1.3124999999999993
 21
-0.6249999999999996
 31
0.0
  0
LINE
  5
48
100
AcDbEntity
100
AcDbLine
  8
sump
 62
3
370
-1
  6
ByLayer
 10
1.3125000000000016
 20
-0.6249999999999996
 30
0.0
 11
1.0625000000000016
 21
-0.6249999999999996
 31
0.0
  0
LINE
  5
49
100
AcDbEntity
100
AcDbLine
  8
sump
 62
3
370
-1
  6
ByLayer
 10
1.3125000000000016
 20
0.0000000000000006
 30
0.0
 11
-1.0624999999999993
 21
0.0000000000000006
 31
0.0
  0
LINE
  5
4A
100
AcDbEntity
100
AcDbLine
  8
sump
 62
3
370
-1
  6
ByLayer
 10
-1.0624999999999993
 20
0.0000000000000006
 30
0.0
 11
-1.3124999999999993
 21
0.0000000000000006
 31
0.0
  0
ARC
  5
4B
100
AcDbEntity
  8
sump
 62
3
370
-1
  6
ByLayer
100
AcDbCircle
 10
1.6249999999999998
 20
0.0000000000000006
 30
0.0
 40
2.8125
100
AcDbArc
 50
180.0
 51
218.4785951332979437
  0
LINE
  5
4C
100
AcDbEntity
100
AcDbLine
  8
sump
 62
3
370
-1
  6
ByLayer
 10
0.5767393692260681
 20
-1.7499999999999993
 30
0.0
 11
-0.5767393692260667
 21
-1.7499999999999993
 31
0.0
  0
ARC
  5
4D
100
AcDbEntity
  8
sump
 62
3
370
-1
  6
ByLayer
100
AcDbCircle
 10
-1.6249999999999993
 20
0.0000000000000006
 30
0.0
 40
2.6875
100
AcDbArc
 50
322.7962560093251909
 51
0.0
  0
ARC
  5
4E
100
AcDbEntity
  8
sump
 62
3
370
-1
  6
ByLayer
100
AcDbCircle
 10
1.6249999999999998
 20
0.0000000000000006
 30
0.0
 40
2.6875
100
AcDbArc
 50
180.0
 51
217.2037439906748091
  0
LINE
  5
4F
100
AcDbEntity
100
AcDbLine
  8
sump
 62
3
370
-1
  6
ByLayer
 10
-1.3124999999999993
 20
-0.6249999999999996
 30
0.0
 11
-1.3124999999999993
 21
0.0000000000000006
 31
0.0
  0
LINE
  5
50
100
AcDbEntity
100
AcDbLine
  8
sump
 62
3
370
-1
  6
ByLayer
 10
1.3125000000000016
 20
-0.6249999999999996
 30
0.0
 11
1.3125000000000016
 21
0.0000000000000006
 31
0.0
  0
LINE
  5
51
100
AcDbEntity
100
AcDbLine
  8
sump
 62
3
370
-1
  6
ByLayer
 10
-1.1874999999999993
 20
-0.6249999999999996
 30
0.0
 11
-1.1874999999999993
 21
0.0000000000000006
 31
0.0
  0
ARC
  5
52
100
AcDbEntity
  8
sump
 62
3
370
-1
  6
ByLayer
100
AcDbCircle
 10
-1.6249999999999993
 20
0.0000000000000006
 30
0.0
 40
2.8125
100
AcDbArc
 50
321.5214048667020847
 51
0.0
  0
LINE
  5
53
100
AcDbEntity
100
AcDbLine
  8
sump
 62
3
370
-1
  6
ByLayer
 10
1.1875000000000016
 20
-0.6249999999999996
 30
0.0
 11
1.1875000000000016
 21
0.0000000000000006
 31
0.0
  0
LINE
  5
54
100
AcDbEntity
100
AcDbLine
  8
sump
 62
3
370
-1
  6
ByLayer
 10
1.3125000000000016
 20
-0.1562499999999995
 30
0.0
 11
-1.3124999999999993
 21
-0.1562499999999995
 31
0.0
  0
ARC
  5
55
100
AcDbEntity
  8
sump
 62
3
370
-1
  6
ByLayer
100
AcDbCircle
 10
0.0000000000000006
 20
0.0000000000000006
 30
0.0
 40
0.6875000000000001
100
AcDbArc
 50
180.0
 51
0.0
  0
ARC
  5
56
100
AcDbEntity
  8
sump
 62
3
370
-1
  6
ByLayer
100
AcDbCircle
 10
0.0000000000000006
 20
0.0000000000000006
 30
0.0
 40
0.4375
100
AcDbArc
 50
180.0
 51
360.0
  0
LINE
  5
57
100
AcDbEntity
100
AcDbLine
  8
sump
 62
3
370
-1
  6
ByLayer
 10
0.2500000000000007
 20
-1.8124999999999993
 30
0.0
 11
0.2500000000000007
 21
-1.7499999999999993
 31
0.0
  0
LINE
  5
58
100
AcDbEntity
100
AcDbLine
  8
sump
 62
3
370
-1
  6
ByLayer
 10
-0.2499999999999994
 20
-1.8124999999999993
 30
0.0
 11
-0.2499999999999994
 21
-1.7499999999999993
 31
0.0
  0
LINE
  5
59
100
AcDbEntity
100
AcDbLine
  8
sump
 62
3
370
-1
  6
ByLayer
 10
0.2500000000000007
 20
-1.8124999999999993
 30
0.0
 11
-0.2499999999999994
 21
-1.8124999999999993
 31
0.0
  0
LINE
  5
5A
100
AcDbEntity
100
AcDbLine
  8
sump
 62
3
370
-1
  6
ByLayer
 10
0.5155679736929641
 20
-1.6249999999999993
 30
0.0
 11
-0.9374999999999993
 21
-1.6249999999999993
 31
0.0
  0
LINE
  5
5B
100
AcDbEntity
100
AcDbLine
  8
sump
 62
3
370
-1
  6
ByLayer
 10
-0.4999999999999993
 20
-1.6249999999999993
 30
0.0
 11
-0.4999999999999993
 21
-1.1249999999999993
 31
0.0
  0
LINE
  5
5C
100
AcDbEntity
100
AcDbLine
  8
sump
 62
3
370
-1
  6
ByLayer
 10
-0.4999999999999993
 20
-1.1249999999999993
 30
0.0
 11
-0.9374999999999993
 21
-1.1249999999999993
 31
0.0
  0
LINE
  5
5D
100
AcDbEntity
100
AcDbLine
  8
sump
 62
3
370
-1
  6
ByLayer
 10
-0.9374999999999993
 20
-1.6249999999999993
 30
0.0
 11
-0.9374999999999993
 21
-1.1249999999999993
 31
0.0
  0
ARC
  5
5E
100
AcDbEntity
  8
timing cover
 62
256
370
-1
  6
ByLayer
100
AcDbCircle
 10
-1.4355000000000007
 20
1.3836107879385731
 30
0.0
 40
0.87725
100
AcDbArc
 50
41.4659147019053265
 51
230.6430461734770176
  0
LINE
  5
5F
100
AcDbEntity
100
AcDbLine
  8
timing cover
 62
256
370
-1
  6
ByLayer
 10
-0.0398750000000005
 20
0.0000000000000001
 30
0.0
 11
0.0398749999999995
 21
0.0000000000000001
 31
0.0
  0
LINE
  5
60
100
AcDbEntity
100
AcDbLine
  8
timing cover
 62
256
370
-1
  6
ByLayer
 10
-0.0000000000000005
 20
-0.0398749999999999
 30
0.0
 11
-0.0000000000000005
 21
0.0398750000000001
 31
0.0
  0
LINE
  5
61
100
AcDbEntity
100
AcDbLine
  8
timing cover
 62
256
370
-1
  6
ByLayer
 10
-1.4753750000000005
 20
1.3836107879385731
 30
0.0
 11
-1.3956250000000006
 21
1.3836107879385731
 31
0.0
  0
LINE
  5
62
100
AcDbEntity
100
AcDbLine
  8
timing cover
 62
256
370
-1
  6
ByLayer
 10
-1.4355000000000007
 20
1.3437357879385732
 30
0.0
 11
-1.4355000000000007
 21
1.4234857879385732
 31
0.0
  0
LINE
  5
63
100
AcDbEntity
100
AcDbLine
  8
timing cover
 62
256
370
-1
  6
ByLayer
 10
-0.0398750000000006
 20
-1.19625
 30
0.0
 11
0.0398749999999994
 21
-1.19625
 31
0.0
  0
LINE
  5
64
100
AcDbEntity
100
AcDbLine
  8
timing cover
 62
256
370
-1
  6
ByLayer
 10
-0.0000000000000006
 20
-1.2361249999999999
 30
0.0
 11
-0.0000000000000006
 21
-1.1563749999999999
 31
0.0
  0
LINE
  5
65
100
AcDbEntity
100
AcDbLine
  8
timing cover
 62
256
370
-1
  6
ByLayer
 10
-2.092954785816282
 20
0.5819850853146694
 30
0.0
 11
-0.966211821991606
 21
-0.3421152167672175
 31
0.0
  0
ARC
  5
66
100
AcDbEntity
  8
timing cover
 62
256
370
-1
  6
ByLayer
100
AcDbCircle
 10
-1.0167852670543971
 20
-0.4037787323536714
 30
0.0
 40
0.07975
100
AcDbArc
 50
305.6773056860669726
 51
50.6430461734768329
  0
CIRCLE
  5
67
100
AcDbEntity
100
AcDbCircle
  8
timing cover
 62
256
370
-1
  6
ByLayer
 10
-0.8772500000000006
 20
-0.5981249999999999
 30
0.0
 40
0.1595
  0
ARC
  5
68
100
AcDbEntity
  8
timing cover
 62
256
370
-1
  6
ByLayer
100
AcDbCircle
 10
-1.0351480897910073
 20
-0.7778713650268099
 30
0.0
 40
0.07975
100
AcDbArc
 50
337.9927839726952357
 51
48.7023299371037908
  0
ARC
  5
69
100
AcDbEntity
  8
timing cover
 62
256
370
-1
  6
ByLayer
100
AcDbCircle
 10
1.0351480897910059
 20
-0.7778713650268099
 30
0.0
 40
0.07975
100
AcDbArc
 50
131.2976700628962874
 51
202.0072160273049349
  0
ARC
  5
6A
100
AcDbEntity
  8
timing cover
 62
256
370
-1
  6
ByLayer
100
AcDbCircle
 10
-0.0000000000000005
 20
0.0000000000000001
 30
0.0
 40
1.0367500000000001
100
AcDbArc
 50
337.9927839726950651
 51
73.6701422058773687
  0
ARC
  5
6B
100
AcDbEntity
  8
timing cover
 62
256
370
-1
  6
ByLayer
100
AcDbCircle
 10
1.0351480897910061
 20
-0.41837863497319
 30
0.0
 40
0.07975
100
AcDbArc
 50
157.9927839726950367
 51
228.7023299371036558
  0
ARC
  5
6C
100
AcDbEntity
  8
timing cover
 62
256
370
-1
  6
ByLayer
100
AcDbCircle
 10
-0.0000000000000006
 20
-1.19625
 30
0.0
 40
1.0367500000000001
100
AcDbArc
 50
157.9927839726950367
 51
221.0985743685728835
  0
ARC
  5
6D
100
AcDbEntity
  8
timing cover
 62
256
370
-1
  6
ByLayer
100
AcDbCircle
 10
-0.8413717895960094
 20
-1.9301885271751371
 30
0.0
 40
0.07975
100
AcDbArc
 50
336.4755078937251938
 51
41.0985743685732174
  0
CIRCLE
  5
6E
100
AcDbEntity
100
AcDbCircle
  8
timing cover
 62
256
370
-1
  6
ByLayer
 10
-0.6220059675868159
 20
-2.0256830224836664
 30
0.0
 40
0.1595
  0
ARC
  5
6F
100
AcDbEntity
  8
timing cover
 62
256
370
-1
  6
ByLayer
100
AcDbCircle
 10
-0.4688893018886436
 20
-2.2095194965182658
 30
0.0
 40
0.07975
100
AcDbArc
 50
65.1677138247016501
 51
129.7907802995487998
  0
ARC
  5
70
100
AcDbEntity
  8
timing cover
 62
256
370
-1
  6
ByLayer
100
AcDbCircle
 10
-0.0000000000000006
 20
-1.19625
 30
0.0
 40
1.0367500000000001
100
AcDbArc
 50
245.1677138247009964
 51
294.8322861752989752
  0
ARC
  5
71
100
AcDbEntity
  8
timing cover
 62
256
370
-1
  6
ByLayer
100
AcDbCircle
 10
0.4688893018886424
 20
-2.2095194965182663
 30
0.0
 40
0.07975
100
AcDbArc
 50
50.209219700451392
 51
114.8322861752991884
  0
CIRCLE
  5
72
100
AcDbEntity
100
AcDbCircle
  8
timing cover
 62
256
370
-1
  6
ByLayer
 10
0.6220059675868144
 20
-2.0256830224836664
 30
0.0
 40
0.1595
  0
ARC
  5
73
100
AcDbEntity
  8
timing cover
 62
256
370
-1
  6
ByLayer
100
AcDbCircle
 10
-0.0000000000000006
 20
-1.19625
 30
0.0
 40
1.0367500000000001
100
AcDbArc
 50
318.9014256314271165
 51
22.0072160273049491
  0
ARC
  5
74
100
AcDbEntity
  8
timing cover
 62
256
370
-1
  6
ByLayer
100
AcDbCircle
 10
0.8413717895960081
 20
-1.9301885271751371
 30
0.0
 40
0.07975
100
AcDbArc
 50
138.9014256314270881
 51
203.5244921062747778
  0
ARC
  5
75
100
AcDbEntity
  8
timing cover
 62
256
370
-1
  6
ByLayer
100
AcDbCircle
 10
-1.4355000000000007
 20
1.3836107879385731
 30
0.0
 40
1.0367500000000001
100
AcDbArc
 50
148.0890501657552534
 51
230.6430461734770176
  0
ARC
  5
76
100
AcDbEntity
  8
timing cover
 62
256
370
-1
  6
ByLayer
100
AcDbCircle
 10
-2.3832641163716728
 20
1.9737933272585899
 30
0.0
 40
0.07975
100
AcDbArc
 50
328.0890501657551681
 51
32.7121166406029289
  0
CIRCLE
  5
77
100
AcDbEntity
100
AcDbCircle
  8
timing cover
 62
256
370
-1
  6
ByLayer
 10
-2.1819600000000001
 20
2.1030883976666308
 30
0.0
 40
0.1595
  0
ARC
  5
78
100
AcDbEntity
  8
timing cover
 62
256
370
-1
  6
ByLayer
100
AcDbCircle
 10
-1.4355000000000007
 20
1.3836107879385731
 30
0.0
 40
1.0367500000000001
100
AcDbArc
 50
41.4659147019053336
 51
124.0199107096271121
  0
ARC
  5
79
100
AcDbEntity
  8
timing cover
 62
256
370
-1
  6
ByLayer
100
AcDbCircle
 10
-2.0601604990129441
 20
2.309014219406655
 30
0.0
 40
0.07975
100
AcDbArc
 50
239.396844234779536
 51
304.0199107096270836
  0
LINE
  5
7A
100
AcDbEntity
100
AcDbLine
  8
timing cover
 62
256
370
-1
  6
ByLayer
 10
-0.778132904309301
 20
1.9645032599186933
 30
0.0
 11
-0.6562492040594075
 21
1.8265735433014494
 31
0.0
  0
ARC
  5
7B
100
AcDbEntity
  8
timing cover
 62
256
370
-1
  6
ByLayer
100
AcDbCircle
 10
-0.7160098491221984
 20
1.773765136757802
 30
0.0
 40
0.07975
100
AcDbArc
 50
330.9371353363960679
 51
41.4659147019053762
  0
CIRCLE
  5
7C
100
AcDbEntity
100
AcDbCircle
  8
timing cover
 62
256
370
-1
  6
ByLayer
 10
-0.5068844745767314
 20
1.6575449138135221
 30
0.0
 40
0.1595
  0
LINE
  5
7D
100
AcDbEntity
100
AcDbLine
  8
timing cover
 62
256
370
-1
  6
ByLayer
 10
-0.3575197450940552
 20
1.4885162843255948
 30
0.0
 11
0.5378458055651173
 21
0.4752756588928255
 31
0.0
  0
ARC
  5
7E
100
AcDbEntity
  8
timing cover
 62
256
370
-1
  6
ByLayer
100
AcDbCircle
 10
-0.417280390156846
 20
1.4357078777819474
 30
0.0
 40
0.07975
100
AcDbArc
 50
41.4659147019052909
 51
111.9946940674146703
  0
LINE
  5
7F
100
AcDbEntity
100
AcDbLine
  8
timing cover
 62
256
370
-1
  6
ByLayer
 10
-1.9918078956907004
 20
0.7053121164875776
 30
0.0
 11
-1.8494862855152054
 21
0.5885867876605674
 31
0.0
  0
ARC
  5
80
100
AcDbEntity
  8
timing cover
 62
256
370
-1
  6
ByLayer
100
AcDbCircle
 10
-1.7989128404524146
 20
0.6502503032470215
 30
0.0
 40
0.07975
100
AcDbArc
 50
230.6430461734770176
 51
301.1718255389862975
  0
CIRCLE
  5
81
100
AcDbEntity
100
AcDbCircle
  8
timing cover
 62
256
370
-1
  6
ByLayer
 10
-1.675075525423269
 20
0.4455434838531084
 30
0.0
 40
0.1595
  0
ARC
  5
82
100
AcDbEntity
  8
timing cover
 62
256
370
-1
  6
ByLayer
100
AcDbCircle
 10
-1.4500913202685417
 20
0.3641636956321035
 30
0.0
 40
0.07975
100
AcDbArc
 50
160.114266807967681
 51
230.6430461734770176
  0
LINE
  5
83
100
AcDbEntity
100
AcDbLine
  8
timing cover
 62
256
370
-1
  6
ByLayer
 10
-0.6586116141837193
 20
2.0701200730059881
 30
0.0
 11
0.5080023662080234
 21
0.7499211014680467
 31
0.0
  0
ARC
  5
84
100
AcDbEntity
  8
timing cover
 62
256
370
-1
  6
ByLayer
100
AcDbCircle
 10
0.5677630112708142
 20
0.8027295080116938
 30
0.0
 40
0.07975
100
AcDbArc
 50
221.4659147019053194
 51
291.9946940674146276
  0
CIRCLE
  5
85
100
AcDbEntity
100
AcDbCircle
  8
timing cover
 62
256
370
-1
  6
ByLayer
 10
0.6573670956906993
 20
0.58089247198012
 30
0.0
 40
0.1595
  0
ARC
  5
86
100
AcDbEntity
  8
timing cover
 62
256
370
-1
  6
ByLayer
100
AcDbCircle
 10
0.8502165915785915
 20
0.4392957402530572
 30
0.0
 40
0.07975
100
AcDbArc
 50
143.7126044292166966
 51
207.3248044679737063
  0
CIRCLE
  5
87
100
AcDbEntity
100
AcDbCircle
  8
timing cover
 62
256
370
-1
  6
ByLayer
 10
0.8772499999999994
 20
-0.5981249999999999
 30
0.0
 40
0.1595
  0
ARC
  5
88
100
AcDbEntity
  8
timing cover
 62
256
370
-1
  6
ByLayer
100
AcDbCircle
 10
0.8870809772101985
 20
-0.3590770667583746
 30
0.0
 40
0.07975
100
AcDbArc
 50
157.9626364504248386
 51
267.6450067564595656
  0
ARC
  5
89
100
AcDbEntity
  8
timing cover
 62
256
370
-1
  6
ByLayer
100
AcDbCircle
 10
-0.0000000000000005
 20
0.0000000000000001
 30
0.0
 40
0.87725
100
AcDbArc
 50
337.9626364504247249
 51
27.3248044534207146
  0
LINE
  5
8A
100
AcDbEntity
100
AcDbLine
  8
timing cover
 62
256
370
-1
  6
ByLayer
 10
-1.5006647653313328
 20
0.3025001800456494
 30
0.0
 11
-0.60197299134045
 21
-0.4345635216920135
 31
0.0
  0
ARC
  5
8B
100
AcDbEntity
  8
timing cover
 62
256
370
-1
  6
ByLayer
100
AcDbCircle
 10
-0.6525464364032407
 20
-0.4962270372784678
 30
0.0
 40
0.07975
100
AcDbArc
 50
312.9896867093248147
 51
50.6430461734771313
  0
ARC
  5
8C
100
AcDbEntity
  8
timing cover
 62
256
370
-1
  6
ByLayer
100
AcDbCircle
 10
-0.0000000000000005
 20
0.0000000000000001
 30
0.0
 40
0.71775
100
AcDbArc
 50
322.8909950541914782
 51
41.4659147019053052
  0
ARC
  5
8D
100
AcDbEntity
  8
timing cover
 62
256
370
-1
  6
ByLayer
100
AcDbCircle
 10
-0.0000000000000006
 20
-1.19625
 30
0.0
 40
0.87725
100
AcDbArc
 50
132.9896867093249284
 51
48.3503277261331874
  0
ARC
  5
8E
100
AcDbEntity
  8
timing cover
 62
256
370
-1
  6
ByLayer
100
AcDbCircle
 10
0.6359975693852046
 20
-0.4811583333333333
 30
0.0
 40
0.07975
100
AcDbArc
 50
142.8909950541915919
 51
228.3503277261331448
  0
LINE
  5
8F
100
AcDbEntity
100
AcDbLine
  8
timing cover
 62
256
370
-1
  6
ByLayer
 10
-2.2218350000000004
 20
2.1030883976666308
 30
0.0
 11
-2.1420850000000002
 21
2.1030883976666308
 31
0.0
  0
LINE
  5
90
100
AcDbEntity
100
AcDbLine
  8
timing cover
 62
256
370
-1
  6
ByLayer
 10
-2.1819600000000001
 20
2.0632133976666309
 30
0.0
 11
-2.1819600000000001
 21
2.1429633976666311
 31
0.0
  0
LINE
  5
91
100
AcDbEntity
100
AcDbLine
  8
timing cover
 62
256
370
-1
  6
ByLayer
 10
-0.5467594745767314
 20
1.6575449138135221
 30
0.0
 11
-0.4670094745767313
 21
1.6575449138135221
 31
0.0
  0
LINE
  5
92
100
AcDbEntity
100
AcDbLine
  8
timing cover
 62
256
370
-1
  6
ByLayer
 10
-0.5068844745767314
 20
1.617669913813522
 30
0.0
 11
-0.5068844745767314
 21
1.697419913813522
 31
0.0
  0
LINE
  5
93
100
AcDbEntity
100
AcDbLine
  8
timing cover
 62
256
370
-1
  6
ByLayer
 10
-1.7149505254232689
 20
0.4455434838531084
 30
0.0
 11
-1.6352005254232689
 21
0.4455434838531084
 31
0.0
  0
LINE
  5
94
100
AcDbEntity
100
AcDbLine
  8
timing cover
 62
256
370
-1
  6
ByLayer
 10
-1.675075525423269
 20
0.4056684838531084
 30
0.0
 11
-1.675075525423269
 21
0.4854184838531084
 31
0.0
  0
LINE
  5
95
100
AcDbEntity
100
AcDbLine
  8
timing cover
 62
256
370
-1
  6
ByLayer
 10
0.6174920956906993
 20
0.58089247198012
 30
0.0
 11
0.6972420956906993
 21
0.58089247198012
 31
0.0
  0
LINE
  5
96
100
AcDbEntity
100
AcDbLine
  8
timing cover
 62
256
370
-1
  6
ByLayer
 10
0.6573670956906993
 20
0.54101747198012
 30
0.0
 11
0.6573670956906993
 21
0.6207674719801199
 31
0.0
  0
LINE
  5
97
100
AcDbEntity
100
AcDbLine
  8
timing cover
 62
256
370
-1
  6
ByLayer
 10
0.8373749999999994
 20
-0.5981249999999999
 30
0.0
 11
0.9171249999999994
 21
-0.5981249999999999
 31
0.0
  0
LINE
  5
98
100
AcDbEntity
100
AcDbLine
  8
timing cover
 62
256
370
-1
  6
ByLayer
 10
0.8772499999999994
 20
-0.6379999999999999
 30
0.0
 11
0.8772499999999994
 21
-0.5582499999999998
 31
0.0
  0
LINE
  5
99
100
AcDbEntity
100
AcDbLine
  8
timing cover
 62
256
370
-1
  6
ByLayer
 10
-0.9171250000000006
 20
-0.5981249999999999
 30
0.0
 11
-0.8373750000000005
 21
-0.5981249999999999
 31
0.0
  0
LINE
  5
9A
100
AcDbEntity
100
AcDbLine
  8
timing cover
 62
256
370
-1
  6
ByLayer
 10
-0.8772500000000006
 20
-0.6379999999999999
 30
0.0
 11
-0.8772500000000006
 21
-0.5582499999999998
 31
0.0
  0
LINE
  5
9B
100
AcDbEntity
100
AcDbLine
  8
timing cover
 62
256
370
-1
  6
ByLayer
 10
0.5821309675868144
 20
-2.0256830224836664
 30
0.0
 11
0.6618809675868144
 21
-2.0256830224836664
 31
0.0
  0
LINE
  5
9C
100
AcDbEntity
100
AcDbLine
  8
timing cover
 62
256
370
-1
  6
ByLayer
 10
0.6220059675868144
 20
-2.0655580224836663
 30
0.0
 11
0.6220059675868144
 21
-1.9858080224836663
 31
0.0
  0
LINE
  5
9D
100
AcDbEntity
100
AcDbLine
  8
timing cover
 62
256
370
-1
  6
ByLayer
 10
-0.6618809675868159
 20
-2.0256830224836664
 30
0.0
 11
-0.5821309675868159
 21
-2.0256830224836664
 31
0.0
  0
LINE
  5
9E
100
AcDbEntity
100
AcDbLine
  8
timing cover
 62
256
370
-1
  6
ByLayer
 10
-0.6220059675868159
 20
-2.0655580224836663
 30
0.0
 11
-0.6220059675868159
 21
-1.9858080224836663
 31
0.0
  0
LINE
  5
9F
100
AcDbEntity
100
AcDbLine
  8
timing cover
 62
256
370
-1
  6
ByLayer
 10
-1.4355000000000007
 20
1.3836107879385731
 30
0.0
 11
4.9444999999999997
 21
1.3836107879385731
 31
0.0
  0
LINE
  5
A0
100
AcDbEntity
100
AcDbLine
  8
timing cover
 62
256
370
-1
  6
ByLayer
 10
-0.0000000000000005
 20
0.0000000000000001
 30
0.0
 11
6.3799999999999999
 21
0.0000000000000001
 31
0.0
  0
LINE
  5
A1
100
AcDbEntity
100
AcDbLine
  8
timing cover
 62
256
370
-1
  6
ByLayer
 10
2.552
 20
-2.2330000000000001
 30
0.0
 11
2.5520000000000005
 21
2.4203607879385731
 31
0.0
  0
LINE
  5
A2
100
AcDbEntity
100
AcDbLine
  8
timing cover
 62
256
370
-1
  6
ByLayer
 10
3.1102500000000006
 20
2.1811107879385734
 30
0.0
 11
3.1900000000000008
 21
2.1811107879385734
 31
0.0
  0
LINE
  5
A3
100
AcDbEntity
100
AcDbLine
  8
timing cover
 62
256
370
-1
  6
ByLayer
 10
3.1102500000000006
 20
2.2608607879385731
 30
0.0
 11
3.1900000000000008
 21
2.2608607879385731
 31
0.0
  0
LINE
  5
A4
100
AcDbEntity
100
AcDbLine
  8
timing cover
 62
256
370
-1
  6
ByLayer
 10
2.9507500000000007
 20
1.7026107879385732
 30
0.0
 11
3.1102500000000006
 21
1.7026107879385732
 31
0.0
  0
LINE
  5
A5
100
AcDbEntity
100
AcDbLine
  8
timing cover
 62
256
370
-1
  6
ByLayer
 10
2.9507500000000007
 20
1.0646107879385731
 30
0.0
 11
3.1102500000000006
 21
1.0646107879385731
 31
0.0
  0
LINE
  5
A6
100
AcDbEntity
100
AcDbLine
  8
timing cover
 62
256
370
-1
  6
ByLayer
 10
3.1102500000000006
 20
0.5861107879385732
 30
0.0
 11
3.1900000000000008
 21
0.5861107879385732
 31
0.0
  0
LINE
  5
A7
100
AcDbEntity
100
AcDbLine
  8
timing cover
 62
256
370
-1
  6
ByLayer
 10
3.1102500000000006
 20
0.5861107879385732
 30
0.0
 11
3.1102500000000006
 21
2.1811107879385734
 31
0.0
  0
LINE
  5
A8
100
AcDbEntity
100
AcDbLine
  8
timing cover
 62
256
370
-1
  6
ByLayer
 10
3.5090000000000008
 20
-0.3987499999999998
 30
0.0
 11
3.5090000000000008
 21
0.3987500000000002
 31
0.0
  0
LINE
  5
A9
100
AcDbEntity
100
AcDbLine
  8
timing cover
 62
256
370
-1
  6
ByLayer
 10
3.1899999999999999
 20
-0.3987499999999998
 30
0.0
 11
3.5090000000000008
 21
-0.3987499999999998
 31
0.0
  0
LINE
  5
AA
100
AcDbEntity
100
AcDbLine
  8
timing cover
 62
256
370
-1
  6
ByLayer
 10
3.1900000000000008
 20
0.3987500000000002
 30
0.0
 11
3.5090000000000008
 21
0.3987500000000002
 31
0.0
  0
LINE
  5
AB
100
AcDbEntity
100
AcDbLine
  8
timing cover
 62
256
370
-1
  6
ByLayer
 10
2.9507500000000007
 20
0.2791250000000002
 30
0.0
 11
3.5090000000000008
 21
0.2791250000000002
 31
0.0
  0
LINE
  5
AC
100
AcDbEntity
100
AcDbLine
  8
timing cover
 62
256
370
-1
  6
ByLayer
 10
2.9507500000000002
 20
-0.2791249999999998
 30
0.0
 11
3.5090000000000008
 21
-0.2791249999999998
 31
0.0
  0
LINE
  5
AD
100
AcDbEntity
100
AcDbLine
  8
timing cover
 62
256
370
-1
  6
ByLayer
 10
3.1899999999999999
 20
0.3987500000000002
 30
0.0
 11
3.1900000000000008
 21
2.2608607879385731
 31
0.0
  0
LINE
  5
AE
100
AcDbEntity
100
AcDbLine
  8
timing cover
 62
256
370
-1
  6
ByLayer
 10
3.1899999999999999
 20
-0.4784999999999999
 30
0.0
 11
3.1899999999999999
 21
-0.3987499999999998
 31
0.0
  0
LINE
  5
AF
100
AcDbEntity
100
AcDbLine
  8
timing cover
 62
256
370
-1
  6
ByLayer
 10
-0.0000000000000008
 20
-1.3956250000000001
 30
0.0
 11
6.3799999999999999
 21
-1.3956250000000001
 31
0.0
  0
LINE
  5
B0
100
AcDbEntity
100
AcDbLine
  8
timing cover
 62
256
370
-1
  6
ByLayer
 10
-0.0398750000000008
 20
-1.3956250000000001
 30
0.0
 11
0.0398749999999992
 21
-1.3956250000000001
 31
0.0
  0
LINE
  5
B1
100
AcDbEntity
100
AcDbLine
  8
timing cover
 62
256
370
-1
  6
ByLayer
 10
-0.0000000000000008
 20
-1.4355
 30
0.0
 11
-0.0000000000000008
 21
-1.35575
 31
0.0
  0
LINE
  5
B2
100
AcDbEntity
100
AcDbLine
  8
timing cover
 62
256
370
-1
  6
ByLayer
 10
2.9507500000000002
 20
-0.837375
 30
0.0
 11
3.1102500000000006
 21
-0.837375
 31
0.0
  0
LINE
  5
B3
100
AcDbEntity
100
AcDbLine
  8
timing cover
 62
256
370
-1
  6
ByLayer
 10
2.9507500000000002
 20
-1.953875
 30
0.0
 11
3.1102500000000002
 21
-1.953875
 31
0.0
  0
ARC
  5
B4
100
AcDbEntity
  8
timing cover
 62
256
370
-1
  6
ByLayer
100
AcDbCircle
 10
3.0305
 20
-2.1532499999999999
 30
0.0
 40
0.07975
100
AcDbArc
 50
270.0
 51
0.0
  0
LINE
  5
B5
100
AcDbEntity
100
AcDbLine
  8
timing cover
 62
256
370
-1
  6
ByLayer
 10
3.1102500000000006
 20
2.2608607879385731
 30
0.0
 11
3.1102500000000006
 21
2.3406107879385734
 31
0.0
  0
ARC
  5
B6
100
AcDbEntity
  8
timing cover
 62
256
370
-1
  6
ByLayer
100
AcDbCircle
 10
3.0305000000000004
 20
2.3406107879385734
 30
0.0
 40
0.07975
100
AcDbArc
 50
0.0
 51
90.0
  0
LINE
  5
B7
100
AcDbEntity
100
AcDbLine
  8
timing cover
 62
256
370
-1
  6
ByLayer
 10
3.1900000000000008
 20
-0.4784999999999999
 30
0.0
 11
3.1899999999999999
 21
-0.4784999999999999
 31
0.0
  0
LINE
  5
B8
100
AcDbEntity
100
AcDbLine
  8
timing cover
 62
256
370
-1
  6
ByLayer
 10
3.1102500000000002
 20
-2.1532499999999999
 30
0.0
 11
3.1102500000000006
 21
-0.55825
 31
0.0
  0
ARC
  5
B9
100
AcDbEntity
  8
timing cover
 62
256
370
-1
  6
ByLayer
100
AcDbCircle
 10
3.1900000000000008
 20
-0.5582499999999998
 30
0.0
 40
0.07975
100
AcDbArc
 50
90.0
 51
180.0000000000001137
  0
LINE
  5
BA
100
AcDbEntity
100
AcDbLine
  8
timing cover
 62
256
370
-1
  6
ByLayer
 10
2.5520000000000005
 20
2.2608607879385731
 30
0.0
 11
2.8710000000000004
 21
2.2608607879385731
 31
0.0
  0
ARC
  5
BB
100
AcDbEntity
  8
timing cover
 62
256
370
-1
  6
ByLayer
100
AcDbCircle
 10
2.8710000000000004
 20
2.1811107879385734
 30
0.0
 40
0.07975
100
AcDbArc
 50
0.0
 51
90.0
  0
LINE
  5
BC
100
AcDbEntity
100
AcDbLine
  8
timing cover
 62
256
370
-1
  6
ByLayer
 10
2.552
 20
-2.0735000000000001
 30
0.0
 11
2.871
 21
-2.0735000000000001
 31
0.0
  0
LINE
  5
BD
100
AcDbEntity
100
AcDbLine
  8
timing cover
 62
256
370
-1
  6
ByLayer
 10
2.9507500000000002
 20
-1.9937499999999999
 30
0.0
 11
2.9507500000000007
 21
2.1811107879385734
 31
0.0
  0
ARC
  5
BE
100
AcDbEntity
  8
timing cover
 62
256
370
-1
  6
ByLayer
100
AcDbCircle
 10
2.871
 20
-1.9937499999999999
 30
0.0
 40
0.07975
100
AcDbArc
 50
270.0
 51
0.0
  0
LINE
  5
BF
100
AcDbEntity
100
AcDbLine
  8
timing cover
 62
256
370
-1
  6
ByLayer
 10
2.552
 20
-2.2330000000000001
 30
0.0
 11
3.0305
 21
-2.2330000000000001
 31
0.0
  0
LINE
  5
C0
100
AcDbEntity
100
AcDbLine
  8
timing cover
 62
256
370
-1
  6
ByLayer
 10
2.5520000000000005
 20
2.4203607879385731
 30
0.0
 11
3.0305000000000004
 21
2.4203607879385731
 31
0.0
  0
CIRCLE
  5
C1
100
AcDbEntity
100
AcDbCircle
  8
timing cover
 62
256
370
-1
  6
ByLayer
 10
-1.4355000000000007
 20
1.3836107879385731
 30
0.0
 40
0.87725
  0
CIRCLE
  5
C2
100
AcDbEntity
100
AcDbCircle
  8
timing cover
 62
256
370
-1
  6
ByLayer
 10
-1.4355000000000007
 20
1.3836107879385731
 30
0.0
 40
0.7975
  0
CIRCLE
  5
C3
100
AcDbEntity
100
AcDbCircle
  8
timing cover
 62
256
370
-1
  6
ByLayer
 10
-0.0000000000000008
 20
-1.3956250000000001
 30
0.0
 40
0.7975
  0
ARC
  5
C4
100
AcDbEntity
  8
timing cover
 62
256
370
-1
  6
ByLayer
100
AcDbCircle
 10
-1.4355
 20
6.4876107879385723
 30
0.0
 40
0.87725
100
AcDbArc
 50
41.4659147019053265
 51
230.6430461734770176
  0
LINE
  5
C5
100
AcDbEntity
100
AcDbLine
  8
timing cover
 62
256
370
-1
  6
ByLayer
 10
-0.039875
 20
5.1040000000000001
 30
0.0
 11
0.039875
 21
5.1040000000000001
 31
0.0
  0
LINE
  5
C6
100
AcDbEntity
100
AcDbLine
  8
timing cover
 62
256
370
-1
  6
ByLayer
 10
-0.0
 20
5.0641249999999998
 30
0.0
 11
-0.0
 21
5.1438750000000004
 31
0.0
  0
LINE
  5
C7
100
AcDbEntity
100
AcDbLine
  8
timing cover
 62
256
370
-1
  6
ByLayer
 10
-1.4753750000000001
 20
6.4876107879385723
 30
0.0
 11
-1.3956250000000001
 21
6.4876107879385723
 31
0.0
  0
LINE
  5
C8
100
AcDbEntity
100
AcDbLine
  8
timing cover
 62
256
370
-1
  6
ByLayer
 10
-1.4355
 20
6.4477357879385728
 30
0.0
 11
-1.4355
 21
6.5274857879385726
 31
0.0
  0
LINE
  5
C9
100
AcDbEntity
100
AcDbLine
  8
timing cover
 62
256
370
-1
  6
ByLayer
 10
-0.0398750000000001
 20
3.9077500000000001
 30
0.0
 11
0.0398749999999999
 21
3.9077500000000001
 31
0.0
  0
LINE
  5
CA
100
AcDbEntity
100
AcDbLine
  8
timing cover
 62
256
370
-1
  6
ByLayer
 10
-0.0000000000000001
 20
3.8678750000000002
 30
0.0
 11
-0.0000000000000001
 21
3.9476249999999999
 31
0.0
  0
LINE
  5
CB
100
AcDbEntity
100
AcDbLine
  8
timing cover
 62
256
370
-1
  6
ByLayer
 10
-2.0929547858162816
 20
5.6859850853146687
 30
0.0
 11
-0.9662118219916055
 21
4.761884783232782
 31
0.0
  0
ARC
  5
CC
100
AcDbEntity
  8
timing cover
 62
256
370
-1
  6
ByLayer
100
AcDbCircle
 10
-1.0167852670543964
 20
4.7002212676463282
 30
0.0
 40
0.07975
100
AcDbArc
 50
305.6773056860669726
 51
50.6430461734768329
  0
CIRCLE
  5
CD
100
AcDbEntity
100
AcDbCircle
  8
timing cover
 62
256
370
-1
  6
ByLayer
 10
-0.87725
 20
4.5058750000000005
 30
0.0
 40
0.1595
  0
ARC
  5
CE
100
AcDbEntity
  8
timing cover
 62
256
370
-1
  6
ByLayer
100
AcDbCircle
 10
-1.0351480897910068
 20
4.3261286349731902
 30
0.0
 40
0.07975
100
AcDbArc
 50
337.9927839726952357
 51
48.7023299371037908
  0
ARC
  5
CF
100
AcDbEntity
  8
timing cover
 62
256
370
-1
  6
ByLayer
100
AcDbCircle
 10
1.0351480897910066
 20
4.3261286349731902
 30
0.0
 40
0.07975
100
AcDbArc
 50
131.2976700628962874
 51
202.0072160273049349
  0
ARC
  5
D0
100
AcDbEntity
  8
timing cover
 62
256
370
-1
  6
ByLayer
100
AcDbCircle
 10
-0.0000000000000001
 20
3.9077500000000001
 30
0.0
 40
1.0367500000000001
100
AcDbArc
 50
157.9927839726950367
 51
221.0985743685728835
  0
ARC
  5
D1
100
AcDbEntity
  8
timing cover
 62
256
370
-1
  6
ByLayer
100
AcDbCircle
 10
-0.8413717895960089
 20
3.173811472824863
 30
0.0
 40
0.07975
100
AcDbArc
 50
336.4755078937251938
 51
41.0985743685732174
  0
CIRCLE
  5
D2
100
AcDbEntity
100
AcDbCircle
  8
timing cover
 62
256
370
-1
  6
ByLayer
 10
-0.6220059675868154
 20
3.0783169775163337
 30
0.0
 40
0.1595
  0
ARC
  5
D3
100
AcDbEntity
  8
timing cover
 62
256
370
-1
  6
ByLayer
100
AcDbCircle
 10
-0.4688893018886431
 20
2.8944805034817342
 30
0.0
 40
0.07975
100
AcDbArc
 50
65.1677138247016501
 51
129.7907802995487998
  0
ARC
  5
D4
100
AcDbEntity
  8
timing cover
 62
256
370
-1
  6
ByLayer
100
AcDbCircle
 10
-0.0000000000000001
 20
3.9077500000000001
 30
0.0
 40
1.0367500000000001
100
AcDbArc
 50
245.1677138247009964
 51
294.8322861752989752
  0
ARC
  5
D5
100
AcDbEntity
  8
timing cover
 62
256
370
-1
  6
ByLayer
100
AcDbCircle
 10
0.4688893018886429
 20
2.8944805034817334
 30
0.0
 40
0.07975
100
AcDbArc
 50
50.209219700451392
 51
114.8322861752991884
  0
CIRCLE
  5
D6
100
AcDbEntity
100
AcDbCircle
  8
timing cover
 62
256
370
-1
  6
ByLayer
 10
0.6220059675868148
 20
3.0783169775163337
 30
0.0
 40
0.1595
  0
ARC
  5
D7
100
AcDbEntity
  8
timing cover
 62
256
370
-1
  6
ByLayer
100
AcDbCircle
 10
-0.0000000000000001
 20
3.9077500000000001
 30
0.0
 40
1.0367500000000001
100
AcDbArc
 50
318.9014256314271165
 51
22.0072160273049491
  0
ARC
  5
D8
100
AcDbEntity
  8
timing cover
 62
256
370
-1
  6
ByLayer
100
AcDbCircle
 10
0.8413717895960087
 20
3.173811472824863
 30
0.0
 40
0.07975
100
AcDbArc
 50
138.9014256314270881
 51
203.5244921062747778
  0
ARC
  5
D9
100
AcDbEntity
  8
timing cover
 62
256
370
-1
  6
ByLayer
100
AcDbCircle
 10
-1.4355
 20
6.4876107879385723
 30
0.0
 40
1.0367500000000001
100
AcDbArc
 50
148.0890501657552534
 51
230.6430461734770176
  0
ARC
  5
DA
100
AcDbEntity
  8
timing cover
 62
256
370
-1
  6
ByLayer
100
AcDbCircle
 10
-2.3832641163716723
 20
7.0777933272585907
 30
0.0
 40
0.07975
100
AcDbArc
 50
328.0890501657551681
 51
32.7121166406029289
  0
CIRCLE
  5
DB
100
AcDbEntity
100
AcDbCircle
  8
timing cover
 62
256
370
-1
  6
ByLayer
 10
-2.1819599999999997
 20
7.2070883976666309
 30
0.0
 40
0.1595
  0
ARC
  5
DC
100
AcDbEntity
  8
timing cover
 62
256
370
-1
  6
ByLayer
100
AcDbCircle
 10
-1.4355
 20
6.4876107879385723
 30
0.0
 40
1.0367500000000001
100
AcDbArc
 50
41.4659147019053336
 51
124.0199107096271121
  0
ARC
  5
DD
100
AcDbEntity
  8
timing cover
 62
256
370
-1
  6
ByLayer
100
AcDbCircle
 10
-2.0601604990129436
 20
7.4130142194066551
 30
0.0
 40
0.07975
100
AcDbArc
 50
239.396844234779536
 51
304.0199107096270836
  0
LINE
  5
DE
100
AcDbEntity
100
AcDbLine
  8
timing cover
 62
256
370
-1
  6
ByLayer
 10
-0.7781329043093004
 20
7.0685032599186934
 30
0.0
 11
-0.6562492040594069
 21
6.930573543301449
 31
0.0
  0
ARC
  5
DF
100
AcDbEntity
  8
timing cover
 62
256
370
-1
  6
ByLayer
100
AcDbCircle
 10
-0.7160098491221979
 20
6.8777651367578017
 30
0.0
 40
0.07975
100
AcDbArc
 50
330.9371353363960679
 51
41.4659147019053762
  0
CIRCLE
  5
E0
100
AcDbEntity
100
AcDbCircle
  8
timing cover
 62
256
370
-1
  6
ByLayer
 10
-0.5068844745767308
 20
6.7615449138135224
 30
0.0
 40
0.1595
  0
LINE
  5
E1
100
AcDbEntity
100
AcDbLine
  8
timing cover
 62
256
370
-1
  6
ByLayer
 10
-0.3575197450940546
 20
6.592516284325594
 30
0.0
 11
0.5378458055651177
 21
5.5792756588928256
 31
0.0
  0
ARC
  5
E2
100
AcDbEntity
  8
timing cover
 62
256
370
-1
  6
ByLayer
100
AcDbCircle
 10
-0.4172803901568455
 20
6.5397078777819475
 30
0.0
 40
0.07975
100
AcDbArc
 50
41.4659147019052909
 51
111.9946940674146703
  0
LINE
  5
E3
100
AcDbEntity
100
AcDbLine
  8
timing cover
 62
256
370
-1
  6
ByLayer
 10
-1.9918078956906999
 20
5.8093121164875772
 30
0.0
 11
-1.849486285515205
 21
5.6925867876605674
 31
0.0
  0
ARC
  5
E4
100
AcDbEntity
  8
timing cover
 62
256
370
-1
  6
ByLayer
100
AcDbCircle
 10
-1.798912840452414
 20
5.7542503032470211
 30
0.0
 40
0.07975
100
AcDbArc
 50
230.6430461734770176
 51
301.1718255389862975
  0
CIRCLE
  5
E5
100
AcDbEntity
100
AcDbCircle
  8
timing cover
 62
256
370
-1
  6
ByLayer
 10
-1.6750755254232683
 20
5.5495434838531086
 30
0.0
 40
0.1595
  0
ARC
  5
E6
100
AcDbEntity
  8
timing cover
 62
256
370
-1
  6
ByLayer
100
AcDbCircle
 10
-1.4500913202685413
 20
5.4681636956321036
 30
0.0
 40
0.07975
100
AcDbArc
 50
160.114266807967681
 51
230.6430461734770176
  0
LINE
  5
E7
100
AcDbEntity
100
AcDbLine
  8
timing cover
 62
256
370
-1
  6
ByLayer
 10
-0.6586116141837187
 20
7.1741200730059882
 30
0.0
 11
0.5080023662080239
 21
5.8539211014680461
 31
0.0
  0
ARC
  5
E8
100
AcDbEntity
  8
timing cover
 62
256
370
-1
  6
ByLayer
100
AcDbCircle
 10
0.5677630112708147
 20
5.9067295080116935
 30
0.0
 40
0.07975
100
AcDbArc
 50
221.4659147019053194
 51
291.9946940674146276
  0
CIRCLE
  5
E9
100
AcDbEntity
100
AcDbCircle
  8
timing cover
 62
256
370
-1
  6
ByLayer
 10
0.6573670956906998
 20
5.6848924719801195
 30
0.0
 40
0.1595
  0
ARC
  5
EA
100
AcDbEntity
  8
timing cover
 62
256
370
-1
  6
ByLayer
100
AcDbCircle
 10
0.8502165915785921
 20
5.5432957402530576
 30
0.0
 40
0.07975
100
AcDbArc
 50
143.7126044292166966
 51
207.3248044679737063
  0
CIRCLE
  5
EB
100
AcDbEntity
100
AcDbCircle
  8
timing cover
 62
256
370
-1
  6
ByLayer
 10
0.87725
 20
4.5058750000000005
 30
0.0
 40
0.1595
  0
ARC
  5
EC
100
AcDbEntity
  8
timing cover
 62
256
370
-1
  6
ByLayer
100
AcDbCircle
 10
0.8870809772101991
 20
4.7449229332416252
 30
0.0
 40
0.07975
100
AcDbArc
 50
157.9626364504248386
 51
267.6450067564595656
  0
ARC
  5
ED
100
AcDbEntity
  8
timing cover
 62
256
370
-1
  6
ByLayer
100
AcDbCircle
 10
-0.0
 20
5.1040000000000001
 30
0.0
 40
0.87725
100
AcDbArc
 50
337.9626364504247249
 51
27.3248044534207146
  0
LINE
  5
EE
100
AcDbEntity
100
AcDbLine
  8
timing cover
 62
256
370
-1
  6
ByLayer
 10
-1.5006647653313321
 20
5.4065001800456489
 30
0.0
 11
-0.6019729913404495
 21
4.6694364783079862
 31
0.0
  0
ARC
  5
EF
100
AcDbEntity
  8
timing cover
 62
256
370
-1
  6
ByLayer
100
AcDbCircle
 10
-0.6525464364032402
 20
4.6077729627215325
 30
0.0
 40
0.07975
100
AcDbArc
 50
312.9896867093248147
 51
50.6430461734771313
  0
ARC
  5
F0
100
AcDbEntity
  8
timing cover
 62
256
370
-1
  6
ByLayer
100
AcDbCircle
 10
-0.0
 20
5.1040000000000001
 30
0.0
 40
0.71775
100
AcDbArc
 50
322.8909950541914782
 51
41.4659147019053052
  0
ARC
  5
F1
100
AcDbEntity
  8
timing cover
 62
256
370
-1
  6
ByLayer
100
AcDbCircle
 10
-0.0000000000000001
 20
3.9077500000000001
 30
0.0
 40
0.87725
100
AcDbArc
 50
132.9896867093249284
 51
48.3503277261331874
  0
ARC
  5
F2
100
AcDbEntity
  8
timing cover
 62
256
370
-1
  6
ByLayer
100
AcDbCircle
 10
0.6359975693852051
 20
4.622841666666667
 30
0.0
 40
0.07975
100
AcDbArc
 50
142.8909950541915919
 51
228.3503277261331448
  0
LINE
  5
F3
100
AcDbEntity
100
AcDbLine
  8
timing cover
 62
256
370
-1
  6
ByLayer
 10
-2.2218349999999996
 20
7.2070883976666309
 30
0.0
 11
-2.1420849999999998
 21
7.2070883976666309
 31
0.0
  0
LINE
  5
F4
100
AcDbEntity
100
AcDbLine
  8
timing cover
 62
256
370
-1
  6
ByLayer
 10
-2.1819599999999997
 20
7.1672133976666306
 30
0.0
 11
-2.1819599999999997
 21
7.2469633976666312
 31
0.0
  0
LINE
  5
F5
100
AcDbEntity
100
AcDbLine
  8
timing cover
 62
256
370
-1
  6
ByLayer
 10
-0.5467594745767308
 20
6.7615449138135224
 30
0.0
 11
-0.4670094745767309
 21
6.7615449138135224
 31
0.0
  0
LINE
  5
F6
100
AcDbEntity
100
AcDbLine
  8
timing cover
 62
256
370
-1
  6
ByLayer
 10
-0.5068844745767308
 20
6.7216699138135221
 30
0.0
 11
-0.5068844745767308
 21
6.8014199138135227
 31
0.0
  0
LINE
  5
F7
100
AcDbEntity
100
AcDbLine
  8
timing cover
 62
256
370
-1
  6
ByLayer
 10
-1.7149505254232684
 20
5.5495434838531086
 30
0.0
 11
-1.6352005254232684
 21
5.5495434838531086
 31
0.0
  0
LINE
  5
F8
100
AcDbEntity
100
AcDbLine
  8
timing cover
 62
256
370
-1
  6
ByLayer
 10
-1.6750755254232683
 20
5.5096684838531091
 30
0.0
 11
-1.6750755254232683
 21
5.5894184838531089
 31
0.0
  0
LINE
  5
F9
100
AcDbEntity
100
AcDbLine
  8
timing cover
 62
256
370
-1
  6
ByLayer
 10
0.6174920956906998
 20
5.6848924719801195
 30
0.0
 11
0.6972420956906998
 21
5.6848924719801195
 31
0.0
  0
LINE
  5
FA
100
AcDbEntity
100
AcDbLine
  8
timing cover
 62
256
370
-1
  6
ByLayer
 10
0.6573670956906998
 20
5.6450174719801192
 30
0.0
 11
0.6573670956906998
 21
5.7247674719801198
 31
0.0
  0
LINE
  5
FB
100
AcDbEntity
100
AcDbLine
  8
timing cover
 62
256
370
-1
  6
ByLayer
 10
0.837375
 20
4.5058750000000005
 30
0.0
 11
0.917125
 21
4.5058750000000005
 31
0.0
  0
LINE
  5
FC
100
AcDbEntity
100
AcDbLine
  8
timing cover
 62
256
370
-1
  6
ByLayer
 10
0.87725
 20
4.4660000000000002
 30
0.0
 11
0.87725
 21
4.54575
 31
0.0
  0
LINE
  5
FD
100
AcDbEntity
100
AcDbLine
  8
timing cover
 62
256
370
-1
  6
ByLayer
 10
-0.9171250000000001
 20
4.5058750000000005
 30
0.0
 11
-0.837375
 21
4.5058750000000005
 31
0.0
  0
LINE
  5
FE
100
AcDbEntity
100
AcDbLine
  8
timing cover
 62
256
370
-1
  6
ByLayer
 10
-0.87725
 20
4.4660000000000002
 30
0.0
 11
-0.87725
 21
4.54575
 31
0.0
  0
LINE
  5
FF
100
AcDbEntity
100
AcDbLine
  8
timing cover
 62
256
370
-1
  6
ByLayer
 10
0.5821309675868148
 20
3.0783169775163337
 30
0.0
 11
0.6618809675868149
 21
3.0783169775163337
 31
0.0
  0
LINE
  5
100
100
AcDbEntity
100
AcDbLine
  8
timing cover
 62
256
370
-1
  6
ByLayer
 10
0.6220059675868148
 20
3.0384419775163338
 30
0.0
 11
0.6220059675868148
 21
3.1181919775163336
 31
0.0
  0
LINE
  5
101
100
AcDbEntity
100
AcDbLine
  8
timing cover
 62
256
370
-1
  6
ByLayer
 10
-0.6618809675868154
 20
3.0783169775163337
 30
0.0
 11
-0.5821309675868154
 21
3.0783169775163337
 31
0.0
  0
LINE
  5
102
100
AcDbEntity
100
AcDbLine
  8
timing cover
 62
256
370
-1
  6
ByLayer
 10
-0.6220059675868154
 20
3.0384419775163338
 30
0.0
 11
-0.6220059675868154
 21
3.1181919775163336
 31
0.0
  0
LINE
  5
103
100
AcDbEntity
100
AcDbLine
  8
timing cover
 62
256
370
-1
  6
ByLayer
 10
-0.0398750000000003
 20
3.7083750000000002
 30
0.0
 11
0.0398749999999997
 21
3.7083750000000002
 31
0.0
  0
LINE
  5
104
100
AcDbEntity
100
AcDbLine
  8
timing cover
 62
256
370
-1
  6
ByLayer
 10
-0.0000000000000003
 20
3.6684999999999999
 30
0.0
 11
-0.0000000000000003
 21
3.7482500000000001
 31
0.0
  0
ARC
  5
105
100
AcDbEntity
  8
timing cover
 62
256
370
-1
  6
ByLayer
100
AcDbCircle
 10
3.9875000000000012
 20
6.4876107879385723
 30
0.0
 40
0.87725
100
AcDbArc
 50
309.3569538265230108
 51
138.5340852980946238
  0
LINE
  5
106
100
AcDbEntity
100
AcDbLine
  8
timing cover
 62
256
370
-1
  6
ByLayer
 10
2.5918749999999999
 20
5.1039999999999992
 30
0.0
 11
2.5121250000000011
 21
5.1040000000000001
 31
0.0
  0
LINE
  5
107
100
AcDbEntity
100
AcDbLine
  8
timing cover
 62
256
370
-1
  6
ByLayer
 10
2.552
 20
5.0641249999999989
 30
0.0
 11
2.5519999999999996
 21
5.1438749999999986
 31
0.0
  0
LINE
  5
108
100
AcDbEntity
100
AcDbLine
  8
timing cover
 62
256
370
-1
  6
ByLayer
 10
4.027375000000001
 20
6.4876107879385714
 30
0.0
 11
3.9476250000000022
 21
6.4876107879385723
 31
0.0
  0
LINE
  5
109
100
AcDbEntity
100
AcDbLine
  8
timing cover
 62
256
370
-1
  6
ByLayer
 10
3.9875000000000012
 20
6.4477357879385728
 30
0.0
 11
3.9875000000000003
 21
6.5274857879385717
 31
0.0
  0
LINE
  5
10A
100
AcDbEntity
100
AcDbLine
  8
timing cover
 62
256
370
-1
  6
ByLayer
 10
2.5918750000000021
 20
3.9077500000000005
 30
0.0
 11
2.5121249999999988
 21
3.9077499999999983
 31
0.0
  0
LINE
  5
10B
100
AcDbEntity
100
AcDbLine
  8
timing cover
 62
256
370
-1
  6
ByLayer
 10
2.5520000000000023
 20
3.8678750000000006
 30
0.0
 11
2.5519999999999996
 21
3.9476249999999991
 31
0.0
  0
LINE
  5
10C
100
AcDbEntity
100
AcDbLine
  8
timing cover
 62
256
370
-1
  6
ByLayer
 10
4.6449547858162825
 20
5.6859850853146687
 30
0.0
 11
3.5182118219916059
 21
4.761884783232782
 31
0.0
  0
ARC
  5
10D
100
AcDbEntity
  8
timing cover
 62
256
370
-1
  6
ByLayer
100
AcDbCircle
 10
3.5687852670543978
 20
4.7002212676463273
 30
0.0
 40
0.07975
100
AcDbArc
 50
129.3569538265231813
 51
234.3226943139329421
  0
CIRCLE
  5
10E
100
AcDbEntity
100
AcDbCircle
  8
timing cover
 62
256
370
-1
  6
ByLayer
 10
3.4292500000000001
 20
4.5058749999999987
 30
0.0
 40
0.1595
  0
ARC
  5
10F
100
AcDbEntity
  8
timing cover
 62
256
370
-1
  6
ByLayer
100
AcDbCircle
 10
3.5871480897910093
 20
4.3261286349731911
 30
0.0
 40
0.07975
100
AcDbArc
 50
131.2976700628961453
 51
202.0072160273047359
  0
ARC
  5
110
100
AcDbEntity
  8
timing cover
 62
256
370
-1
  6
ByLayer
100
AcDbCircle
 10
1.516851910208993
 20
4.3261286349731893
 30
0.0
 40
0.07975
100
AcDbArc
 50
337.9927839726950651
 51
48.7023299371037055
  0
ARC
  5
111
100
AcDbEntity
  8
timing cover
 62
256
370
-1
  6
ByLayer
100
AcDbCircle
 10
2.552
 20
3.9077499999999996
 30
0.0
 40
1.0367500000000001
100
AcDbArc
 50
318.9014256314271734
 51
22.0072160273049633
  0
ARC
  5
112
100
AcDbEntity
  8
timing cover
 62
256
370
-1
  6
ByLayer
100
AcDbCircle
 10
3.3933717895960105
 20
3.173811472824863
 30
0.0
 40
0.07975
100
AcDbArc
 50
138.9014256314267186
 51
203.5244921062747778
  0
CIRCLE
  5
113
100
AcDbEntity
100
AcDbCircle
  8
timing cover
 62
256
370
-1
  6
ByLayer
 10
3.1740059675868144
 20
3.0783169775163333
 30
0.0
 40
0.1595
  0
ARC
  5
114
100
AcDbEntity
  8
timing cover
 62
256
370
-1
  6
ByLayer
100
AcDbCircle
 10
3.0208893018886429
 20
2.8944805034817334
 30
0.0
 40
0.07975
100
AcDbArc
 50
50.2092197004511789
 51
114.8322861752983641
  0
ARC
  5
115
100
AcDbEntity
  8
timing cover
 62
256
370
-1
  6
ByLayer
100
AcDbCircle
 10
2.552
 20
3.9077499999999996
 30
0.0
 40
1.0367500000000001
100
AcDbArc
 50
245.1677138247009964
 51
294.832286175299032
  0
ARC
  5
116
100
AcDbEntity
  8
timing cover
 62
256
370
-1
  6
ByLayer
100
AcDbCircle
 10
2.0831106981113572
 20
2.8944805034817329
 30
0.0
 40
0.07975
100
AcDbArc
 50
65.167713824700769
 51
129.790780299548544
  0
CIRCLE
  5
117
100
AcDbEntity
100
AcDbCircle
  8
timing cover
 62
256
370
-1
  6
ByLayer
 10
1.9299940324131843
 20
3.0783169775163328
 30
0.0
 40
0.1595
  0
ARC
  5
118
100
AcDbEntity
  8
timing cover
 62
256
370
-1
  6
ByLayer
100
AcDbCircle
 10
2.552
 20
3.9077499999999996
 30
0.0
 40
1.0367500000000001
100
AcDbArc
 50
157.9927839726950367
 51
221.0985743685728835
  0
ARC
  5
119
100
AcDbEntity
  8
timing cover
 62
256
370
-1
  6
ByLayer
100
AcDbCircle
 10
1.7106282104039932
 20
3.173811472824863
 30
0.0
 40
0.07975
100
AcDbArc
 50
336.4755078937252506
 51
41.0985743685728906
  0
ARC
  5
11A
100
AcDbEntity
  8
timing cover
 62
256
370
-1
  6
ByLayer
100
AcDbCircle
 10
3.9875000000000012
 20
6.4876107879385723
 30
0.0
 40
1.0367500000000001
100
AcDbArc
 50
309.3569538265230108
 51
31.910949834244736
  0
ARC
  5
11B
100
AcDbEntity
  8
timing cover
 62
256
370
-1
  6
ByLayer
100
AcDbCircle
 10
4.9352641163716733
 20
7.0777933272585898
 30
0.0
 40
0.07975
100
AcDbArc
 50
147.287883359397
 51
211.9109498342448319
  0
CIRCLE
  5
11C
100
AcDbEntity
100
AcDbCircle
  8
timing cover
 62
256
370
-1
  6
ByLayer
 10
4.7339600000000015
 20
7.20708839766663
 30
0.0
 40
0.1595
  0
ARC
  5
11D
100
AcDbEntity
  8
timing cover
 62
256
370
-1
  6
ByLayer
100
AcDbCircle
 10
3.9875000000000012
 20
6.4876107879385723
 30
0.0
 40
1.0367500000000001
100
AcDbArc
 50
55.9800892903728737
 51
138.5340852980946238
  0
ARC
  5
11E
100
AcDbEntity
  8
timing cover
 62
256
370
-1
  6
ByLayer
100
AcDbCircle
 10
4.6121604990129441
 20
7.4130142194066533
 30
0.0
 40
0.07975
100
AcDbArc
 50
235.9800892903729448
 51
300.6031557652204924
  0
LINE
  5
11F
100
AcDbEntity
100
AcDbLine
  8
timing cover
 62
256
370
-1
  6
ByLayer
 10
3.3301329043093011
 20
7.0685032599186943
 30
0.0
 11
3.2082492040594084
 21
6.9305735433014481
 31
0.0
  0
ARC
  5
120
100
AcDbEntity
  8
timing cover
 62
256
370
-1
  6
ByLayer
100
AcDbCircle
 10
3.2680098491221994
 20
6.8777651367577999
 30
0.0
 40
0.07975
100
AcDbArc
 50
138.5340852980946238
 51
209.0628646636038752
  0
CIRCLE
  5
121
100
AcDbEntity
100
AcDbCircle
  8
timing cover
 62
256
370
-1
  6
ByLayer
 10
3.0588844745767316
 20
6.7615449138135215
 30
0.0
 40
0.1595
  0
LINE
  5
122
100
AcDbEntity
100
AcDbLine
  8
timing cover
 62
256
370
-1
  6
ByLayer
 10
2.9095197450940549
 20
6.592516284325594
 30
0.0
 11
2.0141541944348842
 21
5.5792756588928265
 31
0.0
  0
ARC
  5
123
100
AcDbEntity
  8
timing cover
 62
256
370
-1
  6
ByLayer
100
AcDbCircle
 10
2.9692803901568467
 20
6.5397078777819457
 30
0.0
 40
0.07975
100
AcDbArc
 50
68.0053059325853155
 51
138.5340852980947091
  0
LINE
  5
124
100
AcDbEntity
100
AcDbLine
  8
timing cover
 62
256
370
-1
  6
ByLayer
 10
4.5438078956907013
 20
5.8093121164875763
 30
0.0
 11
4.4014862855152064
 21
5.69258678766057
 31
0.0
  0
ARC
  5
125
100
AcDbEntity
  8
timing cover
 62
256
370
-1
  6
ByLayer
100
AcDbCircle
 10
4.3509128404524144
 20
5.7542503032470202
 30
0.0
 40
0.07975
100
AcDbArc
 50
238.8281744610136172
 51
309.3569538265230108
  0
CIRCLE
  5
126
100
AcDbEntity
100
AcDbCircle
  8
timing cover
 62
256
370
-1
  6
ByLayer
 10
4.2270755254232686
 20
5.5495434838531068
 30
0.0
 40
0.1595
  0
ARC
  5
127
100
AcDbEntity
  8
timing cover
 62
256
370
-1
  6
ByLayer
100
AcDbCircle
 10
4.0020913202685424
 20
5.4681636956321045
 30
0.0
 40
0.07975
100
AcDbArc
 50
309.3569538265230108
 51
19.8857331920322906
  0
LINE
  5
128
100
AcDbEntity
100
AcDbLine
  8
timing cover
 62
256
370
-1
  6
ByLayer
 10
3.2106116141837204
 20
7.1741200730059891
 30
0.0
 11
2.0439976337919767
 21
5.8539211014680452
 31
0.0
  0
ARC
  5
129
100
AcDbEntity
  8
timing cover
 62
256
370
-1
  6
ByLayer
100
AcDbCircle
 10
1.984236988729186
 20
5.9067295080116926
 30
0.0
 40
0.07975
100
AcDbArc
 50
248.0053059325853724
 51
318.5340852980946238
  0
CIRCLE
  5
12A
100
AcDbEntity
100
AcDbCircle
  8
timing cover
 62
256
370
-1
  6
ByLayer
 10
1.8946329043093006
 20
5.6848924719801186
 30
0.0
 40
0.1595
  0
ARC
  5
12B
100
AcDbEntity
  8
timing cover
 62
256
370
-1
  6
ByLayer
100
AcDbCircle
 10
1.7017834084214085
 20
5.5432957402530576
 30
0.0
 40
0.07975
100
AcDbArc
 50
332.6751955320262937
 51
36.287395570783282
  0
CIRCLE
  5
12C
100
AcDbEntity
100
AcDbCircle
  8
timing cover
 62
256
370
-1
  6
ByLayer
 10
1.6747500000000006
 20
4.5058750000000005
 30
0.0
 40
0.1595
  0
ARC
  5
12D
100
AcDbEntity
  8
timing cover
 62
256
370
-1
  6
ByLayer
100
AcDbCircle
 10
1.6649190227898027
 20
4.7449229332416252
 30
0.0
 40
0.07975
100
AcDbArc
 50
272.3549932435404344
 51
22.0373635495751365
  0
ARC
  5
12E
100
AcDbEntity
  8
timing cover
 62
256
370
-1
  6
ByLayer
100
AcDbCircle
 10
2.552
 20
5.1039999999999992
 30
0.0
 40
0.87725
100
AcDbArc
 50
152.6751955465792889
 51
202.0373635495752467
  0
LINE
  5
12F
100
AcDbEntity
100
AcDbLine
  8
timing cover
 62
256
370
-1
  6
ByLayer
 10
4.0526647653313326
 20
5.4065001800456489
 30
0.0
 11
3.1539729913404497
 21
4.6694364783079862
 31
0.0
  0
ARC
  5
130
100
AcDbEntity
  8
timing cover
 62
256
370
-1
  6
ByLayer
100
AcDbCircle
 10
3.2045464364032417
 20
4.6077729627215342
 30
0.0
 40
0.07975
100
AcDbArc
 50
129.3569538265228687
 51
227.0103132906751568
  0
ARC
  5
131
100
AcDbEntity
  8
timing cover
 62
256
370
-1
  6
ByLayer
100
AcDbCircle
 10
2.552
 20
5.1039999999999992
 30
0.0
 40
0.71775
100
AcDbArc
 50
138.5340852980947091
 51
217.1090049458084934
  0
ARC
  5
132
100
AcDbEntity
  8
timing cover
 62
256
370
-1
  6
ByLayer
100
AcDbCircle
 10
2.552
 20
3.9077499999999996
 30
0.0
 40
0.87725
100
AcDbArc
 50
131.6496722738668552
 51
47.0103132906750645
  0
ARC
  5
133
100
AcDbEntity
  8
timing cover
 62
256
370
-1
  6
ByLayer
100
AcDbCircle
 10
1.9160024306147947
 20
4.6228416666666661
 30
0.0
 40
0.07975
100
AcDbArc
 50
311.6496722738668836
 51
37.1090049458084152
  0
LINE
  5
134
100
AcDbEntity
100
AcDbLine
  8
timing cover
 62
256
370
-1
  6
ByLayer
 10
4.7738350000000009
 20
7.2070883976666309
 30
0.0
 11
4.6940850000000003
 21
7.2070883976666291
 31
0.0
  0
LINE
  5
135
100
AcDbEntity
100
AcDbLine
  8
timing cover
 62
256
370
-1
  6
ByLayer
 10
4.7339600000000015
 20
7.1672133976666306
 30
0.0
 11
4.7339600000000015
 21
7.2469633976666294
 31
0.0
  0
LINE
  5
136
100
AcDbEntity
100
AcDbLine
  8
timing cover
 62
256
370
-1
  6
ByLayer
 10
3.0987594745767315
 20
6.7615449138135215
 30
0.0
 11
3.0190094745767326
 21
6.7615449138135224
 31
0.0
  0
LINE
  5
137
100
AcDbEntity
100
AcDbLine
  8
timing cover
 62
256
370
-1
  6
ByLayer
 10
3.0588844745767316
 20
6.7216699138135212
 30
0.0
 11
3.0588844745767303
 21
6.8014199138135201
 31
0.0
  0
LINE
  5
138
100
AcDbEntity
100
AcDbLine
  8
timing cover
 62
256
370
-1
  6
ByLayer
 10
4.266950525423268
 20
5.5495434838531077
 30
0.0
 11
4.1872005254232691
 21
5.5495434838531086
 31
0.0
  0
LINE
  5
139
100
AcDbEntity
100
AcDbLine
  8
timing cover
 62
256
370
-1
  6
ByLayer
 10
4.2270755254232695
 20
5.5096684838531091
 30
0.0
 11
4.2270755254232686
 21
5.5894184838531054
 31
0.0
  0
LINE
  5
13A
100
AcDbEntity
100
AcDbLine
  8
timing cover
 62
256
370
-1
  6
ByLayer
 10
1.9345079043093012
 20
5.6848924719801186
 30
0.0
 11
1.8547579043093001
 21
5.6848924719801186
 31
0.0
  0
LINE
  5
13B
100
AcDbEntity
100
AcDbLine
  8
timing cover
 62
256
370
-1
  6
ByLayer
 10
1.8946329043093011
 20
5.6450174719801192
 30
0.0
 11
1.8946329043093006
 21
5.724767471980118
 31
0.0
  0
LINE
  5
13C
100
AcDbEntity
100
AcDbLine
  8
timing cover
 62
256
370
-1
  6
ByLayer
 10
1.7146250000000001
 20
4.5058749999999996
 30
0.0
 11
1.6348750000000012
 21
4.5058750000000005
 31
0.0
  0
LINE
  5
13D
100
AcDbEntity
100
AcDbLine
  8
timing cover
 62
256
370
-1
  6
ByLayer
 10
1.6747500000000022
 20
4.4660000000000011
 30
0.0
 11
1.6747500000000011
 21
4.54575
 31
0.0
  0
LINE
  5
13E
100
AcDbEntity
100
AcDbLine
  8
timing cover
 62
256
370
-1
  6
ByLayer
 10
3.4691250000000022
 20
4.5058750000000005
 30
0.0
 11
3.3893750000000002
 21
4.5058749999999987
 31
0.0
  0
LINE
  5
13F
100
AcDbEntity
100
AcDbLine
  8
timing cover
 62
256
370
-1
  6
ByLayer
 10
3.4292500000000001
 20
4.4659999999999984
 30
0.0
 11
3.4292500000000001
 21
4.5457499999999982
 31
0.0
  0
LINE
  5
140
100
AcDbEntity
100
AcDbLine
  8
timing cover
 62
256
370
-1
  6
ByLayer
 10
1.9698690324131845
 20
3.0783169775163333
 30
0.0
 11
1.8901190324131834
 21
3.0783169775163328
 31
0.0
  0
LINE
  5
141
100
AcDbEntity
100
AcDbLine
  8
timing cover
 62
256
370
-1
  6
ByLayer
 10
1.9299940324131868
 20
3.0384419775163343
 30
0.0
 11
1.9299940324131879
 21
3.1181919775163345
 31
0.0
  0
LINE
  5
142
100
AcDbEntity
100
AcDbLine
  8
timing cover
 62
256
370
-1
  6
ByLayer
 10
3.2138809675868134
 20
3.0783169775163319
 30
0.0
 11
3.1341309675868159
 21
3.0783169775163328
 31
0.0
  0
LINE
  5
143
100
AcDbEntity
100
AcDbLine
  8
timing cover
 62
256
370
-1
  6
ByLayer
 10
3.174005967586818
 20
3.0384419775163343
 30
0.0
 11
3.1740059675868144
 21
3.1181919775163314
 31
0.0
  0
LINE
  5
144
100
AcDbEntity
100
AcDbLine
  8
timing cover
 62
256
370
-1
  6
ByLayer
 10
2.5918749999999999
 20
3.7083749999999993
 30
0.0
 11
2.5121250000000002
 21
3.7083749999999989
 31
0.0
  0
LINE
  5
145
100
AcDbEntity
100
AcDbLine
  8
timing cover
 62
256
370
-1
  6
ByLayer
 10
2.5519999999999996
 20
3.668499999999999
 30
0.0
 11
2.5520000000000023
 21
3.7482500000000005
 31
0.0
  0
LINE
  5
146
100
AcDbEntity
100
AcDbLine
  8
timing cover
 62
256
370
-1
  6
ByLayer
 10
4.0398750000000003
 20
12.0
 30
0.0
 11
3.9601250000000006
 21
12.0
 31
0.0
  0
LINE
  5
147
100
AcDbEntity
100
AcDbLine
  8
timing cover
 62
256
370
-1
  6
ByLayer
 10
4.0
 20
11.9601249999999979
 30
0.0
 11
4.0
 21
12.0398750000000003
 31
0.0
  0
LINE
  5
148
100
AcDbEntity
100
AcDbLine
  8
timing cover
 62
256
370
-1
  6
ByLayer
 10
5.4753749999999997
 20
13.3836107879385722
 30
0.0
 11
5.3956250000000008
 21
13.3836107879385722
 31
0.0
  0
LINE
  5
149
100
AcDbEntity
100
AcDbLine
  8
timing cover
 62
256
370
-1
  6
ByLayer
 10
5.4354999999999993
 20
13.3437357879385736
 30
0.0
 11
5.4355000000000011
 21
13.4234857879385707
 31
0.0
  0
LINE
  5
14A
100
AcDbEntity
100
AcDbLine
  8
timing cover
 62
256
370
-1
  6
ByLayer
 10
6.2218350000000013
 20
14.1030883976666317
 30
0.0
 11
6.1420849999999998
 21
14.1030883976666317
 31
0.0
  0
LINE
  5
14B
100
AcDbEntity
100
AcDbLine
  8
timing cover
 62
256
370
-1
  6
ByLayer
 10
6.181960000000001
 20
14.0632133976666314
 30
0.0
 11
6.1819600000000001
 21
14.1429633976666302
 31
0.0
  0
LINE
  5
14C
100
AcDbEntity
100
AcDbLine
  8
timing cover
 62
256
370
-1
  6
ByLayer
 10
4.5467594745767306
 20
13.6575449138135223
 30
0.0
 11
4.4670094745767326
 21
13.6575449138135205
 31
0.0
  0
LINE
  5
14D
100
AcDbEntity
100
AcDbLine
  8
timing cover
 62
256
370
-1
  6
ByLayer
 10
4.5068844745767311
 20
13.617669913813522
 30
0.0
 11
4.5068844745767311
 21
13.6974199138135226
 31
0.0
  0
LINE
  5
14E
100
AcDbEntity
100
AcDbLine
  8
timing cover
 62
256
370
-1
  6
ByLayer
 10
5.7149505254232693
 20
12.4455434838531076
 30
0.0
 11
5.6352005254232687
 21
12.4455434838531076
 31
0.0
  0
LINE
  5
14F
100
AcDbEntity
100
AcDbLine
  8
timing cover
 62
256
370
-1
  6
ByLayer
 10
5.675075525423269
 20
12.4056684838531091
 30
0.0
 11
5.6750755254232681
 21
12.4854184838531079
 31
0.0
  0
LINE
  5
150
100
AcDbEntity
100
AcDbLine
  8
timing cover
 62
256
370
-1
  6
ByLayer
 10
3.3825079043093007
 20
12.5808924719801194
 30
0.0
 11
3.3027579043093009
 21
12.5808924719801194
 31
0.0
  0
LINE
  5
151
100
AcDbEntity
100
AcDbLine
  8
timing cover
 62
256
370
-1
  6
ByLayer
 10
3.3426329043093004
 20
12.5410174719801191
 30
0.0
 11
3.3426329043093004
 21
12.6207674719801197
 31
0.0
  0
ARC
  5
152
100
AcDbEntity
  8
timing cover
 62
256
370
-1
  6
ByLayer
100
AcDbCircle
 10
5.4355000000000011
 20
13.3836107879385722
 30
0.0
 40
1.0967500000000001
100
AcDbArc
 50
309.3569538265230108
 51
32.5819422225500333
  0
ARC
  5
153
100
AcDbEntity
  8
timing cover
 62
256
370
-1
  6
ByLayer
100
AcDbCircle
 10
6.1819600000000001
 20
14.1030883976666317
 30
0.0
 40
0.2195
100
AcDbArc
 50
324.0473764899747948
 51
123.8436626346435361
  0
LINE
  5
154
100
AcDbEntity
100
AcDbLine
  8
timing cover
 62
256
370
-1
  6
ByLayer
 10
2.9032499999999999
 20
12.0
 30
0.0
 11
5.4779631367251636
 21
12.0
 31
0.0
  0
LINE
  5
155
100
AcDbEntity
100
AcDbLine
  8
timing cover
 62
256
370
-1
  6
ByLayer
 10
4.0
 20
12.0
 30
0.0
 11
4.0
 21
14.4803607879385723
 31
0.0
  0
LINE
  5
156
100
AcDbEntity
100
AcDbLine
  8
timing cover
 62
256
370
-1
  6
ByLayer
 10
5.4355000000000002
 20
14.4803607879385723
 30
0.0
 11
4.0
 21
14.4803607879385723
 31
0.0
  0
ARC
  5
157
100
AcDbEntity
  8
timing cover
 62
256
370
-1
  6
ByLayer
100
AcDbCircle
 10
4.0
 20
12.0
 30
0.0
 40
1.0967500000000001
100
AcDbArc
 50
107.2463834156441749
 51
180.0
  0
LINE
  5
158
100
AcDbEntity
100
AcDbLine
  8
timing cover
 62
256
370
-1
  6
ByLayer
 10
6.1310037726973796
 20
12.5355924717073037
 30
0.0
 11
5.4779631367251636
 21
12.0
 31
0.0
  0
LINE
  5
159
100
AcDbEntity
100
AcDbLine
  8
timing cover
 62
256
370
-1
  6
ByLayer
 10
4.0
 20
13.4154126661296065
 30
0.0
 11
3.6748341426919513
 21
13.0474386510632119
 31
0.0
  0
ARC
  5
15A
100
AcDbEntity
  8
timing cover
 62
256
370
-1
  6
ByLayer
100
AcDbCircle
 10
5.4355000000000011
 20
13.3836107879385722
 30
0.0
 40
1.0967500000000001
100
AcDbArc
 50
55.3090969020678642
 51
90.0
  0
ENDSEC
  0
SECTION
  2
OBJECTS
  0
DICTIONARY
  5
C
100
AcDbDictionary
280
0
281
1
  3
ACAD_GROUP
350
D
  3
ACAD_LAYOUT
350
1A
  3
ACAD_MLINESTYLE
350
17
  3
ACAD_PLOTSETTINGS
350
19
  3
ACAD_PLOTSTYLENAME
350
E
  3
AcDbVariableDictionary
350
15B
  0
DICTIONARY
  5
D
100
AcDbDictionary
280
0
281
1
  0
ACDBDICTIONARYWDFLT
  5
E
100
AcDbDictionary
281
1
  3
Normal
350
F
100
AcDbDictionaryWithDefault
340
F
  0
ACDBPLACEHOLDER
  5
F
  0
DICTIONARY
  5
17
100
AcDbDictionary
280
0
281
1
  3
Standard
350
18
  0
MLINESTYLE
  5
18
100
AcDbMlineStyle
  2
STANDARD
 70
0
  3

 62
256
 51
90.0
 52
90.0
 71
2
 49
0.5
 62
256
  6
BYLAYER
 49
-0.5
 62
256
  6
BYLAYER
  0
DICTIONARY
  5
19
100
AcDbDictionary
280
0
281
1
  0
DICTIONARY
  5
1A
100
AcDbDictionary
281
1
  3
Layout1
350
1E
  3
Layout2
350
26
  3
Model
350
22
  0
LAYOUT
  5
1E
100
AcDbPlotSettings
  1

  2
C:\Program Files\AutoCAD 2002\plotters\DWF ePlot (optimized for plotting).pc3
  4

  6

 40
0.0
 41
0.0
 42
0.0
 43
0.0
 44
0.0
 45
0.0
 46
0.0
 47
0.0
 48
0.0
 49
0.0
140
0.0
141
0.0
142
1.0
143
1.0
 70
688
 72
0
 73
0
 74
5
  7

 75
16
147
1.0
148
0.0
149
0.0
100
AcDbLayout
  1
Layout1
 70
1
 71
1
 10
0.0
 20
0.0
 11
420.0
 21
297.0
 12
0.0
 22
0.0
 32
0.0
 14
100000000000000000000.0
 24
100000000000000000000.0
 34
100000000000000000000.0
 15
-100000000000000000000.0
 25
-100000000000000000000.0
 35
-100000000000000000000.0
146
0.0
 13
0.0
 23
0.0
 33
0.0
 16
1.0
 26
0.0
 36
0.0
 17
0.0
 27
1.0
 37
0.0
 76
0
330
1B
  0
LAYOUT
  5
22
100
AcDbPlotSettings
  1

  2
C:\Program Files\AutoCAD 2002\plotters\DWF ePlot (optimized for plotting).pc3
  4

  6

 40
0.0
 41
0.0
 42
0.0
 43
0.0
 44
0.0
 45
0.0
 46
0.0
 47
0.0
 48
0.0
 49
0.0
140
0.0
141
0.0
142
1.0
143
1.0
 70
1712
 72
0
 73
0
 74
0
  7

 75
0
147
1.0
148
0.0
149
0.0
100
AcDbLayout
  1
Model
 70
1
 71
0
 10
0.0
 20
0.0
 11
12.0
 21
9.0
 12
0.0
 22
0.0
 32
0.0
 14
0.0
 24
0.0
 34
0.0
 15
0.0
 25
0.0
 35
0.0
146
0.0
 13
0.0
 23
0.0
 33
0.0
 16
1.0
 26
0.0
 36
0.0
 17
0.0
 27
1.0
 37
0.0
 76
0
330
1F
  0
LAYOUT
  5
26
100
AcDbPlotSettings
  1

  2
C:\Program Files\AutoCAD 2002\plotters\DWF ePlot (optimized for plotting).pc3
  4

  6

 40
0.0
 41
0.0
 42
0.0
 43
0.0
 44
0.0
 45
0.0
 46
0.0
 47
0.0
 48
0.0
 49
0.0
140
0.0
141
0.0
142
1.0
143
1.0
 70
688
 72
0
 73
0
 74
5
  7

 75
16
147
1.0
148
0.0
149
0.0
100
AcDbLayout
  1
Layout2
 70
1
 71
2
 10
0.0
 20
0.0
 11
12.0
 21
9.0
 12
0.0
 22
0.0
 32
0.0
 14
0.0
 24
0.0
 34
0.0
 15
0.0
 25
0.0
 35
0.0
146
0.0
 13
0.0
 23
0.0
 33
0.0
 16
1.0
 26
0.0
 36
0.0
 17
0.0
 27
1.0
 37
0.0
 76
0
330
23
  0
DICTIONARY
  5
15B
100
AcDbDictionary
281
1
  3
DIMASSOC
350
15D
  3
HIDETEXT
350
15C
  0
DICTIONARYVAR
  5
15C
100
DictionaryVariables
280
0
  1
2
  0
DICTIONARYVAR
  5
15D
100
DictionaryVariables
280
0
  1
1
  0
ENDSEC
  0
EOF
